<svg width="29" height="32" viewBox="0 0 29 32" fill="none" xmlns="http://www.w3.org/2000/svg">
<path d="M14.7055 0C6.94511 0 0.674702 5.98519 0.736785 13.3926C0.736785 16.3556 1.66803 18.9037 3.77886 21.3926C4.83428 22.6963 6.07594 23.8815 7.31761 24.9481C7.62803 25.1852 7.93844 25.4815 8.24886 25.7778C10.2355 27.5556 12.3464 29.3926 14.0847 31.7037C14.2088 31.8815 14.4572 32 14.7055 32C14.9538 32 15.1401 31.8815 15.3884 31.7037C16.1334 30.6963 17.0026 29.7481 18.058 28.6815C19.1134 27.6741 20.1688 26.7259 21.2243 25.7778C22.8384 24.2963 24.3905 22.9333 25.6943 21.3926C27.743 18.8444 28.7363 16.3556 28.7363 13.3926C28.7363 5.98519 22.4659 0 14.7055 0ZM24.3905 20.4444C23.1488 21.8667 21.6588 23.2296 20.0447 24.6519C18.9893 25.6 17.8718 26.5481 16.8163 27.6148C16.0093 28.4444 15.2643 29.2148 14.6434 29.9852C12.9672 27.9704 11.1047 26.2519 9.24219 24.6519C8.93177 24.3556 8.62136 24.1185 8.31094 23.8222C7.19344 22.7556 5.95178 21.6296 4.95845 20.4444C3.03387 18.1926 2.22678 16 2.22678 13.3926C2.22678 6.81482 7.81427 1.48148 14.7055 1.48148C21.5968 1.48148 27.1842 6.81482 27.1222 13.3926C27.1222 16 26.253 18.1926 24.3905 20.4444Z" fill="#33323C"/>
<path d="M24.8294 12.5609H23.7119C23.2773 8.41279 19.8628 5.15353 15.5169 4.79797V3.73131C15.5169 3.31649 15.1444 2.96094 14.7099 2.96094C14.2753 2.96094 13.9028 3.31649 13.9028 3.73131V4.79797C9.55695 5.15353 6.08028 8.47205 5.70778 12.5609H4.59029C4.1557 12.5609 3.7832 12.9165 3.7832 13.3313C3.7832 13.7461 4.1557 14.1017 4.59029 14.1017H5.70778C6.08028 18.2498 9.55695 21.6276 13.9028 21.9832V22.9906C13.9028 23.4054 14.2753 23.7609 14.7099 23.7609C15.1444 23.7609 15.4549 23.4054 15.5169 23.0498V21.9832C19.8628 21.6276 23.4015 18.3091 23.7119 14.1017H24.7673C25.2019 14.1017 25.6365 13.7461 25.6365 13.3313C25.6365 12.9165 25.264 12.5609 24.8294 12.5609ZM22.1598 12.5609H20.6078C20.2353 10.072 18.1244 8.11649 15.5169 7.76094V6.27946C18.9936 6.63501 21.7873 9.24242 22.1598 12.5609ZM14.7099 14.635C14.0269 14.635 13.4061 14.1017 13.4061 13.3906C13.4061 12.7387 13.9649 12.1461 14.7099 12.1461C15.3928 12.1461 16.0136 12.6795 16.0136 13.3906C16.0136 14.0424 15.4549 14.635 14.7099 14.635ZM13.9028 10.7832C13.0336 11.0202 12.2886 11.672 11.9782 12.5609H10.364C10.7365 10.9017 12.1024 9.59797 13.9028 9.24242V10.7832ZM11.9782 14.1017C12.2265 14.9906 12.9715 15.7017 13.9028 15.998V17.5387C12.1024 17.2424 10.6744 15.8202 10.364 14.1017H11.9782ZM15.5169 15.998C16.4482 15.7017 17.1932 14.9906 17.4415 14.1017H19.0557C18.7453 15.8202 17.3174 17.1832 15.5169 17.5387V15.998ZM17.4415 12.5609C17.1311 11.672 16.4482 11.0202 15.5169 10.7832V9.24242C17.2553 9.53871 18.6832 10.9017 19.0557 12.5609H17.4415ZM13.9028 6.27946V7.76094C11.2953 8.11649 9.18445 10.072 8.81195 12.5609H7.25987C7.63236 9.24242 10.4261 6.63501 13.9028 6.27946ZM7.25987 14.1017H8.81195C9.12236 16.6498 11.2332 18.6646 13.9028 19.0202V20.5017C10.364 20.1461 7.57028 17.4795 7.25987 14.1017ZM15.5169 20.5017V19.0202C18.1865 18.6646 20.2973 16.6498 20.6078 14.1017H22.1598C21.8494 17.4795 19.0557 20.1461 15.5169 20.5017Z" fill="#33323C"/>
</svg>
