<svg width="56" height="55" viewBox="0 0 56 55" fill="none" xmlns="http://www.w3.org/2000/svg">
<path d="M0.736328 0V55H55.7363V0H0.736328ZM53.322 2.41206V13.5865H50.7791V10.8784H47.5798V13.5865H46.694V10.8784H43.4947V13.5865H42.3128V5.80868H40.7384V13.5865H39.607V5.80868H38.0326V13.5865H36.9012V5.80868H35.3268V13.5865H34.1953V5.80868H32.6209V13.5865H31.4895V5.80868H29.9151V13.5865H28.7837V5.80868H27.2093V13.5865H26.0779V5.80868H24.5035V13.5865H22.8304V7.67912H20.2715V13.5865H19.1882V7.67912H16.6293V13.5865H15.546V7.67912H12.9871V13.5865H11.9039V7.67912H9.34493V13.5865H8.26168V7.67912H5.70274V13.5865H3.15986V2.41206H53.322ZM47.5798 42.9213V45.0878H46.694V42.9213H43.4947V45.0878H42.3128V37.8517H40.7384V45.0878H39.607V37.8517H38.0326V45.0878H36.9012V37.8517H35.3268V45.0878H34.1953V37.8517H32.6209V45.0878H31.4895V37.8517H29.9151V45.0878H28.7837V37.8517H27.2093V45.0878H26.0779V37.8517H24.5035V45.0878H22.8304V39.7221H20.2715V45.0878H19.1882V39.7221H16.6293V45.0878H15.546V39.7221H12.9871V45.0878H11.9039V39.7221H9.34493V45.0878H8.26168V39.7221H5.70274V45.0878H3.15986V31.4027H53.3357V45.0878H50.7929V42.9213H47.5798ZM50.7791 29.3372V23.9714H48.2202V29.3372H47.1369V23.9714H44.578V29.3372H43.4947V23.9714H40.9358V29.3372H39.8525V23.9714H37.2936V29.3372H36.2104V23.9714H33.6514V29.3372H31.9783V22.101H30.404V29.3372H29.2725V22.101H27.6981V29.3372H26.5667V22.101H24.9923V29.3372H23.8609V22.101H22.2865V29.3372H21.1551V22.101H19.5807V29.3372H18.4492V22.101H16.8749V29.3372H15.7434V22.101H14.169V29.3372H12.9871V27.1707H9.78786V29.3372H8.90199V27.1707H5.70274V29.3372H3.15986V15.652H53.3357V29.3372H50.7791ZM50.8043 52.5856V49.9441H47.6051V52.5856H46.7192V49.9441H43.52V52.5856H42.6341V49.9441H39.4348V52.5856H38.549V49.9441H35.3497V52.5856H34.4638V49.9441H31.2646V52.5856H30.3787V49.9441H27.1795V52.5856H26.2936V49.9441H23.0944V52.5856H22.2085V49.9441H19.0092V52.5856H18.1234V49.9441H14.9241V52.5856H14.0382V49.9441H10.839V52.5856H9.9531V49.9441H6.75385V52.5856H3.15298V47.1556H53.3289V52.5856H50.8043Z" fill="#33323C"/>
</svg>
