<svg width="31" height="30" viewBox="0 0 31 30" fill="none" xmlns="http://www.w3.org/2000/svg">
<g clip-path="url(#clip0_1_45024)">
<path d="M25.6868 12.5547H24.4492V13.7903H25.6868V12.5547Z" fill="#33323C"/>
<path d="M16.3304 12.5547H15.0928V13.7903H16.3304V12.5547Z" fill="#33323C"/>
<path d="M6.97395 12.5547H5.73633V13.7903H6.97395V12.5547Z" fill="#33323C"/>
<path d="M8.80566 18.7823C8.80566 19.1282 9.10269 19.4248 9.44923 19.4248H11.2809V25.6027C11.2809 25.9487 11.5779 26.2452 11.9245 26.2452C12.271 26.2452 12.568 25.9487 12.568 25.6521V16.9536C12.568 16.6076 12.271 16.3111 11.9245 16.3111C11.5779 16.3111 11.2809 16.6076 11.2809 16.9536V18.1398H10.0433V11.9619C10.0433 10.578 11.1819 9.44126 12.568 9.44126H18.7562C20.1423 9.44126 21.2809 10.578 21.2809 11.9619V18.1398H20.0433V16.9536C20.0433 16.6076 19.7463 16.3111 19.3997 16.3111C19.0532 16.3111 18.7562 16.6076 18.7562 16.9536V25.6027C18.7562 25.9487 19.0532 26.2452 19.3997 26.2452C19.7463 26.2452 20.0433 25.9487 20.0433 25.6521V19.4248H21.875C22.2215 19.4248 22.5185 19.1282 22.469 18.7823V11.9619C22.469 9.88607 20.7859 8.15625 18.6572 8.15625H12.6175C10.5383 8.15625 8.80566 9.83665 8.80566 11.9619V18.7823Z" fill="#33323C"/>
<path d="M15.0435 19.4238V25.6017C15.0435 25.9476 15.3405 26.2442 15.687 26.2442C16.0336 26.2442 16.3306 25.9476 16.3306 25.6511V19.4238C16.3306 19.0778 16.0336 18.7812 15.687 18.7812C15.3405 18.7812 15.0435 19.0778 15.0435 19.4238Z" fill="#33323C"/>
<path d="M15.6867 7.56704C17.7164 7.56704 19.4491 5.88665 19.4491 3.81087C19.4491 1.78451 17.7659 0.0546875 15.6867 0.0546875C13.6075 0.0546875 11.9243 1.73508 11.9243 3.81087C11.9738 5.88665 13.657 7.56704 15.6867 7.56704ZM15.6867 1.3397C17.0728 1.3397 18.1619 2.42701 18.1619 3.81087C18.1619 5.19472 17.0728 6.28203 15.6867 6.28203C14.3006 6.28203 13.2114 5.19472 13.2114 3.81087C13.2114 2.42701 14.3006 1.3397 15.6867 1.3397Z" fill="#33323C"/>
<path d="M23.2612 8.10938C22.9147 8.10938 22.6177 8.40592 22.6177 8.75188C22.6177 9.09784 22.9147 9.39438 23.2612 9.39438H25.687C27.0731 9.39438 28.2117 10.5311 28.2117 11.915V18.0929H26.9741V16.9067C26.9741 16.5608 26.6771 16.2642 26.3305 16.2642C25.984 16.2642 25.687 16.5608 25.687 16.9067V25.5558C25.687 25.9018 25.984 26.1983 26.3305 26.1983C26.6276 26.1983 26.9246 25.9018 26.9741 25.6053V19.4273H28.8058C29.1028 19.4273 29.3999 19.1308 29.4494 18.7848V11.915C29.4494 9.83919 27.7662 8.10938 25.6375 8.10938H23.2612Z" fill="#33323C"/>
<path d="M21.9243 21.3041V25.6534C21.9243 25.9994 22.2213 26.2959 22.5679 26.2959C22.8649 26.2959 23.1619 25.9994 23.2114 25.7028V21.3041C23.2114 20.9582 22.9144 20.6616 22.5679 20.6616C22.2709 20.6122 21.9243 20.9088 21.9243 21.3041Z" fill="#33323C"/>
<path d="M22.6177 6.27932C22.2712 6.27932 21.9741 6.57586 21.9741 6.92182C21.9741 7.26779 22.2712 7.56433 22.6177 7.56433C24.6474 7.56433 26.3801 5.78509 26.3801 3.7093C26.3801 1.68294 24.6969 -0.046875 22.6177 -0.046875C22.2712 -0.046875 21.9741 0.249665 21.9741 0.595629C21.9741 0.941593 22.2712 1.23813 22.6177 1.23813C24.0038 1.23813 25.0929 2.32545 25.0929 3.7093C25.0929 5.192 24.0038 6.27932 22.6177 6.27932Z" fill="#33323C"/>
<path d="M2.61739 19.4222H4.44907V25.6002C4.44907 25.9461 4.7461 26.2427 5.09263 26.2427C5.38966 26.2427 5.68669 25.9461 5.7362 25.6496V16.9511C5.7362 16.6051 5.43917 16.3086 5.09263 16.3086C4.7461 16.3086 4.44907 16.6051 4.44907 16.9511V18.1867H3.21145V12.0087C3.21145 10.6249 4.35006 9.48813 5.7362 9.48813H8.16194C8.50847 9.48813 8.8055 9.19159 8.8055 8.84563C8.8055 8.49967 8.50847 8.20312 8.16194 8.20312H5.7362C3.65699 8.20312 1.92432 9.88352 1.92432 12.0087V18.7797C1.97382 19.1257 2.27085 19.4222 2.61739 19.4222Z" fill="#33323C"/>
<path d="M8.21143 21.3066V25.6558C8.21143 26.0018 8.50846 26.2983 8.85499 26.2983C9.15202 26.2983 9.44905 26.0018 9.44905 25.7052V21.3066C9.44905 20.9606 9.20152 20.6641 8.85499 20.6641C8.50846 20.6641 8.21143 20.9112 8.21143 21.3066Z" fill="#33323C"/>
<path d="M8.85515 7.56195C9.15218 7.56195 9.49871 7.31483 9.49871 6.96887C9.49871 6.6229 9.20168 6.32636 8.85515 6.32636C7.46901 6.32636 6.3799 5.23905 6.3799 3.85519C6.3799 2.47134 7.46901 1.38402 8.85515 1.38402C9.15218 1.38402 9.49871 1.13691 9.49871 0.790942C9.49871 0.444978 9.20168 0.148438 8.85515 0.148438C6.82545 0.148438 5.09277 1.82883 5.09277 3.90462C5.14228 5.88155 6.82545 7.56195 8.85515 7.56195Z" fill="#33323C"/>
<path d="M29.1522 24.0212C28.8551 23.873 28.4591 23.9718 28.3106 24.2684C28.1621 24.5649 28.2611 24.9603 28.5581 25.1086C29.2017 25.4545 29.4492 25.7511 29.4492 25.9488C29.4492 26.2947 28.4591 27.0855 25.6868 27.728C23.2116 28.3211 19.8452 28.667 16.3304 28.7165V28.074C16.3304 27.728 16.0334 27.4315 15.6868 27.4315C15.3403 27.4315 15.0433 27.728 15.0433 28.074V28.7165C11.5284 28.667 8.21158 28.3211 5.68682 27.728C2.96405 27.0855 1.92445 26.2947 1.92445 25.9488C1.92445 25.7511 2.17197 25.4545 2.86504 25.1086C3.16207 24.9603 3.26108 24.5649 3.11257 24.2684C2.96405 23.9718 2.56801 23.873 2.27098 24.0212C1.28088 24.5649 0.736328 25.2074 0.736328 25.9488C0.736328 27.2338 2.32049 28.2222 5.4393 28.9636C8.16207 29.6061 11.8254 29.9521 15.7363 29.9521C19.6472 29.9521 23.2611 29.6061 26.0829 28.9636C29.2017 28.2222 30.7858 27.1843 30.7858 25.9488C30.7363 25.2074 30.1918 24.5649 29.1522 24.0212Z" fill="#33323C"/>
</g>
<defs>
<clipPath id="clip0_1_45024">
<rect width="30" height="30" fill="white" transform="translate(0.736328)"/>
</clipPath>
</defs>
</svg>
