<svg width="55" height="56" viewBox="0 0 55 56" fill="none" xmlns="http://www.w3.org/2000/svg">
<path d="M21.5155 0.8125C22.0343 0.8125 22.5318 0.995957 22.8986 1.32251C23.2654 1.64907 23.4715 2.09197 23.4715 2.55379V9.51895C23.4715 9.98077 23.2654 10.4237 22.8986 10.7502C22.5318 11.0768 22.0343 11.2602 21.5155 11.2602C20.9968 11.2602 20.4993 11.0768 20.1324 10.7502C19.7656 10.4237 19.5596 9.98077 19.5596 9.51895V2.55379C19.5596 2.09197 19.7656 1.64907 20.1324 1.32251C20.4993 0.995957 20.9968 0.8125 21.5155 0.8125ZM6.29818 6.41945C6.47987 6.25729 6.69571 6.12864 6.93334 6.04085C7.17097 5.95307 7.42572 5.90788 7.683 5.90788C7.94027 5.90788 8.19502 5.95307 8.43265 6.04085C8.67028 6.12864 8.88612 6.25729 9.06781 6.41945L14.5993 11.3473C14.7861 11.5079 14.9351 11.7001 15.0376 11.9125C15.1401 12.125 15.1941 12.3535 15.1963 12.5847C15.1986 12.8159 15.1491 13.0452 15.0507 13.2592C14.9524 13.4732 14.8071 13.6676 14.6235 13.8311C14.4398 13.9946 14.2215 14.1239 13.9811 14.2114C13.7407 14.299 13.4831 14.343 13.2234 14.341C12.9637 14.339 12.7071 14.291 12.4684 14.1997C12.2298 14.1085 12.014 13.9758 11.8335 13.8095L6.30209 8.88512C5.93541 8.55858 5.72941 8.11575 5.72941 7.65403C5.72941 7.1923 5.93541 6.74948 6.30209 6.42294L6.29818 6.41945ZM36.7329 6.41945C36.915 6.5812 37.0595 6.77336 37.1581 6.98491C37.2567 7.19646 37.3075 7.42325 37.3075 7.65229C37.3075 7.88133 37.2567 8.10811 37.1581 8.31966C37.0595 8.53121 36.915 8.72337 36.7329 8.88512L31.1936 13.8095C31.0132 13.9758 30.7973 14.1085 30.5587 14.1997C30.3201 14.291 30.0634 14.339 29.8037 14.341C29.544 14.343 29.2864 14.299 29.046 14.2114C28.8057 14.1239 28.5873 13.9946 28.4036 13.8311C28.22 13.6676 28.0747 13.4732 27.9764 13.2592C27.878 13.0452 27.8286 12.8159 27.8308 12.5847C27.8331 12.3535 27.887 12.125 27.9895 11.9125C28.092 11.7001 28.2411 11.5079 28.4279 11.3473L33.9593 6.42294C34.3261 6.09649 34.8235 5.91311 35.3422 5.91311C35.8608 5.91311 36.3582 6.09649 36.725 6.42294L36.7329 6.41945ZM0 19.9667C0 19.5049 0.206074 19.062 0.572887 18.7354C0.9397 18.4089 1.4372 18.2254 1.95596 18.2254H9.77978C10.2985 18.2254 10.796 18.4089 11.1629 18.7354C11.5297 19.062 11.7357 19.5049 11.7357 19.9667C11.7357 20.4285 11.5297 20.8714 11.1629 21.198C10.796 21.5245 10.2985 21.708 9.77978 21.708H1.95596C1.4372 21.708 0.9397 21.5245 0.572887 21.198C0.206074 20.8714 0 20.4285 0 19.9667ZM21.5155 21.8194V54.0681C21.5148 54.4129 21.6292 54.7502 21.844 55.0371C22.0589 55.3241 22.3646 55.5477 22.7225 55.6798C23.0803 55.8118 23.4741 55.8463 23.854 55.7789C24.2339 55.7114 24.5827 55.5451 24.8563 55.3009L34.8708 46.3855C36.3377 45.0792 38.3274 44.3451 40.4022 44.3447H53.0455C53.4515 44.3445 53.8474 44.2317 54.1782 44.0221C54.509 43.8125 54.7583 43.5165 54.8916 43.1751C55.0249 42.8336 55.0355 42.4638 54.922 42.1167C54.8085 41.7697 54.5765 41.4627 54.2582 41.2383L24.6842 20.4508C24.3957 20.2478 24.0488 20.1214 23.6833 20.0859C23.3178 20.0505 22.9485 20.1075 22.6177 20.2504C22.2869 20.3932 22.008 20.6162 21.8131 20.8937C21.6181 21.1713 21.515 21.4921 21.5155 21.8194Z" fill="#33323C"/>
</svg>
