<svg width="55" height="56" viewBox="0 0 55 56" fill="none" xmlns="http://www.w3.org/2000/svg">
<path d="M38.2235 55.7698H16.3163C12.1236 55.765 8.10387 54.0974 5.13913 51.1326C2.17438 48.1679 0.506703 44.1482 0.501953 39.9554V18.0482C0.506704 13.8555 2.1744 9.83583 5.13916 6.87118C8.10393 3.90652 12.1236 2.23897 16.3163 2.23438H26.075V6.41666H16.3163C13.2325 6.42003 10.2759 7.64657 8.09534 9.82718C5.91473 12.0078 4.68818 14.9644 4.68481 18.0482V39.9554C4.68818 43.0393 5.91471 45.9959 8.0953 48.1766C10.2759 50.3573 13.2325 51.584 16.3163 51.5875H38.2235C41.3074 51.584 44.264 50.3573 46.4446 48.1766C48.6252 45.9959 49.8517 43.0393 49.8551 39.9554V29.0018H54.0379V39.9554C54.0332 44.1482 52.3655 48.1679 49.4008 51.1326C46.436 54.0974 42.4163 55.765 38.2235 55.7698Z" fill="#33323C"/>
<path d="M45.9162 0.773438L54.0353 8.89253L26.726 36.2013L16.3931 38.4157L18.6069 28.0827L45.9162 0.773438Z" fill="#33323C"/>
</svg>
