<svg width="55" height="43" viewBox="0 0 55 43" fill="none" xmlns="http://www.w3.org/2000/svg">
<path d="M50 12.75C46.375 12.75 44.35 16.35 45.175 19.025L36.3 27.925C35.55 27.7 34.45 27.7 33.7 27.925L27.325 21.55C28.175 18.875 26.15 15.25 22.5 15.25C18.875 15.25 16.825 18.85 17.675 21.55L6.275 32.925C3.6 32.1 0 34.125 0 37.75C0 40.5 2.25 42.75 5 42.75C8.625 42.75 10.65 39.15 9.825 36.475L21.2 25.075C21.95 25.3 23.05 25.3 23.8 25.075L30.175 31.45C29.325 34.125 31.35 37.75 35 37.75C38.625 37.75 40.675 34.15 39.825 31.45L48.725 22.575C51.4 23.4 55 21.375 55 17.75C55 15 52.75 12.75 50 12.75Z" fill="#33323C"/>
<path d="M35 15.25L37.35 10.075L42.5 7.75L37.35 5.425L35 0.25L32.7 5.425L27.5 7.75L32.7 10.075L35 15.25ZM6.25 20.25L7.5 15.25L12.5 14L7.5 12.75L6.25 7.75L5 12.75L0 14L5 15.25L6.25 20.25Z" fill="#33323C"/>
</svg>
