<svg width="56" height="55" viewBox="0 0 56 55" fill="none" xmlns="http://www.w3.org/2000/svg">
<path d="M8.5425 27.4939C8.55823 16.6277 17.4164 7.80029 28.2697 7.83605C39.1215 7.8718 47.9504 16.7286 47.906 27.5353C47.8617 38.3943 39.0357 47.1896 28.2032 47.1695C17.3521 47.1488 8.52677 38.3171 8.5425 27.4939ZM27.9872 27.3315C27.7455 27.2336 27.5889 27.1742 27.4352 27.1077C25.1913 26.1302 22.9475 25.1506 20.7036 24.1724C19.7776 23.7691 18.858 23.3515 17.922 22.9718C17.3664 22.7465 16.7858 23.009 16.5484 23.5331C16.3081 24.0637 16.5069 24.6393 17.0389 24.9389C17.1576 25.0061 17.2856 25.0583 17.4107 25.1134C21.0347 26.6958 24.6586 28.2783 28.2825 29.8607C29.5096 30.3963 30.1739 29.968 30.1746 28.638C30.176 25.4488 30.1753 22.2596 30.1746 19.0697C30.1746 18.5899 30.1832 18.1094 30.1682 17.6296C30.1524 17.1161 29.9086 16.7472 29.4088 16.5827C28.6494 16.3324 27.9915 16.8795 27.9887 17.7826C27.9808 20.3032 27.9858 22.8238 27.9858 25.3444C27.9872 25.9779 27.9872 26.6108 27.9872 27.3315Z" fill="#33323C"/>
<path d="M46.7795 44.1425C46.8117 43.6333 46.8403 43.1471 46.8739 42.6609C46.9218 41.9651 46.6093 41.5175 46.0387 41.4703C45.4509 41.4216 45.0776 41.7906 45.0297 42.4957C44.9253 44.0524 44.8202 45.6091 44.7366 47.1672C44.6915 48.0117 45.1649 48.4014 45.9929 48.2519C47.4423 47.9902 48.8925 47.7306 50.3427 47.4725C51.0341 47.3495 51.4031 46.9448 51.318 46.3906C51.2293 45.8136 50.7195 45.5211 50.0209 45.6441C49.6254 45.7142 49.23 45.7828 48.7245 45.8708C49.2708 45.1872 49.7563 44.6158 50.2025 44.0145C54.4478 38.2861 56.2784 31.8562 55.5576 24.7707C54.3499 12.8906 45.9872 3.34379 34.346 0.708786C18.586 -2.85795 4.26039 7.47543 1.31647 21.8554C-1.61386 36.1709 6.81316 50.0324 20.8041 53.981C25.0895 55.1902 29.4213 55.2982 33.7839 54.4379C34.4039 54.3157 34.8808 54.0468 35.0095 53.3718C35.1726 52.518 34.4311 51.7972 33.5301 51.9724C31.6566 52.3364 29.7724 52.5387 27.8603 52.5209C16.6846 52.4165 6.75667 44.6366 3.99438 33.8048C0.472693 19.9955 8.90901 6.21764 22.822 3.05777C36.4282 -0.0327347 50.2547 9.01496 52.7717 22.7156C54.2026 30.5062 52.3777 37.4995 47.3465 43.6369C47.2164 43.7957 47.0741 43.9444 46.9339 44.0953C46.9154 44.1146 46.8767 44.1139 46.7795 44.1425Z" fill="#33323C"/>
</svg>
