<svg width="55" height="56" viewBox="0 0 55 56" fill="none" xmlns="http://www.w3.org/2000/svg">
<path d="M52.632 30.3693C53.8357 30.3693 54.8675 29.3949 54.8675 28.1338C54.8675 26.8728 53.893 25.8983 52.632 25.8983H47.3011V19.421H52.632C53.8357 19.421 54.8675 18.4465 54.8675 17.1855C54.8675 15.9244 53.893 14.9499 52.632 14.9499H47.0145C46.212 11.9119 43.8045 9.50443 40.7665 8.70193V3.14178C40.7665 1.93803 39.792 0.90625 38.531 0.90625C37.3272 0.90625 36.2954 1.88071 36.2954 3.14178V8.47265H29.8755V3.14178C29.8755 1.93803 28.901 0.90625 27.6399 0.90625C26.3789 0.90625 25.4044 1.88071 25.4044 3.14178V8.47265H18.9271V3.14178C18.9271 1.93803 17.9526 0.90625 16.6916 0.90625C15.4305 0.90625 14.456 1.88071 14.456 3.14178V8.75926C11.418 9.56175 9.01053 11.9692 8.20804 15.0073H2.64788C1.44414 15.0073 0.412354 15.9817 0.412354 17.2428C0.412354 18.5039 1.38681 19.4783 2.64788 19.4783H7.97875V25.9556H2.64788C1.44414 25.9556 0.412354 26.9301 0.412354 28.1911C0.412354 29.4522 1.38681 30.4267 2.64788 30.4267H7.97875V36.904H2.64788C1.44414 36.904 0.412354 37.8784 0.412354 39.1395C0.412354 40.3432 1.38681 41.375 2.64788 41.375H8.26536C9.06786 44.413 11.4753 46.8205 14.5134 47.623V53.2405C14.5134 54.4443 15.4878 55.476 16.7489 55.476C18.01 55.476 18.9844 54.5016 18.9844 53.2405V47.9096H25.4617V53.2405C25.4617 54.4443 26.4362 55.476 27.6972 55.476C28.9583 55.476 29.9328 54.5016 29.9328 53.2405V47.9096H36.4101V53.2405C36.4101 54.4443 37.3845 55.476 38.6456 55.476C39.8493 55.476 40.8811 54.5016 40.8811 53.2405V47.623C43.9191 46.8205 46.3266 44.413 47.1291 41.375H52.7466C53.9504 41.375 54.9821 40.4006 54.9821 39.1395C54.9821 37.9357 54.0077 36.904 52.7466 36.904H47.4157V30.3693H52.632ZM42.8874 39.0822C42.8874 41.4323 40.9384 43.3813 38.5883 43.3813H16.6916C14.3414 43.3813 12.3925 41.4323 12.3925 39.0822V17.1855C12.3925 14.8353 14.3414 12.8864 16.6916 12.8864H38.5883C40.9384 12.8864 42.8874 14.8353 42.8874 17.1855V39.0822Z" fill="#263238"/>
<path d="M33.1971 21.8293L25.2295 29.7969L22.0768 26.6443C21.217 25.7845 19.784 25.7845 18.9242 26.6443C18.0643 27.5041 18.0643 28.9371 18.9242 29.7969L23.6818 34.5546C24.1404 35.0132 24.6563 35.1851 25.2295 35.1851C25.8027 35.1851 26.3759 34.9558 26.7772 34.5546L36.2925 25.0393C37.1523 24.1795 37.1523 22.7464 36.2925 21.8866C35.49 20.9121 34.057 20.9122 33.1971 21.8293Z" fill="#263238"/>
</svg>
