<svg width="55" height="55" viewBox="0 0 55 55" fill="none" xmlns="http://www.w3.org/2000/svg">
<path d="M54.1663 39.5509C54.1652 43.1563 52.9186 46.6531 50.6331 49.4626C48.3475 52.2721 45.1601 54.2257 41.5983 55L39.897 49.954C41.455 49.7003 42.9366 49.1081 44.2351 48.22C45.5337 47.3319 46.6168 46.1701 47.4063 44.8183H40.833C39.4185 44.8183 38.062 44.2628 37.0618 43.274C36.0616 42.2851 35.4997 40.944 35.4997 39.5456V29.0001C35.4997 27.6017 36.0616 26.2605 37.0618 25.2717C38.062 24.2829 39.4185 23.7274 40.833 23.7274H48.6677C48.0169 18.631 45.5075 13.9445 41.6101 10.5473C37.7128 7.15005 32.6955 5.27558 27.4997 5.27558C22.3038 5.27558 17.2865 7.15005 13.3892 10.5473C9.49189 13.9445 6.98242 18.631 6.33167 23.7274H14.1663C15.5808 23.7274 16.9374 24.2829 17.9376 25.2717C18.9378 26.2605 19.4997 27.6017 19.4997 29.0001V39.5456C19.4997 40.944 18.9378 42.2851 17.9376 43.274C16.9374 44.2628 15.5808 44.8183 14.1663 44.8183H6.16634C4.75185 44.8183 3.3953 44.2628 2.3951 43.274C1.39491 42.2851 0.833008 40.944 0.833008 39.5456V26.3637C0.833008 11.803 12.7717 0 27.4997 0C42.2277 0 54.1663 11.803 54.1663 26.3637V39.5509Z" fill="#33323C"/>
</svg>
