<svg width="55" height="56" viewBox="0 0 55 56" fill="none" xmlns="http://www.w3.org/2000/svg">
<path fill-rule="evenodd" clip-rule="evenodd" d="M27.6688 0.906251C12.6037 0.901362 0.384399 13.1193 0.384399 28.1907C0.384399 35.4291 3.2566 42.3653 8.37609 47.4846C13.4936 52.603 20.4321 55.476 27.6688 55.476C42.7349 55.476 54.9542 43.2621 54.9542 28.1907C54.9385 23.9739 53.9508 19.813 52.0615 16.0442L48.1135 20.4242C49.0563 22.9041 49.5403 25.5376 49.5403 28.1907C49.5452 34.0023 47.2383 39.5734 43.1378 43.6845C39.0324 47.7888 33.4699 50.1025 27.6688 50.1025C21.8677 50.1025 16.3013 47.7946 12.2008 43.6845C8.10129 39.5734 5.79336 34.0023 5.79336 28.1907C5.79336 22.38 8.10129 16.8069 12.2008 12.6968C16.3071 8.58766 21.8677 6.27884 27.6688 6.27884C32.0392 6.28373 36.3079 7.59803 39.9292 10.0535L43.7744 6.20745C39.1087 2.77111 33.465 0.91603 27.6688 0.906251Z" fill="#263238"/>
<path d="M49.3205 4.98039L27.3531 26.9479L22.8047 22.4858C19.733 19.4709 15.791 23.7492 17.875 26.5499L25.4794 36.7876C26.4916 37.7792 28.2949 37.7097 29.2376 36.7876L53.8738 9.47678C56.6814 6.37097 51.9854 2.32148 49.3205 4.98039Z" fill="#263238"/>
<path d="M27.3387 9.21116C26.5886 9.21703 25.9882 9.83408 25.9989 10.5822V12.2329C25.9989 12.981 26.6052 13.5931 27.3592 13.5931C28.1083 13.5931 28.7195 12.9819 28.7195 12.2329V10.5822C28.7235 9.81844 28.1025 9.19747 27.3387 9.21116Z" fill="#263238"/>
<path d="M27.3389 42.7737C26.5849 42.7785 25.9825 43.4005 25.9991 44.1496V45.8003C25.9991 46.5542 26.6054 47.1654 27.3594 47.1654C28.1085 47.1654 28.7197 46.5542 28.7197 45.8003V44.1496C28.7295 43.3858 28.1075 42.76 27.3389 42.7737Z" fill="#263238"/>
<path d="M43.1617 26.8325C41.4347 26.9958 41.5628 29.5521 43.2996 29.5413H44.9406C45.7249 29.598 46.387 28.9702 46.387 28.1869C46.387 27.4017 45.7249 26.7768 44.9406 26.8325H43.2996C43.2536 26.8267 43.2077 26.8267 43.1617 26.8325Z" fill="#263238"/>
<path d="M9.64139 26.8325C7.91436 26.9958 8.04247 29.5521 9.77439 29.5413H11.4154C12.1987 29.598 12.8656 28.9702 12.8656 28.1869C12.8656 27.4017 12.1987 26.7768 11.4154 26.8325H9.77439C9.72941 26.8267 9.68149 26.8267 9.64139 26.8325Z" fill="#263238"/>
<path d="M38.6195 38.1094C37.3924 38.1006 36.7814 39.5915 37.6623 40.4411L38.8287 41.6075C39.3527 42.1735 40.2434 42.1931 40.789 41.6485C41.3345 41.104 41.313 40.2133 40.7479 39.6874L39.5923 38.523C39.3371 38.259 38.9861 38.1094 38.6195 38.1094Z" fill="#263238"/>
<path d="M14.7734 14.3658C13.6275 14.4832 13.1387 15.8881 13.9638 16.6936L15.1234 17.859C15.6435 18.4251 16.5342 18.4388 17.0788 17.8942C17.6243 17.3487 17.6097 16.4649 17.0436 15.9389L15.8821 14.7745C15.5985 14.4734 15.185 14.3258 14.7734 14.3658Z" fill="#263238"/>
<path d="M16.0544 38.1102C15.7034 38.1209 15.3671 38.2676 15.1217 38.5237L13.9622 39.6881C13.3961 40.2141 13.3804 41.1047 13.925 41.6493C14.4696 42.189 15.3564 42.1743 15.8804 41.6082L17.0419 40.4419C17.9336 39.5825 17.2961 38.0701 16.0544 38.1102Z" fill="#263238"/>
</svg>
