<svg width="55" height="55" viewBox="0 0 55 55" fill="none" xmlns="http://www.w3.org/2000/svg">
<g clip-path="url(#clip0_1_45621)">
<path fill-rule="evenodd" clip-rule="evenodd" d="M54.5215 16.6145C54.6816 16.7742 54.8087 16.9639 54.8953 17.1728C54.982 17.3817 55.0266 17.6056 55.0266 17.8318C55.0266 18.0579 54.982 18.2819 54.8953 18.4907C54.8087 18.6996 54.6816 18.8894 54.5215 19.0491L44.2055 29.3651C44.0458 29.5252 43.8561 29.6522 43.6472 29.7389C43.4383 29.8256 43.2144 29.8702 42.9882 29.8702C42.7621 29.8702 42.5381 29.8256 42.3293 29.7389C42.1204 29.6522 41.9306 29.5252 41.7709 29.3651L36.6129 24.2071C36.2901 23.8842 36.1087 23.4464 36.1087 22.9898C36.1087 22.5332 36.2901 22.0953 36.6129 21.7725C36.9358 21.4497 37.3736 21.2683 37.8302 21.2683C38.2868 21.2683 38.7247 21.4497 39.0475 21.7725L42.9882 25.7167L52.0869 16.6145C52.2467 16.4544 52.4364 16.3273 52.6453 16.2407C52.8542 16.154 53.0781 16.1094 53.3042 16.1094C53.5304 16.1094 53.7543 16.154 53.9632 16.2407C54.1721 16.3273 54.3618 16.4544 54.5215 16.6145Z" fill="#33323C"/>
<path d="M3.44343 47.0609C3.44343 47.0609 0.00476074 47.0609 0.00476074 43.6223C0.00476074 40.1836 3.44343 29.8676 20.6368 29.8676C37.8301 29.8676 41.2688 40.1836 41.2688 43.6223C41.2688 47.0609 37.8301 47.0609 37.8301 47.0609H3.44343ZM20.6368 26.4289C23.3728 26.4289 25.9967 25.342 27.9313 23.4074C29.8659 21.4728 30.9528 18.8489 30.9528 16.1129C30.9528 13.3769 29.8659 10.753 27.9313 8.81837C25.9967 6.88374 23.3728 5.79688 20.6368 5.79688C17.9008 5.79688 15.2769 6.88374 13.3423 8.81837C11.4076 10.753 10.3208 13.3769 10.3208 16.1129C10.3208 18.8489 11.4076 21.4728 13.3423 23.4074C15.2769 25.342 17.9008 26.4289 20.6368 26.4289Z" fill="#33323C"/>
</g>
<defs>
<clipPath id="clip0_1_45621">
<rect width="55" height="55" fill="white"/>
</clipPath>
</defs>
</svg>
