<svg width="45" height="27" viewBox="0 0 45 27" fill="none" xmlns="http://www.w3.org/2000/svg">
<g clip-path="url(#clip0_1_46012)">
<path d="M31.2757 6.04354C31.1483 6.09078 31.0377 6.17471 30.9579 6.28474C30.8781 6.39476 30.8326 6.52596 30.8273 6.66177C30.822 6.79759 30.857 6.93194 30.9279 7.04789C30.9989 7.16383 31.1025 7.25618 31.2259 7.31327C31.3492 7.37036 31.4867 7.38965 31.621 7.36869C31.7553 7.34774 31.8804 7.28748 31.9805 7.19553C32.0806 7.10357 32.1512 6.98403 32.1834 6.85199C32.2157 6.71995 32.2081 6.58131 32.1616 6.45358C32.1309 6.36814 32.0834 6.28966 32.0221 6.22269C31.9608 6.15572 31.8868 6.10159 31.8044 6.06345C31.722 6.02531 31.6328 6.0039 31.542 6.00049C31.4513 5.99707 31.3608 6.0117 31.2757 6.04354Z" fill="#263238"/>
<path d="M33.321 2.37753C33.4726 2.3764 33.6195 2.32531 33.7391 2.23219C33.8586 2.13907 33.9442 2.00912 33.9824 1.86246C34.0206 1.71581 34.0094 1.56065 33.9505 1.42102C33.8915 1.28139 33.7882 1.16508 33.6565 1.09013C33.5248 1.01518 33.372 0.985765 33.2219 1.00644C33.0717 1.02712 32.9326 1.09673 32.8261 1.2045C32.7195 1.31227 32.6515 1.45217 32.6325 1.60253C32.6135 1.75289 32.6447 1.90531 32.7211 2.03617C32.783 2.14017 32.8708 2.22631 32.9759 2.28615C33.0811 2.34599 33.2 2.37748 33.321 2.37753Z" fill="#263238"/>
<path d="M39.5296 4.55469C39.439 4.55508 39.3494 4.57332 39.2659 4.60837C39.1824 4.64341 39.1067 4.69457 39.043 4.75892C38.9793 4.82326 38.9289 4.89954 38.8947 4.98338C38.8605 5.06722 38.8431 5.15698 38.8436 5.24753V5.28524C38.85 5.46594 38.927 5.63694 39.0581 5.76141C39.1893 5.88588 39.3641 5.95387 39.5449 5.95073C39.7256 5.9476 39.898 5.87359 40.0247 5.74465C40.1515 5.6157 40.2225 5.44214 40.2226 5.26132V5.24045C40.221 5.05779 40.1473 4.88316 40.0175 4.75467C39.8876 4.62619 39.7122 4.5543 39.5296 4.55469Z" fill="#263238"/>
<path d="M36.2391 10.0169C36.3732 9.99313 36.4973 9.93015 36.5957 9.83591C36.6941 9.74167 36.7624 9.6204 36.7919 9.4874C36.8214 9.3544 36.8109 9.21564 36.7616 9.08863C36.7123 8.96161 36.6266 8.85204 36.5151 8.77373C36.4036 8.69542 36.2714 8.65189 36.1352 8.64863C35.999 8.64538 35.8649 8.68254 35.7498 8.75542C35.6347 8.82831 35.5438 8.93366 35.4885 9.05817C35.4332 9.18268 35.4161 9.32078 35.4392 9.45504C35.4681 9.61456 35.5517 9.759 35.6757 9.86343C35.7997 9.96786 35.9563 10.0257 36.1184 10.027C36.1588 10.027 36.1992 10.0236 36.2391 10.0169Z" fill="#263238"/>
<path d="M31.7397 3.2133C31.6545 3.18237 31.5641 3.16852 31.4736 3.17256C31.3831 3.17659 31.2943 3.19843 31.2123 3.23682C31.1302 3.27521 31.0566 3.3294 30.9955 3.39628C30.9344 3.46317 30.8871 3.54144 30.8563 3.62663C30.8255 3.71181 30.8117 3.80223 30.8159 3.89272C30.8201 3.98321 30.842 4.07199 30.8806 4.15398C30.9191 4.23597 30.9734 4.30957 31.0403 4.37056C31.1073 4.43155 31.1857 4.47873 31.2709 4.50942C31.3462 4.53623 31.4254 4.55023 31.5054 4.55083C31.6675 4.55076 31.8244 4.49354 31.9486 4.38922C32.0727 4.2849 32.1561 4.14016 32.1841 3.98044C32.2121 3.82072 32.1828 3.65626 32.1016 3.51595C32.0203 3.37565 31.8921 3.26848 31.7397 3.2133Z" fill="#263238"/>
<path d="M38.1104 2.07213C38.0064 2.16043 37.9309 2.27758 37.8934 2.40879C37.856 2.53999 37.8583 2.67935 37.9001 2.80924C37.9418 2.93913 38.0212 3.05372 38.1281 3.13851C38.235 3.22331 38.3646 3.2745 38.5006 3.28561C38.6366 3.29672 38.7728 3.26726 38.8921 3.20094C39.0113 3.13463 39.1082 3.03445 39.1705 2.91306C39.2328 2.79167 39.2577 2.65454 39.2421 2.519C39.2264 2.38345 39.1709 2.25559 39.0826 2.15159C39.0244 2.08199 38.9529 2.02466 38.8723 1.98294C38.7917 1.94121 38.7036 1.91592 38.6131 1.90853C38.5227 1.90113 38.4316 1.91179 38.3453 1.93988C38.259 1.96796 38.1792 2.01292 38.1104 2.07213Z" fill="#263238"/>
<path d="M35.9863 1.87095C36.0241 1.87465 36.0655 1.87802 36.1034 1.87802C36.2769 1.87335 36.4419 1.80189 36.5639 1.67855C36.686 1.55521 36.7558 1.3895 36.7587 1.21598C36.7616 1.04247 36.6974 0.874529 36.5795 0.747188C36.4616 0.619846 36.2991 0.542929 36.1258 0.532474C35.9526 0.52202 35.782 0.578834 35.6497 0.691072C35.5173 0.80331 35.4334 0.962308 35.4154 1.13491C35.3974 1.30752 35.4467 1.48041 35.5531 1.61754C35.6594 1.75467 35.8146 1.84545 35.9863 1.87095Z" fill="#263238"/>
<path d="M33.3312 9.54331C33.4985 9.54355 33.6602 9.48296 33.7862 9.37283C33.9121 9.2627 33.9937 9.11054 34.0158 8.94469C34.0379 8.77885 33.9989 8.61064 33.9062 8.47139C33.8134 8.33215 33.6732 8.23137 33.5117 8.18783C33.3501 8.14429 33.1783 8.16096 33.0281 8.23473C32.8779 8.3085 32.7597 8.43435 32.6955 8.58883C32.6312 8.7433 32.6253 8.91587 32.6788 9.07438C32.7324 9.23288 32.8417 9.36652 32.9865 9.45039C33.0914 9.5106 33.2102 9.54261 33.3312 9.54331Z" fill="#263238"/>
<path d="M39.0964 8.36599C39.1547 8.29683 39.1986 8.21684 39.2258 8.13062C39.253 8.04441 39.2629 7.95366 39.2549 7.86362C39.2469 7.77357 39.2211 7.686 39.1792 7.60593C39.1372 7.52587 39.0798 7.4549 39.0103 7.3971C38.941 7.33859 38.8609 7.29432 38.7746 7.26683C38.6882 7.23933 38.5972 7.22916 38.5069 7.23688C38.4166 7.2446 38.3287 7.27007 38.2482 7.31183C38.1678 7.35359 38.0964 7.41082 38.0381 7.48023C37.9798 7.54965 37.9358 7.62988 37.9085 7.71634C37.8813 7.8028 37.8714 7.89379 37.8794 7.98408C37.8874 8.07437 37.9131 8.1622 37.9551 8.24252C37.9972 8.32284 38.0546 8.39409 38.1242 8.45217C38.1936 8.51064 38.2738 8.55482 38.3603 8.58215C38.4468 8.60948 38.5379 8.61943 38.6283 8.61142C38.7186 8.6034 38.8065 8.5776 38.8869 8.53547C38.9672 8.49335 39.0385 8.43575 39.0964 8.36599Z" fill="#263238"/>
<path d="M43.3254 24.9142H43.2874C43.108 24.9243 42.9397 25.0038 42.8181 25.136C42.6965 25.2682 42.6313 25.4426 42.6362 25.6222C42.6412 25.8017 42.716 25.9722 42.8446 26.0975C42.9733 26.2228 43.1458 26.293 43.3254 26.2931H43.3633C43.5452 26.2868 43.7172 26.2088 43.8419 26.0761C43.9665 25.9434 44.0337 25.7668 44.0287 25.5849C44.0237 25.4029 43.9469 25.2303 43.8152 25.1047C43.6835 24.979 43.5074 24.9106 43.3254 24.9142Z" fill="#263238"/>
<path d="M40.5971 24.9141C40.4607 24.9141 40.3274 24.9545 40.214 25.0303C40.1006 25.106 40.0123 25.2137 39.9601 25.3397C39.9079 25.4657 39.8942 25.6043 39.9208 25.738C39.9474 25.8718 40.0131 25.9946 40.1095 26.0911C40.206 26.1875 40.3288 26.2531 40.4625 26.2797C40.5963 26.3063 40.7349 26.2927 40.8609 26.2405C40.9869 26.1883 41.0946 26.1 41.1703 25.9866C41.2461 25.8732 41.2865 25.7399 41.2865 25.6035C41.2865 25.513 41.2687 25.4233 41.2341 25.3397C41.1995 25.256 41.1487 25.18 41.0846 25.1159C41.0206 25.0519 40.9446 25.0011 40.8609 24.9665C40.7773 24.9319 40.6876 24.914 40.5971 24.9141Z" fill="#263238"/>
<path d="M37.8666 26.293C38.003 26.293 38.1363 26.2526 38.2496 26.1768C38.363 26.101 38.4514 25.9934 38.5036 25.8674C38.5558 25.7414 38.5694 25.6028 38.5428 25.469C38.5162 25.3353 38.4505 25.2124 38.3541 25.116C38.2577 25.0196 38.1348 24.9539 38.0011 24.9273C37.8674 24.9007 37.7287 24.9144 37.6027 24.9665C37.4768 25.0187 37.3691 25.1071 37.2933 25.2205C37.2176 25.3339 37.1771 25.4672 37.1771 25.6035C37.1777 25.7862 37.2505 25.9613 37.3797 26.0904C37.5089 26.2196 37.6839 26.2924 37.8666 26.293Z" fill="#263238"/>
<path d="M35.1381 26.293C35.2744 26.293 35.4077 26.2526 35.5211 26.1768C35.6345 26.101 35.7229 25.9934 35.7751 25.8674C35.8272 25.7414 35.8409 25.6028 35.8143 25.469C35.7877 25.3353 35.722 25.2124 35.6256 25.116C35.5292 25.0196 35.4063 24.9539 35.2726 24.9273C35.1388 24.9007 35.0002 24.9144 34.8742 24.9665C34.7482 25.0187 34.6406 25.1071 34.5648 25.2205C34.489 25.3339 34.4486 25.4672 34.4486 25.6035C34.4492 25.7862 34.522 25.9612 34.6512 26.0904C34.7804 26.2196 34.9554 26.2924 35.1381 26.293Z" fill="#263238"/>
<path d="M44.0154 22.5703C43.879 22.5703 43.7457 22.6107 43.6323 22.6865C43.519 22.7623 43.4306 22.8699 43.3784 22.9959C43.3262 23.1219 43.3126 23.2605 43.3392 23.3943C43.3658 23.528 43.4314 23.6509 43.5279 23.7473C43.6243 23.8437 43.7471 23.9094 43.8809 23.936C44.0146 23.9626 44.1533 23.9489 44.2792 23.8968C44.4052 23.8446 44.5129 23.7562 44.5887 23.6428C44.6644 23.5294 44.7049 23.3961 44.7049 23.2598C44.7049 23.1692 44.687 23.0796 44.6524 22.9959C44.6178 22.9123 44.567 22.8363 44.5029 22.7722C44.4389 22.7082 44.3629 22.6574 44.2793 22.6228C44.1956 22.5881 44.1059 22.5703 44.0154 22.5703Z" fill="#263238"/>
<path d="M44.0154 19.8359C43.879 19.8359 43.7457 19.8764 43.6323 19.9521C43.519 20.0279 43.4306 20.1356 43.3784 20.2616C43.3262 20.3875 43.3126 20.5262 43.3392 20.6599C43.3658 20.7937 43.4314 20.9165 43.5279 21.0129C43.6243 21.1094 43.7471 21.175 43.8809 21.2016C44.0146 21.2282 44.1533 21.2146 44.2792 21.1624C44.4052 21.1102 44.5129 21.0218 44.5887 20.9084C44.6644 20.7951 44.7049 20.6618 44.7049 20.5254C44.7049 20.4349 44.687 20.3452 44.6524 20.2615C44.6178 20.1779 44.567 20.1019 44.5029 20.0379C44.4389 19.9738 44.3629 19.923 44.2793 19.8884C44.1956 19.8538 44.1059 19.8359 44.0154 19.8359Z" fill="#263238"/>
<path d="M44.0154 17.1094C43.879 17.1094 43.7457 17.1498 43.6323 17.2256C43.519 17.3013 43.4306 17.409 43.3784 17.535C43.3262 17.661 43.3126 17.7996 43.3392 17.9333C43.3658 18.0671 43.4314 18.1899 43.5279 18.2864C43.6243 18.3828 43.7471 18.4485 43.8809 18.4751C44.0146 18.5017 44.1533 18.488 44.2792 18.4358C44.4052 18.3836 44.5129 18.2953 44.5887 18.1819C44.6644 18.0685 44.7049 17.9352 44.7049 17.7988C44.7043 17.6162 44.6315 17.4411 44.5023 17.3119C44.3731 17.1827 44.1981 17.1099 44.0154 17.1094Z" fill="#263238"/>
<path d="M43.7627 15.7875C43.8377 15.7864 43.9121 15.7736 43.9832 15.7498C44.1462 15.6935 44.282 15.5779 44.3636 15.426C44.4453 15.2742 44.4668 15.0971 44.4239 14.9301C44.3811 14.7631 44.277 14.6183 44.1323 14.5245C43.9876 14.4308 43.813 14.3948 43.643 14.4239C43.4731 14.453 43.3203 14.5449 43.215 14.6814C43.1097 14.8179 43.0596 14.9891 43.0747 15.1609C43.0897 15.3326 43.1689 15.4924 43.2963 15.6085C43.4238 15.7246 43.5903 15.7885 43.7627 15.7875Z" fill="#263238"/>
<path d="M42.6581 12.355C42.5522 12.2698 42.4234 12.2179 42.288 12.2058C42.1526 12.1938 42.0166 12.2221 41.8973 12.2873C41.778 12.3524 41.6807 12.4515 41.6177 12.5719C41.5546 12.6923 41.5286 12.8287 41.5431 12.9639C41.5575 13.099 41.6116 13.2269 41.6987 13.3313C41.7857 13.4357 41.9017 13.512 42.0321 13.5505C42.1624 13.5891 42.3013 13.5881 42.4311 13.5477C42.5609 13.5074 42.6759 13.4295 42.7614 13.3239C42.8186 13.2536 42.8614 13.1728 42.8872 13.0859C42.913 12.9991 42.9213 12.908 42.9117 12.8179C42.9021 12.7278 42.8747 12.6405 42.8312 12.5611C42.7877 12.4816 42.7288 12.4116 42.6581 12.355Z" fill="#263238"/>
<path d="M39.6614 12.5301C39.689 12.5301 39.7166 12.5335 39.7407 12.5335C39.9178 12.5307 40.0869 12.459 40.212 12.3335C40.3371 12.2081 40.4084 12.0389 40.4107 11.8618C40.4131 11.6847 40.3463 11.5136 40.2246 11.3849C40.1029 11.2562 39.9358 11.18 39.7588 11.1725C39.5818 11.165 39.4089 11.2267 39.2767 11.3446C39.1445 11.4625 39.0635 11.6273 39.0508 11.804C39.0381 11.9807 39.0948 12.1554 39.2088 12.2909C39.3228 12.4265 39.4852 12.5123 39.6614 12.5301Z" fill="#263238"/>
<path d="M37.0139 12.5039C37.1503 12.5039 37.2836 12.4635 37.397 12.3877C37.5104 12.312 37.5987 12.2043 37.6509 12.0783C37.7031 11.9523 37.7167 11.8137 37.6901 11.68C37.6635 11.5462 37.5979 11.4234 37.5015 11.3269C37.405 11.2305 37.2822 11.1649 37.1484 11.1382C37.0147 11.1116 36.8761 11.1253 36.7501 11.1775C36.6241 11.2297 36.5164 11.318 36.4407 11.4314C36.3649 11.5448 36.3245 11.6781 36.3245 11.8145C36.325 11.9972 36.3978 12.1722 36.527 12.3014C36.6562 12.4306 36.8312 12.5034 37.0139 12.5039Z" fill="#263238"/>
<path d="M34.2815 12.5039C34.4179 12.5039 34.5512 12.4635 34.6646 12.3877C34.7779 12.312 34.8663 12.2043 34.9185 12.0783C34.9707 11.9523 34.9843 11.8137 34.9577 11.68C34.9311 11.5462 34.8655 11.4234 34.769 11.3269C34.6726 11.2305 34.5498 11.1649 34.416 11.1382C34.2823 11.1116 34.1436 11.1253 34.0177 11.1775C33.8917 11.2297 33.784 11.318 33.7082 11.4314C33.6325 11.5448 33.592 11.6781 33.592 11.8145C33.592 11.905 33.6099 11.9947 33.6445 12.0783C33.6791 12.162 33.7299 12.238 33.794 12.302C33.858 12.366 33.934 12.4168 34.0176 12.4515C34.1013 12.4861 34.191 12.5039 34.2815 12.5039Z" fill="#263238"/>
<path d="M9.62831 26.293C9.76467 26.293 9.89797 26.2526 10.0114 26.1768C10.1247 26.101 10.2131 25.9934 10.2653 25.8674C10.3175 25.7414 10.3311 25.6028 10.3045 25.469C10.2779 25.3353 10.2123 25.2124 10.1158 25.116C10.0194 25.0196 9.89656 24.9539 9.76282 24.9273C9.62907 24.9007 9.49044 24.9144 9.36446 24.9665C9.23848 25.0187 9.1308 25.1071 9.05504 25.2205C8.97928 25.3339 8.93884 25.4672 8.93884 25.6035C8.93883 25.6941 8.95666 25.7837 8.9913 25.8674C9.02595 25.951 9.07674 26.0271 9.14076 26.0911C9.20479 26.1551 9.2808 26.2059 9.36445 26.2405C9.4481 26.2752 9.53776 26.293 9.62831 26.293Z" fill="#263238"/>
<path d="M6.89979 26.293C7.03616 26.293 7.16946 26.2526 7.28284 26.1768C7.39622 26.101 7.48459 25.9934 7.53678 25.8674C7.58896 25.7414 7.60261 25.6028 7.57601 25.469C7.54941 25.3353 7.48374 25.2124 7.38732 25.116C7.2909 25.0196 7.16804 24.9539 7.0343 24.9273C6.90056 24.9007 6.76193 24.9144 6.63595 24.9665C6.50996 25.0187 6.40228 25.1071 6.32652 25.2205C6.25076 25.3339 6.21033 25.4672 6.21033 25.6035C6.2103 25.6941 6.22812 25.7837 6.26276 25.8674C6.2974 25.9511 6.34819 26.0271 6.41221 26.0911C6.47624 26.1551 6.55226 26.2059 6.63592 26.2406C6.71958 26.2752 6.80924 26.293 6.89979 26.293Z" fill="#263238"/>
<path d="M4.85879 25.6035C4.85879 25.4672 4.81835 25.3339 4.74259 25.2205C4.66683 25.1071 4.55916 25.0187 4.43317 24.9665C4.30719 24.9144 4.16856 24.9007 4.03482 24.9273C3.90107 24.9539 3.77822 25.0196 3.6818 25.116C3.58538 25.2124 3.51971 25.3353 3.49311 25.469C3.4665 25.6028 3.48016 25.7414 3.53234 25.8674C3.58453 25.9934 3.6729 26.101 3.78628 26.1768C3.89966 26.2526 4.03296 26.293 4.16932 26.293C4.25988 26.293 4.34955 26.2752 4.43322 26.2406C4.51688 26.206 4.59291 26.1552 4.65694 26.0911C4.72097 26.0271 4.77175 25.9511 4.80639 25.8674C4.84102 25.7838 4.85883 25.6941 4.85879 25.6035Z" fill="#263238"/>
<path d="M0.983018 24.9466C0.858924 25.0812 0.793226 25.2594 0.800326 25.4423C0.807425 25.6252 0.886742 25.7978 1.02089 25.9223C1.1478 26.0413 1.31571 26.1067 1.48968 26.1051C1.60402 26.1048 1.7165 26.0761 1.81698 26.0215C1.91745 25.9669 2.00277 25.8882 2.06524 25.7924C2.12771 25.6966 2.16537 25.5868 2.17484 25.4728C2.1843 25.3589 2.16526 25.2444 2.11944 25.1396C2.07362 25.0349 2.00245 24.9431 1.91236 24.8727C1.82226 24.8023 1.71606 24.7554 1.60333 24.7363C1.4906 24.7171 1.37488 24.7264 1.26659 24.7631C1.1583 24.7998 1.06085 24.8629 0.983018 24.9466Z" fill="#263238"/>
<path d="M1.95791 22.752C1.95791 22.6156 1.91747 22.4823 1.84172 22.3689C1.76596 22.2555 1.65828 22.1672 1.53229 22.115C1.40631 22.0628 1.26768 22.0491 1.13394 22.0757C1.00019 22.1024 0.877343 22.168 0.78092 22.2644C0.684496 22.3609 0.618831 22.4837 0.592228 22.6175C0.565625 22.7512 0.579278 22.8898 0.631462 23.0158C0.683646 23.1418 0.772017 23.2495 0.885399 23.3252C0.998781 23.401 1.13208 23.4414 1.26845 23.4414C1.4513 23.4414 1.62666 23.3688 1.75596 23.2395C1.88526 23.1102 1.9579 22.9348 1.95791 22.752Z" fill="#263238"/>
<path d="M1.26845 20.7149C1.40481 20.7149 1.53811 20.6744 1.65149 20.5987C1.76487 20.5229 1.85324 20.4152 1.90543 20.2893C1.95761 20.1633 1.97127 20.0246 1.94466 19.8909C1.91806 19.7572 1.85239 19.6343 1.75597 19.5379C1.65955 19.4415 1.5367 19.3758 1.40295 19.3492C1.26921 19.3226 1.13058 19.3362 1.0046 19.3884C0.878615 19.4406 0.770935 19.529 0.695175 19.6424C0.619416 19.7557 0.578979 19.889 0.578979 20.0254C0.579502 20.2081 0.65231 20.3832 0.781497 20.5124C0.910684 20.6415 1.08575 20.7143 1.26845 20.7149Z" fill="#263238"/>
<path d="M1.26845 17.9839C1.40514 17.9842 1.53887 17.944 1.65271 17.8683C1.76656 17.7927 1.8554 17.6849 1.90802 17.5588C1.96064 17.4326 1.97467 17.2937 1.94833 17.1595C1.92199 17.0254 1.85646 16.9021 1.76004 16.8052C1.66361 16.7083 1.54062 16.6422 1.40662 16.6152C1.27261 16.5882 1.13361 16.6015 1.00719 16.6535C0.880775 16.7055 0.772617 16.7939 0.696395 16.9073C0.620174 17.0208 0.579313 17.1543 0.57898 17.291C0.578802 17.4743 0.651278 17.6501 0.78052 17.7799C0.909762 17.9098 1.08522 17.9831 1.26845 17.9839Z" fill="#263238"/>
<path d="M1.99748 14.0007C1.91508 13.9628 1.82602 13.9415 1.73538 13.938C1.64475 13.9345 1.55432 13.949 1.46927 13.9805C1.38422 14.012 1.30621 14.0599 1.23971 14.1216C1.1732 14.1833 1.1195 14.2575 1.08168 14.3399C1.04386 14.4223 1.02265 14.5114 1.01928 14.6021C1.0159 14.6927 1.03042 14.7831 1.06201 14.8681C1.0936 14.9531 1.14163 15.0311 1.20337 15.0975C1.2651 15.164 1.33933 15.2176 1.4218 15.2554C1.51174 15.296 1.60925 15.3173 1.70796 15.3176C1.86544 15.3179 2.01829 15.2643 2.14111 15.1658C2.26393 15.0672 2.34934 14.9296 2.38315 14.7758C2.41696 14.6219 2.39715 14.4612 2.32699 14.3202C2.25683 14.1792 2.14056 14.0665 1.99748 14.0007Z" fill="#263238"/>
<path d="M4.04598 12.2173C3.94524 12.0649 3.78844 11.9584 3.60964 11.921C3.43084 11.8835 3.24449 11.9182 3.09107 12.0173C3.01509 12.0663 2.94952 12.1298 2.89814 12.2042C2.84677 12.2785 2.81058 12.3623 2.79167 12.4507C2.77277 12.5391 2.7715 12.6304 2.78796 12.7193C2.80441 12.8082 2.83826 12.8929 2.88756 12.9687C2.98739 13.1219 3.14392 13.2293 3.3228 13.2672C3.50168 13.3051 3.6883 13.2705 3.84171 13.171C3.99512 13.0715 4.10278 12.9152 4.14108 12.7364C4.17938 12.5576 4.14517 12.3709 4.04598 12.2173Z" fill="#263238"/>
<path d="M6.04686 12.5068H6.05023C6.23436 12.5063 6.41077 12.4328 6.54073 12.3024C6.67069 12.1719 6.74356 11.9953 6.74334 11.8111C6.74311 11.627 6.66981 11.4505 6.53954 11.3204C6.40927 11.1903 6.23267 11.1172 6.04855 11.1172C5.86442 11.1172 5.68783 11.1903 5.55756 11.3204C5.42728 11.4505 5.35398 11.627 5.35376 11.8111C5.35354 11.9953 5.42641 12.1719 5.55637 12.3024C5.68632 12.4328 5.86274 12.5063 6.04686 12.5068Z" fill="#263238"/>
<path d="M11.504 12.5039C11.6404 12.5039 11.7737 12.4635 11.8871 12.3877C12.0005 12.312 12.0888 12.2043 12.141 12.0783C12.1932 11.9523 12.2069 11.8137 12.1803 11.68C12.1537 11.5462 12.088 11.4234 11.9916 11.3269C11.8951 11.2305 11.7723 11.1649 11.6385 11.1382C11.5048 11.1116 11.3662 11.1253 11.2402 11.1775C11.1142 11.2297 11.0065 11.318 10.9308 11.4314C10.855 11.5448 10.8146 11.6781 10.8146 11.8145C10.8151 11.9972 10.8879 12.1722 11.0171 12.3014C11.1463 12.4306 11.3214 12.5034 11.504 12.5039Z" fill="#263238"/>
<path d="M8.77174 12.5039C8.9081 12.5039 9.04141 12.4635 9.15479 12.3877C9.26817 12.312 9.35654 12.2043 9.40872 12.0783C9.46091 11.9523 9.47456 11.8137 9.44796 11.68C9.42136 11.5462 9.35569 11.4234 9.25927 11.3269C9.16284 11.2305 9.03999 11.1649 8.90625 11.1382C8.77251 11.1116 8.63388 11.1253 8.50789 11.1775C8.38191 11.2297 8.27423 11.318 8.19847 11.4314C8.12271 11.5448 8.08228 11.6781 8.08228 11.8145C8.08227 11.905 8.10009 11.9947 8.13474 12.0783C8.16938 12.162 8.22017 12.238 8.28419 12.302C8.34822 12.366 8.42423 12.4168 8.50788 12.4515C8.59154 12.4861 8.6812 12.5039 8.77174 12.5039Z" fill="#263238"/>
<path d="M10.6066 10.027C10.647 10.027 10.6874 10.0236 10.7273 10.0169C10.8614 9.99313 10.9855 9.93015 11.0839 9.83591C11.1823 9.74167 11.2505 9.6204 11.28 9.4874C11.3096 9.35441 11.299 9.21564 11.2498 9.08863C11.2005 8.96161 11.1147 8.85204 11.0032 8.77373C10.8918 8.69542 10.7596 8.65189 10.6234 8.64863C10.4872 8.64538 10.3531 8.68254 10.238 8.75542C10.1229 8.82831 10.032 8.93366 9.97668 9.05817C9.9214 9.18268 9.90424 9.32078 9.92737 9.45504C9.95623 9.61456 10.0399 9.75901 10.1639 9.86343C10.2879 9.96786 10.4445 10.0257 10.6066 10.027Z" fill="#263238"/>
<path d="M14.7128 5.25442V5.24063C14.7119 5.05777 14.6383 4.88277 14.5084 4.75414C14.3784 4.6255 14.2027 4.55376 14.0198 4.5547C13.8369 4.55563 13.6619 4.62917 13.5333 4.75914C13.4047 4.8891 13.3329 5.06484 13.3339 5.2477V5.26149C13.3339 5.44434 13.4065 5.61971 13.5358 5.74901C13.6651 5.87831 13.8405 5.95095 14.0233 5.95095C14.2062 5.95095 14.3816 5.87831 14.5109 5.74901C14.6402 5.61971 14.7128 5.44434 14.7128 5.26149V5.25442Z" fill="#263238"/>
<path d="M12.6006 2.07087C12.4966 2.15916 12.4211 2.27632 12.3837 2.40753C12.3462 2.53873 12.3485 2.67809 12.3903 2.80798C12.4321 2.93787 12.5114 3.05246 12.6183 3.13725C12.7252 3.22204 12.8548 3.27323 12.9908 3.28435C13.1268 3.29546 13.263 3.266 13.3823 3.19968C13.5015 3.13337 13.5984 3.03318 13.6607 2.9118C13.723 2.79041 13.7479 2.65328 13.7323 2.51773C13.7167 2.38219 13.6612 2.25433 13.5729 2.15032C13.5144 2.08108 13.4428 2.02407 13.3622 1.98257C13.2816 1.94108 13.1936 1.91592 13.1033 1.90854C13.0129 1.90115 12.922 1.91169 12.8357 1.93955C12.7495 1.96741 12.6696 2.01204 12.6006 2.07087Z" fill="#263238"/>
<path d="M13.0556 8.61298C13.2177 8.61358 13.3748 8.55701 13.4994 8.45322C13.6239 8.34943 13.7079 8.20507 13.7365 8.0455C13.7652 7.88593 13.7367 7.72137 13.656 7.58073C13.5754 7.4401 13.4477 7.3324 13.2955 7.27656C13.1433 7.22071 12.9763 7.2203 12.8238 7.2754C12.6714 7.3305 12.5432 7.43757 12.4618 7.57781C12.3805 7.71804 12.3512 7.88246 12.379 8.04217C12.4069 8.20188 12.4902 8.34666 12.6142 8.45105C12.7371 8.55627 12.8938 8.61375 13.0556 8.61298Z" fill="#263238"/>
<path d="M10.5935 1.87802C10.767 1.87335 10.932 1.80189 11.054 1.67855C11.1761 1.55521 11.2459 1.3895 11.2488 1.21598C11.2517 1.04247 11.1875 0.874529 11.0696 0.747188C10.9517 0.619846 10.7892 0.542929 10.6159 0.532474C10.4427 0.52202 10.2721 0.578834 10.1398 0.691072C10.0074 0.80331 9.92349 0.962308 9.90549 1.13491C9.88749 1.30752 9.93682 1.48041 10.0432 1.61754C10.1495 1.75467 10.3047 1.84545 10.4764 1.87095C10.5142 1.87466 10.5556 1.87802 10.5935 1.87802Z" fill="#263238"/>
<path d="M6.00166 7.37112C6.08158 7.37111 6.16089 7.3571 6.23597 7.32971C6.39813 7.27082 6.53232 7.15328 6.61205 7.00029C6.69178 6.84729 6.71125 6.66997 6.66663 6.50332C6.622 6.33667 6.51652 6.1928 6.37101 6.10012C6.2255 6.00745 6.05052 5.97269 5.88064 6.00271C5.71075 6.03273 5.55829 6.12536 5.45336 6.2623C5.34842 6.39924 5.29864 6.57054 5.31384 6.74239C5.32904 6.91424 5.40811 7.07415 5.53545 7.19055C5.66279 7.30695 5.82914 7.37138 6.00166 7.37112Z" fill="#263238"/>
<path d="M8.41604 9.19752C8.4842 9.07955 8.51584 8.94402 8.50697 8.80807C8.49811 8.67213 8.44912 8.54186 8.36622 8.43375C8.28332 8.32563 8.17022 8.24453 8.04123 8.20069C7.91224 8.15686 7.77314 8.15226 7.64153 8.18747C7.50993 8.22269 7.39171 8.29614 7.30185 8.39853C7.21198 8.50093 7.1545 8.62767 7.13667 8.76274C7.11883 8.89781 7.14145 9.03513 7.20166 9.15734C7.26187 9.27955 7.35696 9.38117 7.47492 9.44933C7.57989 9.50954 7.69865 9.54155 7.81965 9.54225C7.94059 9.54227 8.0594 9.51041 8.1641 9.44989C8.2688 9.38937 8.3557 9.30232 8.41604 9.19752Z" fill="#263238"/>
<path d="M7.81192 2.37342C7.93317 2.37317 8.05222 2.34093 8.15703 2.27995C8.26184 2.21897 8.3487 2.13141 8.40884 2.02612C8.46899 1.92083 8.50028 1.80153 8.49956 1.68027C8.49885 1.55902 8.46615 1.4401 8.40476 1.33552C8.34376 1.23067 8.25622 1.14373 8.15095 1.08346C8.04567 1.02319 7.92638 0.991712 7.80507 0.992193C7.68377 0.992674 7.56473 1.0251 7.45993 1.0862C7.35514 1.14731 7.26829 1.23494 7.20812 1.34027C7.14796 1.4456 7.11659 1.56493 7.1172 1.68623C7.1178 1.80754 7.15034 1.92655 7.21155 2.03128C7.27275 2.13601 7.36047 2.22278 7.46586 2.28284C7.57126 2.3429 7.69061 2.37414 7.81192 2.37342Z" fill="#263238"/>
<path d="M5.34594 3.62668C5.28421 3.79858 5.29308 3.98793 5.37063 4.1533C5.44817 4.31867 5.58806 4.44658 5.75969 4.50905C5.83499 4.53586 5.91425 4.54986 5.99417 4.55046C6.12033 4.55046 6.24406 4.51583 6.35189 4.45035C6.45972 4.38487 6.54752 4.29105 6.60571 4.17912C6.6639 4.06719 6.69026 3.94144 6.68191 3.81556C6.67357 3.68968 6.63083 3.5685 6.55837 3.46524C6.4859 3.36197 6.38649 3.28057 6.27096 3.2299C6.15542 3.17924 6.0282 3.16125 5.90315 3.17791C5.7781 3.19456 5.66001 3.24521 5.56176 3.32434C5.46351 3.40348 5.38886 3.50805 5.34594 3.62668Z" fill="#263238"/>
<path d="M31.5463 11.1251C31.4293 11.1266 31.3146 11.158 31.2131 11.2162C31.1116 11.2745 31.0267 11.3577 30.9663 11.458C31.2993 11.7496 31.6037 12.0723 31.8753 12.4219C32.0126 12.3507 32.1219 12.2352 32.1854 12.0942C32.2489 11.9531 32.263 11.7948 32.2254 11.6448C32.1877 11.4947 32.1005 11.3618 31.9779 11.2675C31.8553 11.1732 31.7045 11.123 31.5498 11.1251H31.5463Z" fill="#263238"/>
<path d="M12.3244 26.2885C12.1041 25.9074 11.979 25.4788 11.9597 25.0391C11.8422 25.1215 11.7535 25.2387 11.706 25.3742C11.6585 25.5096 11.6546 25.6565 11.6948 25.7943C11.735 25.9321 11.8173 26.0539 11.9303 26.1425C12.0432 26.2311 12.181 26.2821 12.3244 26.2885Z" fill="#263238"/>
<path d="M13.5453 11.7675C13.5303 11.9039 13.5561 12.0417 13.6195 12.1634C13.9067 11.8284 14.2252 11.5215 14.5707 11.2469C14.4717 11.1904 14.3602 11.1593 14.2462 11.1565C14.1322 11.1536 14.0193 11.1792 13.9176 11.2308C13.816 11.2824 13.7287 11.3585 13.6637 11.4522C13.5988 11.5459 13.5581 11.6542 13.5453 11.7675Z" fill="#263238"/>
<path d="M31.9494 24.9143V16.6407C31.9478 15.1784 31.3661 13.7764 30.3321 12.7424C29.298 11.7083 27.8961 11.1267 26.4337 11.125H18.8496C17.3872 11.1267 15.9853 11.7083 14.9512 12.7424C13.9172 13.7764 13.3355 15.1784 13.3339 16.6407V24.9143C13.3343 25.2799 13.4797 25.6304 13.7382 25.8889C13.9967 26.1475 14.3472 26.2929 14.7128 26.2932H30.5705C30.9361 26.2929 31.2866 26.1475 31.5451 25.8889C31.8036 25.6304 31.949 25.2799 31.9494 24.9143Z" fill="#263238"/>
<path d="M22.6423 9.74627C23.5968 9.74627 24.53 9.46322 25.3236 8.9329C26.1173 8.40259 26.7359 7.64883 27.1012 6.76694C27.4665 5.88506 27.562 4.91466 27.3758 3.97846C27.1896 3.04225 26.7299 2.1823 26.055 1.50733C25.38 0.832367 24.5201 0.37271 23.5839 0.186487C22.6477 0.000265092 21.6773 0.0958411 20.7954 0.461129C19.9135 0.826418 19.1597 1.44501 18.6294 2.23869C18.0991 3.03236 17.816 3.96547 17.816 4.92001C17.8175 6.19958 18.3264 7.42632 19.2312 8.33111C20.136 9.2359 21.3627 9.74484 22.6423 9.74627Z" fill="#263238"/>
</g>
<defs>
<clipPath id="clip0_1_46012">
<rect width="44.1258" height="26.1997" fill="white" transform="translate(0.57959 0.09375)"/>
</clipPath>
</defs>
</svg>
