<svg width="35" height="34" viewBox="0 0 35 34" fill="none" xmlns="http://www.w3.org/2000/svg">
<g clip-path="url(#clip0_1_45044)">
<path d="M26.9378 19.1875H25.5352V20.5901H26.9378V19.1875Z" fill="#33323C"/>
<path d="M26.9378 13.5234H25.5352V14.9261H26.9378V13.5234Z" fill="#33323C"/>
<path d="M21.2708 24.7969H19.8682V26.1995H21.2708V24.7969Z" fill="#33323C"/>
<path d="M21.2708 7.85938H19.8682V9.26202H21.2708V7.85938Z" fill="#33323C"/>
<path d="M15.6043 24.7969H14.2017V26.1995H15.6043V24.7969Z" fill="#33323C"/>
<path d="M15.6043 7.85938H14.2017V9.26202H15.6043V7.85938Z" fill="#33323C"/>
<path d="M9.9378 19.1875H8.53516V20.5901H9.9378V19.1875Z" fill="#33323C"/>
<path d="M9.9378 13.5234H8.53516V14.9261H9.9378V13.5234Z" fill="#33323C"/>
<path d="M34.7363 17.0016C34.7363 16.7772 34.6241 16.6089 34.4558 16.4405L33.0531 15.0379C32.7726 14.7574 32.3237 14.7574 32.0432 15.0379C31.7627 15.3184 31.7627 15.7673 32.0432 16.0478L32.2115 16.2161H31.0894C30.9211 13.1303 29.6868 10.2689 27.6109 7.9686L28.3963 7.18312V7.46365C28.3963 7.85638 28.733 8.19302 29.1257 8.19302C29.5185 8.19302 29.8551 7.85638 29.799 7.40754V5.66827C29.8551 5.44384 29.8551 5.16332 29.6307 4.93889C29.5185 4.82668 29.4062 4.77058 29.294 4.77058C29.2379 4.77058 29.1257 4.71447 29.0696 4.71447H27.1059C26.7132 4.71447 26.3765 5.0511 26.3765 5.44384C26.3765 5.83658 26.7132 6.17322 27.1059 6.17322H27.3864L26.601 6.95869C24.3567 4.93889 21.4954 3.76067 18.4657 3.59236V2.47025L18.634 2.63856C18.8023 2.80688 18.9706 2.86298 19.1389 2.86298C19.3072 2.86298 19.4756 2.80688 19.6439 2.63856C19.9244 2.35803 19.9244 1.90919 19.6439 1.62866L18.2412 0.226021C17.9607 -0.054507 17.5119 -0.054507 17.2313 0.226021L15.8287 1.62866C15.5482 1.90919 15.5482 2.35803 15.8287 2.63856C16.1092 2.91909 16.5581 2.91909 16.8386 2.63856L17.0069 2.47025V3.59236C13.9772 3.76067 11.0597 4.93889 8.81549 7.0148L8.03001 6.28543H8.19833C8.59107 6.28543 8.9277 5.94879 8.9277 5.55605C8.9277 5.16332 8.59107 4.82668 8.19833 4.82668H6.45905C6.23463 4.77058 5.9541 4.82668 5.72968 4.995C5.61747 5.0511 5.56136 5.16332 5.50526 5.33163C5.50526 5.38774 5.44915 5.44384 5.44915 5.55605V7.51975C5.44915 7.91249 5.78579 8.24912 6.17853 8.24912C6.57127 8.24912 6.85179 7.91249 6.85179 7.57586V7.18312L7.69338 8.0247C5.67358 10.325 4.43925 13.1864 4.27094 16.2722H3.20493L3.37325 16.1039C3.65377 15.8234 3.65377 15.3745 3.37325 15.094C3.09272 14.8135 2.64387 14.8135 2.36334 15.094L0.960704 16.4966C0.792387 16.6089 0.680176 16.8333 0.680176 17.0577C0.680176 17.2821 0.792387 17.4504 0.960704 17.6188L2.36334 19.0214C2.53166 19.1897 2.69998 19.2458 2.86829 19.2458C3.03661 19.2458 3.20493 19.1336 3.37325 19.0214C3.65377 18.7409 3.65377 18.292 3.37325 18.0115L3.20493 17.8432H4.27094C4.43925 20.8729 5.67358 23.7904 7.69338 26.0907L6.964 26.8201V26.5957C6.964 26.2029 6.62737 25.8663 6.23463 25.8663C5.84189 25.8663 5.50526 26.2029 5.50526 26.5957V28.5594C5.50526 28.7838 5.61747 29.0082 5.78579 29.1204C5.84189 29.1765 5.84189 29.1765 5.898 29.1765C5.898 29.1765 5.9541 29.1765 5.9541 29.2326C6.06632 29.2887 6.12242 29.2887 6.23463 29.2887H8.19833C8.59107 29.2887 8.9277 28.9521 8.98381 28.6155C8.98381 28.2227 8.64717 27.8861 8.25443 27.8861H7.9178L8.70328 27.1006C11.0036 29.1765 13.865 30.3547 16.9508 30.5231V31.5891L16.7825 31.4207C16.502 31.1402 16.0531 31.1402 15.7726 31.4207C15.4921 31.7013 15.4921 32.1501 15.7726 32.4306L17.1752 33.8333C17.2313 33.8894 17.2313 33.8894 17.2874 33.9455C17.3435 34.0016 17.3435 34.0016 17.3996 34.0016C17.3996 34.0016 17.4558 34.0016 17.4558 34.0577C17.568 34.1138 17.6241 34.1138 17.7363 34.1138C17.8485 34.1138 17.9046 34.1138 18.0168 34.0577C18.0168 34.0577 18.0729 34.0577 18.0729 34.0016C18.0729 34.0016 18.129 34.0016 18.129 33.9455C18.1851 33.8894 18.2412 33.8333 18.2973 33.7772L19.6439 32.4306C19.9244 32.1501 19.9244 31.7013 19.6439 31.4207C19.3633 31.1402 18.9145 31.1402 18.634 31.4207L18.4657 31.5891V30.5231C21.4954 30.3547 24.4128 29.1204 26.7132 27.1006L27.4426 27.83H27.2181C26.8254 27.83 26.4888 28.1666 26.4888 28.5594C26.4888 28.9521 26.8254 29.2887 27.2181 29.2887H29.1818C29.3501 29.2887 29.5185 29.2326 29.6868 29.0643C29.8551 28.896 29.9673 28.7277 30.0234 28.4471V26.4834C30.0234 26.0907 29.6868 25.7541 29.294 25.7541C28.9013 25.7541 28.5647 26.0907 28.5647 26.4834V26.8201L27.7792 26.0346C29.8551 23.7343 31.0333 20.8729 31.2016 17.7871H32.3237L32.1554 17.9554C31.8749 18.2359 31.8749 18.6848 32.1554 18.9653C32.3237 19.1336 32.4921 19.1897 32.6604 19.1897C32.8287 19.1897 32.997 19.0775 33.1653 18.9653L34.568 17.5627C34.6802 17.4504 34.7363 17.2821 34.7363 17.1699C34.6802 17.1138 34.7363 17.0577 34.7363 17.0016ZM26.6571 24.9686L24.1884 22.4999C23.9079 22.2194 23.4591 22.2194 23.1785 22.4999C22.898 22.7805 22.898 23.2293 23.1785 23.5099L25.6472 25.9785C23.6274 27.7739 21.1026 28.7838 18.4095 28.9521V25.4735C18.4095 25.0808 18.0729 24.7442 17.6802 24.7442C17.2874 24.7442 16.9508 25.0808 16.9508 25.4735V28.9521C14.3138 28.7838 11.733 27.7739 9.71318 25.9785L12.1818 23.5099C12.4624 23.2293 12.4624 22.7805 12.1818 22.4999C11.9013 22.2194 11.4525 22.2194 11.1719 22.4999L8.70328 24.9686C6.9079 22.9488 5.898 20.424 5.72968 17.731H9.20823C9.60097 17.731 9.9376 17.3943 9.99371 17.0016C9.99371 16.6089 9.65707 16.2722 9.26433 16.2722H5.72968C5.898 13.5792 6.964 11.0544 8.75938 9.0346L11.1719 11.4471C11.3402 11.6155 11.5086 11.6716 11.6769 11.6716C11.8452 11.6716 12.0135 11.6155 12.1818 11.4471C12.4624 11.1666 12.4624 10.7178 12.1818 10.4372L9.76929 8.0247C11.7891 6.22932 14.2577 5.21942 16.9508 5.0511V8.52965C16.9508 8.92239 17.2874 9.25902 17.6802 9.25902C18.0729 9.25902 18.4095 8.92239 18.4095 8.58576V5.0511C21.1026 5.21942 23.5713 6.22932 25.5911 8.0247L23.1785 10.4372C22.898 10.7178 22.898 11.1666 23.1785 11.4471C23.3468 11.6155 23.5152 11.6716 23.6835 11.6716C23.8518 11.6716 24.0201 11.6155 24.1884 11.5032L26.6571 9.0346C28.4525 11.0544 29.5185 13.5792 29.6307 16.2722H26.1521C25.7594 16.2722 25.4228 16.6089 25.4228 17.0016C25.4228 17.3943 25.7594 17.731 26.1521 17.731H29.6307C29.5185 20.424 28.4525 22.9488 26.6571 24.9686Z" fill="#33323C"/>
<path d="M21.1027 12.7969H19.139C18.7463 12.7969 18.4097 13.1335 18.4097 13.5262V20.5394C18.4097 20.9322 18.7463 21.2688 19.139 21.2688H21.1027C22.7298 21.2688 24.0763 19.9223 24.0763 18.3513V15.8266C24.0763 14.1434 22.7298 12.7969 21.1027 12.7969ZM22.7298 18.2391C22.7298 19.1368 22.0004 19.8101 21.1588 19.8101H19.8684V14.1434H21.1588C22.0565 14.1434 22.7298 14.8728 22.7298 15.7144V18.2391Z" fill="#33323C"/>
<path d="M16.8947 15.6022C16.8947 14.8728 16.5581 14.1434 16.0532 13.6385C15.5482 13.0774 14.8188 12.7969 14.0895 12.7969C12.5185 12.7969 11.2842 14.0312 11.2842 15.6022V20.5956C11.2842 20.9883 11.6208 21.3249 12.0136 21.3249C12.4063 21.3249 12.7429 20.9883 12.7429 20.5956V18.4635H15.5482V20.5394C15.5482 20.9322 15.8848 21.2688 16.2776 21.2688C16.6703 21.2688 17.007 20.9322 16.8947 20.5956V15.6022ZM12.7429 16.9487V15.6022C12.7429 14.8167 13.3601 14.1995 14.1456 14.1995C14.5383 14.1995 14.8749 14.3117 15.1555 14.5923C15.3799 14.8728 15.5482 15.2094 15.5482 15.6022V16.9487H12.7429Z" fill="#33323C"/>
</g>
<defs>
<clipPath id="clip0_1_45044">
<rect width="34" height="34" fill="white" transform="translate(0.736328)"/>
</clipPath>
</defs>
</svg>
