<svg width="56" height="46" viewBox="0 0 56 46" fill="none" xmlns="http://www.w3.org/2000/svg">
<path d="M3.22581 35.9313V14.5104H41.5522V25.1051L44.0417 22.1525V8.43152C44.0417 6.28943 42.3049 4.5526 40.1627 4.5526H36.7469V1.71578C36.7469 1.02105 36.168 0.5 35.5312 0.5C34.8364 0.5 34.3154 1.07894 34.3154 1.71578V4.5526H27.9469V1.71578C27.9469 1.02105 27.368 0.5 26.7311 0.5C26.0364 0.5 25.5153 1.07894 25.5153 1.71578V4.5526H19.2627V1.71578C19.2627 1.02105 18.6837 0.5 18.0469 0.5C17.3522 0.5 16.8311 1.07894 16.8311 1.71578V4.5526H10.5206V1.71578C10.5206 1.02105 9.94161 0.5 9.30477 0.5C8.61003 0.5 8.08898 1.07894 8.08898 1.71578V4.5526H4.61528C2.47317 4.5526 0.736328 6.28943 0.736328 8.43152V35.9313C0.736328 38.0734 2.47317 39.8102 4.61528 39.8102H30.4364L30.5522 38.9418C30.6101 38.3629 30.8417 37.8418 31.189 37.3787H4.61528C3.86265 37.3787 3.22581 36.7418 3.22581 35.9313Z" fill="#33323C"/>
<path d="M15.1537 18.9101C15.1537 17.9838 14.4011 17.2891 13.5326 17.2891H8.95895C8.03263 17.2891 7.33789 18.0417 7.33789 18.9101V22.6732C7.33789 23.5995 8.09052 24.2943 8.95895 24.2943H13.5326C14.459 24.2943 15.1537 23.5416 15.1537 22.6732V18.9101Z" fill="#33323C"/>
<path d="M13.5326 27.5391H8.95895C8.03263 27.5391 7.33789 28.2917 7.33789 29.1601V32.9232C7.33789 33.8495 8.09052 34.5443 8.95895 34.5443H13.5326C14.459 34.5443 15.1537 33.7917 15.1537 32.9232V29.1601C15.1537 28.2917 14.4011 27.5391 13.5326 27.5391Z" fill="#33323C"/>
<path d="M26.2709 18.9101C26.2709 17.9838 25.5183 17.2891 24.6498 17.2891H20.0761C19.1498 17.2891 18.4551 18.0417 18.4551 18.9101V22.6732C18.4551 23.5995 19.2077 24.2943 20.0761 24.2943H24.6498C25.5761 24.2943 26.2709 23.5416 26.2709 22.6732V18.9101Z" fill="#33323C"/>
<path d="M24.6498 27.5391H20.0761C19.1498 27.5391 18.4551 28.2917 18.4551 29.1601V32.9232C18.4551 33.8495 19.2077 34.5443 20.0761 34.5443H24.6498C25.5761 34.5443 26.2709 33.7917 26.2709 32.9232V29.1601C26.2709 28.2917 25.5183 27.5391 24.6498 27.5391Z" fill="#33323C"/>
<path d="M37.3842 18.9101C37.3842 17.9838 36.6315 17.2891 35.7631 17.2891H31.1894C30.2631 17.2891 29.5684 18.0417 29.5684 18.9101V22.6732C29.5684 23.5995 30.321 24.2943 31.1894 24.2943H35.7631C36.6894 24.2943 37.3842 23.5416 37.3842 22.6732V18.9101Z" fill="#33323C"/>
<path d="M35.7631 27.5391H31.1894C30.2631 27.5391 29.5684 28.2917 29.5684 29.1601V32.9232C29.5684 33.8495 30.321 34.5443 31.1894 34.5443H33.5631L37.3842 29.9706V29.1601C37.3842 28.2917 36.6315 27.5391 35.7631 27.5391Z" fill="#33323C"/>
<path d="M55.2736 21.4581L51.9157 18.6213C51.3367 18.1581 50.5262 18.216 50.063 18.795L48.3262 20.8791L53.7104 25.3949L55.4472 23.3107C55.9104 22.7318 55.7946 21.9212 55.2736 21.4581Z" fill="#33323C"/>
<path d="M46.7047 22.7891L33.2731 38.71C33.1573 38.8837 33.0415 39.0574 33.0415 39.2889L32.231 44.8468C32.1731 45.1942 32.5205 45.4836 32.8099 45.3678L38.1363 43.631C38.31 43.5731 38.5415 43.4573 38.6573 43.2836L39.7573 41.9521L50.8152 28.7522L52.5521 30.1995L49.1942 34.1942C48.8468 34.5995 48.9047 35.2363 49.31 35.5837C49.7152 35.9311 50.3521 35.8732 50.6995 35.4679L54.6942 30.7206C55.0416 30.3153 54.9837 29.6785 54.5784 29.3311L46.7047 22.7891Z" fill="#33323C"/>
</svg>
