<svg width="56" height="54" viewBox="0 0 56 54" fill="none" xmlns="http://www.w3.org/2000/svg">
<path d="M33.945 9.7471H31.8958L32.641 6.76646C32.7829 6.18097 32.4813 5.55114 31.9136 5.37372C31.3192 5.18743 30.7249 5.50678 30.5208 6.04791L29.6426 8.39872C29.341 9.20597 28.5692 9.7471 27.6999 9.7471H26.4668V15.0786H27.3539L28.6845 15.9656H33.5724C34.2732 15.9656 34.8676 15.4334 34.9474 14.7326L35.3289 11.2729C35.4176 10.4568 34.7789 9.73823 33.9539 9.73823L33.945 9.7471Z" fill="#33323C"/>
<path d="M45.2302 18.9651L47.1286 20.4022L49.027 18.9651C50.1004 18.149 51.0318 17.1111 51.7593 15.9046C52.4334 14.7869 52.3004 13.3054 51.4399 12.3562C50.4463 11.2562 48.8407 11.2562 47.856 12.3562L47.1286 13.1635L46.4012 12.3562C45.4076 11.2562 43.802 11.2562 42.8173 12.3562C41.9657 13.3054 41.8326 14.7958 42.498 15.9046C43.2254 17.1111 44.148 18.149 45.2302 18.9651Z" fill="#33323C"/>
<path d="M28.2343 39.9178C30.684 39.9178 32.6698 37.932 32.6698 35.4824C32.6698 33.0327 30.684 31.0469 28.2343 31.0469C25.7847 31.0469 23.7988 33.0327 23.7988 35.4824C23.7988 37.932 25.7847 39.9178 28.2343 39.9178Z" fill="#33323C"/>
<path d="M21.1387 45.2445V53.2283H35.3322V45.2445C35.3322 42.3082 32.9459 39.9219 30.0096 39.9219H26.4613C23.525 39.9219 21.1387 42.3082 21.1387 45.2445Z" fill="#33323C"/>
<path d="M45.9791 40.8059C48.0613 40.8059 49.7493 39.118 49.7493 37.0358C49.7493 34.9536 48.0613 33.2656 45.9791 33.2656C43.8969 33.2656 42.209 34.9536 42.209 37.0358C42.209 39.118 43.8969 40.8059 45.9791 40.8059Z" fill="#33323C"/>
<path d="M39.7676 45.2402V52.3369H52.1869V45.2402C52.1869 42.7918 50.1998 40.8047 47.7515 40.8047H44.2031C41.7547 40.8047 39.7676 42.7918 39.7676 45.2402Z" fill="#33323C"/>
<path d="M10.4948 40.8059C12.577 40.8059 14.2649 39.118 14.2649 37.0358C14.2649 34.9536 12.577 33.2656 10.4948 33.2656C8.41257 33.2656 6.72461 34.9536 6.72461 37.0358C6.72461 39.118 8.41257 40.8059 10.4948 40.8059Z" fill="#33323C"/>
<path d="M4.28711 45.2402V52.3369H16.7065V45.2402C16.7065 42.7918 14.7194 40.8047 12.271 40.8047H8.72259C6.27421 40.8047 4.28711 42.7918 4.28711 45.2402Z" fill="#33323C"/>
<path d="M24.6871 8.88281H21.1387V15.9796H24.6871V8.88281Z" fill="#33323C"/>
<path d="M39.7696 19.5161V1.77419C39.7696 0.798387 38.9712 0 37.9954 0H18.4793C17.5035 0 16.7051 0.798387 16.7051 1.77419V19.5161C16.7051 20.4919 17.5035 21.2903 18.4793 21.2903H25.8244L27.3946 26.0097C27.5188 26.3734 27.8559 26.6129 28.2373 26.6129C28.6188 26.6129 28.9559 26.3645 29.0801 26.0097L30.6502 21.2903H37.9954C38.9712 21.2903 39.7696 20.4919 39.7696 19.5161ZM30.0115 19.5161C29.6301 19.5161 29.293 19.7645 29.1688 20.1194L28.2373 22.9137L27.3059 20.1194C27.1817 19.7556 26.8446 19.5161 26.4631 19.5161H18.4793V1.77419H37.9954V19.5161H30.0115Z" fill="#33323C"/>
<path d="M53.9619 6.21094H42.4296V7.98513H53.9619V23.9529H47.4949C47.1401 23.9529 46.8208 24.1658 46.6788 24.494L45.978 26.1351L45.2772 24.494C45.1353 24.1658 44.8159 23.9529 44.4611 23.9529H37.9941V25.7271H43.8756L45.1619 28.7343C45.3038 29.0626 45.6232 29.2755 45.978 29.2755C46.3329 29.2755 46.6522 29.0626 46.7941 28.7343L48.0804 25.7271H53.9619C54.9377 25.7271 55.7361 24.9287 55.7361 23.9529V7.98513C55.7361 7.00932 54.9377 6.21094 53.9619 6.21094Z" fill="#33323C"/>
<path d="M8.39197 25.7271L9.67826 28.7343C9.8202 29.0626 10.1396 29.2755 10.4944 29.2755C10.8492 29.2755 11.1686 29.0626 11.3105 28.7343L12.5968 25.7271H18.4783V23.9529H12.0113C11.6565 23.9529 11.3371 24.1658 11.1952 24.494L10.4944 26.1351L9.79359 24.494C9.65165 24.1658 9.3323 23.9529 8.97746 23.9529H2.51052V7.98513H14.0428V6.21094H2.51052C1.53472 6.21094 0.736328 7.00932 0.736328 7.98513V23.9529C0.736328 24.9287 1.53472 25.7271 2.51052 25.7271H8.39197Z" fill="#33323C"/>
<path d="M9.60969 10.6484C6.6734 10.6484 4.28711 13.0347 4.28711 15.971C4.28711 18.9073 6.6734 21.2936 9.60969 21.2936C12.546 21.2936 14.9323 18.9073 14.9323 15.971C14.9323 13.0347 12.546 10.6484 9.60969 10.6484ZM10.4968 13.3097H12.271V15.0839H10.4968V13.3097ZM6.9484 13.3097H8.72259V15.0839H6.9484V13.3097ZM9.60969 19.5194C8.1105 19.5194 6.76211 18.5702 6.26534 17.1509L7.93308 16.5565C8.18146 17.2662 8.85566 17.7363 9.60969 17.7363C10.3637 17.7363 11.029 17.2573 11.2863 16.5565L12.954 17.1509C12.4573 18.5613 11.1089 19.5194 9.60969 19.5194Z" fill="#33323C"/>
</svg>
