<svg width="56" height="55" viewBox="0 0 56 55" fill="none" xmlns="http://www.w3.org/2000/svg">
<path d="M16.3333 7.30049C16.5921 0.0151767 27.0906 0.0188185 27.3476 7.3006C27.3647 8.50411 29.1648 8.5072 29.1833 7.30049C28.7791 -2.43608 14.8991 -2.43093 14.4976 7.30055C14.5199 8.50624 16.3117 8.50691 16.3333 7.30049Z" fill="#33323C"/>
<path d="M42.9578 21.8413V17.3924C42.9578 14.3561 40.4888 11.8886 37.4507 11.8886H22.7649V10.841C26.8754 9.74265 26.1398 3.68991 21.847 3.63281C17.5539 3.69036 16.8192 9.74339 20.9292 10.841V11.8886H6.24348C3.20537 11.8886 0.736328 14.3561 0.736328 17.3924V35.7385C0.736328 38.7748 3.20537 41.2423 6.24348 41.2423H9.38259C9.70382 42.2697 9.5478 43.3613 8.93279 44.141C8.74008 44.3887 8.68501 44.7097 8.78596 45.0033C9.15621 45.8948 10.4193 45.7482 11.1999 45.8289C14.0234 45.8593 16.5958 44.0076 17.1293 41.2423H19.2587C21.5986 47.0177 29.1919 51.2343 36.0005 51.3051C36.8593 53.6001 39.1786 55.0133 41.6728 55.0019C42.4583 54.9235 43.7179 55.0612 44.0869 54.1764C44.1878 53.8828 44.1235 53.5617 43.9399 53.3141C43.325 52.5344 43.1689 51.4336 43.4994 50.4062C60.2088 45.3902 59.5939 26.2556 42.9578 21.8413ZM41.1221 35.7385C41.1221 37.7657 39.4791 39.4077 37.4507 39.4077H16.3216C15.8351 39.4077 15.4312 39.793 15.4129 40.2792C15.3224 42.5283 13.3235 44.0841 11.0898 43.9943C11.5487 42.7192 11.4661 41.2332 10.8236 39.9214C10.6676 39.6095 10.3463 39.4077 9.99755 39.4077H6.24348C4.21505 39.4077 2.57204 37.7657 2.57204 35.7385V17.3924C2.57204 15.3651 4.21505 13.7232 6.24348 13.7232H37.4507C39.4791 13.7232 41.1221 15.3651 41.1221 17.3924V35.7385Z" fill="#33323C"/>
<path d="M27.0824 20.7911L28.2691 19.6051L29.4559 20.7911C30.3071 21.6355 31.5996 20.3458 30.7538 19.4939C30.7538 19.494 28.9181 17.6594 28.9181 17.6594C28.5596 17.301 27.9787 17.301 27.6202 17.6594L25.7845 19.494C24.9403 20.3454 26.2294 21.6361 27.0824 20.7911Z" fill="#33323C"/>
<path d="M14.2347 20.7911L15.4215 19.6051L16.6083 20.7911C17.4594 21.6355 18.752 20.3458 17.9061 19.4939C17.9062 19.494 16.0704 17.6594 16.0704 17.6594C15.7119 17.301 15.1311 17.301 14.7725 17.6594L12.9368 19.494C12.0926 20.3454 13.3817 21.6361 14.2347 20.7911Z" fill="#33323C"/>
<path d="M30.1084 25.6484H13.587C11.5626 25.6484 9.91553 27.294 9.91553 29.3177V31.1523C9.91553 33.1759 11.5626 34.8215 13.587 34.8215H30.1084C32.1328 34.8215 33.7798 33.1759 33.7798 31.1523V29.3177C33.7798 27.294 32.1328 25.6484 30.1084 25.6484ZM29.8395 31.8008C29.481 32.1592 28.9001 32.1592 28.5416 31.8008L27.3548 30.6148L26.1681 31.8008C25.8095 32.1592 25.2287 32.1592 24.8702 31.8008L23.6834 30.6148L22.4966 31.8008C22.1381 32.1592 21.5573 32.1592 21.1987 31.8008L20.012 30.6148L18.8252 31.8008C18.4667 32.1592 17.8858 32.1592 17.5273 31.8008L16.3405 30.6148L15.1538 31.8008C14.3022 32.645 13.0103 31.3557 13.8559 30.5037C13.8559 30.5037 15.6916 28.6691 15.6916 28.6691C16.0501 28.3108 16.631 28.3108 16.9895 28.6691L18.1763 29.8551L19.363 28.6691C19.7215 28.3108 20.3024 28.3108 20.6609 28.6691L21.8477 29.8551L23.0344 28.6691C23.393 28.3108 23.9738 28.3108 24.3324 28.6691L25.5191 29.8551L26.7059 28.6691C27.0644 28.3108 27.6453 28.3108 28.0038 28.6691L29.8395 30.5037C30.198 30.862 30.198 31.4425 29.8395 31.8008Z" fill="#33323C"/>
</svg>
