<svg width="34" height="32" viewBox="0 0 34 32" fill="none" xmlns="http://www.w3.org/2000/svg">
<g clip-path="url(#clip0_1_45012)">
<path d="M31.8348 11.7043L33.1089 9.77432C33.3 9.52529 33.3 9.21401 33.1726 8.96498C33.0452 8.71595 32.7904 8.52918 32.4718 8.52918H29.2228C28.968 8.52918 28.7132 8.6537 28.5857 8.90272L27.2479 10.8949H24.3811C23.9989 4.79377 18.7112 0 12.3406 0C5.65139 0 0.236328 5.29183 0.236328 11.7043C0.236328 16.4358 3.16683 20.607 7.49888 22.4125C7.49888 23.7821 7.49888 27.4553 7.49888 28.8249C7.49888 29.2607 7.88111 29.6342 8.32706 29.6342H9.15525V31.1907C9.15525 31.6265 9.53749 32 9.98343 32H14.8888C15.3348 32 15.717 31.6265 15.717 31.1907V29.6342H16.3541C16.8 29.6342 17.1823 29.2607 17.1823 28.8249C17.1823 27.4553 17.1823 23.7821 17.1823 22.4125C21.2595 20.6693 24.0626 16.8716 24.3811 12.5136H27.2479L28.5857 14.5058C28.7132 14.6926 28.968 14.8794 29.2228 14.8794H32.4718C32.7904 14.8794 33.0452 14.6926 33.1726 14.4436C33.3 14.1946 33.3 13.8833 33.1089 13.6342L31.8348 11.7043ZM13.8695 30.3813H10.6205V29.572H13.8695V30.3813ZM15.5259 28.0778C13.551 28.0778 11.0664 28.0778 9.09154 28.0778V27.2685H15.5259V28.0778ZM15.5259 25.7121H9.09154V24.9027H15.5259V25.7121ZM12.3406 7.84436C10.1746 7.84436 8.26336 9.58755 8.26336 11.7665C8.26336 13.8833 10.0471 15.6887 12.3406 15.6887C14.2518 15.6887 15.9081 14.3191 16.2904 12.5759H18.7112C18.329 15.6265 15.5896 18.0545 12.3406 18.0545C8.77301 18.0545 5.90621 15.2529 5.90621 11.8288C5.90621 8.40467 8.83671 5.60311 12.3406 5.60311C15.6533 5.60311 18.329 7.96887 18.7112 11.0817H16.2904V10.9572C15.9081 9.21401 14.3155 7.84436 12.3406 7.84436ZM13.1051 12.5136H14.5703C14.2518 13.4475 13.3599 14.07 12.3406 14.07C11.0027 14.07 9.91973 13.0117 9.91973 11.7043C9.91973 10.3969 11.0027 9.33852 12.3406 9.33852C13.3599 9.33852 14.2518 9.96109 14.5703 10.8949H13.1051C12.6591 10.8949 12.2769 11.2685 12.2769 11.7043C12.2769 12.1401 12.6591 12.5136 13.1051 12.5136ZM12.4043 3.85992C7.94482 3.85992 4.37725 7.3463 4.37725 11.642C4.37725 15.9377 8.00853 19.4241 12.4043 19.4241C16.6089 19.4241 19.9854 16.3735 20.3676 12.3891H22.7247C22.4062 16.3113 19.7305 19.7354 16.0356 21.1673C15.717 21.2918 15.5259 21.5409 15.5259 21.9144V23.4086H9.15525V21.9144C9.15525 21.6031 8.96413 21.2918 8.64559 21.1673C4.63208 19.6732 1.8927 15.8755 1.8927 11.7043C1.8927 6.10117 6.60698 1.55642 12.4043 1.55642C17.883 1.55642 22.4699 5.66537 22.8522 10.8949H20.4313C20.0491 6.97276 16.5452 3.85992 12.4043 3.85992ZM29.6688 13.2607L29.1591 12.4514H30.4332L30.9429 13.2607H29.6688ZM30.4332 10.9572H29.1591L29.6688 10.1479H30.9429L30.4332 10.9572Z" fill="#33323C"/>
<path d="M19.5394 24.1562H17.9468V25.7127H19.5394V24.1562Z" fill="#33323C"/>
<path d="M19.5394 26.5234H17.9468V28.0799H19.5394V26.5234Z" fill="#33323C"/>
<path d="M6.67079 24.1562H5.07812V25.7127H6.67079V24.1562Z" fill="#33323C"/>
<path d="M6.67079 26.5234H5.07812V28.0799H6.67079V26.5234Z" fill="#33323C"/>
</g>
<defs>
<clipPath id="clip0_1_45012">
<rect width="33" height="32" fill="white" transform="translate(0.236328)"/>
</clipPath>
</defs>
</svg>
