<svg width="55" height="56" viewBox="0 0 55 56" fill="none" xmlns="http://www.w3.org/2000/svg">
<path d="M1.92041 52.8055C1.92041 53.56 2.22013 54.2836 2.75364 54.8171C3.28715 55.3506 4.01074 55.6503 4.76524 55.6503H31.317C32.0715 55.6503 32.7951 55.3506 33.3286 54.8171C33.8621 54.2836 34.1618 53.56 34.1618 52.8055V48.0319C33.847 48.0508 33.5312 48.0641 33.2135 48.0641C32.8958 48.0641 32.5801 48.0508 32.2652 48.0319V51.8572C32.2652 52.3602 32.0654 52.8426 31.7098 53.1983C31.3541 53.554 30.8717 53.7538 30.3687 53.7538H5.71351C5.21052 53.7538 4.72812 53.554 4.37245 53.1983C4.01678 52.8426 3.81696 52.3602 3.81696 51.8572V6.33998C3.81696 5.83698 4.01678 5.35459 4.37245 4.99891C4.72812 4.64324 5.21052 4.44343 5.71351 4.44343H8.55834C9.06134 4.44343 9.54373 4.64324 9.89941 4.99891C10.2551 5.35459 10.4549 5.83698 10.4549 6.33998V7.28825C10.4549 7.53975 10.5548 7.78095 10.7326 7.95879C10.9105 8.13662 11.1517 8.23653 11.4032 8.23653H24.679C24.9305 8.23653 25.1717 8.13662 25.3496 7.95879C25.5274 7.78095 25.6273 7.53975 25.6273 7.28825V6.33998C25.6273 5.83698 25.8271 5.35459 26.1828 4.99891C26.5385 4.64324 27.0209 4.44343 27.5239 4.44343H30.3687C30.8717 4.44343 31.3541 4.64324 31.7098 4.99891C32.0654 5.35459 32.2652 5.83698 32.2652 6.33998V12.0619C32.5801 12.0429 32.8958 12.0296 33.2135 12.0296C33.5312 12.0296 33.847 12.0429 34.1618 12.0619V5.3917C34.1618 4.63721 33.8621 3.91361 33.3286 3.38011C32.7951 2.8466 32.0715 2.54688 31.317 2.54688H4.76524C4.01074 2.54688 3.28715 2.8466 2.75364 3.38011C2.22013 3.91361 1.92041 4.63721 1.92041 5.3917V52.8055ZM18.9894 4.44343H21.8342C22.0857 4.44343 22.3269 4.54333 22.5047 4.72117C22.6826 4.89901 22.7825 5.1402 22.7825 5.3917C22.7825 5.6432 22.6826 5.8844 22.5047 6.06223C22.3269 6.24007 22.0857 6.33998 21.8342 6.33998H18.9894C18.7379 6.33998 18.4967 6.24007 18.3188 6.06223C18.141 5.8844 18.0411 5.6432 18.0411 5.3917C18.0411 5.1402 18.141 4.89901 18.3188 4.72117C18.4967 4.54333 18.7379 4.44343 18.9894 4.44343ZM14.248 4.44343H15.1963C15.4478 4.44343 15.689 4.54333 15.8668 4.72117C16.0446 4.89901 16.1446 5.1402 16.1446 5.3917C16.1446 5.6432 16.0446 5.8844 15.8668 6.06223C15.689 6.24007 15.4478 6.33998 15.1963 6.33998H14.248C13.9965 6.33998 13.7553 6.24007 13.5775 6.06223C13.3996 5.8844 13.2997 5.6432 13.2997 5.3917C13.2997 5.1402 13.3996 4.89901 13.5775 4.72117C13.7553 4.54333 13.9965 4.44343 14.248 4.44343Z" fill="#33323C"/>
<path d="M33.2136 13.9219C26.1271 13.9219 19.7651 19.5167 15.6562 24.2296C20.7944 20.6076 26.9271 18.6633 33.2136 18.6633C39.5001 18.6633 45.6327 20.6076 50.7709 24.2296C46.662 19.5167 40.3 13.9219 33.2136 13.9219Z" fill="#33323C"/>
<path d="M33.2148 41.4222C35.5092 41.4249 37.7508 40.733 39.6446 39.4376C41.5385 38.1423 42.996 36.3041 43.8254 34.1647C44.6548 32.0254 44.8173 29.6852 44.2915 27.4517C43.7657 25.2183 42.5763 23.1963 40.8797 21.6516C35.8745 20.1995 30.5597 20.1995 25.5546 21.6516C23.8582 23.196 22.6689 25.2176 22.143 27.4506C21.6171 29.6835 21.7792 32.0234 22.608 34.1625C23.4368 36.3017 24.8936 38.1399 26.7867 39.4356C28.6798 40.7314 30.9207 41.4239 33.2148 41.4222ZM33.2148 22.4567C34.1773 22.4554 35.1309 22.6413 36.0226 23.0038C36.6055 22.6494 37.2739 22.4602 37.9561 22.4567C38.6985 22.4547 39.425 22.6712 40.0453 23.0791C40.6655 23.4871 41.152 24.0684 41.4443 24.7509C41.7365 25.4333 41.8215 26.1866 41.6888 26.917C41.556 27.6474 41.2113 28.3226 40.6976 28.8585C40.764 29.2499 40.7986 29.646 40.801 30.0429C40.801 31.5433 40.356 33.01 39.5225 34.2576C38.6889 35.5051 37.5041 36.4775 36.1179 37.0516C34.7317 37.6258 33.2063 37.7761 31.7348 37.4833C30.2632 37.1906 28.9114 36.4681 27.8505 35.4072C26.7895 34.3462 26.067 32.9945 25.7743 31.5229C25.4816 30.0513 25.6318 28.526 26.206 27.1398C26.7802 25.7536 27.7525 24.5688 29.0001 23.7352C30.2476 22.9016 31.7143 22.4567 33.2148 22.4567Z" fill="#33323C"/>
<path d="M37.9561 28.1447C39.0036 28.1447 39.8527 27.2956 39.8527 26.2481C39.8527 25.2007 39.0036 24.3516 37.9561 24.3516C36.9087 24.3516 36.0596 25.2007 36.0596 26.2481C36.0596 27.2956 36.9087 28.1447 37.9561 28.1447Z" fill="#33323C"/>
<path d="M33.2132 35.7309C34.7217 35.7294 36.168 35.1294 37.2347 34.0627C38.3014 32.9961 38.9014 31.5497 38.9029 30.0412C38.9029 29.9957 38.8962 29.954 38.8953 29.9085C38.5887 29.9928 38.2725 30.0374 37.9546 30.0412C36.9486 30.0412 35.9838 29.6416 35.2725 28.9302C34.5611 28.2189 34.1615 27.2541 34.1615 26.2481C34.1655 25.6463 34.3144 25.0543 34.5958 24.5223C33.8139 24.3263 32.9994 24.2987 32.2061 24.4413C31.4128 24.5839 30.6588 24.8934 29.9941 25.3494C29.3294 25.8053 28.7692 26.3973 28.3506 27.0861C27.9319 27.7748 27.6644 28.5447 27.5657 29.3447C27.4671 30.1446 27.5395 30.9564 27.7782 31.7263C28.0169 32.4962 28.4165 33.2065 28.9505 33.8103C29.4844 34.4141 30.1406 34.8976 30.8754 35.2287C31.6103 35.5598 32.4072 35.731 33.2132 35.7309Z" fill="#33323C"/>
<path d="M54.9623 30.332C51.977 27.1651 48.3782 24.6391 44.3852 22.9079C45.6731 24.914 46.397 27.2299 46.481 29.6124C46.5649 31.9948 46.0059 34.3559 44.8624 36.4477C43.719 38.5395 42.0334 40.2848 39.9826 41.5004C37.9319 42.7159 35.5916 43.3569 33.2077 43.3558C30.8238 43.3548 28.4841 42.7119 26.4344 41.4946C24.3847 40.2774 22.7006 38.5306 21.5589 36.4378C20.4172 34.3451 19.8601 31.9835 19.9461 29.6011C20.0321 27.2187 20.758 24.9035 22.0476 22.8984C18.0496 24.6279 14.448 27.1577 11.4648 30.332C11.4839 30.3878 11.5094 30.4413 11.5407 30.4913C13.9996 34.1706 22.8328 46.1682 33.2136 46.1682C43.5943 46.1682 52.4275 34.1706 54.8864 30.4932C54.9176 30.4424 54.943 30.3883 54.9623 30.332Z" fill="#33323C"/>
<path d="M5.71436 6.33594V51.8532H30.3695V47.7917C20.3538 45.9644 12.3362 35.0877 9.96453 31.5421C9.66684 31.0987 9.50787 30.5768 9.50787 30.0428C9.50787 29.5088 9.66684 28.9869 9.96453 28.5436C12.3362 24.998 20.3538 14.1213 30.3695 12.294V6.33594H27.5247V7.28421C27.5247 8.03871 27.225 8.7623 26.6915 9.29581C26.158 9.82932 25.4344 10.129 24.6799 10.129H11.404C10.6495 10.129 9.92592 9.82932 9.39241 9.29581C8.8589 8.7623 8.55918 8.03871 8.55918 7.28421V6.33594H5.71436ZM15.475 12.3034C15.6538 12.1307 15.8933 12.0351 16.142 12.0373C16.3906 12.0394 16.6285 12.1392 16.8043 12.315C16.9801 12.4908 17.0798 12.7286 17.082 12.9773C17.0841 13.2259 16.9886 13.4655 16.8158 13.6443L9.22961 21.2305C9.05077 21.4032 8.81123 21.4988 8.5626 21.4967C8.31396 21.4945 8.07612 21.3948 7.9003 21.219C7.72449 21.0431 7.62476 20.8053 7.6226 20.5567C7.62044 20.308 7.71602 20.0685 7.88875 19.8896L15.475 12.3034ZM9.7853 12.3034C9.96415 12.1307 10.2037 12.0351 10.4523 12.0373C10.701 12.0394 10.9388 12.1392 11.1146 12.315C11.2904 12.4908 11.3902 12.7286 11.3923 12.9773C11.3945 13.2259 11.2989 13.4655 11.1262 13.6443L9.22961 15.5409C9.05077 15.7136 8.81123 15.8092 8.5626 15.807C8.31396 15.8048 8.07612 15.7051 7.9003 15.5293C7.72449 15.3535 7.62476 15.1156 7.6226 14.867C7.62044 14.6184 7.71602 14.3788 7.88875 14.2L9.7853 12.3034Z" fill="#33323C"/>
</svg>
