<svg width="53" height="55" viewBox="0 0 53 55" fill="none" xmlns="http://www.w3.org/2000/svg">
<path d="M22.215 32.3696V29.5155C22.215 29.2165 22.4653 28.9668 22.7638 28.9668H39.7432C40.0459 28.9668 40.2914 29.2129 40.2914 29.5155V30.6835C37.8663 30.8009 35.6393 31.5181 33.6349 32.8973L33.6042 32.9184H22.7638C22.4653 32.9184 22.215 32.6687 22.215 32.3696ZM22.7638 37.8756H29.3697C30.0653 36.45 30.9535 35.2201 32.1083 34.1303L32.3267 33.9239H22.7638C22.4653 33.9239 22.215 34.1736 22.215 34.4727V37.3268C22.215 37.6259 22.4653 37.8756 22.7638 37.8756ZM22.7638 27.9612H39.7432C40.0453 27.9612 40.2914 27.7163 40.2914 27.4137V24.5596C40.2914 24.2569 40.0459 24.0108 39.7432 24.0108H22.7638C22.4647 24.0108 22.215 24.2605 22.215 24.5596V27.4137C22.215 27.7127 22.4653 27.9612 22.7638 27.9612ZM22.7638 23.0053H39.7432C40.0459 23.0053 40.2914 22.7592 40.2914 22.4565V19.603C40.2914 19.3009 40.0459 19.0542 39.7432 19.0542H22.7638C22.4611 19.0542 22.215 19.3009 22.215 19.603V22.4565C22.215 22.7556 22.4653 23.0053 22.7638 23.0053ZM22.2282 9.02435C22.2282 4.04853 26.2774 0 31.2526 0C36.2284 0 40.2781 4.04793 40.2781 9.02435C40.2781 14.0014 36.229 18.0487 31.2526 18.0487C26.2768 18.0487 22.2282 14.0002 22.2282 9.02435ZM27.2594 6.88576C27.2594 8.26315 28.3798 9.38239 29.7572 9.38239H32.7503C33.5729 9.38239 34.2414 10.0515 34.2414 10.8747C34.2414 11.6973 33.5729 12.367 32.7503 12.367H28.1795C27.5163 12.367 27.5181 13.3726 28.1795 13.3726H30.7507V15.028C30.7507 15.6893 31.7568 15.6899 31.7568 15.028V13.3726H32.7509C34.1277 13.3726 35.2476 12.2509 35.2476 10.8747C35.2476 9.49853 34.1277 8.37688 32.7509 8.37688H29.7578C28.9359 8.37688 28.2655 7.70834 28.2655 6.88576C28.2655 6.06317 28.9353 5.39343 29.7578 5.39343H34.3275C34.9894 5.39343 34.99 4.38792 34.3275 4.38792H31.7562V2.73132C31.7562 2.0694 30.7501 2.07 30.7501 2.73132V4.38792H29.7572C28.3792 4.38792 27.2594 5.50836 27.2594 6.88576ZM18.2645 44.0248H1.28512C0.983043 44.0248 0.736328 44.2715 0.736328 44.5736V47.4277C0.736328 47.7303 0.983043 47.9752 1.28512 47.9752H18.2645C18.563 47.9752 18.8133 47.7261 18.8133 47.4277V44.5736C18.8133 44.2751 18.563 44.0248 18.2645 44.0248ZM22.215 39.4287V42.2821C22.215 42.5848 22.4617 42.8309 22.7638 42.8309H28.1391C28.2029 41.4987 28.425 40.2982 28.8805 39.0411L28.9389 38.8811H22.7638C22.4653 38.8811 22.215 39.1302 22.215 39.4287ZM28.1385 43.837H22.7644C22.4659 43.837 22.2156 44.0868 22.2156 44.3858V47.2399C22.2156 47.539 22.4659 47.7887 22.7644 47.7887H28.9359C28.4701 46.4986 28.2108 45.327 28.1446 43.9508L28.1385 43.837ZM52.4514 43.3394C52.4514 49.7678 47.2241 55 40.795 55C34.3654 55 29.135 49.769 29.135 43.3394C29.135 36.9098 34.366 31.6806 40.795 31.6806C47.2241 31.68 52.4514 36.9104 52.4514 43.3394ZM32.012 42.8363H30.7898C30.1279 42.8363 30.1279 43.8419 30.7898 43.8419H32.012C32.6733 43.8425 32.6733 42.8363 32.012 42.8363ZM41.2975 52.1225C41.2975 51.4605 40.2914 51.4599 40.2914 52.1225V53.3446C40.2914 54.0065 41.2975 54.0065 41.2975 53.3446V52.1225ZM41.2975 37.334C41.2975 36.6721 40.2914 36.6715 40.2914 37.334V42.8363L35.25 42.8315C34.5892 42.8309 34.5868 43.8364 35.25 43.837L40.7944 43.8419C41.0718 43.8419 41.2975 43.6162 41.2975 43.3388V37.334ZM41.2975 33.3354C41.2975 32.6735 40.2914 32.6729 40.2914 33.3354V34.5564C40.2914 35.2183 41.2975 35.2177 41.2975 34.5564V33.3354ZM50.7996 42.8363H49.5757C48.915 42.8363 48.915 43.8419 49.5757 43.8419H50.7996C51.4627 43.8425 51.4627 42.8363 50.7996 42.8363ZM18.2657 34.1123H1.28392C0.981238 34.1123 0.736328 34.359 0.736328 34.6611V37.5151C0.736328 37.8178 0.983043 38.0627 1.28512 38.0627H18.2645C18.5624 38.0627 18.8133 37.8136 18.8133 37.5151V34.6611C18.8133 34.3632 18.5636 34.1123 18.2657 34.1123ZM1.28512 32.987H18.2657C18.4968 32.9858 18.6942 32.7902 18.6942 32.5574V29.7039C18.6942 29.4674 18.501 29.2742 18.2645 29.2742H1.28512C1.04863 29.2742 0.855474 29.4674 0.855474 29.7039V32.5574C0.855474 32.795 1.04924 32.987 1.28512 32.987ZM18.2645 39.0682H1.28512C0.982442 39.0682 0.736328 39.3143 0.736328 39.617V42.4711C0.736328 42.7732 0.983043 43.0199 1.28512 43.0199H18.2645C18.563 43.0199 18.8133 42.7696 18.8133 42.4711V39.617C18.8133 39.3143 18.5672 39.0682 18.2645 39.0682Z" fill="#33323C"/>
</svg>
