<svg width="55" height="49" viewBox="0 0 55 49" fill="none" xmlns="http://www.w3.org/2000/svg">
<path d="M17.4988 0.666016C12.8579 0.666016 8.40697 2.44985 5.12529 5.6251C1.84362 8.80035 0 13.1069 0 17.5974C0 22.0879 1.84362 26.3944 5.12529 29.5697C8.40697 32.7449 12.8579 34.5288 17.4988 34.5288H20.1737C19.9364 32.9244 19.9364 31.2956 20.1737 29.6912H17.4988C14.1839 29.6912 11.0046 28.4171 8.6606 26.149C6.31655 23.881 4.99967 20.8049 4.99967 17.5974C4.99967 14.3899 6.31655 11.3138 8.6606 9.04576C11.0046 6.77772 14.1839 5.50355 17.4988 5.50355H37.4975C39.3512 5.50319 41.1818 5.90175 42.8566 6.67038C44.5314 7.43901 46.0086 8.55845 47.1811 9.94762C48.3536 11.3368 49.1921 12.9609 49.6358 14.7023C50.0796 16.4437 50.1175 18.2588 49.7467 20.0162C51.2195 21.4135 52.4263 23.051 53.3115 24.8537C54.5768 22.2727 55.1466 19.4239 54.9679 16.5725C54.7892 13.7211 53.8678 10.9598 52.2894 8.54571C50.711 6.13158 48.5271 4.14309 45.9407 2.76535C43.3544 1.38761 40.4499 0.665426 37.4975 0.666016H17.4988ZM24.9984 32.11C24.9988 30.2244 25.455 28.3649 26.3304 26.6803C27.2059 24.9956 28.4763 23.5323 30.0403 22.4073C31.6043 21.2823 33.4185 20.5267 35.3381 20.2009C37.2576 19.8752 39.2293 19.9882 41.0956 20.531C42.962 21.0738 44.6713 22.0314 46.087 23.3272C47.5028 24.623 48.5858 26.2212 49.2495 27.9941C49.9132 29.767 50.1393 31.6656 49.9096 33.5381C49.68 35.4106 49.001 37.2052 47.9269 38.7785L54.2639 44.9125L50.7292 48.3327L44.3896 42.2011C42.5056 43.406 40.3195 44.0944 38.0635 44.1934C35.8075 44.2923 33.5659 43.798 31.577 42.763C29.5881 41.728 27.9262 40.1909 26.7678 38.3152C25.6095 36.4394 24.998 34.2951 24.9984 32.11Z" fill="#33323C"/>
</svg>
