<svg width="56" height="55" viewBox="0 0 56 55" fill="none" xmlns="http://www.w3.org/2000/svg">
<path d="M54.553 4.97644L54.1301 3.95233L54.6621 2.81632L52.9182 1.07342L51.7822 1.6054L50.8046 1.20049L50.613 0.781362L50.3285 0H47.865L47.4354 1.18153L46.4113 1.60445L45.2753 1.07342L43.5324 2.81632L44.0644 3.95233L43.6595 4.92998L43.2403 5.12152L42.459 5.406V7.86957L43.6405 8.29912L44.0634 9.32324L43.5315 10.4592L45.2744 12.2021L46.4104 11.6702L47.388 12.0751L47.5796 12.4942L47.864 13.2746H50.3276L50.7572 12.0931L51.7813 11.6702L52.9173 12.2021L54.6602 10.4592L54.1282 9.32324L54.5331 8.34559L54.9522 8.15404L55.7327 7.86957V5.406L54.553 4.97644ZM49.0968 10.4308C47.0021 10.4308 45.3037 8.73248 45.3037 6.63778C45.3037 4.54309 47.0021 2.84476 49.0968 2.84476C51.1915 2.84476 52.8898 4.54309 52.8898 6.63778C52.8898 8.73248 51.1915 10.4308 49.0968 10.4308Z" fill="#33323C"/>
<path d="M9.26323 17.0703H5.47021C5.47021 18.1162 6.3208 18.9668 7.36672 18.9668C8.41265 18.9668 9.26323 18.1162 9.26323 17.0703Z" fill="#33323C"/>
<path d="M6.42491 8.27257C5.8607 7.94353 5.47666 7.33854 5.47666 6.63873C5.47666 5.59091 6.32535 4.74222 7.37317 4.74222C8.42099 4.74222 9.26968 5.59091 9.26968 6.63873C9.26968 7.33854 8.88564 7.94353 8.32142 8.27257V15.173H9.28201C9.34364 13.9583 9.95622 12.865 10.9585 12.2211C12.8693 10.9922 14.011 8.90506 14.011 6.63873C14.011 4.75076 13.2021 2.94528 11.793 1.686C10.5603 0.585073 9.01649 0 7.3817 0C7.12188 0 6.85922 0.0151719 6.5956 0.0455161C3.61144 0.382147 1.17064 2.78692 0.792282 5.76065C0.461341 8.35318 1.61537 10.8329 3.80489 12.2306C4.78823 12.8602 5.39227 13.9479 5.46244 15.173H6.42491V8.27257Z" fill="#33323C"/>
<path d="M35.9459 28.4453H20.5234L23.0524 32.2383H33.4169L35.9459 28.4453Z" fill="#33323C"/>
<path d="M36.5298 49.3127L33.1578 34.1406H23.3007L19.9287 49.3127H36.5298ZM24.8682 35.8276L26.7201 36.2391L26.3086 38.0901L24.4566 37.6786L24.8682 35.8276ZM24.0451 39.5305L25.897 39.942L25.4855 41.794L23.6335 41.3824L24.0451 39.5305ZM25.0749 43.645L24.6624 45.496L22.8105 45.0825L23.2229 43.2315L25.0749 43.645Z" fill="#33323C"/>
<path d="M38.6624 51.2109H17.8008C16.7549 51.2109 15.9043 52.0615 15.9043 53.1074V55.004H40.5589V53.1074C40.5589 52.0615 39.7083 51.2109 38.6624 51.2109Z" fill="#33323C"/>
<path d="M36.7683 22.7578H32.9753V24.6543H30.1305V22.7578H26.3375V24.6543H23.4927V22.7578H19.6997V26.5508H36.7683V22.7578Z" fill="#33323C"/>
<path d="M50.0415 17.0703H48.145V18.9668H50.0415V17.0703Z" fill="#33323C"/>
<path d="M50.0415 20.8594H48.145V22.7559H50.0415V20.8594Z" fill="#33323C"/>
<path d="M48.1471 31.294C48.1471 31.8175 47.7223 32.2423 47.1988 32.2423H40.561V34.1388H47.1988C48.7672 34.1388 50.0436 32.8624 50.0436 31.294V24.6562H48.1471V31.294Z" fill="#33323C"/>
<path d="M8.31887 22.7578H6.42236V24.6543H8.31887V22.7578Z" fill="#33323C"/>
<path d="M8.31887 26.5547H6.42236V28.4512H8.31887V26.5547Z" fill="#33323C"/>
<path d="M15.9049 32.2403H9.26713C8.74369 32.2403 8.31887 31.8154 8.31887 31.292V30.3438H6.42236V31.292C6.42236 32.8604 7.69871 34.1368 9.26713 34.1368H15.9049V32.2403Z" fill="#33323C"/>
</svg>
