<svg width="55" height="37" viewBox="0 0 55 37" fill="none" xmlns="http://www.w3.org/2000/svg">
<path d="M14.6621 25.7305C12.6705 25.7637 11.2129 25.8317 11.1923 25.8342L11.1026 25.8365H11.0128L10.6152 25.8261L13.0472 34.8362C13.33 35.8857 14.4075 36.507 15.4568 36.2242C16.5063 35.939 17.1254 34.8614 16.8427 33.812L14.6621 25.7305Z" fill="#33323C"/>
<path d="M29.8531 6.42383C27.533 7.3609 24.1388 8.61482 21.3573 9.16189C16.6299 10.089 11.3593 9.88781 11.3593 9.88781V9.88531L8.39689 9.98699C6.6283 10.048 5.14631 11.1818 4.55772 12.7483C4.32207 12.7026 4.07948 12.677 3.83071 12.677C1.71807 12.677 0 14.3955 0 16.5077C0 18.6197 1.71807 20.3382 3.83071 20.3382C3.98994 20.3382 4.14593 20.3253 4.30028 20.3064C4.47556 22.439 6.22539 24.1387 8.40176 24.2086L10.1979 24.2698L10.2019 24.2853L11.0804 24.3081C11.0804 24.3081 11.1233 24.3062 11.1973 24.3026L10.9699 24.2952L11.3592 24.3081C11.3592 24.3081 11.7672 24.2835 12.4326 24.2564C12.9361 24.2399 13.5565 24.2227 14.255 24.2094L14.2531 24.2011C16.5863 24.1554 19.7984 24.1936 21.8339 24.6239C23.7374 25.031 27.1859 26.1916 29.6637 27.0639L29.8531 6.42383ZM4.28283 18.2403C4.13801 18.278 3.98702 18.3002 3.8306 18.3002C2.84192 18.3002 2.03763 17.4959 2.03763 16.5075C2.03763 15.5188 2.84192 14.7145 3.8306 14.7145C3.98702 14.7145 4.13801 14.7367 4.28283 14.7745V18.2403Z" fill="#33323C"/>
<path d="M31.328 30.6472L33.3657 30.6671L33.638 2.64104L31.6001 2.62109L31.57 5.70948C31.5447 5.72011 31.5218 5.72997 31.4957 5.74124C31.4934 5.74233 31.4906 5.74352 31.4885 5.74439L31.2988 27.6484C31.3177 27.6553 31.3384 27.6628 31.3568 27.6691L31.328 30.6472Z" fill="#33323C"/>
<path d="M54.7705 16.3137L52.3485 13.9453L51.28 15.0377L52.3394 16.0743H45.1152V17.6027H52.3591L51.2849 18.6339L52.3437 19.7365L54.7657 17.4113C54.9148 17.2681 54.9994 17.0704 55.0005 16.8636C55.0016 16.6568 54.9183 16.4583 54.7705 16.3137Z" fill="#33323C"/>
<path d="M41.7343 9.13012L46.1786 3.40957L46.3342 4.89046L47.8543 4.7308L47.5035 1.39169C47.4819 1.18596 47.3777 0.997892 47.2152 0.870202C47.0521 0.742296 46.8442 0.685823 46.6397 0.714223L43.2838 1.1736L43.4913 2.6882L44.9595 2.48713L40.5273 8.19228L41.7343 9.13012Z" fill="#33323C"/>
<path d="M45.7879 30.519L41.5018 24.7031L40.2715 25.6096L44.5689 31.4414L43.1014 31.1886L42.842 32.6945L46.1506 33.2645C46.1934 33.2719 46.2369 33.2758 46.2801 33.2758C46.4409 33.2758 46.5989 33.2249 46.7306 33.1289C46.8978 33.0069 47.0082 32.8226 47.0365 32.6176L47.5067 29.2631L45.9932 29.0512L45.7879 30.519Z" fill="#33323C"/>
</svg>
