<svg width="55" height="55" viewBox="0 0 55 55" fill="none" xmlns="http://www.w3.org/2000/svg">
<path d="M27.4999 4.58398C14.8637 4.58398 4.58325 14.8644 4.58325 27.5006C4.58325 40.1369 14.8637 50.4173 27.4999 50.4173C40.1362 50.4173 50.4166 40.1369 50.4166 27.5006C50.4166 14.8644 40.1362 4.58398 27.4999 4.58398ZM27.4999 45.834C17.3914 45.834 9.16658 37.6092 9.16658 27.5006C9.16658 17.3921 17.3914 9.16732 27.4999 9.16732C37.6085 9.16732 45.8332 17.3921 45.8332 27.5006C45.8332 37.6092 37.6085 45.834 27.4999 45.834Z" fill="#33323C"/>
<path d="M19.4792 27.5C21.3777 27.5 22.9167 25.961 22.9167 24.0625C22.9167 22.164 21.3777 20.625 19.4792 20.625C17.5808 20.625 16.0417 22.164 16.0417 24.0625C16.0417 25.961 17.5808 27.5 19.4792 27.5Z" fill="#33323C"/>
<path d="M35.5047 27.4679C37.3943 27.4679 38.9262 25.9361 38.9262 24.0465C38.9262 22.1568 37.3943 20.625 35.5047 20.625C33.6151 20.625 32.0833 22.1568 32.0833 24.0465C32.0833 25.9361 33.6151 27.4679 35.5047 27.4679Z" fill="#33323C"/>
<path d="M27.5001 41.2507C36.6667 41.2507 38.9584 32.084 38.9584 32.084H16.0417C16.0417 32.084 18.3334 41.2507 27.5001 41.2507Z" fill="#33323C"/>
</svg>
