<svg width="47" height="47" viewBox="0 0 47 47" fill="none" xmlns="http://www.w3.org/2000/svg">
<path d="M45.2559 15.4225C47.1041 20.3868 47.198 25.834 45.5221 30.8591C43.8462 35.8842 40.5014 40.1846 36.0433 43.0457C31.5852 45.9068 26.2824 47.1564 21.0159 46.5868C15.7494 46.0172 10.8364 43.6628 7.09315 39.9146C2.88833 35.7237 0.449876 30.0804 0.279578 24.1461C0.109279 18.2118 2.2201 12.438 6.17765 8.01279C10.1352 3.58758 15.6384 0.847646 21.5548 0.356827C27.4712 -0.133991 33.3507 1.66164 37.9834 5.37422L42.3018 1.05371C42.5416 0.813894 42.8263 0.623661 43.1396 0.493874C43.4529 0.364086 43.7888 0.297285 44.1279 0.297285C44.4671 0.297285 44.8029 0.364086 45.1162 0.493874C45.4296 0.623661 45.7143 0.813894 45.9541 1.05371C46.1939 1.29353 46.3841 1.57823 46.5139 1.89156C46.6437 2.2049 46.7105 2.54073 46.7105 2.87988C46.7105 3.21903 46.6437 3.55486 46.5139 3.8682C46.3841 4.18153 46.1939 4.46624 45.9541 4.70605L25.3291 25.3311C25.0893 25.5709 24.8046 25.7611 24.4912 25.8909C24.1779 26.0207 23.8421 26.0875 23.5029 26.0875C23.1638 26.0875 22.8279 26.0207 22.5146 25.8909C22.2013 25.7611 21.9166 25.5709 21.6768 25.3311C21.4369 25.0912 21.2467 24.8065 21.1169 24.4932C20.9871 24.1799 20.9203 23.844 20.9203 23.5049C20.9203 23.1657 20.9871 22.8299 21.1169 22.5166C21.2467 22.2032 21.4369 21.9185 21.6768 21.6787L26.833 16.5225C25.3797 15.8281 23.746 15.6048 22.1597 15.8837C20.5735 16.1625 19.1138 16.9296 17.9844 18.0779C16.8551 19.2262 16.1124 20.6984 15.86 22.2891C15.6075 23.8798 15.858 25.5096 16.5764 26.9511C17.2948 28.3926 18.4453 29.5739 19.8673 30.3301C21.2893 31.0863 22.9119 31.3797 24.5087 31.1694C26.1055 30.9591 27.5969 30.2555 28.7746 29.1569C29.9523 28.0583 30.7577 26.6194 31.0783 25.041C31.2134 24.3706 31.6092 23.7814 32.1787 23.4028C32.7482 23.0243 33.4448 22.8875 34.1151 23.0226C34.7855 23.1576 35.3748 23.5534 35.7533 24.1229C36.1318 24.6924 36.2686 25.389 36.1336 26.0594C35.5844 28.7646 34.1813 31.2221 32.1309 33.0702C30.0804 34.9183 27.4908 36.0594 24.7432 36.3254C21.9957 36.5915 19.2352 35.9686 16.8682 34.5483C14.5012 33.1281 12.6526 30.9855 11.5946 28.4359C10.5365 25.8863 10.3248 23.0644 10.9906 20.3855C11.6565 17.7066 13.1647 15.3121 15.2933 13.5546C17.4219 11.7971 20.0585 10.7693 22.815 10.6225C25.5716 10.4757 28.3024 11.2176 30.6057 12.7391L34.3074 9.0502C30.8302 6.45328 26.5335 5.19641 22.2049 5.50993C17.8763 5.82345 13.8056 7.68635 10.7389 10.7572C7.67217 13.8281 5.8148 17.9013 5.50715 22.2304C5.1995 26.5594 6.4622 30.8543 9.06383 34.328C11.6655 37.8018 15.4318 40.2216 19.6726 41.1441C23.9133 42.0666 28.3445 41.43 32.1541 39.3509C35.9636 37.2718 38.8964 33.8896 40.4148 29.8239C41.9333 25.7583 41.9358 21.2816 40.4219 17.2143C40.3013 16.8963 40.2449 16.5576 40.2559 16.2177C40.2668 15.8778 40.3449 15.5434 40.4856 15.2338C40.6263 14.9243 40.8269 14.6456 41.0757 14.4138C41.3246 14.1821 41.6168 14.0019 41.9357 13.8835C42.2545 13.7652 42.5936 13.7111 42.9334 13.7244C43.2732 13.7377 43.607 13.8181 43.9156 13.9609C44.2242 14.1038 44.5015 14.3063 44.7315 14.5567C44.9615 14.8072 45.1397 15.1007 45.2559 15.4203V15.4225Z" fill="#33323C"/>
</svg>
