<svg width="55" height="56" viewBox="0 0 55 56" fill="none" xmlns="http://www.w3.org/2000/svg">
<path d="M36.0936 28.3125C33.885 28.3125 31.7495 27.3264 30.078 25.5367C28.4527 23.7911 27.4601 21.4633 27.285 18.984C27.0981 16.3393 27.9049 13.9072 29.5559 12.1348C31.207 10.3623 33.5155 9.40625 36.0936 9.40625C38.6535 9.40625 40.9684 10.3795 42.6141 12.1477C44.276 13.933 45.0848 16.3607 44.8979 18.9829C44.7185 21.4654 43.727 23.7922 42.105 25.5356C40.4378 27.3264 38.3033 28.3125 36.0936 28.3125ZM50.2551 47.2188H21.9333C21.4779 47.2212 21.0281 47.1191 20.6184 46.9204C20.2087 46.7217 19.85 46.4316 19.57 46.0726C19.273 45.6833 19.0679 45.2319 18.97 44.7521C18.8722 44.2723 18.8841 43.7766 19.005 43.3022C19.9094 39.6702 22.1503 36.6581 25.4846 34.5924C28.4441 32.7598 32.2114 31.75 36.0936 31.75C40.0521 31.75 43.7206 32.7168 46.6972 34.5483C50.0391 36.6033 52.2832 39.6326 53.1834 43.3086C53.3028 43.7834 53.3134 44.2791 53.2144 44.7586C53.1155 45.2382 52.9095 45.6891 52.6119 46.0779C52.3322 46.4353 51.9743 46.724 51.5658 46.9217C51.1573 47.1195 50.7089 47.2211 50.2551 47.2188ZM15.7909 28.7422C12.0107 28.7422 8.68709 25.2273 8.37878 20.9079C8.22625 18.695 8.91589 16.6486 10.3124 15.1479C11.6938 13.6623 13.6425 12.8438 15.7909 12.8438C17.9393 12.8438 19.8729 13.6666 21.2619 15.1608C22.6691 16.6733 23.3566 18.7154 23.1955 20.9101C22.8872 25.2284 19.5646 28.7422 15.7909 28.7422ZM22.8442 32.1206C20.9547 31.1968 18.5022 30.7349 15.792 30.7349C12.6273 30.7349 9.55398 31.5599 7.13699 33.0573C4.39666 34.7578 2.5533 37.2339 1.80886 40.2234C1.69992 40.6534 1.68962 41.1025 1.77872 41.5371C1.86783 41.9716 2.05403 42.3804 2.32341 42.7328C2.57902 43.061 2.90648 43.3261 3.28061 43.5079C3.65474 43.6896 4.06558 43.7831 4.48152 43.7812H16.4053C16.6066 43.7812 16.8015 43.7106 16.956 43.5816C17.1105 43.4526 17.2148 43.2735 17.2508 43.0755C17.2626 43.0078 17.2776 42.9401 17.2948 42.8735C18.2057 39.2147 20.3402 36.1231 23.4941 33.8694C23.6101 33.7858 23.7034 33.6746 23.7656 33.5458C23.8277 33.417 23.8567 33.2747 23.85 33.1319C23.8433 32.9891 23.801 32.8502 23.7271 32.7278C23.6531 32.6054 23.5498 32.5034 23.4264 32.4311C23.2578 32.3322 23.0644 32.228 22.8442 32.1206Z" fill="#33323C"/>
</svg>
