<svg width="41" height="56" viewBox="0 0 41 56" fill="none" xmlns="http://www.w3.org/2000/svg">
<path fill-rule="evenodd" clip-rule="evenodd" d="M39.4657 23.5704C38.8424 23.5678 38.2247 23.6888 37.6483 23.9262C37.0719 24.1635 36.5483 24.5127 36.1075 24.9535C35.6667 25.3943 35.3176 25.9179 35.0802 26.4943C34.8428 27.0707 34.7218 27.6884 34.7244 28.3117V34.9686L31.2726 38.4014C31.1356 38.1124 30.9495 37.8493 30.7226 37.6238C30.1868 37.0956 29.4647 36.7996 28.7123 36.7996C27.9599 36.7996 27.2378 37.0956 26.7019 37.6238L20.5002 43.8255L14.2985 37.6238C13.7627 37.0956 13.0405 36.7996 12.2881 36.7996C11.5358 36.7996 10.8136 37.0956 10.2778 37.6238C10.0509 37.8493 9.86485 38.1124 9.7278 38.4014L6.27608 34.9686V28.3117C6.27859 27.6884 6.15766 27.0707 5.92027 26.4943C5.68289 25.9179 5.33373 25.3943 4.89296 24.9535C4.45218 24.5127 3.9285 24.1635 3.35211 23.9262C2.77573 23.6888 2.15805 23.5678 1.5347 23.5704C1.2832 23.5704 1.04201 23.6703 0.86417 23.8481C0.686333 24.0259 0.586426 24.2671 0.586426 24.5186V39.691C0.587417 39.8786 0.639901 40.0623 0.73815 40.2221L8.17263 51.3548V53.9152H7.22436C6.97286 53.9152 6.73166 54.0151 6.55382 54.1929C6.37599 54.3708 6.27608 54.612 6.27608 54.8635C6.27608 55.115 6.37599 55.3562 6.55382 55.534C6.73166 55.7118 6.97286 55.8117 7.22436 55.8117H33.7761C34.0276 55.8117 34.2688 55.7118 34.4466 55.534C34.6245 55.3562 34.7244 55.115 34.7244 54.8635C34.7244 54.612 34.6245 54.3708 34.4466 54.1929C34.2688 54.0151 34.0276 53.9152 33.7761 53.9152H32.8278V51.3548L40.2623 40.2221C40.3605 40.0623 40.413 39.8786 40.414 39.691V24.5186C40.414 24.2671 40.3141 24.0259 40.1363 23.8481C39.9584 23.6703 39.7172 23.5704 39.4657 23.5704ZM19.5519 53.9152H10.0692V51.0704C10.0654 50.8832 10.0132 50.7002 9.91746 50.5393L2.48298 39.4066V25.6376C2.88394 25.773 3.24766 26.0003 3.54505 26.3014C4.07871 26.8344 4.37887 27.5575 4.37953 28.3117V35.3669C4.38291 35.5024 4.41315 35.6359 4.4685 35.7596C4.52384 35.8833 4.60319 35.9948 4.70194 36.0876L14.6778 46.0445C14.7338 46.1114 14.8055 46.1636 14.8864 46.1962C15.0568 46.3006 15.2569 46.3461 15.4557 46.3255C15.6545 46.3049 15.841 46.2195 15.9864 46.0824C16.0771 45.9973 16.1494 45.8945 16.1989 45.7803C16.2483 45.6661 16.2738 45.543 16.2738 45.4186C16.2738 45.2942 16.2483 45.1711 16.1989 45.057C16.1494 44.9428 16.0771 44.84 15.9864 44.7548L11.5864 40.279C11.4277 40.1017 11.3399 39.8721 11.3399 39.6341C11.3384 39.5098 11.3629 39.3865 11.4119 39.2721C11.4609 39.1578 11.5333 39.055 11.6244 38.9704C11.7095 38.8796 11.8123 38.8073 11.9265 38.7579C12.0407 38.7085 12.1637 38.683 12.2881 38.683C12.4126 38.683 12.5356 38.7085 12.6498 38.7579C12.764 38.8073 12.8668 38.8796 12.9519 38.9704L19.0019 45.0014C19.1777 45.1786 19.3168 45.3888 19.4112 45.6198C19.5055 45.8509 19.5534 46.0983 19.5519 46.3479V53.9152ZM38.5175 39.4066L31.083 50.5393C30.9873 50.7002 30.935 50.8832 30.9313 51.0704V53.9152H21.4485V46.329C21.4471 46.0794 21.4949 45.8319 21.5893 45.6009C21.6837 45.3698 21.8227 45.1596 21.9985 44.9824L28.0864 38.9704C28.1716 38.8796 28.2744 38.8073 28.3886 38.7579C28.5027 38.7085 28.6258 38.683 28.7502 38.683C28.8746 38.683 28.9977 38.7085 29.1119 38.7579C29.2261 38.8073 29.3289 38.8796 29.414 38.9704C29.5051 39.055 29.5775 39.1578 29.6265 39.2721C29.6755 39.3865 29.7 39.5098 29.6985 39.6341C29.6979 39.8904 29.5956 40.136 29.414 40.3169L25.014 44.7169C24.9233 44.802 24.851 44.9049 24.8016 45.019C24.7521 45.1332 24.7266 45.2563 24.7266 45.3807C24.7266 45.5051 24.7521 45.6282 24.8016 45.7424C24.851 45.8565 24.9233 45.9594 25.014 46.0445C25.1022 46.1334 25.207 46.2039 25.3226 46.2521C25.4382 46.3002 25.5621 46.325 25.6873 46.325C25.8125 46.325 25.9364 46.3002 26.052 46.2521C26.1675 46.2039 26.2724 46.1334 26.3606 46.0445L36.2985 36.1066C36.4124 36.0202 36.5044 35.9083 36.567 35.7798C36.6296 35.6513 36.6611 35.5098 36.6588 35.3669V28.3117C36.6595 27.5575 36.9597 26.8344 37.4933 26.3014C37.7907 26.0003 38.1544 25.773 38.5554 25.6376L38.5175 39.4066Z" fill="#33323C"/>
<path d="M7.22575 19.7794H3.43265C3.18115 19.7794 2.93995 19.6795 2.76212 19.5016C2.58428 19.3238 2.48438 19.0826 2.48438 18.8311C2.48438 18.5796 2.58428 18.3384 2.76212 18.1606C2.93995 17.9827 3.18115 17.8828 3.43265 17.8828H7.22575C7.47725 17.8828 7.71845 17.9827 7.89629 18.1606C8.07412 18.3384 8.17403 18.5796 8.17403 18.8311C8.17403 19.0826 8.07412 19.3238 7.89629 19.5016C7.71845 19.6795 7.47725 19.7794 7.22575 19.7794Z" fill="#33323C"/>
<path d="M11.1153 10.3927C10.9909 10.3942 10.8676 10.3697 10.7533 10.3207C10.639 10.2717 10.5362 10.1993 10.4515 10.1082L7.75839 7.45301C7.66873 7.36335 7.59761 7.25691 7.54909 7.13976C7.50056 7.02261 7.47559 6.89705 7.47559 6.77025C7.47559 6.64345 7.50056 6.5179 7.54909 6.40075C7.59761 6.2836 7.66873 6.17716 7.75839 6.0875C7.84805 5.99783 7.9545 5.92671 8.07165 5.87819C8.18879 5.82966 8.31435 5.80469 8.44115 5.80469C8.56795 5.80469 8.69351 5.82966 8.81066 5.87819C8.92781 5.92671 9.03425 5.99783 9.12391 6.0875L11.7791 8.7806C11.8698 8.86573 11.9421 8.96856 11.9915 9.08273C12.0409 9.1969 12.0664 9.31998 12.0664 9.44439C12.0664 9.5688 12.0409 9.69189 11.9915 9.80605C11.9421 9.92022 11.8698 10.023 11.7791 10.1082C11.6944 10.1993 11.5916 10.2717 11.4773 10.3207C11.363 10.3697 11.2397 10.3942 11.1153 10.3927Z" fill="#33323C"/>
<path d="M20.4981 6.50216C20.2466 6.50216 20.0054 6.40225 19.8275 6.22441C19.6497 6.04658 19.5498 5.80538 19.5498 5.55388V1.76078C19.5498 1.50928 19.6497 1.26808 19.8275 1.09024C20.0054 0.912407 20.2466 0.8125 20.4981 0.8125C20.7496 0.8125 20.9908 0.912407 21.1686 1.09024C21.3464 1.26808 21.4464 1.50928 21.4464 1.76078V5.55388C21.4464 5.80538 21.3464 6.04658 21.1686 6.22441C20.9908 6.40225 20.7496 6.50216 20.4981 6.50216Z" fill="#33323C"/>
<path d="M29.9829 10.3887C29.8585 10.3903 29.7352 10.3657 29.6209 10.3167C29.5066 10.2677 29.4038 10.1954 29.3191 10.1043C29.2284 10.0191 29.1561 9.91629 29.1067 9.80213C29.0572 9.68796 29.0317 9.56487 29.0317 9.44046C29.0317 9.31606 29.0572 9.19297 29.1067 9.0788C29.1561 8.96463 29.2284 8.86181 29.3191 8.77667L31.8794 6.08357C31.9679 5.99515 32.0728 5.92502 32.1883 5.87717C32.3039 5.82932 32.4277 5.80469 32.5527 5.80469C32.6778 5.80469 32.8016 5.82932 32.9171 5.87717C33.0326 5.92502 33.1376 5.99515 33.226 6.08357C33.3144 6.17198 33.3845 6.27695 33.4324 6.39247C33.4802 6.50799 33.5049 6.63181 33.5049 6.75684C33.5049 6.88188 33.4802 7.0057 33.4324 7.12122C33.3845 7.23674 33.3144 7.3417 33.226 7.43012L30.5519 10.1043C30.4672 10.1954 30.3644 10.2677 30.2501 10.3167C30.1357 10.3657 30.0124 10.3903 29.8881 10.3887H29.9829Z" fill="#33323C"/>
<path d="M37.5685 19.7794H33.7754C33.5239 19.7794 33.2827 19.6795 33.1049 19.5016C32.9271 19.3238 32.8271 19.0826 32.8271 18.8311C32.8271 18.5796 32.9271 18.3384 33.1049 18.1606C33.2827 17.9827 33.5239 17.8828 33.7754 17.8828H37.5685C37.82 17.8828 38.0612 17.9827 38.2391 18.1606C38.4169 18.3384 38.5168 18.5796 38.5168 18.8311C38.5168 19.0826 38.4169 19.3238 38.2391 19.5016C38.0612 19.6795 37.82 19.7794 37.5685 19.7794Z" fill="#33323C"/>
<path d="M30.3426 14.1611L20.8598 10.368C20.6289 10.2732 20.37 10.2732 20.1391 10.368L10.6564 14.1611C10.4817 14.2301 10.332 14.3504 10.2271 14.5061C10.1221 14.6619 10.0668 14.8457 10.0684 15.0335V20.9128C10.0597 23.8457 10.9343 26.7133 12.5783 29.142C14.2223 31.5708 16.5596 33.4484 19.2857 34.5301L20.1581 34.8904C20.3792 34.967 20.6197 34.967 20.8408 34.8904L21.7133 34.5301C24.4394 33.4484 26.7766 31.5708 28.4206 29.142C30.0646 26.7133 30.9392 23.8457 30.9305 20.9128V15.0335C30.9321 14.8457 30.8768 14.6619 30.7719 14.5061C30.6669 14.3504 30.5172 14.2301 30.3426 14.1611ZM24.9564 19.4904L19.2667 25.1801C19.1816 25.2708 19.0787 25.3431 18.9646 25.3925C18.8504 25.4419 18.7273 25.4674 18.6029 25.4674C18.4785 25.4674 18.3554 25.4419 18.2412 25.3925C18.1271 25.3431 18.0242 25.2708 17.9391 25.1801L16.0426 23.2835C15.8665 23.1075 15.7676 22.8687 15.7676 22.6197C15.7676 22.3708 15.8665 22.132 16.0426 21.9559C16.2186 21.7799 16.4574 21.681 16.7064 21.681C16.9553 21.681 17.1941 21.7799 17.3701 21.9559L18.6029 23.1697L23.6288 18.1628C23.7159 18.0757 23.8194 18.0065 23.9333 17.9593C24.0472 17.9122 24.1693 17.8879 24.2926 17.8879C24.4158 17.8879 24.5379 17.9122 24.6518 17.9593C24.7657 18.0065 24.8692 18.0757 24.9564 18.1628C25.0435 18.25 25.1127 18.3535 25.1598 18.4674C25.207 18.5813 25.2313 18.7034 25.2313 18.8266C25.2313 18.9499 25.207 19.072 25.1598 19.1859C25.1127 19.2998 25.0435 19.4033 24.9564 19.4904Z" fill="#33323C"/>
</svg>
