<svg width="34" height="32" viewBox="0 0 34 32" fill="none" xmlns="http://www.w3.org/2000/svg">
<path d="M32.0985 11.7043L33.3726 9.77432C33.5637 9.52529 33.5637 9.21401 33.4363 8.96498C33.3089 8.71595 33.0541 8.52918 32.7355 8.52918H29.4865C29.2317 8.52918 28.9768 8.6537 28.8494 8.90272L27.5116 10.8949H24.6448C24.2625 4.79377 18.9749 0 12.6042 0C5.91506 0 0.5 5.29183 0.5 11.7043C0.5 16.4358 3.4305 20.607 7.76255 22.4125C7.76255 23.7821 7.76255 27.4553 7.76255 28.8249C7.76255 29.2607 8.14479 29.6342 8.59073 29.6342H9.41892V31.1907C9.41892 31.6265 9.80116 32 10.2471 32H15.1525C15.5985 32 15.9807 31.6265 15.9807 31.1907V29.6342H16.6178C17.0637 29.6342 17.4459 29.2607 17.4459 28.8249C17.4459 27.4553 17.4459 23.7821 17.4459 22.4125C21.5232 20.6693 24.3263 16.8716 24.6448 12.5136H27.5116L28.8494 14.5058C28.9768 14.6926 29.2317 14.8794 29.4865 14.8794H32.7355C33.0541 14.8794 33.3089 14.6926 33.4363 14.4436C33.5637 14.1946 33.5637 13.8833 33.3726 13.6342L32.0985 11.7043ZM14.1332 30.3813H10.8842V29.572H14.1332V30.3813ZM15.7896 28.0778C13.8147 28.0778 11.3301 28.0778 9.35521 28.0778V27.2685H15.7896V28.0778ZM15.7896 25.7121H9.35521V24.9027H15.7896V25.7121ZM12.6042 7.84436C10.4382 7.84436 8.52703 9.58755 8.52703 11.7665C8.52703 13.8833 10.3108 15.6887 12.6042 15.6887C14.5154 15.6887 16.1718 14.3191 16.5541 12.5759H18.9749C18.5927 15.6265 15.8533 18.0545 12.6042 18.0545C9.03668 18.0545 6.16988 15.2529 6.16988 11.8288C6.16988 8.40467 9.10039 5.60311 12.6042 5.60311C15.917 5.60311 18.5927 7.96887 18.9749 11.0817H16.5541V10.9572C16.1718 9.21401 14.5791 7.84436 12.6042 7.84436ZM13.3687 12.5136H14.834C14.5154 13.4475 13.6236 14.07 12.6042 14.07C11.2664 14.07 10.1834 13.0117 10.1834 11.7043C10.1834 10.3969 11.2664 9.33852 12.6042 9.33852C13.6236 9.33852 14.5154 9.96109 14.834 10.8949H13.3687C12.9228 10.8949 12.5405 11.2685 12.5405 11.7043C12.5405 12.1401 12.9228 12.5136 13.3687 12.5136ZM12.668 3.85992C8.20849 3.85992 4.64093 7.3463 4.64093 11.642C4.64093 15.9377 8.2722 19.4241 12.668 19.4241C16.8726 19.4241 20.249 16.3735 20.6313 12.3891H22.9884C22.6699 16.3113 19.9942 19.7354 16.2992 21.1673C15.9807 21.2918 15.7896 21.5409 15.7896 21.9144V23.4086H9.41892V21.9144C9.41892 21.6031 9.2278 21.2918 8.90927 21.1673C4.89575 19.6732 2.15637 15.8755 2.15637 11.7043C2.15637 6.10117 6.87066 1.55642 12.668 1.55642C18.1467 1.55642 22.7336 5.66537 23.1158 10.8949H20.695C20.3127 6.97276 16.8089 3.85992 12.668 3.85992ZM29.9324 13.2607L29.4228 12.4514H30.6969L31.2066 13.2607H29.9324ZM30.6969 10.9572H29.4228L29.9324 10.1479H31.2066L30.6969 10.9572Z" fill="#33323C"/>
<path d="M19.8026 24.1558H18.21V25.7122H19.8026V24.1558Z" fill="#33323C"/>
<path d="M19.8026 26.5215H18.21V28.0779H19.8026V26.5215Z" fill="#33323C"/>
<path d="M6.93446 24.1558H5.3418V25.7122H6.93446V24.1558Z" fill="#33323C"/>
<path d="M6.93446 26.5215H5.3418V28.0779H6.93446V26.5215Z" fill="#33323C"/>
</svg>
