<svg width="64" height="65" viewBox="0 0 64 65" fill="none" xmlns="http://www.w3.org/2000/svg">
<rect x="0.24707" y="0.75" width="63.5" height="63.5006" rx="11.75" fill="#F9FAFD" fill-opacity="0.1"/>
<rect x="0.24707" y="0.75" width="63.5" height="63.5006" rx="11.75" stroke="#F9FAFD" stroke-width="0.5"/>
<path d="M51.0668 33.9313C51.0668 24.8132 44.0901 17.4255 35.2529 16.5603C34.7878 16.4937 34.3891 16.8265 34.3227 17.2924C34.2562 17.7583 34.5884 18.1576 35.0536 18.2242C41.4323 18.8232 46.8143 23.2824 48.6748 29.339L46.4157 29.938C44.4888 23.8149 38.4423 19.8215 31.9306 20.6202C31.9306 19.1559 31.9306 14.8298 31.9306 13.3656C31.9306 12.8997 31.532 12.5669 31.1333 12.5004C20.6349 12.4338 12.13 21.2857 11.9971 31.6019C11.9971 32.0678 12.3957 32.4671 12.8609 32.4671C12.9937 32.4671 30.7346 32.4671 31.1333 32.4671C31.5984 32.4671 31.9971 32.0678 31.9971 31.6019V22.2175C37.7114 21.4854 43.0934 24.8797 44.8874 30.2708C43.0934 30.7366 33.3924 33.1992 33.3924 33.1992C33.2595 33.1992 33.2595 33.2658 33.1931 33.2658C33.0602 33.3989 32.9937 33.3989 32.9937 33.4654C32.9273 33.532 32.8609 33.6651 32.7944 33.7982C32.7944 33.8648 32.9273 33.2658 28.9406 49.2391C22.8941 47.3756 18.3758 42.1177 17.7778 35.5287C17.7114 35.1293 17.3127 34.7965 16.8476 34.7965C16.3825 34.8631 16.0502 35.2624 16.1167 35.7283C16.9805 44.7134 24.4888 51.7683 33.8575 51.6351C43.625 51.4355 51.1333 43.3822 51.0668 33.9313ZM30.3359 30.8032H18.0436C18.8409 26.8764 21.1665 23.349 24.4888 21.0195C24.8874 20.7533 24.9539 20.2208 24.6881 19.8881C24.4223 19.4887 23.8908 19.4222 23.5585 19.6884C19.7712 22.3506 17.1798 26.344 16.316 30.8698H13.7246C14.2562 21.9513 21.5652 14.6302 30.3359 14.2308C30.3359 16.294 30.3359 28.74 30.3359 30.8032ZM30.5353 49.6385L33.8575 36.3939L40.0369 48.5736C37.0469 49.9047 33.7246 50.2375 30.5353 49.6385ZM41.4987 47.8415L34.7878 34.5969L45.2861 31.9347C45.419 32.6002 45.4854 33.2658 45.4854 33.9313V33.9979C45.4854 34.0644 45.4854 34.0644 45.4854 34.131C45.4854 34.5969 45.8177 34.9962 46.2828 34.9962C46.7479 34.9962 47.1466 34.5969 47.1466 34.1975V34.131C47.1466 33.3323 47.0801 32.4005 46.8808 31.5353L49.1399 30.9363C50.4688 37.5253 47.4788 44.3806 41.4987 47.8415Z" fill="white"/>
<path d="M23.6914 50.7702H12.9273C12.4622 50.7702 12.0635 51.1695 12.0635 51.6354C12.0635 52.1013 12.4622 52.5006 12.9273 52.5006H23.6914C24.1565 52.5006 24.5552 52.1013 24.5552 51.6354C24.5552 51.1695 24.1565 50.7702 23.6914 50.7702Z" fill="white"/>
<path d="M12.9273 49.9715H17.9107C18.3758 49.9715 18.7745 49.5722 18.7745 49.1063C18.7745 48.6404 18.3758 48.2411 17.9107 48.2411H12.9273C12.4622 48.2411 12.0635 48.6404 12.0635 49.1063C12.0635 49.5722 12.4622 49.9715 12.9273 49.9715Z" fill="white"/>
<path d="M51.1333 50.7702H42.8276C42.3625 50.7702 41.9638 51.1695 41.9638 51.6354C41.9638 52.1013 42.3625 52.5006 42.8276 52.5006H51.1333C51.5984 52.5006 51.9971 52.1013 51.9971 51.6354C51.9306 51.1695 51.532 50.7702 51.1333 50.7702Z" fill="white"/>
<path d="M45.2861 49.1063C45.2861 49.5722 45.6848 49.9715 46.1499 49.9715H51.1333C51.5984 49.9715 51.9971 49.5722 51.9971 49.1063C51.9971 48.6404 51.5984 48.2411 51.1333 48.2411H46.1499C45.6848 48.3076 45.2861 48.6404 45.2861 49.1063Z" fill="white"/>
</svg>
