<svg width="28" height="21" viewBox="0 0 28 21" fill="none" xmlns="http://www.w3.org/2000/svg">
<path d="M27.2353 19.4959H26.6471V0.752066C26.6471 0.347107 26.2941 0 25.8824 0H21.4706C21.0588 0 20.7059 0.347107 20.7059 0.752066V4.33884H16.5294C16.1176 4.33884 15.7647 4.68595 15.7647 5.09091V11.5702H12.2941V6.53719C12.2941 6.13223 11.9412 5.78512 11.5294 5.78512H7.11765C6.70588 5.78512 6.35294 6.13223 6.35294 6.53719V8.67769H2.11765C1.70588 8.67769 1.35294 9.02479 1.35294 9.42975V19.4959H0.764706C0.352941 19.4959 0 19.843 0 20.2479C0 20.6529 0.352941 21 0.764706 21H27.2353C27.6471 21 28 20.6529 28 20.2479C28 19.843 27.6471 19.4959 27.2353 19.4959ZM25.1765 1.44628V19.4959H22.2353V1.44628H25.1765ZM20.7059 5.84298V19.4959H17.2353V5.84298H20.7059ZM15.7647 13.0744V19.4959H12.2353V13.0744H15.7647ZM10.7647 7.23141V19.4959H7.82353V7.23141H10.7647ZM2.82353 10.1818H6.35294V19.4959H2.82353V10.1818Z" fill="#33323C"/>
</svg>
