<svg width="55" height="55" viewBox="0 0 55 55" fill="none" xmlns="http://www.w3.org/2000/svg">
<path fill-rule="evenodd" clip-rule="evenodd" d="M32.7349 13.6532H22.2662C22.2355 13.654 22.2062 13.6666 22.1844 13.6883C22.1627 13.7101 22.1501 13.7394 22.1493 13.7701V24.2388C22.1501 24.2695 22.1627 24.2988 22.1844 24.3205C22.2062 24.3423 22.2355 24.3548 22.2662 24.3556H32.7349C32.7656 24.3548 32.7949 24.3423 32.8166 24.3205C32.8384 24.2988 32.8509 24.2695 32.8517 24.2388V13.7701C32.8509 13.7394 32.8384 13.7101 32.8166 13.6883C32.7949 13.6666 32.7656 13.654 32.7349 13.6532ZM22.2662 12.107H22.9265V9.62711C22.9323 9.42589 23.0162 9.23482 23.1606 9.09452C23.305 8.95421 23.4983 8.87572 23.6997 8.87572C23.901 8.87572 24.0943 8.95421 24.2387 9.09452C24.3831 9.23482 24.467 9.42589 24.4728 9.62711V12.1083H26.7271V9.62711C26.7328 9.42589 26.8168 9.23482 26.9612 9.09452C27.1055 8.95421 27.2989 8.87572 27.5002 8.87572C27.7015 8.87572 27.8949 8.95421 28.0393 9.09452C28.1836 9.23482 28.2676 9.42589 28.2733 9.62711V12.1083H30.5283V9.62711C30.534 9.42589 30.618 9.23482 30.7624 9.09452C30.9067 8.95421 31.1001 8.87572 31.3014 8.87572C31.5027 8.87572 31.6961 8.95421 31.8405 9.09452C31.9848 9.23482 32.0688 9.42589 32.0745 9.62711V12.1083H32.7349C33.1756 12.1093 33.5981 12.2848 33.9098 12.5965C34.2214 12.9081 34.397 13.3306 34.398 13.7714V14.4317H36.4418C36.6431 14.4374 36.8341 14.5214 36.9744 14.6658C37.1147 14.8101 37.1932 15.0035 37.1932 15.2048C37.1932 15.4061 37.1147 15.5995 36.9744 15.7439C36.8341 15.8882 36.6431 15.9722 36.4418 15.9779H34.398V18.2348H36.4418C36.6431 18.2405 36.8341 18.3245 36.9744 18.4688C37.1147 18.6132 37.1932 18.8066 37.1932 19.0079C37.1932 19.2092 37.1147 19.4026 36.9744 19.5469C36.8341 19.6913 36.6431 19.7753 36.4418 19.781H34.398V22.0353H36.4418C36.6431 22.0411 36.8341 22.125 36.9744 22.2694C37.1147 22.4138 37.1932 22.6071 37.1932 22.8085C37.1932 23.0098 37.1147 23.2031 36.9744 23.3475C36.8341 23.4919 36.6431 23.5758 36.4418 23.5816H34.398V24.2419C34.3957 24.6818 34.2195 25.103 33.908 25.4136C33.5965 25.7242 33.1748 25.899 32.7349 25.9H32.0745V27.5084C32.0688 27.7097 31.9848 27.9007 31.8405 28.041C31.6961 28.1813 31.5027 28.2598 31.3014 28.2598C31.1001 28.2598 30.9067 28.1813 30.7624 28.041C30.618 27.9007 30.534 27.7097 30.5283 27.5084V25.9H28.2733V27.5084C28.2676 27.7097 28.1836 27.9007 28.0393 28.041C27.8949 28.1813 27.7015 28.2598 27.5002 28.2598C27.2989 28.2598 27.1055 28.1813 26.9612 28.041C26.8168 27.9007 26.7328 27.7097 26.7271 27.5084V25.9H24.4728V27.5084C24.467 27.7097 24.3831 27.9007 24.2387 28.041C24.0943 28.1813 23.901 28.2598 23.6997 28.2598C23.4983 28.2598 23.305 28.1813 23.1606 28.041C23.0162 27.9007 22.9323 27.7097 22.9265 27.5084V25.9H22.2662C21.8254 25.899 21.403 25.7235 21.0913 25.4118C20.7796 25.1001 20.6041 24.6777 20.6031 24.2369V23.5784H18.5592C18.358 23.5727 18.167 23.4887 18.0267 23.3444C17.8863 23.2 17.8079 23.0066 17.8079 22.8053C17.8079 22.604 17.8863 22.4106 18.0267 22.2663C18.167 22.1219 18.358 22.0379 18.5592 22.0322H20.6031V19.7779H18.5592C18.358 19.7721 18.167 19.6882 18.0267 19.5438C17.8863 19.3994 17.8079 19.2061 17.8079 19.0048C17.8079 18.8034 17.8863 18.6101 18.0267 18.4657C18.167 18.3213 18.358 18.2374 18.5592 18.2316H20.6031V15.9767H18.5592C18.358 15.9709 18.167 15.887 18.0267 15.7426C17.8863 15.5982 17.8079 15.4049 17.8079 15.2036C17.8079 15.0022 17.8863 14.8089 18.0267 14.6645C18.167 14.5201 18.358 14.4362 18.5592 14.4304H20.6031V13.7701C20.6041 13.3293 20.7796 12.9069 21.0913 12.5952C21.403 12.2835 21.8254 12.108 22.2662 12.107ZM41.139 47.4267C41.1387 47.9231 41.0005 48.4097 40.7397 48.8321C40.4789 49.2545 40.1059 49.5962 39.6622 49.8189C39.2186 50.0416 38.7218 50.1367 38.2272 50.0934C37.7327 50.0502 37.2599 49.8704 36.8616 49.574C36.4634 49.2777 36.1553 48.8765 35.9718 48.4152C35.7883 47.9539 35.7366 47.4508 35.8225 46.9618C35.9084 46.4729 36.1285 46.0174 36.4581 45.6463C36.7878 45.2752 37.2142 45.003 37.6896 44.8601V42.8238L32.9567 41.1902C32.7972 41.1426 32.6574 41.0448 32.558 40.9113C32.4586 40.7778 32.405 40.6159 32.405 40.4495V36.047C32.4108 35.8458 32.4947 35.6547 32.6391 35.5144C32.7834 35.3741 32.9768 35.2956 33.1781 35.2956C33.3794 35.2956 33.5728 35.3741 33.7172 35.5144C33.8615 35.6547 33.9455 35.8458 33.9513 36.047V39.8997L38.7106 41.5414C38.8733 41.5972 39.0128 41.7057 39.1069 41.8496C39.201 41.9936 39.2444 42.1648 39.2302 42.3362V44.8601C39.7818 45.0261 40.2654 45.3654 40.6091 45.8276C40.9529 46.2899 41.1387 46.8506 41.139 47.4267ZM30.1796 52.1389C30.1789 52.6348 30.0406 53.1208 29.7799 53.5427C29.5193 53.9646 29.1466 54.3058 28.7035 54.5283C28.2603 54.7509 27.764 54.846 27.27 54.803C26.7759 54.7601 26.3035 54.5808 25.9054 54.2852C25.5072 53.9896 25.199 53.5892 25.0151 53.1286C24.8311 52.6681 24.7786 52.1656 24.8635 51.677C24.9484 51.1884 25.1673 50.733 25.4957 50.3615C25.8242 49.99 26.2494 49.717 26.724 49.5729V36.047C26.7297 35.8458 26.8137 35.6547 26.958 35.5144C27.1024 35.3741 27.2958 35.2956 27.4971 35.2956C27.6984 35.2956 27.8918 35.3741 28.0361 35.5144C28.1805 35.6547 28.2645 35.8458 28.2702 36.047V49.5717C28.8213 49.7381 29.3042 50.0775 29.6474 50.5396C29.9907 51.0017 30.1762 51.562 30.1764 52.1377L30.1796 52.1389ZM19.2202 47.4267C19.2197 47.9228 19.0814 48.409 18.8208 48.831C18.5601 49.2531 18.1873 49.5945 17.744 49.8171C17.3006 50.0397 16.8042 50.1348 16.31 50.0917C15.8158 50.0486 15.3432 49.8691 14.9451 49.5732C14.5469 49.2773 14.2388 48.8766 14.0551 48.4158C13.8713 47.955 13.8192 47.4522 13.9045 46.9635C13.9898 46.4748 14.2092 46.0194 14.5382 45.6481C14.8672 45.2768 15.2929 45.0042 15.7677 44.8607V42.2721C15.7678 42.1058 15.8215 41.9438 15.9208 41.8104C16.0202 41.6769 16.16 41.5791 16.3194 41.5314L21.0498 39.8978V36.047C21.0556 35.8458 21.1395 35.6547 21.2839 35.5144C21.4282 35.3741 21.6216 35.2956 21.8229 35.2956C22.0242 35.2956 22.2176 35.3741 22.362 35.5144C22.5063 35.6547 22.5903 35.8458 22.5961 36.047V40.4501C22.5961 40.6165 22.5425 40.7785 22.4431 40.9119C22.3437 41.0454 22.2039 41.1432 22.0444 41.1908L17.314 42.8244V44.8614C17.865 45.0278 18.3479 45.3671 18.6912 45.8292C19.0345 46.2913 19.22 46.8517 19.2202 47.4273V47.4267ZM34.3037 2.65805C36.1739 4.07802 37.4681 6.12591 37.9478 8.42455C37.9846 8.60824 38.0868 8.77235 38.2354 8.8864C38.384 9.00045 38.5689 9.05669 38.7558 9.04468C40.4559 9.07287 42.0849 9.73111 43.3273 10.8919C43.9173 11.4384 44.3889 12.1 44.7131 12.8359C45.0373 13.5718 45.2072 14.3664 45.2122 15.1706C45.2122 15.2918 45.2122 15.3101 45.2122 15.327C45.2122 15.3565 45.2122 15.4068 45.2053 15.4791C45.1952 15.683 45.2664 15.8825 45.4033 16.034C45.5401 16.1855 45.7315 16.2765 45.9354 16.2871H45.975H46.5674C48.7805 16.2745 50.916 17.1012 52.5438 18.6004C53.3166 19.2927 53.9348 20.1401 54.358 21.0874C54.7812 22.0346 55 23.0605 55 24.098C55 25.1356 54.7812 26.1614 54.358 27.1087C53.9348 28.056 53.3166 28.9034 52.5438 29.5956C50.916 31.0949 48.7805 31.9216 46.5674 31.909H8.43362C6.22061 31.9216 4.08507 31.0949 2.45727 29.5956C1.69131 28.899 1.07764 28.0515 0.65478 27.1064C0.231917 26.1613 0.0089923 25.139 0 24.1037C0.00610784 22.4631 0.558808 20.8713 1.57074 19.58C2.63617 18.2176 4.09279 17.2137 5.74514 16.703C5.92804 16.6462 6.08326 16.5234 6.18059 16.3585C6.27792 16.1936 6.31038 15.9984 6.27166 15.8108C6.23144 15.5984 6.20129 15.3911 6.18244 15.1901C6.16359 14.989 6.15479 14.7842 6.15479 14.5498C6.16071 13.5912 6.36501 12.6441 6.75482 11.7682C7.14463 10.8924 7.71151 10.1067 8.4198 9.46062C9.92985 8.07334 11.9096 7.30999 13.9601 7.32441C14.3807 7.32412 14.8007 7.35499 15.2167 7.41677C15.6275 7.47761 16.033 7.56939 16.43 7.69133C16.6223 7.75074 16.8302 7.73244 17.0092 7.64037C17.1882 7.54829 17.324 7.38976 17.3875 7.19875C18.1092 5.18386 19.4609 3.45507 21.2421 2.26851C23.1921 0.972697 25.4965 0.314546 27.8368 0.385003C30.1771 0.45546 32.4377 1.25105 34.3062 2.66182L34.3037 2.65805Z" fill="#33323C"/>
</svg>
