<svg width="24" height="24" viewBox="0 0 24 24" fill="none" xmlns="http://www.w3.org/2000/svg">
<g clip-path="url(#clip0_89_6379)">
<rect width="24" height="24" rx="12" fill="#33323C"/>
<path d="M12 0C9.62661 0 7.30655 0.703783 5.33316 2.02236C3.35977 3.34094 1.82173 5.21509 0.913477 7.40781C0.00522465 9.60052 -0.232449 12.0133 0.230573 14.3411C0.693596 16.6689 1.83652 18.8071 3.51475 20.4853C5.19298 22.1635 7.33118 23.3064 9.65895 23.7694C11.9867 24.2324 14.3995 23.9948 16.5922 23.0865C18.7849 22.1783 20.6591 20.6402 21.9776 18.6668C23.2962 16.6935 24 14.3734 24 12C23.9969 8.81836 22.7316 5.76791 20.4818 3.51814C18.232 1.26838 15.1816 0.00309951 12 0ZM15.84 12.8781C15.7163 13.1806 15.5331 13.4553 15.3014 13.6859L10.8761 18.1112C10.6581 18.3275 10.3637 18.4494 10.0565 18.4507C9.90246 18.4516 9.74972 18.4221 9.60708 18.3638C9.46444 18.3056 9.33475 18.2197 9.22536 18.1112C9.11563 18.0024 9.02856 17.8729 8.96912 17.7302C8.90968 17.5876 8.87908 17.4345 8.87908 17.28C8.87908 17.1254 8.90968 16.9724 8.96912 16.8298C9.02856 16.6871 9.11563 16.5576 9.22536 16.4488L13.6975 11.918L9.23708 7.5044C9.12638 7.39678 9.03792 7.2684 8.97684 7.12661C8.91575 6.98482 8.88326 6.83238 8.88109 6.67801C8.87891 6.52364 8.90719 6.37036 8.96426 6.22691C9.02133 6.08346 9.10602 5.95264 9.21364 5.84194C9.32126 5.73125 9.44957 5.64284 9.59136 5.58175C9.73314 5.52067 9.88558 5.48812 10.04 5.48595C10.1943 5.48377 10.3477 5.51202 10.4911 5.56909C10.6346 5.62615 10.7654 5.71092 10.8761 5.81854L15.2897 10.1385C15.5286 10.3725 15.7197 10.6509 15.8517 10.9581C15.9733 11.2636 16.0367 11.5892 16.039 11.918C16.0422 12.26 15.9745 12.5988 15.84 12.9132V12.8781Z" fill="white"/>
</g>
<defs>
<clipPath id="clip0_89_6379">
<rect width="24" height="24" rx="12" fill="white"/>
</clipPath>
</defs>
</svg>
