<svg width="35" height="35" viewBox="0 0 35 35" fill="none" xmlns="http://www.w3.org/2000/svg">
<path d="M34.2366 16.7366H32.1812C31.8876 9.16107 25.7802 3.05369 18.2634 2.64262V0.763423C18.2634 0.352349 17.9111 0 17.5 0C17.0889 0 16.7366 0.352349 16.7366 0.763423V2.70134C9.16107 3.05369 3.11242 9.2198 2.81879 16.7953H0.763423C0.352349 16.7953 0 17.1476 0 17.5587C0 17.9698 0.352349 18.3221 0.763423 18.3221H2.81879C3.28859 25.7802 9.27852 31.7114 16.7366 32.1225V34.2366C16.7366 34.6477 17.0889 35 17.5 35C17.9111 35 18.2634 34.6477 18.2634 34.2366V32.005C25.7215 31.6527 31.7114 25.6628 32.1812 18.2634H34.2366C34.6477 18.2634 35 17.9111 35 17.5C35 17.0889 34.6477 16.7366 34.2366 16.7366ZM17.5 30.5956C10.2181 30.5956 4.28691 24.6644 4.28691 17.3825C4.28691 10.1007 10.2181 4.16946 17.5 4.16946C24.7819 4.16946 30.7131 10.1007 30.7131 17.3825C30.7131 24.6644 24.7819 30.5956 17.5 30.5956Z" fill="#33323C"/>
<path d="M17.5 6.34228C11.3926 6.34228 6.45973 11.2752 6.45973 17.3825C6.45973 23.4899 11.4513 28.3641 17.5 28.3641C23.5487 28.3641 28.5403 23.4312 28.5403 17.3825C28.5403 11.3339 23.6074 6.34228 17.5 6.34228ZM17.5587 26.9547C12.2735 26.896 7.98658 22.6091 7.98658 17.3825C7.98658 12.0973 12.2735 7.8104 17.5587 7.8104C22.844 7.8104 27.1309 12.0973 27.1309 17.3825C27.1309 22.6678 22.844 26.9547 17.5587 26.9547Z" fill="#33323C"/>
<path d="M17.5 10.0419C13.448 10.0419 10.1594 13.3305 10.1594 17.3825C10.1594 21.4346 13.448 24.7232 17.5 24.7232C21.552 24.7232 24.8406 21.3758 24.8406 17.3825C24.8406 13.3305 21.552 10.0419 17.5 10.0419ZM17.5 23.255C14.2701 23.255 11.6275 20.6124 11.6275 17.3825C11.6275 14.1527 14.2701 11.5101 17.5 11.5101C20.7299 11.5101 23.3725 14.1527 23.3725 17.3825C23.3725 20.6124 20.7299 23.255 17.5 23.255Z" fill="#33323C"/>
<path d="M17.5 13.6829C15.4446 13.6829 13.8003 15.3272 13.8003 17.3825C13.8003 19.4379 15.4446 21.0822 17.5 21.0822C19.5554 21.0822 21.1997 19.3792 21.1997 17.3825C21.1997 15.3859 19.5554 13.6829 17.5 13.6829ZM17.5 19.5554C16.2668 19.5554 15.3272 18.557 15.3272 17.3825C15.3272 16.1493 16.3255 15.151 17.5587 15.151C18.7919 15.151 19.7903 16.1493 19.7903 17.3825C19.7903 18.6158 18.7332 19.5554 17.5 19.5554Z" fill="#33323C"/>
</svg>
