<svg width="37" height="37" viewBox="0 0 37 37" fill="none" xmlns="http://www.w3.org/2000/svg">
<path d="M0 -0.000244141H37V36.9998H0V-0.000244141Z" fill="white" fill-opacity="0.01"/>
<path fill-rule="evenodd" clip-rule="evenodd" d="M6.16732 9.24967C7.87017 9.24967 9.25065 7.86919 9.25065 6.16634C9.25065 4.46346 7.87017 3.08301 6.16732 3.08301C4.46444 3.08301 3.08398 4.46346 3.08398 6.16634C3.08398 7.86919 4.46444 9.24967 6.16732 9.24967Z" stroke="#33323C" stroke-width="2" stroke-linecap="round" stroke-linejoin="round"/>
<path fill-rule="evenodd" clip-rule="evenodd" d="M7.70898 32.3748C10.2633 32.3748 12.334 30.3041 12.334 27.7498C12.334 25.1954 10.2633 23.1248 7.70898 23.1248C5.15467 23.1248 3.08398 25.1954 3.08398 27.7498C3.08398 30.3041 5.15467 32.3748 7.70898 32.3748Z" stroke="#33323C" stroke-width="2" stroke-linecap="round" stroke-linejoin="round"/>
<path fill-rule="evenodd" clip-rule="evenodd" d="M29.291 33.9165C31.8453 33.9165 33.916 31.8458 33.916 29.2915C33.916 26.7372 31.8453 24.6665 29.291 24.6665C26.7367 24.6665 24.666 26.7372 24.666 29.2915C24.666 31.8458 26.7367 33.9165 29.291 33.9165Z" stroke="#33323C" stroke-width="2" stroke-linecap="round" stroke-linejoin="round"/>
<path fill-rule="evenodd" clip-rule="evenodd" d="M16.9577 21.5831C20.3635 21.5831 23.1243 18.8222 23.1243 15.4164C23.1243 12.0106 20.3635 9.24976 16.9577 9.24976C13.5519 9.24976 10.791 12.0106 10.791 15.4164C10.791 18.8222 13.5519 21.5831 16.9577 21.5831Z" stroke="#33323C" stroke-width="2" stroke-linecap="round" stroke-linejoin="round"/>
<path fill-rule="evenodd" clip-rule="evenodd" d="M26.2083 9.24967C27.9112 9.24967 29.2917 7.86919 29.2917 6.16634C29.2917 4.46346 27.9112 3.08301 26.2083 3.08301C24.5055 3.08301 23.125 4.46346 23.125 6.16634C23.125 7.86919 24.5055 9.24967 26.2083 9.24967Z" stroke="#33323C" stroke-width="2" stroke-linecap="round" stroke-linejoin="round"/>
<path d="M8.47852 8.479L11.5618 11.5623" stroke="#33323C" stroke-width="2" stroke-linecap="round" stroke-linejoin="round"/>
<path d="M23.1257 9.24976L21.584 10.7914" stroke="#33323C" stroke-width="2" stroke-linecap="round" stroke-linejoin="round"/>
<path d="M26.209 25.8228L21.584 20.0415" stroke="#33323C" stroke-width="2" stroke-linecap="round" stroke-linejoin="round"/>
<path d="M10.791 23.8956L13.8743 20.8123" stroke="#33323C" stroke-width="2" stroke-linecap="round" stroke-linejoin="round"/>
</svg>
