<svg width="65" height="65" viewBox="0 0 65 65" fill="none" xmlns="http://www.w3.org/2000/svg">
<rect x="0.24707" y="0.75" width="64.5027" height="63.5" rx="11.75" fill="#F9FAFD" fill-opacity="0.1"/>
<rect x="0.24707" y="0.75" width="64.5027" height="63.5" rx="11.75" stroke="white" stroke-width="0.5"/>
<path d="M32.5835 7.5H32.4106C22.2961 7.58621 13.9971 15.8621 13.9971 25.9483C13.9971 31.9828 16.8499 37.4138 21.4317 40.8621C23.9387 42.6724 25.4083 45.6897 25.4083 48.7069V48.8793C25.4083 49.1379 25.6676 49.3965 25.927 49.3965H26.4457C26.4457 50.6034 26.4457 51.6379 26.4457 52.7586C26.4457 53.8793 27.3102 54.7414 28.434 54.7414H29.1256V55.3448C29.1256 56.5517 30.0765 57.5 31.2868 57.5H33.5345C34.7447 57.5 35.6957 56.5517 35.6957 55.3448V54.7414H36.4737C37.5975 54.7414 38.462 53.8793 38.462 52.7586C38.462 51.5517 38.462 50.5172 38.462 49.3965H39.0672C39.3265 49.3965 39.5859 49.1379 39.5859 48.8793V48.7069C39.5859 45.6897 41.0555 42.6724 43.476 40.8621C47.9714 37.5 50.9971 32.069 50.9971 25.9483C51.17 15.7759 42.8709 7.5 32.5835 7.5ZM34.7447 55.3448C34.7447 55.9483 34.3125 56.3793 33.7073 56.3793H31.4597C30.8545 56.3793 30.4223 55.9483 30.4223 55.3448V54.7414H34.7447V55.3448ZM37.5975 52.7586C37.5975 53.2759 37.1653 53.7069 36.6466 53.7069C33.1022 53.7069 32.1513 53.7069 28.6933 53.7069C28.1746 53.7069 27.7424 53.2759 27.7424 52.7586V52.069H37.5975V52.7586ZM37.5975 51.0345H27.6559V49.3965H37.5111V51.0345H37.5975ZM42.9573 39.9138C40.3639 41.8965 38.7214 45 38.6349 48.2759C33.2751 48.2759 28.0017 48.2759 26.6186 48.2759C26.5321 45.0862 24.8896 41.8965 22.2097 39.9138C17.8008 36.6379 15.1209 31.4655 15.2074 25.8621C15.2074 16.3793 22.9877 8.53448 32.5835 8.53448H32.67C42.2658 8.53448 50.1326 16.3793 50.1326 25.9483C50.0461 31.4655 47.4527 36.6379 42.9573 39.9138Z" fill="white"/>
<path d="M32.4971 12.3276C25.0625 12.4138 19.0111 18.3621 19.0111 25.8621C19.0111 30.0862 20.9994 34.2241 24.5438 36.8103C26.2728 38.1035 27.3966 40.1724 27.3966 42.4138V42.5C27.3966 42.7586 27.6559 43.0172 27.9153 43.0172C28.1746 43.0172 28.434 42.7586 28.434 42.5V42.4138C28.434 39.9138 27.2237 37.4138 25.1489 35.9483C21.8639 33.5345 20.0485 29.8276 20.0485 25.8621C20.0485 19.0517 25.6676 13.4483 32.4971 13.4483C39.5859 13.4483 45.1186 19.1379 45.1186 25.9483C45.1186 29.8276 43.2167 33.6207 40.0181 35.9483C38.0298 37.4138 36.8195 39.8276 36.8195 42.4138V42.5C36.8195 42.7586 37.0788 43.0172 37.3382 43.0172C37.5975 43.0172 37.8569 42.7586 37.8569 42.5V42.4138C37.8569 40.2586 38.8943 38.1897 40.6232 36.8103C44.0812 34.3103 46.1559 30.1724 46.1559 25.8621C46.2424 18.3621 40.1045 12.2414 32.4971 12.3276Z" fill="white"/>
<path d="M37.2517 35.2586L38.462 34.569C38.7214 34.3966 38.8078 34.1379 38.7214 33.8793L37.8569 31.7241C38.0298 31.5517 38.2891 31.3793 38.462 31.1207L40.6232 31.9828C40.8826 32.069 41.1419 31.9828 41.3148 31.7241L42.0064 30.5172C42.1793 30.2586 42.0929 30 41.8335 29.8276L40.0181 28.3621C40.1045 28.1034 40.191 27.8448 40.191 27.5862L42.5251 27.2414C42.7845 27.2414 42.9574 26.9828 42.9574 26.7241V25.3448C42.9574 25.0862 42.7845 24.8276 42.5251 24.8276L40.191 24.4828C40.1045 24.2241 40.1045 23.9655 40.0181 23.7069L41.8335 22.2414C42.0064 22.069 42.0929 21.8103 42.0064 21.5517L41.3148 20.3448C41.1419 20.0862 40.8826 20 40.6232 20.0862L38.462 20.9483C38.2891 20.7759 38.1162 20.5172 37.8569 20.3448L38.7214 18.1897C38.8078 17.931 38.7214 17.6724 38.462 17.5L37.2517 16.8103C36.9924 16.6379 36.7331 16.7241 36.5602 16.9828L35.0905 18.7931C34.8312 18.7069 34.5718 18.6207 34.3125 18.6207L33.9667 16.1207C33.9667 15.8621 33.7074 15.6897 33.448 15.6897H32.0648C31.8055 15.6897 31.5461 15.8621 31.5461 16.1207L31.2003 18.4483C30.941 18.5345 30.6817 18.5345 30.4223 18.6207L28.9527 16.8103C28.7798 16.6379 28.5204 16.5517 28.2611 16.6379L26.9644 17.4138C26.705 17.5862 26.6186 17.8448 26.705 18.1034L27.5695 20.2586C27.3966 20.431 27.1373 20.6034 26.9644 20.8621L24.8896 20C24.6302 19.9138 24.3709 20 24.198 20.2586L23.5064 21.4655C23.3335 21.7241 23.42 21.9828 23.6793 22.1552L25.4947 23.6207C25.4083 23.8793 25.3218 24.1379 25.3218 24.3966L22.9877 24.7414C22.7284 24.7414 22.5555 25 22.5555 25.2586V26.6379C22.5555 26.8966 22.7284 27.1552 22.9877 27.1552L25.3218 27.5C25.4083 27.7586 25.4083 28.0172 25.4947 28.2759L23.6793 29.7414C23.5064 29.9138 23.42 30.1724 23.5064 30.431L24.198 31.6379C24.3709 31.8966 24.6302 31.9828 24.8896 31.8966L27.0508 31.0345C27.2237 31.2069 27.3966 31.4655 27.6559 31.6379L26.7915 33.7931C26.705 34.0517 26.7915 34.3103 27.0508 34.4828L28.2611 35.1724C28.5204 35.3448 28.7798 35.2586 28.9527 35L30.4223 33.3621C30.6817 33.4483 30.941 33.5345 31.2003 33.5345L31.5461 35.8621C31.5461 36.1207 31.8055 36.2931 32.0648 36.2931H33.448C33.7074 36.2931 33.9667 36.1207 33.9667 35.8621L34.3125 33.5345C34.5718 33.4483 34.8312 33.4483 35.0905 33.3621L36.5602 35.1724C36.7331 35.3448 36.9924 35.431 37.2517 35.2586ZM35.6957 32.3276C35.5228 32.1552 35.2634 32.069 35.0905 32.1552C34.6583 32.3276 34.226 32.4138 33.7073 32.5C33.448 32.5 33.2751 32.7586 33.2751 32.931L32.9293 35.1724H32.4971L32.1513 32.931C32.1513 32.6724 31.8919 32.5 31.719 32.5C31.2868 32.4138 30.7681 32.3276 30.3359 32.1552C30.0765 32.069 29.9036 32.1552 29.7307 32.3276L28.3475 34.0517L27.8288 33.7931L28.6069 31.7241C28.6933 31.4655 28.6069 31.2931 28.434 31.1207C28.0882 30.8621 27.7424 30.5172 27.4831 30.1724C27.3102 30 27.0508 29.9138 26.8779 30L24.8031 30.8621L24.5438 30.431L26.2728 29.0517C26.4457 28.8793 26.5321 28.6207 26.4457 28.4483C26.2728 28.0172 26.1863 27.5862 26.0999 27.069C26.0999 26.8103 25.8405 26.6379 25.6676 26.6379L23.42 26.2931V25.8621L25.6676 25.5172C25.927 25.5172 26.0999 25.2586 26.0999 25.0862C26.1863 24.6552 26.2728 24.1379 26.4457 23.7069C26.5321 23.4483 26.4457 23.2759 26.2728 23.1034L24.5438 21.7241L24.8031 21.2931L26.8779 22.069C27.1373 22.1552 27.3102 22.069 27.4831 21.8966C27.7424 21.5517 28.0882 21.2069 28.434 20.9483C28.6069 20.7759 28.6933 20.5172 28.6069 20.3448L27.8288 18.1034L28.2611 17.8448L29.6443 19.569C29.8172 19.7414 30.0765 19.8276 30.2494 19.7414C30.6817 19.569 31.1139 19.4828 31.6326 19.3966C31.8919 19.3966 32.0648 19.1379 32.0648 18.9655L32.4106 16.7241H32.8429L33.1887 18.9655C33.1887 19.2241 33.448 19.3966 33.6209 19.3966C34.0531 19.4828 34.5718 19.569 35.0041 19.7414C35.2634 19.8276 35.4363 19.7414 35.6092 19.569L36.9924 17.8448L37.4246 18.1034L36.5602 20.1724C36.4737 20.431 36.5602 20.6034 36.7331 20.7759C37.0788 21.0345 37.4246 21.3793 37.684 21.7241C37.8569 21.8966 38.1162 21.9828 38.2891 21.8966L40.3639 21.1207L40.6232 21.5517L39.0672 23.0172C38.8943 23.1897 38.8078 23.4483 38.8943 23.6207C39.0672 24.0517 39.1536 24.4828 39.2401 25C39.2401 25.2586 39.4994 25.431 39.6723 25.431L41.92 25.7759V26.2069L39.6723 26.5517C39.413 26.5517 39.2401 26.8103 39.2401 26.9828C39.1536 27.4138 39.0672 27.931 38.8943 28.3621C38.8078 28.6207 38.8943 28.7931 39.0672 28.9655L40.7961 30.3448L40.5368 30.7759L38.462 30C38.2027 29.9138 38.0298 30 37.8569 30.1724C37.5975 30.5172 37.2517 30.8621 36.9059 31.1207C36.7331 31.2931 36.6466 31.5517 36.7331 31.7241L37.5111 33.7931L37.0788 34.0517L35.6957 32.3276Z" fill="white"/>
<path d="M32.7564 21.2931C30.2494 21.2931 28.1746 23.3621 28.1746 25.8621C28.1746 28.3621 30.2494 30.431 32.7564 30.431C35.2634 30.431 37.3382 28.3621 37.3382 25.8621C37.4246 23.4483 35.2634 21.2931 32.7564 21.2931ZM32.7564 29.569C30.7681 29.569 29.212 28.0172 29.212 26.0345C29.212 24.0517 30.7681 22.5 32.7564 22.5C34.7447 22.5 36.3008 24.0517 36.3008 26.0345C36.3008 27.931 34.6583 29.569 32.7564 29.569Z" fill="white"/>
<path d="M32.7564 23.5345C31.3732 23.5345 30.3359 24.6552 30.3359 25.9483C30.3359 27.2414 31.4597 28.3621 32.7564 28.3621C34.1396 28.3621 35.177 27.2414 35.177 25.9483C35.177 24.6552 34.0531 23.5345 32.7564 23.5345ZM32.7564 27.4138C31.9784 27.4138 31.3732 26.8103 31.3732 26.0345C31.3732 25.2586 31.9784 24.6552 32.7564 24.6552C33.5345 24.6552 34.1396 25.2586 34.1396 26.0345C34.1396 26.7241 33.448 27.4138 32.7564 27.4138Z" fill="white"/>
</svg>
