<svg width="60" height="60" viewBox="0 0 60 60" fill="none" xmlns="http://www.w3.org/2000/svg">
<circle cx="30" cy="30" r="30" fill="#FCFBB3"/>
<path d="M45.5332 41.2673L40.0665 35.8007C40.5998 34.4673 40.3332 32.734 39.1332 31.6673C37.9332 30.4673 36.1998 30.2007 34.7332 30.8673L37.2665 33.4007L35.3998 35.2673L32.7332 32.6007C32.0665 34.0673 32.3332 35.8007 33.5332 37.134C34.7332 38.334 36.3332 38.6007 37.6665 38.0673L43.1332 43.534C43.3998 43.8007 43.7998 43.8007 43.9332 43.534L45.2665 42.2007C45.6665 41.8007 45.6665 41.4007 45.5332 41.2673ZM32.3332 39.6673H17.6665V37.0007C17.6665 34.0673 22.4665 31.6673 28.3332 31.6673C28.9998 31.6673 29.6665 31.6673 30.1998 31.8007C29.7998 32.6007 29.6665 33.4007 29.6665 34.334C29.6665 36.4673 30.7332 38.4673 32.3332 39.6673ZM28.3332 18.334C25.3998 18.334 22.9998 20.734 22.9998 23.6673C22.9998 26.6007 25.3998 29.0007 28.3332 29.0007C31.2665 29.0007 33.6665 26.6007 33.6665 23.6673C33.6665 20.734 31.2665 18.334 28.3332 18.334Z" fill="#33323C"/>
</svg>
