<svg width="60" height="60" viewBox="0 0 60 60" fill="none" xmlns="http://www.w3.org/2000/svg">
<circle cx="30" cy="30" r="30" fill="#FCFBB3"/>
<path d="M26 14C23.7333 14 22 15.7333 22 18C22 20.2667 23.7333 22 26 22C27.7333 22 29.2 20.9333 29.7333 19.3333H32.6667V22H35.3333V19.3333H38V16.6667H29.7333C29.2 15.0667 27.7333 14 26 14ZM26 16.6667C26.8 16.6667 27.3333 17.2 27.3333 18C27.3333 18.8 26.8 19.3333 26 19.3333C25.2 19.3333 24.6667 18.8 24.6667 18C24.6667 17.2 25.2 16.6667 26 16.6667ZM22.6667 24.6667C21.7333 24.6667 21.0667 25.2 20.8 26L18 34V44.6667C18 45.4667 18.5333 46 19.3333 46H20.6667C21.4667 46 22 45.4667 22 44.6667V43.3333H38V44.6667C38 45.4667 38.5333 46 39.3333 46H40.6667C41.4667 46 42 45.4667 42 44.6667V34L39.2 26C38.9333 25.2 38.1333 24.6667 37.3333 24.6667H22.6667ZM22.6667 26.6667H37.3333L39.3333 32.6667H20.6667L22.6667 26.6667ZM22.6667 35.3333C23.7333 35.3333 24.6667 36.2667 24.6667 37.3333C24.6667 38.4 23.7333 39.3333 22.6667 39.3333C21.6 39.3333 20.6667 38.4 20.6667 37.3333C20.6667 36.2667 21.6 35.3333 22.6667 35.3333ZM37.3333 35.3333C38.4 35.3333 39.3333 36.2667 39.3333 37.3333C39.3333 38.4 38.4 39.3333 37.3333 39.3333C36.2667 39.3333 35.3333 38.4 35.3333 37.3333C35.3333 36.2667 36.2667 35.3333 37.3333 35.3333Z" fill="#33323C"/>
</svg>
