<svg width="60" height="60" viewBox="0 0 60 60" fill="none" xmlns="http://www.w3.org/2000/svg">
<circle cx="30" cy="30" r="30" fill="#FCFBB3"/>
<path d="M27.72 40.3327H22V41.666C22 42.3327 21.4667 42.9993 20.6667 42.9993H19.3333C18.6667 42.9993 18 42.3327 18 41.666V30.9993L20.8 22.9993C21.0667 22.1993 21.7333 21.666 22.6667 21.666H37.3333C38.1333 21.666 38.9333 22.1993 39.2 22.9993L41.88 30.6527C40.8879 29.5622 39.6356 28.7411 38.24 28.266L36.8 24.3327H23.0667L21.7333 28.3327H32.5467C31.0533 28.866 29.7467 29.7993 28.7733 30.9993H20.6667V37.666H26.9067C27.04 38.6127 27.3333 39.506 27.72 40.3327ZM22 34.3327C22 35.3993 22.9333 36.3327 24 36.3327C25.0667 36.3327 26 35.3993 26 34.3327C26 33.266 25.0667 32.3327 24 32.3327C22.9333 32.3327 22 33.266 22 34.3327ZM35.48 30.4793C32.1467 30.4793 29.48 33.146 29.48 36.4794C29.48 39.8127 32.1467 42.4794 35.48 42.4794C36.6667 42.4794 37.7333 42.146 38.6667 41.5727L42.8133 45.666L44.6667 43.8127L40.56 39.666C41.1467 38.7593 41.48 37.666 41.48 36.4794C41.48 33.146 38.8133 30.4793 35.48 30.4793ZM35.48 33.146C37.3333 33.146 38.8133 34.6393 38.8133 36.4794C38.8133 38.3194 37.3333 39.8127 35.48 39.8127C33.6267 39.8127 32.1467 38.3327 32.1467 36.4794C32.1467 34.626 33.64 33.146 35.48 33.146Z" fill="#33323C"/>
</svg>
