<svg width="24" height="24" viewBox="0 0 24 24" fill="none" xmlns="http://www.w3.org/2000/svg">
<path d="M17.3536 7.64645C17.1583 7.45118 16.8417 7.45118 16.6464 7.64645C16.4512 7.84171 16.4512 8.15829 16.6464 8.35355L17.3536 7.64645ZM21 12L21.3536 12.3536C21.5488 12.1583 21.5488 11.8417 21.3536 11.6464L21 12ZM16.6464 15.6464C16.4512 15.8417 16.4512 16.1583 16.6464 16.3536C16.8417 16.5488 17.1583 16.5488 17.3536 16.3536L16.6464 15.6464ZM3 11.5C2.72386 11.5 2.5 11.7239 2.5 12C2.5 12.2761 2.72386 12.5 3 12.5L3 11.5ZM16.6464 8.35355L20.6464 12.3536L21.3536 11.6464L17.3536 7.64645L16.6464 8.35355ZM20.6464 11.6464L16.6464 15.6464L17.3536 16.3536L21.3536 12.3536L20.6464 11.6464ZM21 11.5L3 11.5L3 12.5L21 12.5V11.5Z" fill="#2C74F7"/>
</svg>
