<svg width="55" height="55" viewBox="0 0 55 55" fill="none" xmlns="http://www.w3.org/2000/svg">
<path d="M54.523 10.8869L45.2235 0.565552C44.8414 0.141388 44.4592 0 44.077 0H10.9556C10.5734 0 10.0638 0.282776 9.80905 0.565552L0.509561 10.8869C1.78814e-07 11.4524 -0.12739 12.1594 0.12739 12.8663C0.25478 13.1491 0.382171 13.2905 0.509561 13.4319L26.115 54.0103C26.2424 54.1517 26.3698 54.4344 26.4972 54.5758C26.4972 54.5758 26.4972 54.5758 26.6246 54.7172L26.7519 54.8586L26.8793 55H27.0067C27.1341 55 27.2615 55 27.3889 55C27.8985 55 28.408 54.7172 28.6628 54.2931L54.3956 13.4319C54.523 13.2905 54.6504 13.1491 54.7778 12.8663C55.16 12.1594 55.0326 11.4524 54.523 10.8869ZM38.0897 3.67609L28.7902 9.47301C28.7902 6.50385 28.7902 4.66581 28.9176 3.67609H38.0897ZM28.7902 13.9974H37.9623L28.9176 43.4062C28.7902 35.0643 28.7902 22.9049 28.7902 13.9974ZM25.8602 4.94859C25.8602 6.07969 25.8602 7.49357 25.8602 9.19023L16.8155 3.67609H25.8602C25.8602 4.10026 25.8602 4.38303 25.8602 4.94859ZM25.9876 42.6992L17.0703 13.9974H25.8602C25.8602 22.6221 25.8602 34.3573 25.9876 42.6992ZM13.6308 13.9974L22.2933 41.8509L4.58605 13.9974H13.6308ZM41.4018 13.9974H50.4465L32.7393 41.9923L41.4018 13.9974ZM40.7649 10.4627C40.3827 10.3213 40.1279 10.3213 39.8731 10.4627H33.7584L43.9496 4.10026L49.5548 10.4627H40.7649ZM11.0829 4.24164L21.2742 10.4627H5.47778L11.0829 4.24164Z" fill="#33323C"/>
</svg>
