<svg width="124" height="16" viewBox="0 0 124 16" fill="none" xmlns="http://www.w3.org/2000/svg">
<g clip-path="url(#clip0_1390_1403)">
<path d="M13.4021 0.325261C13.3341 0.326687 13.2656 0.329731 13.1969 0.334092L9.83159 12.1567C9.64986 12.7971 8.96792 13.333 8.32161 13.333H7.02994L9.06353 6.19733C9.09359 6.08901 8.97748 6.00944 8.89139 6.08485C5.89897 8.6682 2.28764 12.4404 0.028976 15.2939C-0.0284131 15.3679 0.00159316 15.4776 0.0999743 15.4776H8.90366C12.6162 15.4776 14.648 14.3245 15.3845 11.5657C15.9843 9.31962 14.8121 7.78669 12.9402 7.39178C12.906 7.38493 12.8759 7.32164 12.9402 7.3093C14.5238 7.0378 16.121 6.39764 16.6908 4.07893C17.2878 1.64804 15.5125 0.281148 13.4021 0.325261ZM75.7891 2.01784C72.6751 2.01784 70.9945 3.24371 70.3905 5.59396C70.2238 6.23842 70.2854 7.29013 70.6694 7.94831C71.5248 9.41824 73.7902 9.60194 75.0432 10.4754C75.5884 10.8552 75.6047 11.3682 75.4598 11.9318C75.1783 13.0287 74.629 13.5512 73.5373 13.5512C72.4865 13.5512 71.8568 12.9382 72.4567 11.0172H69.1213C67.7849 14.2244 69.527 15.6766 73.0769 15.6766C76.3166 15.6766 78.1148 14.9044 78.8854 11.9138C79.1492 10.8923 78.9796 9.79 78.3538 9.10713C77.1418 7.78529 74.8124 7.5383 73.9939 6.7718C73.5771 6.38238 73.5811 5.83661 73.7014 5.36765C73.9241 4.50654 74.5007 4.03769 75.4353 4.03769C76.9001 4.03769 76.9369 4.94131 76.5775 6.01496H79.7189C80.4581 3.77441 79.4894 2.01784 75.7891 2.01784ZM55.0526 2.12631C50.4602 2.12631 49.2112 3.09829 47.7314 8.84227C46.3527 14.1913 46.8064 15.6107 51.7706 15.6107C54.1249 15.6107 55.1114 15.4366 56.5447 15.1747L58.205 8.92181H54.6646V8.92044L53.4853 13.27C53.2366 13.2933 52.9252 13.3303 52.4415 13.3303C50.1268 13.3303 50.3851 12.6309 51.3607 8.84223C52.3759 4.90276 52.9662 4.18442 54.4119 4.18442C55.8015 4.18442 55.8138 5.12497 55.4599 6.31381H58.988C59.5605 4.09383 59.1778 2.12631 55.0526 2.12631ZM96.6201 2.12898C92.6466 2.12898 90.9235 2.83784 89.3617 8.89583C88.0103 14.1421 89.0938 15.6613 93.1329 15.6613C97.2444 15.6613 98.8678 14.8126 100.391 8.89583C101.495 4.61218 101.271 2.12898 96.6201 2.12898ZM108.45 2.28538C105.729 2.28538 104.464 2.34427 103.721 2.31136L100.428 15.0829C100.372 15.3009 100.499 15.4776 100.711 15.4776H103.869L106.729 4.37915C107.02 4.37778 107.464 4.35317 107.912 4.35317C109.445 4.35317 109.647 4.90021 109.243 6.47024L107.022 15.0829C106.966 15.3009 107.093 15.4776 107.307 15.4776H110.463L112.785 6.47024C113.588 3.34938 112.223 2.28538 108.45 2.28538ZM19.41 2.31002L16.1184 15.0812C16.0624 15.2993 16.1895 15.4763 16.4026 15.4763H19.559L22.4188 4.37781C22.7249 4.37644 23.0158 4.36415 23.7428 4.36415C24.9589 4.36415 25.4099 5.11831 25.1476 6.13574C24.8019 7.47404 23.7676 8.22683 22.5378 8.22683H22.0732L23.3876 14.5986C23.5433 15.2212 23.855 15.4763 24.5655 15.4763H27.3843L26.1601 10.1985C26.0426 9.80494 25.9142 9.5197 25.7283 9.28523C25.7051 9.25506 25.6982 9.21404 25.7419 9.20033C27.2504 8.73275 28.237 7.7771 28.6551 6.1577C29.2072 4.01588 27.8613 2.31002 24.4617 2.31002L19.41 2.31002ZM37.6366 2.31002L34.3463 15.0812C34.2902 15.2993 34.4173 15.4763 34.6305 15.4763H38.8375C44.1228 15.4763 45.0137 14.4616 46.4635 8.83691C47.722 3.94856 46.9457 2.31002 42.36 2.31002H37.6366ZM81.1101 2.31002L80.5649 4.44905H84.0724C84.108 4.44905 84.1079 4.49293 84.0751 4.51761C83.5149 4.94131 83.1731 5.54465 83.0105 6.17404L80.7095 15.0829C80.6535 15.3009 80.782 15.4776 80.9938 15.4776H84.3826L87.2301 4.45039H88.9669C89.9412 4.45039 90.5341 4.04054 90.8634 3.18765L91.1954 2.31136H81.1101V2.31002ZM31.6324 2.31139L28.3408 15.0829C28.2847 15.3009 28.4118 15.4776 28.625 15.4776H31.9604L35.2534 2.70615C35.3094 2.48813 35.1823 2.31139 34.9692 2.31139H31.6324ZM64.5206 2.31139C62.2428 2.31139 61.5582 2.72009 60.6728 6.15907L59.0427 12.4487C58.5412 14.5603 59.1668 15.4776 60.8857 15.4776H65.6246C66.5579 15.4776 67.1591 14.98 67.4474 14.2162L67.8355 13.2111H63.0789C62.6184 13.2111 62.4586 13.0699 62.5446 12.6969L63.3453 9.55147H68.065L68.5966 7.4877H63.8756L64.4125 5.39098C64.5532 4.8425 64.9413 4.37651 65.701 4.37651H69.4805L70.0121 2.31139H64.5206ZM118.508 2.31139C116.229 2.31139 115.545 2.72009 114.659 6.15907L113.029 12.4487C112.528 14.5603 113.153 15.4776 114.871 15.4776H119.611C120.544 15.4776 121.144 14.98 121.434 14.2162L121.823 13.2111H117.065C116.606 13.2111 116.445 13.0699 116.531 12.6969L117.332 9.55147H122.052L122.584 7.4877H117.863L118.399 5.39098C118.541 4.8425 118.929 4.37651 119.689 4.37651H123.467L124 2.31139H118.508ZM96.0912 4.18448C97.6052 4.18448 97.7719 5.00307 96.7949 8.79034C95.8289 12.5433 94.8737 13.4484 93.7027 13.4484C92.1873 13.4484 91.9632 12.8944 93.0195 8.79034C93.8994 5.37603 94.7398 4.18448 96.0912 4.18448ZM41.7753 4.36552C43.8235 4.36552 43.8209 5.04552 42.8425 8.83827C41.856 12.6763 41.2808 13.2288 39.3336 13.2288H38.3649L40.6453 4.37918C40.9391 4.37781 41.0484 4.36552 41.7753 4.36552Z" fill="#231815"/>
<path d="M2.06336 8.99373L4.11843 1.75925C4.31656 1.01468 5.1364 0.335938 5.96444 0.335938H12.2499C12.3551 0.335938 12.3893 0.474429 12.3073 0.530649C9.03885 2.77531 5.09814 6.1046 2.23963 9.08697C2.16721 9.16513 2.03466 9.10205 2.06336 8.99373Z" fill="#E60012"/>
</g>
<defs>
<clipPath id="clip0_1390_1403">
<rect width="124" height="15.3524" fill="white" transform="translate(0 0.324219)"/>
</clipPath>
</defs>
</svg>
