<svg width="33" height="33" viewBox="0 0 33 33" fill="none" xmlns="http://www.w3.org/2000/svg">
<path d="M0 -0.000244141H33V32.9998H0V-0.000244141Z" fill="white" fill-opacity="0.01"/>
<path d="M4.125 5.49976H6.875" stroke="#33323C" stroke-width="2" stroke-linecap="round" stroke-linejoin="round"/>
<path d="M9.625 10.9995H12.375" stroke="#33323C" stroke-width="2" stroke-linecap="round" stroke-linejoin="round"/>
<path d="M11 4.12476V6.87476" stroke="#33323C" stroke-width="2" stroke-linecap="round" stroke-linejoin="round"/>
<path d="M5.5 9.62476V12.3748" stroke="#33323C" stroke-width="2" stroke-linecap="round" stroke-linejoin="round"/>
<path d="M15.125 5.49976H17.875" stroke="#33323C" stroke-width="2" stroke-linecap="round" stroke-linejoin="round"/>
<path d="M20.625 10.9995H23.375" stroke="#33323C" stroke-width="2" stroke-linecap="round" stroke-linejoin="round"/>
<path d="M22 4.12476V6.87476" stroke="#33323C" stroke-width="2" stroke-linecap="round" stroke-linejoin="round"/>
<path d="M16.5 9.62476V12.3748" stroke="#33323C" stroke-width="2" stroke-linecap="round" stroke-linejoin="round"/>
<path d="M26.125 5.49976H28.875" stroke="#33323C" stroke-width="2" stroke-linecap="round" stroke-linejoin="round"/>
<path d="M27.5 9.62476V12.3748" stroke="#33323C" stroke-width="2" stroke-linecap="round" stroke-linejoin="round"/>
<path d="M4.125 16.4998H6.875" stroke="#33323C" stroke-width="2" stroke-linecap="round" stroke-linejoin="round"/>
<path d="M9.625 21.9998H12.375" stroke="#33323C" stroke-width="2" stroke-linecap="round" stroke-linejoin="round"/>
<path d="M11 15.1248V17.8748" stroke="#33323C" stroke-width="2" stroke-linecap="round" stroke-linejoin="round"/>
<path d="M5.5 20.6245V23.3745" stroke="#33323C" stroke-width="2" stroke-linecap="round" stroke-linejoin="round"/>
<path d="M15.125 16.4998H17.875" stroke="#33323C" stroke-width="2" stroke-linecap="round" stroke-linejoin="round"/>
<path d="M20.625 21.9998H23.375" stroke="#33323C" stroke-width="2" stroke-linecap="round" stroke-linejoin="round"/>
<path d="M22 15.1248V17.8748" stroke="#33323C" stroke-width="2" stroke-linecap="round" stroke-linejoin="round"/>
<path d="M16.5 20.6245V23.3745" stroke="#33323C" stroke-width="2" stroke-linecap="round" stroke-linejoin="round"/>
<path d="M26.125 16.4998H28.875" stroke="#33323C" stroke-width="2" stroke-linecap="round" stroke-linejoin="round"/>
<path d="M27.5 20.6245V23.3745" stroke="#33323C" stroke-width="2" stroke-linecap="round" stroke-linejoin="round"/>
<path d="M4.125 27.4998H6.875" stroke="#33323C" stroke-width="2" stroke-linecap="round" stroke-linejoin="round"/>
<path d="M11 26.1248V28.8748" stroke="#33323C" stroke-width="2" stroke-linecap="round" stroke-linejoin="round"/>
<path d="M15.125 27.4998H17.875" stroke="#33323C" stroke-width="2" stroke-linecap="round" stroke-linejoin="round"/>
<path d="M22 26.1248V28.8748" stroke="#33323C" stroke-width="2" stroke-linecap="round" stroke-linejoin="round"/>
<path d="M26.125 27.4998H28.875" stroke="#33323C" stroke-width="2" stroke-linecap="round" stroke-linejoin="round"/>
</svg>
