<svg width="53" height="56" viewBox="0 0 53 56" fill="none" xmlns="http://www.w3.org/2000/svg">
<path fill-rule="evenodd" clip-rule="evenodd" d="M43.9655 37.2878C43.5136 37.1005 43.0455 36.9546 42.567 36.852C42.4357 36.8304 42.3141 36.7699 42.2178 36.6783C42.1216 36.5867 42.0554 36.4683 42.0278 36.3386L41.6255 34.4548L40.0366 34.4695L39.6779 36.3233C39.6534 36.4511 39.5914 36.5689 39.4998 36.6616C39.4082 36.7544 39.2911 36.8181 39.1633 36.8447C38.1875 37.0482 37.2579 37.43 36.4216 37.9708C36.314 38.0434 36.1872 38.0829 36.0573 38.0842C35.9273 38.0855 35.7998 38.0486 35.6907 37.9781L34.0668 36.9285L32.9521 38.0608L33.9839 39.5791C34.0718 39.6876 34.123 39.821 34.1299 39.9602C34.1369 40.0995 34.0993 40.2373 34.0226 40.3539C33.4767 41.1843 33.09 42.1083 32.8821 43.0792C32.8575 43.2067 32.7958 43.3242 32.7046 43.4169C32.6133 43.5097 32.4967 43.5736 32.3693 43.6006L30.4764 44.0015L30.4917 45.5816L32.3539 45.9391C32.4821 45.9636 32.6001 46.0254 32.6931 46.1167C32.7861 46.2079 32.8499 46.3246 32.8766 46.4519C33.0811 47.4234 33.4647 48.3487 34.0079 49.1808C34.081 49.2881 34.1207 49.4145 34.122 49.5442C34.1233 49.6738 34.0862 49.801 34.0152 49.9097L32.9619 51.5248L34.0963 52.6325L35.6686 51.5725C35.7761 51.5003 35.9026 51.4612 36.0322 51.4601C36.1618 51.459 36.2889 51.496 36.3976 51.5664C37.229 52.1065 38.1526 52.4904 39.1227 52.6992C39.2539 52.7209 39.3755 52.7815 39.4716 52.8731C39.5677 52.9647 39.6339 53.083 39.6614 53.2127L40.0643 55.0964L41.6531 55.0818L42.0118 53.228C42.0365 53.1003 42.0985 52.9827 42.1901 52.89C42.2817 52.7973 42.3987 52.7337 42.5265 52.7072C43.5023 52.5037 44.4319 52.1219 45.2682 51.5811C45.3758 51.5082 45.5027 51.4687 45.6328 51.4674C45.7629 51.4661 45.8905 51.5031 45.9997 51.5738L47.6241 52.6264L48.7383 51.4954L47.7058 49.977C47.6174 49.8682 47.566 49.7342 47.5592 49.5943C47.5523 49.4545 47.5904 49.3161 47.6678 49.1992C48.2137 48.3686 48.6005 47.4444 48.8083 46.4733C48.8335 46.3465 48.8955 46.2298 48.9867 46.1377C49.0779 46.0457 49.1941 45.9824 49.3211 45.9556L51.2134 45.5547L51.198 43.9745L49.3359 43.6171C49.2077 43.5926 49.0897 43.5308 48.9966 43.4395C48.9036 43.3482 48.8398 43.2316 48.8132 43.1043C48.6092 42.1327 48.2258 41.2073 47.6825 40.3753C47.6093 40.2681 47.5695 40.1418 47.5681 40.0121C47.5666 39.8824 47.6037 39.7552 47.6745 39.6465L48.7284 38.0302L47.5941 36.9224L46.0218 37.9824C45.9143 38.0546 45.7878 38.0937 45.6582 38.0948C45.5285 38.0959 45.4014 38.059 45.2927 37.9885C44.8731 37.7158 44.429 37.4824 43.9661 37.2915L43.9655 37.2878ZM43.129 10.3634C43.167 10.2844 43.2204 10.2137 43.2862 10.1556C43.3519 10.0974 43.4286 10.0529 43.5118 10.0246C43.595 9.9964 43.6831 9.98498 43.7708 9.99105C43.8585 9.99713 43.9441 10.0206 44.0226 10.06C44.1011 10.0995 44.1709 10.1541 44.2279 10.2208C44.2849 10.2875 44.328 10.3648 44.3547 10.4483C44.3813 10.5318 44.391 10.6197 44.3831 10.707C44.3753 10.7942 44.35 10.879 44.3088 10.9564L42.6395 14.2453C42.5606 14.4013 42.4227 14.5196 42.2562 14.5743C42.0897 14.629 41.9082 14.6156 41.7517 14.5369C41.5952 14.4583 41.4764 14.3209 41.4215 14.155C41.3666 13.9891 41.3801 13.8083 41.459 13.6523L43.129 10.3634ZM48.495 29.65C48.4108 29.6297 48.3313 29.593 48.2613 29.5421C48.1912 29.4911 48.1319 29.427 48.0867 29.3532C48.0416 29.2794 48.0114 29.1975 47.998 29.1122C47.9846 29.0268 47.9882 28.9396 48.0086 28.8556C48.0498 28.686 48.157 28.5397 48.3065 28.4488C48.3805 28.4037 48.4627 28.3737 48.5484 28.3604C48.6341 28.347 48.7215 28.3506 48.8058 28.3709L52.287 29.2161C52.3744 29.233 52.4576 29.2674 52.5313 29.3172C52.6051 29.367 52.668 29.4311 52.7162 29.5058C52.7645 29.5804 52.797 29.664 52.812 29.7516C52.8269 29.8391 52.8239 29.9287 52.8032 30.0151C52.7824 30.1014 52.7444 30.1827 52.6913 30.254C52.6382 30.3253 52.5712 30.3851 52.4942 30.4299C52.4173 30.4747 52.3321 30.5036 52.2437 30.5147C52.1553 30.5258 52.0656 30.5189 51.9799 30.4946L48.4981 29.65H48.495ZM46.8368 20.8941C46.758 20.9335 46.6722 20.9569 46.5843 20.9629C46.4963 20.9688 46.4081 20.9572 46.3247 20.9287C46.2414 20.9003 46.1646 20.8555 46.0988 20.797C46.033 20.7386 45.9796 20.6676 45.9417 20.5884C45.9038 20.5091 45.8822 20.4231 45.8781 20.3353C45.874 20.2476 45.8875 20.16 45.9178 20.0775C45.9482 19.9951 45.9947 19.9195 46.0547 19.8552C46.1148 19.7909 46.1871 19.7392 46.2674 19.7031L49.073 18.3714C49.2316 18.2962 49.4136 18.2868 49.5791 18.3453C49.7447 18.4039 49.8801 18.5255 49.9556 18.6835C50.0311 18.8416 50.0405 19.023 49.9817 19.1879C49.923 19.3528 49.8009 19.4878 49.6423 19.563L46.838 20.8941H46.8368ZM41.3522 27.8832L44.9924 35.991C45.0482 36.1153 45.0952 36.2433 45.1331 36.3741C44.9169 36.2647 44.6968 36.1627 44.4728 36.0681C44.0703 35.9016 43.6565 35.7634 43.2346 35.6544L42.8047 33.6525C42.7732 33.5042 42.6912 33.3714 42.5727 33.2764C42.4542 33.1814 42.3064 33.13 42.1543 33.1311L39.9813 33.1519L30.8209 12.749C30.6981 12.4852 30.6234 12.2017 30.6004 11.9117C30.6348 11.7988 30.6378 11.6786 30.609 11.5641C30.6462 11.2344 30.7847 10.9242 31.0058 10.6761C31.1657 10.4976 31.3614 10.3545 31.5803 10.2561C31.7992 10.1578 32.0364 10.1063 32.2765 10.1051C32.643 10.1226 32.9959 10.2492 33.2894 10.4686C33.583 10.688 33.8037 10.9901 33.9231 11.3359L41.3258 27.8244C41.3338 27.8446 41.3424 27.8636 41.3522 27.8856V27.8832ZM42.1543 26.4474C42.4846 26.0084 42.7126 25.5017 42.8219 24.9639C43.0061 24.0591 42.8986 23.1194 42.5148 22.2791C42.1455 21.438 41.5175 20.7357 40.7214 20.2735C40.2462 19.9994 39.7151 19.8354 39.1676 19.7937L42.1543 26.4462V26.4474ZM19.9457 41.9402L23.6695 50.2341C23.7587 50.4964 23.9246 50.7261 24.1459 50.8936C24.3672 51.0611 24.6338 51.1588 24.9113 51.1741C25.0915 51.1731 25.2695 51.1344 25.4338 51.0606C25.5981 50.9868 25.745 50.8796 25.8651 50.7457C26.0425 50.5267 26.1499 50.2597 26.1734 49.9792C26.1969 49.6987 26.1356 49.4176 25.9972 49.1723L22.2771 40.8858L19.9433 41.9408L19.9457 41.9402ZM25.4162 38.1024L19.506 24.9376C21.9024 23.3911 24.0629 21.5088 25.921 19.3488C27.4383 17.635 28.7445 15.7466 29.8118 13.7239L38.8212 33.7914L38.4613 35.6562C37.6184 35.8742 36.8101 36.2076 36.0592 36.647L34.3463 35.5424C34.2183 35.4541 34.0632 35.4137 33.9083 35.4283C33.7533 35.4428 33.6085 35.5114 33.4993 35.6219L32.1248 37.0167C30.892 37.0726 29.6636 37.2026 28.4465 37.4059C27.4223 37.5764 26.4095 37.809 25.4137 38.1024H25.4162ZM15.5605 41.7903L15.547 41.764L10.2338 29.9285C10.2288 29.849 10.2094 29.771 10.1766 29.6984L10.1717 29.688C10.1671 29.5991 10.1811 29.5104 10.2129 29.4272C10.2709 29.2728 10.3879 29.1476 10.5384 29.079L18.3347 25.5514L24.1817 38.5761C21.5831 39.7517 18.9305 40.9017 16.3546 42.1177C16.2461 42.1598 16.128 42.1706 16.0136 42.1489C15.8993 42.1273 15.7933 42.0741 15.7079 41.9953C15.6728 41.9176 15.6229 41.8474 15.5611 41.7885L15.5605 41.7903ZM9.20501 30.8599L8.04728 31.3838C7.78424 31.5082 7.55054 31.6865 7.3615 31.9071C7.17246 32.1278 7.03236 32.3857 6.95037 32.6641C6.75552 33.3005 6.80163 33.9859 7.07996 34.5907L9.99914 41.092L10.0077 41.1104C10.2731 41.7092 10.7497 42.1903 11.3473 42.4623C11.6073 42.5838 11.8901 42.6492 12.1772 42.6543C12.4644 42.6593 12.7493 42.6039 13.0135 42.4916L14.1878 41.9604L9.20501 30.8599ZM14.4402 3.08484C13.9613 2.88706 13.4653 2.73342 12.9582 2.62584C12.827 2.60415 12.7053 2.54356 12.6091 2.45197C12.513 2.36038 12.4467 2.24204 12.419 2.11237L11.9891 0.0964355L10.2571 0.11296L9.87261 2.0934C9.84816 2.22111 9.78628 2.33874 9.69479 2.43143C9.6033 2.52413 9.48629 2.58773 9.35855 2.61421C8.32533 2.8299 7.34118 3.23453 6.45596 3.80762C6.34839 3.88042 6.22166 3.91995 6.09163 3.92126C5.96161 3.92256 5.8341 3.88559 5.72509 3.81496L3.98881 2.69255L2.77766 3.92573L3.91573 5.60078C3.98821 5.70789 4.02745 5.8339 4.02854 5.96308C4.02964 6.09227 3.99253 6.21892 3.92187 6.32723C3.34463 7.20864 2.93531 8.1885 2.7144 9.21771C2.68984 9.34524 2.62809 9.46273 2.53687 9.55547C2.44566 9.64821 2.32902 9.7121 2.20156 9.73914L0.178467 10.1675L0.19505 11.8934L2.18621 12.2759C2.3145 12.3003 2.43266 12.3621 2.52578 12.4534C2.6189 12.5446 2.68282 12.6613 2.70948 12.7887C2.81752 13.3041 2.97358 13.8084 3.17564 14.2949C3.37628 14.778 3.62093 15.2418 3.90651 15.6805C3.97957 15.7876 4.01925 15.9139 4.02056 16.0435C4.02187 16.173 3.98476 16.3001 3.91388 16.4087L2.7838 18.1407L4.02136 19.35L5.70236 18.2166C5.80991 18.1445 5.93634 18.1055 6.06595 18.1044C6.19556 18.1033 6.32264 18.1402 6.43139 18.2105C7.31188 18.7831 8.29026 19.1901 9.31801 19.4112C9.44922 19.4329 9.57082 19.4934 9.66692 19.5851C9.76301 19.6767 9.82914 19.795 9.85665 19.9247L10.2866 21.9406L12.0192 21.9241L12.403 19.94C12.4277 19.8123 12.4897 19.6947 12.5813 19.602C12.6729 19.5093 12.7899 19.4457 12.9177 19.4192C13.9506 19.203 14.9345 18.7984 15.8197 18.2258C15.9273 18.1529 16.0542 18.1134 16.1843 18.112C16.3144 18.1107 16.4421 18.1477 16.5512 18.2184L18.2868 19.3408L19.5017 18.1095L18.3845 16.4644C18.3025 16.3565 18.2559 16.226 18.2511 16.0908C18.2462 15.9555 18.2834 15.8221 18.3575 15.7086C18.9316 14.831 19.3398 13.8562 19.5618 12.8322C19.5837 12.7015 19.6445 12.5804 19.7364 12.4846C19.8283 12.3889 19.9471 12.323 20.0771 12.2955L22.1039 11.8671L22.0867 10.1406L20.0956 9.75811C19.9674 9.73355 19.8494 9.67175 19.7564 9.58049C19.6634 9.48923 19.5995 9.37259 19.5729 9.24525C19.3566 8.21595 18.9507 7.2355 18.3759 6.35354C18.3027 6.24633 18.2629 6.11997 18.2614 5.9903C18.26 5.86063 18.2971 5.73343 18.3679 5.62465L19.4949 3.89513L18.2549 2.68704L16.5739 3.82108C16.4664 3.89331 16.3399 3.93241 16.2103 3.9335C16.0807 3.93459 15.9536 3.89762 15.8449 3.8272C15.4007 3.53696 14.9305 3.28844 14.4402 3.08484ZM11.0789 4.79845C12.5228 4.78522 13.9267 5.27126 15.0513 6.17378C16.176 7.07629 16.9518 8.33943 17.2466 9.74801C17.5414 11.1566 17.337 12.6235 16.6682 13.8987C15.9994 15.174 14.9076 16.1787 13.5788 16.7418C12.2499 17.3048 10.7662 17.3913 9.38054 16.9866C7.99484 16.5819 6.79283 15.7109 5.97928 14.5221C5.16574 13.3334 4.791 11.9003 4.91891 10.467C5.04681 9.03379 5.66945 7.68908 6.68074 6.66199C7.25452 6.07801 7.93844 5.61276 8.6932 5.29295C9.44797 4.97314 10.2587 4.80509 11.0789 4.79845ZM40.7951 38.8441C42.3735 38.8304 43.8928 39.4414 45.0194 40.543C46.1461 41.6445 46.788 43.1466 46.8042 44.7193V44.7248C46.8173 46.2979 46.203 47.8117 45.0963 48.9335C43.9896 50.0553 42.4812 50.6933 40.9026 50.7072H40.8977C39.3191 50.7218 37.7993 50.1111 36.6725 49.0093C35.5458 47.9076 34.9043 46.4049 34.8892 44.8319V44.827C34.876 43.2542 35.49 41.7406 36.5963 40.6187C37.7025 39.4968 39.2106 38.8585 40.789 38.8441H40.7939H40.7951Z" fill="#33323C"/>
</svg>
