<svg width="24" height="24" viewBox="0 0 24 24" fill="none" xmlns="http://www.w3.org/2000/svg">
<g clip-path="url(#clip0_89_6419)">
<rect width="24" height="24" rx="12" fill="#101011"/>
<path d="M12.0001 0C9.62668 0 7.30655 0.703783 5.33316 2.02236C3.35977 3.34094 1.82173 5.21509 0.913476 7.40781C0.00522465 9.60052 -0.232449 12.0133 0.230573 14.3411C0.693596 16.6689 1.83652 18.8071 3.51475 20.4853C5.19298 22.1635 7.33118 23.3064 9.65895 23.7694C11.9867 24.2324 14.3995 23.9948 16.5922 23.0865C18.785 22.1783 20.6591 20.6402 21.9776 18.6668C23.2962 16.6935 24.0001 14.3734 24.0001 12C23.997 8.81835 22.7316 5.76791 20.4819 3.51814C18.2321 1.26838 15.1817 0.00309951 12.0001 0ZM17.9356 9.7639L11.6488 16.0507C11.4354 16.2754 11.1758 16.4512 10.8878 16.5658C10.3056 16.7996 9.65552 16.7996 9.07323 16.5658C8.78804 16.4461 8.52937 16.271 8.31222 16.0507L5.19811 12.9366C5.08838 12.8278 5.00123 12.6983 4.9418 12.5556C4.88236 12.4129 4.85176 12.2599 4.85176 12.1054C4.85176 11.9508 4.88236 11.7978 4.9418 11.6551C5.00123 11.5125 5.08838 11.383 5.19811 11.2742C5.41746 11.0561 5.71413 10.9337 6.02342 10.9337C6.33271 10.9337 6.62946 11.0561 6.84881 11.2742L9.97464 14.4L16.2732 8.11316C16.382 8.00343 16.5115 7.91634 16.6542 7.8569C16.7969 7.79747 16.9499 7.76687 17.1044 7.76687C17.259 7.76687 17.412 7.79747 17.5547 7.8569C17.6973 7.91634 17.8268 8.00343 17.9356 8.11316C18.1432 8.33089 18.259 8.62016 18.259 8.92097C18.259 9.22178 18.1432 9.51105 17.9356 9.72878V9.7639Z" fill="white"/>
</g>
<defs>
<clipPath id="clip0_89_6419">
<rect width="24" height="24" rx="12" fill="white"/>
</clipPath>
</defs>
</svg>
