<svg width="24" height="24" viewBox="0 0 24 24" fill="none" xmlns="http://www.w3.org/2000/svg">
<g clip-path="url(#clip0_89_6452)">
<rect width="24" height="24" rx="12" fill="#F7603B"/>
<path d="M12.0001 0C9.62669 0 7.30663 0.7038 5.33324 2.02237C3.35986 3.34095 1.82167 5.21507 0.913422 7.40778C0.00517161 9.60049 -0.232431 12.0133 0.230591 14.3411C0.693613 16.6688 1.83647 18.807 3.5147 20.4852C5.19292 22.1635 7.33112 23.3064 9.65888 23.7694C11.9867 24.2324 14.3995 23.9948 16.5922 23.0865C18.7849 22.1783 20.6591 20.6402 21.9777 18.6668C23.2963 16.6934 24 14.3734 24 12C23.9969 8.81834 22.7316 5.76792 20.4819 3.51816C18.2321 1.26839 15.1817 0.00309951 12.0001 0ZM17.4673 15.8049C17.577 15.9137 17.6642 16.0432 17.7237 16.1859C17.7831 16.3285 17.8137 16.4815 17.8137 16.6361C17.8137 16.7906 17.7831 16.9436 17.7237 17.0863C17.6642 17.229 17.577 17.3585 17.4673 17.4673C17.3584 17.577 17.2289 17.6641 17.0863 17.7235C16.9436 17.783 16.7907 17.8136 16.6361 17.8136C16.4816 17.8136 16.3286 17.783 16.1859 17.7235C16.0433 17.6641 15.9138 17.577 15.8049 17.4673L12.0001 13.6624L8.19519 17.4673C7.97473 17.6862 7.67626 17.8086 7.36559 17.8075C7.05492 17.8064 6.75746 17.6819 6.53856 17.4615C6.31966 17.241 6.19733 16.9426 6.19843 16.632C6.19953 16.3213 6.32396 16.0238 6.54442 15.8049L10.3493 12L6.54442 8.19511C6.42186 8.09016 6.32229 7.961 6.25202 7.81575C6.18175 7.67051 6.14235 7.51231 6.13612 7.35108C6.12989 7.18984 6.15701 7.02906 6.21586 6.87883C6.27472 6.72859 6.36401 6.59216 6.47811 6.47807C6.5922 6.36397 6.7286 6.27468 6.87883 6.21582C7.02906 6.15697 7.18992 6.12982 7.35115 6.13604C7.51238 6.14227 7.67051 6.18175 7.81576 6.25202C7.961 6.32229 8.09023 6.42182 8.19519 6.54438L12.0001 10.3492L15.8049 6.54438C15.9138 6.43465 16.0433 6.34757 16.1859 6.28814C16.3286 6.2287 16.4816 6.19807 16.6361 6.19807C16.7907 6.19807 16.9436 6.2287 17.0863 6.28814C17.2289 6.34757 17.3584 6.43465 17.4673 6.54438C17.6853 6.76373 17.8078 7.06047 17.8078 7.36976C17.8078 7.67905 17.6853 7.97576 17.4673 8.19511L13.6624 12L17.4673 15.8049Z" fill="white"/>
</g>
<defs>
<clipPath id="clip0_89_6452">
<rect width="24" height="24" rx="12" fill="white"/>
</clipPath>
</defs>
</svg>
