<svg width="24" height="24" viewBox="0 0 24 24" fill="none" xmlns="http://www.w3.org/2000/svg">
<path d="M22.533 4.78332L23.2599 4.59855C23.1718 4.25203 22.8514 4.01587 22.4943 4.03432L22.533 4.78332ZM11.9999 1L12.5051 0.445672C12.2188 0.184779 11.781 0.184776 11.4947 0.445664L11.9999 1ZM1.46705 4.78317L1.50573 4.03417C1.14868 4.01573 0.82825 4.25188 0.740165 4.59839L1.46705 4.78317ZM12 23L11.8099 23.7255C11.9345 23.7582 12.0655 23.7582 12.1901 23.7255L12 23ZM8.86843 11.7444C8.5782 11.4488 8.10334 11.4446 7.80782 11.7348C7.51229 12.025 7.508 12.4999 7.79823 12.7954L8.86843 11.7444ZM10.7778 14.7589L10.2427 15.2844C10.3837 15.428 10.5765 15.5089 10.7778 15.5089C10.979 15.5089 11.1719 15.428 11.3129 15.2844L10.7778 14.7589ZM16.2018 10.3064C16.492 10.0109 16.4877 9.536 16.1922 9.24577C15.8967 8.95553 15.4218 8.95982 15.1316 9.25535L16.2018 10.3064ZM22.4943 4.03432C22.257 4.04657 22.0182 4.05277 21.7778 4.05277V5.55277C22.044 5.55277 22.3087 5.5459 22.5717 5.53232L22.4943 4.03432ZM21.7778 4.05277C18.217 4.05277 14.9684 2.69065 12.5051 0.445672L11.4947 1.55433C14.221 4.03898 17.8256 5.55277 21.7778 5.55277V4.05277ZM11.4947 0.445664C9.03142 2.69056 5.78289 4.05262 2.22222 4.05262V5.55262C6.17427 5.55262 9.77881 4.03889 12.5051 1.55434L11.4947 0.445664ZM2.22222 4.05262C1.98185 4.05262 1.74297 4.04642 1.50573 4.03417L1.42837 5.53217C1.69136 5.54575 1.95604 5.55262 2.22222 5.55262V4.05262ZM0.740165 4.59839C0.420074 5.85757 0.25 7.17732 0.25 8.53636H1.75C1.75 7.30286 1.90432 6.10722 2.19393 4.96795L0.740165 4.59839ZM0.25 8.53636C0.25 15.8361 5.15421 21.9812 11.8099 23.7255L12.1901 22.2745C6.19413 20.7031 1.75 15.1541 1.75 8.53636H0.25ZM12.1901 23.7255C18.8458 21.9812 23.75 15.8361 23.75 8.53636H22.25C22.25 15.1541 17.8059 20.7031 11.8099 22.2745L12.1901 23.7255ZM23.75 8.53636C23.75 7.17737 23.5799 5.85767 23.2599 4.59855L21.8061 4.96809C22.0957 6.10732 22.25 7.30291 22.25 8.53636H23.75ZM7.79823 12.7954L10.2427 15.2844L11.3129 14.2334L8.86843 11.7444L7.79823 12.7954ZM11.3129 15.2844L16.2018 10.3064L15.1316 9.25535L10.2427 14.2334L11.3129 15.2844Z" fill="#101011"/>
</svg>
