<svg width="29" height="36" viewBox="0 0 29 36" fill="none" xmlns="http://www.w3.org/2000/svg">
<path d="M17.1617 0.874756H17.1616C16.8015 0.874756 16.5223 1.16949 16.5223 1.51808C16.5223 1.69702 16.5898 1.85585 16.7119 1.97896L16.8007 1.89091L16.7119 1.97896L19.7919 5.0827L14.4996 10.4158L12.7475 8.6502C12.1184 8.01631 11.301 7.70391 10.475 7.70391C9.64898 7.70391 8.83154 8.01631 8.2025 8.6502L1.06468 15.8431C0.942509 15.9662 0.875 16.1341 0.875 16.2949V23.7333C0.875 24.0938 1.16611 24.3766 1.51436 24.3766C1.70619 24.3766 1.8822 24.2866 2.0022 24.1557L10.4755 15.518L12.2181 17.2741C12.8471 17.908 13.6646 18.2204 14.4906 18.2204C15.3166 18.2204 16.134 17.908 16.7631 17.2741L24.3265 9.65228L27.3871 12.7365C27.6421 12.9934 28.0466 12.9963 28.2955 12.7456C28.4288 12.6112 28.495 12.4232 28.4851 12.2447V1.52717C28.4851 1.16663 28.194 0.883849 27.8458 0.883849H27.8457H27.8456H27.8455H27.8454H27.8452H27.8451H27.845H27.8449H27.8448H27.8447H27.8446H27.8445H27.8444H27.8443H27.8442H27.8441H27.844H27.8439H27.8438H27.8437H27.8436H27.8435H27.8434H27.8433H27.8432H27.8431H27.843H27.8429H27.8428H27.8427H27.8426H27.8425H27.8424H27.8423H27.8422H27.8421H27.842H27.8419H27.8418H27.8417H27.8416H27.8415H27.8414H27.8413H27.8412H27.8411H27.841H27.8409H27.8408H27.8407H27.8406H27.8405H27.8404H27.8403H27.8403H27.8402H27.8401H27.84H27.8399H27.8398H27.8397H27.8396H27.8395H27.8394H27.8393H27.8392H27.8391H27.839H27.8389H27.8388H27.8387H27.8386H27.8386H27.8385H27.8384H27.8383H27.8382H27.8381H27.838H27.8379H27.8378H27.8377H27.8376H27.8375H27.8375H27.8374H27.8373H27.8372H27.8371H27.837H27.8369H27.8368H27.8367H27.8366H27.8365H27.8365H27.8364H27.8363H27.8362H27.8361H27.836H27.8359H27.8358H27.8357H27.8357H27.8356H27.8355H27.8354H27.8353H27.8352H27.8351H27.835H27.835H27.8349H27.8348H27.8347H27.8346H27.8345H27.8344H27.8343H27.8343H27.8342H27.8341H27.834H27.8339H27.8338H27.8337H27.8337H27.8336H27.8335H27.8334H27.8333H27.8332H27.8331H27.8331H27.833H27.8329H27.8328H27.8327H27.8326H27.8325H27.8325H27.8324H27.8323H27.8322H27.8321H27.832H27.832H27.8319H27.8318H27.8317H27.8316H27.8315H27.8314H27.8314H27.8313H27.8312H27.8311H27.831H27.8309H27.8309H27.8308H27.8307H27.8306H27.8305H27.8305H27.8304H27.8303H27.8302H27.8301H27.83H27.83H27.8299H27.8298H27.8297H27.8296H27.8295H27.8295H27.8294H27.8293H27.8292H27.8291H27.8291H27.829H27.8289H27.8288H27.8287H27.8287H27.8286H27.8285H27.8284H27.8283H27.8282H27.8282H27.8281H27.828H27.8279H27.8278H27.8278H27.8277H27.8276H27.8275H27.8274H27.8274H27.8273H27.8272H27.8271H27.827H27.827H27.8269H27.8268H27.8267H27.8266H27.8266H27.8265H27.8264H27.8263H27.8262H27.8262H27.8261H27.826H27.8259H27.8258H27.8258H27.8257H27.8256H27.8255H27.8254H27.8254H27.8253H27.8252H27.8251H27.825H27.825H27.8249H27.8248H27.8247H27.8246H27.8246H27.8245H27.8244H27.8243H27.8242H27.8242H27.8241H27.824H27.8239H27.8239H27.8238H27.8237H27.8236H27.8235H27.8235H27.8234H27.8233H27.8232H27.8231H27.8231H27.823H27.8229H27.8228H27.8227H27.8227H27.8226H27.8225H27.8224H27.8223H27.8223H27.8222H27.8221H27.822H27.8219H27.8219H27.8218H27.8217H27.8216H27.8216H27.8215H27.8214H27.8213H27.8212H27.8212H27.8211H27.821H27.8209H27.8208H27.8208H27.8207H27.8206H27.8205H27.8204H27.8204H27.8203H27.8202H27.8201H27.82H27.82H27.8199H27.8198H27.8197H27.8196H27.8196H27.8195H27.8194H27.8193H27.8192H27.8192H27.8191H27.819H27.8189H27.8188H27.8188H27.8187H27.8186H27.8185H27.8184H27.8183H27.8183H27.8182H27.8181H27.818H27.8179H27.8179H27.8178H27.8177H27.8176H27.8175H27.8175H27.8174H27.8173H27.8172H27.8171H27.817H27.817H27.8169H27.8168H27.8167H27.8166H27.8166H27.8165H27.8164H27.8163H27.8162H27.8161H27.8161H27.816H27.8159H27.8158H27.8157H27.8156H27.8156H27.8155H27.8154H27.8153H27.8152H27.8152H27.8151H27.815H27.8149H27.8148H27.8147H27.8146H27.8146H27.8145H27.8144H27.8143H27.8142H27.8141H27.8141H27.814H27.8139H27.8138H27.8137H27.8136H27.8136H27.8135H27.8134H27.8133H27.8132H27.8131H27.813H27.813H27.8129H27.8128H27.8127H27.8126H27.8125H27.8124H27.8124H27.8123H27.8122H27.8121H27.812H27.8119H27.8118H27.8117H27.8117H27.8116H27.8115H27.8114H27.8113H27.8112H27.8111H27.811H27.811H27.8109H27.8108H27.8107H27.8106H27.8105H27.8104H27.8103H27.8102H27.8102H27.8101H27.81H27.8099H27.8098H27.8097H27.8096H27.8095H27.8094H27.8093H27.8093H27.8092H27.8091H27.809H27.8089H27.8088H27.8087H27.8086H27.8085H27.8084H27.8083H27.8082H27.8082H27.8081H27.808H27.8079H27.8078H27.8077H27.8076H27.8075H27.8074H27.8073H27.8072H27.8071H27.807H27.8069H27.8068H27.8068H27.8067H27.8066H27.8065H27.8064H27.8063H27.8062H27.8061H27.806H27.8059H27.8058H27.8057H27.8056H27.8055H27.8054H27.8053H27.8052H27.8051H27.805H27.8049H27.8048H27.8047H27.8046H27.8045H27.8044H27.8043H27.8042H27.8041H27.804H27.8039H27.8038H27.8037H27.8036H27.8035H27.8034H27.8033H27.8032H27.8031H27.803H27.8029H27.8028H27.8027H27.8026H27.8025H27.8024H27.8023H27.8022H27.8021H27.802H27.8019H27.8018H27.8017H27.8016H27.8015H27.8014H27.8013H27.8012H27.8011H27.801H27.8009H27.8008H27.8007L17.1617 0.874756ZM27.2064 2.16141V10.7355L24.7852 8.29556C24.5367 8.04517 24.1337 8.04795 23.8788 8.29361L23.8768 8.29556L15.8637 16.3705C15.4818 16.7553 14.9907 16.9428 14.4996 16.9428C14.0076 16.9428 13.5083 16.7548 13.1365 16.3715L13.1365 16.3715L13.1355 16.3705L10.9337 14.1517C10.6863 13.9024 10.2727 13.9024 10.0253 14.1517L10.0248 14.1522L2.16274 22.1635V16.5555L9.11088 9.55377C9.49273 9.16897 9.98384 8.98147 10.475 8.98147C10.967 8.98147 11.4662 9.16951 11.8381 9.55277L11.8381 9.55278L11.8391 9.55377L14.0409 11.7726C14.2894 12.023 14.6924 12.0202 14.9473 11.7745L14.9473 11.7745L14.9493 11.7726L21.1396 5.53448C21.3875 5.28464 21.3848 4.8801 21.1415 4.62381L21.1415 4.62379L21.1396 4.62182L18.698 2.16141H27.2064Z" fill="#33323C" stroke="#33323C" stroke-width="0.25" stroke-linejoin="round"/>
<path d="M27.4763 14.5054H22.1523C21.7936 14.5054 21.5039 14.7987 21.5039 15.1578V34.4722C21.5039 34.8313 21.7936 35.1246 22.1523 35.1246H27.4763C27.835 35.1246 28.1247 34.8313 28.1247 34.4722V15.1578C28.1247 14.7987 27.835 14.5054 27.4763 14.5054ZM26.8279 33.8289H22.7916V15.8011H26.8279V33.8289Z" fill="#33323C" stroke="#33323C" stroke-width="0.25" stroke-linejoin="round"/>
<path d="M18.5974 21.48H13.2734C12.9147 21.48 12.625 21.7733 12.625 22.1324V34.4722C12.625 34.8313 12.9147 35.1246 13.2734 35.1246H18.5974C18.9561 35.1246 19.2458 34.8313 19.2458 34.4722V22.1324C19.2458 21.7733 18.9561 21.48 18.5974 21.48ZM17.9581 33.8288H13.9218V22.7848H17.9581V33.8288Z" fill="#33323C" stroke="#33323C" stroke-width="0.25" stroke-linejoin="round"/>
<path d="M9.71753 24.1626H4.3935C4.0348 24.1626 3.74512 24.4559 3.74512 24.815V34.4722C3.74512 34.8313 4.0348 35.1246 4.3935 35.1246H9.71753C10.0762 35.1246 10.3659 34.8313 10.3659 34.4722V24.815C10.3659 24.4559 10.0762 24.1626 9.71753 24.1626ZM9.07818 33.8289H5.04188V25.4674H9.07818V33.8289Z" fill="#33323C" stroke="#33323C" stroke-width="0.25" stroke-linejoin="round"/>
</svg>
