<svg width="53" height="24" viewBox="0 0 53 24" fill="none" xmlns="http://www.w3.org/2000/svg">
<g clip-path="url(#clip0_1_4326)">
<path fill-rule="evenodd" clip-rule="evenodd" d="M1.22798 23.4998C1.54464 23.4998 1.8613 23.3815 2.09695 23.1377L9.35067 15.8676C10.8382 17.0867 12.7308 17.8107 14.7928 17.8107C17.7311 17.8107 20.3307 16.3256 21.8919 14.0648L26.3619 17.5521C26.5828 17.7294 26.8553 17.8107 27.1204 17.8107C27.4371 17.8107 27.7538 17.6851 27.9894 17.4487L35.7439 9.66873L43.4984 17.4487C43.7414 17.6925 44.058 17.8329 44.4189 17.8107C44.765 17.7959 45.0817 17.6408 45.31 17.3822L52.7036 8.72301C53.1454 8.20583 53.0865 7.42266 52.571 6.97936C52.0555 6.53606 51.2749 6.59516 50.8331 7.11235L44.3011 14.7593L36.6202 7.04585C36.1415 6.56561 35.3609 6.56561 34.8749 7.04585L27.0173 14.9292L23.0039 11.7966C23.269 10.9617 23.4162 10.0751 23.4162 9.15154C23.4162 4.38604 19.5501 0.499756 14.7928 0.499756C10.0282 0.499756 6.16198 4.38604 6.16198 9.15154C6.16198 10.9617 6.72165 12.6462 7.679 14.0426L0.359004 21.3867C-0.119668 21.8669 -0.119668 22.6501 0.359004 23.1377C0.602022 23.3742 0.918681 23.4998 1.22798 23.4998ZM14.7928 2.97486C18.1877 2.97486 20.9566 5.7455 20.9566 9.15893C20.9566 9.4914 20.9124 9.8091 20.8609 10.1268L16.7811 6.9498C16.2435 6.52867 15.4703 6.62472 15.0505 7.16407C14.6308 7.70342 14.7265 8.4792 15.2641 8.90033L19.933 12.5428C18.8284 14.2274 16.9358 15.343 14.7854 15.343C11.3905 15.343 8.62161 12.5724 8.62161 9.15893C8.62898 5.7455 11.3905 2.97486 14.7928 2.97486Z" fill="#33323C"/>
</g>
<defs>
<clipPath id="clip0_1_4326">
<rect width="53" height="23" fill="white" transform="translate(0 0.499756)"/>
</clipPath>
</defs>
</svg>
