<svg width="296" height="130" viewBox="0 0 296 130" fill="none" xmlns="http://www.w3.org/2000/svg">
<mask id="path-1-inside-1_462_7904" fill="white">
<path d="M182.652 115.935C182.652 123.578 188.848 129.773 196.49 129.773H281.795C289.438 129.773 295.633 123.578 295.633 115.935V36.6637C295.633 29.0211 289.438 22.8256 281.795 22.8256H196.49C188.848 22.8256 182.652 29.0211 182.652 36.6637V115.935Z"/>
</mask>
<path d="M182.652 115.935C182.652 123.578 188.848 129.773 196.49 129.773H281.795C289.438 129.773 295.633 123.578 295.633 115.935V36.6637C295.633 29.0211 289.438 22.8256 281.795 22.8256H196.49C188.848 22.8256 182.652 29.0211 182.652 36.6637V115.935Z" fill="#E4EE50"/>
<path d="M182.652 129.773H295.633H182.652ZM295.633 22.8256H182.652H295.633ZM182.652 22.8256V129.773V22.8256ZM281.795 129.773C289.82 129.773 296.325 123.268 296.325 115.243V37.3556C296.325 29.3309 289.82 22.8256 281.795 22.8256C289.056 22.8256 294.941 29.0211 294.941 36.6637V115.935C294.941 123.578 289.056 129.773 281.795 129.773Z" fill="#E4EE50" mask="url(#path-1-inside-1_462_7904)"/>
<mask id="path-3-inside-2_462_7904" fill="white">
<path d="M3.67116 23.9313C5.21407 31.4164 12.5573 36.3591 20.0727 34.971L25.9887 33.8783C33.5041 32.4902 38.3458 25.2969 36.8029 17.8118L35.9255 13.5555C34.3826 6.07034 27.0394 1.12769 19.524 2.51581L13.608 3.60849C6.0926 4.9966 1.25092 12.1898 2.79383 19.675L3.67116 23.9313Z"/>
</mask>
<path d="M3.67116 23.9313C5.21407 31.4164 12.5573 36.3591 20.0727 34.971L25.9887 33.8783C33.5041 32.4902 38.3458 25.2969 36.8029 17.8118L35.9255 13.5555C34.3826 6.07034 27.0394 1.12769 19.524 2.51581L13.608 3.60849C6.0926 4.9966 1.25092 12.1898 2.79383 19.675L3.67116 23.9313Z" fill="#E4EE50"/>
<path d="M6.46484 37.4844L39.5966 31.3649L6.46484 37.4844ZM33.1319 0.00240498L0.000139203 6.12189L33.1319 0.00240498ZM0.000139203 6.12189L6.46484 37.4844L0.000139203 6.12189ZM25.9887 33.8783C33.8799 32.4208 38.9636 24.8679 37.3436 17.0084L36.7456 14.1075C35.1256 6.24808 27.4152 1.05829 19.524 2.51581C26.6636 1.1971 33.7022 6.19602 35.2452 13.6812L36.1225 17.9374C37.6654 25.4226 33.1283 32.5596 25.9887 33.8783Z" fill="#E4EE50" mask="url(#path-3-inside-2_462_7904)"/>
<line y1="-0.345952" x2="270.657" y2="-0.345952" transform="matrix(-0.997304 -0.0733735 -0.0818313 0.996646 281.854 25.7578)" stroke="#E4EE50" stroke-width="0.691903"/>
<path d="M280.4 29.3438L19.9928 29.3437" stroke="#E4EE50" stroke-width="0.691903"/>
<path d="M197.031 123.906L19.9817 22.8275" stroke="#E4EE50" stroke-width="0.691903"/>
</svg>
