<svg width="606" height="404" viewBox="0 0 606 404" fill="none" xmlns="http://www.w3.org/2000/svg">
<mask id="path-1-inside-1_506_3752" fill="white">
<path d="M280.883 383.465C280.883 394.511 289.837 403.465 300.883 403.465H424.173C435.219 403.465 444.173 394.511 444.173 383.465V268.894C444.173 257.849 435.219 248.894 424.173 248.894H300.883C289.837 248.894 280.883 257.849 280.883 268.894V383.465Z"/>
</mask>
<path d="M280.883 383.465C280.883 394.511 289.837 403.465 300.883 403.465H424.173C435.219 403.465 444.173 394.511 444.173 383.465V268.894C444.173 257.849 435.219 248.894 424.173 248.894H300.883C289.837 248.894 280.883 257.849 280.883 268.894V383.465Z" fill="#E4EE50"/>
<path d="M280.883 403.465H444.173H280.883ZM444.173 248.894H280.883H444.173ZM280.883 248.894V403.465V248.894ZM424.173 403.465C435.771 403.465 445.173 394.063 445.173 382.465V269.894C445.173 258.296 435.771 248.894 424.173 248.894C434.666 248.894 443.173 257.849 443.173 268.894V383.465C443.173 394.511 434.666 403.465 424.173 403.465Z" fill="#E4EE50" mask="url(#path-1-inside-1_506_3752)"/>
<mask id="path-3-inside-2_506_3752" fill="white">
<path d="M22.2045 250.486C24.4345 261.304 35.0476 268.448 45.9095 266.442L54.4597 264.862C65.3217 262.856 72.3194 252.46 70.0894 241.642L68.8214 235.49C66.5915 224.672 55.9784 217.528 45.1164 219.535L36.5662 221.114C25.7042 223.12 18.7066 233.516 20.9365 244.335L22.2045 250.486Z"/>
</mask>
<path d="M22.2045 250.486C24.4345 261.304 35.0476 268.448 45.9095 266.442L54.4597 264.862C65.3217 262.856 72.3194 252.46 70.0894 241.642L68.8214 235.49C66.5915 224.672 55.9784 217.528 45.1164 219.535L36.5662 221.114C25.7042 223.12 18.7066 233.516 20.9365 244.335L22.2045 250.486Z" fill="#E4EE50"/>
<path d="M26.2422 270.074L74.1271 261.23L26.2422 270.074ZM64.7837 215.902L16.8988 224.746L64.7837 215.902ZM16.8988 224.746L26.2422 270.074L16.8988 224.746ZM54.4598 264.862C65.8648 262.756 73.2123 251.84 70.8709 240.481L70.0067 236.288C67.6652 224.929 56.5215 217.428 45.1164 219.535C55.4353 217.629 65.6081 224.854 67.838 235.672L69.106 241.823C71.336 252.641 64.7786 262.956 54.4598 264.862Z" fill="#E4EE50" mask="url(#path-3-inside-2_506_3752)"/>
<line x1="0.976562" y1="75.0391" x2="474.917" y2="75.0391" stroke="#E4EE50"/>
<line x1="474.531" y1="403.465" x2="474.531" y2="74.5312" stroke="#E4EE50"/>
<line y1="-0.5" x2="391.177" y2="-0.5" transform="matrix(-0.997304 -0.0733735 -0.0818313 0.996646 424.258 253.133)" stroke="#E4EE50"/>
<path d="M422.156 258.32L45.7921 258.32" stroke="#E4EE50"/>
<path d="M301.664 394.98L45.7763 248.892" stroke="#E4EE50"/>
<path d="M475.031 87H600.031" stroke="#E4EE50"/>
<line x1="478.747" y1="87.5886" x2="604.747" y2="0.588556" stroke="#E4EE50"/>
<path d="M479 87L604 336" stroke="#E4EE50"/>
</svg>
