<svg width="312" height="1166" viewBox="0 0 312 1166" fill="none" xmlns="http://www.w3.org/2000/svg">
<path d="M278.027 344.414H309.001L309 1049.42H260" stroke="white" stroke-width="0.538395"/>
<path d="M278.297 344.688V412.077" stroke="white" stroke-width="0.538395"/>
<path d="M278.27 516.914V682.914" stroke="white" stroke-width="0.538395"/>
<path d="M261.88 1049.49C261.88 1050.76 260.848 1051.79 259.575 1051.79C258.302 1051.79 257.27 1050.76 257.27 1049.49C257.27 1048.22 258.302 1047.19 259.575 1047.19C260.848 1047.19 261.88 1048.22 261.88 1049.49Z" fill="#FCFBB3" stroke="white" stroke-width="0.538395"/>
<path d="M259.423 881.495C260.613 881.495 261.577 880.53 261.577 879.341C261.577 878.152 260.613 877.188 259.423 877.188C258.234 877.188 257.27 878.152 257.27 879.341C257.27 880.53 258.234 881.495 259.423 881.495Z" fill="#FCFBB3" stroke="white" stroke-width="0.538395"/>
<path d="M260.88 682.493C260.88 683.765 259.848 684.797 258.575 684.797C257.302 684.797 256.27 683.765 256.27 682.493C256.27 681.22 257.302 680.188 258.575 680.188C259.848 680.188 260.88 681.22 260.88 682.493Z" fill="#FCFBB3" stroke="white" stroke-width="0.538395"/>
<path d="M156.801 555.306C156.12 555.306 155.5 555.306 154.818 555.306V554.686C155.872 554.686 156.863 554.686 157.917 554.686V555.306C157.545 555.306 157.173 555.306 156.801 555.306ZM161.017 555.182V554.562C162.009 554.5 163.062 554.438 164.116 554.376L164.178 554.996C163.124 555.058 162.071 555.12 161.017 555.182ZM151.718 555.182C150.665 555.12 149.611 555.058 148.619 554.934L148.681 554.314C149.673 554.438 150.727 554.5 151.78 554.562L151.718 555.182ZM167.216 554.686L167.154 554.066C168.145 553.942 169.199 553.818 170.191 553.632L170.315 554.252C169.261 554.438 168.269 554.562 167.216 554.686ZM145.52 554.562C144.528 554.438 143.474 554.252 142.42 554.128L142.544 553.508C143.536 553.694 144.59 553.818 145.582 553.942L145.52 554.562ZM173.352 553.694L173.228 553.075C174.22 552.889 175.274 552.641 176.266 552.455L176.39 553.075C175.398 553.323 174.406 553.508 173.352 553.694ZM139.383 553.57C138.391 553.385 137.337 553.137 136.345 552.889L136.469 552.269C137.461 552.517 138.453 552.703 139.507 552.951L139.383 553.57ZM179.427 552.331L179.241 551.711C180.233 551.463 181.225 551.153 182.217 550.843L182.403 551.463C181.411 551.773 180.419 552.083 179.427 552.331ZM133.308 552.145C132.316 551.897 131.324 551.587 130.332 551.277L130.518 550.658C131.51 550.967 132.502 551.277 133.494 551.525L133.308 552.145ZM185.378 550.534L185.192 549.976C186.184 549.666 187.114 549.294 188.106 548.922L188.354 549.48C187.362 549.79 186.37 550.162 185.378 550.534ZM127.419 550.224C126.427 549.852 125.435 549.48 124.505 549.108L124.753 548.55C125.683 548.922 126.675 549.294 127.667 549.666L127.419 550.224ZM191.205 548.24L190.957 547.683C191.887 547.249 192.879 546.877 193.809 546.443L194.057 547.001C193.127 547.435 192.135 547.869 191.205 548.24ZM121.654 547.931C120.724 547.497 119.794 547.063 118.864 546.629L119.112 546.071C120.042 546.505 120.972 546.939 121.902 547.373L121.654 547.931ZM196.846 545.637L196.536 545.08C197.466 544.584 198.334 544.15 199.264 543.592L199.574 544.15C198.706 544.646 197.776 545.142 196.846 545.637ZM116.075 545.265C115.145 544.77 114.277 544.274 113.347 543.778L113.657 543.22C114.525 543.716 115.455 544.212 116.385 544.708L116.075 545.265ZM202.301 542.538L201.991 541.981C202.859 541.423 203.727 540.865 204.595 540.307L204.967 540.803C204.037 541.485 203.169 542.043 202.301 542.538ZM110.682 542.167C109.814 541.609 108.946 541.051 108.078 540.493L108.45 539.997C109.318 540.555 110.186 541.113 111.054 541.671L110.682 542.167ZM207.446 539.13L207.074 538.634C207.942 538.014 208.748 537.394 209.554 536.775L209.926 537.27C209.182 537.89 208.314 538.51 207.446 539.13ZM105.537 538.696C104.669 538.076 103.863 537.456 103.057 536.837L103.429 536.341C104.235 536.96 105.041 537.58 105.909 538.2L105.537 538.696ZM212.405 535.349L212.033 534.853C212.839 534.172 213.583 533.552 214.389 532.87L214.823 533.304C214.017 533.986 213.211 534.667 212.405 535.349ZM100.578 534.915C99.7718 534.233 98.9659 533.552 98.2221 532.87L98.656 532.374C99.3999 533.056 100.206 533.738 101.012 534.419L100.578 534.915ZM217.054 531.197L216.621 530.763C217.364 530.081 218.108 529.337 218.79 528.594L219.224 529.027C218.542 529.771 217.798 530.515 217.054 531.197ZM95.9905 530.763C95.2466 530.019 94.5028 529.337 93.8209 528.594L94.2548 528.16C94.9987 528.903 95.6805 529.647 96.4244 530.329L95.9905 530.763ZM221.394 526.796L220.96 526.362C221.642 525.619 222.323 524.813 223.005 524.069L223.501 524.441C222.819 525.247 222.138 526.052 221.394 526.796ZM91.6513 526.238C90.9694 525.495 90.2875 524.689 89.6056 523.883L90.1016 523.511C90.7834 524.317 91.4653 525.061 92.1472 525.867L91.6513 526.238ZM225.423 522.024L224.927 521.652C225.547 520.846 226.167 520.041 226.787 519.173L227.283 519.545C226.725 520.412 226.105 521.218 225.423 522.024ZM87.684 521.466C87.0641 520.66 86.4442 519.793 85.8243 518.987L86.3202 518.615C86.9401 519.421 87.56 520.289 88.1799 521.094L87.684 521.466ZM229.142 517.066L228.646 516.694C229.204 515.888 229.762 515.02 230.32 514.091L230.816 514.401C230.258 515.33 229.7 516.198 229.142 517.066ZM84.0267 516.446C83.4688 515.578 82.9109 514.711 82.353 513.843L82.8489 513.533C83.4068 514.401 83.9647 515.268 84.5226 516.136L84.0267 516.446ZM232.428 511.798L231.87 511.488C232.366 510.62 232.924 509.69 233.357 508.823L233.915 509.133C233.481 510 232.986 510.93 232.428 511.798ZM80.7413 511.178C80.2454 510.248 79.7494 509.381 79.2535 508.451L79.8114 508.141C80.3073 509.071 80.8033 509.938 81.2992 510.868L80.7413 511.178ZM235.341 506.344L234.783 506.096C235.217 505.166 235.651 504.236 236.085 503.307L236.643 503.555C236.271 504.484 235.837 505.414 235.341 506.344ZM77.8278 505.662C77.3939 504.732 76.96 503.803 76.526 502.811L77.0839 502.563C77.5179 503.493 77.9518 504.422 78.3857 505.352L77.8278 505.662ZM237.883 500.704L237.325 500.456C237.697 499.526 238.069 498.534 238.441 497.605L238.998 497.791C238.689 498.72 238.317 499.712 237.883 500.704ZM75.3483 499.96C74.9763 498.968 74.6044 498.039 74.2325 497.047L74.7904 496.861C75.1623 497.853 75.4722 498.782 75.9061 499.774L75.3483 499.96ZM240.052 494.816L239.432 494.63C239.742 493.638 240.052 492.647 240.362 491.655L240.982 491.841C240.672 492.833 240.362 493.824 240.052 494.816ZM73.3026 494.072C72.9927 493.08 72.6827 492.089 72.4348 491.097L73.0547 490.911C73.3026 491.903 73.6126 492.895 73.9225 493.886L73.3026 494.072ZM241.726 488.866L241.106 488.742C241.354 487.75 241.602 486.759 241.788 485.705L242.408 485.829C242.222 486.821 241.974 487.874 241.726 488.866ZM71.6289 488.06C71.381 487.069 71.195 486.015 70.9471 485.023L71.5669 484.899C71.7529 485.891 72.0009 486.945 72.2488 487.936L71.6289 488.06ZM243.028 482.792L242.408 482.668C242.594 481.677 242.718 480.623 242.904 479.631L243.524 479.693C243.338 480.747 243.214 481.739 243.028 482.792ZM70.3892 481.986C70.2032 480.995 70.0792 479.941 69.9552 478.888L70.5751 478.826C70.6991 479.817 70.8231 480.871 71.009 481.863L70.3892 481.986ZM243.834 476.594L243.214 476.532C243.338 475.541 243.4 474.487 243.462 473.434L244.082 473.496C244.02 474.549 243.958 475.603 243.834 476.594ZM69.6453 475.789C69.5833 474.735 69.4593 473.743 69.3973 472.69L70.0172 472.628C70.0792 473.682 70.1412 474.673 70.2652 475.727L69.6453 475.789ZM244.267 470.397H243.648C243.648 469.529 243.71 468.661 243.71 467.794C243.71 466.74 243.71 465.748 243.648 464.695H244.267C244.329 465.748 244.329 466.802 244.329 467.794C244.267 468.661 244.267 469.529 244.267 470.397ZM69.2734 469.591C69.2734 468.971 69.2734 468.413 69.2734 467.794C69.2734 467.36 69.2734 466.926 69.2734 466.492H69.8932C69.8932 466.926 69.8932 467.36 69.8932 467.794C69.8932 468.413 69.8932 468.971 69.8932 469.591H69.2734ZM70.0172 463.393H69.3973C69.4593 462.34 69.5213 461.348 69.5833 460.294L70.2032 460.356C70.1412 461.348 70.0172 462.402 70.0172 463.393ZM243.462 461.658C243.4 460.666 243.276 459.613 243.214 458.559L243.834 458.497C243.958 459.551 244.02 460.542 244.082 461.596L243.462 461.658ZM70.5131 457.257L69.8932 457.196C70.0172 456.142 70.1412 455.15 70.3272 454.097L70.9471 454.221C70.7611 455.212 70.6371 456.266 70.5131 457.257ZM242.78 455.46C242.656 454.468 242.47 453.415 242.284 452.423L242.904 452.299C243.09 453.291 243.276 454.345 243.4 455.398L242.78 455.46ZM71.505 451.184L70.8851 451.06C71.071 450.068 71.319 449.014 71.505 448.023L72.1248 448.147C71.8769 449.138 71.6909 450.13 71.505 451.184ZM241.726 449.386C241.54 448.395 241.292 447.341 241.044 446.411L241.664 446.287C241.912 447.279 242.16 448.333 242.346 449.324L241.726 449.386ZM72.8687 445.172L72.2488 444.986C72.4968 443.994 72.8067 443.003 73.1167 442.011L73.7365 442.197C73.4266 443.189 73.1167 444.18 72.8687 445.172ZM240.238 443.437C239.928 442.445 239.618 441.453 239.308 440.462L239.866 440.276C240.176 441.267 240.486 442.259 240.796 443.251L240.238 443.437ZM74.6664 439.222L74.1085 439.036C74.4184 438.044 74.7904 437.053 75.1623 436.123L75.7202 436.371C75.4102 437.301 75.0383 438.292 74.6664 439.222ZM238.255 437.549C237.883 436.557 237.511 435.627 237.139 434.698L237.697 434.45C238.069 435.379 238.503 436.371 238.812 437.363L238.255 437.549ZM76.898 433.52L76.3401 433.272C76.774 432.343 77.1459 431.351 77.6418 430.421L78.1997 430.669C77.7658 431.599 77.3319 432.59 76.898 433.52ZM235.899 431.847C235.465 430.917 235.031 429.987 234.597 429.058L235.155 428.81C235.589 429.739 236.085 430.669 236.519 431.599L235.899 431.847ZM79.5635 427.942L79.0056 427.632C79.5015 426.703 79.9974 425.773 80.4933 424.905L81.0512 425.215C80.4933 426.145 79.9974 427.012 79.5635 427.942ZM233.172 426.331C232.676 425.401 232.18 424.533 231.622 423.666L232.18 423.356C232.676 424.223 233.233 425.153 233.729 426.083L233.172 426.331ZM82.6009 422.55L82.043 422.24C82.6009 421.373 83.1588 420.505 83.7167 419.637L84.2126 420.009C83.6547 420.815 83.0968 421.682 82.6009 422.55ZM230.01 421.001C229.452 420.133 228.894 419.265 228.274 418.46L228.77 418.088C229.328 418.955 229.948 419.823 230.506 420.691L230.01 421.001ZM85.9483 417.406L85.4524 417.034C86.0723 416.166 86.6922 415.361 87.3121 414.555L87.808 414.927C87.1881 415.733 86.5682 416.6 85.9483 417.406ZM226.477 415.919C225.857 415.113 225.237 414.245 224.555 413.501L225.051 413.13C225.671 413.935 226.353 414.741 226.973 415.609L226.477 415.919ZM89.7296 412.51L89.2337 412.138C89.9156 411.332 90.5975 410.526 91.2793 409.783L91.7133 410.217C91.0314 410.96 90.4115 411.766 89.7296 412.51ZM222.633 411.084C221.952 410.279 221.27 409.535 220.588 408.791L221.022 408.357C221.704 409.101 222.447 409.907 223.067 410.65L222.633 411.084ZM93.8209 407.923L93.387 407.49C94.0688 406.746 94.8127 406.002 95.5566 405.258L95.9905 405.692C95.2466 406.436 94.5028 407.18 93.8209 407.923ZM218.418 406.56C217.674 405.816 216.93 405.134 216.187 404.391L216.621 403.957C217.364 404.639 218.108 405.382 218.852 406.126L218.418 406.56ZM98.2221 403.585L97.7882 403.151C98.532 402.469 99.3379 401.788 100.144 401.106L100.516 401.602C99.7718 402.221 98.9659 402.903 98.2221 403.585ZM213.893 402.345C213.149 401.664 212.343 400.982 211.537 400.362L211.909 399.866C212.715 400.486 213.521 401.168 214.265 401.85L213.893 402.345ZM102.933 399.618L102.561 399.123C103.367 398.503 104.235 397.821 105.041 397.263L105.413 397.759C104.607 398.317 103.739 398.937 102.933 399.618ZM209.12 398.441C208.314 397.821 207.446 397.201 206.64 396.644L207.012 396.148C207.88 396.767 208.686 397.387 209.554 398.007L209.12 398.441ZM107.954 395.962L107.582 395.466C108.45 394.908 109.318 394.288 110.186 393.731L110.496 394.226C109.628 394.784 108.76 395.342 107.954 395.962ZM204.099 394.908C203.231 394.35 202.363 393.793 201.495 393.297L201.805 392.739C202.673 393.297 203.603 393.855 204.409 394.412L204.099 394.908ZM113.161 392.615L112.852 392.057C113.719 391.561 114.649 391.004 115.579 390.57L115.889 391.128C114.959 391.623 114.029 392.119 113.161 392.615ZM198.768 391.747C197.9 391.251 196.97 390.756 196.04 390.322L196.35 389.764C197.28 390.26 198.21 390.694 199.078 391.19L198.768 391.747ZM118.616 389.702L118.368 389.144C119.298 388.71 120.228 388.277 121.22 387.843L121.468 388.401C120.476 388.834 119.546 389.268 118.616 389.702ZM193.313 388.958C192.383 388.524 191.453 388.091 190.523 387.719L190.771 387.161C191.701 387.533 192.693 387.967 193.623 388.401L193.313 388.958ZM124.257 387.223L124.009 386.665C124.939 386.293 125.931 385.921 126.923 385.55L127.171 386.107C126.179 386.479 125.187 386.851 124.257 387.223ZM187.61 386.541C186.68 386.169 185.688 385.797 184.696 385.488L184.882 384.93C185.874 385.24 186.866 385.612 187.796 385.983L187.61 386.541ZM130.084 385.116L129.898 384.496C130.89 384.186 131.882 383.876 132.874 383.566L133.06 384.186C132.068 384.496 131.076 384.806 130.084 385.116ZM181.783 384.558C180.791 384.248 179.799 384 178.807 383.752L178.993 383.132C179.985 383.38 180.977 383.69 181.969 384L181.783 384.558ZM136.035 383.442L135.911 382.823C136.903 382.575 137.957 382.327 138.949 382.141L139.073 382.761C138.019 382.947 137.027 383.194 136.035 383.442ZM175.832 383.008C174.84 382.761 173.786 382.575 172.795 382.389L172.919 381.769C173.91 381.955 174.964 382.141 175.956 382.389L175.832 383.008ZM142.048 382.141L141.924 381.521C142.916 381.335 143.97 381.211 145.024 381.025L145.086 381.645C144.094 381.831 143.102 382.017 142.048 382.141ZM169.757 381.893C168.765 381.769 167.711 381.583 166.72 381.521L166.782 380.901C167.835 381.025 168.827 381.149 169.881 381.335L169.757 381.893ZM148.185 381.335L148.123 380.715C149.177 380.591 150.169 380.529 151.222 380.467L151.284 381.087C150.231 381.149 149.177 381.211 148.185 381.335ZM163.62 381.211C162.566 381.149 161.575 381.087 160.521 381.025V380.405C161.575 380.467 162.566 380.529 163.62 380.591V381.211ZM154.322 380.963V380.343C155.128 380.343 155.934 380.281 156.801 380.281H157.483V380.901H156.801C155.996 380.901 155.128 380.901 154.322 380.963Z" fill="white"/>
<path d="M282.926 485.422H294.502V879.417H260.5" stroke="white" stroke-width="0.538395"/>
<path d="M278 683.188H259" stroke="white" stroke-width="0.538395"/>
<path d="M33.4316 516.43L33.4316 583.819" stroke="white" stroke-width="0.538395"/>
<path d="M47.2695 15.4922C47.2695 16.765 48.3016 17.7969 49.5747 17.7969C50.8478 17.7969 51.8798 16.765 51.8798 15.4922C51.8798 14.2194 50.8478 13.1875 49.5747 13.1875C48.3016 13.1875 47.2695 14.2194 47.2695 15.4922Z" fill="#FCFBB3" stroke="white" stroke-width="0.538395"/>
<path d="M44.2695 186.492C44.2695 187.764 45.3016 188.796 46.5747 188.796C47.8478 188.796 48.8798 187.764 48.8798 186.492C48.8798 185.219 47.8478 184.188 46.5747 184.188C45.3016 184.188 44.2695 185.219 44.2695 186.492Z" fill="#FCFBB3" stroke="white" stroke-width="0.538395"/>
<path d="M33.7009 464.25H20.127L20.1271 15.4141H49.5007" stroke="white" stroke-width="0.538395"/>
<path d="M33.7002 583.552H3L3.00001 186.414H47" stroke="white" stroke-width="0.538395"/>
<mask id="mask0_673_3751" style="mask-type:luminance" maskUnits="userSpaceOnUse" x="72" y="384" width="180" height="161">
<path d="M72.5488 384.461H251.709V544.929H72.5488V384.461Z" fill="white"/>
</mask>
<g mask="url(#mask0_673_3751)">
<path d="M79.1738 482.313V451.092H97.6088C99.0406 445.685 101.188 440.626 104.052 435.917L90.9865 423.184L113.538 401.207L126.604 413.94C131.436 411.149 136.627 409.056 142.175 407.661V389.695H174.213V407.835C179.761 409.23 184.951 411.324 189.784 414.114L202.85 401.381L225.401 423.184L212.336 435.917C215.199 440.626 217.347 445.685 218.779 451.092H237.214V482.313H218.6C217.168 487.72 215.02 492.779 212.157 497.488L225.222 510.221L202.671 532.198L189.605 519.465C184.772 522.256 179.582 524.349 174.034 525.744V543.884H141.996V525.744C136.448 524.349 131.257 522.256 126.425 519.465L113.359 532.198L90.8075 510.221L103.873 497.488C101.009 492.779 98.8617 487.72 97.4298 482.313H79.1738ZM158.104 499.232C176.539 499.232 191.574 484.581 191.574 466.615C191.574 448.65 176.539 433.998 158.104 433.998C139.669 433.998 124.635 448.65 124.635 466.615C124.814 484.581 139.669 499.232 158.104 499.232Z" stroke="white" stroke-width="0.403796" stroke-miterlimit="10"/>
</g>
<mask id="mask1_673_3751" style="mask-type:luminance" maskUnits="userSpaceOnUse" x="171" y="540" width="106" height="96">
<path d="M171.318 540.766H276.633V635.093H171.318V540.766Z" fill="white"/>
</mask>
<g mask="url(#mask1_673_3751)">
<path d="M175.209 598.287V579.934H186.045C186.887 576.756 188.149 573.783 189.833 571.014L182.152 563.53L195.409 550.611L203.089 558.096C205.929 556.455 208.98 555.225 212.242 554.405V543.844H231.074V554.507C234.336 555.327 237.387 556.558 240.227 558.198L247.907 550.713L261.164 563.53L253.483 571.014C255.167 573.783 256.429 576.756 257.271 579.934H268.107V598.287H257.166C256.324 601.466 255.062 604.439 253.378 607.207L261.058 614.692L247.802 627.611L240.122 620.126C237.281 621.766 234.23 622.997 230.969 623.817V634.48H212.137V623.817C208.875 622.997 205.824 621.766 202.984 620.126L195.303 627.611L182.047 614.692L189.727 607.207C188.044 604.439 186.782 601.466 185.94 598.287H175.209ZM221.605 608.233C232.442 608.233 241.279 599.62 241.279 589.059C241.279 578.499 232.442 569.886 221.605 569.886C210.769 569.886 201.932 578.499 201.932 589.059C202.037 599.62 210.769 608.233 221.605 608.233Z" stroke="white" stroke-width="0.403796" stroke-miterlimit="10"/>
</g>
<path d="M61.7292 524.602L61.1719 524.911C70.6467 540.635 84.0228 553.82 99.8141 563.044C116.163 572.577 134.803 577.653 153.814 577.839V577.22C115.791 576.91 81.36 557.287 61.7292 524.602Z" fill="white"/>
<path d="M153.753 578.458C154.248 578.458 154.682 578.087 154.744 577.53C154.744 577.035 154.372 576.601 153.815 576.539C153.32 576.539 152.886 576.911 152.824 577.468C152.824 577.963 153.258 578.396 153.753 578.458Z" fill="white"/>
<path d="M60.7375 525.278C60.4899 524.844 60.6137 524.287 61.0471 523.978C61.4805 523.73 62.0377 523.854 62.3473 524.287C62.5949 524.72 62.4711 525.278 62.0377 525.587C61.6043 525.835 60.9852 525.711 60.7375 525.278Z" fill="white"/>
<path d="M220.139 381.539L219.768 382.035C247.077 402.525 262.931 433.848 263.178 467.895H263.798C263.674 450.624 259.587 434.095 251.722 418.867C244.167 404.32 233.268 391.444 220.139 381.539Z" fill="white"/>
<path d="M220.566 381.107C220.133 380.798 219.575 380.86 219.266 381.293C218.956 381.726 219.018 382.283 219.451 382.593C219.885 382.902 220.442 382.84 220.752 382.407C220.999 382.036 220.937 381.417 220.566 381.107Z" fill="white"/>
<path d="M264.414 467.835C264.414 468.33 264.043 468.763 263.485 468.763C262.99 468.763 262.557 468.392 262.557 467.835C262.557 467.34 262.928 466.906 263.485 466.906C263.919 466.968 264.352 467.34 264.414 467.835Z" fill="white"/>
<path d="M153.811 359.812C130.031 359.999 107.551 367.674 88.6636 382.035C70.3952 395.902 56.7712 415.587 50.207 437.439L50.8262 437.625C64.574 391.816 105.941 360.802 153.811 360.431V359.812Z" fill="white"/>
<path d="M49.6526 437.189C49.5288 437.685 49.7765 438.18 50.2718 438.366C50.7671 438.489 51.2624 438.242 51.4481 437.747C51.5719 437.251 51.3243 436.756 50.829 436.57C50.3337 436.447 49.8384 436.694 49.6526 437.189Z" fill="white"/>
<path d="M153.749 359.195C154.244 359.195 154.678 359.567 154.678 360.124C154.678 360.619 154.306 361.053 153.749 361.053C153.254 361.053 152.82 360.681 152.82 360.124C152.82 359.629 153.254 359.195 153.749 359.195Z" fill="white"/>
<path d="M156.223 375.531C134.053 375.531 112.502 383.331 95.0391 398.064L95.4107 398.559C118.076 379.431 147.677 372.064 176.596 378.379L176.72 377.76C169.908 376.274 163.035 375.531 156.223 375.531Z" fill="white"/>
<path d="M94.6638 397.572C94.2924 397.881 94.2304 398.5 94.54 398.872C94.8496 399.243 95.4687 399.305 95.8402 398.995C96.2116 398.686 96.2736 398.067 95.964 397.695C95.6544 397.262 95.0972 397.2 94.6638 397.572Z" fill="white"/>
<path d="M176.841 377.149C177.336 377.273 177.646 377.768 177.584 378.263C177.46 378.758 176.965 379.068 176.47 379.006C175.974 378.882 175.665 378.387 175.727 377.892C175.85 377.396 176.346 377.087 176.841 377.149Z" fill="white"/>
<path d="M63.5225 450.375C59.1256 470.556 61.2931 491.17 69.839 509.926C78.0753 528.126 92.1328 543.54 109.41 553.321L109.72 552.764C73.5546 532.212 55.2242 491.108 64.1417 450.499L63.5225 450.375Z" fill="white"/>
<path d="M109.043 553.821C109.477 554.069 110.034 553.945 110.344 553.512C110.653 553.079 110.467 552.521 110.034 552.212C109.601 551.964 109.043 552.088 108.734 552.521C108.424 552.955 108.61 553.574 109.043 553.821Z" fill="white"/>
<path d="M62.9043 450.251C63.0282 449.755 63.5235 449.446 64.0188 449.508C64.5141 449.632 64.8236 450.127 64.7617 450.622C64.6379 451.117 64.1426 451.427 63.6473 451.365C63.152 451.303 62.8424 450.808 62.9043 450.251Z" fill="white"/>
<mask id="mask2_673_3751" style="mask-type:luminance" maskUnits="userSpaceOnUse" x="142" y="450" width="35" height="30">
<path d="M176.924 450.445H142.287V479.679H176.924V450.445Z" fill="white"/>
</mask>
<g mask="url(#mask2_673_3751)">
<path d="M169.881 476.821H155.37C154.981 476.821 154.591 476.981 154.332 477.27C153.91 477.752 153.26 478.009 152.514 478.041C151.702 478.041 150.988 477.752 150.501 477.238C150.177 476.885 149.69 476.756 149.235 476.821C148.683 476.917 148.229 477.367 148.099 477.913C148.002 478.363 148.099 478.78 148.391 479.102C148.651 479.391 149.04 479.583 149.462 479.616C149.917 479.616 150.241 479.487 150.534 479.198C151.053 478.716 151.67 478.395 152.351 478.395H152.579C153.26 478.395 153.877 478.684 154.364 479.198C154.624 479.487 155.013 479.648 155.435 479.648H155.565L169.881 479.68C170.66 479.68 171.309 479.037 171.309 478.266C171.309 477.495 170.66 476.821 169.881 476.821Z" fill="#FCFBB3"/>
<path d="M175.53 477.336C175.043 477.336 174.621 477.753 174.621 478.235C174.621 478.717 175.043 479.135 175.53 479.135C176.017 479.135 176.439 478.717 176.439 478.235C176.439 477.753 176.017 477.336 175.53 477.336Z" fill="#FCFBB3"/>
<path d="M143.745 477.078C143.096 477.078 142.576 477.592 142.576 478.235C142.576 478.877 143.096 479.391 143.745 479.391C144.394 479.391 144.913 478.877 144.913 478.235C144.913 477.592 144.394 477.078 143.745 477.078Z" fill="#FCFBB3"/>
<path d="M156.991 451.89C156.991 451.794 156.991 451.666 156.959 451.569C156.861 451.152 156.602 450.798 156.212 450.606C156.082 450.541 155.952 450.509 155.823 450.477C155.465 450.413 155.108 450.477 154.784 450.67C154.751 450.702 154.719 450.734 154.686 450.734C154.621 450.766 154.589 450.798 154.524 450.862C154.037 451.344 153.355 451.633 152.609 451.666C151.862 451.633 151.148 451.376 150.694 450.862C150.661 450.798 150.596 450.766 150.531 450.734C150.499 450.702 150.466 450.67 150.434 450.67C150.142 450.477 149.785 450.413 149.395 450.477C149.265 450.509 149.135 450.541 149.006 450.606C148.649 450.798 148.356 451.152 148.259 451.569C148.227 451.666 148.227 451.794 148.227 451.89C148.227 452.212 148.324 452.501 148.551 452.758C148.811 453.047 149.2 453.24 149.59 453.272H149.655C149.85 453.272 150.044 453.24 150.239 453.175C150.272 453.175 150.272 453.143 150.304 453.143C150.369 453.111 150.434 453.079 150.499 453.047L150.531 453.015C150.596 452.983 150.661 452.918 150.694 452.886C151.213 452.372 151.862 452.051 152.511 452.051H152.706C153.388 452.051 154.037 452.34 154.524 452.886C154.589 452.951 154.621 452.983 154.686 453.015L154.719 453.047C154.784 453.079 154.849 453.111 154.914 453.143C154.946 453.143 154.946 453.175 154.979 453.175C155.141 453.24 155.336 453.272 155.563 453.272H155.628C156.05 453.272 156.439 453.079 156.667 452.758C156.861 452.501 156.991 452.212 156.991 451.89Z" fill="#FCFBB3"/>
<path d="M161.408 453.272H175.496C176.275 453.272 176.924 452.63 176.924 451.859C176.924 451.088 176.275 450.445 175.496 450.445H161.408C160.629 450.445 159.979 451.088 159.979 451.859C159.979 452.63 160.629 453.272 161.408 453.272Z" fill="#FCFBB3"/>
<path d="M164.588 458.128C164.458 457.582 164.004 457.132 163.452 457.036C162.965 456.939 162.511 457.1 162.186 457.453C161.667 457.967 160.92 458.256 160.173 458.256C159.459 458.256 158.81 457.967 158.356 457.485C158.096 457.196 157.739 457.036 157.317 457.036H143.715C142.936 457.036 142.287 457.678 142.287 458.449C142.287 459.22 142.936 459.863 143.715 459.863H157.317C157.674 459.863 158.063 459.702 158.323 459.413C158.81 458.899 159.427 458.61 160.109 458.61H160.336C161.017 458.61 161.667 458.899 162.154 459.445C162.446 459.734 162.835 459.863 163.225 459.863C163.647 459.863 164.036 459.67 164.296 459.349C164.588 458.995 164.686 458.578 164.588 458.128Z" fill="#FCFBB3"/>
<path d="M149.917 470.523C149.267 470.523 148.748 471.037 148.748 471.679C148.748 472.322 149.267 472.836 149.917 472.836C150.566 472.836 151.085 472.322 151.085 471.679C151.085 471.037 150.566 470.523 149.917 470.523Z" fill="#FCFBB3"/>
<path d="M169.165 463.938C168.515 463.938 167.996 464.451 167.996 465.094C167.996 465.736 168.515 466.25 169.165 466.25C169.814 466.25 170.333 465.736 170.333 465.094C170.366 464.451 169.846 463.938 169.165 463.938Z" fill="#FCFBB3"/>
<path d="M169.165 457.289C168.515 457.289 167.996 457.803 167.996 458.445C167.996 459.088 168.515 459.602 169.165 459.602C169.814 459.602 170.333 459.088 170.333 458.445C170.333 457.803 169.814 457.289 169.165 457.289Z" fill="#FCFBB3"/>
<path d="M143.749 471.164C143.457 471.164 143.229 471.389 143.229 471.678C143.229 471.968 143.457 472.192 143.749 472.192C144.041 472.192 144.268 471.968 144.268 471.678C144.268 471.389 144.041 471.164 143.749 471.164Z" fill="#FCFBB3"/>
<path d="M144.234 451.858C144.234 451.569 144.007 451.344 143.715 451.344C143.422 451.344 143.195 451.569 143.195 451.858C143.195 452.148 143.422 452.372 143.715 452.372C144.007 452.372 144.234 452.148 144.234 451.858Z" fill="#FCFBB3"/>
<path d="M175.498 457.93C175.206 457.93 174.979 458.155 174.979 458.444C174.979 458.733 175.206 458.958 175.498 458.958C175.79 458.958 176.017 458.733 176.017 458.444C176.017 458.155 175.79 457.93 175.498 457.93Z" fill="#FCFBB3"/>
<path d="M175.527 464.578C175.235 464.578 175.008 464.803 175.008 465.092C175.008 465.381 175.235 465.606 175.527 465.606C175.819 465.606 176.046 465.381 176.046 465.092C176.046 464.803 175.819 464.578 175.527 464.578Z" fill="#FCFBB3"/>
<path d="M175.168 470.234C174.876 470.234 174.616 470.33 174.389 470.459C174.292 470.523 174.194 470.587 174.097 470.683C173.578 471.23 172.864 471.519 172.084 471.487C171.37 471.487 170.721 471.197 170.299 470.716C170.039 470.426 169.682 470.266 169.26 470.266H161.275C161.242 470.266 161.21 470.266 161.177 470.266C161.08 470.266 161.015 470.298 160.95 470.33C160.885 470.362 160.853 470.362 160.82 470.362C160.723 470.394 160.658 470.426 160.593 470.459C160.561 470.459 160.561 470.491 160.528 470.491L160.496 470.523C160.398 470.587 160.333 470.619 160.268 470.716C159.781 471.23 159.035 471.519 158.256 471.519C157.542 471.519 156.892 471.23 156.47 470.748C156.146 470.394 155.626 470.202 155.139 470.298C154.588 470.394 154.101 470.844 154.003 471.39C153.906 471.84 154.003 472.258 154.295 472.611C154.555 472.9 154.945 473.093 155.367 473.093C155.756 473.093 156.178 472.932 156.47 472.675C156.957 472.161 157.574 471.872 158.256 471.872H158.483C159.165 471.872 159.814 472.161 160.333 472.707C160.366 472.739 160.398 472.739 160.431 472.772L160.496 472.804C160.528 472.836 160.561 472.868 160.593 472.868L160.658 472.9L160.788 472.964C160.853 472.996 160.885 472.996 160.885 472.996L161.015 473.029C161.145 473.061 161.21 473.061 161.275 473.061L169.39 473.093C169.747 473.093 170.137 472.9 170.396 472.643C170.883 472.129 171.5 471.84 172.182 471.84H172.409C173.091 471.84 173.74 472.129 174.227 472.675C174.259 472.707 174.259 472.707 174.259 472.707C174.454 472.932 174.909 473.157 175.298 473.157C176.11 473.157 176.759 472.515 176.759 471.711C176.662 470.876 175.98 470.234 175.168 470.234Z" fill="#FCFBB3"/>
<path d="M164.653 465.093C164.653 464.419 164.198 463.873 163.549 463.712C163.517 463.712 163.517 463.712 163.484 463.68C163.452 463.68 163.419 463.68 163.387 463.68C163.322 463.68 163.257 463.648 163.192 463.648H149.591C149.201 463.648 148.811 463.808 148.552 464.098C148.357 464.322 148.097 464.515 147.805 464.644C147.805 464.644 147.773 464.644 147.773 464.676C147.481 464.836 147.156 464.901 146.799 464.901C146.052 464.901 145.273 464.612 144.786 464.098C144.526 463.841 144.202 463.68 143.877 463.68C143.747 463.68 143.65 463.68 143.52 463.712C143.358 463.744 143.196 463.808 143.066 463.905C142.838 464.033 142.644 464.258 142.514 464.483C142.449 464.579 142.416 464.676 142.384 464.804C142.352 464.933 142.352 465.029 142.352 465.126C142.352 465.447 142.449 465.736 142.676 465.993C142.838 466.218 143.098 466.346 143.39 466.443H143.423C143.488 466.443 143.553 466.475 143.618 466.475C143.65 466.475 143.682 466.475 143.715 466.475C144.104 466.507 144.526 466.346 144.786 466.057C145.306 465.543 145.955 465.222 146.604 465.222H146.831C147.513 465.222 148.13 465.511 148.617 466.025C148.649 466.057 148.682 466.089 148.714 466.121C148.747 466.154 148.779 466.186 148.811 466.186C148.876 466.218 148.941 466.282 149.006 466.314C149.169 466.378 149.331 466.443 149.493 466.443H149.558H149.591H163.192C164.036 466.507 164.653 465.864 164.653 465.093Z" fill="#FCFBB3"/>
</g>
<mask id="mask3_673_3751" style="mask-type:luminance" maskUnits="userSpaceOnUse" x="36" y="443" width="35" height="29">
<path d="M70.2116 443.43H36.043V471.508H70.2116V443.43Z" fill="white"/>
</mask>
<g mask="url(#mask3_673_3751)">
<path d="M39.5749 465.265L39.5291 465.175L39.4348 465.137C37.5754 464.393 36.3125 462.608 36.3125 460.524V448.602C36.3125 445.927 38.5432 443.695 41.2156 443.695H65.0395C67.7876 443.695 69.9426 445.925 69.9426 448.602V460.524C69.9426 463.202 67.7876 465.432 65.0395 465.432H45.6826H45.5268L45.4492 465.567L42.4062 470.86L39.5749 465.265ZM40.2411 454.563C40.2411 456.594 41.8504 458.205 43.8801 458.205C45.9178 458.205 47.5191 456.508 47.5191 454.485C47.5191 452.454 45.9098 450.843 43.8801 450.843C41.8424 450.843 40.2411 452.541 40.2411 454.563ZM49.4885 454.563C49.4885 456.594 51.0978 458.205 53.1275 458.205C55.1573 458.205 56.7666 456.594 56.7666 454.563C56.7666 452.533 55.1573 450.922 53.1275 450.922C51.0978 450.922 49.4885 452.533 49.4885 454.563ZM58.8143 454.563C58.8143 456.594 60.4237 458.205 62.4534 458.205C64.4006 458.205 66.0924 456.598 66.0924 454.563C66.0924 452.533 64.4831 450.922 62.4534 450.922C60.4237 450.922 58.8143 452.533 58.8143 454.563Z" fill="#FCFBB3" stroke="#FDD53E" stroke-width="0.538395"/>
</g>
<g filter="url(#filter0_d_673_3751)">
<path d="M274.917 471.977H253.927C250.953 471.977 248.543 474.387 248.543 477.361V498.923C248.543 501.896 250.953 504.307 253.927 504.307H274.917C277.891 504.307 280.301 501.896 280.301 498.923V477.361C280.301 474.387 277.891 471.977 274.917 471.977Z" fill="#EAECF6"/>
</g>
<path d="M267.806 484.768C267.806 486.492 266.361 487.919 264.536 487.919C262.71 487.919 261.266 486.492 261.266 484.768C261.266 483.044 262.71 481.617 264.536 481.617C266.361 481.617 267.806 483.044 267.806 484.768Z" fill="#EAECF6" stroke="#FDD53E" stroke-width="0.807593"/>
<path d="M264.711 489.703C267.472 489.807 269.675 492.011 269.698 494.662H259.34C259.362 492.015 261.562 489.842 264.292 489.703H264.711Z" fill="#EAECF6" stroke="#FDD53E" stroke-width="0.807593"/>
<g filter="url(#filter1_d_673_3751)">
<path d="M112.501 555.742H91.5109C88.5374 555.742 86.127 558.153 86.127 561.126V582.688C86.127 585.662 88.5374 588.072 91.5109 588.072H112.501C115.475 588.072 117.885 585.662 117.885 582.688V561.126C117.885 558.153 115.475 555.742 112.501 555.742Z" fill="#FCFBB3"/>
</g>
<path d="M102.582 583.454L102.286 583.729L102.582 584.048L102.878 583.729L102.582 583.454ZM102.582 583.454C102.878 583.729 102.878 583.729 102.878 583.729L102.879 583.728L102.88 583.727L102.885 583.722L102.902 583.704L102.968 583.631C103.026 583.568 103.111 583.474 103.218 583.354C103.433 583.114 103.74 582.767 104.107 582.337C104.842 581.479 105.823 580.289 106.804 578.965C107.785 577.643 108.772 576.18 109.516 574.775C110.253 573.384 110.781 571.996 110.781 570.842C110.781 566.404 107.111 562.844 102.582 562.844C98.0529 562.844 94.3828 566.404 94.3828 570.842C94.3828 571.996 94.9108 573.384 95.6478 574.775C96.3919 576.18 97.3794 577.643 98.3599 578.965C99.3415 580.289 100.323 581.479 101.058 582.337C101.425 582.767 101.732 583.114 101.947 583.354C102.054 583.474 102.139 583.568 102.196 583.631L102.263 583.704L102.28 583.722L102.285 583.727L102.286 583.728V583.729C102.286 583.729 102.286 583.729 102.582 583.454ZM102.582 574.042C100.769 574.042 99.3303 572.625 99.3303 570.885C99.3303 569.144 100.769 567.728 102.582 567.728C104.395 567.728 105.834 569.144 105.834 570.885C105.834 572.625 104.395 574.042 102.582 574.042Z" fill="#FCFBB3"/>
<path d="M102.582 583.454L102.286 583.729M102.582 583.454L102.878 583.729M102.582 583.454C102.878 583.729 102.878 583.729 102.878 583.729M102.582 583.454C102.286 583.729 102.286 583.729 102.286 583.729M102.286 583.729L102.582 584.048L102.878 583.729M102.286 583.729V583.728L102.285 583.727L102.28 583.722L102.263 583.704L102.196 583.631C102.139 583.568 102.054 583.474 101.947 583.354C101.732 583.114 101.425 582.767 101.058 582.337C100.323 581.479 99.3415 580.289 98.3599 578.965C97.3794 577.643 96.3919 576.18 95.6478 574.775C94.9108 573.384 94.3828 571.996 94.3828 570.842C94.3828 566.404 98.0529 562.844 102.582 562.844C107.111 562.844 110.781 566.404 110.781 570.842C110.781 571.996 110.253 573.384 109.516 574.775C108.772 576.18 107.785 577.643 106.804 578.965C105.823 580.289 104.842 581.479 104.107 582.337C103.74 582.767 103.433 583.114 103.218 583.354C103.111 583.474 103.026 583.568 102.968 583.631L102.902 583.704L102.885 583.722L102.88 583.727L102.879 583.728L102.878 583.729M102.582 574.042C100.769 574.042 99.3303 572.625 99.3303 570.885C99.3303 569.144 100.769 567.728 102.582 567.728C104.395 567.728 105.834 569.144 105.834 570.885C105.834 572.625 104.395 574.042 102.582 574.042Z" stroke="#384355" stroke-width="0.807593"/>
<path d="M160.545 338.236C160.545 335.09 163.039 332.516 166.087 332.516H221.973C225.021 332.516 227.515 335.09 227.515 338.236V360.163C227.515 363.309 225.021 365.883 221.973 365.883H166.087C163.039 365.883 160.545 363.309 160.545 360.163V338.236Z" fill="white"/>
<path d="M217.117 352.469H165.501C165.098 352.469 164.771 352.796 164.771 353.199C164.771 353.602 165.098 353.929 165.501 353.929H217.117C217.52 353.929 217.847 353.602 217.847 353.199C217.847 352.796 217.52 352.469 217.117 352.469Z" fill="#EAECF6"/>
<path d="M217.117 356.852H165.501C165.098 356.852 164.771 357.178 164.771 357.581C164.771 357.985 165.098 358.311 165.501 358.311H217.117C217.52 358.311 217.847 357.985 217.847 357.581C217.847 357.178 217.52 356.852 217.117 356.852Z" fill="#EAECF6"/>
<path d="M197.39 341.281H165.501C165.098 341.281 164.771 341.608 164.771 342.011C164.771 342.414 165.098 342.741 165.501 342.741H197.39C197.793 342.741 198.12 342.414 198.12 342.011C198.12 341.608 197.793 341.281 197.39 341.281Z" fill="#EAECF6"/>
<path d="M197.39 345.656H165.501C165.098 345.656 164.771 345.983 164.771 346.386C164.771 346.789 165.098 347.116 165.501 347.116H197.39C197.793 347.116 198.12 346.789 198.12 346.386C198.12 345.983 197.793 345.656 197.39 345.656Z" fill="#EAECF6"/>
<mask id="mask4_673_3751" style="mask-type:luminance" maskUnits="userSpaceOnUse" x="160" y="332" width="68" height="34">
<path d="M160.545 338.236C160.545 335.09 163.039 332.516 166.087 332.516H221.973C225.021 332.516 227.515 335.09 227.515 338.236V360.163C227.515 363.309 225.021 365.883 221.973 365.883H166.087C163.039 365.883 160.545 363.309 160.545 360.163V338.236Z" fill="white"/>
</mask>
<g mask="url(#mask4_673_3751)">
<path d="M166.09 332.039C162.765 332.039 160.086 334.803 160.086 338.235H161.01C161.01 335.328 163.273 332.992 166.09 332.992V332.039ZM221.976 332.992C224.793 332.992 227.056 335.328 227.056 338.235H227.98C227.98 334.803 225.301 332.039 221.976 332.039V332.992ZM227.056 360.162C227.056 363.07 224.793 365.406 221.976 365.406V366.359C225.301 366.359 227.98 363.594 227.98 360.162H227.056ZM166.09 365.406C163.273 365.406 161.01 363.07 161.01 360.162H160.086C160.086 363.594 162.765 366.359 166.09 366.359V365.406ZM161.01 360.162V338.235H160.086V360.162H161.01ZM221.976 365.406H166.09V366.359H221.976V365.406ZM227.056 338.235V360.162H227.98V338.235H227.056ZM166.09 332.992H221.976V332.039H166.09V332.992Z" fill="#CED8E3"/>
</g>
<path d="M230.598 607.887H70.3631C69.9513 607.887 69.541 607.475 69.541 606.987C69.541 606.498 69.9513 606.086 70.3631 606.086H230.598C231.01 606.086 231.421 606.498 231.421 606.987C231.421 607.533 231.02 607.887 230.598 607.887Z" fill="#FCFBB3" stroke="#FDD53E" stroke-width="0.538395"/>
<path d="M95.0139 606.982C95.0139 608.416 93.8782 609.549 92.4396 609.549C91.001 609.549 89.8652 608.416 89.8652 606.982C89.8652 605.547 91.001 604.414 92.4396 604.414C93.8024 604.414 95.0139 605.547 95.0139 606.982Z" fill="#FDD53E"/>
<path d="M165.165 574.678C165.165 579.815 160.988 583.981 155.835 583.981C150.682 583.981 146.506 579.815 146.506 574.678C146.506 569.541 150.682 565.375 155.835 565.375C160.988 565.375 165.165 569.541 165.165 574.678Z" fill="#FCFBB3" stroke="#FDD53E" stroke-width="0.538395"/>
<path d="M153.758 571.016L160.311 574.779L153.758 578.504V571.016Z" fill="#384355"/>
<g filter="url(#filter2_d_673_3751)">
<path d="M259.072 519.711H226.778C223.805 519.711 221.395 522.121 221.395 525.095V557.849C221.395 560.823 223.805 563.233 226.778 563.233H259.072C262.046 563.233 264.456 560.823 264.456 557.849V525.095C264.456 522.121 262.046 519.711 259.072 519.711Z" fill="#F7FAB7"/>
</g>
<path fill-rule="evenodd" clip-rule="evenodd" d="M247.729 541.012C247.729 543.749 245.51 545.968 242.773 545.968C240.035 545.968 237.816 543.749 237.816 541.012C237.816 538.275 240.035 536.056 242.773 536.056C245.51 536.056 247.729 538.275 247.729 541.012ZM246.456 545.269C245.469 546.124 244.181 546.641 242.773 546.641C239.663 546.641 237.143 544.121 237.143 541.012C237.143 537.903 239.663 535.383 242.773 535.383C245.882 535.383 248.402 537.903 248.402 541.012C248.402 542.472 247.847 543.802 246.935 544.802C246.943 544.808 246.95 544.815 246.958 544.822L249.137 547.001C249.268 547.133 249.268 547.346 249.137 547.477C249.005 547.608 248.792 547.608 248.661 547.477L246.482 545.298C246.472 545.289 246.464 545.279 246.456 545.269Z" fill="#384355"/>
<path d="M246.456 545.262L246.561 545.179L246.474 545.069L246.368 545.161L246.456 545.262ZM246.935 544.795L246.836 544.704L246.741 544.808L246.849 544.898L246.935 544.795ZM242.773 546.096C245.585 546.096 247.864 543.816 247.864 541.005H247.595C247.595 543.668 245.436 545.826 242.773 545.826V546.096ZM237.681 541.005C237.681 543.816 239.96 546.096 242.773 546.096V545.826C240.109 545.826 237.95 543.668 237.95 541.005H237.681ZM242.773 535.915C239.96 535.915 237.681 538.194 237.681 541.005H237.95C237.95 538.342 240.109 536.184 242.773 536.184V535.915ZM247.864 541.005C247.864 538.194 245.585 535.915 242.773 535.915V536.184C245.436 536.184 247.595 538.342 247.595 541.005H247.864ZM242.773 546.769C244.215 546.769 245.533 546.239 246.544 545.364L246.368 545.161C245.404 545.995 244.147 546.499 242.773 546.499V546.769ZM237.008 541.005C237.008 544.188 239.589 546.769 242.773 546.769V546.499C239.738 546.499 237.277 544.04 237.277 541.005H237.008ZM242.773 535.242C239.589 535.242 237.008 537.822 237.008 541.005H237.277C237.277 537.971 239.738 535.511 242.773 535.511V535.242ZM248.537 541.005C248.537 537.822 245.956 535.242 242.773 535.242V535.511C245.808 535.511 248.268 537.971 248.268 541.005H248.537ZM247.035 544.886C247.968 543.862 248.537 542.5 248.537 541.005H248.268C248.268 542.43 247.726 543.728 246.836 544.704L247.035 544.886ZM246.849 544.898C246.854 544.902 246.858 544.906 246.863 544.911L247.053 544.72C247.043 544.71 247.032 544.701 247.022 544.692L246.849 544.898ZM246.863 544.911L249.042 547.089L249.232 546.899L247.053 544.72L246.863 544.911ZM249.042 547.089C249.12 547.168 249.12 547.296 249.042 547.375L249.232 547.565C249.416 547.381 249.416 547.083 249.232 546.899L249.042 547.089ZM249.042 547.375C248.963 547.454 248.835 547.454 248.756 547.375L248.566 547.565C248.75 547.749 249.048 547.749 249.232 547.565L249.042 547.375ZM248.756 547.375L246.577 545.196L246.387 545.386L248.566 547.565L248.756 547.375ZM246.577 545.196C246.571 545.19 246.566 545.185 246.561 545.179L246.35 545.346C246.362 545.36 246.374 545.374 246.387 545.386L246.577 545.196Z" fill="#384355"/>
<defs>
<filter id="filter0_d_673_3751" x="247.466" y="471.438" width="33.9114" height="34.4817" filterUnits="userSpaceOnUse" color-interpolation-filters="sRGB">
<feFlood flood-opacity="0" result="BackgroundImageFix"/>
<feColorMatrix in="SourceAlpha" type="matrix" values="0 0 0 0 0 0 0 0 0 0 0 0 0 0 0 0 0 0 127 0" result="hardAlpha"/>
<feOffset dy="0.538395"/>
<feGaussianBlur stdDeviation="0.538395"/>
<feComposite in2="hardAlpha" operator="out"/>
<feColorMatrix type="matrix" values="0 0 0 0 0 0 0 0 0 0 0 0 0 0 0 0 0 0 0.25 0"/>
<feBlend mode="normal" in2="BackgroundImageFix" result="effect1_dropShadow_673_3751"/>
<feBlend mode="normal" in="SourceGraphic" in2="effect1_dropShadow_673_3751" result="shape"/>
</filter>
<filter id="filter1_d_673_3751" x="85.0502" y="555.204" width="33.9114" height="34.4817" filterUnits="userSpaceOnUse" color-interpolation-filters="sRGB">
<feFlood flood-opacity="0" result="BackgroundImageFix"/>
<feColorMatrix in="SourceAlpha" type="matrix" values="0 0 0 0 0 0 0 0 0 0 0 0 0 0 0 0 0 0 127 0" result="hardAlpha"/>
<feOffset dy="0.538395"/>
<feGaussianBlur stdDeviation="0.538395"/>
<feComposite in2="hardAlpha" operator="out"/>
<feColorMatrix type="matrix" values="0 0 0 0 0 0 0 0 0 0 0 0 0 0 0 0 0 0 0.25 0"/>
<feBlend mode="normal" in2="BackgroundImageFix" result="effect1_dropShadow_673_3751"/>
<feBlend mode="normal" in="SourceGraphic" in2="effect1_dropShadow_673_3751" result="shape"/>
</filter>
<filter id="filter2_d_673_3751" x="220.318" y="519.173" width="45.2161" height="45.677" filterUnits="userSpaceOnUse" color-interpolation-filters="sRGB">
<feFlood flood-opacity="0" result="BackgroundImageFix"/>
<feColorMatrix in="SourceAlpha" type="matrix" values="0 0 0 0 0 0 0 0 0 0 0 0 0 0 0 0 0 0 127 0" result="hardAlpha"/>
<feOffset dy="0.538395"/>
<feGaussianBlur stdDeviation="0.538395"/>
<feComposite in2="hardAlpha" operator="out"/>
<feColorMatrix type="matrix" values="0 0 0 0 0 0 0 0 0 0 0 0 0 0 0 0 0 0 0.25 0"/>
<feBlend mode="normal" in2="BackgroundImageFix" result="effect1_dropShadow_673_3751"/>
<feBlend mode="normal" in="SourceGraphic" in2="effect1_dropShadow_673_3751" result="shape"/>
</filter>
</defs>
</svg>
