<svg width="31" height="25" viewBox="0 0 31 25" fill="none" xmlns="http://www.w3.org/2000/svg">
<path d="M15.5562 14.2694V12.8425H17.6341V11.4155H15.5V12.8425H13.4221V14.2694H15.5562Z" fill="#33323C"/>
<path d="M15.5562 5.70776V4.28082H17.6341V2.85388H15.5V4.28082H13.4221V5.70776H15.5562Z" fill="#33323C"/>
<path d="M11.288 14.2694V15.6963H13.4221L13.4221 14.2694H11.3442V12.8425H13.4221L13.4221 11.4155H11.288V12.8425H9.21014V14.2694H11.288Z" fill="#33323C"/>
<path d="M11.288 5.70776V7.1347H13.4221L13.4221 5.70776H11.3442V4.28082H13.4221L13.4221 2.85388H11.288V4.28082H9.21014V5.70776H11.288Z" fill="#33323C"/>
<path d="M7.07609 15.6963H9.21014V14.2694H7.13225V12.8425H9.21014V11.4155H7.07609V12.8425H4.99819V14.2694H7.07609V15.6963Z" fill="#33323C"/>
<path d="M7.07609 7.1347H9.21014V5.70776H7.13225V4.28082H9.21014V2.85388H7.07609V4.28082H4.99819V5.70776H7.07609V7.1347Z" fill="#33323C"/>
<path d="M4.99819 14.2694H2.86413V15.6963H4.99819L4.99819 14.2694Z" fill="#33323C"/>
<path d="M4.99819 5.70776H2.86413V7.1347H4.99819L4.99819 5.70776Z" fill="#33323C"/>
<path d="M26.7319 6.44977C27.5073 6.44977 28.1359 5.81091 28.1359 5.02283C28.1359 4.23475 27.5073 3.59589 26.7319 3.59589C25.9565 3.59589 25.3279 4.23475 25.3279 5.02283C25.3279 5.81091 25.9565 6.44977 26.7319 6.44977Z" fill="#33323C"/>
<path d="M23.25 6.44977C24.0254 6.44977 24.654 5.81091 24.654 5.02283C24.654 4.23475 24.0254 3.59589 23.25 3.59589C22.4746 3.59589 21.846 4.23475 21.846 5.02283C21.846 5.81091 22.4746 6.44977 23.25 6.44977Z" fill="#33323C"/>
<path d="M30.9438 8.96119V0.742009C30.9438 0.342466 30.6069 0 30.2138 0H0.730072C0.336957 0 0 0.342466 0 0.742009V9.30365C0 9.41781 0 9.47489 0.0561594 9.58904V17.8082C0.0561594 18.2078 0.393116 18.5502 0.786232 18.5502H14.7699V20.7763C14.2083 21.0046 13.7029 21.4612 13.4783 22.089H2.86413C2.47101 22.089 2.13406 22.4315 2.13406 22.8311C2.13406 23.2306 2.47101 23.5731 2.86413 23.5731H13.4783C13.7591 24.4292 14.5453 25 15.5 25C16.3986 25 17.1848 24.4292 17.5217 23.5731H28.1359C28.529 23.5731 28.8659 23.2306 28.8659 22.8311C28.8659 22.4315 28.529 22.089 28.1359 22.089H17.5217C17.2971 21.5183 16.8478 21.0046 16.2301 20.7763V18.5502H30.2699C30.6069 18.5502 30.9438 18.2648 31 17.8082V9.24658C31 9.13242 31 9.07534 30.9438 8.96119ZM15.5 23.6301C15.163 23.6301 14.8261 23.3447 14.7699 23.0023C14.7699 22.9452 14.8261 22.8881 14.8261 22.8311C14.8261 22.774 14.8261 22.774 14.8261 22.7169C14.8822 22.3744 15.163 22.1461 15.5 22.1461C15.837 22.1461 16.1178 22.3744 16.1739 22.7169C16.1739 22.774 16.1739 22.774 16.1739 22.8311C16.1739 22.8881 16.1739 22.9452 16.2301 23.0023C16.1739 23.3447 15.837 23.6301 15.5 23.6301ZM29.5399 1.42694V8.50457H1.46014V1.42694H29.5399ZM29.5399 17.1233H15.7808C15.7246 17.0662 15.6123 17.0662 15.5 17.0662C15.3877 17.0662 15.3315 17.0662 15.2192 17.1233H1.46014V9.98858H29.5399V17.1233Z" fill="#33323C"/>
<path d="M26.7319 15.0114C27.5073 15.0114 28.1359 14.3726 28.1359 13.5845C28.1359 12.7964 27.5073 12.1575 26.7319 12.1575C25.9565 12.1575 25.3279 12.7964 25.3279 13.5845C25.3279 14.3726 25.9565 15.0114 26.7319 15.0114Z" fill="#33323C"/>
<path d="M23.25 15.0114C24.0254 15.0114 24.654 14.3726 24.654 13.5845C24.654 12.7964 24.0254 12.1575 23.25 12.1575C22.4746 12.1575 21.846 12.7964 21.846 13.5845C21.846 14.3726 22.4746 15.0114 23.25 15.0114Z" fill="#33323C"/>
</svg>
