<svg width="60" height="60" viewBox="0 0 60 60" fill="none" xmlns="http://www.w3.org/2000/svg">
<circle cx="30" cy="30" r="30" fill="#FCFBB3"/>
<path d="M43.3327 30.2733V32.3013C43.3327 37.5013 43.3327 40.1026 41.77 41.7186C40.21 43.3346 37.6953 43.3346 32.666 43.3346M42.6393 24.432C41.9487 23.1666 40.6833 22.3826 38.154 20.812L35.4873 19.1573C32.814 17.4973 31.4767 16.668 29.9993 16.668C28.522 16.668 27.186 17.4973 24.5113 19.1573L21.8447 20.812C19.3153 22.3826 18.0527 23.1666 17.3593 24.432C16.9367 25.2053 16.7727 26.076 16.7087 27.3346M28.666 43.3346C28.666 40.152 27.4017 37.0998 25.1513 34.8494C22.9009 32.5989 19.8486 31.3346 16.666 31.3346" stroke="#33323C" stroke-width="2" stroke-linecap="round"/>
<path d="M24.666 43.334C24.666 41.2123 23.8232 39.1774 22.3229 37.6771C20.8226 36.1768 18.7877 35.334 16.666 35.334M20.666 43.334C20.666 42.2731 20.2446 41.2557 19.4944 40.5056C18.7443 39.7554 17.7269 39.334 16.666 39.334" stroke="#33323C" stroke-width="2" stroke-linecap="round"/>
</svg>
