<svg width="60" height="60" viewBox="0 0 60 60" fill="none" xmlns="http://www.w3.org/2000/svg">
<circle cx="30" cy="30" r="30" fill="#FCFBB3"/>
<g clip-path="url(#clip0_500_25672)">
<path fill-rule="evenodd" clip-rule="evenodd" d="M30 44.2222C37.8551 44.2222 44.2222 37.8551 44.2222 30C44.2222 22.1449 37.8551 15.7778 30 15.7778C22.1449 15.7778 15.7778 22.1449 15.7778 30C15.7778 37.8551 22.1449 44.2222 30 44.2222ZM30 46C38.8364 46 46 38.8364 46 30C46 21.1636 38.8364 14 30 14C21.1636 14 14 21.1636 14 30C14 38.8364 21.1636 46 30 46Z" fill="#33323C"/>
<path fill-rule="evenodd" clip-rule="evenodd" d="M23.5074 33.5571C24.8896 36.9633 27.4363 38.8904 30.0007 38.8904C32.5661 38.8904 35.1118 36.9633 36.4941 33.5571H23.5074ZM30.0007 40.6682C26.4114 40.6682 23.3003 37.9589 21.7714 34.0015L21.7269 33.8869C21.3305 32.8282 22.1785 31.7793 23.3101 31.7793H36.6923C37.8238 31.7793 38.6727 32.8282 38.2745 33.8869L38.2309 34.0015C36.7012 37.9589 33.5901 40.6682 30.0007 40.6682Z" fill="#33323C"/>
<path d="M27.6024 28.6148C27.718 28.2966 27.6833 27.9082 27.5882 27.5544C27.4733 27.1471 27.2899 26.7624 27.046 26.4166C26.5296 25.6797 25.6736 25.0033 24.5171 24.9535C23.3198 24.9037 22.4256 25.6637 21.8744 26.4699C21.6102 26.8582 21.4022 27.282 21.2567 27.7286C21.1296 28.125 21.062 28.5304 21.1064 28.8548C21.1167 28.9288 21.1453 28.999 21.1899 29.059C21.2344 29.1189 21.2933 29.1667 21.3611 29.1979C21.429 29.2291 21.5036 29.2426 21.5781 29.2374C21.6526 29.2321 21.7245 29.2081 21.7873 29.1677C22.1429 28.9402 22.5153 28.6282 22.8602 28.3402C23.0167 28.2086 23.1687 28.0824 23.3091 27.9713C23.8087 27.5766 24.198 27.3517 24.5198 27.3357C24.8264 27.3206 25.1802 27.4957 25.6264 27.8299C25.7864 27.949 25.9411 28.0753 26.1011 28.2068L26.2744 28.3482C26.4913 28.5233 26.7224 28.7028 26.9553 28.8433C27.0115 28.8771 27.0745 28.8982 27.1398 28.9048C27.205 28.9115 27.2709 28.9036 27.3328 28.8818C27.3947 28.8599 27.4509 28.8247 27.4975 28.7785C27.5442 28.7324 27.58 28.6765 27.6024 28.6148ZM32.3233 28.6148C32.2078 28.2966 32.2433 27.9082 32.3384 27.5544C32.438 27.1846 32.622 26.7873 32.8807 26.4166C33.3962 25.6797 34.2531 25.0033 35.4096 24.9535C36.606 24.9037 37.5011 25.6637 38.0522 26.4699C38.3313 26.8788 38.5393 27.3215 38.67 27.7286C38.7962 28.125 38.8638 28.5304 38.8193 28.8548C38.809 28.9287 38.7804 28.9987 38.7359 29.0586C38.6914 29.1184 38.6326 29.1661 38.5649 29.1973C38.4972 29.2284 38.4227 29.2421 38.3483 29.2369C38.274 29.2317 38.2021 29.2079 38.1393 29.1677C37.7838 28.9402 37.4104 28.6282 37.0664 28.3402C36.9184 28.2152 36.7688 28.0923 36.6176 27.9713C36.1171 27.5766 35.7287 27.3517 35.406 27.3357C35.1002 27.3206 34.7456 27.4957 34.3002 27.8299C34.1402 27.949 33.9856 28.0753 33.8256 28.2068L33.6513 28.3482C33.4361 28.5283 33.2089 28.6938 32.9713 28.8433C32.9151 28.8773 32.8521 28.8985 32.7867 28.9052C32.7213 28.912 32.6553 28.9041 32.5933 28.8823C32.5313 28.8604 32.475 28.8251 32.4283 28.7789C32.3816 28.7326 32.3458 28.6766 32.3233 28.6148Z" fill="#33323C"/>
</g>
<defs>
<clipPath id="clip0_500_25672">
<rect width="32" height="32" fill="white" transform="translate(14 14)"/>
</clipPath>
</defs>
</svg>
