<svg width="60" height="60" viewBox="0 0 60 60" fill="none" xmlns="http://www.w3.org/2000/svg">
<circle cx="30" cy="30" r="30" fill="#FCFBB3"/>
<path d="M28.0572 16.2684C27.9193 16.1861 27.7617 16.1426 27.6012 16.1426C27.4406 16.1426 27.283 16.1861 27.1452 16.2684C27.0312 16.3587 26.9542 16.4877 26.929 16.6309C26.9037 16.7742 26.9318 16.9217 27.008 17.0456C29.8126 21.8981 30.4046 28.5107 26.5737 32.1564C25.1012 30.9184 23.9322 29.3592 23.1566 27.5987C21.7405 28.3851 20.5668 29.5444 19.7629 30.9507C18.959 32.3569 18.5557 33.9565 18.5966 35.5758C18.6546 37.0035 18.9975 38.4052 19.6052 39.6984C20.2129 40.9916 21.0731 42.1502 22.1352 43.106C23.1973 44.0619 24.4398 44.7956 25.7897 45.2641C27.1396 45.7326 28.5696 45.9264 29.9954 45.8341C37.3349 45.8341 41.1429 41.2764 41.392 35.5758C41.6892 28.737 36.8343 20.3256 28.0572 16.2684Z" stroke="#33323C" stroke-width="2.28571" stroke-linecap="round" stroke-linejoin="round"/>
</svg>
