<svg width="60" height="60" viewBox="0 0 60 60" fill="none" xmlns="http://www.w3.org/2000/svg">
<circle cx="30" cy="30" r="30" fill="#FCFBB3"/>
<path d="M19.333 33.9993H21.9997C22.7069 33.9993 23.3852 34.2803 23.8853 34.7804C24.3854 35.2805 24.6663 35.9588 24.6663 36.666V39.3327H25.9997V36.666C25.9997 35.9588 26.2806 35.2805 26.7807 34.7804C27.2808 34.2803 27.9591 33.9993 28.6663 33.9993H31.333C32.0403 33.9993 32.7185 34.2803 33.2186 34.7804C33.7187 35.2805 33.9997 35.9588 33.9997 36.666V39.3327H35.333V36.666C35.333 35.9588 35.614 35.2805 36.1141 34.7804C36.6142 34.2803 37.2924 33.9993 37.9997 33.9993H40.6663C41.3736 33.9993 42.0519 34.2803 42.552 34.7804C43.0521 35.2805 43.333 35.9588 43.333 36.666V39.3327H44.6663V43.3327H15.333V39.3327H16.6663V36.666C16.6663 35.9588 16.9473 35.2805 17.4474 34.7804C17.9475 34.2803 18.6258 33.9993 19.333 33.9993ZM28.6663 23.3327L33.9997 27.3327L28.6663 31.3327V23.3327ZM19.333 16.666H40.6663C41.3736 16.666 42.0519 16.947 42.552 17.4471C43.0521 17.9472 43.333 18.6254 43.333 19.3327V32.0527C42.5253 31.5767 41.6039 31.3279 40.6663 31.3327V19.3327H19.333V31.3327C18.3597 31.3327 17.453 31.586 16.6663 32.0527V19.3327C16.6663 18.6254 16.9473 17.9472 17.4474 17.4471C17.9475 16.947 18.6258 16.666 19.333 16.666Z" fill="#33323C"/>
</svg>
