<svg width="60" height="60" viewBox="0 0 60 60" fill="none" xmlns="http://www.w3.org/2000/svg">
<circle cx="30" cy="30" r="30" fill="#FCFBB3"/>
<path d="M33.6595 17C33.6595 17 32.2358 17.5 29.9995 17.5C27.7633 17.5 26.3395 17 26.3395 17C26.1145 17.0001 25.8912 17.0381 25.6789 17.1125L15.9995 20.5L17.0389 26L20.0939 26.345C20.468 26.3873 20.8125 26.5688 21.059 26.8534C21.3055 27.138 21.436 27.5049 21.4245 27.8813L20.9995 43H38.9995L38.5745 27.8813C38.563 27.5049 38.6935 27.138 38.94 26.8534C39.1865 26.5688 39.531 26.3873 39.9051 26.345L42.9601 26L43.9995 20.5L34.3201 17.1125C34.1078 17.0381 33.8845 17.0001 33.6595 17Z" stroke="#33323C" stroke-width="1.98511" stroke-linecap="round" stroke-linejoin="round"/>
<path d="M34.8312 17.2891C34.5478 18.3542 33.9204 19.2958 33.0466 19.9675C32.1728 20.6392 31.1015 21.0034 29.9994 21.0034C28.8972 21.0034 27.8259 20.6392 26.9521 19.9675C26.0783 19.2958 25.4509 18.3542 25.1675 17.2891" stroke="#33323C" stroke-width="1.98511" stroke-linecap="round" stroke-linejoin="round"/>
</svg>
