<svg width="60" height="60" viewBox="0 0 60 60" fill="none" xmlns="http://www.w3.org/2000/svg">
<circle cx="30" cy="30" r="30" fill="#FCFBB3"/>
<path d="M39.7 33.5C39.7 36.0461 38.6886 38.4879 36.8882 40.2882C35.0879 42.0886 32.6461 43.1 30.1 43.1C27.5539 43.1 25.1121 42.0886 23.3118 40.2882C21.5114 38.4879 20.5 36.0461 20.5 33.5C20.501 31.6293 21.0487 29.7997 22.0759 28.2362C23.103 26.6728 24.5648 25.4436 26.2813 24.7L26.6568 24.9923L28.308 26.2744C26.6917 26.6732 25.2551 27.6011 24.2269 28.9104C23.1986 30.2197 22.6377 31.8352 22.6333 33.5C22.6333 37.6173 25.9827 40.9667 30.1 40.9667C34.2173 40.9667 37.5667 37.6173 37.5667 33.5C37.5623 31.8352 37.0014 30.2197 35.9731 28.9104C34.9449 27.6011 33.5083 26.6732 31.892 26.2744L33.9187 24.7C35.6352 25.4436 37.097 26.6728 38.1241 28.2362C39.1513 29.7997 39.699 31.6293 39.7 33.5ZM30.1 24.9667L35.4333 20.8173L33.3 17.5H26.9L24.7667 20.8173L27.9667 23.3069L30.1 24.9667Z" fill="#33323C"/>
</svg>
