<svg width="60" height="60" viewBox="0 0 60 60" fill="none" xmlns="http://www.w3.org/2000/svg">
<circle cx="30" cy="30" r="30" fill="#FCFBB3"/>
<g clip-path="url(#clip0_500_25460)">
<path d="M44.8578 29.9997C44.8578 33.9401 43.2925 37.7191 40.5063 40.5053C37.72 43.2916 33.9411 44.8569 30.0007 44.8569C26.0603 44.8569 22.2814 43.2916 19.4951 40.5053C16.7089 37.7191 15.1436 33.9401 15.1436 29.9997M44.8578 29.9997C44.8578 26.0594 43.2925 22.2804 40.5063 19.4941C37.72 16.7079 33.9411 15.1426 30.0007 15.1426C26.0603 15.1426 22.2814 16.7079 19.4951 19.4941C16.7089 22.2804 15.1436 26.0594 15.1436 29.9997M44.8578 29.9997H15.1436" stroke="#33323C" stroke-width="2.28571" stroke-linecap="round" stroke-linejoin="round"/>
<path d="M35.7147 29.9997C35.434 35.4328 33.4328 40.6359 30.0004 44.8569C26.568 40.6359 24.5668 35.4328 24.2861 29.9997C24.5668 24.5666 26.568 19.3635 30.0004 15.1426C33.4328 19.3635 35.434 24.5666 35.7147 29.9997Z" stroke="#33323C" stroke-width="2.28571" stroke-linecap="round" stroke-linejoin="round"/>
</g>
<defs>
<clipPath id="clip0_500_25460">
<rect width="32" height="32" fill="white" transform="translate(14 14)"/>
</clipPath>
</defs>
</svg>
