<svg width="60" height="60" viewBox="0 0 60 60" fill="none" xmlns="http://www.w3.org/2000/svg">
<circle cx="30" cy="30" r="30" fill="#FCFBB3"/>
<path d="M34.125 41C34.125 43.2094 32.8344 45 30.625 45H22.375C20.1656 45 18.875 43.2094 18.875 41M35 36C36.1044 36 37 37.1194 37 38.5C37 39.8806 36.1044 41 35 41H18C16.8956 41 16 39.8806 16 38.5C16 37.1194 16.8956 36 18 36" stroke="#33323C" stroke-width="2" stroke-miterlimit="10" stroke-linecap="round"/>
<path d="M18 32.25V32.2362C18 28.7987 20.8125 27 24.25 27H28.75C32.1875 27 35 28.8125 35 32.25V32.2362M29.0625 22L29.5275 25.9981M35.5 36H25.2069C25.0744 36.0001 24.9474 36.0527 24.8538 36.1462L23.1769 37.8231C23.1537 37.8464 23.1261 37.8648 23.0957 37.8774C23.0654 37.89 23.0329 37.8964 23 37.8964C22.9671 37.8964 22.9346 37.89 22.9043 37.8774C22.8739 37.8648 22.8463 37.8464 22.8231 37.8231L21.1462 36.1462C21.0526 36.0527 20.9256 36.0001 20.7931 36H17.5C17.1022 36 16.7206 35.842 16.4393 35.5607C16.158 35.2794 16 34.8978 16 34.5C16 34.1022 16.158 33.7206 16.4393 33.4393C16.7206 33.158 17.1022 33 17.5 33H35.5C35.8978 33 36.2794 33.158 36.5607 33.4393C36.842 33.7206 37 34.1022 37 34.5C37 34.8978 36.842 35.2794 36.5607 35.5607C36.2794 35.842 35.8978 36 35.5 36Z" stroke="#33323C" stroke-width="2" stroke-miterlimit="10" stroke-linecap="round"/>
<path d="M30 45H38.7069C39.2114 45 39.6974 44.8093 40.0672 44.4661C40.4371 44.1229 40.6636 43.6525 40.7013 43.1494L42.9375 22" stroke="#33323C" stroke-width="2" stroke-miterlimit="10" stroke-linecap="round"/>
<path d="M37 22L38 18L40.9375 17" stroke="#33323C" stroke-width="2" stroke-linecap="round" stroke-linejoin="round"/>
<path d="M28 22H44" stroke="#33323C" stroke-width="2" stroke-miterlimit="10" stroke-linecap="round"/>
</svg>
