<svg width="60" height="60" viewBox="0 0 60 60" fill="none" xmlns="http://www.w3.org/2000/svg">
<circle cx="30" cy="30" r="30" fill="#FCFBB3"/>
<path d="M18 32.6667C19.1067 33.5227 20.7693 34.0227 22.6667 34C24.564 34.0227 26.2267 33.5227 27.3333 32.6667C28.44 31.8107 30.1027 31.3107 32 31.3333C33.8973 31.3107 35.56 31.8107 36.6667 32.6667M24.6667 18C24.2447 18.3029 23.9028 18.704 23.6705 19.1686C23.4382 19.6332 23.3225 20.1473 23.3333 20.6667C23.3225 21.186 23.4382 21.7002 23.6705 22.1648C23.9028 22.6294 24.2447 23.0304 24.6667 23.3333M30 18C29.578 18.3029 29.2361 18.704 29.0038 19.1686C28.7715 19.6332 28.6558 20.1473 28.6667 20.6667C28.6558 21.186 28.7715 21.7002 29.0038 22.1648C29.2361 22.6294 29.578 23.0304 30 23.3333" stroke="#33323C" stroke-width="2.66667" stroke-linecap="round" stroke-linejoin="round"/>
<path d="M18 27.334H36.6667V34.0007C36.6667 36.1224 35.8238 38.1572 34.3235 39.6575C32.8232 41.1578 30.7884 42.0007 28.6667 42.0007H26C23.8783 42.0007 21.8434 41.1578 20.3431 39.6575C18.8429 38.1572 18 36.1224 18 34.0007V27.334Z" stroke="#33323C" stroke-width="2.66667" stroke-linecap="round" stroke-linejoin="round"/>
<path d="M36.3281 36.3013C36.9236 36.5746 37.5771 36.6975 38.2312 36.6592C38.8853 36.6208 39.5199 36.4223 40.0793 36.0812C40.6387 35.7401 41.1058 35.2668 41.4395 34.7029C41.7731 34.139 41.9631 33.5018 41.9928 32.8473C42.0225 32.1928 41.891 31.5409 41.6098 30.9492C41.3285 30.3574 40.9062 29.8437 40.38 29.4534C39.8538 29.063 39.2397 28.8079 38.5918 28.7105C37.9438 28.6131 37.2819 28.6763 36.6641 28.8946" stroke="#33323C" stroke-width="2.66667" stroke-linecap="round" stroke-linejoin="round"/>
</svg>
