<svg width="60" height="60" viewBox="0 0 60 60" fill="none" xmlns="http://www.w3.org/2000/svg">
<circle cx="30" cy="30" r="30" fill="#FCFBB3"/>
<path d="M22.3846 13C22.3846 13 21.1538 21.6154 21.1538 22.8462C21.1538 24.0769 23.923 26.5385 23.923 26.5385L23.6153 42.9618C23.6153 44.3206 24.7181 45 26.0769 45C27.4357 45 28.5384 44.3206 28.5384 42.9618L28.2307 26.5385C28.2307 26.5385 31 24.0252 31 22.8462C31 21.6671 29.7692 13 29.7692 13H28.5384V21C28.5384 21.1632 28.4736 21.3197 28.3582 21.4351C28.2428 21.5505 28.0862 21.6154 27.923 21.6154C27.7598 21.6154 27.6033 21.5505 27.4879 21.4351C27.3725 21.3197 27.3077 21.1632 27.3077 21C27.3077 20.8855 26.8843 13 26.8843 13H25.2695C25.2695 13 24.8461 20.8855 24.8461 21C24.8461 21.1632 24.7813 21.3197 24.6659 21.4351C24.5505 21.5505 24.3939 21.6154 24.2307 21.6154C24.0675 21.6154 23.911 21.5505 23.7956 21.4351C23.6802 21.3197 23.6153 21.1632 23.6153 21V13H22.3846ZM35.5772 13.0775C34.8523 13.2511 34.6923 14.0277 34.6923 14.8831V42.9606C34.6923 44.3194 35.795 44.9988 37.1538 44.9988C38.5126 44.9988 39.5772 44.3182 39.5772 42.9606C39.5772 36.6997 38.3464 33.3618 38.3464 30.2295C38.3464 28.8166 40.8461 26.9975 40.8461 20.4215C40.8461 16.3994 37.2818 13.0763 35.923 13.0763C35.795 13.0763 35.6806 13.0517 35.5772 13.0763V13.0775Z" fill="#33323C"/>
</svg>
