<svg width="26" height="20" viewBox="0 0 26 20" fill="none" xmlns="http://www.w3.org/2000/svg">
<path fill-rule="evenodd" clip-rule="evenodd" d="M15.3131 0.312462C15.5084 0.1172 15.825 0.1172 16.0202 0.312462L25.3536 9.64579C25.4473 9.73956 25.5 9.86674 25.5 9.99935C25.5 10.132 25.4473 10.2591 25.3536 10.3529L16.0202 19.6862C15.825 19.8815 15.5084 19.8815 15.3131 19.6862C15.1179 19.491 15.1179 19.1744 15.3131 18.9791L23.7929 10.4993L1 10.4993C0.723858 10.4993 0.5 10.2755 0.5 9.99935C0.5 9.7232 0.723858 9.49935 1 9.49935L23.7929 9.49935L15.3131 1.01957C15.1179 0.824307 15.1179 0.507724 15.3131 0.312462Z" fill="#101011"/>
</svg>
