<svg width="60" height="60" viewBox="0 0 60 60" fill="none" xmlns="http://www.w3.org/2000/svg">
<circle cx="30" cy="30" r="30" fill="#FCFBB3"/>
<g clip-path="url(#clip0_500_25205)">
<path d="M32.7076 22.4867C32.732 22.4055 32.7285 22.3185 32.6977 22.2395C32.6669 22.1604 32.6105 22.094 32.5376 22.0507C32.4646 22.0081 32.3793 21.9916 32.2957 22.004C32.2121 22.0164 32.1351 22.0568 32.0776 22.1187L26.1016 28.4927C26.052 28.5461 26.0189 28.6128 26.0065 28.6847C25.9941 28.7565 26.0028 28.8304 26.0316 28.8974C26.0604 28.9644 26.1081 29.0215 26.1688 29.0619C26.2295 29.1022 26.3007 29.1241 26.3736 29.1247H28.8556L27.5096 33.5147C27.4852 33.596 27.4887 33.683 27.5195 33.762C27.5503 33.841 27.6067 33.9074 27.6796 33.9507C27.8296 34.0367 28.0196 34.0107 28.1396 33.8827L33.8996 27.5087C33.9494 27.4552 33.9824 27.3883 33.9948 27.3163C34.0072 27.2443 33.9983 27.1702 33.9692 27.1032C33.9401 27.0361 33.8921 26.979 33.8311 26.9388C33.7701 26.8986 33.6987 26.877 33.6256 26.8767H31.1436L32.7076 22.4867Z" fill="black"/>
<path d="M23.638 18C22.6591 17.9995 21.7016 18.2864 20.8843 18.825C20.0669 19.3636 19.4256 20.1303 19.04 21.03L17.456 24.726C17.3071 25.0773 17.0375 25.3639 16.696 25.534C15.696 26.034 14.986 26.964 14.766 28.058L14.1 31.416C14.0351 31.7386 14.0023 32.0669 14.002 32.396V33.222C14.002 34.85 14.782 36.308 16.002 37.216V41C16.002 41.2652 16.1073 41.5196 16.2948 41.7071C16.4824 41.8946 16.7367 42 17.002 42H21.002C21.2672 42 21.5215 41.8946 21.7091 41.7071C21.8966 41.5196 22.002 41.2652 22.002 41V38.324C24.586 38.42 27.492 38.5 30.002 38.5C32.512 38.5 35.418 38.42 38.002 38.324V41C38.002 41.2652 38.1073 41.5196 38.2948 41.7071C38.4824 41.8946 38.7367 42 39.002 42H43.002C43.2672 42 43.5215 41.8946 43.7091 41.7071C43.8966 41.5196 44.002 41.2652 44.002 41V37.216C45.222 36.308 46.002 34.85 46.002 33.222V32.396C46.002 32.0653 45.9693 31.7387 45.904 31.416L45.234 28.056C45.1267 27.5162 44.8972 27.0082 44.563 26.571C44.2287 26.1338 43.7987 25.779 43.306 25.534C42.9636 25.3643 42.6933 25.0777 42.544 24.726L40.96 21.03C40.5743 20.1303 39.933 19.3636 39.1157 18.825C38.2983 18.2864 37.3408 17.9995 36.362 18H23.64H23.638ZM20.88 21.82C21.1111 21.2796 21.496 20.8191 21.9866 20.4955C22.4773 20.1719 23.0522 19.9996 23.64 20H36.364C36.9514 20 37.5258 20.1725 38.0161 20.4961C38.5064 20.8196 38.8909 21.2799 39.122 21.82L40.706 25.514C41.0419 26.3001 41.6467 26.941 42.412 27.322C42.856 27.546 43.174 27.962 43.272 28.45L43.944 31.808C43.984 32.0027 44.0033 32.1987 44.002 32.396V33.222C44.0049 33.9841 43.7138 34.718 43.1893 35.2708C42.6647 35.8237 41.9472 36.1529 41.186 36.19C38.076 36.33 33.614 36.5 30.002 36.5C26.39 36.5 21.928 36.332 18.818 36.19C18.0564 36.1534 17.3383 35.8244 16.8134 35.2715C16.2884 34.7186 15.997 33.9844 16 33.222V32.396C16 32.1987 16.02 32.0027 16.06 31.808L16.73 28.448C16.7772 28.2069 16.8794 27.9799 17.0285 27.7846C17.1777 27.5893 17.3698 27.4311 17.59 27.322C18.356 26.942 18.96 26.3 19.296 25.514L20.88 21.82Z" fill="black"/>
</g>
<defs>
<clipPath id="clip0_500_25205">
<rect width="32" height="32" fill="white" transform="translate(14 14)"/>
</clipPath>
</defs>
</svg>
