<svg width="60" height="60" viewBox="0 0 60 60" fill="none" xmlns="http://www.w3.org/2000/svg">
<circle cx="30" cy="30" r="30" fill="#FCFBB3"/>
<path d="M18.0003 43.3346V23.3346C18.0003 20.192 18.0003 18.62 18.9763 17.644C19.9523 16.668 21.5243 16.668 24.667 16.668H28.667C31.8097 16.668 33.3817 16.668 34.3577 17.644C35.3337 18.62 35.3337 20.192 35.3337 23.3346V43.3346M16.667 43.3346H36.667M18.0003 28.668H35.3337M42.0003 25.3706L42.5963 25.0746C42.9563 24.8973 43.135 24.808 43.2337 24.6493C43.3337 24.4893 43.3337 24.292 43.3337 23.8946V22.9693C43.3337 22.112 43.3337 21.6826 43.1017 21.4853C43.028 21.4226 42.9415 21.3766 42.8483 21.3506C42.5523 21.268 42.191 21.5066 41.4697 21.9826C40.543 22.5933 40.0803 22.8986 39.7843 23.3346C39.6868 23.4795 39.6037 23.6336 39.5363 23.7946C39.3337 24.2786 39.3337 24.828 39.3337 25.9306V28.108C39.3337 28.4173 39.587 28.668 39.9003 28.668C40.1258 28.6686 40.3464 28.6019 40.5338 28.4765C40.7212 28.3511 40.8669 28.1727 40.9523 27.964L42.0003 25.3706Z" stroke="black" stroke-width="2" stroke-linecap="round" stroke-linejoin="round"/>
<path d="M39.9708 28.668C40.2374 30.516 40.8601 32.628 40.6068 34.508C40.3788 36.2106 39.0308 37.5853 37.2574 37.9226C36.8441 38.0013 36.3401 38.0013 35.3334 38.0013M27.6668 32.668L25.0721 35.224C24.7561 35.5666 24.5974 35.7373 24.6961 35.8693C24.7934 36.0013 25.0788 36.0013 25.6494 36.0013H27.6828C28.2548 36.0013 28.5401 36.0013 28.6374 36.1333C28.7361 36.2666 28.5774 36.436 28.2614 36.7786L25.6494 39.3346" stroke="black" stroke-width="2" stroke-linecap="round" stroke-linejoin="round"/>
</svg>
