<svg width="60" height="60" viewBox="0 0 60 60" fill="none" xmlns="http://www.w3.org/2000/svg">
<circle cx="30" cy="30" r="30" fill="#FCFBB3"/>
<path d="M45.5337 41.2673L40.067 35.8007C40.6003 34.4673 40.3337 32.734 39.1337 31.6673C37.9337 30.4673 36.2003 30.2007 34.7337 30.8673L37.267 33.4007L35.4003 35.2673L32.7337 32.6007C32.067 34.0673 32.3337 35.8007 33.5337 37.134C34.7337 38.334 36.3337 38.6007 37.667 38.0673L43.1337 43.534C43.4003 43.8007 43.8003 43.8007 43.9337 43.534L45.267 42.2007C45.667 41.8007 45.667 41.4007 45.5337 41.2673ZM32.3337 39.6673H17.667V37.0007C17.667 34.0673 22.467 31.6673 28.3337 31.6673C29.0003 31.6673 29.667 31.6673 30.2003 31.8007C29.8003 32.6007 29.667 33.4007 29.667 34.334C29.667 36.4673 30.7337 38.4673 32.3337 39.6673ZM28.3337 18.334C25.4003 18.334 23.0003 20.734 23.0003 23.6673C23.0003 26.6007 25.4003 29.0007 28.3337 29.0007C31.267 29.0007 33.667 26.6007 33.667 23.6673C33.667 20.734 31.267 18.334 28.3337 18.334Z" fill="#33323C"/>
</svg>
