<svg width="60" height="60" viewBox="0 0 60 60" fill="none" xmlns="http://www.w3.org/2000/svg">
<circle cx="30" cy="30" r="30" fill="#FCFBB3"/>
<path d="M24.666 38.0007H21.4073C20.1499 38.0007 18.9439 37.5011 18.0547 36.6119C17.1655 35.7228 16.666 34.5168 16.666 33.2593V30.0007C16.666 29.2934 16.947 28.6151 17.4471 28.115C17.9472 27.6149 18.6254 27.334 19.3327 27.334C20.0399 27.334 20.7182 27.6149 21.2183 28.115C21.7184 28.6151 21.9993 29.2934 21.9993 30.0007V31.6007C21.9993 31.8835 22.1117 32.1549 22.3118 32.3549C22.5118 32.5549 22.7831 32.6673 23.066 32.6673H36.9327C37.2156 32.6673 37.4869 32.5549 37.6869 32.3549C37.887 32.1549 37.9993 31.8835 37.9993 31.6007V30.0007C37.9993 29.2934 38.2803 28.6151 38.7804 28.115C39.2805 27.6149 39.9588 27.334 40.666 27.334C41.3733 27.334 42.0515 27.6149 42.5516 28.115C43.0517 28.6151 43.3327 29.2934 43.3327 30.0007V33.2593C43.3327 34.5168 42.8331 35.7228 41.944 36.6119C41.0548 37.5011 39.8488 38.0007 38.5913 38.0007H29.9993" stroke="#33323C" stroke-width="2" stroke-linecap="round"/>
<path d="M33.9997 20.668C35.2397 20.668 35.8583 20.668 36.373 20.7706C37.4077 20.9764 38.3581 21.4844 39.104 22.2303C39.8499 22.9762 40.3579 23.9266 40.5637 24.9613C40.6663 25.476 40.6663 26.0946 40.6663 27.3346M19.333 27.3346C19.333 26.0946 19.333 25.476 19.4357 24.9613C19.6414 23.9266 20.1494 22.9762 20.8953 22.2303C21.6413 21.4844 22.5917 20.9764 23.6263 20.7706C24.141 20.668 24.7597 20.668 25.9997 20.668H28.6663M40.6663 39.3346V38.0013M19.333 39.3346V38.0013" stroke="#33323C" stroke-width="2" stroke-linecap="round"/>
</svg>
