<svg width="60" height="60" viewBox="0 0 60 60" fill="none" xmlns="http://www.w3.org/2000/svg">
<circle cx="30" cy="30" r="30" fill="#FCFBB3"/>
<path d="M41.8934 18.1059C41.3107 17.5253 40.5217 17.1992 39.699 17.1992C38.8764 17.1992 38.0873 17.5253 37.5046 18.1059L34.2358 21.3667L34.2262 21.3763C32.475 20.5183 30.504 20.2139 28.5756 20.5038C26.6471 20.7936 24.8527 21.6638 23.431 22.9987C22.7856 22.863 22.1136 22.9395 21.5152 23.2166C20.9167 23.4938 20.4238 23.9568 20.1098 24.5368C19.7958 25.1168 19.6775 25.7827 19.7726 26.4353C19.8677 27.088 20.171 27.6924 20.6374 28.1587L31.8422 39.3651C32.3087 39.8321 32.9135 40.1357 33.5666 40.2309C34.2197 40.326 34.8861 40.2075 35.4663 39.893C36.0465 39.5785 36.5096 39.0848 36.7864 38.4857C37.0632 37.8866 37.1389 37.214 37.0022 36.5683C38.3372 35.1464 39.2074 33.3515 39.4969 31.4228C39.7864 29.494 39.4816 27.5228 38.623 25.7715L38.6326 25.7603L41.8934 22.5075C42.1835 22.2191 42.4136 21.8761 42.5706 21.4985C42.7277 21.1208 42.8085 20.7158 42.8085 20.3067C42.8085 19.8977 42.7277 19.4927 42.5706 19.115C42.4136 18.7373 42.1835 18.3944 41.8934 18.1059ZM37.7718 24.3603C37.1777 23.5414 36.4579 22.8216 35.639 22.2275L38.6342 19.2387C38.7729 19.0919 38.9396 18.9744 39.1246 18.8932C39.3095 18.812 39.5088 18.7688 39.7107 18.7661C39.9127 18.7633 40.1131 18.8012 40.3001 18.8773C40.4872 18.9535 40.657 19.0664 40.7996 19.2094C40.9422 19.3525 41.0546 19.5226 41.1302 19.7099C41.2058 19.8972 41.2431 20.0977 41.2397 20.2996C41.2364 20.5016 41.1926 20.7008 41.1108 20.8854C41.0291 21.0701 40.9111 21.2365 40.7638 21.3747L37.7718 24.3603ZM24.9382 23.8035C26.4737 22.5471 28.4212 21.9061 30.4027 22.0049C32.3842 22.1037 34.2583 22.9353 35.6612 24.3381C37.0641 25.741 37.8956 27.6151 37.9944 29.5966C38.0932 31.5781 37.4522 33.5257 36.1958 35.0611L36.1702 35.0355L24.9654 23.8307L24.9382 23.8035ZM23.7958 24.9235L35.0758 36.2051C35.3449 36.4839 35.4921 36.8582 35.4852 37.2455C35.4783 37.6329 35.3178 38.0017 35.039 38.2707C34.7602 38.5398 34.386 38.687 33.9986 38.6801C33.6112 38.6732 33.2425 38.5127 32.9734 38.2339L21.767 27.0275C21.5006 26.7558 21.3508 26.3909 21.3493 26.0103C21.3479 25.6298 21.495 25.2638 21.7593 24.99C22.0237 24.7163 22.3844 24.5565 22.7647 24.5447C23.1451 24.5329 23.515 24.6699 23.7958 24.9267M24.967 35.0371C25.117 35.1871 25.2013 35.3906 25.2013 35.6027C25.2013 35.8148 25.117 36.0183 24.967 36.1683L21.767 39.3683C21.617 39.5185 21.4135 39.603 21.2012 39.6032C20.9889 39.6033 20.7853 39.5191 20.635 39.3691C20.4848 39.2191 20.4003 39.0156 20.4002 38.8033C20.4 38.591 20.4842 38.3873 20.6342 38.2371L23.8342 35.0371C23.9086 34.9626 23.9968 34.9035 24.094 34.8632C24.1912 34.8228 24.2954 34.8021 24.4006 34.8021C24.5059 34.8021 24.6101 34.8228 24.7073 34.8632C24.8044 34.9035 24.8927 34.9626 24.967 35.0371ZM21.767 32.9683C21.8413 32.8939 21.9002 32.8057 21.9404 32.7085C21.9805 32.6114 22.0012 32.5073 22.0011 32.4022C22.001 32.297 21.9802 32.193 21.9399 32.0959C21.8996 31.9988 21.8406 31.9106 21.7662 31.8363C21.6919 31.762 21.6036 31.7031 21.5064 31.663C21.4093 31.6228 21.3052 31.6022 21.2001 31.6023C21.095 31.6023 20.9909 31.6231 20.8938 31.6634C20.7967 31.7037 20.7085 31.7627 20.6342 31.8371L17.4342 35.0371C17.36 35.1115 17.3011 35.1998 17.2609 35.2969C17.2208 35.3941 17.2001 35.4982 17.2002 35.6033C17.2003 35.7084 17.221 35.8125 17.2613 35.9096C17.3016 36.0066 17.3607 36.0948 17.435 36.1691C17.5094 36.2434 17.5977 36.3023 17.6948 36.3425C17.792 36.3826 17.8961 36.4032 18.0012 36.4032C18.1063 36.4031 18.2104 36.3823 18.3075 36.342C18.4046 36.3017 18.4928 36.2427 18.567 36.1683L21.767 32.9683ZM28.167 38.2371C28.317 38.3871 28.4013 38.5906 28.4013 38.8027C28.4013 39.0148 28.317 39.2183 28.167 39.3683L24.967 42.5683C24.817 42.7185 24.6135 42.803 24.4012 42.8032C24.1889 42.8033 23.9853 42.7191 23.835 42.5691C23.6848 42.4191 23.6003 42.2156 23.6002 42.0033C23.6 41.791 23.6842 41.5873 23.8342 41.4371L27.0342 38.2371C27.1086 38.1626 27.1968 38.1035 27.294 38.0632C27.3912 38.0228 27.4954 38.0021 27.6006 38.0021C27.7059 38.0021 27.8101 38.0228 27.9073 38.0632C28.0044 38.1035 28.0927 38.1626 28.167 38.2371Z" fill="#33323C"/>
</svg>
