<svg width="60" height="60" viewBox="0 0 60 60" fill="none" xmlns="http://www.w3.org/2000/svg">
<circle cx="30" cy="30" r="30" fill="#FCFBB3"/>
<path d="M30.0003 40.6673H16.667V38.0007H24.3337C23.3337 34.254 20.4137 31.334 16.667 30.3473C17.5203 30.134 18.4137 30.0007 19.3337 30.0007C25.227 30.0007 30.0003 34.774 30.0003 40.6673ZM43.3337 30.3473C42.4803 30.134 41.587 30.0007 40.667 30.0007C36.7603 30.0007 33.3337 32.1073 31.4937 35.2407C31.8803 36.1207 32.2003 37.0407 32.387 38.0007C32.5603 38.8673 32.667 39.7607 32.667 40.6673H43.3337V38.0007H35.6537C36.667 34.254 39.587 31.334 43.3337 30.3473ZM34.8537 28.6673C35.8937 25.9073 37.827 23.574 40.307 22.0007C34.587 22.214 30.0003 26.894 30.0003 32.6673C31.267 31.0007 32.9337 29.6273 34.8537 28.6673ZM29.227 25.8007C28.6747 24.3504 27.8314 23.0286 26.7491 21.9165C25.6668 20.8044 24.3683 19.9255 22.9337 19.334C24.8537 21.814 26.0003 24.9073 26.0003 28.2807C26.0003 28.5607 25.9603 28.8273 25.947 29.094C26.5203 29.414 27.0537 29.7873 27.5737 30.1873C27.8586 28.6382 28.4186 27.1525 29.227 25.8007Z" fill="#33323C"/>
</svg>
