<svg width="166" height="114" viewBox="0 0 166 114" fill="none" xmlns="http://www.w3.org/2000/svg">
<path d="M135.278 27.9213L135.956 27.9213L135.956 28.5993L135.956 63.7929L154.352 63.7929L154.352 28.1982L154.915 28.1982L154.915 27.5202L155.03 27.5202L155.708 27.5202L164.41 27.5202L144.756 1.36802L125.082 27.9213L135.278 27.9213Z" fill="#FCFBB3" stroke="#FDD53E" stroke-width="1.35596"/>
<g clip-path="url(#clip0_1_31973)">
<path d="M39.6444 57.0936H26.3072V55.3928H39.6444V43.1875H0.232422V113.768H83.502V57.0936H39.6444Z" fill="#C5E7FB"/>
<path d="M25.6293 57.0936V57.7716H26.3072H39.6444H82.824V113.09H0.910403V43.8655H38.9664V54.7149H26.3072H25.6293V55.3928V57.0936Z" stroke="#2670FB" stroke-opacity="0.4" stroke-width="1.35596"/>
</g>
<path d="M47.8145 52.0839C47.8145 46.7526 52.0402 42.3906 57.2049 42.3906H151.892C157.057 42.3906 161.283 46.7526 161.283 52.0839V89.2416C161.283 94.5729 157.057 98.9349 151.892 98.9349H57.2049C52.0402 98.9349 47.8145 94.5729 47.8145 89.2416V52.0839Z" fill="white"/>
<rect x="54.9785" y="76.2031" width="89.9258" height="2.47381" rx="1.23691" fill="#EAECF6"/>
<rect x="54.9785" y="83.625" width="89.9258" height="2.47381" rx="1.23691" fill="#EAECF6"/>
<rect x="54.9785" y="57.2344" width="56.5021" height="2.47381" rx="1.23691" fill="#EAECF6"/>
<rect x="54.9785" y="64.6562" width="56.5021" height="2.47381" rx="1.23691" fill="#EAECF6"/>
<mask id="mask0_1_31973" style="mask-type:luminance" maskUnits="userSpaceOnUse" x="47" y="42" width="115" height="57">
<path d="M47.8105 52.0839C47.8105 46.7526 52.0363 42.3906 57.201 42.3906H151.888C157.053 42.3906 161.279 46.7526 161.279 52.0839V89.2416C161.279 94.5729 157.053 98.9349 151.888 98.9349H57.201C52.0363 98.9349 47.8105 94.5729 47.8105 89.2416V52.0839Z" fill="white"/>
</mask>
<g mask="url(#mask0_1_31973)">
<path d="M57.2004 41.5859C51.5661 41.5859 47.0273 46.271 47.0273 52.087H48.5924C48.5924 47.1596 52.4269 43.2015 57.2004 43.2015V41.5859ZM151.888 43.2015C156.661 43.2015 160.496 47.1596 160.496 52.087H162.061C162.061 46.271 157.522 41.5859 151.888 41.5859V43.2015ZM160.496 89.2447C160.496 94.1721 156.661 98.1302 151.888 98.1302V99.7457C157.522 99.7457 162.061 95.0606 162.061 89.2447H160.496ZM57.2004 98.1302C52.4269 98.1302 48.5924 94.1721 48.5924 89.2447H47.0273C47.0273 95.0606 51.5661 99.7457 57.2004 99.7457V98.1302ZM48.5924 89.2447V52.087H47.0273V89.2447H48.5924ZM151.888 98.1302H57.2004V99.7457H151.888V98.1302ZM160.496 52.087V89.2447H162.061V52.087H160.496ZM57.2004 43.2015H151.888V41.5859H57.2004V43.2015Z" fill="#CED8E3"/>
</g>
<defs>
<clipPath id="clip0_1_31973">
<rect width="83.2696" height="70.5809" fill="white" transform="translate(0.232422 43.1875)"/>
</clipPath>
</defs>
</svg>
