<svg width="60" height="60" viewBox="0 0 60 60" fill="none" xmlns="http://www.w3.org/2000/svg">
<circle cx="30" cy="30" r="30" fill="#FCFBB3"/>
<path d="M39.6496 22.3166C40.6424 23.3094 41.215 24.6462 41.2485 26.0499C41.282 27.4535 40.7739 28.8162 39.8296 29.8552L29.9989 40.6686L20.1723 29.8552C19.6735 29.3148 19.289 28.6792 19.0417 27.9866C18.7944 27.294 18.6896 26.5585 18.7333 25.8244C18.7771 25.0903 18.9686 24.3725 19.2964 23.7142C19.6242 23.0558 20.0815 22.4704 20.6409 21.9931C21.2004 21.5157 21.8505 21.1562 22.5522 20.936C23.2539 20.7159 23.9928 20.6397 24.7247 20.712C25.4566 20.7843 26.1663 21.0036 26.8114 21.3567C27.4565 21.7099 28.0237 22.1896 28.4789 22.7672L30.0003 24.6672L31.5203 22.7672C32.0003 22.1673 32.6014 21.6754 33.2845 21.3235C33.9675 20.9717 34.7171 20.7678 35.4842 20.7253C36.2514 20.6828 37.0189 20.8025 37.7366 21.0767C38.4544 21.3509 39.1062 21.7734 39.6496 22.3166Z" stroke="black" stroke-width="2.66667" stroke-linecap="round" stroke-linejoin="round"/>
</svg>
