<svg width="60" height="60" viewBox="0 0 60 60" fill="none" xmlns="http://www.w3.org/2000/svg">
<circle cx="30" cy="30" r="30" fill="#FCFBB3"/>
<path d="M29.9998 27.3327C32.9464 27.3327 35.3331 24.946 35.3331 21.9993C35.3331 19.0527 32.9464 16.666 29.9998 16.666C27.0531 16.666 24.6664 19.0527 24.6664 21.9993C24.6664 24.946 27.0531 27.3327 29.9998 27.3327ZM29.9998 19.3327C31.4664 19.3327 32.6664 20.5327 32.6664 21.9993C32.6664 23.466 31.4664 24.666 29.9998 24.666C28.5331 24.666 27.3331 23.466 27.3331 21.9993C27.3331 20.5327 28.5331 19.3327 29.9998 19.3327ZM38.5198 30.746C36.2798 29.5993 33.3731 28.666 29.9998 28.666C26.6264 28.666 23.7198 29.5993 21.4798 30.746C20.8292 31.0811 20.2842 31.5899 19.9052 32.216C19.5263 32.8421 19.3283 33.5609 19.3331 34.2927V43.3327H21.9998V34.2927C21.9998 33.786 22.2664 33.3327 22.6664 33.1193C24.2798 32.306 26.8398 31.3327 29.9998 31.3327C31.0131 31.3327 31.9598 31.426 32.8398 31.5993L30.7731 35.9993H26.9998C24.9731 35.9993 23.3331 37.6393 23.3331 39.666C23.3331 41.6927 24.9731 43.3327 26.9998 43.3327H37.9998C39.4664 43.3327 40.6664 42.1327 40.6664 40.666V34.2927C40.6664 32.7993 39.8531 31.426 38.5198 30.746ZM28.5864 40.666H26.9998C26.4531 40.666 25.9998 40.2127 25.9998 39.666C25.9998 39.1193 26.4531 38.666 26.9998 38.666H29.5198L28.5864 40.666ZM37.9998 40.666H31.5331L35.4531 32.306C36.1731 32.5727 36.7998 32.8527 37.3331 33.1193C37.7331 33.3327 37.9998 33.786 37.9998 34.2927V40.666Z" fill="black"/>
</svg>
