<svg width="60" height="60" viewBox="0 0 60 60" fill="none" xmlns="http://www.w3.org/2000/svg">
<circle cx="30" cy="30" r="30" fill="#FCFBB3"/>
<g clip-path="url(#clip0_500_26176)">
<path d="M37.9997 45.9987V29.9987M44.6663 43.332L31.333 33.9987M44.6663 33.9987L31.333 43.332M24.6663 28.6654C26.4345 28.6654 28.1301 27.963 29.3804 26.7127C30.6306 25.4625 31.333 23.7668 31.333 21.9987C31.333 20.2306 30.6306 18.5349 29.3804 17.2847C28.1301 16.0344 26.4345 15.332 24.6663 15.332C22.8982 15.332 21.2025 16.0344 19.9523 17.2847C18.7021 18.5349 17.9997 20.2306 17.9997 21.9987C17.9997 23.7668 18.7021 25.4625 19.9523 26.7127C21.2025 27.963 22.8982 28.6654 24.6663 28.6654ZM24.6663 28.6654C27.3503 28.6654 29.6957 29.6787 31.3637 31.3627M24.6663 28.6654C19.333 28.6654 15.333 32.6654 15.333 37.9987V44.6654H28.6663" stroke="black" stroke-width="2.66667"/>
</g>
<defs>
<clipPath id="clip0_500_26176">
<rect width="32" height="32" fill="white" transform="translate(14 14)"/>
</clipPath>
</defs>
</svg>
