<svg width="60" height="60" viewBox="0 0 60 60" fill="none" xmlns="http://www.w3.org/2000/svg">
<circle cx="30" cy="30" r="30" fill="#FCFBB3"/>
<path d="M25.7333 28.9328C24.3188 28.9328 22.9622 28.3709 21.962 27.3707C20.9618 26.3705 20.3999 25.014 20.3999 23.5995V19.3328C20.3999 19.0499 20.5123 18.7786 20.7124 18.5786C20.9124 18.3785 21.1837 18.2661 21.4666 18.2661H22.5333C22.8162 18.2661 23.0875 18.1538 23.2875 17.9537C23.4876 17.7537 23.5999 17.4824 23.5999 17.1995C23.5999 16.9166 23.4876 16.6453 23.2875 16.4452C23.0875 16.2452 22.8162 16.1328 22.5333 16.1328H21.4666C20.6179 16.1328 19.804 16.47 19.2039 17.0701C18.6037 17.6702 18.2666 18.4841 18.2666 19.3328V23.5995C18.268 24.8045 18.5618 25.9912 19.1229 27.0577C19.684 28.1242 20.4956 29.0385 21.4879 29.7221C22.4414 30.5627 23.2146 31.5877 23.7609 32.7354C24.3072 33.883 24.6153 35.1295 24.6666 36.3995C24.6666 38.3798 25.4533 40.2789 26.8535 41.6792C28.2538 43.0795 30.153 43.8661 32.1333 43.8661C34.1136 43.8661 36.0127 43.0795 37.413 41.6792C38.8133 40.2789 39.5999 38.3798 39.5999 36.3995V35.1835C40.6054 34.9239 41.4817 34.3064 42.0646 33.4469C42.6474 32.5874 42.8968 31.5449 42.7659 30.5147C42.6351 29.4845 42.133 28.5374 41.3538 27.8509C40.5746 27.1644 39.5717 26.7856 38.5333 26.7856C37.4948 26.7856 36.492 27.1644 35.7128 27.8509C34.9335 28.5374 34.4315 29.4845 34.3006 30.5147C34.1698 31.5449 34.4191 32.5874 35.002 33.4469C35.5848 34.3064 36.4611 34.9239 37.4666 35.1835V36.3995C37.4666 37.814 36.9047 39.1705 35.9045 40.1707C34.9043 41.1709 33.5478 41.7328 32.1333 41.7328C30.7188 41.7328 29.3622 41.1709 28.362 40.1707C27.3618 39.1705 26.7999 37.814 26.7999 36.3995C26.8539 35.1279 27.1654 33.8805 27.7154 32.7328C28.2654 31.585 29.0426 30.5608 29.9999 29.7221C30.9883 29.0361 31.7958 28.1207 32.3531 27.0544C32.9104 25.9881 33.2009 24.8026 33.1999 23.5995V19.3328C33.1999 18.4841 32.8628 17.6702 32.2627 17.0701C31.6626 16.47 30.8486 16.1328 29.9999 16.1328H28.9333C28.6504 16.1328 28.3791 16.2452 28.179 16.4452C27.979 16.6453 27.8666 16.9166 27.8666 17.1995C27.8666 17.4824 27.979 17.7537 28.179 17.9537C28.3791 18.1538 28.6504 18.2661 28.9333 18.2661H29.9999C30.2828 18.2661 30.5541 18.3785 30.7542 18.5786C30.9542 18.7786 31.0666 19.0499 31.0666 19.3328V23.5995C31.0666 24.2999 30.9287 24.9934 30.6606 25.6405C30.3926 26.2875 29.9997 26.8755 29.5045 27.3707C29.0093 27.866 28.4213 28.2588 27.7742 28.5268C27.1272 28.7949 26.4337 28.9328 25.7333 28.9328ZM38.5333 33.1995C37.9675 33.1995 37.4249 32.9747 37.0248 32.5746C36.6247 32.1746 36.3999 31.6319 36.3999 31.0661C36.3999 30.5003 36.6247 29.9577 37.0248 29.5577C37.4249 29.1576 37.9675 28.9328 38.5333 28.9328C39.0991 28.9328 39.6417 29.1576 40.0418 29.5577C40.4418 29.9577 40.6666 30.5003 40.6666 31.0661C40.6666 31.6319 40.4418 32.1746 40.0418 32.5746C39.6417 32.9747 39.0991 33.1995 38.5333 33.1995Z" fill="black"/>
</svg>
