<svg width="40" height="41" viewBox="0 0 40 41" fill="none" xmlns="http://www.w3.org/2000/svg">
<path d="M0 0.499756H40V40.4998H0V0.499756Z" fill="white" fill-opacity="0.01"/>
<path d="M19.998 3.83301V10.4997" stroke="#33323C" stroke-width="2.25" stroke-linecap="round" stroke-linejoin="round"/>
<path d="M31.7844 8.7146L27.0703 13.4287" stroke="#33323C" stroke-width="2.25" stroke-linecap="round" stroke-linejoin="round"/>
<path d="M36.6647 20.4995H29.998" stroke="#33323C" stroke-width="2.25" stroke-linecap="round" stroke-linejoin="round"/>
<path d="M31.7844 32.2846L27.0703 27.5706" stroke="#33323C" stroke-width="2.25" stroke-linecap="round" stroke-linejoin="round"/>
<path d="M19.998 37.1662V30.4995" stroke="#33323C" stroke-width="2.25" stroke-linecap="round" stroke-linejoin="round"/>
<path d="M8.21484 32.2846L12.9289 27.5706" stroke="#33323C" stroke-width="2.25" stroke-linecap="round" stroke-linejoin="round"/>
<path d="M3.33203 20.4995H9.9987" stroke="#33323C" stroke-width="2.25" stroke-linecap="round" stroke-linejoin="round"/>
<path d="M8.21484 8.7146L12.9289 13.4287" stroke="#33323C" stroke-width="2.25" stroke-linecap="round" stroke-linejoin="round"/>
<path d="M13.6211 5.10156L14.8968 8.18116" stroke="#33323C" stroke-width="2.25" stroke-linecap="round" stroke-linejoin="round"/>
<path d="M4.60156 14.1216L7.68116 15.3972" stroke="#33323C" stroke-width="2.25" stroke-linecap="round" stroke-linejoin="round"/>
<path d="M4.60156 26.8777L7.68116 25.6021" stroke="#33323C" stroke-width="2.25" stroke-linecap="round" stroke-linejoin="round"/>
<path d="M13.6211 35.8977L14.8968 32.8181" stroke="#33323C" stroke-width="2.25" stroke-linecap="round" stroke-linejoin="round"/>
<path d="M26.3772 35.8977L25.1016 32.8181" stroke="#33323C" stroke-width="2.25" stroke-linecap="round" stroke-linejoin="round"/>
<path d="M35.396 26.8777L32.3164 25.6021" stroke="#33323C" stroke-width="2.25" stroke-linecap="round" stroke-linejoin="round"/>
<path d="M35.396 14.1216L32.3164 15.3972" stroke="#33323C" stroke-width="2.25" stroke-linecap="round" stroke-linejoin="round"/>
<path d="M26.3772 5.10156L25.1016 8.18116" stroke="#33323C" stroke-width="2.25" stroke-linecap="round" stroke-linejoin="round"/>
</svg>
