<svg width="63" height="63" viewBox="0 0 63 63" fill="none" xmlns="http://www.w3.org/2000/svg">
<circle cx="31.5" cy="31.5" r="31.5" fill="#FCFBB3"/>
<path d="M33.5905 18.4085L33.5905 18.4085L43.5899 28.4079C43.59 28.408 43.5901 28.4082 43.5903 28.4083C43.8002 28.6168 43.9667 28.8649 44.0799 29.1383C44.1932 29.4116 44.251 29.7048 44.25 30.0007V30.0003H44L44.25 30.0012L44.25 42.0003C44.25 42.3318 44.1183 42.6498 43.8839 42.8842C43.6495 43.1186 43.3315 43.2503 43 43.2503H35C34.6685 43.2503 34.3505 43.1186 34.1161 42.8842C33.8817 42.6498 33.75 42.3318 33.75 42.0003V35.2503H30.25V42.0003C30.25 42.3318 30.1183 42.6498 29.8839 42.8842C29.6495 43.1186 29.3315 43.2503 29 43.2503H21C20.6685 43.2503 20.3506 43.1186 20.1161 42.8842C19.8817 42.6498 19.75 42.3318 19.75 42.0003V30.0008V30.0003H20C19.9991 29.7374 20.0504 29.4769 20.1511 29.234C20.2517 28.991 20.3996 28.7706 20.5863 28.5853L33.5905 18.4085ZM33.5905 18.4085C33.1686 17.9869 32.5965 17.75 32 17.75C31.4035 17.75 30.8315 17.9869 30.4095 18.4085L30.4095 18.4085L20.4101 28.4079C20.41 28.408 20.4099 28.4081 20.4098 28.4083L33.5905 18.4085ZM41.75 40.7503H36.25V34.0003C36.25 33.6688 36.1183 33.3509 35.8839 33.1164C35.6495 32.882 35.3315 32.7503 35 32.7503H29C28.6685 32.7503 28.3505 32.882 28.1161 33.1164C27.8817 33.3509 27.75 33.6688 27.75 34.0003V40.7503H22.25V30.1039L32 20.3539L41.75 30.1039V40.7503Z" fill="#33323C" stroke="#33323C" stroke-width="0.5"/>
</svg>
