<svg width="63" height="63" viewBox="0 0 63 63" fill="none" xmlns="http://www.w3.org/2000/svg">
<circle cx="31.5" cy="31.5" r="31.5" fill="#FCFBB3"/>
<g clip-path="url(#clip0_500_26469)">
<path d="M40.2962 45.194L33.1851 40.9648V32.5468L40.2962 28.3176L47.4073 32.5468V40.9246L40.2962 45.194ZM36.5827 33.2718L40.2962 35.4871L44.0098 33.2718L40.2962 31.0968L36.5827 33.2718ZM41.4814 41.6496L45.037 39.5551V35.1246L41.4814 37.2593V41.6496ZM35.5555 39.5551L39.111 41.6898V37.2996L35.5555 35.1648V39.5551ZM29.2345 30.2912C27.4962 30.2912 26.0082 29.6602 24.7703 28.3982C23.5324 27.1361 22.9135 25.619 22.9135 23.8468C22.9135 22.0746 23.5324 20.5574 24.7703 19.2954C26.0082 18.0334 27.4962 17.4023 29.2345 17.4023C30.9728 17.4023 32.4608 18.0334 33.6987 19.2954C34.9366 20.5574 35.5555 22.0746 35.5555 23.8468C35.5555 25.619 34.9366 27.1361 33.6987 28.3982C32.4608 29.6602 30.9728 30.2912 29.2345 30.2912ZM16.5925 43.1801V38.669C16.5925 37.7829 16.8164 36.9505 17.2641 36.1718C17.7119 35.3931 18.3308 34.8023 19.1209 34.3996C20.4641 33.7014 21.9785 33.1107 23.6641 32.6273C25.3497 32.144 27.2065 31.9023 29.2345 31.9023H29.7876C29.9456 31.9023 30.1036 31.9292 30.2617 31.9829C30.051 32.4662 29.8735 32.97 29.7291 33.4941C29.5848 34.0183 29.4726 34.5618 29.3925 35.1246H29.2345C27.3645 35.1246 25.6858 35.3662 24.1983 35.8496C22.7107 36.3329 21.4923 36.8162 20.5431 37.2996C20.3061 37.4338 20.1149 37.6218 19.9695 37.8635C19.8241 38.1051 19.752 38.3736 19.753 38.669V39.9579H29.7086C29.8666 40.5218 30.0773 41.0792 30.3407 41.6302C30.6041 42.1812 30.8938 42.6979 31.2098 43.1801H16.5925ZM29.2345 27.069C30.1036 27.069 30.8479 26.7538 31.4674 26.1233C32.0869 25.4928 32.3961 24.734 32.395 23.8468C32.3939 22.9596 32.0847 22.2013 31.4674 21.5719C30.85 20.9425 30.1057 20.6267 29.2345 20.6246C28.3633 20.6224 27.6195 20.9382 27.0032 21.5719C26.3869 22.2056 26.0772 22.9639 26.074 23.8468C26.0709 24.7297 26.3806 25.4885 27.0032 26.1233C27.6258 26.7581 28.3696 27.0733 29.2345 27.069Z" fill="#33323C"/>
</g>
<defs>
<clipPath id="clip0_500_26469">
<rect width="32" height="29" fill="white" transform="translate(16 17)"/>
</clipPath>
</defs>
</svg>
