<svg width="63" height="63" viewBox="0 0 63 63" fill="none" xmlns="http://www.w3.org/2000/svg">
<circle cx="31.5" cy="31.5" r="31.5" fill="#FCFBB3"/>
<path d="M28.1668 32.3346H36.1668M28.1668 37.668H32.1668M21.5001 20.3346V41.668C21.5001 42.3752 21.7811 43.0535 22.2812 43.5536C22.7813 44.0537 23.4595 44.3346 24.1668 44.3346H40.1668C40.874 44.3346 41.5523 44.0537 42.0524 43.5536C42.5525 43.0535 42.8335 42.3752 42.8335 41.668V26.124C42.8334 25.7687 42.7624 25.4171 42.6245 25.0896C42.4867 24.7622 42.2848 24.4656 42.0308 24.2173L36.1108 18.428C35.6126 17.9408 34.9436 17.6681 34.2468 17.668H24.1668C23.4595 17.668 22.7813 17.9489 22.2812 18.449C21.7811 18.9491 21.5001 19.6274 21.5001 20.3346Z" stroke="#33323C" stroke-width="2.66667" stroke-linecap="round" stroke-linejoin="round"/>
<path d="M34.8335 17.668V23.0013C34.8335 23.7085 35.1144 24.3868 35.6145 24.8869C36.1146 25.387 36.7929 25.668 37.5002 25.668H42.8335" stroke="#33323C" stroke-width="2.66667" stroke-linejoin="round"/>
</svg>
