<svg width="55" height="41" viewBox="0 0 55 41" fill="none" xmlns="http://www.w3.org/2000/svg">
<path d="M51.5897 0.499999L35.1312 0.515981C33.3222 0.515981 31.7308 1.88388 31.7308 3.68281V12.1363C31.7117 13.5658 33.8655 13.5658 33.8462 12.1363V3.68281C33.8462 3.14633 34.3434 2.63131 35.1312 2.63131L51.5918 2.61533C52.383 2.61533 52.883 3.13181 52.883 3.67305V30.1158H32.803C32.2205 30.1159 31.7476 30.5869 31.7453 31.1694C31.7453 31.1694 31.7305 35.4027 31.7305 37.5198C31.7305 38.4431 32.1512 39.2486 32.8027 39.8191V39.8974H32.9063C33.5148 40.3906 34.2991 40.6928 35.1373 40.6928H51.5918C52.4301 40.6928 53.2122 40.3906 53.8208 39.8974H53.84V39.8814C54.5375 39.3082 54.999 38.479 54.999 37.5181V3.67135C54.999 1.86869 53.4027 0.499999 51.5897 0.499999ZM43.3636 34.3466C43.5025 34.3466 43.64 34.374 43.7683 34.4271C43.8967 34.4803 44.0133 34.5582 44.1115 34.6564C44.2097 34.7546 44.2876 34.8712 44.3408 34.9995C44.3939 35.1279 44.4213 35.2654 44.4213 35.4043C44.4213 35.5432 44.3939 35.6808 44.3408 35.8091C44.2876 35.9375 44.2097 36.0541 44.1115 36.1523C44.0133 36.2505 43.8967 36.3284 43.7683 36.3815C43.64 36.4347 43.5025 36.4621 43.3636 36.4621C43.2247 36.4621 43.0871 36.4347 42.9588 36.3815C42.8305 36.3284 42.7139 36.2505 42.6157 36.1523C42.5174 36.0541 42.4395 35.9375 42.3864 35.8091C42.3332 35.6808 42.3059 35.5432 42.3059 35.4043C42.3058 35.2654 42.3332 35.1279 42.3864 34.9995C42.4395 34.8712 42.5174 34.7546 42.6156 34.6564C42.7139 34.5582 42.8305 34.4803 42.9588 34.4271C43.0871 34.374 43.2247 34.3466 43.3636 34.3466Z" fill="black"/>
<path d="M35.9576 15.3061C32.4656 15.3061 29.6135 18.1599 29.6135 21.6524C29.6135 22.4121 29.7755 23.2347 30.0411 23.9414L27.808 26.189C27.1421 26.8553 27.6139 27.9941 28.5558 27.9945H35.9576C39.4495 27.9945 42.3039 25.1407 42.3039 21.6482C42.3039 18.1558 39.4495 15.302 35.9576 15.302V15.3061Z" fill="black"/>
<path d="M35.9609 11.0784V13.1938C40.6467 13.1938 44.4226 16.9697 44.4226 21.6555H46.538C46.538 15.8265 41.79 11.0784 35.9609 11.0784Z" fill="black"/>
<path d="M35.9609 6.84595V8.9614C42.9833 8.9614 48.6535 14.6314 48.6535 21.6539H50.7689C50.7689 13.4882 44.1266 6.84595 35.9609 6.84595Z" fill="black"/>
<path fill-rule="evenodd" clip-rule="evenodd" d="M10.5694 29.0597C10.4286 29.0611 10.2896 29.0906 10.1604 29.1465L2.75642 32.3196C2.61928 32.3783 2.49611 32.4653 2.395 32.575C2.29388 32.6846 2.2171 32.8145 2.1697 32.956L0.0542852 39.3022C0.00132243 39.4611 -0.0131569 39.6302 0.012039 39.7958C0.0372349 39.9614 0.101386 40.1186 0.199213 40.2545C0.29704 40.3905 0.425748 40.5013 0.574745 40.5778C0.723743 40.6543 0.888772 40.6943 1.05625 40.6946H28.5567C28.7244 40.6946 28.8896 40.6548 29.0389 40.5784C29.1881 40.5021 29.3171 40.3914 29.4152 40.2554C29.5132 40.1194 29.5775 39.962 29.6028 39.7963C29.6281 39.6306 29.6137 39.4613 29.5607 39.3022L27.4453 32.956C27.3979 32.8145 27.3211 32.6846 27.22 32.575C27.1188 32.4653 26.9957 32.3783 26.8585 32.3196L19.4546 29.1465C19.294 29.0774 19.1189 29.0491 18.9448 29.0642C18.7707 29.0794 18.603 29.1374 18.4568 29.2332C17.6846 29.7405 16.2587 30.1071 14.8292 30.1173C13.3996 30.1293 11.9726 29.784 11.1685 29.2415C10.9917 29.1218 10.7829 29.0585 10.5694 29.0597Z" fill="black"/>
<path d="M14.8037 6.84595C8.96225 6.84595 4.22656 11.5817 4.22656 17.4231V22.7116C4.22656 24.4512 5.66008 25.8848 7.39969 25.8848H10.5893V23.7693H7.39969C6.79542 23.7693 6.34198 23.3158 6.34198 22.7116V17.4231C6.34198 12.717 10.0976 8.9614 14.8037 8.9614C19.5097 8.9614 23.2653 12.717 23.2653 17.4231V22.7116C23.2653 23.3158 22.8119 23.7693 22.2076 23.7693H19.018V25.8848H22.2076C23.9472 25.8848 25.3808 24.4512 25.3808 22.7116V17.4231C25.3808 11.5817 20.6451 6.84595 14.8037 6.84595Z" fill="black"/>
<path d="M11.6341 15.3093C9.89445 15.3093 8.46094 16.7429 8.46094 18.4825V21.6557C8.46094 25.1532 11.3097 28.0019 14.8072 28.0019C18.3047 28.0019 21.1535 25.1532 21.1535 21.6557V18.4825C21.1535 16.7429 19.7199 15.3093 17.9803 15.3093H11.6341Z" fill="black"/>
</svg>
