<svg width="110" height="76" viewBox="0 0 110 76" fill="none" xmlns="http://www.w3.org/2000/svg">
<path d="M39.0922 30.3483V9.77512C39.1571 3.17033 52.0115 2.17947 57.7215 1.73932C58.6155 1.67041 59.3343 1.615 59.8015 1.55366C63.4032 1.03577 70.2312 0 70.2312 0C69.195 9.61066 63.1153 16.0061 56.8671 20.247C61.0908 22.967 68.9268 29.3651 70.2308 40.0067C70.2308 40.0067 63.7779 39.1651 61.2268 39.1651C58.6756 39.1651 39.0168 39.1651 39.0168 30.4905L39.0922 30.3483Z" fill="#FDD53E"/>
<path d="M109.699 67.0664L109.924 67.2606V46.5451H106.548V60.3986L90.1155 45.833L89.8904 45.6388V66.2248H93.2669V52.5655L109.699 67.0664Z" fill="#FDD53E"/>
<path d="M88.1646 66.1601L88.0146 66.0306L77.4348 45.8977L77.2847 45.7035L77.1347 45.8977L66.63 66.0306L66.5549 66.1601H70.1565V66.0953L77.3598 52.2419L84.638 66.0953V66.1601H88.1646Z" fill="#FDD53E"/>
<path d="M62.278 57.1618V66.1601L59.1266 66.0953H58.9765V57.1618L51.6232 46.6746L51.4731 46.4804H55.1498L55.2248 46.5451L60.6273 54.1839L65.9547 46.5451L66.0297 46.4804H69.7814L69.6313 46.6746L62.278 57.1618Z" fill="#FDD53E"/>
<path d="M52.6737 66.1601V63.247H45.3204V46.4804H42.0189V66.1601H52.6737Z" fill="#FDD53E"/>
<path d="M40.143 66.1601V66.0306L29.5633 45.8977L29.4132 45.7035L29.2632 45.8977L18.7584 66.0306L18.6834 66.1601H22.21V66.0953L29.4132 52.2419L36.6915 66.0953V66.1601H40.143Z" fill="#FDD53E"/>
<path d="M17.4829 66.1601L17.2578 66.0306L6.37787 55.7376L17.1827 46.8041L17.4078 46.6098H12.7557L3.37652 54.2487V46.4804H0V66.1601H3.37652V56.8381L13.1309 66.0953L13.2059 66.1601H17.4829Z" fill="#FDD53E"/>
<path d="M11.5558 70.109V75.6762H16.433V75.0289H12.4562V73.1515H15.9828V72.5042H12.4562V70.7563H16.2829V70.109H11.5558Z" fill="#FDD53E"/>
<path d="M0.899735 74.0578L0.149398 74.1225C0.0743644 74.6404 0.224432 75.0935 0.524567 75.4819C0.824702 75.8056 1.19987 75.9351 1.80014 75.9351C2.17531 75.9351 2.47544 75.8704 2.77558 75.7409C3.07571 75.6114 3.22578 75.4172 3.37585 75.1583C3.52592 74.8993 3.60095 74.5109 3.60095 74.0578V70.2383H2.77558V74.0578C2.77558 74.3814 2.77558 74.6404 2.70054 74.7699C2.70054 74.8993 2.55048 75.0288 2.40041 75.0935C2.25034 75.1583 2.10028 75.223 1.87517 75.223C1.57504 75.223 1.34994 75.0935 1.19987 74.9641C1.0498 74.7699 0.899735 74.5109 0.899735 74.0578Z" fill="#FDD53E"/>
<path d="M25.2122 75.6762L23.4864 70.109H24.3868L25.3623 73.7342C25.3998 73.9284 25.4561 74.1226 25.5123 74.3168C25.5686 74.511 25.6249 74.7052 25.6624 74.8994C25.7008 74.7503 25.7343 74.6139 25.7641 74.4923C25.8509 74.1391 25.9067 73.9118 25.9625 73.8636L27.1631 70.109H28.2135L29.114 72.9573C29.3391 73.6694 29.4891 74.3168 29.6392 74.9641C29.6651 74.8524 29.6999 74.7252 29.7375 74.588C29.8089 74.3276 29.8902 74.0309 29.9393 73.7342L30.9898 70.1737H31.8152L30.0144 75.741H29.189L27.8384 71.4684C27.7602 71.2997 27.7227 71.1487 27.6942 71.0335C27.6679 70.9276 27.6492 70.8521 27.6133 70.8211C27.5382 71.08 27.4632 71.2742 27.3882 71.4684L26.0376 75.741H25.2122V75.6762Z" fill="#FDD53E"/>
<path d="M39.1677 70.109V75.6762H43.9698V75.0289H39.993V73.1515H43.5946V72.5042H39.993V70.7563H43.8197V70.109H39.1677Z" fill="#FDD53E"/>
<path d="M51.624 75.6762V70.109H52.4493V75.0289H55.6758V75.6762H51.624Z" fill="#FDD53E"/>
<path d="M66.2538 70.109V75.6762H70.3056V75.0289H67.0792V70.109H66.2538Z" fill="#FDD53E"/>
<path d="M77.9605 75.6762V70.109H82.6126V70.7563H78.7858V72.5042H82.3875V73.1515H78.7858V75.0289H82.7626V75.6762H77.9605Z" fill="#FDD53E"/>
<path fill-rule="evenodd" clip-rule="evenodd" d="M90.5653 70.109V75.5468H91.6158V73.0868H93.0415C93.1513 73.0868 93.221 73.1215 93.3093 73.1655L93.3307 73.1761C93.357 73.1891 93.3852 73.2027 93.4166 73.2163C93.5667 73.281 93.7168 73.4105 93.8668 73.6047C93.9122 73.6634 93.9644 73.728 94.0214 73.7985C94.1528 73.9612 94.3103 74.1561 94.4671 74.3815L95.2925 75.5468H96.3429L95.2174 74.0578C94.9923 73.7989 94.7672 73.5399 94.5421 73.3457C94.4864 73.3217 94.4306 73.2887 94.371 73.2534C94.2703 73.1938 94.1582 73.1274 94.0169 73.0868C94.6172 73.0221 95.0674 72.8279 95.3675 72.5689C95.6676 72.31 95.8177 71.9863 95.8177 71.5979C95.8177 71.2742 95.6676 71.0153 95.5176 70.7563C95.2925 70.4974 95.0674 70.3679 94.7672 70.2384C94.4671 70.1737 94.0169 70.109 93.4166 70.109H90.5653ZM93.2666 72.5689H91.3907L91.4658 70.6916H93.4917C93.9419 70.6916 94.317 70.7563 94.5421 70.9505C94.7672 71.1447 94.8423 71.3389 94.8423 71.5979C94.8423 71.7921 94.8423 71.9863 94.6922 72.1158C94.5421 72.2452 94.3921 72.3747 94.167 72.4394C93.9419 72.5042 93.6417 72.5689 93.2666 72.5689Z" fill="#FDD53E"/>
<path d="M104.823 73.9284L105.648 73.8637C105.648 74.1227 105.798 74.3816 105.948 74.5758C106.098 74.77 106.323 74.8995 106.623 75.029C106.924 75.1584 107.224 75.2232 107.599 75.2232C107.899 75.2232 108.199 75.1584 108.499 75.0937C108.724 75.029 108.95 74.8995 109.025 74.77C109.175 74.6405 109.175 74.4463 109.175 74.3169C109.175 74.1227 109.1 73.9932 109.025 73.8637C108.874 73.7342 108.724 73.6048 108.424 73.54C108.316 73.4934 108.091 73.4467 107.749 73.3758C107.617 73.3484 107.466 73.3172 107.299 73.2811C106.947 73.2052 106.673 73.1294 106.445 73.0666C106.285 73.0221 106.148 72.9842 106.023 72.9574C105.723 72.8279 105.498 72.6337 105.348 72.4395C105.198 72.2453 105.123 71.9864 105.123 71.7274C105.123 71.4685 105.198 71.2095 105.423 70.9506C105.573 70.6917 105.873 70.4975 106.248 70.368C106.623 70.2385 106.999 70.1738 107.449 70.1738C107.899 70.1738 108.349 70.2385 108.724 70.368C109.1 70.4975 109.4 70.6917 109.55 70.9506C109.775 71.2095 109.85 71.5332 109.85 71.8569L109.025 71.9216C108.95 71.598 108.799 71.2743 108.574 71.1448C108.349 70.9506 107.974 70.8859 107.449 70.8859C106.924 70.8859 106.548 70.9506 106.323 71.1448C106.098 71.339 105.948 71.5332 105.948 71.7274C105.948 71.9216 106.023 72.1158 106.173 72.2453C106.323 72.3748 106.774 72.5043 107.449 72.6337C108.124 72.7632 108.649 72.8927 108.874 73.0221C109.25 73.1516 109.55 73.3458 109.7 73.6048C109.85 73.8637 110 74.1227 110 74.3816C110 74.7053 109.925 74.9642 109.7 75.2232C109.475 75.4821 109.25 75.6763 108.874 75.8058C108.499 75.9353 108.124 76 107.599 76C106.999 76 106.548 75.9353 106.098 75.8058C105.723 75.6763 105.423 75.4174 105.198 75.1584C104.973 74.6405 104.823 74.2521 104.823 73.9284Z" fill="#FDD53E"/>
</svg>
