<svg width="221" height="34" viewBox="0 0 221 34" fill="none" xmlns="http://www.w3.org/2000/svg">
<path d="M156.51 8.56539H149.975V4.25H145.816V29.9462H149.975V12.6192H156.51V8.56539Z" fill="#0B0A14"/>
<path d="M175.85 21.1174C175.916 19.2867 175.52 17.4559 174.728 15.8213C174.002 14.3828 172.88 13.1405 171.428 12.3559C169.778 11.5059 167.929 11.0482 166.081 11.1136C164.233 11.1136 162.451 11.5059 160.866 12.3559C159.348 13.1405 158.028 14.3174 157.17 15.8213C156.246 17.3251 155.784 19.0905 155.784 20.8559C155.718 22.6213 156.18 24.3867 157.038 25.8905C157.896 27.329 159.15 28.5059 160.668 29.2251C162.385 30.0097 164.299 30.4674 166.213 30.402C168.193 30.4674 170.174 30.0097 171.956 29.029C173.474 28.179 174.662 27.002 175.586 25.5636L172.286 24.1251C171.758 25.1059 170.966 25.9559 170.042 26.6097C168.985 27.2636 167.797 27.5905 166.543 27.5251C164.695 27.5905 162.913 26.9367 161.592 25.6944C160.536 24.5828 159.942 23.1444 159.876 21.5751V21.379H175.916L175.85 21.1174ZM160.008 18.6982V18.502C160.14 17.652 160.47 16.8674 160.932 16.1482C161.46 15.3636 162.253 14.7751 163.111 14.3828C164.035 13.9905 165.025 13.7944 166.015 13.7944C167.863 13.7944 169.316 14.252 170.24 15.2328C171.098 16.1482 171.626 17.2597 171.758 18.502V18.6982H160.008Z" fill="#0B0A14"/>
<path d="M208.655 15.4943C209.711 14.9058 210.834 14.5789 212.022 14.5789C213.408 14.4481 214.728 15.0366 215.652 16.0174C216.444 16.9981 216.84 18.4366 216.84 20.3328V29.8789H220.999V19.0251C221.131 16.9981 220.405 14.9712 219.019 13.4674C217.632 12.0289 215.652 11.3097 213.672 11.4404C212.286 11.4404 210.9 11.7674 209.645 12.4212C208.391 13.0751 207.335 13.9904 206.543 15.1674C206.213 15.6251 205.949 16.1481 205.751 16.6712L205.421 17.4558V4.37891H201.328V30.0751H205.421V22.1635C205.421 20.7904 205.685 19.4174 206.279 18.1097C206.741 16.9981 207.599 16.0828 208.655 15.4943Z" fill="#0B0A14"/>
<path d="M198.885 21.3808H194.727V21.7731C194.661 22.6885 194.397 23.5385 194 24.3885C193.538 25.3693 192.746 26.1539 191.822 26.7424C190.832 27.2654 189.71 27.5924 188.588 27.527C187.466 27.527 186.343 27.2654 185.353 26.677C184.429 26.0885 183.637 25.3039 183.175 24.3231C182.647 23.2116 182.383 22.0347 182.449 20.7924C182.449 19.6154 182.713 18.3731 183.175 17.2616C183.637 16.2808 184.429 15.4308 185.353 14.9078C187.333 13.7962 189.776 13.7962 191.822 14.9078C192.35 15.2347 192.878 15.6924 193.274 16.1501L196.773 14.6462C195.981 13.6654 194.925 12.8808 193.802 12.2924C190.502 10.6578 186.673 10.6578 183.439 12.2924C178.686 14.8424 176.904 20.7924 179.544 25.5001C179.61 25.5654 179.676 25.6962 179.676 25.7616C180.601 27.2001 181.855 28.377 183.373 29.1616C184.957 29.9462 186.805 30.3385 188.588 30.3385C190.436 30.3385 192.218 29.9462 193.868 29.1616C195.387 28.377 196.707 27.2654 197.565 25.827C198.357 24.5847 198.819 23.1462 198.885 21.6424V21.3808Z" fill="#0B0A14"/>
<path d="M38.3499 31.3828C37.8218 31.3828 37.4258 31.7751 37.4258 32.2982C37.4258 32.8213 37.8218 33.2136 38.3499 33.2136C38.878 33.2136 39.274 32.8213 39.274 32.2982C39.3401 31.7751 38.878 31.3828 38.3499 31.3828Z" fill="white"/>
<path d="M137.434 29.945V4.05273H139.81V29.945H137.434Z" fill="white"/>
<path d="M60.2678 30.5346C57.8914 30.6 55.5151 30.0115 53.5348 28.8346C51.7525 27.723 50.4323 26.023 49.7722 24.0615L49.5742 23.473L51.6865 22.4269L51.8185 22.8846C52.2806 24.5846 53.4028 26.0884 54.921 27.0692C56.5712 28.05 58.4195 28.5077 60.3338 28.4423C61.588 28.4423 62.7761 28.2461 63.9643 27.7884C64.8884 27.3961 65.7466 26.8077 66.3406 26.023C66.8687 25.2384 67.1988 24.323 67.1988 23.3423C67.2648 22.4923 67.0007 21.5769 66.4727 20.8577C65.9446 20.2038 65.2845 19.6807 64.4924 19.2884C63.3042 18.7654 62.116 18.3077 60.8619 17.9807L57.4294 17.0654C55.5151 16.6077 53.7328 15.7577 52.1486 14.5807C50.8284 13.5346 50.1683 11.9654 50.2343 10.3307C50.1683 9.02305 50.6304 7.71535 51.4225 6.60382C52.2146 5.55766 53.3368 4.70766 54.5909 4.24997C55.9771 3.66151 57.4954 3.39997 59.0136 3.39997C61.1919 3.33458 63.3042 3.85766 65.0865 5.03458C66.7367 6.14612 67.9249 7.78074 68.519 9.67689L68.585 9.87305L66.3406 10.5923L66.2746 10.3961C65.8126 8.89228 64.9544 7.58458 63.7003 6.6692C62.3141 5.75381 60.6638 5.36151 59.0136 5.42689C57.9574 5.42689 56.9013 5.62305 55.9111 5.94997C54.987 6.27689 54.1949 6.79997 53.6008 7.5192C53.0067 8.23843 52.6767 9.15381 52.7427 10.0692C52.6767 11.1807 53.2047 12.2923 54.1289 13.0115C55.3831 13.8615 56.8353 14.45 58.3535 14.7769L62.3801 15.8884C63.7663 16.2807 65.0865 16.8038 66.3406 17.4577C67.3308 17.9807 68.1889 18.7654 68.849 19.7461C69.5091 20.7923 69.7731 21.9692 69.7731 23.1461C69.7731 24.4538 69.3771 25.8269 68.585 26.873C67.7929 27.9846 66.6047 28.9 65.3505 29.423C63.7003 30.2077 61.984 30.5346 60.2678 30.5346Z" fill="white"/>
<path d="M83.0381 30.3369C81.1898 30.4023 79.3415 29.9446 77.6913 29.1599C76.1731 28.4407 74.9189 27.2638 74.0608 25.8253C73.1366 24.2561 72.6746 22.4253 72.7406 20.5946C72.7406 18.8292 73.2027 17.0638 74.1268 15.4946C74.9849 14.0561 76.2391 12.8138 77.7573 12.0292C80.8598 10.3946 84.6223 10.3946 87.7247 11.9638C89.1109 12.7484 90.2331 13.9253 90.9592 15.2984C91.7513 16.933 92.1474 18.633 92.1474 20.4638V20.7253H74.1928L75.1829 19.8099V20.5946C75.0509 22.6869 75.843 24.7792 77.3612 26.3484C78.9455 27.8523 81.0578 28.6369 83.2361 28.5061C84.6223 28.5061 86.0085 28.1792 87.1967 27.5253C88.3188 26.8715 89.243 25.8907 89.8371 24.7138L91.8173 25.6946C91.0252 27.133 89.771 28.3099 88.3188 29.0946C86.6686 29.9446 84.8863 30.4023 83.0381 30.3369ZM89.8371 19.8099C89.705 17.5215 89.0449 15.7561 87.8568 14.5138C86.6686 13.2715 84.9524 12.683 82.708 12.683C81.4538 12.683 80.2657 12.9446 79.1435 13.4676C78.0874 13.9907 77.1632 14.7753 76.5031 15.7561C75.777 16.8023 75.315 17.9792 75.2489 19.2869L74.5888 18.96H91.0252L89.8371 19.8099Z" fill="white"/>
<path d="M96.2422 29.945V4.05273H98.6185V29.945H96.2422ZM98.1565 25.3681L97.6944 23.4066L110.896 11.572H113.735L104.889 19.4835L103.833 20.2027L98.1565 25.3681ZM111.688 29.945L102.777 19.8104L104.493 18.4373L114.659 29.945H111.688Z" fill="white"/>
<path d="M124.628 30.4023C122.78 30.4676 120.931 30.01 119.281 29.2253C117.763 28.4407 116.509 27.3292 115.651 25.8253C114.726 24.2561 114.264 22.4253 114.33 20.5946C114.33 18.8292 114.792 17.0638 115.717 15.4946C116.575 14.0561 117.895 12.8138 119.413 12.0292C122.516 10.3946 126.278 10.3946 129.381 11.9638C130.767 12.7484 131.889 13.9253 132.615 15.2984C133.407 16.933 133.803 18.633 133.803 20.4638V20.7253H115.783L116.773 19.81V20.5292C116.707 22.6215 117.433 24.7138 118.951 26.283C120.535 27.7869 122.648 28.5715 124.826 28.4407C126.212 28.4407 127.598 28.1138 128.787 27.46C129.909 26.8061 130.833 25.8253 131.427 24.6484L133.407 25.6292C132.615 27.0676 131.361 28.2446 129.909 29.0292C128.258 30.01 126.41 30.4676 124.628 30.4023ZM131.361 19.8753C131.229 17.5869 130.569 15.8215 129.381 14.5792C128.192 13.3369 126.476 12.7484 124.232 12.7484C122.978 12.7484 121.79 13.01 120.667 13.533C119.611 14.0561 118.687 14.8407 118.027 15.8215C117.301 16.8676 116.839 18.0446 116.773 19.3523L116.113 19.0253H132.549L131.361 19.8753Z" fill="white"/>
<path d="M38.3523 8.75977C38.0883 8.75977 37.8242 9.0213 37.8242 9.28284C37.8242 9.54438 38.0883 9.80592 38.3523 9.80592C38.6163 9.80592 38.8804 9.54438 38.8804 9.28284C38.8804 9.0213 38.6823 8.75977 38.3523 8.75977Z" fill="white"/>
<path d="M38.3523 16.4766C38.0883 16.4766 37.8242 16.7381 37.8242 16.9996C37.8242 17.2612 38.0883 17.5227 38.3523 17.5227C38.6163 17.5227 38.8804 17.2612 38.8804 16.9996C38.8804 16.6727 38.6823 16.4766 38.3523 16.4766Z" fill="white"/>
<path d="M1.71433 30.9922C0.922211 30.9922 0.328125 31.5806 0.328125 32.3653C0.328125 33.1499 0.922211 33.7383 1.71433 33.7383C2.50644 33.7383 3.10053 33.1499 3.10053 32.3653C3.10053 31.5806 2.50644 30.9922 1.71433 30.9922Z" fill="white"/>
<path d="M22.3104 3.26831H38.6808C39.6049 3.39908 40.397 2.74524 40.529 1.82985C40.6611 0.914469 40.001 0.129853 39.0768 -0.000915902C38.9448 -0.000915902 38.8128 -0.000915902 38.6808 -0.000915902H22.3104C21.3863 -0.131685 20.5942 0.522161 20.4621 1.43755C20.3301 2.35293 20.9902 3.13755 21.9143 3.26831C22.0464 3.26831 22.1784 3.26831 22.3104 3.26831Z" fill="white"/>
<path d="M8.97604 23.2754C8.24994 23.2754 7.58984 23.8639 7.58984 24.6485C7.58984 25.3677 8.18393 26.0215 8.97604 26.0215C9.70215 26.0215 10.3622 25.4331 10.3622 24.6485C10.3622 23.8639 9.70215 23.2754 8.97604 23.2754Z" fill="white"/>
<path d="M31.3549 15.625C30.5628 15.625 29.9688 16.2135 29.9688 16.9981C29.9688 17.7827 30.5628 18.3712 31.3549 18.3712C32.1471 18.3712 32.7411 17.7827 32.7411 16.9981C32.7411 16.2135 32.0811 15.625 31.3549 15.625Z" fill="white"/>
<path d="M31.2885 7.97656C30.5624 7.97656 29.9023 8.56502 29.9023 9.34964C29.9023 10.0689 30.4964 10.7227 31.2885 10.7227C32.0147 10.7227 32.6747 10.1343 32.6747 9.34964C32.6747 8.56502 32.0807 7.97656 31.2885 7.97656Z" fill="white"/>
<path d="M1.71518 24.0605C1.38513 24.0605 1.12109 24.3221 1.12109 24.649C1.12109 24.9759 1.38513 25.2375 1.71518 25.2375C2.04523 25.2375 2.30927 24.9759 2.30927 24.649C2.30927 24.3221 2.04523 24.0605 1.71518 24.0605Z" fill="white"/>
<path d="M2.30927 1.63338C2.30927 1.30646 2.04523 1.04492 1.71518 1.04492C1.38513 1.04492 1.12109 1.30646 1.12109 1.63338C1.12109 1.96031 1.38513 2.22184 1.71518 2.22184C2.04523 2.22184 2.30927 1.96031 2.30927 1.63338Z" fill="white"/>
<path d="M17.0295 1.30674C16.8315 0.391353 15.9074 -0.131724 15.0493 0.06443C14.7192 0.129815 14.4552 0.260584 14.2571 0.522122C13.003 1.76443 11.0227 1.76443 9.8345 0.522122C9.43845 0.129815 8.91037 -0.0663393 8.31629 0.06443C7.65619 0.195199 7.12811 0.652892 6.99609 1.30674C6.99609 1.43751 6.99609 1.56828 6.99609 1.63366C6.99609 2.41828 7.59018 3.13751 8.38229 3.26828C8.91037 3.39905 9.50446 3.20289 9.90051 2.81058C11.1547 1.56828 13.135 1.56828 14.3232 2.81058C14.9833 3.46443 16.0394 3.46443 16.6995 2.81058C16.8975 2.61443 17.0956 2.28751 17.1616 2.02597C17.1616 1.8952 17.1616 1.76443 17.1616 1.69905C17.0956 1.50289 17.0956 1.37212 17.0295 1.30674Z" fill="white"/>
<path d="M26.0078 9.28305C26.0078 9.15228 26.0078 9.02151 25.9418 8.95613C25.7437 8.04075 24.8196 7.51767 23.9615 7.71382C23.6314 7.77921 23.3674 7.90998 23.1694 8.17151C22.5093 8.75998 21.7171 9.0869 20.793 9.0869C20.0009 9.0869 19.2088 8.75998 18.6807 8.17151C18.3507 7.84459 17.9546 7.64844 17.4925 7.64844H1.65024C0.726105 7.64844 0 8.36767 0 9.28305C0 10.1984 0.726105 10.9177 1.65024 10.9177H17.4925C17.9546 10.9177 18.4167 10.7215 18.6807 10.3946C19.2088 9.80613 20.0009 9.47921 20.793 9.47921C21.6511 9.47921 22.5093 9.80613 23.1694 10.3946C23.8294 11.0484 24.8856 11.0484 25.5457 10.3946C25.7437 10.1984 25.9418 9.87151 26.0078 9.60998C26.0078 9.54459 26.0078 9.41382 26.0078 9.28305Z" fill="white"/>
<path d="M0.0644938 16.9988C0.0644938 16.8681 0.0644938 16.7373 0.130503 16.6065C0.328532 15.6911 1.25267 15.1681 2.11079 15.3642C2.44084 15.4296 2.70488 15.5604 2.90291 15.8219C3.563 16.4104 4.35512 16.7373 5.27925 16.7373C6.07136 16.7373 6.79747 16.4104 7.39156 15.8219C7.7216 15.495 8.11766 15.2988 8.57973 15.2988H24.422C25.3462 15.2988 26.0723 16.0181 26.0723 16.9334C26.0723 17.8488 25.3462 18.5681 24.422 18.5681H8.57973C8.11766 18.5681 7.65559 18.3719 7.39156 18.045C6.86348 17.4565 6.07136 17.1296 5.27925 17.1296C4.42113 17.1296 3.563 17.4565 2.90291 18.045C2.24281 18.6988 1.18666 18.6988 0.526561 18.045C0.328532 17.8488 0.130503 17.5219 0.0644938 17.2604C0.0644938 17.2604 -0.00151573 17.1296 0.0644938 16.9988Z" fill="white"/>
<path d="M6.73438 32.2987C6.73438 32.1679 6.73438 32.0371 6.80038 31.9718C6.99841 31.0564 7.85654 30.5333 8.78067 30.7294C9.11072 30.7948 9.37476 30.991 9.6388 31.1871C10.2989 31.7756 11.091 32.1025 12.0151 32.1025C12.8073 32.1025 13.5994 31.7756 14.1274 31.1871C14.4575 30.8602 14.8536 30.6641 15.3156 30.6641H32.1481C33.0722 30.6641 33.7983 31.3833 33.7983 32.2987C33.7983 33.2141 33.0722 33.9333 32.1481 33.9333H15.3156C14.8536 33.9333 14.3915 33.7371 14.1274 33.4102C13.5994 32.8218 12.8073 32.4948 12.0151 32.4948C11.157 32.4948 10.2989 32.8218 9.6388 33.4102C8.9787 34.0641 7.92255 34.0641 7.32846 33.4756C7.06442 33.2794 6.9324 32.9525 6.86639 32.6256C6.80038 32.6256 6.80038 32.4948 6.73438 32.2987Z" fill="white"/>
<path d="M40.0667 24.6492C40.0667 24.5185 40.0667 24.3877 40.0007 24.2569C39.8027 23.3415 38.8785 22.8185 38.0204 23.0146C37.6904 23.08 37.4263 23.2108 37.2283 23.4723C36.5682 24.0608 35.7761 24.3877 34.8519 24.3877C34.0598 24.3877 33.2677 24.0608 32.7396 23.4723C32.4096 23.1454 32.0135 22.9492 31.5515 22.9492H22.0461C21.584 22.9492 21.122 23.1454 20.8579 23.4723C20.3298 24.0608 19.5377 24.3877 18.7456 24.3877C17.8875 24.3877 17.0294 24.0608 16.3693 23.4723C15.7092 22.8185 14.653 22.8185 13.9929 23.4723C13.7949 23.6685 13.5969 23.9954 13.5309 24.2569C13.5309 24.3877 13.4648 24.5185 13.4648 24.6492C13.4648 24.78 13.4648 24.9108 13.5309 24.9761C13.7289 25.8915 14.653 26.4146 15.5111 26.2184C15.8412 26.1531 16.1052 26.0223 16.3033 25.7608C16.9634 25.1723 17.7555 24.8454 18.6796 24.8454C19.4717 24.8454 20.2638 25.1723 20.7919 25.6954C21.122 26.0223 21.518 26.2184 21.9801 26.2184H31.4194C31.8815 26.2184 32.3436 26.0223 32.6076 25.6954C33.1357 25.1069 33.9278 24.78 34.7199 24.78C35.578 24.78 36.4362 25.1069 37.0963 25.6954C37.7564 26.3492 38.8125 26.3492 39.4726 25.6954C39.6706 25.4992 39.8687 25.1723 39.9347 24.9108C40.0007 24.9108 40.0667 24.78 40.0667 24.6492Z" fill="white"/>
</svg>
