<svg width="64" height="65" viewBox="0 0 64 65" fill="none" xmlns="http://www.w3.org/2000/svg">
<rect x="0.25" y="0.25" width="63.5" height="64.5" rx="11.75" fill="#F9FAFD" fill-opacity="0.1"/>
<rect x="0.25" y="0.25" width="63.5" height="64.5" rx="11.75" stroke="white" stroke-width="0.5"/>
<path d="M31.8429 30.5451C36.6579 30.5451 40.4633 26.7888 40.4633 22.0358C40.4633 17.2828 36.6579 13.5264 31.8429 13.5264C27.0279 13.5264 23.2225 17.2828 23.2225 22.0358C23.2225 26.7888 27.0279 30.5451 31.8429 30.5451ZM31.8429 14.5997C36.1143 14.5997 39.4537 17.9727 39.4537 22.1124C39.4537 26.3288 36.0366 29.6252 31.8429 29.6252C27.5715 29.6252 24.2321 26.2521 24.2321 22.1124C24.1544 17.9727 27.5715 14.5997 31.8429 14.5997Z" fill="white"/>
<path d="M31.8429 27.7087C34.9494 27.7087 37.5122 25.2555 37.5122 22.1124C37.5122 19.046 35.027 16.5162 31.8429 16.5162C31.6099 16.5162 31.3769 16.7462 31.3769 16.9762C31.3769 17.2061 31.6099 17.4361 31.8429 17.4361C34.4057 17.4361 36.5802 19.506 36.5802 22.1124C36.5802 24.6422 34.4834 26.7888 31.8429 26.7888C29.2801 26.7888 27.1056 24.7189 27.1056 22.1124C27.1056 21.8825 26.8726 21.6525 26.6396 21.6525C26.4066 21.6525 26.1736 21.8825 26.1736 22.1124C26.096 25.1789 28.7365 27.7087 31.8429 27.7087Z" fill="white"/>
<path d="M28.0375 39.4378C28.0375 39.2078 27.8045 38.9779 27.5715 38.9779C27.3386 38.9779 27.1056 39.2078 27.1056 39.4378C27.1056 41.9676 29.2024 44.1141 31.8429 44.1141C34.4057 44.1141 36.5802 42.0443 36.5802 39.4378C36.5802 39.2078 36.3473 38.9779 36.1143 38.9779C35.8813 38.9779 35.6483 39.2078 35.6483 39.4378C35.6483 41.431 33.9398 43.1175 31.9206 43.1175C29.9014 43.1175 28.0375 41.5077 28.0375 39.4378Z" fill="white"/>
<path d="M47.7635 37.5213L43.8028 36.908C43.7251 36.2947 43.5698 35.7581 43.3368 35.1448L46.5209 32.6917C46.6762 32.5383 46.7539 32.3083 46.6762 32.0784L45.589 30.1618C45.4336 29.9319 45.2007 29.8552 44.9677 29.9319L41.2399 31.3884C41.0069 31.1584 40.8516 30.9285 40.6186 30.6985C42.7932 28.3986 44.424 25.7922 44.424 22.1891C44.3464 15.4429 38.8324 10 32.0759 10C25.3194 10 19.7277 15.5196 19.7277 22.1124C19.7277 25.7922 21.3586 28.3986 23.5331 30.6218C23.3002 30.8518 23.0672 31.0818 22.9119 31.3118L19.1841 29.8552C18.9511 29.7785 18.7181 29.8552 18.5628 30.0852L17.4756 32.0017C17.3202 32.2317 17.3979 32.4617 17.6309 32.615L20.815 35.0681C20.582 35.6048 20.4267 36.2181 20.349 36.8313L16.3883 37.4446C16.1553 37.4446 16 37.6746 16 37.9046V40.1278C16 40.3578 16.1553 40.5877 16.3883 40.5877L20.349 41.201C20.4267 41.8143 20.582 42.3509 20.815 42.9642L17.6309 45.4174C17.4756 45.5707 17.3979 45.8007 17.4756 46.0307L18.5628 47.9472C18.7181 48.1772 18.9511 48.2538 19.1841 48.1772L22.9895 46.8739C23.3778 47.3339 23.8438 47.7939 24.3098 48.1772L22.4459 51.8569C22.3682 52.0869 22.4459 52.3169 22.6789 52.4702L24.6204 53.5434C24.8534 53.6968 25.0864 53.6201 25.2417 53.3901L27.7269 50.247C28.2705 50.477 28.8918 50.6303 29.5131 50.707L30.1344 54.6167C30.1344 54.8467 30.3673 55 30.6003 55H32.8525C33.0855 55 33.3185 54.8467 33.3185 54.6167L33.9398 50.707C34.5611 50.6303 35.1047 50.477 35.726 50.247L38.2111 53.3901C38.3665 53.5434 38.5994 53.6201 38.8324 53.5434L40.774 52.4702C41.0069 52.3169 41.0846 52.0869 41.0069 51.8569L39.5314 48.1772C39.9973 47.7939 40.4633 47.3339 40.8516 46.8739L44.5794 48.3305C44.8123 48.4072 45.0453 48.3305 45.2007 48.1005L46.2879 46.184C46.4432 45.954 46.3656 45.724 46.1326 45.5707L42.9485 43.1175C43.1815 42.5809 43.3368 41.9676 43.4144 41.3543L47.3752 40.7411C47.6082 40.7411 47.7635 40.5111 47.7635 40.2811V38.0579C48.1518 37.7513 47.9965 37.5213 47.7635 37.5213ZM20.5044 22.1124C20.5044 15.9029 25.63 10.9199 31.8429 10.9199C38.0558 10.9199 43.1815 15.9796 43.1815 22.1124C43.1815 29.2419 36.5026 31.7717 31.8429 37.8279C27.1056 31.8484 20.5044 29.2419 20.5044 22.1124ZM36.0366 34.6848C37.2792 35.8348 37.9782 37.4446 37.9782 39.1312C37.9782 42.5043 35.26 45.2641 31.7652 45.2641C28.2705 45.2641 25.5523 42.5809 25.5523 39.1312C25.5523 37.4446 26.2513 35.9114 27.4939 34.6848C28.8141 35.9114 30.1344 37.2913 31.2993 38.9779C31.4546 39.2078 31.9206 39.2078 32.0759 38.9779C33.3961 37.2913 34.7164 35.9881 36.0366 34.6848ZM47.2199 39.8978L43.1815 40.5111C42.9485 40.5111 42.7932 40.7411 42.7932 40.8944C42.6378 41.661 42.4825 42.4276 42.1719 43.1175C42.0942 43.3475 42.1719 43.5009 42.3272 43.6542L45.4336 46.1073L44.7347 47.3339L41.0069 45.8773C40.774 45.8007 40.6186 45.8773 40.4633 46.0307C39.9973 46.644 39.3761 47.1806 38.8324 47.6405C38.6771 47.7939 38.5994 48.0238 38.6771 48.1772L40.1527 51.9336L38.9101 52.6235L36.4249 49.5571C36.2696 49.4037 36.0366 49.3271 35.8813 49.4037C35.1823 49.7104 34.4057 49.8637 33.6291 50.017C33.3961 50.017 33.2408 50.247 33.2408 50.4003L32.6195 54.2334H31.2216L30.6003 50.4003C30.6003 50.1704 30.3673 50.017 30.212 50.017C29.4354 49.8637 28.6588 49.7104 27.9598 49.4037C27.7269 49.3271 27.5715 49.4037 27.4162 49.5571L24.9311 52.6235L23.6885 51.9336L25.164 48.2538C25.2417 48.0238 25.164 47.8705 25.0087 47.7172C24.3874 47.2572 23.8438 46.644 23.3778 46.1073C23.2225 45.954 22.9895 45.8773 22.8342 45.954L19.1065 47.3339L18.1745 46.0307L21.281 43.5775C21.4363 43.4242 21.514 43.1942 21.4363 43.0409C21.1256 42.3509 20.9703 41.5843 20.815 40.8177C20.815 40.5877 20.582 40.4344 20.4267 40.4344L16.466 39.8211V38.3646L20.4267 37.7513C20.6597 37.7513 20.815 37.5213 20.815 37.368C20.9703 36.6014 21.1256 35.8348 21.4363 35.1448C21.514 34.9148 21.4363 34.7615 21.281 34.6082L18.1745 32.155L18.8735 30.9284L22.6012 32.385C22.8342 32.4617 22.9895 32.385 23.1448 32.2317C23.3778 31.925 23.6885 31.6184 23.9215 31.3884C24.8534 32.3083 25.7853 33.1516 26.7949 34.0715C25.397 35.3748 24.6204 37.2147 24.6204 39.2078C24.6204 43.0409 27.8045 46.3373 31.8429 46.3373C35.726 46.3373 39.0654 43.1942 39.0654 39.2078C39.0654 37.2913 38.2888 35.4514 36.8909 34.0715C37.9005 33.1516 38.8324 32.3083 39.7644 31.3884C40.075 31.6951 40.308 31.925 40.541 32.2317C40.6963 32.385 40.9293 32.4617 41.0846 32.385L44.8123 30.9284L45.5113 32.155L42.4048 34.6082C42.2495 34.7615 42.1719 34.9915 42.2495 35.1448C42.5602 35.8348 42.7155 36.6014 42.8708 37.368C42.8708 37.598 43.1038 37.7513 43.2591 37.7513L47.2199 38.3646V39.8978Z" fill="white"/>
</svg>
