<svg width="55" height="49" viewBox="0 0 55 49" fill="none" xmlns="http://www.w3.org/2000/svg">
<mask id="path-1-inside-1_248_6841" fill="white">
<path fill-rule="evenodd" clip-rule="evenodd" d="M6.87522 0.34082H48.1213C51.9033 0.34082 54.9965 3.42785 54.9965 7.20069V9.63157H0V7.20069C0 3.42785 3.09315 0.34082 6.87347 0.34082H6.87522ZM6.64791 2.96889C7.76522 2.96889 8.67096 3.87284 8.67096 4.98794C8.67096 6.10304 7.76522 7.00698 6.64791 7.00698C5.5306 7.00698 4.62486 6.10304 4.62486 4.98794C4.62486 3.87284 5.5306 2.96889 6.64791 2.96889ZM14.588 2.96889C15.7053 2.96889 16.611 3.87284 16.611 4.98794C16.611 6.10304 15.7053 7.00698 14.588 7.00698C13.4707 7.00698 12.5649 6.10304 12.5649 4.98794C12.5649 3.87284 13.4707 2.96889 14.588 2.96889ZM54.9982 11.8548V41.9921C54.9982 45.765 51.9051 48.852 48.123 48.852H6.87697C3.09665 48.852 0.00349714 45.765 0.00349714 41.9921V11.8548H55H54.9982ZM40.5764 37.3555C40.5676 37.3712 40.5589 37.3886 40.5501 37.4043C39.8805 38.5823 39.0552 39.6607 38.1022 40.61C35.3885 43.3184 31.6396 44.9936 27.4991 44.9936C23.3586 44.9936 19.6098 43.3184 16.896 40.61C15.9431 39.659 15.1178 38.5805 14.4481 37.4043C14.4376 37.3886 14.4289 37.3729 14.4201 37.3555C13.1996 35.1898 12.5037 32.6892 12.5037 30.0279C12.5037 27.3667 13.1996 24.8678 14.4201 22.7021C14.4306 22.6847 14.4394 22.6672 14.4498 22.6498C15.1195 21.4736 15.9431 20.3951 16.896 19.4458C19.6098 16.7375 23.3586 15.0622 27.4991 15.0622C31.6396 15.0622 35.3885 16.7375 38.1022 19.4458C39.0534 20.3951 39.8787 21.4736 40.5484 22.6498C40.5589 22.6655 40.5676 22.6847 40.5781 22.7021C41.7986 24.8678 42.4945 27.3667 42.4945 30.0279C42.4945 32.6892 41.7986 35.1881 40.5764 37.3555ZM37.506 37.9453H33.5385C33.3025 38.7794 33.0297 39.5543 32.7272 40.2593C32.451 40.9049 32.145 41.4965 31.8127 42.027C33.6032 41.3848 35.2084 40.357 36.5268 39.0412C36.873 38.6957 37.2 38.331 37.5042 37.9471L37.506 37.9453ZM31.2217 37.9453H23.78C23.9444 38.4584 24.1227 38.94 24.3151 39.3902C25.212 41.4791 26.3451 42.7704 27.5009 42.7704C28.6567 42.7704 29.7897 41.4791 30.6849 39.3902C30.879 38.94 31.0574 38.4566 31.2217 37.9453ZM21.4615 37.9453H17.4958C17.8 38.3292 18.127 38.6939 18.4732 39.0395C19.7916 40.3552 21.3968 41.3848 23.1873 42.0253C22.855 41.4948 22.549 40.9032 22.2728 40.2575C21.9703 39.5525 21.6975 38.7777 21.4615 37.9436V37.9453ZM16.076 35.7221H20.9456C20.6799 34.2946 20.512 32.752 20.4578 31.1395H14.7821C14.9237 32.7747 15.3748 34.3225 16.0777 35.7221H16.076ZM23.2082 35.7221H31.7935C32.0785 34.3173 32.2604 32.7712 32.3181 31.1395H22.6854C22.7431 32.7729 22.925 34.3191 23.21 35.7221H23.2082ZM34.0579 35.7221H38.9275C39.6304 34.3225 40.0798 32.7747 40.2232 31.1395H34.5474C34.4932 32.752 34.3236 34.2946 34.0596 35.7221H34.0579ZM14.7821 28.9163H20.4578C20.512 27.3039 20.6799 25.7612 20.9456 24.3338H16.076C15.3731 25.7333 14.922 27.2812 14.7803 28.9163H14.7821ZM22.6854 28.9163H32.3181C32.2604 27.2829 32.0785 25.7368 31.7935 24.3338H23.2082C22.9232 25.7386 22.7414 27.2829 22.6837 28.9163H22.6854ZM34.5457 28.9163H40.2214C40.0798 27.2812 39.6287 25.7333 38.9258 24.3338H34.0561C34.3219 25.7612 34.4897 27.3039 34.544 28.9163H34.5457ZM17.4958 22.1106H21.4615C21.6975 21.2764 21.9703 20.5016 22.2728 19.7966C22.5508 19.1509 22.855 18.5593 23.1873 18.0306C21.3968 18.6728 19.7899 19.7006 18.4732 21.0164C18.127 21.3619 17.8 21.7266 17.4958 22.1106ZM23.78 22.1106H31.2217C31.0574 21.5975 30.879 21.1141 30.6849 20.6656C29.788 18.5768 28.6549 17.2854 27.5009 17.2854C26.3451 17.2854 25.212 18.5785 24.3151 20.6656C24.1227 21.1141 23.9426 21.5992 23.78 22.1106ZM33.5403 22.1106H37.5077C37.2035 21.7266 36.8765 21.3619 36.5303 21.0164C35.2119 19.7006 33.6067 18.6728 31.8162 18.0306C32.1467 18.5611 32.4545 19.1509 32.7307 19.7966C33.0332 20.5016 33.306 21.2764 33.542 22.1106H33.5403Z"/>
</mask>
<path fill-rule="evenodd" clip-rule="evenodd" d="M6.87522 0.34082H48.1213C51.9033 0.34082 54.9965 3.42785 54.9965 7.20069V9.63157H0V7.20069C0 3.42785 3.09315 0.34082 6.87347 0.34082H6.87522ZM6.64791 2.96889C7.76522 2.96889 8.67096 3.87284 8.67096 4.98794C8.67096 6.10304 7.76522 7.00698 6.64791 7.00698C5.5306 7.00698 4.62486 6.10304 4.62486 4.98794C4.62486 3.87284 5.5306 2.96889 6.64791 2.96889ZM14.588 2.96889C15.7053 2.96889 16.611 3.87284 16.611 4.98794C16.611 6.10304 15.7053 7.00698 14.588 7.00698C13.4707 7.00698 12.5649 6.10304 12.5649 4.98794C12.5649 3.87284 13.4707 2.96889 14.588 2.96889ZM54.9982 11.8548V41.9921C54.9982 45.765 51.9051 48.852 48.123 48.852H6.87697C3.09665 48.852 0.00349714 45.765 0.00349714 41.9921V11.8548H55H54.9982ZM40.5764 37.3555C40.5676 37.3712 40.5589 37.3886 40.5501 37.4043C39.8805 38.5823 39.0552 39.6607 38.1022 40.61C35.3885 43.3184 31.6396 44.9936 27.4991 44.9936C23.3586 44.9936 19.6098 43.3184 16.896 40.61C15.9431 39.659 15.1178 38.5805 14.4481 37.4043C14.4376 37.3886 14.4289 37.3729 14.4201 37.3555C13.1996 35.1898 12.5037 32.6892 12.5037 30.0279C12.5037 27.3667 13.1996 24.8678 14.4201 22.7021C14.4306 22.6847 14.4394 22.6672 14.4498 22.6498C15.1195 21.4736 15.9431 20.3951 16.896 19.4458C19.6098 16.7375 23.3586 15.0622 27.4991 15.0622C31.6396 15.0622 35.3885 16.7375 38.1022 19.4458C39.0534 20.3951 39.8787 21.4736 40.5484 22.6498C40.5589 22.6655 40.5676 22.6847 40.5781 22.7021C41.7986 24.8678 42.4945 27.3667 42.4945 30.0279C42.4945 32.6892 41.7986 35.1881 40.5764 37.3555ZM37.506 37.9453H33.5385C33.3025 38.7794 33.0297 39.5543 32.7272 40.2593C32.451 40.9049 32.145 41.4965 31.8127 42.027C33.6032 41.3848 35.2084 40.357 36.5268 39.0412C36.873 38.6957 37.2 38.331 37.5042 37.9471L37.506 37.9453ZM31.2217 37.9453H23.78C23.9444 38.4584 24.1227 38.94 24.3151 39.3902C25.212 41.4791 26.3451 42.7704 27.5009 42.7704C28.6567 42.7704 29.7897 41.4791 30.6849 39.3902C30.879 38.94 31.0574 38.4566 31.2217 37.9453ZM21.4615 37.9453H17.4958C17.8 38.3292 18.127 38.6939 18.4732 39.0395C19.7916 40.3552 21.3968 41.3848 23.1873 42.0253C22.855 41.4948 22.549 40.9032 22.2728 40.2575C21.9703 39.5525 21.6975 38.7777 21.4615 37.9436V37.9453ZM16.076 35.7221H20.9456C20.6799 34.2946 20.512 32.752 20.4578 31.1395H14.7821C14.9237 32.7747 15.3748 34.3225 16.0777 35.7221H16.076ZM23.2082 35.7221H31.7935C32.0785 34.3173 32.2604 32.7712 32.3181 31.1395H22.6854C22.7431 32.7729 22.925 34.3191 23.21 35.7221H23.2082ZM34.0579 35.7221H38.9275C39.6304 34.3225 40.0798 32.7747 40.2232 31.1395H34.5474C34.4932 32.752 34.3236 34.2946 34.0596 35.7221H34.0579ZM14.7821 28.9163H20.4578C20.512 27.3039 20.6799 25.7612 20.9456 24.3338H16.076C15.3731 25.7333 14.922 27.2812 14.7803 28.9163H14.7821ZM22.6854 28.9163H32.3181C32.2604 27.2829 32.0785 25.7368 31.7935 24.3338H23.2082C22.9232 25.7386 22.7414 27.2829 22.6837 28.9163H22.6854ZM34.5457 28.9163H40.2214C40.0798 27.2812 39.6287 25.7333 38.9258 24.3338H34.0561C34.3219 25.7612 34.4897 27.3039 34.544 28.9163H34.5457ZM17.4958 22.1106H21.4615C21.6975 21.2764 21.9703 20.5016 22.2728 19.7966C22.5508 19.1509 22.855 18.5593 23.1873 18.0306C21.3968 18.6728 19.7899 19.7006 18.4732 21.0164C18.127 21.3619 17.8 21.7266 17.4958 22.1106ZM23.78 22.1106H31.2217C31.0574 21.5975 30.879 21.1141 30.6849 20.6656C29.788 18.5768 28.6549 17.2854 27.5009 17.2854C26.3451 17.2854 25.212 18.5785 24.3151 20.6656C24.1227 21.1141 23.9426 21.5992 23.78 22.1106ZM33.5403 22.1106H37.5077C37.2035 21.7266 36.8765 21.3619 36.5303 21.0164C35.2119 19.7006 33.6067 18.6728 31.8162 18.0306C32.1467 18.5611 32.4545 19.1509 32.7307 19.7966C33.0332 20.5016 33.306 21.2764 33.542 22.1106H33.5403Z" fill="black" stroke="black" stroke-width="1.44809" mask="url(#path-1-inside-1_248_6841)"/>
</svg>
