<svg width="224" height="153" viewBox="0 0 224 153" fill="none" xmlns="http://www.w3.org/2000/svg">
<g clip-path="url(#clip0_1059_14381)">
<path d="M43.5218 25.3365L0.263672 54.3086L42.8727 118.083L86.1309 89.1106L43.5218 25.3365Z" fill="#F5F5F5"/>
<path d="M63.7764 86.0938L63.2868 89.1355L41.7812 86.032L42.2709 82.9902L63.7764 86.0938Z" fill="#E0E0E0"/>
<path d="M52.9471 75.2422L56.0314 75.6861L52.6116 96.8858L49.5234 96.438L52.9471 75.2422Z" fill="#E0E0E0"/>
<path d="M33.1575 48.2994C33.1883 48.3418 28.8548 51.3025 23.4765 54.9002C18.0982 58.4978 13.7146 61.3851 13.6838 61.3388C13.6529 61.2925 17.9864 58.3356 23.3647 54.7342C28.743 51.1327 33.1074 48.2531 33.1575 48.2994Z" fill="#E0E0E0"/>
<path d="M49.0486 44.3011C49.0795 44.3474 41.8698 49.2266 32.9484 55.202C24.0269 61.1775 16.7556 65.9833 16.7325 65.9409C16.7093 65.8984 23.9036 61.0115 32.8366 55.0361C41.7696 49.0606 49.0178 44.2548 49.0486 44.3011Z" fill="#E0E0E0"/>
<path d="M52.2381 49.0706C52.2689 49.117 45.0593 54 36.1378 59.9754C27.2164 65.9509 19.9451 70.7567 19.9219 70.7104C19.8988 70.6641 27.1007 65.7849 36.026 59.8056C44.9513 53.8263 52.2072 49.0243 52.2381 49.0706Z" fill="#E0E0E0"/>
<path d="M55.4258 53.846C55.4567 53.8924 48.247 58.7754 39.3256 64.747C30.4041 70.7185 23.1328 75.5321 23.1328 75.4858C23.1328 75.4395 30.3078 70.5564 39.2331 64.581C48.1584 58.6055 55.395 53.7997 55.4258 53.846Z" fill="#E0E0E0"/>
<path d="M58.6033 58.6214C58.6342 58.6677 51.4245 63.5469 42.5031 69.5224C33.5817 75.4978 26.3103 80.3036 26.2911 80.2573C26.2718 80.211 33.4776 75.3318 42.4106 69.3564C51.3436 63.3809 58.6033 58.5751 58.6033 58.6214Z" fill="#E0E0E0"/>
<path d="M188.172 68.0685L151.842 92.4004L187.626 145.959L223.955 121.627L188.172 68.0685Z" fill="#F5F5F5"/>
<path d="M205.186 119.106L204.774 121.661L186.711 119.055L187.127 116.5L205.186 119.106Z" fill="#E0E0E0"/>
<path d="M196.091 109.992L198.682 110.367L195.81 128.169L193.215 127.795L196.091 109.992Z" fill="#E0E0E0"/>
<path d="M179.454 87.3822C179.485 87.4285 175.85 89.9182 171.331 92.9407C166.813 95.9632 163.127 98.3796 163.096 98.3448C163.065 98.3101 166.705 95.8126 171.219 92.7863C175.734 89.76 179.424 87.3165 179.454 87.3822Z" fill="#E0E0E0"/>
<path d="M192.814 84.0063C192.845 84.0526 186.796 88.1597 179.32 93.174C171.845 98.1883 165.726 102.226 165.695 102.18C165.665 102.133 171.714 98.0262 179.189 93.008C186.665 87.9899 192.772 83.9599 192.814 84.0063Z" fill="#E0E0E0"/>
<path d="M195.494 88.012C195.525 88.0584 189.476 92.1655 182 97.1837C174.525 102.202 168.406 106.232 168.375 106.185C168.344 106.139 174.374 102.051 181.869 97.0331C189.364 92.015 195.471 87.9696 195.494 88.012Z" fill="#E0E0E0"/>
<path d="M198.17 92.0159C198.201 92.0622 192.148 96.1694 184.676 101.188C177.204 106.206 171.082 110.236 171.051 110.189C171.02 110.143 177.069 106.04 184.545 101.018C192.021 95.9957 198.143 91.9773 198.17 92.0159Z" fill="#E0E0E0"/>
<path d="M200.867 96.0336C200.898 96.0799 194.849 100.183 187.373 105.201C179.898 110.219 173.779 114.249 173.748 114.207C173.717 114.164 179.766 110.053 187.242 105.035C194.718 100.017 200.817 95.9873 200.867 96.0336Z" fill="#E0E0E0"/>
<path d="M130.695 27.6825L91.0547 6.45508L59.8359 64.8955L99.4764 86.1229L130.695 27.6825Z" fill="#F5F5F5"/>
<path d="M109.001 29.0959C108.97 29.1538 104.953 27.0617 100.022 24.4252C95.0909 21.7888 91.1236 19.6001 91.1545 19.5422C91.1853 19.4843 95.2065 21.5765 100.138 24.2129C105.069 26.8494 109.032 29.0342 109.001 29.0959Z" fill="#E0E0E0"/>
<path d="M118.516 39.6061C118.485 39.664 111.831 36.159 103.653 31.7816C95.476 27.4043 88.8755 23.8067 88.9064 23.7488C88.9372 23.6909 95.5878 27.192 103.765 31.5732C111.943 35.9544 118.547 39.5482 118.516 39.6061Z" fill="#E0E0E0"/>
<path d="M116.18 43.9791C116.149 44.037 109.495 40.5359 101.317 36.1547C93.1401 31.7735 86.5396 28.1797 86.5704 28.1218C86.6013 28.0639 93.2519 31.5689 101.429 35.9462C109.607 40.3236 116.211 43.9212 116.18 43.9791Z" fill="#E0E0E0"/>
<path d="M113.844 48.3545C113.813 48.4124 107.159 44.9112 98.9815 40.5339C90.8041 36.1565 84.2036 32.5705 84.2345 32.501C84.2653 32.4315 90.9159 35.9442 99.0933 40.3216C107.271 44.6989 113.875 48.2966 113.844 48.3545Z" fill="#E0E0E0"/>
<path d="M91 64.7611L87.61 65.9688L79 41.1818L82.3951 39.9688L91 64.7611Z" fill="#EAECF6"/>
<path d="M96.7065 46.9688L98 50.5297L73.2935 58.9688L72 55.4078L96.7065 46.9688Z" fill="#EAECF6"/>
<path d="M178.645 18.8576C177.512 19.1162 176.96 20.4248 176.853 21.5828C176.745 22.7409 176.891 23.9684 176.405 25.026C175.858 26.2149 174.551 27.0951 174.508 28.4036C174.481 29.2027 174.956 29.9477 174.932 30.7544C174.894 32.0669 173.56 33.0705 173.487 34.3675C173.437 35.3132 174.065 36.2165 173.915 37.1506C173.799 37.8763 173.232 38.4476 172.993 39.1424C172.519 40.5321 173.471 42.0568 174.709 42.8366C175.402 43.273 176.182 43.5526 176.995 43.6558C177.807 43.759 178.632 43.6834 179.413 43.4341C180.193 43.1849 180.909 42.7681 181.512 42.2128C182.115 41.6575 182.589 40.9772 182.902 40.2194C183.588 38.5518 183.438 36.672 183.287 34.877C182.825 29.2773 182.48 23.6699 182.254 18.0547" fill="#263238"/>
<path d="M175.354 38.6146C175.587 38.4695 175.769 38.2548 175.874 38.0008C175.985 37.6987 176.03 37.3761 176.005 37.0551C175.963 36.6295 175.868 36.2107 175.724 35.8083C175.539 35.3025 175.471 34.7616 175.523 34.2257C175.62 33.6235 176.051 33.1294 176.441 32.643C176.65 32.405 176.826 32.1386 176.961 31.8517C177.097 31.5616 177.119 31.2309 177.023 30.9253C176.822 30.2961 176.206 29.8329 175.924 29.1033C175.792 28.7421 175.77 28.3496 175.862 27.9762C175.95 27.626 176.079 27.2877 176.248 26.9687C176.573 26.3941 176.832 25.7841 177.019 25.1506C177.289 23.9269 177.162 22.7573 177.347 21.7961C177.449 21.0263 177.791 20.3081 178.322 19.7426C178.473 19.5902 178.644 19.4602 178.831 19.3565C178.896 19.3229 178.964 19.2982 179.035 19.2832C178.794 19.4164 178.572 19.5827 178.376 19.7773C177.884 20.3485 177.573 21.0544 177.486 21.8038C177.418 22.3158 177.382 22.8315 177.378 23.3479C177.376 23.9556 177.317 24.5619 177.2 25.1583C177.016 25.8064 176.758 26.4308 176.429 27.0189C176.14 27.6249 175.874 28.3351 176.128 28.9991C176.383 29.663 176.996 30.1224 177.231 30.8326C177.337 31.1835 177.311 31.5612 177.158 31.8942C177.008 32.2099 176.813 32.5024 176.58 32.7627C176.194 33.2491 175.774 33.7123 175.681 34.2527C175.627 34.7653 175.688 35.2835 175.859 35.7697C175.996 36.1846 176.082 36.6151 176.113 37.0513C176.132 37.3871 176.073 37.7228 175.94 38.0317C175.857 38.2254 175.724 38.3933 175.554 38.5181C175.494 38.5623 175.426 38.595 175.354 38.6146Z" fill="#455A64"/>
<path d="M172.338 47.7676L168.869 57.8038L154.357 58.5759L151.936 63.98L167.087 65.5241C167.803 65.8183 168.571 65.9642 169.345 65.9529C170.119 65.9417 170.882 65.7735 171.589 65.4585C172.296 65.1435 172.932 64.6883 173.458 64.1204C173.985 63.5525 174.391 62.8836 174.652 62.1542L178.696 50.8518L172.338 47.7676Z" fill="#B78876"/>
<path d="M202.338 142.466C202.338 142.466 191.705 108.644 191.477 107.547C191.273 106.551 195.333 82.2135 195.849 75.8945L181.48 76.4311V76.5739L175.373 76.9136L180.84 146.056H187.452L186.797 123.107C190.876 134.066 196.721 145.237 196.721 145.237L202.338 142.466Z" fill="#B78876"/>
<path d="M187.067 131.342C187.067 131.133 186.986 123.652 186.986 123.652C186.905 124.1 184.453 117.16 184.511 116.739C184.542 116.519 187.067 131.342 187.067 131.342Z" fill="#A36957"/>
<path d="M184.232 113.449C184.198 113.587 184.184 113.728 184.19 113.87C184.168 114.256 184.168 114.642 184.19 115.028C184.19 115.271 184.225 115.534 184.255 115.819C184.286 116.105 184.329 116.406 184.394 116.719C184.531 117.402 184.713 118.075 184.938 118.734C185.416 120.135 185.948 121.359 186.322 122.246C186.499 122.632 186.653 122.999 186.785 123.292C186.832 123.429 186.897 123.559 186.977 123.678C186.957 123.545 186.918 123.415 186.862 123.292C186.773 123.038 186.638 122.671 186.476 122.219C186.137 121.316 185.628 120.081 185.154 118.695C184.929 118.046 184.745 117.383 184.602 116.711C184.533 116.402 184.487 116.105 184.444 115.827C184.402 115.549 184.371 115.287 184.352 115.055C184.305 114.576 184.286 114.19 184.275 113.92C184.282 113.762 184.268 113.604 184.232 113.449Z" fill="#A36957"/>
<path d="M180.716 146.407V145.786L187.49 145.488L187.509 148.055L187.093 148.082C185.231 148.19 177.628 148.507 176.386 148.132C174.994 147.716 180.716 146.407 180.716 146.407Z" fill="#455A64"/>
<path d="M187.597 147.902C187.559 147.905 187.52 147.905 187.482 147.902L187.15 147.926L185.924 147.98C184.891 148.022 183.46 148.061 181.884 148.068C180.307 148.076 178.872 148.049 177.835 148.018L176.613 147.968H176.278H176.162C176.201 147.965 176.239 147.965 176.278 147.968H176.613L177.839 147.991C178.872 147.991 180.303 148.022 181.88 148.014C183.457 148.007 184.891 147.98 185.924 147.953L187.15 147.922H187.597V147.902Z" fill="#263238"/>
<path d="M178.507 148.118C178.451 147.916 178.373 147.721 178.276 147.535C178.154 147.364 178.013 147.208 177.855 147.068C178.066 147.144 178.241 147.295 178.345 147.493C178.473 147.675 178.53 147.897 178.507 148.118Z" fill="#263238"/>
<path d="M180.505 147.102C180.505 147.102 180.393 146.997 180.293 146.843C180.192 146.689 180.131 146.553 180.15 146.542C180.169 146.53 180.262 146.642 180.362 146.797C180.462 146.951 180.524 147.09 180.505 147.102Z" fill="#263238"/>
<path d="M181.051 146.828C181.051 146.847 180.928 146.774 180.812 146.669C180.696 146.565 180.611 146.469 180.627 146.453C180.642 146.438 180.75 146.507 180.866 146.612C180.982 146.716 181.066 146.793 181.051 146.828Z" fill="#263238"/>
<path d="M181.395 146.173C181.282 146.214 181.161 146.23 181.04 146.219C180.922 146.235 180.802 146.223 180.689 146.184C180.801 146.143 180.921 146.127 181.04 146.138C181.16 146.122 181.281 146.134 181.395 146.173Z" fill="#263238"/>
<path d="M181.509 145.725C181.395 145.8 181.261 145.84 181.124 145.841C180.993 145.858 180.86 145.839 180.738 145.787C180.866 145.765 180.995 145.755 181.124 145.756C181.251 145.733 181.38 145.723 181.509 145.725Z" fill="#263238"/>
<path d="M180.276 146.512C180.132 146.539 179.985 146.539 179.841 146.512C179.685 146.493 179.531 146.459 179.382 146.411C179.289 146.386 179.2 146.349 179.116 146.303C179.065 146.273 179.026 146.225 179.008 146.168C179.001 146.136 179.003 146.102 179.015 146.071C179.026 146.041 179.047 146.014 179.073 145.994C179.18 145.943 179.297 145.915 179.416 145.914C179.534 145.913 179.652 145.938 179.759 145.988C179.867 146.038 179.962 146.111 180.039 146.202C180.115 146.294 180.169 146.4 180.199 146.515C180.207 146.554 180.207 146.593 180.199 146.631C180.156 146.492 180.088 146.361 179.999 146.245C179.896 146.13 179.762 146.046 179.613 146.006C179.443 145.951 179.257 145.965 179.097 146.045C179.031 146.095 179.058 146.176 179.131 146.222C179.21 146.265 179.293 146.3 179.378 146.326C179.523 146.374 179.671 146.411 179.821 146.438C180.111 146.5 180.276 146.5 180.276 146.512Z" fill="#263238"/>
<path d="M180.164 146.535C180.108 146.445 180.089 146.337 180.11 146.234C180.124 146.12 180.165 146.012 180.23 145.917C180.266 145.853 180.318 145.798 180.38 145.759C180.443 145.72 180.515 145.698 180.588 145.693C180.632 145.704 180.67 145.73 180.695 145.767C180.72 145.804 180.73 145.85 180.723 145.894C180.714 145.963 180.689 146.029 180.65 146.087C180.591 146.183 180.523 146.272 180.446 146.353C180.379 146.43 180.294 146.49 180.199 146.527C180.199 146.527 180.284 146.45 180.403 146.311C180.473 146.231 180.533 146.145 180.584 146.052C180.642 145.96 180.685 145.794 180.584 145.774C180.484 145.755 180.368 145.875 180.303 145.96C180.242 146.043 180.2 146.14 180.18 146.241C180.164 146.338 180.159 146.437 180.164 146.535Z" fill="#263238"/>
<path d="M187.456 146.056C187.456 146.056 187.263 146.056 186.959 146.075C186.562 146.123 186.187 146.281 185.875 146.531C185.564 146.782 185.329 147.115 185.197 147.492C185.096 147.782 185.089 147.978 185.073 147.975C185.058 147.971 185.073 147.924 185.073 147.839C185.083 147.715 185.106 147.592 185.143 147.473C185.265 147.078 185.501 146.727 185.821 146.465C186.145 146.208 186.539 146.053 186.951 146.021C187.079 146.006 187.208 146.006 187.336 146.021C187.378 146.028 187.418 146.039 187.456 146.056Z" fill="#263238"/>
<path d="M184.212 147.361C183.889 147.437 183.557 147.469 183.225 147.458C182.895 147.475 182.565 147.446 182.242 147.373C182.242 147.35 182.682 147.373 183.225 147.373C183.769 147.373 184.208 147.338 184.212 147.361Z" fill="#263238"/>
<path d="M185.531 147.349C185.531 147.349 185.496 147.442 185.45 147.542C185.404 147.643 185.38 147.735 185.357 147.731C185.334 147.728 185.323 147.627 185.377 147.508C185.43 147.388 185.515 147.33 185.531 147.349Z" fill="#263238"/>
<path d="M186.028 146.727C186.028 146.727 186.001 146.812 185.932 146.882C185.863 146.951 185.793 146.998 185.774 146.982C185.755 146.967 185.801 146.897 185.87 146.824C185.94 146.75 186.009 146.708 186.028 146.727Z" fill="#263238"/>
<path d="M186.739 146.443C186.739 146.466 186.646 146.466 186.546 146.501C186.446 146.535 186.376 146.589 186.357 146.574C186.338 146.558 186.396 146.466 186.519 146.423C186.642 146.381 186.747 146.419 186.739 146.443Z" fill="#263238"/>
<path d="M187.242 146.304C187.242 146.327 187.215 146.361 187.158 146.381C187.1 146.4 187.05 146.404 187.042 146.381C187.034 146.358 187.073 146.323 187.127 146.304C187.181 146.284 187.235 146.284 187.242 146.304Z" fill="#263238"/>
<path d="M196.585 145.81L196.331 145.243L202.388 142.197L203.456 144.513L203.07 144.71C201.416 145.571 194.611 148.976 193.324 149.145C191.901 149.35 196.585 145.81 196.585 145.81Z" fill="#455A64"/>
<path d="M203.478 144.346L203.378 144.407L203.081 144.562L201.986 145.118C201.061 145.577 199.773 146.199 198.335 146.855C196.897 147.511 195.578 148.071 194.622 148.468L193.485 148.928L193.176 149.047C193.141 149.064 193.103 149.076 193.064 149.082L193.169 149.032L193.473 148.897L194.599 148.414C195.551 148.005 196.862 147.434 198.3 146.778C199.738 146.121 201.03 145.511 201.963 145.064L203.065 144.535L203.37 144.392L203.478 144.346Z" fill="#263238"/>
<path d="M195.285 148.273C195.152 148.11 195 147.963 194.834 147.833C194.653 147.726 194.461 147.64 194.26 147.578C194.481 147.575 194.698 147.64 194.881 147.764C195.065 147.889 195.206 148.066 195.285 148.273Z" fill="#263238"/>
<path d="M196.677 146.528C196.677 146.528 196.531 146.482 196.376 146.382C196.222 146.281 196.11 146.185 196.122 146.165C196.133 146.146 196.268 146.212 196.423 146.312C196.577 146.413 196.689 146.509 196.677 146.528Z" fill="#263238"/>
<path d="M197.055 146.057C197.055 146.076 196.924 146.057 196.774 146.011C196.624 145.964 196.512 145.907 196.516 145.883C196.613 145.874 196.711 145.89 196.801 145.93C196.948 145.964 197.063 146.018 197.055 146.057Z" fill="#263238"/>
<path d="M197.109 145.314C197.109 145.338 196.982 145.419 196.804 145.504C196.702 145.565 196.587 145.603 196.469 145.616C196.469 145.592 196.596 145.511 196.769 145.426C196.873 145.365 196.989 145.327 197.109 145.314Z" fill="#263238"/>
<path d="M197.032 144.86C197.032 144.86 196.92 145.014 196.72 145.126C196.606 145.203 196.471 145.244 196.334 145.242C196.444 145.167 196.562 145.104 196.685 145.053C196.874 144.948 197.013 144.84 197.032 144.86Z" fill="#263238"/>
<path d="M196.241 146.088C196.123 146.169 195.993 146.229 195.855 146.266C195.704 146.31 195.549 146.342 195.393 146.362C195.298 146.374 195.202 146.374 195.107 146.362C195.048 146.358 194.993 146.33 194.953 146.285C194.935 146.257 194.926 146.225 194.926 146.192C194.926 146.159 194.935 146.127 194.953 146.1C195.07 145.957 195.233 145.86 195.414 145.825C195.595 145.79 195.782 145.819 195.944 145.907C196.04 145.957 196.124 146.026 196.191 146.111C196.237 146.173 196.256 146.212 196.253 146.215C196.158 146.109 196.044 146.022 195.917 145.957C195.781 145.893 195.63 145.87 195.481 145.891C195.393 145.9 195.307 145.927 195.229 145.969C195.151 146.012 195.082 146.069 195.026 146.138C194.984 146.212 195.026 146.273 195.131 146.285C195.219 146.293 195.308 146.293 195.397 146.285C195.55 146.269 195.702 146.242 195.852 146.204C196.071 146.142 196.241 146.076 196.241 146.088Z" fill="#263238"/>
<path d="M196.134 146.152C196.048 146.091 195.988 146 195.965 145.897C195.931 145.789 195.923 145.674 195.942 145.562C195.948 145.487 195.974 145.416 196.015 145.355C196.057 145.293 196.114 145.244 196.181 145.21C196.277 145.179 196.501 145.376 196.516 145.45C196.531 145.523 196.404 145.484 196.396 145.546C196.384 145.656 196.358 145.763 196.319 145.867C196.291 145.966 196.238 146.056 196.165 146.129C196.165 146.129 196.211 146.025 196.265 145.851C196.293 145.749 196.312 145.644 196.323 145.538C196.323 145.43 196.323 145.264 196.2 145.291C196.076 145.318 196.042 145.469 196.015 145.577C195.991 145.677 195.991 145.782 196.015 145.882C196.047 145.975 196.087 146.066 196.134 146.152Z" fill="#263238"/>
<path d="M202.592 142.721C202.592 142.721 202.407 142.786 202.145 142.945C201.802 143.15 201.523 143.447 201.339 143.802C201.16 144.16 201.084 144.561 201.119 144.96C201.142 145.268 201.215 145.446 201.2 145.454C201.175 145.415 201.156 145.374 201.142 145.33C201.104 145.212 201.077 145.09 201.061 144.967C201.006 144.556 201.077 144.138 201.265 143.768C201.453 143.399 201.749 143.095 202.114 142.898C202.223 142.838 202.338 142.789 202.457 142.752C202.5 142.735 202.546 142.724 202.592 142.721Z" fill="#263238"/>
<path d="M200.166 145.245C199.622 145.624 199.015 145.901 198.373 146.064C198.373 146.04 198.778 145.886 199.271 145.678C199.765 145.469 200.154 145.226 200.166 145.245Z" fill="#263238"/>
<path d="M201.366 144.694C201.385 144.694 201.366 144.791 201.366 144.903C201.366 145.015 201.366 145.107 201.366 145.115C201.366 145.123 201.289 145.03 201.289 144.903C201.289 144.775 201.347 144.683 201.366 144.694Z" fill="#263238"/>
<path d="M201.563 143.922C201.582 143.922 201.563 144.011 201.54 144.104C201.517 144.197 201.459 144.266 201.44 144.258C201.42 144.251 201.44 144.17 201.463 144.077C201.486 143.984 201.54 143.915 201.563 143.922Z" fill="#263238"/>
<path d="M202.095 143.355C202.095 143.378 202.018 143.413 201.941 143.487C201.863 143.56 201.821 143.637 201.802 143.629C201.782 143.622 201.802 143.514 201.887 143.425C201.971 143.336 202.091 143.355 202.095 143.355Z" fill="#263238"/>
<path d="M202.5 143.038C202.5 143.038 202.5 143.1 202.454 143.142C202.407 143.185 202.365 143.208 202.35 143.192C202.334 143.177 202.35 143.131 202.396 143.088C202.442 143.046 202.484 143.023 202.5 143.038Z" fill="#263238"/>
<path d="M194.916 64.4697L193.79 50.6891L199.573 50.7934C199.573 50.7934 199.839 48.7591 198.987 44.3045C198.463 41.5716 196.647 39.8963 194.608 38.9004V38.8618L194.43 38.8155C192.751 38.0608 190.958 37.5924 189.125 37.4297L182.012 37.5108C182.012 37.5108 176.58 36.8159 173.584 40.7108C172.427 42.2046 168.838 52.4301 168.838 52.4301L177.378 56.5449L176.58 50.8744C176.58 50.8744 176.742 54.9854 177.266 56.2786C177.555 57.0043 178.422 59.2586 178.422 59.2586L178.311 66.0601L194.916 64.4697Z" fill="#2C74F7"/>
<path d="M190.994 48.6901L189.938 53.191H199.896L199.241 45.6406L190.994 48.6901Z" fill="#2C74F7"/>
<path d="M199.897 53.1898C199.462 53.1095 199.021 53.0656 198.578 53.0585C197.761 53.0122 196.65 52.9698 195.386 52.9775C194.121 52.9852 193.007 53.0392 192.19 53.101C191.748 53.1164 191.308 53.1707 190.875 53.2631C191.316 53.2983 191.76 53.2983 192.201 53.2631C193.015 53.2361 194.129 53.2052 195.386 53.2014C196.643 53.1975 197.757 53.2014 198.574 53.2207C199.015 53.2454 199.457 53.2351 199.897 53.1898Z" fill="#263238"/>
<path d="M190.563 45.6055C190.516 45.9896 190.505 46.3774 190.532 46.7635C190.532 47.4699 190.563 48.4426 190.605 49.5196C190.648 50.5966 190.698 51.5732 190.744 52.2757C190.746 52.6649 190.787 53.0529 190.868 53.4338C190.915 53.0496 190.925 52.6618 190.898 52.2757C190.898 51.5693 190.868 50.5927 190.825 49.5157C190.783 48.4388 190.733 47.466 190.686 46.7596C190.685 46.3717 190.643 45.985 190.563 45.6055Z" fill="#263238"/>
<g opacity="0.3">
<path d="M181.502 49.5039C181.502 49.5039 183.715 65.9364 189.938 65.5002C189.938 65.5002 192.74 65.4693 193.639 63.6049V62.8714L181.502 49.5039Z" fill="black"/>
</g>
<g opacity="0.3">
<path d="M190.562 46.5742L189.371 54.6303L190.142 56.0431L191.414 53.2792L190.875 53.2638L190.562 46.5742Z" fill="black"/>
</g>
<path d="M178.388 59.266C178.314 59.1457 178.257 59.0158 178.218 58.88C178.122 58.6291 177.994 58.2624 177.832 57.803C177.446 56.6061 177.128 55.3882 176.88 54.1552C176.633 52.9215 176.476 51.6714 176.41 50.4148C176.387 49.9323 176.379 49.5424 176.387 49.2567C176.377 49.1172 176.386 48.9769 176.414 48.8398C176.445 48.8398 176.468 49.4343 176.549 50.3839C176.657 51.6291 176.833 52.8675 177.077 54.0934C177.362 55.5294 177.705 56.8148 177.967 57.7374C178.091 58.1659 178.195 58.5326 178.28 58.8337C178.333 58.973 178.369 59.1181 178.388 59.266Z" fill="#263238"/>
<path d="M180.901 63.9865C180.847 63.9865 180.693 63.6506 180.558 63.2145C180.442 62.9472 180.39 62.6562 180.408 62.3652C180.578 62.6011 180.695 62.8711 180.751 63.1566C180.861 63.4187 180.913 63.7021 180.901 63.9865Z" fill="#263238"/>
<path d="M181.761 63.9243C181.47 63.15 181.457 62.2981 181.726 61.5156C181.757 61.9165 181.757 62.3191 181.726 62.72C181.768 63.12 181.78 63.5226 181.761 63.9243Z" fill="#263238"/>
<path d="M177.55 56.7345C177.523 56.7808 175.538 55.839 173.113 54.6269C170.688 53.4148 168.741 52.388 168.764 52.3378C168.787 52.2877 170.776 53.2334 173.201 54.4455C175.627 55.6575 177.574 56.6843 177.55 56.7345Z" fill="#263238"/>
<path d="M181.052 38.8424C181.094 36.8892 181.106 34.8356 181.106 34.8356C181.106 34.8356 178.604 34.3531 178.168 31.0566C177.752 27.9144 178.916 20.5378 178.916 20.5378C182.571 19.1559 186.369 20.4104 188.871 23.3749L188.25 39.2284C188.177 41.0697 186.538 42.4747 184.572 42.3821C182.583 42.2856 181.01 40.7029 181.052 38.8424Z" fill="#B78876"/>
<path d="M178.723 26.4314C178.719 26.5397 178.757 26.6451 178.829 26.7262C178.901 26.8072 179.001 26.8578 179.108 26.8676C179.163 26.8729 179.218 26.867 179.271 26.8502C179.323 26.8334 179.371 26.8062 179.413 26.77C179.454 26.7339 179.488 26.6897 179.512 26.6401C179.536 26.5905 179.549 26.5366 179.552 26.4816C179.555 26.3738 179.517 26.2688 179.445 26.1884C179.373 26.1079 179.274 26.0581 179.166 26.0493C179.111 26.0409 179.055 26.0446 179.002 26.06C178.948 26.0753 178.899 26.1021 178.857 26.1384C178.815 26.1747 178.781 26.2197 178.758 26.2702C178.735 26.3208 178.723 26.3758 178.723 26.4314Z" fill="#263238"/>
<path d="M178.57 25.8805C178.62 25.9346 178.955 25.7068 179.398 25.7223C179.842 25.7377 180.17 25.9693 180.223 25.9153C180.277 25.8612 180.2 25.7917 180.058 25.6798C179.865 25.5398 179.633 25.4629 179.395 25.4598C179.16 25.4508 178.928 25.5185 178.735 25.6528C178.593 25.757 178.543 25.8535 178.57 25.8805Z" fill="#263238"/>
<path d="M183.315 26.7166C183.31 26.8251 183.348 26.931 183.42 27.0123C183.492 27.0936 183.592 27.1439 183.7 27.1528C183.756 27.1612 183.812 27.1575 183.866 27.1419C183.919 27.1263 183.969 27.0992 184.011 27.0624C184.053 27.0257 184.087 26.9803 184.11 26.9292C184.133 26.8782 184.144 26.8227 184.144 26.7668C184.148 26.6587 184.11 26.5532 184.038 26.4726C183.966 26.3919 183.866 26.3424 183.758 26.3344C183.703 26.3261 183.647 26.3297 183.594 26.3451C183.54 26.3605 183.491 26.3873 183.449 26.4235C183.407 26.4598 183.373 26.5048 183.35 26.5554C183.327 26.606 183.315 26.661 183.315 26.7166Z" fill="#263238"/>
<path d="M183.285 26.1654C183.335 26.2233 183.67 25.9956 184.114 26.0071C184.557 26.0187 184.885 26.2542 184.943 26.2001C185 26.1461 184.916 26.0766 184.773 25.9685C184.583 25.8248 184.352 25.7463 184.114 25.7446C183.878 25.7376 183.646 25.8051 183.45 25.9376C183.312 26.0419 183.262 26.1384 183.285 26.1654Z" fill="#263238"/>
<path d="M181.556 29.4804C181.319 29.3989 181.073 29.3483 180.824 29.3298C180.708 29.3298 180.6 29.2873 180.585 29.2101C180.575 29.0895 180.605 28.969 180.669 28.8666L181.032 27.9981C181.369 27.2599 181.646 26.4957 181.861 25.7129C181.466 26.4222 181.128 27.1618 180.851 27.9247C180.731 28.2297 180.612 28.523 180.5 28.801C180.425 28.9389 180.4 29.0986 180.43 29.2526C180.446 29.2945 180.47 29.3322 180.502 29.363C180.534 29.3938 180.573 29.4168 180.615 29.4302C180.679 29.4487 180.746 29.4591 180.812 29.4611C181.058 29.499 181.308 29.5055 181.556 29.4804Z" fill="#263238"/>
<path d="M181.105 34.835C182.648 34.8968 184.177 34.5293 185.524 33.7734C185.524 33.7734 184.402 36.0007 181.129 35.6109L181.105 34.835Z" fill="#A36957"/>
<path d="M184.733 24.8499C184.64 24.9928 184.293 24.931 183.908 24.8499C183.522 24.7689 183.183 24.7033 183.136 24.5373C183.09 24.3713 183.495 24.1513 184.012 24.2555C184.528 24.3597 184.825 24.7264 184.733 24.8499Z" fill="#263238"/>
<path d="M180.235 24.1928C180.2 24.3587 179.83 24.4205 179.406 24.4398C178.982 24.4591 178.608 24.4398 178.557 24.27C178.507 24.1001 178.866 23.8608 179.379 23.8376C179.891 23.8145 180.269 24.0345 180.235 24.1928Z" fill="#263238"/>
<path d="M181.565 30.5659C181.516 30.5544 181.465 30.5595 181.419 30.5805C181.374 30.6015 181.337 30.6371 181.314 30.6817C181.292 30.7211 181.281 30.7655 181.281 30.8106C181.282 30.8557 181.294 30.8998 181.317 30.9387C181.34 30.9776 181.372 31.0098 181.411 31.0322C181.45 31.0546 181.495 31.0664 181.54 31.0664C181.585 31.0664 181.629 31.0546 181.668 31.0322C181.707 31.0098 181.74 30.9776 181.762 30.9387C181.785 30.8998 181.797 30.8557 181.798 30.8106C181.798 30.7655 181.787 30.7211 181.765 30.6817C181.737 30.6299 181.693 30.589 181.639 30.5658C181.585 30.5427 181.525 30.5386 181.468 30.5543" fill="#A36957"/>
<path d="M181.668 30.612C181.668 30.5927 181.594 30.4807 181.398 30.5232C181.339 30.5386 181.285 30.5691 181.242 30.6118C181.199 30.6545 181.167 30.7078 181.151 30.7664C181.13 30.8403 181.132 30.9187 181.156 30.9916C181.18 31.0645 181.225 31.1285 181.286 31.1756C181.35 31.2195 181.426 31.2431 181.504 31.2431C181.582 31.2431 181.657 31.2195 181.722 31.1756C181.773 31.141 181.813 31.0925 181.838 31.0357C181.862 30.9789 181.87 30.9163 181.86 30.8552C181.822 30.6506 181.672 30.6197 181.664 30.6467C181.656 30.6738 181.718 30.7432 181.706 30.8629C181.704 30.8925 181.694 30.9209 181.678 30.9459C181.662 30.9708 181.64 30.9913 181.614 31.0057C181.584 31.023 181.55 31.0321 181.515 31.0321C181.481 31.0321 181.447 31.023 181.417 31.0057C181.39 30.9829 181.37 30.9534 181.357 30.9203C181.345 30.8872 181.342 30.8514 181.348 30.8166C181.352 30.7861 181.364 30.7571 181.382 30.7322C181.4 30.7073 181.424 30.6873 181.452 30.6738C181.56 30.6081 181.656 30.639 181.668 30.612Z" fill="#263238"/>
<path d="M187.375 27.2471C186.989 28.1504 186.033 28.8491 186.164 29.8257C186.249 30.4549 186.654 31.0416 186.577 31.6747C186.476 32.4467 185.655 33.018 185.536 33.8093C185.393 34.7782 186.338 35.5309 186.712 36.4342C187.263 37.7543 186.561 39.2366 186.542 40.6803C186.565 41.7764 186.983 42.827 187.721 43.6376C188.458 44.4482 189.464 44.9636 190.552 45.0885C191.431 45.1619 192.421 44.8955 192.865 44.139C193.25 43.5136 193.166 42.7184 193.389 42.0275C193.728 40.993 194.712 40.2364 194.931 39.171C195.317 37.241 192.965 35.6197 193.119 33.6433C193.185 32.798 193.705 32.0646 193.925 31.2462C194.065 30.7084 194.076 30.1451 193.956 29.6023C193.837 29.0595 193.591 28.5527 193.239 28.1234C192.657 27.4324 191.816 26.9654 191.311 26.2242C190.752 25.3711 190.733 24.2942 190.54 23.2867C190.281 22.0621 189.716 20.9232 188.899 19.9765C188.081 19.0298 187.037 18.3061 185.864 17.8731C184.691 17.4401 183.427 17.3119 182.191 17.5006C180.955 17.6892 179.787 18.1885 178.796 18.9518C178.796 18.9518 178.237 21.4956 180.847 21.9241C183.458 22.3525 184.664 21.8584 184.957 22.9045C184.888 23.3355 184.922 23.7767 185.056 24.192C185.19 24.6073 185.421 24.9849 185.728 25.2939C186.793 26.4442 187.806 26.1972 187.375 27.2471Z" fill="#263238"/>
<path d="M191.519 44.8912C191.439 44.894 191.358 44.8862 191.28 44.868C191.054 44.8279 190.832 44.7672 190.617 44.6866C189.821 44.381 189.123 43.8647 188.597 43.1928C188.228 42.7291 187.939 42.2073 187.741 41.6487C187.516 41.0125 187.397 40.3434 187.39 39.6685C187.382 38.9246 187.475 38.183 187.668 37.4644C187.773 37.0848 187.902 36.7122 188.053 36.3488C188.212 35.987 188.353 35.6173 188.473 35.2409C188.579 34.8701 188.579 34.4769 188.473 34.1061C188.361 33.741 188.215 33.387 188.038 33.0484C187.859 32.7127 187.708 32.3628 187.587 32.0023C187.468 31.6455 187.44 31.2647 187.506 30.8945C187.66 30.1688 188.099 29.6284 188.362 29.0764C188.611 28.5654 188.731 28.0004 188.709 27.432C188.674 26.6001 188.372 25.8016 187.849 25.1545C187.646 24.9278 187.428 24.715 187.197 24.5176C187.468 24.6696 187.709 24.8683 187.911 25.1043C188.472 25.7505 188.803 26.5652 188.851 27.4204C188.883 28.0136 188.767 28.6054 188.512 29.142C188.246 29.7133 187.818 30.2576 187.687 30.9215C187.556 31.5854 187.868 32.2841 188.211 32.9558C188.398 33.304 188.551 33.6699 188.666 34.0482C188.78 34.452 188.78 34.8796 188.666 35.2834C188.538 35.6728 188.39 36.0555 188.223 36.4299C188.071 36.7854 187.942 37.1503 187.837 37.5223C187.646 38.2227 187.551 38.9461 187.556 39.6723C187.544 40.9091 187.943 42.1148 188.689 43.1001C189.189 43.7637 189.853 44.2842 190.617 44.6094C191.191 44.8333 191.523 44.868 191.519 44.8912Z" fill="#455A64"/>
<path d="M191.134 25.4124C190.946 25.4611 190.753 25.4896 190.559 25.4973C190.03 25.554 189.496 25.5397 188.971 25.4549C188.573 25.3958 188.19 25.2579 187.846 25.0491C187.502 24.8403 187.203 24.5649 186.966 24.2389C186.746 23.8266 186.57 23.3918 186.442 22.9419C186.277 22.4927 185.968 22.111 185.563 21.8573C184.718 21.3207 183.727 21.2551 182.864 21.1509C182.067 21.1111 181.294 20.8694 180.616 20.4483C180.162 20.1472 179.834 19.6898 179.695 19.1629C179.661 19.0201 179.652 18.8726 179.668 18.7267C179.668 18.6264 179.691 18.5762 179.699 18.5762C179.703 18.7674 179.728 18.9575 179.772 19.1436C179.931 19.6363 180.259 20.0571 180.697 20.3325C181.362 20.7211 182.113 20.9386 182.883 20.9656C183.747 21.0659 184.772 21.1161 185.674 21.6874C186.116 21.965 186.452 22.382 186.631 22.8725C186.751 23.3109 186.918 23.7353 187.128 24.1386C187.577 24.7554 188.25 25.1711 189.002 25.2966C189.51 25.3912 190.027 25.4262 190.544 25.4008C190.74 25.3898 190.938 25.3936 191.134 25.4124Z" fill="#455A64"/>
<path d="M190.177 22.2704C190.032 22.3191 189.879 22.3413 189.726 22.336C189.007 22.3409 188.315 22.0638 187.798 21.564C187.562 21.3272 187.361 21.0582 187.2 20.765C186.854 20.1783 186.518 19.4564 185.797 19.1553C185.103 18.922 184.363 18.8572 183.638 18.9662C183.027 19.0522 182.407 19.0522 181.795 18.9662C181.37 18.9071 180.969 18.7307 180.639 18.4566C180.553 18.382 180.478 18.2963 180.415 18.2019C180.369 18.135 180.349 18.1002 180.357 18.0977C180.357 18.0977 180.465 18.2212 180.689 18.3949C181.018 18.6296 181.401 18.7783 181.803 18.8272C182.403 18.895 183.01 18.8846 183.607 18.7963C184.363 18.6727 185.138 18.739 185.863 18.9893C186.235 19.1568 186.554 19.424 186.784 19.7614C186.987 20.0623 187.174 20.3741 187.343 20.6955C187.495 20.9761 187.683 21.2356 187.902 21.4675C188.096 21.6637 188.318 21.829 188.561 21.9578C188.92 22.1452 189.314 22.2544 189.718 22.2781C190.015 22.2743 190.173 22.2511 190.177 22.2704Z" fill="#455A64"/>
<path d="M192.667 44.0568C192.648 44.0568 192.771 43.802 192.914 43.3233C193.107 42.6514 193.193 41.9531 193.168 41.2543C193.14 40.22 192.858 39.2084 192.347 38.3091C192.066 37.8034 191.638 37.3518 191.287 36.7959C191.101 36.5127 190.971 36.1972 190.901 35.8656C190.841 35.5166 190.87 35.1579 190.986 34.8234C191.202 34.1556 191.588 33.5959 191.673 32.9821C191.757 32.3684 191.464 31.8241 191.171 31.3107C191.02 31.0609 190.883 30.8032 190.759 30.5387C190.646 30.2822 190.572 30.0103 190.539 29.7319C190.503 29.2414 190.518 28.7485 190.585 28.2612C190.709 27.5725 190.645 26.8632 190.4 26.2076C190.291 25.978 190.136 25.7731 189.945 25.6055C189.945 25.6055 189.965 25.6055 189.992 25.6286C190.037 25.6513 190.079 25.6813 190.115 25.7174C190.266 25.8432 190.388 25.9998 190.474 26.1768C190.752 26.8379 190.839 27.5644 190.724 28.2728C190.671 28.751 190.665 29.2332 190.705 29.7126C190.8 30.2519 191.013 30.7634 191.329 31.2103C191.494 31.4712 191.635 31.7464 191.75 32.0325C191.871 32.3414 191.911 32.6765 191.865 33.0053C191.773 33.6808 191.376 34.2521 191.175 34.8813C191.07 35.1849 191.042 35.51 191.094 35.827C191.162 36.1337 191.284 36.4255 191.457 36.6878C191.784 37.2244 192.228 37.6837 192.509 38.2126C193.026 39.1423 193.301 40.1867 193.311 41.2505C193.323 41.9625 193.214 42.6714 192.987 43.3465C192.926 43.5292 192.851 43.7072 192.764 43.8792C192.74 43.9427 192.708 44.0025 192.667 44.0568Z" fill="#455A64"/>
<path d="M176.966 115.983C176.966 115.983 174.367 91.3404 174.217 82.2344C174.066 73.1285 178.307 64.1421 178.307 64.1421L194.917 63.4512C194.917 63.4512 198.201 72.6884 198.259 76.5755C198.375 84.1182 196.258 91.5643 196.501 97.5475L197.056 115.999" fill="#263238"/>
<path d="M197.615 85.6836C197.528 85.7589 197.437 85.8286 197.341 85.892L197.191 85.9963L197.029 86.1545C196.886 86.2782 196.757 86.4166 196.643 86.5676C196.107 87.2238 195.718 88.4011 195.344 89.8641C195.153 90.6756 194.871 91.4629 194.503 92.211C194.392 92.4159 194.263 92.6109 194.118 92.7939C194.049 92.8865 193.983 92.9869 193.902 93.0757L193.648 93.3305C193.283 93.6714 192.86 93.9435 192.398 94.1334C191.469 94.5425 190.417 94.7355 189.461 95.218C188.481 95.7457 187.724 96.609 187.329 97.6499C186.858 98.696 186.557 99.7923 186.172 100.819C185.786 101.846 185.266 102.826 184.437 103.452C183.644 104.003 182.703 104.301 181.738 104.305C180.844 104.359 180.015 104.332 179.271 104.444C178.601 104.513 177.961 104.755 177.412 105.146C177.012 105.46 176.712 105.884 176.549 106.366C176.445 106.67 176.423 106.996 176.483 107.312C176.529 107.528 176.587 107.632 176.576 107.636C176.514 107.539 176.469 107.432 176.445 107.319C176.363 106.997 176.374 106.659 176.475 106.343C176.629 105.837 176.931 105.389 177.343 105.057C177.905 104.633 178.571 104.366 179.271 104.285C180.042 104.162 180.863 104.177 181.746 104.119C182.683 104.113 183.596 103.823 184.364 103.286C185.143 102.604 185.718 101.719 186.025 100.73C186.411 99.7151 186.692 98.6149 187.182 97.5495C187.597 96.4659 188.388 95.5682 189.41 95.0212C190.405 94.5271 191.458 94.3379 192.364 93.9442C192.807 93.7604 193.215 93.499 193.567 93.1722L193.809 92.929C193.887 92.8441 193.952 92.7476 194.022 92.6588C194.157 92.4833 194.277 92.296 194.38 92.0991C194.749 91.3613 195.035 90.5844 195.232 89.783C195.618 88.3239 196.038 87.1311 196.605 86.4711C196.717 86.3207 196.847 86.1834 196.99 86.0619C197.052 86.0078 197.106 85.9538 197.16 85.9113L197.318 85.811C197.414 85.7626 197.513 85.72 197.615 85.6836Z" fill="#FAFAFA"/>
<path d="M197.714 74.2812C197.732 74.3897 197.739 74.4995 197.737 74.6094C197.736 74.9281 197.697 75.2455 197.621 75.5551C197.289 76.6843 196.637 77.6927 195.744 78.4579C195.154 79.0006 194.508 79.4781 193.816 79.8823C193.072 80.3223 192.251 80.7431 191.406 81.2217C190.52 81.6978 189.694 82.2798 188.947 82.9549C188.18 83.7161 187.549 84.6025 187.081 85.5759C186.608 86.5626 186.068 87.5157 185.465 88.4285C185.159 88.8539 184.804 89.2425 184.409 89.5866C184.019 89.9186 183.59 90.2024 183.133 90.4319C182.304 90.8394 181.441 91.1714 180.553 91.424C179.728 91.6787 178.957 91.9065 178.286 92.196C177.678 92.4385 177.098 92.7493 176.559 93.1224C176.154 93.404 175.789 93.7405 175.476 94.1222C175.214 94.4532 174.995 94.8164 174.824 95.203C174.852 95.096 174.888 94.9915 174.932 94.8904C175.059 94.5987 175.22 94.3239 175.414 94.072C175.722 93.6741 176.085 93.3231 176.494 93.0298C177.035 92.6434 177.618 92.3196 178.232 92.0648C178.975 91.7617 179.733 91.4976 180.503 91.2734C181.378 91.0149 182.23 90.6817 183.048 90.2775C183.482 90.0509 183.889 89.7764 184.262 89.4592C184.643 89.12 184.984 88.7394 185.28 88.3243C185.875 87.4159 186.409 86.4695 186.88 85.491C187.364 84.4958 188.016 83.5921 188.808 82.8198C189.568 82.1346 190.41 81.546 191.314 81.0673C192.162 80.5925 192.983 80.1795 193.727 79.7433C194.417 79.3527 195.063 78.8894 195.655 78.3614C196.541 77.6191 197.199 76.6407 197.552 75.5396C197.651 75.1272 197.705 74.7053 197.714 74.2812Z" fill="#FAFAFA"/>
<path d="M174.3 83.522C174.284 83.4981 174.273 83.4721 174.265 83.4448C174.236 83.3704 174.212 83.2944 174.192 83.2171C174.126 82.91 174.139 82.5911 174.23 82.2906C174.446 81.5186 175.298 80.5266 176.671 80.0363C177.357 79.8009 178.132 79.6503 178.942 79.4496C179.614 79.338 180.25 79.0672 180.797 78.6596C181.343 78.252 181.785 77.7195 182.084 77.1065C182.303 76.6566 182.495 76.1938 182.658 75.7207C182.96 74.6932 183.369 73.7008 183.88 72.76C184.466 71.8353 185.355 71.1434 186.394 70.803C187.34 70.4958 188.304 70.2508 189.282 70.0695C190.154 69.9019 190.999 69.6134 191.792 69.2126C192.463 68.8285 193.042 68.3014 193.488 67.6686C194.146 66.7549 194.522 65.6675 194.568 64.5419C194.569 64.1287 194.542 63.716 194.487 63.3066C194.603 63.7077 194.657 64.1244 194.645 64.5419C194.63 65.6919 194.267 66.8104 193.604 67.7496C193.152 68.4033 192.561 68.948 191.873 69.3438C191.069 69.7596 190.211 70.0598 189.324 70.2355C188.356 70.4196 187.4 70.6659 186.464 70.9728C185.466 71.3001 184.612 71.9647 184.05 72.8527C183.547 73.7806 183.143 74.7587 182.843 75.7709C182.677 76.2526 182.48 76.7232 182.253 77.1799C182.025 77.6186 181.734 78.0217 181.39 78.3765C180.713 78.9947 179.879 79.4153 178.98 79.5924C178.163 79.8009 177.392 79.9321 176.717 80.156C175.379 80.6115 174.531 81.5495 174.304 82.2983C174.21 82.5871 174.185 82.8937 174.23 83.1939C174.263 83.301 174.286 83.4108 174.3 83.522Z" fill="#FAFAFA"/>
<path d="M196.288 104.367C196.304 104.447 196.313 104.529 196.315 104.61C196.323 104.844 196.298 105.078 196.242 105.305C196 106.142 195.487 106.875 194.785 107.39C194.316 107.764 193.796 108.071 193.242 108.301C192.653 108.552 192.001 108.752 191.315 108.965C190.602 109.173 189.905 109.431 189.229 109.737C188.526 110.073 187.896 110.544 187.375 111.122C186.812 111.709 186.326 112.354 185.786 112.925C185.27 113.478 184.67 113.947 184.009 114.315C182.883 114.929 181.624 115.258 180.342 115.272C179.484 115.281 178.63 115.139 177.821 114.851C177.601 114.775 177.387 114.684 177.181 114.577C177.106 114.546 177.034 114.506 176.969 114.458C177.046 114.479 177.122 114.506 177.196 114.539C177.408 114.629 177.624 114.709 177.844 114.778C178.652 115.032 179.496 115.15 180.342 115.129C181.596 115.097 182.823 114.762 183.92 114.153C184.561 113.789 185.142 113.33 185.643 112.79C186.172 112.226 186.654 111.586 187.228 110.983C187.781 110.383 188.446 109.897 189.187 109.555C189.873 109.248 190.58 108.99 191.303 108.783C191.982 108.575 192.629 108.397 193.231 108.142C193.769 107.922 194.275 107.63 194.735 107.274C195.425 106.785 195.94 106.087 196.203 105.282C196.26 104.98 196.289 104.674 196.288 104.367Z" fill="#FAFAFA"/>
<path d="M194.395 53.2064L191.179 53.2836C191.056 53.9327 190.81 54.5524 190.454 55.1094C187.756 50.4387 185.685 44.1853 185.169 41.6724C185.246 41.4215 185.334 41.1436 185.446 40.8348C185.526 40.3657 185.512 39.8853 185.404 39.422C185.311 38.8622 185.157 38.1095 185.111 37.7621C184.968 36.6967 184.795 36.5307 184.425 36.6504C183.923 36.8164 184.633 39.6343 184.22 39.696C183.997 39.7269 183.727 38.7619 183.65 37.9706C183.573 37.1792 183.21 34.7397 182.952 34.5775C182.566 34.3382 182.231 34.7165 182.331 35.504C182.431 36.2914 182.551 38.6847 182.134 38.7194C181.718 38.7542 181.363 34.7088 181.363 34.7088C181.363 34.7088 181.429 33.8287 180.943 33.848C180.072 33.8866 180.754 38.1481 180.828 38.5534C180.881 38.8314 180.442 38.8854 180.388 38.5805C180.334 38.2755 180.134 34.5389 179.231 34.5698C178.545 34.5698 179.76 38.0786 179.374 38.8893C178.988 39.6999 178.726 36.1409 178.075 36.1872C177.832 36.2065 177.651 36.2528 178.098 38.2639C178.526 39.8618 179.041 41.4352 179.64 42.9771C180.673 48.555 185.207 66.4002 192.313 63.1346C196.292 61.3049 197.903 53.2064 197.903 53.2064H194.395Z" fill="#B78876"/>
<path d="M180.688 38.8228C180.719 38.8305 180.75 38.8305 180.781 38.8228C180.827 38.8085 180.867 38.7782 180.893 38.7372C180.919 38.6961 180.93 38.6471 180.923 38.5989C180.923 38.3596 180.877 38.0121 180.823 37.5605C180.733 37.0162 180.674 36.4672 180.646 35.9161C180.646 35.5919 180.646 35.2445 180.665 34.8777C180.671 34.6913 180.69 34.5055 180.723 34.3219C180.754 34.1482 180.869 33.9359 181.004 33.9706H181.028C181.162 33.9706 181.27 34.071 181.313 34.2331C181.361 34.4011 181.379 34.5761 181.367 34.7504C181.446 35.8314 181.584 36.9074 181.779 37.9736C181.81 38.1164 181.841 38.2631 181.887 38.4097C181.908 38.4848 181.934 38.5583 181.964 38.6298C181.984 38.6695 182.006 38.7082 182.03 38.7456C182.047 38.7738 182.071 38.7976 182.099 38.815C182.127 38.8324 182.159 38.843 182.192 38.8459C182.248 38.8397 182.301 38.817 182.344 38.7806C182.388 38.7442 182.419 38.6957 182.435 38.6413C182.468 38.5658 182.492 38.4869 182.508 38.4059C182.538 38.2503 182.559 38.093 182.57 37.9349C182.605 37.2917 182.596 36.6469 182.543 36.0049C182.494 35.6844 182.481 35.3594 182.504 35.036C182.518 34.8963 182.586 34.7676 182.693 34.677C182.718 34.6623 182.745 34.653 182.774 34.6497C182.802 34.6463 182.831 34.6491 182.859 34.6577C182.892 34.6656 182.923 34.6786 182.951 34.6963C182.971 34.711 182.986 34.7311 182.994 34.7542C183.115 35.0673 183.204 35.3919 183.26 35.7231C183.329 36.0628 183.387 36.4141 183.441 36.7653C183.495 37.1166 183.545 37.4717 183.588 37.8307C183.621 38.2012 183.68 38.5688 183.765 38.9309C183.81 39.116 183.868 39.2978 183.938 39.4751C183.978 39.5744 184.032 39.6669 184.1 39.7492C184.126 39.7834 184.162 39.8096 184.202 39.8246C184.242 39.8396 184.286 39.8429 184.328 39.8341C184.367 39.8212 184.402 39.7985 184.43 39.768C184.457 39.7376 184.477 39.7005 184.486 39.6604C184.531 39.4632 184.546 39.2599 184.528 39.0582C184.528 38.8652 184.505 38.6722 184.486 38.4869C184.459 38.1627 184.428 37.8423 184.416 37.5258C184.407 37.3702 184.407 37.2142 184.416 37.0587C184.424 36.9899 184.441 36.9223 184.467 36.858C184.475 36.8368 184.486 36.8171 184.501 36.8001H184.551C184.806 36.6959 184.891 37.051 184.96 37.3366C185.029 37.6223 185.056 37.9465 185.118 38.2515C185.218 38.8575 185.349 39.4636 185.415 40.0426C185.46 40.3198 185.449 40.6032 185.384 40.8764C185.292 41.1543 185.199 41.4283 185.11 41.7024V41.7294V41.7526C185.562 43.649 186.138 45.5136 186.834 47.3343C187.443 48.9826 188.056 50.4224 188.592 51.5804C189.128 52.7384 189.614 53.6456 189.945 54.2555L190.331 54.9464C190.372 55.0288 190.423 55.1064 190.481 55.178C190.449 55.0923 190.409 55.0096 190.361 54.931L189.976 54.2246C189.66 53.6031 189.205 52.6805 188.681 51.5225C188.156 50.3645 187.562 48.9247 186.969 47.2764C186.289 45.4584 185.725 43.5993 185.28 41.7101V41.7642C185.369 41.494 185.457 41.2199 185.55 40.9458C185.63 40.645 185.646 40.3306 185.596 40.0233C185.527 39.4172 185.4 38.8305 185.299 38.2206C185.241 37.9195 185.203 37.6107 185.141 37.2942C185.137 37.1316 185.11 36.9704 185.06 36.8155C185.016 36.7213 184.941 36.6451 184.848 36.5994C184.749 36.5669 184.643 36.5669 184.544 36.5994H184.482C184.449 36.6098 184.419 36.6269 184.393 36.6495C184.351 36.6859 184.317 36.7323 184.297 36.7846C184.262 36.8682 184.239 36.9568 184.231 37.0471C184.22 37.2142 184.22 37.3819 184.231 37.5489C184.231 37.8732 184.278 38.1974 184.305 38.5217C184.305 38.7108 184.335 38.9077 184.343 39.0814C184.358 39.2555 184.349 39.4309 184.316 39.6025C184.316 39.6411 184.285 39.6334 184.316 39.6527L184.293 39.6295C184.244 39.5665 184.205 39.4961 184.177 39.4211C184.11 39.2541 184.055 39.0825 184.012 38.9077C183.927 38.5562 183.869 38.1987 183.838 37.8384C183.797 37.4756 183.747 37.1166 183.688 36.7615C183.634 36.4063 183.572 36.0589 183.503 35.7115C183.445 35.3579 183.346 35.0121 183.21 34.6809C183.183 34.6255 183.142 34.5787 183.09 34.5458C183.045 34.5197 182.997 34.499 182.948 34.484C182.893 34.4696 182.835 34.4662 182.779 34.4742C182.723 34.4821 182.669 34.5012 182.62 34.5303C182.54 34.5898 182.474 34.6651 182.425 34.7514C182.376 34.8378 182.345 34.9334 182.335 35.0322C182.31 35.2075 182.31 35.3856 182.335 35.561C182.335 35.727 182.373 35.8891 182.385 36.0512C182.438 36.6828 182.45 37.3173 182.419 37.9504C182.41 38.1008 182.391 38.2504 182.361 38.3982C182.35 38.4672 182.331 38.5346 182.304 38.5989C182.294 38.6243 182.279 38.6479 182.261 38.6684C182.261 38.7031 182.234 38.6684 182.238 38.7147C182.238 38.6761 182.238 38.7147 182.238 38.6645C182.221 38.6384 182.206 38.6114 182.192 38.5834C182.165 38.5217 182.142 38.4522 182.119 38.3866C182.076 38.2476 182.045 38.1048 182.014 37.9658C181.813 36.9088 181.668 35.842 181.579 34.7697C181.59 34.5756 181.568 34.381 181.513 34.1945C181.488 34.0972 181.436 34.009 181.363 33.9397C181.325 33.9032 181.28 33.8748 181.231 33.8562C181.182 33.8377 181.13 33.8293 181.078 33.8317H181.101C181.036 33.8221 180.969 33.832 180.909 33.8602C180.85 33.8883 180.8 33.9334 180.765 33.9899C180.708 34.082 180.669 34.1842 180.65 34.291C180.617 34.4824 180.599 34.6759 180.596 34.87C180.596 35.256 180.596 35.5919 180.596 35.92C180.632 36.4745 180.703 37.0263 180.808 37.5721C180.873 38.0199 180.923 38.3673 180.947 38.6027C180.954 38.644 180.947 38.6865 180.926 38.7231C180.906 38.7597 180.874 38.7881 180.835 38.8035C180.719 38.8151 180.684 38.8189 180.688 38.8228Z" fill="#A36957"/>
<path d="M155.579 58.5214C154.826 58.5053 154.075 58.5924 153.346 58.78C151.353 59.305 147.918 61.3895 147.775 63.9642H150.274C150.274 63.9642 148.874 66.9442 149.283 66.6662C150.351 65.9483 152.471 63.7905 152.471 63.7905L155.579 58.5214Z" fill="#B78876"/>
<path d="M189.634 13.6549C189.576 13.6549 189.352 11.5936 189.129 9.02275C188.905 6.45192 188.766 4.39062 188.82 4.39062C188.874 4.39062 189.102 6.45192 189.325 9.02275C189.549 11.5936 189.688 13.6549 189.634 13.6549Z" fill="#263238"/>
<path d="M200.587 4.54912C200.629 4.58 198.945 7.03117 196.82 10.0227C194.696 13.0143 192.934 15.4269 192.888 15.3806C192.841 15.3343 194.53 12.8985 196.654 9.90695C198.779 6.91537 200.541 4.51824 200.587 4.54912Z" fill="#263238"/>
<path d="M205.136 15.6577C205.136 15.7117 203.177 16.1633 200.74 16.6652C198.304 17.167 196.314 17.5298 196.303 17.4758C196.291 17.4217 198.257 16.9701 200.698 16.4683C203.138 15.9665 205.109 15.6036 205.136 15.6577Z" fill="#263238"/>
<path d="M67.582 79.664C67.582 74.3327 71.8077 69.9707 76.9725 69.9707H171.66C176.825 69.9707 181.05 74.3327 181.05 79.664V116.822C181.05 122.153 176.825 126.515 171.66 126.515H76.9725C71.8077 126.515 67.582 122.153 67.582 116.822V79.664Z" fill="white"/>
<rect x="74.7461" y="103.779" width="89.9258" height="2.47381" rx="1.23691" fill="#EAECF6"/>
<rect x="74.7461" y="111.201" width="89.9258" height="2.47381" rx="1.23691" fill="#EAECF6"/>
<rect x="74.7461" y="84.8125" width="56.5021" height="2.47381" rx="1.23691" fill="#EAECF6"/>
<rect x="74.7461" y="92.2363" width="56.5021" height="2.47381" rx="1.23691" fill="#EAECF6"/>
<mask id="mask0_1059_14381" style="mask-type:luminance" maskUnits="userSpaceOnUse" x="67" y="69" width="115" height="58">
<path d="M67.5781 79.662C67.5781 74.3307 71.8038 69.9688 76.9686 69.9688H171.656C176.821 69.9688 181.046 74.3307 181.046 79.662V116.82C181.046 122.151 176.821 126.513 171.656 126.513H76.9686C71.8038 126.513 67.5781 122.151 67.5781 116.82V79.662Z" fill="white"/>
</mask>
<g mask="url(#mask0_1059_14381)">
<path d="M76.9679 69.1621C71.3337 69.1621 66.7949 73.8472 66.7949 79.6632H68.36C68.36 74.7358 72.1945 70.7777 76.9679 70.7777V69.1621ZM171.655 70.7777C176.429 70.7777 180.263 74.7358 180.263 79.6632H181.828C181.828 73.8472 177.29 69.1621 171.655 69.1621V70.7777ZM180.263 116.821C180.263 121.748 176.429 125.706 171.655 125.706V127.322C177.29 127.322 181.828 122.637 181.828 116.821H180.263ZM76.9679 125.706C72.1945 125.706 68.36 121.748 68.36 116.821H66.7949C66.7949 122.637 71.3337 127.322 76.9679 127.322V125.706ZM68.36 116.821V79.6632H66.7949V116.821H68.36ZM171.655 125.706H76.9679V127.322H171.655V125.706ZM180.263 79.6632V116.821H181.828V79.6632H180.263ZM76.9679 70.7777H171.655V69.1621H76.9679V70.7777Z" fill="#CED8E3"/>
</g>
<g clip-path="url(#clip1_1059_14381)">
<path d="M59.4119 84.6717H46.0748V82.971H59.4119V70.7656H20V141.347H103.27V84.6717H59.4119Z" fill="#C5E7FB"/>
<path d="M45.3968 84.6717V85.3497H46.0748H59.4119H102.592V140.669H20.678V71.4436H58.734V82.293H46.0748H45.3968V82.971V84.6717Z" stroke="#2670FB" stroke-opacity="0.4" stroke-width="1.35596"/>
<g opacity="0.5">
<path d="M77.0569 121.786L73.6024 125.499L47 101.536L50.4545 97.8223L77.0569 121.786Z" fill="white"/>
<path d="M72.1553 97L75.9722 100.439L51.9028 126.321L48.082 122.882L72.1553 97Z" fill="white"/>
</g>
</g>
<path d="M155.497 18.2017C155.372 18.149 155.265 18.0619 155.187 17.9505C155.11 17.8391 155.066 17.708 155.061 17.5725L154.907 13.9903C154.901 13.879 154.922 13.768 154.967 13.666C155.011 13.564 155.079 13.4738 155.165 13.4027C155.251 13.3315 155.352 13.2813 155.46 13.256C155.568 13.2307 155.681 13.231 155.79 13.2569C156.088 13.3214 156.397 13.3242 156.696 13.2651C156.996 13.206 157.28 13.0863 157.532 12.9134C157.764 12.7664 157.963 12.5735 158.118 12.3464C158.272 12.1194 158.379 11.863 158.43 11.5932C158.465 11.32 158.445 11.0426 158.371 10.7773C158.297 10.5121 158.17 10.2645 157.999 10.0492C157.818 9.80417 157.591 9.59726 157.33 9.44028C157.07 9.28329 156.78 9.17932 156.48 9.13432C155.873 9.10055 155.273 9.27273 154.776 9.62299C154.279 9.97326 153.915 10.4811 153.742 11.0644C153.685 11.2411 153.561 11.3888 153.398 11.4766C153.234 11.5645 153.043 11.5857 152.864 11.536C152.685 11.4862 152.532 11.3693 152.437 11.2095C152.342 11.0498 152.313 10.8595 152.354 10.6784C152.617 9.76098 153.186 8.962 153.968 8.41577C154.749 7.86955 155.695 7.60939 156.645 7.67906C157.14 7.74505 157.617 7.90993 158.046 8.1639C158.476 8.41787 158.851 8.75576 159.148 9.15748C159.436 9.5298 159.648 9.95633 159.769 10.4118C159.89 10.8673 159.919 11.3426 159.853 11.8094C159.766 12.2755 159.583 12.7187 159.318 13.1117C159.053 13.5048 158.71 13.8392 158.311 14.0945C157.733 14.4844 157.057 14.705 156.36 14.7315L156.48 17.4953C156.484 17.6167 156.458 17.7373 156.403 17.8459C156.349 17.9545 156.268 18.0476 156.168 18.1165C156.068 18.1854 155.952 18.2279 155.832 18.2401C155.711 18.2523 155.589 18.2338 155.477 18.1863L155.497 18.2017Z" fill="#F7603B"/>
<path d="M156.553 19.6689C156.561 19.7855 156.535 19.9018 156.477 20.0033C156.419 20.1047 156.332 20.1866 156.228 20.2387C156.123 20.2908 156.006 20.3107 155.89 20.2958C155.774 20.281 155.665 20.2321 155.577 20.1553C155.489 20.0786 155.426 19.9774 155.396 19.8646C155.365 19.7518 155.369 19.6325 155.406 19.5218C155.443 19.411 155.512 19.3138 155.605 19.2424C155.697 19.171 155.808 19.1287 155.925 19.1208C156.002 19.115 156.08 19.1246 156.153 19.1491C156.227 19.1736 156.295 19.2125 156.353 19.2635C156.412 19.3145 156.46 19.3765 156.494 19.4461C156.528 19.5157 156.548 19.5914 156.553 19.6689Z" fill="#F7603B"/>
<path d="M143.109 13.1494C143.125 13.0731 143.137 12.9957 143.143 12.9178C143.143 12.748 143.186 12.5318 143.217 12.2269C143.255 11.8525 143.318 11.4811 143.406 11.1152C143.456 10.899 143.483 10.6597 143.56 10.4165C143.637 10.1733 143.714 9.91082 143.799 9.64447C144.245 8.32481 144.896 7.08348 145.726 5.9658C146.815 4.5185 148.196 3.31648 149.779 2.43766C150.679 1.92915 151.639 1.53249 152.635 1.25647C153.711 0.970991 154.819 0.82568 155.932 0.824136C156.518 0.814711 157.104 0.845666 157.686 0.916779C157.983 0.94766 158.276 1.02486 158.573 1.07504C158.873 1.12653 159.169 1.19876 159.459 1.29121C160.675 1.63122 161.831 2.15586 162.887 2.84683C165.236 4.37206 167.025 6.62128 167.984 9.2546C168.5 10.6652 168.761 12.1566 168.755 13.659C168.771 15.2067 168.498 16.7437 167.949 18.1907L167.776 18.6308L167.753 18.6887L167.776 18.7466C168.743 20.9739 169.703 23.1626 170.609 25.2818L170.771 25.0965L164.988 22.8769L164.919 22.8499L164.861 22.9039C163.331 24.388 161.458 25.4701 159.409 26.0538C157.659 26.5363 155.826 26.6417 154.031 26.3629C152.237 26.0841 150.522 25.4275 149 24.4364C147.753 23.6178 146.654 22.5931 145.75 21.4062C144.439 19.6737 143.59 17.6361 143.282 15.4848C143.236 15.0988 143.197 14.7746 143.163 14.4812C143.128 14.1878 143.163 13.9485 143.143 13.7439C143.124 13.5393 143.143 13.4042 143.143 13.2923C143.163 13.2893 143.18 13.2793 143.192 13.264C143.204 13.2488 143.21 13.2296 143.209 13.2101C143.207 13.1907 143.198 13.1726 143.184 13.1593C143.17 13.1461 143.151 13.1387 143.132 13.1387C143.112 13.1387 143.094 13.1461 143.079 13.1593C143.065 13.1726 143.056 13.1907 143.055 13.2101C143.053 13.2296 143.059 13.2488 143.071 13.264C143.084 13.2793 143.101 13.2893 143.12 13.2923C143.12 13.4042 143.12 13.5548 143.12 13.7439C143.12 13.933 143.12 14.1955 143.12 14.4889C143.12 14.7823 143.186 15.1181 143.224 15.5002C143.351 16.4287 143.572 17.3418 143.884 18.2255C144.325 19.3924 144.919 20.4957 145.649 21.5066C146.557 22.7146 147.664 23.759 148.923 24.5947C150.464 25.6105 152.203 26.2866 154.025 26.5781C155.847 26.8696 157.71 26.7698 159.49 26.2854C161.564 25.6957 163.46 24.6033 165.011 23.1047L164.884 23.1317L170.667 25.3628L170.956 25.4748L170.829 25.1775C169.912 23.0583 168.963 20.8735 167.999 18.6424V18.7543L168.177 18.3027C168.739 16.8241 169.019 15.2527 169.002 13.6706C169.014 12.1363 168.753 10.6122 168.231 9.16968C167.251 6.48388 165.422 4.19189 163.022 2.64225C161.939 1.93516 160.753 1.40121 159.506 1.0596C159.211 0.966129 158.909 0.895158 158.604 0.847297C158.303 0.793256 158.006 0.716054 157.705 0.689033C157.116 0.615751 156.522 0.582222 155.928 0.588671C154.797 0.593462 153.672 0.746598 152.581 1.04416C151.572 1.3313 150.6 1.73821 149.686 2.25624C148.088 3.15662 146.698 4.38686 145.611 5.86543C144.782 7.00162 144.141 8.26305 143.71 9.60201C143.629 9.87994 143.552 10.1463 143.483 10.374C143.421 10.6067 143.372 10.8425 143.336 11.0804C143.253 11.4488 143.199 11.8231 143.174 12.1999C143.151 12.4971 143.136 12.7248 143.124 12.8947C143.108 12.9786 143.103 13.0642 143.109 13.1494Z" fill="#263238"/>
</g>
<defs>
<clipPath id="clip0_1059_14381">
<rect width="224" height="152" fill="white" transform="translate(0 0.5)"/>
</clipPath>
<clipPath id="clip1_1059_14381">
<rect width="83.2696" height="70.5809" fill="white" transform="translate(20 70.7656)"/>
</clipPath>
</defs>
</svg>
