<svg width="34" height="34" viewBox="0 0 34 34" fill="none" xmlns="http://www.w3.org/2000/svg">
<mask id="path-1-outside-1_1_1352" maskUnits="userSpaceOnUse" x="0" y="0" width="34" height="34" fill="black">
<rect fill="white" width="34" height="34"/>
<path d="M18.3593 16.6055C17.8333 16.4301 17.3949 16.2548 17.3072 16.2548V15.0274C17.9209 15.1151 18.6223 15.4657 18.71 15.5534L19.3237 14.4137C19.0607 14.2383 18.7977 14.1507 18.447 13.9753C18.0963 13.8 17.7456 13.8 17.3949 13.7123V12.8356H16.7812V13.7123C15.4662 13.8877 14.8525 14.6767 14.8525 15.6411C14.8525 16.0794 14.9401 16.4301 15.2908 16.6931C15.7292 17.1315 16.6059 17.3068 16.9566 17.4822V18.6219C16.1675 18.5342 15.3785 18.0959 15.2908 17.9205L14.5894 19.2356C15.2031 19.674 16.0799 19.937 16.7812 19.937V20.9014H17.3949V20.0246C18.184 20.0246 18.973 19.674 19.3237 18.9726C19.5867 18.5342 19.5867 17.8329 19.3237 17.3945C19.236 17.1315 18.973 16.8685 18.3593 16.6055ZM16.9566 16.1671C16.7812 16.0794 16.6059 15.9918 16.5182 15.9041C16.3429 15.9041 16.3429 15.7288 16.3429 15.6411C16.3429 15.3781 16.5182 15.2027 16.9566 15.1151V16.1671ZM17.3072 18.7972V17.7452C17.4826 17.8329 17.6579 17.9205 17.7456 18.0082C17.8333 18.0959 17.9209 18.1835 17.9209 18.3589C18.0086 18.6219 17.7456 18.7972 17.3072 18.7972Z"/>
<path d="M17.0434 10.3808C13.4489 10.3808 10.3804 13.3616 10.3804 17.0438C10.3804 20.6383 13.3612 23.7068 17.0434 23.7068C20.6379 23.7068 23.7064 20.726 23.7064 17.0438C23.6187 13.3616 20.6379 10.3808 17.0434 10.3808ZM17.0434 22.5671C14.0626 22.5671 11.4324 20.1123 11.4324 16.9561C11.4324 13.9753 13.8872 11.3452 17.0434 11.3452C20.1119 11.3452 22.6544 13.8 22.6544 16.9561C22.5667 20.0246 20.1119 22.5671 17.0434 22.5671Z"/>
<path d="M17.0438 1C8.18904 1 1 8.18904 1 17.0438C1 25.8986 8.18904 33.0877 17.0438 33.0877C25.8986 33.0877 33.0877 25.8986 33.0877 17.0438C33 8.18904 25.8986 1 17.0438 1ZM31.9479 16.5178H28.6164C28.5288 13.8 27.389 11.1699 25.6356 9.2411L28.0027 6.87397C30.3699 9.41644 31.7726 12.7479 31.9479 16.5178ZM17.5699 2.05205C21.2521 2.2274 24.6712 3.63014 27.2137 5.99726L24.8466 8.36438C22.9178 6.61096 20.3753 5.47123 17.5699 5.38356V2.05205ZM16.5178 2.05205V5.38356C13.8 5.47123 11.1699 6.61096 9.2411 8.36438L6.87397 6.08493C9.41644 3.63014 12.7479 2.2274 16.5178 2.05205ZM6.1726 6.87397L8.53973 9.2411C6.7863 11.1699 5.64657 13.7123 5.5589 16.5178H2.13973C2.2274 12.7479 3.71781 9.41644 6.1726 6.87397ZM2.13973 17.5699H5.47123C5.5589 20.2877 6.69863 22.9178 8.45205 24.8466L6.08493 27.2137C3.71781 24.5836 2.2274 21.2521 2.13973 17.5699ZM16.5178 31.9479C12.8356 31.7726 9.41644 30.3699 6.87397 28.0027L9.2411 25.6356C11.1699 27.389 13.7123 28.5288 16.5178 28.6164V31.9479ZM6.52329 17.0438C6.52329 11.2575 11.1699 6.52329 17.0438 6.52329C22.9178 6.52329 27.5644 11.3452 27.5644 17.0438C27.5644 22.8301 22.9178 27.5644 17.0438 27.5644C11.2575 27.5644 6.52329 22.8301 6.52329 17.0438ZM17.5699 31.9479V28.6164C20.2877 28.5288 22.9178 27.389 24.8466 25.6356L27.2137 28.0027C24.5836 30.3699 21.2521 31.7726 17.5699 31.9479ZM28.0027 27.2137L25.6356 24.8466C27.389 22.9178 28.5288 20.3753 28.6164 17.5699H31.9479C31.7726 21.2521 30.2822 24.5836 28.0027 27.2137Z"/>
</mask>
<path d="M18.3593 16.6055C17.8333 16.4301 17.3949 16.2548 17.3072 16.2548V15.0274C17.9209 15.1151 18.6223 15.4657 18.71 15.5534L19.3237 14.4137C19.0607 14.2383 18.7977 14.1507 18.447 13.9753C18.0963 13.8 17.7456 13.8 17.3949 13.7123V12.8356H16.7812V13.7123C15.4662 13.8877 14.8525 14.6767 14.8525 15.6411C14.8525 16.0794 14.9401 16.4301 15.2908 16.6931C15.7292 17.1315 16.6059 17.3068 16.9566 17.4822V18.6219C16.1675 18.5342 15.3785 18.0959 15.2908 17.9205L14.5894 19.2356C15.2031 19.674 16.0799 19.937 16.7812 19.937V20.9014H17.3949V20.0246C18.184 20.0246 18.973 19.674 19.3237 18.9726C19.5867 18.5342 19.5867 17.8329 19.3237 17.3945C19.236 17.1315 18.973 16.8685 18.3593 16.6055ZM16.9566 16.1671C16.7812 16.0794 16.6059 15.9918 16.5182 15.9041C16.3429 15.9041 16.3429 15.7288 16.3429 15.6411C16.3429 15.3781 16.5182 15.2027 16.9566 15.1151V16.1671ZM17.3072 18.7972V17.7452C17.4826 17.8329 17.6579 17.9205 17.7456 18.0082C17.8333 18.0959 17.9209 18.1835 17.9209 18.3589C18.0086 18.6219 17.7456 18.7972 17.3072 18.7972Z" fill="#33323C"/>
<path d="M17.0434 10.3808C13.4489 10.3808 10.3804 13.3616 10.3804 17.0438C10.3804 20.6383 13.3612 23.7068 17.0434 23.7068C20.6379 23.7068 23.7064 20.726 23.7064 17.0438C23.6187 13.3616 20.6379 10.3808 17.0434 10.3808ZM17.0434 22.5671C14.0626 22.5671 11.4324 20.1123 11.4324 16.9561C11.4324 13.9753 13.8872 11.3452 17.0434 11.3452C20.1119 11.3452 22.6544 13.8 22.6544 16.9561C22.5667 20.0246 20.1119 22.5671 17.0434 22.5671Z" fill="#33323C"/>
<path d="M17.0438 1C8.18904 1 1 8.18904 1 17.0438C1 25.8986 8.18904 33.0877 17.0438 33.0877C25.8986 33.0877 33.0877 25.8986 33.0877 17.0438C33 8.18904 25.8986 1 17.0438 1ZM31.9479 16.5178H28.6164C28.5288 13.8 27.389 11.1699 25.6356 9.2411L28.0027 6.87397C30.3699 9.41644 31.7726 12.7479 31.9479 16.5178ZM17.5699 2.05205C21.2521 2.2274 24.6712 3.63014 27.2137 5.99726L24.8466 8.36438C22.9178 6.61096 20.3753 5.47123 17.5699 5.38356V2.05205ZM16.5178 2.05205V5.38356C13.8 5.47123 11.1699 6.61096 9.2411 8.36438L6.87397 6.08493C9.41644 3.63014 12.7479 2.2274 16.5178 2.05205ZM6.1726 6.87397L8.53973 9.2411C6.7863 11.1699 5.64657 13.7123 5.5589 16.5178H2.13973C2.2274 12.7479 3.71781 9.41644 6.1726 6.87397ZM2.13973 17.5699H5.47123C5.5589 20.2877 6.69863 22.9178 8.45205 24.8466L6.08493 27.2137C3.71781 24.5836 2.2274 21.2521 2.13973 17.5699ZM16.5178 31.9479C12.8356 31.7726 9.41644 30.3699 6.87397 28.0027L9.2411 25.6356C11.1699 27.389 13.7123 28.5288 16.5178 28.6164V31.9479ZM6.52329 17.0438C6.52329 11.2575 11.1699 6.52329 17.0438 6.52329C22.9178 6.52329 27.5644 11.3452 27.5644 17.0438C27.5644 22.8301 22.9178 27.5644 17.0438 27.5644C11.2575 27.5644 6.52329 22.8301 6.52329 17.0438ZM17.5699 31.9479V28.6164C20.2877 28.5288 22.9178 27.389 24.8466 25.6356L27.2137 28.0027C24.5836 30.3699 21.2521 31.7726 17.5699 31.9479ZM28.0027 27.2137L25.6356 24.8466C27.389 22.9178 28.5288 20.3753 28.6164 17.5699H31.9479C31.7726 21.2521 30.2822 24.5836 28.0027 27.2137Z" fill="#33323C"/>
<path d="M18.3593 16.6055L18.4186 16.4671L18.4067 16.4632L18.3593 16.6055ZM17.3072 16.2548H17.1572V16.4048H17.3072V16.2548ZM17.3072 15.0274L17.3285 14.8789L17.1572 14.8544V15.0274H17.3072ZM18.71 15.5534L18.6039 15.6595L18.7465 15.802L18.8421 15.6245L18.71 15.5534ZM19.3237 14.4137L19.4558 14.4848L19.5205 14.3646L19.4069 14.2889L19.3237 14.4137ZM17.3949 13.7123H17.2449V13.8294L17.3585 13.8578L17.3949 13.7123ZM17.3949 12.8356H17.5449V12.6856H17.3949V12.8356ZM16.7812 12.8356V12.6856H16.6312V12.8356H16.7812ZM16.7812 13.7123L16.801 13.861L16.9312 13.8436V13.7123H16.7812ZM15.2908 16.6931L15.3969 16.5871L15.3893 16.5795L15.3808 16.5731L15.2908 16.6931ZM16.9566 17.4822H17.1066V17.3895L17.0236 17.348L16.9566 17.4822ZM16.9566 18.6219L16.94 18.771L17.1066 18.7895V18.6219H16.9566ZM15.2908 17.9205L15.425 17.8535L15.2951 17.5937L15.1585 17.8499L15.2908 17.9205ZM14.5894 19.2356L14.4571 19.165L14.3951 19.2812L14.5023 19.3577L14.5894 19.2356ZM16.7812 19.937H16.9312V19.787H16.7812V19.937ZM16.7812 20.9014H16.6312V21.0514H16.7812V20.9014ZM17.3949 20.9014V21.0514H17.5449V20.9014H17.3949ZM17.3949 20.0246V19.8746H17.2449V20.0246H17.3949ZM19.3237 18.9726L19.1947 18.8952L19.1895 18.9055L19.3237 18.9726ZM19.3237 17.3945L19.1814 17.4419L19.1866 17.4576L19.1951 17.4717L19.3237 17.3945ZM16.9566 16.1671L16.8895 16.3013L17.1066 16.4098V16.1671H16.9566ZM16.5182 15.9041L16.6243 15.798L16.5803 15.7541H16.5182V15.9041ZM16.9566 15.1151H17.1066V14.9321L16.9271 14.968L16.9566 15.1151ZM17.3072 18.7972H17.1572V18.9472H17.3072V18.7972ZM17.3072 17.7452L17.3743 17.611L17.1572 17.5025V17.7452H17.3072ZM17.9209 18.3589H17.7709V18.3832L17.7786 18.4063L17.9209 18.3589ZM23.7064 17.0438H23.8565L23.8564 17.0402L23.7064 17.0438ZM22.6544 16.9561L22.8044 16.9604V16.9561H22.6544ZM33.0877 17.0438H33.2377L33.2377 17.0423L33.0877 17.0438ZM31.9479 16.5178V16.6678H32.1051L32.0978 16.5108L31.9479 16.5178ZM28.6164 16.5178L28.4665 16.5226L28.4712 16.6678H28.6164V16.5178ZM25.6356 9.2411L25.5296 9.13503L25.4284 9.23617L25.5246 9.342L25.6356 9.2411ZM28.0027 6.87397L28.1125 6.77176L28.0066 6.65798L27.8967 6.76791L28.0027 6.87397ZM17.5699 2.05205L17.577 1.90222L17.4199 1.89474V2.05205H17.5699ZM27.2137 5.99726L27.3198 6.10333L27.4297 5.9934L27.3159 5.88748L27.2137 5.99726ZM24.8466 8.36438L24.7457 8.47537L24.8515 8.57158L24.9526 8.47045L24.8466 8.36438ZM17.5699 5.38356H17.4199V5.52895L17.5652 5.53349L17.5699 5.38356ZM16.5178 2.05205H16.6678V1.89492L16.5108 1.90222L16.5178 2.05205ZM16.5178 5.38356L16.5226 5.53348L16.6678 5.5288V5.38356H16.5178ZM9.2411 8.36438L9.13705 8.47243L9.23815 8.56978L9.342 8.47537L9.2411 8.36438ZM6.87397 6.08493L6.76978 5.97702L6.65787 6.08507L6.76993 6.19298L6.87397 6.08493ZM6.1726 6.87397L6.27867 6.76791L6.17073 6.65996L6.06469 6.76978L6.1726 6.87397ZM8.53973 9.2411L8.65072 9.342L8.74693 9.23617L8.64579 9.13503L8.53973 9.2411ZM5.5589 16.5178V16.6678H5.70429L5.70883 16.5225L5.5589 16.5178ZM2.13973 16.5178L1.98977 16.5143L1.9862 16.6678H2.13973V16.5178ZM2.13973 17.5699V17.4199H1.98611L1.98977 17.5734L2.13973 17.5699ZM5.47123 17.5699L5.62115 17.565L5.61647 17.4199H5.47123V17.5699ZM8.45205 24.8466L8.55812 24.9526L8.65926 24.8515L8.56305 24.7457L8.45205 24.8466ZM6.08493 27.2137L5.97344 27.314L6.0792 27.4316L6.191 27.3198L6.08493 27.2137ZM16.5178 31.9479L16.5107 32.0978L16.6678 32.1053V31.9479H16.5178ZM6.87397 28.0027L6.76791 27.8967L6.65798 28.0066L6.77176 28.1125L6.87397 28.0027ZM9.2411 25.6356L9.342 25.5246L9.23617 25.4284L9.13503 25.5296L9.2411 25.6356ZM16.5178 28.6164H16.6678V28.4711L16.5225 28.4665L16.5178 28.6164ZM17.5699 31.9479H17.4199V32.1053L17.577 32.0978L17.5699 31.9479ZM17.5699 28.6164L17.565 28.4665L17.4199 28.4712V28.6164H17.5699ZM24.8466 25.6356L24.9526 25.5296L24.8515 25.4284L24.7457 25.5246L24.8466 25.6356ZM27.2137 28.0027L27.314 28.1142L27.4316 28.0085L27.3198 27.8967L27.2137 28.0027ZM28.0027 27.2137L27.8967 27.3198L28.0106 27.4337L28.1161 27.3119L28.0027 27.2137ZM25.6356 24.8466L25.5246 24.7457L25.4284 24.8515L25.5296 24.9526L25.6356 24.8466ZM28.6164 17.5699V17.4199H28.4711L28.4665 17.5652L28.6164 17.5699ZM31.9479 17.5699L32.0978 17.577L32.1053 17.4199H31.9479V17.5699ZM18.4067 16.4632C18.1454 16.376 17.9068 16.2893 17.7188 16.2229C17.6257 16.19 17.5438 16.1618 17.4792 16.1417C17.4469 16.1316 17.417 16.123 17.3911 16.1168C17.3683 16.1113 17.3372 16.1048 17.3072 16.1048V16.4048C17.2993 16.4048 17.301 16.4037 17.321 16.4085C17.3379 16.4126 17.3607 16.419 17.3901 16.4281C17.4487 16.4464 17.5258 16.4729 17.619 16.5058C17.8036 16.571 18.0472 16.6595 18.3119 16.7478L18.4067 16.4632ZM17.4572 16.2548V15.0274H17.1572V16.2548H17.4572ZM17.286 15.1759C17.5756 15.2172 17.8914 15.3219 18.1482 15.4289C18.2759 15.4821 18.3867 15.5349 18.4698 15.579C18.5114 15.6011 18.545 15.6205 18.5697 15.6361C18.5974 15.6536 18.6057 15.6612 18.6039 15.6595L18.8161 15.4473C18.7924 15.4237 18.7596 15.4012 18.7298 15.3824C18.6969 15.3617 18.6565 15.3386 18.6105 15.3141C18.5182 15.2651 18.3989 15.2083 18.2636 15.1519C17.9943 15.0397 17.6526 14.9252 17.3285 14.8789L17.286 15.1759ZM18.8421 15.6245L19.4558 14.4848L19.1916 14.3426L18.5779 15.4823L18.8421 15.6245ZM19.4069 14.2889C19.2657 14.1948 19.1259 14.1252 18.9811 14.0583C18.834 13.9904 18.6867 13.9275 18.5141 13.8412L18.3799 14.1095C18.5579 14.1985 18.7175 14.2671 18.8553 14.3307C18.9954 14.3953 19.1186 14.4573 19.2405 14.5385L19.4069 14.2889ZM18.5141 13.8412C18.3206 13.7444 18.1296 13.6975 17.9486 13.6635C17.7607 13.6283 17.6016 13.6094 17.4313 13.5668L17.3585 13.8578C17.5389 13.9029 17.7305 13.9279 17.8933 13.9584C18.063 13.9902 18.2227 14.0309 18.3799 14.1095L18.5141 13.8412ZM17.5449 13.7123V12.8356H17.2449V13.7123H17.5449ZM17.3949 12.6856H16.7812V12.9856H17.3949V12.6856ZM16.6312 12.8356V13.7123H16.9312V12.8356H16.6312ZM16.7614 13.5636C16.0777 13.6548 15.5607 13.9078 15.2141 14.2783C14.867 14.6495 14.7025 15.1261 14.7025 15.6411H15.0025C15.0025 15.1917 15.1448 14.7916 15.4332 14.4833C15.7223 14.1743 16.1696 13.9452 16.801 13.861L16.7614 13.5636ZM14.7025 15.6411C14.7025 16.1008 14.7956 16.5092 15.2008 16.8131L15.3808 16.5731C15.0847 16.351 15.0025 16.0581 15.0025 15.6411H14.7025ZM15.1847 16.7992C15.4281 17.0426 15.7833 17.2051 16.1034 17.3265C16.265 17.3878 16.4247 17.4411 16.5609 17.4883C16.7006 17.5367 16.8119 17.5776 16.8895 17.6163L17.0236 17.348C16.9258 17.2991 16.7961 17.2523 16.6591 17.2048C16.5186 17.1561 16.366 17.1053 16.2098 17.046C15.8942 16.9263 15.5918 16.782 15.3969 16.5871L15.1847 16.7992ZM16.8066 17.4822V18.6219H17.1066V17.4822H16.8066ZM16.9731 18.4728C16.5986 18.4312 16.2199 18.3055 15.9238 18.168C15.7761 18.0995 15.652 18.0294 15.5615 17.9678C15.5162 17.9369 15.4813 17.9095 15.4567 17.8869C15.4297 17.8622 15.4237 17.8509 15.425 17.8535L15.1566 17.9876C15.1798 18.034 15.2177 18.0748 15.2537 18.1079C15.2921 18.1432 15.3394 18.1795 15.3927 18.2158C15.4995 18.2884 15.6384 18.3663 15.7975 18.4401C16.1152 18.5876 16.5255 18.7249 16.94 18.771L16.9731 18.4728ZM15.1585 17.8499L14.4571 19.165L14.7218 19.3062L15.4232 17.9911L15.1585 17.8499ZM14.5023 19.3577C15.1423 19.8149 16.0498 20.087 16.7812 20.087V19.787C16.1099 19.787 15.2639 19.533 14.6766 19.1135L14.5023 19.3577ZM16.6312 19.937V20.9014H16.9312V19.937H16.6312ZM16.7812 21.0514H17.3949V20.7514H16.7812V21.0514ZM17.5449 20.9014V20.0246H17.2449V20.9014H17.5449ZM17.3949 20.1746C18.2215 20.1746 19.0742 19.807 19.4579 19.0397L19.1895 18.9055C18.8718 19.5409 18.1464 19.8746 17.3949 19.8746V20.1746ZM19.4523 19.0498C19.6008 18.8022 19.6709 18.4891 19.6709 18.1835C19.6709 17.878 19.6008 17.5649 19.4523 17.3173L19.1951 17.4717C19.3095 17.6625 19.3709 17.9192 19.3709 18.1835C19.3709 18.4479 19.3095 18.7046 19.1951 18.8954L19.4523 19.0498ZM19.466 17.3471C19.3577 17.0221 19.0445 16.7359 18.4184 16.4676L18.3002 16.7433C18.9015 17.001 19.1144 17.2409 19.1814 17.4419L19.466 17.3471ZM17.0236 16.0329C16.9351 15.9887 16.8513 15.9467 16.7789 15.9054C16.7047 15.863 16.6534 15.8271 16.6243 15.798L16.4121 16.0102C16.4707 16.0687 16.5509 16.1206 16.6301 16.1658C16.7111 16.2121 16.8027 16.2579 16.8895 16.3013L17.0236 16.0329ZM16.5182 15.7541C16.5004 15.7541 16.4997 15.7501 16.5047 15.7537C16.5087 15.7567 16.5074 15.7581 16.5041 15.7498C16.5004 15.7405 16.4969 15.7259 16.4949 15.7049C16.493 15.6842 16.4929 15.6635 16.4929 15.6411H16.1929C16.1929 15.6798 16.1911 15.7751 16.2255 15.8612C16.2441 15.9076 16.2756 15.9584 16.329 15.9969C16.3833 16.0362 16.4483 16.0541 16.5182 16.0541V15.7541ZM16.4929 15.6411C16.4929 15.5479 16.5216 15.4808 16.585 15.4244C16.655 15.3621 16.7785 15.3036 16.986 15.2621L16.9271 14.968C16.6963 15.0141 16.5129 15.0871 16.3857 15.2002C16.2518 15.3192 16.1929 15.4713 16.1929 15.6411H16.4929ZM16.8066 15.1151V16.1671H17.1066V15.1151H16.8066ZM17.4572 18.7972V17.7452H17.1572V18.7972H17.4572ZM17.2402 17.8794C17.3287 17.9236 17.4125 17.9656 17.4849 18.0069C17.5591 18.0493 17.6104 18.0852 17.6395 18.1143L17.8517 17.9021C17.7931 17.8436 17.7129 17.7917 17.6337 17.7465C17.5527 17.7002 17.4611 17.6544 17.3743 17.611L17.2402 17.8794ZM17.6395 18.1143C17.7256 18.2004 17.7709 18.2495 17.7709 18.3589H18.0709C18.0709 18.1176 17.9409 17.9914 17.8517 17.9021L17.6395 18.1143ZM17.7786 18.4063C17.7915 18.4449 17.7887 18.4703 17.7825 18.4877C17.7759 18.506 17.7604 18.5293 17.7253 18.5538C17.6514 18.6056 17.5114 18.6472 17.3072 18.6472V18.9472C17.5414 18.9472 17.7522 18.9012 17.8974 18.7996C17.9719 18.7474 18.0331 18.6775 18.0649 18.589C18.097 18.4995 18.0942 18.4044 18.0632 18.3115L17.7786 18.4063ZM17.0434 10.2308C13.3673 10.2308 10.2304 13.2775 10.2304 17.0438H10.5304C10.5304 13.4457 13.5304 10.5308 17.0434 10.5308V10.2308ZM10.2304 17.0438C10.2304 20.7199 13.2771 23.8568 17.0434 23.8568V23.5568C13.4453 23.5568 10.5304 20.5568 10.5304 17.0438H10.2304ZM17.0434 23.8568C20.7195 23.8568 23.8564 20.8101 23.8564 17.0438H23.5564C23.5564 20.6419 20.5564 23.5568 17.0434 23.5568V23.8568ZM23.8564 17.0402C23.7668 13.28 20.7227 10.2308 17.0434 10.2308V10.5308C20.5532 10.5308 23.4706 13.4433 23.5565 17.0474L23.8564 17.0402ZM17.0434 22.4171C14.1424 22.4171 11.5824 20.0264 11.5824 16.9561H11.2824C11.2824 20.1982 13.9828 22.7171 17.0434 22.7171V22.4171ZM11.5824 16.9561C11.5824 14.0551 13.9731 11.4952 17.0434 11.4952V11.1952C13.8014 11.1952 11.2824 13.8955 11.2824 16.9561H11.5824ZM17.0434 11.4952C20.0306 11.4952 22.5044 13.8843 22.5044 16.9561H22.8044C22.8044 13.7156 20.1932 11.1952 17.0434 11.1952V11.4952ZM22.5044 16.9519C22.4189 19.9447 20.0253 22.4171 17.0434 22.4171V22.7171C20.1985 22.7171 22.7145 20.1045 22.8043 16.9604L22.5044 16.9519ZM17.0438 0.85C8.1062 0.85 0.85 8.1062 0.85 17.0438H1.15C1.15 8.27188 8.27188 1.15 17.0438 1.15V0.85ZM0.85 17.0438C0.85 25.9815 8.1062 33.2377 17.0438 33.2377V32.9377C8.27188 32.9377 1.15 25.8158 1.15 17.0438H0.85ZM17.0438 33.2377C25.9815 33.2377 33.2377 25.9815 33.2377 17.0438H32.9377C32.9377 25.8158 25.8158 32.9377 17.0438 32.9377V33.2377ZM33.2377 17.0423C33.1492 8.10723 25.9828 0.85 17.0438 0.85V1.15C25.8144 1.15 32.8508 8.27085 32.9377 17.0453L33.2377 17.0423ZM31.9479 16.3678H28.6164V16.6678H31.9479V16.3678ZM28.7664 16.513C28.6775 13.7576 27.5227 11.0939 25.7466 9.14019L25.5246 9.342C27.2554 11.2458 28.3801 13.8424 28.4665 16.5226L28.7664 16.513ZM25.7417 9.34716L28.1088 6.98004L27.8967 6.76791L25.5296 9.13503L25.7417 9.34716ZM27.893 6.97619C30.2348 9.49155 31.6243 12.7889 31.7981 16.5248L32.0978 16.5108C31.9209 12.707 30.5049 9.34133 28.1125 6.77176L27.893 6.97619ZM17.5627 2.20189C21.2117 2.37564 24.5965 3.76553 27.1115 6.10704L27.3159 5.88748C24.7459 3.49474 21.2924 2.07915 17.577 1.90222L17.5627 2.20189ZM27.1076 5.89119L24.7405 8.25832L24.9526 8.47045L27.3198 6.10333L27.1076 5.89119ZM24.9475 8.25339C22.9943 6.47782 20.4184 5.3225 17.5745 5.23363L17.5652 5.53349C20.3323 5.61996 22.8413 6.7441 24.7457 8.47537L24.9475 8.25339ZM17.7199 5.38356V2.05205H17.4199V5.38356H17.7199ZM16.3678 2.05205V5.38356H16.6678V2.05205H16.3678ZM16.513 5.23364C13.7576 5.32252 11.0939 6.47731 9.14019 8.25339L9.342 8.47537C11.2458 6.7446 13.8424 5.61994 16.5226 5.53348L16.513 5.23364ZM9.34514 8.25634L6.97802 5.97688L6.76993 6.19298L9.13705 8.47243L9.34514 8.25634ZM6.97816 6.19284C9.49281 3.76491 12.7891 2.37565 16.5248 2.20189L16.5108 1.90222C12.7068 2.07915 9.34007 3.49537 6.76978 5.97702L6.97816 6.19284ZM6.06654 6.98004L8.43366 9.34716L8.64579 9.13503L6.27867 6.76791L6.06654 6.98004ZM8.42874 9.14019C6.65316 11.0933 5.49785 13.6693 5.40898 16.5131L5.70883 16.5225C5.7953 13.7554 6.91944 11.2464 8.65072 9.342L8.42874 9.14019ZM5.5589 16.3678H2.13973V16.6678H5.5589V16.3678ZM2.28969 16.5213C2.37645 12.7906 3.85084 9.4946 6.28051 6.97816L6.06469 6.76978C3.58477 9.33827 2.07835 12.7053 1.98977 16.5143L2.28969 16.5213ZM2.13973 17.7199H5.47123V17.4199H2.13973V17.7199ZM5.32131 17.5747C5.41019 20.3301 6.56498 22.9938 8.34106 24.9475L8.56305 24.7457C6.83228 22.8418 5.70761 20.2453 5.62115 17.565L5.32131 17.5747ZM8.34599 24.7405L5.97887 27.1076L6.191 27.3198L8.55812 24.9526L8.34599 24.7405ZM6.19643 27.1134C3.85058 24.5069 2.37641 21.2088 2.28968 17.5663L1.98977 17.5734C2.07838 21.2953 3.58504 24.6603 5.97344 27.314L6.19643 27.1134ZM16.5249 31.7981C12.876 31.6244 9.49114 30.2345 6.97619 27.893L6.77176 28.1125C9.34173 30.5053 12.7952 31.9208 16.5107 32.0978L16.5249 31.7981ZM6.98004 28.1088L9.34716 25.7417L9.13503 25.5296L6.76791 27.8967L6.98004 28.1088ZM9.14019 25.7466C11.0933 27.5222 13.6693 28.6775 16.5131 28.7664L16.5225 28.4665C13.7554 28.38 11.2464 27.2559 9.342 25.5246L9.14019 25.7466ZM16.3678 28.6164V31.9479H16.6678V28.6164H16.3678ZM6.67329 17.0438C6.67329 11.3396 11.2535 6.67329 17.0438 6.67329V6.37329C11.0862 6.37329 6.37329 11.1755 6.37329 17.0438H6.67329ZM17.0438 6.67329C22.8333 6.67329 27.4144 11.4264 27.4144 17.0438H27.7144C27.7144 11.264 23.0023 6.37329 17.0438 6.37329V6.67329ZM27.4144 17.0438C27.4144 22.7481 22.8342 27.4144 17.0438 27.4144V27.7144C23.0015 27.7144 27.7144 22.9122 27.7144 17.0438H27.4144ZM17.0438 27.4144C11.3404 27.4144 6.67329 22.7473 6.67329 17.0438H6.37329C6.37329 22.913 11.1747 27.7144 17.0438 27.7144V27.4144ZM17.7199 31.9479V28.6164H17.4199V31.9479H17.7199ZM17.5747 28.7664C20.3301 28.6775 22.9938 27.5227 24.9475 25.7466L24.7457 25.5246C22.8418 27.2554 20.2453 28.3801 17.565 28.4665L17.5747 28.7664ZM24.7405 25.7417L27.1076 28.1088L27.3198 27.8967L24.9526 25.5296L24.7405 25.7417ZM27.1134 27.8912C24.5088 30.2353 21.2102 31.6244 17.5627 31.7981L17.577 32.0978C21.2939 31.9208 24.6583 30.5044 27.314 28.1142L27.1134 27.8912ZM28.1088 27.1076L25.7417 24.7405L25.5296 24.9526L27.8967 27.3198L28.1088 27.1076ZM25.7466 24.9475C27.5222 22.9943 28.6775 20.4184 28.7664 17.5745L28.4665 17.5652C28.38 20.3323 27.2559 22.8413 25.5246 24.7457L25.7466 24.9475ZM28.6164 17.7199H31.9479V17.4199H28.6164V17.7199ZM31.7981 17.5627C31.6245 21.208 30.1491 24.5081 27.8894 27.1155L28.1161 27.3119C30.4153 24.659 31.9207 21.2961 32.0978 17.577L31.7981 17.5627Z" fill="#33323C" mask="url(#path-1-outside-1_1_1352)"/>
</svg>
