<svg width="434" height="381" viewBox="0 0 434 381" fill="none" xmlns="http://www.w3.org/2000/svg">
<path d="M281.419 66.9298C281.157 75.9846 278.213 84.7578 272.96 92.1381C267.708 99.5185 260.383 105.174 251.914 108.388C243.445 111.603 234.212 112.231 225.386 110.194C216.559 108.157 208.536 103.546 202.332 96.9459C196.128 90.3453 192.022 82.052 190.535 73.1163C189.048 64.1806 190.246 55.0046 193.978 46.7506C197.71 38.4965 203.808 31.5357 211.499 26.7498C219.19 21.964 228.129 19.5684 237.182 19.8666C249.289 20.2416 260.752 25.4106 269.048 34.2366C277.344 43.0627 281.794 54.8227 281.419 66.9298Z" fill="#FEFAFA"/>
<path d="M271.79 67.0936C271.581 73.986 269.331 80.6614 265.327 86.2749C261.322 91.8884 255.742 96.1878 249.293 98.6288C242.844 101.07 235.815 101.543 229.097 99.9881C222.379 98.4333 216.273 94.9205 211.553 89.8943C206.832 84.8681 203.708 78.5543 202.577 71.7521C201.445 64.9499 202.357 57.965 205.197 51.6814C208.037 45.3977 212.677 40.0977 218.531 36.4522C224.384 32.8067 231.187 30.9794 238.079 31.2017C242.649 31.3444 247.147 32.386 251.315 34.2671C255.482 36.1481 259.239 38.8318 262.369 42.1648C265.5 45.4977 267.943 49.4147 269.559 53.692C271.176 57.9694 271.934 62.5232 271.79 67.0936Z" fill="#EBEBEB"/>
<path d="M270.544 66.5791C270.516 66.3919 270.501 66.2031 270.499 66.0138C270.499 65.601 270.499 65.0537 270.436 64.3628C270.436 63.9949 270.436 63.5821 270.392 63.1425C270.347 62.7028 270.275 62.2452 270.212 61.6799C270.092 60.4702 269.885 59.2708 269.593 58.0907C268.873 54.8201 267.663 51.6771 266.004 48.7678C261.639 41.0576 254.5 35.3006 246.04 32.6684C237.58 30.0363 228.435 30.7268 220.466 34.5994C219.721 34.9673 219.012 35.398 218.277 35.8018C217.536 36.2055 216.826 36.6613 216.15 37.1657C214.739 38.1318 213.396 39.1931 212.13 40.3421C210.876 41.5547 209.704 42.8497 208.622 44.2185C206.387 47.0204 204.62 50.1657 203.39 53.5324C200.783 60.5012 200.537 68.1338 202.691 75.256C203.7 78.6986 205.264 81.9536 207.321 84.8929C208.308 86.3325 209.393 87.7027 210.569 88.9936C211.761 90.221 213.031 91.369 214.373 92.4302C215.684 93.4734 217.067 94.4238 218.51 95.2747C226.207 99.6844 235.301 100.979 243.924 98.8934C252.546 96.8075 260.043 91.499 264.873 84.0584C266.713 81.2617 268.119 78.2034 269.046 74.9868C269.416 73.8125 269.701 72.613 269.898 71.3976C269.997 70.8772 270.104 70.4016 270.176 69.9619C270.248 69.5222 270.257 69.0646 270.293 68.7506C270.365 68.0507 270.419 67.5033 270.463 67.0995C270.479 66.9126 270.506 66.7268 270.544 66.5432C270.564 66.7311 270.564 66.9206 270.544 67.1085C270.544 67.5123 270.49 68.0596 270.445 68.7595C270.445 69.1274 270.392 69.5402 270.365 69.9799C270.338 70.4195 270.212 70.8772 270.122 71.4425C269.946 72.6563 269.682 73.8558 269.333 75.0316C268.448 78.3187 267.059 81.4486 265.214 84.3097C262.548 88.5074 259.018 92.0888 254.859 94.815C250.7 97.5412 246.008 99.3497 241.095 100.12C234.886 101.084 228.533 100.371 222.691 98.0563C221.149 97.4428 219.651 96.7263 218.205 95.9117C216.732 95.0451 215.32 94.0798 213.979 93.0224C211.185 90.8688 208.76 88.2746 206.8 85.3416C204.696 82.3302 203.096 78.9965 202.062 75.4713C199.867 68.1984 200.119 60.4059 202.78 53.2901C204.051 49.8504 205.869 46.6385 208.164 43.7788C209.273 42.3855 210.472 41.0666 211.753 39.8307C213.051 38.6594 214.424 37.5743 215.863 36.5825C216.55 36.0668 217.276 35.6048 218.034 35.2006C218.779 34.7879 219.515 34.3033 220.269 33.9713C221.773 33.2475 223.326 32.6299 224.917 32.1229C230.891 30.1807 237.276 29.8709 243.41 31.2256C248.263 32.3134 252.828 34.4208 256.804 37.4081C260.78 40.3954 264.075 44.1943 266.47 48.5524C268.12 51.5044 269.301 54.6951 269.97 58.0099C270.251 59.208 270.44 60.4259 270.535 61.6529C270.589 62.1823 270.661 62.6669 270.679 63.1245C270.697 63.5821 270.679 63.9769 270.679 64.3448C270.679 65.0447 270.679 65.5921 270.679 66.0048C270.659 66.2013 270.614 66.3944 270.544 66.5791Z" fill="#E0E0E0"/>
<path d="M238.995 86.3569L238.887 92.4316L233.503 92.3329L233.611 86.4287C228.227 86.007 223.13 84.2393 220.196 81.8525L223.292 75.2932C226.364 77.5229 229.964 78.9145 233.736 79.3311L233.889 70.2774C227.904 68.7071 221.219 66.5895 221.327 58.8368C221.435 53.0941 225.688 48.2397 234.266 47.4142L234.374 41.4023L239.757 41.4921L239.65 47.4053C243.524 47.6854 247.276 48.8818 250.597 50.8957L247.77 57.5178C245.246 55.9892 242.443 54.9794 239.524 54.5477L239.363 63.763C245.356 65.2794 251.925 67.406 251.79 75.042C251.718 80.7219 247.519 85.4776 238.995 86.3569ZM233.997 62.3094L234.131 54.6195C231.251 55.2207 230.084 56.773 230.049 58.5587C230.013 60.3443 231.628 61.5108 233.997 62.3094ZM243.086 75.5355C243.086 73.6422 241.57 72.5834 239.255 71.731L239.12 79.2054C241.839 78.6581 243.059 77.2673 243.086 75.5355Z" fill="#231F20"/>
<path d="M279.122 107.946C271.117 115.22 261.382 120.323 250.846 122.769C240.309 125.215 229.322 124.921 218.931 121.917C201.658 116.874 186.853 104.186 179.988 87.4426C176.57 78.9996 175.224 69.8607 176.062 60.7906C176.9 51.7205 179.899 42.9831 184.807 35.3097C194.767 19.7506 211.995 9.56626 230.354 7.79859C253.387 5.57329 276.17 16.1076 288.786 35.6148C290.661 38.5131 295.318 35.8212 293.434 32.9229C287.422 23.6669 279.238 16.0218 269.594 10.6542C259.951 5.28655 249.141 2.35932 238.106 2.12767C217.765 1.70594 197.584 10.5712 184.672 26.3547C178.313 34.1074 173.907 43.2728 171.824 53.0813C169.741 62.8898 170.042 73.0549 172.702 82.7229C178.131 101.952 192.811 117.43 211.223 124.896C235.45 134.766 263.697 129.293 282.926 111.732C285.492 109.391 281.67 105.586 279.122 107.919V107.946Z" fill="#F5F5F5"/>
<path d="M274.133 33.83L296.072 19.0605V41.3943L274.133 33.83Z" fill="#F5F5F5"/>
<path d="M190.721 142.061C190.721 142.061 223.607 150.729 234.006 185.409L220.071 191.61C220.071 191.61 216.868 167.481 184.287 156.974C166.655 151.285 143.308 159.307 136.847 166.665L121.153 159.89C131.643 148.342 157.53 133.016 190.721 142.061Z" fill="#FDBC4D"/>
<path d="M242.952 176.668L208.19 188.198L234.867 201.568L242.952 176.668Z" fill="#FDBC4D"/>
<path d="M149.696 380.229L26.7664 380.158C11.9789 380.158 0 367.595 0 352.009L0.0628036 28.1303C0.0628036 12.5891 12.0686 -0.00896818 26.8561 4.79028e-06L149.786 0.0717867C164.573 0.0717867 176.552 12.6878 176.552 28.22L176.489 352.144C176.489 367.64 164.492 380.238 149.696 380.229Z" fill="#263238"/>
<path d="M149.661 11.5304H125.829C122.626 11.5304 120.032 14.3748 120.032 17.8833V22.3967C120.032 25.9051 117.439 28.7495 114.245 28.7495H67.7917C64.5974 28.7495 62.0042 25.8961 62.0042 22.3877V17.8294C62.0042 14.321 59.411 11.4766 56.2166 11.4766H47.8359H26.9737C16.6099 11.4766 8.21124 20.297 8.21124 31.2171L8.14844 347.344C8.14844 358.228 16.5382 367.084 26.893 367.084L149.58 367.165C159.935 367.165 168.343 358.345 168.343 347.424L168.406 31.2978C168.406 20.3598 160.016 11.5394 149.661 11.5304Z" fill="white"/>
<path d="M34.1235 342.067V351.345C34.1316 351.531 34.0885 351.715 33.999 351.878C33.9094 352.041 33.7769 352.176 33.6157 352.269C33.4546 352.361 33.2711 352.408 33.0853 352.403C32.8995 352.399 32.7185 352.343 32.5622 352.243L25.2671 347.604C25.1226 347.511 25.0038 347.384 24.9214 347.233C24.8391 347.083 24.7959 346.914 24.7959 346.742C24.7959 346.571 24.8391 346.402 24.9214 346.251C25.0038 346.101 25.1226 345.973 25.2671 345.881L32.5352 341.206C32.6893 341.1 32.8697 341.039 33.0564 341.029C33.2431 341.019 33.4289 341.061 33.5933 341.15C33.7576 341.239 33.8941 341.372 33.9877 341.534C34.0813 341.696 34.1283 341.88 34.1235 342.067Z" fill="#E0E0E0"/>
<path d="M94.0542 346.616C94.0525 347.881 93.6757 349.117 92.9717 350.168C92.2676 351.219 91.2678 352.037 90.0986 352.52C88.9294 353.003 87.6433 353.128 86.4029 352.88C85.1625 352.633 84.0233 352.022 83.1295 351.127C82.2356 350.232 81.6272 349.092 81.3811 347.852C81.1349 346.611 81.2621 345.325 81.7466 344.156C82.2311 342.988 83.0511 341.989 84.1031 341.287C85.155 340.584 86.3915 340.209 87.6565 340.209C89.3541 340.211 90.9814 340.887 92.1809 342.089C93.3805 343.29 94.0542 344.918 94.0542 346.616Z" fill="#E0E0E0"/>
<path d="M150.082 341.043H141.639C140.712 341.043 139.961 341.794 139.961 342.721V351.191C139.961 352.118 140.712 352.869 141.639 352.869H150.082C151.009 352.869 151.76 352.118 151.76 351.191V342.721C151.76 341.794 151.009 341.043 150.082 341.043Z" fill="#E0E0E0"/>
<path d="M52.7431 125.694H62.6133L60.6931 124.232C62.1467 129.017 63.6033 133.803 65.0629 138.588L71.9811 161.38C72.5105 163.174 73.0489 164.879 73.5783 166.629C73.7019 167.045 73.9545 167.411 74.2997 167.673C74.6449 167.936 75.0647 168.083 75.4985 168.091L103.727 168.011H107.774C110.332 168.011 110.341 164.027 107.774 164.036L79.5453 164.107H75.4985L77.4187 165.561L73.0579 151.204L66.1307 128.422L64.5335 123.164C64.4099 122.748 64.1573 122.382 63.8121 122.119C63.467 121.856 63.0471 121.71 62.6133 121.701H52.7431C50.1768 121.701 50.1768 125.685 52.7431 125.685V125.694Z" fill="#263238"/>
<path d="M114.064 130.762C112.204 139.089 110.344 147.416 108.483 155.743C108.223 156.936 107.954 158.138 107.685 159.332L109.129 158.237L97.0426 158.12L77.661 157.932L73.2284 157.887L74.664 158.982C72.0798 150.739 69.4896 142.493 66.8935 134.243L65.7987 130.762L64.3541 132.646H115.5C115.876 132.617 116.228 132.447 116.484 132.17C116.74 131.893 116.883 131.53 116.883 131.152C116.883 130.775 116.74 130.411 116.484 130.134C116.228 129.857 115.876 129.687 115.5 129.658H64.3541C64.1251 129.661 63.8998 129.717 63.6954 129.82C63.491 129.924 63.3129 130.072 63.1745 130.255C63.0361 130.437 62.9411 130.649 62.8967 130.874C62.8524 131.098 62.8598 131.33 62.9184 131.551C65.5086 139.795 68.0988 148.041 70.689 156.29C71.0569 157.447 71.4248 158.614 71.7837 159.771C71.8779 160.084 72.0682 160.359 72.3276 160.557C72.5869 160.755 72.9021 160.866 73.2284 160.875L85.315 160.992L104.697 161.18L109.129 161.225C109.454 161.219 109.768 161.11 110.026 160.913C110.285 160.716 110.473 160.442 110.565 160.13L116.137 135.141L116.945 131.551C117.357 129.676 114.486 128.878 114.064 130.762Z" fill="#263238"/>
<path d="M74.5301 132.036C76.1004 141.144 78.1193 150.18 79.6716 159.287C79.9947 161.181 82.875 160.373 82.5519 158.498C80.9817 149.381 78.9628 140.354 77.4104 131.238C77.0874 129.353 74.2071 130.152 74.5301 132.036Z" fill="#263238"/>
<path d="M90.2951 131.643C90.4447 140.987 90.6032 150.327 90.7707 159.665C90.7707 161.586 93.7856 161.595 93.7587 159.665C93.6091 150.327 93.4506 140.987 93.2831 131.643C93.2831 129.723 90.2682 129.714 90.2951 131.643Z" fill="#263238"/>
<path d="M104.858 160.005L108.654 135.114L109.192 131.525C109.283 131.143 109.226 130.741 109.033 130.4C108.84 130.059 108.525 129.804 108.151 129.685C107.775 129.598 107.379 129.659 107.046 129.854C106.712 130.049 106.466 130.364 106.357 130.735C105.088 139.026 103.826 147.323 102.57 155.626C102.391 156.81 102.202 157.995 102.023 159.215C101.932 159.596 101.989 159.998 102.182 160.339C102.375 160.681 102.69 160.936 103.064 161.055C103.446 161.159 103.853 161.109 104.198 160.914C104.543 160.719 104.796 160.395 104.903 160.014L104.858 160.005Z" fill="#263238"/>
<path d="M67.6121 141.386H112.773C113.149 141.357 113.501 141.187 113.757 140.91C114.013 140.633 114.156 140.27 114.156 139.892C114.156 139.515 114.013 139.152 113.757 138.875C113.501 138.598 113.149 138.428 112.773 138.398H67.6121C67.2359 138.428 66.8845 138.598 66.6282 138.875C66.3719 139.152 66.2295 139.515 66.2295 139.892C66.2295 140.27 66.3719 140.633 66.6282 140.91C66.8845 141.187 67.2359 141.357 67.6121 141.386Z" fill="#263238"/>
<path d="M71.8469 151.868H110.951C111.346 151.868 111.725 151.711 112.004 151.431C112.284 151.152 112.441 150.773 112.441 150.378C112.441 149.983 112.284 149.604 112.004 149.325C111.725 149.046 111.346 148.889 110.951 148.889H71.8469C71.4519 148.889 71.073 149.046 70.7937 149.325C70.5144 149.604 70.3574 149.983 70.3574 150.378C70.3574 150.773 70.5144 151.152 70.7937 151.431C71.073 151.711 71.4519 151.868 71.8469 151.868Z" fill="#263238"/>
<path d="M107.756 181.19C110.69 181.19 113.068 178.812 113.068 175.878C113.068 172.945 110.69 170.566 107.756 170.566C104.823 170.566 102.444 172.945 102.444 175.878C102.444 178.812 104.823 181.19 107.756 181.19Z" fill="#263238"/>
<path d="M78.5405 181.19C81.4742 181.19 83.8525 178.812 83.8525 175.878C83.8525 172.945 81.4742 170.566 78.5405 170.566C75.6068 170.566 73.2285 172.945 73.2285 175.878C73.2285 178.812 75.6068 181.19 78.5405 181.19Z" fill="#263238"/>
<path d="M68.3559 104.338C68.3559 104.338 46.5068 103.602 33.6934 123.046L41.1589 129.444C41.1589 129.444 47.5925 115.177 69.5942 114.719C81.5103 114.477 89.6936 121.413 92.3227 127.138L105.827 126.905C101.475 117.851 90.4653 104.894 68.3559 104.338Z" fill="#FDBC4D"/>
<path d="M30.8037 116.713L50.0866 130.235L32.5714 133.788L30.8037 116.713Z" fill="#FDBC4D"/>
<path d="M158.481 44.8305C158.482 45.2603 158.357 45.681 158.119 46.0393C157.881 46.3976 157.543 46.6773 157.146 46.843C156.75 47.0087 156.313 47.053 155.891 46.9703C155.469 46.8875 155.081 46.6814 154.777 46.3781C154.472 46.0747 154.265 45.6878 154.18 45.2664C154.096 44.8449 154.138 44.4078 154.302 44.0105C154.466 43.6132 154.745 43.2736 155.102 43.0346C155.459 42.7956 155.879 42.668 156.309 42.668C156.883 42.668 157.434 42.8955 157.841 43.3008C158.248 43.7061 158.478 44.2561 158.481 44.8305Z" fill="#263238"/>
<path d="M156.309 52.9308C157.508 52.9308 158.481 51.9586 158.481 50.7593C158.481 49.5601 157.508 48.5879 156.309 48.5879C155.11 48.5879 154.138 49.5601 154.138 50.7593C154.138 51.9586 155.11 52.9308 156.309 52.9308Z" fill="#263238"/>
<path d="M156.309 58.8624C157.508 58.8624 158.481 57.8903 158.481 56.691C158.481 55.4917 157.508 54.5195 156.309 54.5195C155.11 54.5195 154.138 55.4917 154.138 56.691C154.138 57.8903 155.11 58.8624 156.309 58.8624Z" fill="#263238"/>
<path d="M27.0096 43.7988L18.1533 50.4388H20.4055V58.3709L25.1792 58.3889V52.4488L28.9478 52.4308V58.3709H33.5599V50.3581L35.857 50.3311L27.0096 43.7988Z" fill="#263238"/>
<path d="M168.97 66.7313C168.97 66.857 132.836 66.9646 88.2759 66.9646C43.7162 66.9646 7.58203 66.857 7.58203 66.7313C7.58203 66.6057 43.7072 66.498 88.2759 66.498C132.845 66.498 168.97 66.6057 168.97 66.7313Z" fill="#E0E0E0"/>
<path d="M86.5719 216.113H85.1363C80.2797 216.113 76.3428 220.05 76.3428 224.907V295.65C76.3428 300.506 80.2797 304.443 85.1363 304.443H86.5719C91.4285 304.443 95.3654 300.506 95.3654 295.65V224.907C95.3654 220.05 91.4285 216.113 86.5719 216.113Z" fill="#E0E0E0"/>
<path d="M122.893 262.379C122.915 268.446 121.136 274.383 117.782 279.438C114.428 284.493 109.649 288.44 104.051 290.778C98.4532 293.117 92.2873 293.742 86.3339 292.575C80.3805 291.407 74.9071 288.5 70.6066 284.221C66.3061 279.942 63.3717 274.483 62.1749 268.536C60.978 262.588 61.5725 256.419 63.883 250.81C66.1936 245.2 70.1163 240.402 75.1548 237.023C80.1933 233.644 86.1211 231.835 92.1879 231.826C96.2103 231.816 100.195 232.598 103.916 234.127C107.636 235.657 111.018 237.905 113.87 240.742C116.721 243.579 118.986 246.95 120.534 250.663C122.082 254.376 122.884 258.357 122.893 262.379Z" fill="#FDBC4D"/>
<path d="M116.443 262.703C116.451 267.316 115.093 271.828 112.538 275.669C109.983 279.51 106.346 282.507 102.088 284.282C97.8304 286.056 93.1419 286.529 88.6154 285.64C84.0889 284.75 79.9276 282.539 76.6576 279.285C73.3876 276.032 71.1555 271.882 70.2436 267.36C69.3317 262.838 69.7808 258.147 71.5343 253.88C73.2877 249.613 76.2667 245.962 80.0948 243.388C83.9228 240.814 88.4281 239.432 93.0411 239.418C96.1071 239.409 99.1448 240.004 101.981 241.169C104.817 242.334 107.395 244.047 109.568 246.21C111.742 248.372 113.467 250.942 114.647 253.772C115.827 256.602 116.437 259.637 116.443 262.703Z" fill="#FDBC4D"/>
<path d="M115.599 262.388C115.571 262.264 115.555 262.138 115.554 262.011C115.554 261.733 115.5 261.365 115.473 260.898C115.473 260.653 115.455 260.384 115.419 260.091C115.419 259.786 115.321 259.463 115.258 259.113C115.153 258.3 114.988 257.496 114.764 256.708C114.207 254.534 113.327 252.456 112.153 250.544C110.448 247.736 108.17 245.32 105.467 243.454C102.764 241.587 99.6978 240.313 96.4684 239.713C92.4024 238.973 88.2127 239.326 84.3279 240.736C83.2938 241.11 82.2865 241.553 81.313 242.064C80.8285 242.333 80.3619 242.639 79.8774 242.962C79.3904 243.246 78.9255 243.567 78.4865 243.922C77.5633 244.606 76.6851 245.349 75.8575 246.147C75.0466 246.995 74.2913 247.894 73.5963 248.839C72.1603 250.768 71.0452 252.916 70.2942 255.201C69.5327 257.555 69.1333 260.012 69.1098 262.487C69.1438 264.962 69.5491 267.418 70.3122 269.773C71.0694 272.055 72.1905 274.201 73.6322 276.126C74.3272 277.073 75.0857 277.972 75.9023 278.818C76.7299 279.615 77.6081 280.358 78.5314 281.043C79.4329 281.707 80.3805 282.307 81.3669 282.837C82.3415 283.343 83.3487 283.784 84.3818 284.156C88.2717 285.559 92.4647 285.903 96.5312 285.152C100.072 284.499 103.409 283.024 106.276 280.845C108.647 279.053 110.654 276.823 112.189 274.277C113.356 272.36 114.23 270.279 114.782 268.104C115.005 267.316 115.167 266.512 115.267 265.699C115.321 265.349 115.392 265.026 115.419 264.73C115.446 264.434 115.419 264.165 115.473 263.913C115.509 263.447 115.536 263.079 115.554 262.81C115.555 262.683 115.571 262.557 115.599 262.433C115.611 262.558 115.611 262.684 115.599 262.81V263.922C115.599 264.165 115.599 264.443 115.599 264.739C115.599 265.035 115.518 265.367 115.464 265.726C115.381 266.544 115.231 267.355 115.015 268.149C114.501 270.362 113.644 272.481 112.476 274.43C110.776 277.298 108.487 279.774 105.76 281.694C103.034 283.613 99.9309 284.933 96.6568 285.565C92.5188 286.348 88.2467 286.011 84.2831 284.587C83.2277 284.213 82.1993 283.766 81.2053 283.25C80.1971 282.723 79.2285 282.123 78.3071 281.456C77.3627 280.76 76.4636 280.004 75.6152 279.194C74.7855 278.349 74.0122 277.449 73.3002 276.502C71.8231 274.538 70.6747 272.347 69.8994 270.015C68.2666 265.19 68.2666 259.963 69.8994 255.138C70.6652 252.804 71.8046 250.61 73.2732 248.641C73.9805 247.691 74.7541 246.791 75.5883 245.95C76.4345 245.134 77.3337 244.376 78.2802 243.679C78.728 243.319 79.2019 242.992 79.6979 242.701C80.1914 242.414 80.667 242.1 81.1695 241.804C82.1633 241.285 83.1916 240.836 84.2472 240.458C88.2084 239.026 92.4805 238.679 96.6209 239.453C100.211 240.131 103.592 241.644 106.491 243.868C108.892 245.686 110.913 247.957 112.44 250.553C113.617 252.5 114.483 254.619 115.007 256.834C115.217 257.632 115.367 258.445 115.455 259.265C115.509 259.615 115.563 259.947 115.59 260.243V261.069C115.59 261.536 115.59 261.903 115.59 262.182C115.596 262.25 115.599 262.319 115.599 262.388Z" fill="#263238"/>
<g opacity="0.3">
<path d="M115.411 262.629C115.276 262.629 115.177 261.606 114.801 259.82C114.279 257.303 113.371 254.881 112.109 252.642C111.245 251.118 110.216 249.695 109.04 248.398C107.691 246.925 106.16 245.631 104.482 244.548C103.582 243.965 102.64 243.449 101.664 243.005C99.5905 242.056 97.385 241.427 95.1228 241.138C93.9325 240.99 92.7326 240.933 91.5336 240.968C90.3435 241.011 89.1585 241.146 87.9893 241.372C86.8522 241.584 85.7332 241.884 84.6424 242.269C83.5875 242.644 82.5643 243.103 81.5826 243.642C80.6431 244.151 79.7432 244.73 78.8907 245.374C77.284 246.566 75.8366 247.959 74.5837 249.519C73.4977 250.891 72.565 252.377 71.8021 253.952C70.6939 256.264 69.9494 258.734 69.5947 261.274C69.3345 263.068 69.2986 264.109 69.164 264.118C69.0294 264.127 68.8589 263.095 68.9038 261.211C69.0167 258.529 69.6251 255.892 70.6984 253.431C72.7457 248.659 76.3054 244.693 80.8289 242.143C81.8818 241.552 82.9799 241.045 84.113 240.627C85.2803 240.191 86.4805 239.849 87.7022 239.604C88.9658 239.357 90.2469 239.21 91.5336 239.164C92.8197 239.128 94.1067 239.191 95.383 239.353C96.6194 239.514 97.8407 239.775 99.035 240.133C101.303 240.811 103.454 241.831 105.415 243.157C107.188 244.35 108.791 245.778 110.179 247.402C111.381 248.821 112.413 250.375 113.257 252.032C114.467 254.422 115.23 257.013 115.509 259.677C115.653 261.588 115.518 262.629 115.411 262.629Z" fill="black"/>
</g>
<g opacity="0.3">
<path d="M94.8907 276.33L94.9535 280.395L91.3194 280.458L91.2566 276.492C87.6674 276.33 84.1949 275.262 82.167 273.728L84.0962 269.241C86.2071 270.661 88.6489 271.511 91.1848 271.709L91.0861 265.643C87.0393 264.746 82.5169 263.445 82.4362 258.25C82.3734 254.4 85.1281 251.071 90.8528 250.308L90.79 246.271L94.4241 246.217L94.4869 250.174C97.0855 250.28 99.6222 250.999 101.89 252.274L100.149 256.76C98.4228 255.797 96.5225 255.187 94.5587 254.965L94.6574 261.139C98.7042 262.036 103.155 263.301 103.236 268.416C103.298 272.256 100.588 275.567 94.8907 276.33ZM91.0054 260.322L90.9246 255.163C89.0044 255.629 88.2327 256.697 88.2776 257.9C88.3224 259.102 89.3992 259.865 91.0054 260.34V260.322ZM97.3941 268.981C97.3941 267.716 96.3084 267.043 94.7022 266.514L94.783 271.53C96.6314 271.126 97.4121 270.166 97.3941 268.999V268.981Z" fill="black"/>
</g>
<path d="M75.6423 219.658H40.2529V298.764H75.6423V219.658Z" fill="white"/>
<path d="M272.059 255.459C273.49 261.782 273.013 268.388 270.688 274.439C268.363 280.491 264.295 285.717 258.999 289.455C253.703 293.194 247.416 295.277 240.936 295.441C234.455 295.605 228.071 293.842 222.592 290.376C217.114 286.91 212.787 281.897 210.159 275.971C207.531 270.044 206.721 263.471 207.83 257.084C208.94 250.697 211.919 244.783 216.392 240.09C220.864 235.397 226.628 232.136 232.955 230.721C237.147 229.777 241.484 229.668 245.718 230.401C249.952 231.133 254 232.693 257.631 234.99C261.263 237.287 264.406 240.277 266.881 243.789C269.357 247.302 271.116 251.267 272.059 255.459Z" fill="#FDBC4D"/>
<path d="M265.402 257.289C266.494 262.107 266.132 267.14 264.361 271.752C262.591 276.364 259.492 280.347 255.457 283.196C251.422 286.046 246.632 287.634 241.693 287.76C236.755 287.886 231.89 286.544 227.715 283.904C223.54 281.264 220.242 277.444 218.239 272.929C216.235 268.414 215.617 263.405 216.461 258.538C217.306 253.671 219.575 249.164 222.983 245.587C226.39 242.01 230.782 239.525 235.603 238.446C238.797 237.726 242.101 237.642 245.328 238.2C248.554 238.757 251.639 239.945 254.406 241.695C257.173 243.444 259.569 245.722 261.455 248.398C263.342 251.074 264.683 254.095 265.402 257.289Z" fill="#FDBC4D"/>
<path d="M264.45 257.157C264.393 257.036 264.348 256.91 264.316 256.78L263.975 255.64L263.732 254.806C263.625 254.501 263.481 254.178 263.347 253.828C263.043 253.008 262.684 252.211 262.27 251.441C261.185 249.3 259.784 247.334 258.115 245.608C254.145 241.452 248.854 238.803 243.146 238.116C237.439 237.428 231.671 238.745 226.827 241.84C225.836 242.469 224.888 243.165 223.991 243.922C223.542 244.316 223.094 244.747 222.69 245.151C222.248 245.563 221.837 246.007 221.461 246.479C220.655 247.405 219.915 248.385 219.244 249.413C218.59 250.476 218.009 251.582 217.504 252.724C216.453 255.069 215.789 257.569 215.539 260.127C214.974 265.425 216.166 270.763 218.93 275.318C220.249 277.525 221.915 279.503 223.865 281.177C225.724 282.839 227.847 284.18 230.147 285.143C231.242 285.638 232.373 286.052 233.529 286.382C234.661 286.683 235.813 286.908 236.975 287.055C242.677 287.786 248.457 286.515 253.327 283.46C258.196 280.405 261.855 275.754 263.679 270.302C264.457 268.035 264.887 265.663 264.953 263.267C264.998 262.394 264.983 261.518 264.908 260.647C264.908 260.27 264.908 259.92 264.836 259.597C264.764 259.274 264.746 258.996 264.701 258.7C264.63 258.207 264.576 257.803 264.531 257.525C264.505 257.391 264.49 257.256 264.486 257.121C264.531 257.249 264.564 257.381 264.585 257.516C264.639 257.803 264.71 258.189 264.809 258.682C264.851 258.945 264.905 259.244 264.971 259.579C264.971 259.902 265.024 260.252 265.06 260.638C265.157 261.514 265.187 262.396 265.15 263.276C265.122 265.698 264.72 268.102 263.957 270.401C262.851 273.783 261.039 276.892 258.642 279.522C256.244 282.152 253.315 284.242 250.049 285.655C245.916 287.432 241.384 288.07 236.921 287.503C235.731 287.361 234.553 287.137 233.395 286.83C232.215 286.493 231.061 286.073 229.94 285.574C228.797 285.07 227.688 284.492 226.62 283.842C225.551 283.145 224.532 282.374 223.569 281.536C221.572 279.835 219.868 277.816 218.527 275.56C217.149 273.236 216.133 270.715 215.512 268.086C214.955 265.432 214.8 262.71 215.054 260.01C215.313 257.399 215.995 254.847 217.073 252.455C217.592 251.287 218.192 250.157 218.868 249.072C219.558 248.031 220.317 247.035 221.138 246.093C221.523 245.612 221.943 245.159 222.394 244.738C222.843 244.325 223.291 243.886 223.722 243.491C224.636 242.716 225.604 242.008 226.62 241.373C230.419 238.962 234.793 237.609 239.29 237.452C242.851 237.339 246.395 237.985 249.687 239.346C252.979 240.708 255.943 242.754 258.384 245.348C260.055 247.101 261.444 249.102 262.503 251.279C262.908 252.064 263.256 252.877 263.544 253.711C263.679 254.07 263.813 254.393 263.912 254.698C264.011 255.003 264.064 255.29 264.127 255.595L264.423 256.744C264.445 256.88 264.454 257.019 264.45 257.157Z" fill="#263238"/>
<g opacity="0.3">
<path d="M264.316 257.487C264.173 257.487 263.832 256.473 263.024 254.696C261.889 252.197 260.376 249.888 258.538 247.85C257.282 246.467 255.88 245.225 254.356 244.144C252.607 242.919 250.707 241.924 248.703 241.183C246.502 240.367 244.192 239.88 241.848 239.738C240.616 239.658 239.38 239.676 238.151 239.792C236.896 239.917 235.651 240.133 234.427 240.438C233.203 240.764 232.003 241.178 230.838 241.677C229.703 242.17 228.608 242.752 227.563 243.417C225.58 244.677 223.79 246.219 222.251 247.994C220.853 249.607 219.67 251.396 218.734 253.315C217.918 254.997 217.286 256.763 216.849 258.582C216.236 261.251 216.033 263.998 216.248 266.729C216.401 268.676 216.607 269.753 216.455 269.789C216.302 269.825 215.898 268.802 215.557 266.819C215.028 264.005 215.028 261.117 215.557 258.303C216.338 254.085 218.192 250.139 220.941 246.845C221.727 245.884 222.585 244.984 223.507 244.153C224.466 243.289 225.492 242.503 226.576 241.802C227.696 241.075 228.872 240.439 230.093 239.9C231.355 239.352 232.657 238.902 233.988 238.554C235.319 238.216 236.675 237.982 238.043 237.854C239.372 237.747 240.708 237.747 242.036 237.854C243.324 237.943 244.602 238.135 245.859 238.428C247.064 238.7 248.246 239.066 249.394 239.523C251.517 240.358 253.518 241.475 255.343 242.843C256.924 244.043 258.36 245.422 259.623 246.953C261.443 249.165 262.842 251.692 263.751 254.409C264.325 256.32 264.424 257.433 264.316 257.487Z" fill="black"/>
</g>
<g opacity="0.3">
<path d="M246.092 276.52L247.106 280.755L243.329 281.652L242.342 277.543C238.546 278.207 234.688 277.893 232.22 276.762L233.198 271.665C235.729 272.648 238.471 272.957 241.157 272.563L239.65 266.281C235.217 266.281 230.201 265.985 228.882 260.584C227.931 256.582 230.013 252.454 235.818 250.345L234.813 246.155L238.591 245.258L239.578 249.376C242.313 248.88 245.127 249.04 247.788 249.843L247.017 254.94C244.982 254.332 242.847 254.133 240.736 254.356L242.27 260.781C246.703 260.781 251.638 261.059 252.912 266.38C253.917 270.301 251.853 274.393 246.092 276.52ZM238.331 260.736L237.048 255.352C235.154 256.25 234.625 257.569 234.921 258.807C235.217 260.045 236.545 260.611 238.34 260.736H238.331ZM246.99 268.256C246.676 266.937 245.401 266.461 243.643 266.299L244.89 271.513C246.703 270.669 247.295 269.494 246.99 268.256Z" fill="black"/>
</g>
<path d="M201.326 241.121C199.285 245.438 196.415 249.311 192.878 252.518C189.341 255.726 185.207 258.205 180.712 259.815C176.216 261.425 171.448 262.133 166.679 261.9C161.91 261.667 157.233 260.497 152.917 258.457C150.982 257.545 149.129 256.467 147.38 255.235C141.752 251.227 137.384 245.697 134.788 239.294C132.191 232.891 131.475 225.881 132.722 219.085C133.969 212.289 137.128 205.989 141.828 200.925C146.529 195.861 152.576 192.243 159.26 190.494C165.945 188.745 172.989 188.938 179.567 191.051C186.146 193.164 191.985 197.109 196.401 202.424C200.816 207.738 203.625 214.201 204.497 221.055C205.37 227.909 204.269 234.87 201.326 241.121Z" fill="#FDBC4D"/>
<path d="M194.238 238.196C191.909 243.165 188.159 247.332 183.461 250.169C178.764 253.006 173.33 254.385 167.848 254.133C162.366 253.881 157.082 252.008 152.665 248.751C148.248 245.495 144.896 241.001 143.034 235.839C141.171 230.677 140.882 225.078 142.203 219.752C143.524 214.425 146.395 209.61 150.453 205.916C154.512 202.222 159.575 199.815 165.001 198.999C170.428 198.184 175.975 198.997 180.94 201.335C184.234 202.881 187.192 205.061 189.643 207.751C192.094 210.44 193.992 213.587 195.227 217.01C196.462 220.433 197.01 224.066 196.84 227.701C196.671 231.336 195.786 234.902 194.238 238.196Z" fill="#FDBC4D"/>
<path d="M193.493 237.422C193.533 237.279 193.581 237.138 193.637 237C193.754 236.695 193.915 236.292 194.112 235.771L194.471 234.874C194.579 234.542 194.678 234.156 194.794 233.752C195.092 232.828 195.319 231.883 195.476 230.926C195.99 228.311 196.102 225.633 195.808 222.985C195.163 216.627 192.326 210.691 187.785 206.194C183.244 201.697 177.281 198.919 170.917 198.336C169.617 198.21 168.31 198.174 167.005 198.228C166.35 198.228 165.695 198.363 165.031 198.426C164.363 198.484 163.7 198.592 163.048 198.749C160.332 199.241 157.718 200.184 155.313 201.539C152.791 202.878 150.503 204.617 148.539 206.69C144.433 210.958 141.842 216.455 141.163 222.339C140.816 225.174 140.932 228.047 141.504 230.845C141.991 233.56 142.928 236.174 144.277 238.58C144.901 239.761 145.612 240.894 146.403 241.971C147.191 243.009 148.049 243.992 148.969 244.915C152.44 248.401 156.776 250.9 161.532 252.156C165.304 253.14 169.243 253.317 173.088 252.673C176.934 252.03 180.6 250.582 183.847 248.423C186.078 246.961 188.074 245.17 189.77 243.111C190.405 242.376 190.987 241.596 191.51 240.778C191.753 240.428 191.986 240.114 192.165 239.818L192.641 238.965L193.287 237.817C193.354 237.682 193.432 237.553 193.52 237.431C193.472 237.574 193.412 237.712 193.341 237.844C193.188 238.131 192.991 238.526 192.74 239.019L192.291 239.917C192.111 240.222 191.887 240.545 191.654 240.904C191.142 241.738 190.569 242.532 189.94 243.282C188.263 245.387 186.272 247.221 184.036 248.719C180.758 250.941 177.045 252.441 173.144 253.119C169.242 253.796 165.241 253.636 161.406 252.649C157.671 251.702 154.175 249.985 151.143 247.607C148.111 245.228 145.61 242.242 143.801 238.84C143.141 237.614 142.562 236.346 142.069 235.044C141.605 233.704 141.233 232.334 140.957 230.944C140.372 228.089 140.254 225.159 140.607 222.267C141.304 216.256 143.951 210.64 148.144 206.277C150.151 204.164 152.487 202.392 155.062 201.028C156.308 200.34 157.6 199.74 158.929 199.233C160.248 198.789 161.594 198.429 162.958 198.156C163.623 198 164.297 197.892 164.977 197.833C165.659 197.771 166.332 197.672 166.996 197.645C173.348 197.385 179.604 199.255 184.772 202.957C187.974 205.285 190.645 208.267 192.607 211.706C194.568 215.145 195.776 218.962 196.149 222.904C196.421 225.584 196.275 228.29 195.719 230.926C195.546 231.888 195.3 232.836 194.983 233.761C194.848 234.165 194.75 234.542 194.624 234.883C194.498 235.224 194.355 235.511 194.238 235.78L193.709 236.991C193.657 237.144 193.585 237.289 193.493 237.422Z" fill="#263238"/>
<g opacity="0.3">
<path d="M193.151 237.595C192.999 237.532 193.411 236.384 193.914 234.275C194.631 231.317 194.885 228.266 194.668 225.23C194.511 223.158 194.129 221.109 193.528 219.12C192.831 216.852 191.845 214.684 190.594 212.668C189.921 211.582 189.168 210.547 188.342 209.573C187.486 208.557 186.556 207.606 185.56 206.728C184.529 205.817 183.428 204.989 182.267 204.252C179.875 202.732 177.259 201.599 174.514 200.896C170.642 199.911 166.598 199.803 162.679 200.582C160.351 201.05 158.093 201.812 155.958 202.852C154.095 203.774 152.338 204.897 150.718 206.199C148.356 208.119 146.304 210.392 144.634 212.937C143.441 214.732 142.885 215.836 142.732 215.764C142.579 215.692 142.92 214.517 143.925 212.516C145.397 209.694 147.374 207.167 149.758 205.059C151.398 203.596 153.205 202.331 155.142 201.29C157.385 200.102 159.779 199.221 162.257 198.67C163.595 198.373 164.954 198.178 166.322 198.087C169.236 197.887 172.164 198.145 174.999 198.85C177.966 199.584 180.793 200.796 183.371 202.439C184.618 203.239 185.797 204.139 186.897 205.131C188.986 207.005 190.777 209.187 192.209 211.6C194.644 215.678 195.991 220.312 196.121 225.06C196.217 228.239 195.724 231.409 194.668 234.41C193.959 236.608 193.286 237.649 193.151 237.595Z" fill="black"/>
</g>
<g opacity="0.3">
<path d="M164.186 241.912L162.185 246.309L158.264 244.514L160.202 240.234C156.425 238.233 153.239 235.317 151.849 232.652L156.183 228.838C157.72 231.447 159.909 233.612 162.535 235.119L165.514 228.56C161.638 225.518 157.439 221.857 159.969 216.231C161.862 212.068 166.51 209.869 173.034 211.978L175.017 207.617L178.947 209.412L177 213.665C179.743 215.091 182.106 217.152 183.891 219.677L179.737 223.616C178.375 221.705 176.645 220.085 174.649 218.851L171.616 225.527C175.519 228.524 179.647 232.158 177.134 237.695C175.286 241.786 170.719 243.967 164.186 241.912ZM168.135 222.764L170.665 217.182C168.368 216.707 167.031 217.478 166.439 218.771C165.846 220.063 166.654 221.427 168.135 222.764ZM170.602 235.326C171.221 233.953 170.423 232.688 168.996 231.333L166.537 236.717C168.7 237.183 170.028 236.555 170.602 235.299V235.326Z" fill="black"/>
</g>
<path d="M331.278 285.223H208.885C205.468 285.223 202.698 287.993 202.698 291.41V374.816C202.698 378.233 205.468 381.003 208.885 381.003H331.278C334.695 381.003 337.465 378.233 337.465 374.816V291.41C337.465 287.993 334.695 285.223 331.278 285.223Z" fill="#455A64"/>
<path d="M335.476 324.318H300.593C294.805 324.318 290.113 329.01 290.113 334.798V336.52C290.113 342.308 294.805 347 300.593 347H335.476C341.264 347 345.956 342.308 345.956 336.52V334.798C345.956 329.01 341.264 324.318 335.476 324.318Z" fill="#455A64"/>
<path d="M335.484 347.393H300.601C297.717 347.389 294.952 346.241 292.912 344.202C290.873 342.162 289.725 339.397 289.721 336.513V334.799C289.725 331.915 290.873 329.151 292.913 327.112C294.953 325.074 297.718 323.928 300.601 323.926H335.484C338.367 323.93 341.13 325.077 343.168 327.115C345.206 329.153 346.353 331.916 346.357 334.799V336.513C346.353 339.396 345.206 342.16 343.168 344.199C341.13 346.238 338.367 347.387 335.484 347.393ZM300.601 324.712C297.926 324.714 295.361 325.777 293.469 327.668C291.576 329.559 290.511 332.123 290.507 334.799V336.513C290.509 339.189 291.573 341.756 293.466 343.648C295.358 345.541 297.925 346.605 300.601 346.607H335.484C338.159 346.603 340.724 345.538 342.615 343.645C344.506 341.753 345.569 339.188 345.571 336.513V334.799C345.567 332.125 344.503 329.562 342.612 327.671C340.721 325.78 338.158 324.716 335.484 324.712H300.601Z" fill="#263238"/>
<path d="M309.22 340.259C311.78 336.618 310.905 331.592 307.264 329.031C303.624 326.471 298.598 327.347 296.037 330.987C293.477 334.627 294.352 339.654 297.993 342.214C301.633 344.774 306.66 343.899 309.22 340.259Z" fill="#263238"/>
<path d="M292.818 111.867C292.723 116.015 293.51 120.136 295.125 123.958C296.74 127.78 299.148 131.215 302.189 134.037C303.578 129.991 304.975 125.945 306.38 121.899" fill="#263238"/>
<path d="M324.399 87.7258C320.799 85.7603 316.459 85.4773 312.442 86.2871C308.441 87.2146 304.619 88.7922 301.128 90.957C299.079 92.0164 297.245 93.448 295.72 95.1788C293.109 98.465 290.531 103.827 290.279 108.049C290.075 111.437 291.372 119.912 292.803 122.986C294.116 125.808 300.264 127.955 303.298 128.654L331.129 96.2716C330.629 94.4726 329.776 92.7908 328.621 91.3238C327.466 89.8568 326.031 88.6339 324.399 87.7258Z" fill="#263238"/>
<path d="M329.194 92.0954L322.52 90.9004C326.167 99.5484 327.158 119.462 329.249 128.637C331.71 125.06 337.426 114.187 337.111 109.863C336.797 105.539 337.127 91.3564 329.194 92.0954Z" fill="#263238"/>
<path d="M333.015 106.263C332.583 99.5959 328.141 91.4196 321.498 92.1114L306.128 96.0423C303.761 96.6436 301.65 97.9885 300.105 99.8792C298.559 101.77 297.661 104.107 297.543 106.546C297.543 106.797 297.543 106.491 297.543 106.679L300.979 146.492L312.52 169.393L322.74 150.077C322.74 146.83 322.74 139.542 322.74 139.557C322.74 139.573 331.262 138.127 332.96 126.979C333.794 121.491 333.487 113.669 333.015 106.263Z" fill="#FFC7AA"/>
<path d="M328.251 115.383C328.258 115.755 328.118 116.115 327.862 116.385C327.607 116.655 327.255 116.815 326.883 116.829C326.702 116.843 326.52 116.821 326.347 116.764C326.174 116.707 326.014 116.616 325.877 116.497C325.739 116.378 325.627 116.232 325.546 116.07C325.465 115.907 325.417 115.729 325.405 115.548C325.403 115.175 325.545 114.817 325.802 114.547C326.058 114.277 326.409 114.117 326.781 114.101C326.962 114.088 327.143 114.111 327.315 114.169C327.487 114.226 327.646 114.317 327.783 114.436C327.919 114.555 328.031 114.7 328.111 114.863C328.192 115.025 328.239 115.202 328.251 115.383Z" fill="#263238"/>
<path d="M331.349 110.621C331.168 110.81 330.091 110.008 328.55 110.015C327.009 110.023 325.893 110.802 325.728 110.605C325.562 110.409 325.83 110.188 326.317 109.819C326.977 109.354 327.766 109.107 328.574 109.111C329.372 109.108 330.151 109.359 330.798 109.827C331.27 110.204 331.435 110.534 331.349 110.621Z" fill="#263238"/>
<path d="M315.406 115.384C315.412 115.756 315.272 116.116 315.017 116.386C314.761 116.657 314.41 116.816 314.038 116.83C313.856 116.844 313.674 116.822 313.501 116.765C313.328 116.708 313.169 116.617 313.031 116.498C312.894 116.379 312.781 116.234 312.7 116.071C312.619 115.908 312.572 115.73 312.56 115.549C312.557 115.177 312.699 114.818 312.956 114.548C313.212 114.278 313.563 114.119 313.935 114.102C314.117 114.087 314.299 114.109 314.472 114.166C314.644 114.222 314.804 114.313 314.941 114.432C315.078 114.552 315.19 114.698 315.27 114.861C315.349 115.024 315.396 115.202 315.406 115.384Z" fill="#263238"/>
<path d="M316.773 110.621C316.6 110.81 315.515 110.008 313.982 110.016C312.449 110.023 311.325 110.802 311.16 110.605C310.995 110.409 311.254 110.189 311.75 109.819C312.409 109.353 313.198 109.105 314.006 109.111C314.805 109.108 315.584 109.359 316.231 109.827C316.703 110.204 316.86 110.534 316.773 110.621Z" fill="#263238"/>
<path d="M321.569 122.671C322.377 122.414 323.214 122.26 324.061 122.215C324.454 122.215 324.847 122.097 324.847 121.83C324.881 121.424 324.791 121.018 324.588 120.666C324.218 119.723 323.801 118.724 323.424 117.686C321.804 113.441 320.633 109.95 320.806 109.888C320.979 109.825 322.481 113.19 324.053 117.458C324.438 118.504 324.839 119.503 325.169 120.454C325.423 120.937 325.495 121.494 325.374 122.026C325.317 122.164 325.229 122.288 325.117 122.387C325.006 122.486 324.873 122.559 324.729 122.6C324.513 122.658 324.292 122.69 324.069 122.694C323.238 122.79 322.398 122.782 321.569 122.671Z" fill="#263238"/>
<path d="M307.928 135.619C307.928 135.619 311.544 143.253 322.669 142.192V139.574C317.483 139.65 312.379 138.281 307.928 135.619Z" fill="#FF9A6C"/>
<path d="M316.294 105.077C316.144 105.494 314.611 105.297 312.811 105.518C311.01 105.738 309.556 106.233 309.32 105.864C309.21 105.683 309.462 105.29 310.051 104.889C310.828 104.38 311.715 104.065 312.638 103.969C313.559 103.86 314.493 103.968 315.366 104.283C316.026 104.543 316.356 104.881 316.294 105.077Z" fill="#263238"/>
<path d="M330.846 105.927C330.578 106.281 329.517 105.927 328.251 105.927C326.986 105.927 325.893 106.163 325.649 105.801C325.547 105.628 325.712 105.275 326.184 104.944C326.815 104.549 327.549 104.35 328.293 104.371C329.037 104.392 329.758 104.632 330.366 105.062C330.814 105.4 330.964 105.754 330.846 105.927Z" fill="#263238"/>
<path d="M329.996 96.1136C329.602 95.2965 328.99 94.6045 328.226 94.1146C327.463 93.6247 326.579 93.356 325.672 93.3383C323.855 93.3408 322.077 93.8618 320.546 94.8399C313.926 98.6608 310.522 107.906 303.981 111.869C302.369 112.843 300.278 111.947 298.91 113.237C297.542 114.526 296.654 116.594 297.409 118.315C296.472 117.148 295.707 115.854 295.137 114.471C294.858 113.777 294.731 113.032 294.764 112.285C294.796 111.538 294.988 110.806 295.325 110.139C295.891 109.156 296.898 108.409 297.165 107.309C297.409 106.342 297.023 105.335 297.063 104.337C297.177 103.324 297.527 102.352 298.085 101.499C300.648 96.9705 304.17 92.8509 308.714 90.3194C311.677 88.6092 315.05 87.7369 318.47 87.7958C321.904 87.8782 325.194 89.1861 327.747 91.483C329.218 92.8509 330.751 94.2582 329.996 96.1136Z" fill="#263238"/>
<path d="M299.069 114.622C298.951 114.299 293.157 112.208 293.078 118.372C292.999 124.354 299.045 123.183 299.061 123.01C299.077 122.837 299.069 114.622 299.069 114.622Z" fill="#FFC7AA"/>
<path d="M297.229 120.721C297.229 120.721 297.127 120.792 296.946 120.871C296.821 120.923 296.688 120.951 296.553 120.951C296.418 120.951 296.284 120.923 296.16 120.871C295.531 120.635 295.004 119.628 294.988 118.512C294.979 118 295.084 117.493 295.295 117.026C295.353 116.842 295.455 116.674 295.592 116.537C295.728 116.4 295.896 116.298 296.081 116.24C296.201 116.208 296.329 116.22 296.441 116.273C296.553 116.327 296.643 116.418 296.694 116.531C296.773 116.696 296.694 116.814 296.765 116.83C296.836 116.845 296.891 116.727 296.844 116.484C296.817 116.334 296.736 116.2 296.616 116.106C296.452 115.981 296.246 115.924 296.042 115.949C295.795 115.993 295.564 116.101 295.372 116.261C295.179 116.42 295.03 116.627 294.941 116.861C294.678 117.377 294.549 117.949 294.564 118.528C294.564 119.738 295.2 120.886 296.057 121.13C296.218 121.178 296.388 121.19 296.554 121.164C296.72 121.138 296.878 121.076 297.017 120.981C297.221 120.863 297.252 120.729 297.229 120.721Z" fill="#FF9A6C"/>
<path d="M296.686 111.538C296.813 111.483 296.934 111.414 297.047 111.334C297.275 111.192 297.629 110.996 298.053 110.697C299.231 109.833 300.314 108.847 301.285 107.757C302.691 106.121 304.003 104.407 305.216 102.623C306.689 100.436 308.343 98.3772 310.161 96.4673C311.115 95.5151 312.169 94.669 313.305 93.9436C314.386 93.2827 315.542 92.7548 316.749 92.3713C318.795 91.7091 320.948 91.4423 323.093 91.5851C324.539 91.6604 325.969 91.9247 327.347 92.3713C327.834 92.5206 328.204 92.6936 328.455 92.7879C328.582 92.8436 328.714 92.8883 328.848 92.9216L328.479 92.7329C328.12 92.5609 327.753 92.4087 327.378 92.2769C326.006 91.7689 324.569 91.4566 323.109 91.3492C320.938 91.1784 318.755 91.4266 316.678 92.0804C315.448 92.4557 314.27 92.984 313.172 93.6527C312.002 94.3864 310.913 95.243 309.925 96.2078C308.096 98.1268 306.438 100.202 304.972 102.411C303.763 104.195 302.464 105.916 301.08 107.568C300.13 108.66 299.077 109.658 297.936 110.548C297.527 110.862 297.149 111.067 296.961 111.224C296.862 111.322 296.77 111.427 296.686 111.538Z" fill="#455A64"/>
<path d="M298.196 113.237C298.101 114.872 298.023 116.594 298.777 118.048C299.532 119.503 301.443 120.493 302.866 119.676C304.021 119.015 304.367 117.529 304.564 116.209C305.138 112.396 305.397 108.536 305.995 104.73L298.196 113.237Z" fill="#263238"/>
<path d="M328.518 93.2598C328.518 93.2598 327.992 93.1654 327.033 93.134C325.687 93.109 324.35 93.3549 323.102 93.8573C322.23 94.1919 321.398 94.6189 320.617 95.1309C319.724 95.7313 318.869 96.3851 318.054 97.0885C316.175 98.6853 314.494 100.501 313.046 102.497C312.26 103.567 311.616 104.659 310.884 105.642C310.194 106.632 309.389 107.537 308.487 108.339C306.931 109.654 305.232 110.79 303.424 111.727C301.851 112.513 300.609 113.103 299.728 113.496L298.706 113.928C298.588 113.984 298.464 114.029 298.337 114.062C298.337 114.062 298.447 113.983 298.675 113.866L299.673 113.37C300.538 112.946 301.804 112.348 303.313 111.515C305.089 110.561 306.755 109.417 308.282 108.103C309.172 107.315 309.964 106.423 310.641 105.446C311.356 104.439 312.032 103.339 312.803 102.301C314.264 100.28 315.973 98.4492 317.889 96.8526C318.716 96.1466 319.588 95.4953 320.499 94.9029C321.299 94.3867 322.154 93.9596 323.047 93.6293C324.341 93.1413 325.722 92.9272 327.103 93.0003C327.477 93.0207 327.847 93.0733 328.212 93.1576C328.317 93.1819 328.42 93.2161 328.518 93.2598Z" fill="#455A64"/>
<path d="M298.03 109.534C297.864 109.673 297.685 109.794 297.495 109.896L295.978 110.785L295.467 111.075C295.267 111.193 295.045 111.268 294.814 111.296C294.674 111.31 294.533 111.277 294.413 111.201C294.35 111.16 294.297 111.105 294.256 111.042C294.215 110.978 294.189 110.906 294.178 110.832C294.184 110.546 294.283 110.27 294.461 110.046L296.222 107.223L296.458 107.451C295.877 107.882 295.225 108.206 294.531 108.41C293.838 108.616 293.115 108.702 292.393 108.662C292.208 108.657 292.026 108.626 291.85 108.567C291.747 108.539 291.651 108.488 291.571 108.417C291.491 108.346 291.428 108.258 291.387 108.159C291.352 108.058 291.342 107.95 291.358 107.844C291.375 107.739 291.417 107.639 291.481 107.553C291.584 107.419 291.7 107.296 291.827 107.184C292.614 106.418 293.298 105.554 293.863 104.613C294.359 103.725 294.793 102.802 295.16 101.854C295.129 102.122 295.066 102.386 294.972 102.64C294.741 103.36 294.438 104.056 294.068 104.715C293.52 105.697 292.837 106.597 292.039 107.388C291.819 107.6 291.599 107.844 291.685 108.033C291.772 108.222 292.094 108.316 292.409 108.316C293.786 108.386 295.147 107.981 296.261 107.168L296.976 106.641L296.497 107.428L294.704 110.226C294.564 110.391 294.477 110.593 294.453 110.808C294.453 110.981 294.602 111.075 294.791 111.06C295.175 110.985 295.541 110.835 295.868 110.619L297.44 109.833C297.622 109.707 297.821 109.607 298.03 109.534Z" fill="#455A64"/>
<path d="M320.239 125.58C319.944 125.241 319.568 124.981 319.146 124.825C318.725 124.668 318.271 124.62 317.826 124.683C317.502 124.721 317.189 124.824 316.906 124.985C316.622 125.145 316.374 125.361 316.175 125.619C315.985 125.866 315.877 126.166 315.866 126.478C315.855 126.789 315.941 127.096 316.112 127.356C316.362 127.609 316.68 127.783 317.028 127.859C317.375 127.934 317.737 127.907 318.069 127.781C318.755 127.514 319.383 127.116 319.917 126.61C320.08 126.49 320.219 126.341 320.326 126.169C320.379 126.089 320.408 125.995 320.408 125.898C320.408 125.802 320.379 125.707 320.326 125.627" fill="#FF9A6C"/>
<path d="M316.443 123.207C316.687 123.207 316.734 124.78 318.141 125.833C319.548 126.886 321.286 126.69 321.286 126.91C321.286 127.004 320.916 127.225 320.193 127.264C319.26 127.314 318.34 127.036 317.591 126.478C316.875 125.944 316.398 125.151 316.262 124.268C316.191 123.592 316.333 123.199 316.443 123.207Z" fill="#263238"/>
<path d="M338.778 229.615L345.216 244.16L313.966 255.85L306.977 240.213L338.778 229.615Z" fill="#263238"/>
<path d="M401.925 318.117L410.471 336.569C410.471 336.569 431.815 333.739 433.726 337.001L398.835 355.186L384.33 326.985L401.925 318.117Z" fill="#455A64"/>
<path d="M399.086 340.506C398.799 340.784 398.624 341.158 398.595 341.557C398.566 341.955 398.685 342.351 398.929 342.668C399.196 342.963 399.566 343.146 399.962 343.18C400.359 343.213 400.754 343.095 401.067 342.848C401.371 342.554 401.556 342.157 401.585 341.735C401.614 341.312 401.486 340.894 401.224 340.561C400.915 340.279 400.508 340.127 400.089 340.137C399.67 340.147 399.272 340.319 398.976 340.616" fill="#E0E0E0"/>
<path d="M398.827 355.187L397.679 352.978L431.901 336.004C432.31 336.039 432.707 336.158 433.068 336.353C433.429 336.547 433.746 336.814 434 337.136L398.827 355.187Z" fill="#263238"/>
<path d="M410.856 336.522C410.934 336.695 410.109 337.214 409.543 338.197C408.977 339.18 408.89 340.147 408.694 340.162C408.497 340.178 408.246 339.038 408.961 337.859C409.676 336.679 410.809 336.341 410.856 336.522Z" fill="#263238"/>
<path d="M415.344 336.168C415.47 336.317 414.872 336.993 414.66 338.023C414.448 339.053 414.66 339.91 414.487 339.988C414.314 340.067 413.701 339.147 414 337.874C414.298 336.6 415.25 336.002 415.344 336.168Z" fill="#263238"/>
<path d="M419.716 339.547C419.582 339.657 418.93 338.918 418.859 337.746C418.788 336.575 419.441 335.781 419.59 335.891C419.739 336.001 419.496 336.756 419.535 337.723C419.574 338.69 419.881 339.437 419.716 339.547Z" fill="#263238"/>
<path d="M408.418 332.534C408.418 332.723 407.514 332.888 406.571 333.454C405.627 334.02 404.998 334.712 404.849 334.61C404.7 334.507 405.108 333.517 406.225 332.872C407.341 332.227 408.434 332.322 408.418 332.534Z" fill="#263238"/>
<path d="M407.066 328.273C407.066 328.344 406.477 328.8 405.29 329.169C404.592 329.381 403.871 329.505 403.143 329.539C402.714 329.57 402.283 329.57 401.854 329.539C401.586 329.532 401.321 329.484 401.068 329.397C400.891 329.333 400.74 329.212 400.641 329.052C400.541 328.892 400.497 328.704 400.517 328.517C400.542 328.351 400.606 328.194 400.703 328.057C400.8 327.921 400.928 327.809 401.076 327.731C401.298 327.615 401.537 327.533 401.783 327.487C402.21 327.39 402.644 327.33 403.08 327.306C403.817 327.273 404.555 327.355 405.266 327.55C406.469 327.896 407.082 328.399 407.035 328.462C406.988 328.525 406.312 328.218 405.156 328.014C404.484 327.898 403.799 327.869 403.12 327.927C402.724 327.963 402.332 328.031 401.948 328.131C401.516 328.218 401.162 328.383 401.162 328.595C401.162 328.682 401.162 328.705 401.304 328.776C401.481 328.836 401.667 328.871 401.854 328.878C402.256 328.922 402.66 328.943 403.065 328.941C403.751 328.932 404.435 328.861 405.109 328.729C405.749 328.53 406.404 328.378 407.066 328.273Z" fill="#263238"/>
<path d="M368.724 347.76L367.639 368.067C367.639 368.067 387.82 375.56 387.985 379.333L348.637 379.074L349.022 347.367L368.724 347.76Z" fill="#455A64"/>
<path d="M355.737 366.23C355.351 366.337 355.019 366.584 354.805 366.923C354.592 367.261 354.512 367.667 354.581 368.062C354.68 368.448 354.922 368.782 355.257 368.996C355.593 369.211 355.997 369.29 356.389 369.218C356.796 369.1 357.145 368.835 357.369 368.475C357.593 368.115 357.675 367.685 357.6 367.268C357.459 366.874 357.17 366.55 356.794 366.365C356.419 366.18 355.986 366.149 355.587 366.277" fill="#E0E0E0"/>
<path d="M348.637 379.076V376.553L386.822 377.567C387.166 377.789 387.462 378.08 387.69 378.42C387.919 378.761 388.075 379.145 388.15 379.548L348.637 379.076Z" fill="#263238"/>
<path d="M367.993 368.204C367.993 368.4 367.018 368.471 366.051 369.076C365.084 369.682 364.565 370.491 364.384 370.413C364.204 370.334 364.518 369.218 365.697 368.502C366.877 367.787 368.079 368.031 367.993 368.204Z" fill="#263238"/>
<path d="M372.136 369.994C372.175 370.191 371.35 370.505 370.658 371.315C369.966 372.125 369.777 372.982 369.581 372.974C369.384 372.966 369.29 371.865 370.139 370.875C370.988 369.884 372.136 369.814 372.136 369.994Z" fill="#263238"/>
<path d="M374.416 375.027C374.235 375.066 373.984 374.091 374.502 373.038C375.021 371.984 375.933 371.575 376.012 371.74C376.091 371.906 375.517 372.464 375.108 373.313C374.699 374.162 374.605 374.987 374.416 375.027Z" fill="#263238"/>
<path d="M367.726 363.519C367.639 363.692 366.759 363.409 365.658 363.464C364.557 363.519 363.7 363.849 363.606 363.684C363.512 363.519 364.337 362.835 365.634 362.788C366.932 362.741 367.828 363.369 367.726 363.519Z" fill="#263238"/>
<path d="M368.512 359.155C367.856 359.316 367.17 359.299 366.523 359.108C365.806 358.967 365.109 358.74 364.447 358.432C364.056 358.248 363.678 358.038 363.315 357.803C363.094 357.676 362.895 357.514 362.726 357.324C362.601 357.184 362.527 357.007 362.514 356.821C362.501 356.634 362.551 356.449 362.655 356.294C362.755 356.161 362.884 356.053 363.033 355.978C363.182 355.903 363.345 355.863 363.512 355.861C363.765 355.868 364.016 355.908 364.259 355.979C365.397 356.29 366.439 356.879 367.293 357.693C368.197 358.566 368.504 359.265 368.433 359.328C368.363 359.391 367.907 358.778 366.979 358.055C366.44 357.639 365.851 357.293 365.226 357.025C364.857 356.869 364.476 356.745 364.086 356.655C363.669 356.537 363.3 356.53 363.197 356.71C363.095 356.891 363.15 356.813 363.237 356.938C363.368 357.072 363.516 357.188 363.677 357.284C364.012 357.51 364.358 357.717 364.715 357.905C365.327 358.223 365.966 358.486 366.625 358.692C367.265 358.8 367.895 358.955 368.512 359.155Z" fill="#263238"/>
<path d="M278.729 250.275C278.729 250.275 357.576 240.4 362.222 240.4C373.126 240.4 379.974 248.71 381.601 255.126C382.804 259.843 407.073 328.437 407.073 328.437L389.172 337.714L362.843 290.928L349.423 267.587L280.239 278.271L278.729 250.275Z" fill="#263238"/>
<path d="M352.677 265.434C352.677 265.434 363.487 265.434 369.321 274.082C372.749 279.169 371.546 288.233 371.617 295.097C371.711 304.429 369.455 361.285 369.455 361.285L347.355 361.655L342.724 302.4L342.992 291.449L298.895 287.848C298.895 287.848 294.877 274.483 304.76 263.917C305.97 262.565 352.677 265.434 352.677 265.434Z" fill="#263238"/>
<path d="M285.467 231.211C285.467 231.211 268.038 258.035 278.73 278.193C283.824 287.792 299.068 287.784 299.068 287.784L314.705 268.209V235.834L285.467 231.211Z" fill="#263238"/>
<path d="M299.068 287.784C299.163 287.723 299.263 287.671 299.367 287.627L300.248 287.218L303.644 285.646L316.223 280.056L334.847 271.825L345.854 266.974C346.821 266.573 347.749 266.094 348.771 265.748C349.794 265.395 350.846 265.132 351.915 264.962C354.098 264.637 356.316 264.618 358.504 264.907C360.699 265.167 362.841 265.772 364.848 266.699C365.834 267.163 366.75 267.764 367.568 268.484C368.364 269.209 369.041 270.055 369.573 270.992C370.614 272.801 371.245 274.816 371.421 276.896C371.507 277.918 371.421 278.901 371.421 279.883C371.421 280.866 371.421 281.833 371.421 282.792C371.326 290.457 371.248 297.352 371.185 303.154C371.122 308.956 371.035 313.618 370.988 316.881C370.988 318.453 370.933 319.735 370.917 320.615C370.917 321.024 370.917 321.346 370.917 321.582C370.926 321.692 370.926 321.803 370.917 321.912C370.91 321.803 370.91 321.692 370.917 321.582C370.917 321.346 370.917 321.024 370.917 320.615C370.917 319.735 370.917 318.485 370.917 316.881C370.917 313.618 370.917 308.933 370.972 303.154C371.027 297.376 371.059 290.45 371.114 282.792C371.114 281.833 371.114 280.866 371.114 279.883C371.114 278.901 371.161 277.902 371.075 276.927C370.904 274.913 370.289 272.961 369.274 271.212C368.766 270.313 368.119 269.501 367.356 268.806C366.567 268.114 365.683 267.54 364.73 267.1C362.767 266.192 360.674 265.598 358.527 265.339C356.381 265.058 354.206 265.077 352.065 265.394C351.022 265.567 349.996 265.83 348.999 266.18C348.016 266.518 347.065 266.966 346.106 267.399L335.099 272.226L316.443 280.371L303.864 285.827L300.428 287.289L299.532 287.659C299.385 287.725 299.229 287.768 299.068 287.784Z" fill="#455A64"/>
<path d="M360.665 240.402C360.665 240.512 344.115 242.375 323.675 244.56C303.234 246.746 286.653 248.429 286.638 248.318C286.622 248.208 303.187 246.345 323.628 244.16C344.068 241.974 360.649 240.292 360.665 240.402Z" fill="#455A64"/>
<path d="M341.176 201.321C342.458 197.24 346.939 182.224 345.933 174.307C345.146 168.018 339.462 159.889 337.772 155.565C336.986 153.529 330.61 151.43 326.813 150.305L323.039 145.848L322.724 148.025C321.612 149.297 320.219 150.293 318.655 150.933C317.091 151.573 315.4 151.84 313.715 151.713C308.109 151.209 303.494 148.922 300.452 145.541C285.892 149.983 285.939 150.974 283.156 152.082C279.555 153.513 290.326 188.018 290.326 188.018C290.326 188.018 294.186 209.693 290.554 216.997C288.51 221.109 286.143 225.802 284.406 229.623C284.406 229.623 279.563 238.853 280.601 238.617C282.779 238.114 297.897 241.762 312.103 242.548C338.369 243.932 343.393 240.04 343.393 240.04C342.017 233.318 339.714 209.756 339.722 205.181C339.706 204.387 340.948 202.028 341.176 201.321Z" fill="#FDBC4D"/>
<path d="M323.503 146.926C323.503 146.926 340.618 151.336 342.293 153.616C346.845 159.803 374.267 202.139 360.807 214.765C351.986 223.036 339.58 205.583 339.58 205.583L323.503 146.926Z" fill="#FDBC4D"/>
<path d="M359.164 196.787C358.758 196.751 358.356 196.683 357.961 196.582L354.683 195.906C351.892 195.34 347.984 194.538 343.503 193.893L343.739 193.76L342.395 197.077L339.203 204.869V204.672L344.156 210.615L345.531 212.314C345.703 212.509 345.855 212.719 345.987 212.943C345.987 212.943 347.253 213.524 345.437 212.392L343.967 210.765L338.888 204.924L338.81 204.829L338.857 204.727L342.001 196.912C342.465 195.78 342.921 194.672 343.354 193.603L343.417 193.445H343.597C348.102 194.114 352.002 194.963 354.777 195.607C356.168 195.93 357.269 196.205 358.032 196.393C358.418 196.497 358.796 196.628 359.164 196.787Z" fill="#263238"/>
<path d="M342.702 194.796C342.704 194.329 342.747 193.863 342.828 193.404C342.954 192.445 343.111 191.171 343.308 189.638C343.895 185.52 344.035 181.35 343.724 177.201C343.298 173.05 342.098 169.015 340.187 165.306C339.471 163.875 338.819 162.743 338.363 161.965C338.106 161.573 337.877 161.163 337.679 160.738C337.679 160.738 337.773 160.833 337.915 161.021C338.056 161.21 338.26 161.501 338.512 161.878C339.015 162.664 339.707 163.741 340.47 165.172C342.483 168.885 343.739 172.96 344.165 177.162C344.48 181.341 344.296 185.542 343.614 189.678C343.386 191.25 343.158 192.547 343.001 193.428C342.938 193.891 342.838 194.348 342.702 194.796Z" fill="#263238"/>
<g opacity="0.3">
<path d="M286.639 226.401L319.037 211.464L316.844 205.056L321.828 203.154L329.949 204.215C331.958 204.48 334.001 204.279 335.919 203.627C337.837 202.976 339.58 201.891 341.011 200.457L320.83 195.355L297.81 200.261L291.961 183.303L290.515 188.271L291.717 198.94L292.504 210.465L286.639 226.401Z" fill="black"/>
</g>
<path d="M283.55 151.91C281.554 152.784 279.776 154.089 278.343 155.731C276.911 157.373 275.859 159.311 275.263 161.407C274.151 163.889 273.307 166.482 272.747 169.143C270.019 181.172 264.1 203.735 263.879 209.757C263.455 220.591 272.071 223.665 276.726 224.608C281.38 225.552 313.676 208.838 313.676 208.838L306.962 190.59L287.221 198.759C287.221 198.759 291.726 184.843 293.031 179.151C294.336 173.459 283.55 151.91 283.55 151.91Z" fill="#FDBC4D"/>
<path d="M343.621 191.745C343.228 189.958 343.167 188.114 343.44 186.304C343.667 185.218 343.707 184.102 343.558 183.002C343.354 181.925 342.347 180.785 341.254 180.872L339.604 188.804L343.621 191.745Z" fill="#FFC7AA"/>
<path d="M342.858 173.129L337.048 201.164L323.267 200.33L327.347 172.594C327.4 172.24 327.578 171.918 327.85 171.685C328.121 171.453 328.468 171.326 328.825 171.328H341.404C341.626 171.328 341.845 171.377 342.045 171.473C342.246 171.568 342.422 171.708 342.562 171.88C342.701 172.053 342.8 172.255 342.852 172.471C342.903 172.687 342.905 172.912 342.858 173.129Z" fill="#263238"/>
<path d="M327.363 180.416C327.458 180.16 327.529 179.897 327.576 179.629C327.693 179.04 327.851 178.277 328.039 177.357L328.692 173.992C328.692 173.835 328.747 173.662 328.786 173.536C328.838 173.401 328.922 173.28 329.03 173.183C329.139 173.078 329.275 173.007 329.423 172.978C329.585 172.966 329.748 172.966 329.91 172.978H332.088C335.068 172.978 337.772 172.931 339.722 172.9L342.081 172.837C342.365 172.847 342.65 172.826 342.93 172.774C342.648 172.739 342.364 172.723 342.081 172.727H339.722C337.772 172.727 335.068 172.727 332.088 172.727H329.91C329.728 172.708 329.543 172.708 329.36 172.727C329.17 172.768 328.994 172.857 328.849 172.986C328.708 173.116 328.6 173.278 328.535 173.458C328.489 173.624 328.452 173.792 328.425 173.961C328.204 175.219 328.008 176.359 327.835 177.342L327.465 179.622C327.41 179.883 327.376 180.149 327.363 180.416Z" fill="#455A64"/>
<path d="M334.729 174.298C334.789 174.147 334.902 174.022 335.046 173.947C335.191 173.872 335.357 173.852 335.516 173.89C335.641 173.923 335.753 173.992 335.84 174.089C335.926 174.185 335.983 174.304 336.003 174.432C336.008 174.572 335.976 174.71 335.909 174.833C335.843 174.956 335.745 175.059 335.626 175.132C335.503 175.201 335.362 175.231 335.222 175.218C335.081 175.205 334.948 175.151 334.839 175.061C334.74 174.963 334.676 174.836 334.656 174.698C334.636 174.561 334.662 174.42 334.729 174.298Z" fill="#FAFAFA"/>
<path d="M335.107 182.76C335.429 182.839 342.717 186.605 342.717 186.605L346.522 190.614C346.522 190.614 347.898 192.973 346.782 196.558C345.665 200.143 343.849 201.456 339.659 202.493L331.742 201.243L327.733 197.957C327.35 197.639 327.07 197.214 326.93 196.737C326.79 196.259 326.796 195.751 326.946 195.276L327.001 195.111L326.545 194.325C326.406 194.092 326.339 193.823 326.351 193.552C326.364 193.281 326.456 193.019 326.616 192.8C326.833 192.506 327.157 192.31 327.518 192.254C327.878 192.198 328.247 192.287 328.542 192.501L333.055 195.803L336.16 196.212L336.624 195.198L332.072 192.839L326.286 188.358C326.104 188.218 325.952 188.042 325.84 187.841C325.727 187.641 325.657 187.42 325.633 187.191C325.608 186.962 325.631 186.731 325.698 186.511C325.766 186.292 325.878 186.088 326.027 185.913C326.286 185.607 326.646 185.403 327.041 185.336C327.437 185.27 327.844 185.346 328.189 185.551L333.566 188.696L339.179 191.172L338.291 188.94L331.695 184.057C331.695 184.057 331.129 181.754 335.107 182.76Z" fill="#FFC7AA"/>
<path d="M334.446 178.913C334.446 178.913 332.929 178.041 330.405 179.086C327.881 180.132 324.658 181.712 324.658 181.712L319.823 183.088L320.397 181.893C320.397 181.893 325.169 182.381 324.941 178.906L322.064 179.031L319.595 177.766L314.729 182.483L312.897 189.173L307.543 191.956L311.749 203.403L319.304 199.213L328.738 199.032L332.205 196.225L332.591 192.664L335.987 189.205C335.987 189.205 336.412 187.475 334.847 187.31C333.283 187.145 329.517 190.887 329.517 190.887L325.735 190.973C325.735 190.973 325.091 190.384 325.617 190.046C326.144 189.708 337.284 184.236 337.779 183.009C338.275 181.783 338.786 180.981 337.677 180.651C336.686 180.502 335.674 180.599 334.729 180.934C334.729 180.934 335.287 179.181 334.446 178.913Z" fill="#FFC7AA"/>
<path d="M325.209 185.754C326.902 185.054 328.558 184.267 330.17 183.395C331.826 182.624 333.44 181.766 335.005 180.824C333.311 181.509 331.656 182.283 330.044 183.143C328.386 183.925 326.772 184.797 325.209 185.754Z" fill="#FF9A6C"/>
<path d="M322.96 194.647C323.14 194.732 323.33 194.793 323.526 194.828C323.896 194.923 324.438 195.064 325.098 195.182C325.894 195.328 326.704 195.383 327.512 195.347C328.511 195.293 329.487 195.025 330.374 194.561C331.949 193.68 333.317 192.471 334.383 191.015C334.8 190.473 335.122 190.025 335.334 189.71C335.459 189.553 335.565 189.381 335.649 189.199C335.141 189.736 334.663 190.3 334.218 190.89C333.131 192.278 331.782 193.44 330.248 194.309C329.394 194.758 328.458 195.025 327.496 195.096C326.709 195.145 325.918 195.11 325.138 194.993C323.801 194.781 322.968 194.6 322.96 194.647Z" fill="#FF9A6C"/>
<path d="M307.543 191.959L307.881 191.762L308.903 191.204L312.834 189.113L312.787 189.168L314.579 182.462L319.422 177.745L319.501 177.666L319.595 177.721L322.072 178.979H321.993L324.87 178.845H325.043V179.01C325.089 179.553 324.983 180.097 324.737 180.583C324.454 181.021 324.054 181.369 323.581 181.589C322.562 182.032 321.447 182.205 320.342 182.092L320.523 181.99L319.957 183.193L319.737 182.933L324.572 181.542L329.289 179.396C330.798 178.609 332.74 177.918 334.588 178.735C334.698 178.776 334.799 178.838 334.884 178.92C334.97 179.001 335.037 179.099 335.083 179.207C335.164 179.401 335.204 179.61 335.201 179.82C335.204 180.219 335.149 180.617 335.036 180.999L334.776 180.748C335.337 180.568 335.913 180.445 336.498 180.378C337.134 180.264 337.789 180.381 338.346 180.709C338.504 180.83 338.611 181.007 338.644 181.204C338.676 181.378 338.676 181.556 338.644 181.731C338.558 182.028 338.453 182.319 338.33 182.603L338.157 183.02C338.121 183.102 338.079 183.18 338.031 183.256C337.977 183.325 337.92 183.39 337.858 183.452C337.628 183.665 337.383 183.862 337.127 184.042C335.128 185.33 333.066 186.516 330.948 187.595L327.874 189.168C327.37 189.435 326.867 189.687 326.364 189.954C326.136 190.08 325.798 190.221 325.767 190.324C325.735 190.426 325.853 190.677 326.018 190.835L325.877 190.78L329.658 190.693L329.525 190.748C330.634 189.644 331.85 188.654 333.157 187.792C333.484 187.582 333.832 187.406 334.195 187.265C334.58 187.109 335.007 187.09 335.405 187.21C335.61 187.272 335.797 187.384 335.949 187.534C336.101 187.685 336.214 187.871 336.278 188.075C336.376 188.462 336.376 188.867 336.278 189.254V189.301L332.701 192.784L332.748 192.682C332.614 193.909 332.481 195.096 332.355 196.251V196.314L332.308 196.354L328.825 199.144H328.786H328.77L319.296 199.294H319.351L313.73 202.352L312.252 203.138L311.875 203.335C311.788 203.382 311.741 203.398 311.741 203.39L311.859 203.311L312.229 203.091L313.675 202.258L319.249 199.113H319.296L328.731 198.893H328.644L332.103 196.078L332.04 196.188C332.166 195.041 332.292 193.853 332.418 192.627V192.596L332.457 192.556L335.845 189.089L335.798 189.176C335.94 188.539 335.798 187.737 335.138 187.603C334.794 187.555 334.443 187.578 334.109 187.673C333.774 187.768 333.463 187.932 333.196 188.154C331.916 189.001 330.726 189.976 329.642 191.063L329.587 191.118H329.556L325.782 191.22H325.696L325.641 191.165C325.522 191.053 325.421 190.923 325.342 190.78C325.293 190.693 325.263 190.597 325.255 190.498C325.247 190.399 325.261 190.299 325.295 190.206C325.384 190.041 325.525 189.911 325.696 189.836L326.073 189.64L327.583 188.853L330.649 187.281C332.751 186.206 334.798 185.026 336.781 183.743C337.007 183.565 337.22 183.371 337.418 183.161C337.464 183.118 337.506 183.071 337.544 183.02C337.578 182.972 337.604 182.919 337.622 182.863L337.803 182.446C338.007 181.927 338.322 181.267 337.968 181.031C337.488 180.77 336.932 180.684 336.396 180.787C335.84 180.845 335.292 180.961 334.761 181.133L334.399 181.251L334.501 180.882C334.601 180.539 334.651 180.184 334.65 179.828C334.65 179.482 334.533 179.183 334.312 179.12C333.518 178.795 332.643 178.718 331.804 178.9C330.958 179.088 330.141 179.39 329.375 179.797L324.713 181.919L319.87 183.295L319.477 183.405L319.658 183.036L320.232 181.841L320.279 181.731H320.413C321.449 181.838 322.496 181.681 323.455 181.275C323.892 181.063 324.256 180.727 324.501 180.308C324.711 179.884 324.803 179.411 324.768 178.94L324.949 179.097L322.072 179.215H322.024L319.556 177.933H319.737L314.862 182.65V182.595C314.131 185.205 313.502 187.462 312.991 189.278V189.317L308.997 191.338L307.96 191.849L307.543 191.959Z" fill="#FF9A6C"/>
<path d="M287.229 221.455C287.387 221.353 287.552 221.264 287.724 221.188L289.179 220.465L294.682 217.839L313.637 208.876L313.535 209.12C312.308 205.771 310.987 202.147 309.604 198.396C308.644 195.739 307.701 193.153 306.797 190.653L307.064 190.77L287.748 198.884H287.709C286.125 199.021 284.568 199.37 283.078 199.922C281.958 200.334 280.935 200.974 280.075 201.801C279.531 202.325 279.098 202.953 278.801 203.648C278.707 203.884 278.652 204.073 278.612 204.198C278.603 204.266 278.584 204.332 278.557 204.395C278.543 204.328 278.543 204.258 278.557 204.191C278.595 203.996 278.648 203.804 278.715 203.617C278.986 202.897 279.404 202.241 279.941 201.691C280.805 200.828 281.839 200.154 282.976 199.709C284.489 199.123 286.077 198.75 287.693 198.601H287.646L306.907 190.385L307.104 190.307L307.174 190.503C308.086 193.003 309.03 195.59 309.989 198.239C311.357 201.989 312.67 205.621 313.92 208.971L313.983 209.144L313.818 209.222L294.808 218.043L289.304 220.575L287.819 221.235C287.627 221.32 287.43 221.394 287.229 221.455Z" fill="#263238"/>
<path d="M293.817 171.369C293.35 170.621 292.922 169.85 292.536 169.057C291.749 167.619 290.633 165.677 289.241 163.617C287.85 161.557 286.458 159.796 285.413 158.538C284.82 157.888 284.264 157.205 283.746 156.494C283.746 156.494 283.958 156.636 284.289 156.958C284.619 157.28 285.075 157.744 285.633 158.35C288.496 161.527 290.907 165.086 292.795 168.924C293.149 169.655 293.424 170.26 293.581 170.693C293.694 170.905 293.773 171.133 293.817 171.369Z" fill="#263238"/>
<path d="M294.595 175.219C294.563 175.559 294.489 175.895 294.375 176.217C294.202 176.846 293.942 177.79 293.589 178.867C292.92 181.107 291.969 184.189 290.884 187.578C289.799 190.966 288.761 194.024 287.983 196.225C287.59 197.318 287.268 198.207 287.024 198.82C286.924 199.144 286.787 199.455 286.615 199.748C286.671 199.413 286.758 199.084 286.875 198.765C287.095 198.065 287.378 197.193 287.708 196.131C288.447 193.828 289.414 190.801 290.491 187.483C291.568 184.165 292.567 181.115 293.314 178.835L294.202 176.225C294.297 175.877 294.429 175.54 294.595 175.219Z" fill="#263238"/>
</svg>
