<svg width="65" height="50" viewBox="0 0 65 50" fill="none" xmlns="http://www.w3.org/2000/svg">
<path d="M31.7624 31.3155C31.7714 31.3952 31.8095 31.4688 31.8694 31.5222C31.9292 31.5756 32.0066 31.6051 32.0869 31.605H33.2358C33.279 31.6047 33.3218 31.596 33.3616 31.5792C33.4014 31.5624 33.4375 31.538 33.4678 31.5072C33.4982 31.4765 33.5222 31.4401 33.5385 31.4001C33.5547 31.36 33.5629 31.3172 33.5626 31.274C33.5736 30.5574 33.2999 29.8657 32.8016 29.3506C32.3033 28.8355 31.6211 28.539 30.9045 28.5261V27.9161C30.9045 27.4239 29.5793 27.4245 29.58 27.9161V28.5193C28.8634 28.5639 28.1907 28.88 27.6991 29.4032C27.2074 29.9264 26.9337 30.6174 26.9337 31.3353C26.9337 32.0533 27.2074 32.7443 27.6991 33.2675C28.1907 33.7907 28.8634 34.1068 29.58 34.1514V36.877C28.7812 36.6664 28.5124 36.1587 28.5034 35.228C28.5035 35.1851 28.4951 35.1426 28.4788 35.1029C28.4624 35.0632 28.4383 35.0271 28.4079 34.9967C28.3776 34.9664 28.3415 34.9423 28.3018 34.9259C28.2621 34.9095 28.2196 34.9011 28.1766 34.9012H27.0335C26.9906 34.9011 26.948 34.9095 26.9083 34.9259C26.8686 34.9423 26.8326 34.9664 26.8022 34.9967C26.7718 35.0271 26.7478 35.0632 26.7314 35.1029C26.715 35.1426 26.7066 35.1851 26.7067 35.228C26.6557 35.6395 26.6914 36.057 26.8115 36.4538C26.9316 36.8506 27.1334 37.2179 27.4039 37.5321C27.6745 37.8462 28.0078 38.1003 28.3824 38.2779C28.757 38.4555 29.1646 38.5527 29.5791 38.5633V39.4558C29.5784 39.9475 30.904 39.948 30.9037 39.4558V38.542C34.7114 38.0831 34.8703 33.1125 30.9037 32.5738V30.2219C31.1508 30.2775 31.3713 30.4166 31.5277 30.6159C31.6842 30.8151 31.7671 31.0622 31.7624 31.3155ZM29.5793 32.3252C29.3313 32.2767 29.1079 32.1436 28.9472 31.9485C28.7866 31.7535 28.6988 31.5087 28.6988 31.256C28.6988 31.0033 28.7866 30.7585 28.9472 30.5634C29.1079 30.3684 29.3313 30.2353 29.5793 30.1868V32.3252ZM31.6018 36.5629C31.4055 36.742 31.1643 36.8645 30.9039 36.9171V34.4858C31.1266 34.5216 31.3354 34.6176 31.5075 34.7634C31.6796 34.9093 31.8086 35.0994 31.8804 35.3132C31.9523 35.5271 31.9643 35.7565 31.9152 35.9767C31.8661 36.1969 31.7577 36.3998 31.6018 36.5629ZM9.66611 23.8548C9.47007 24.6077 9.07666 25.2948 8.52648 25.8449C7.9763 26.3951 7.28928 26.7885 6.53631 26.9846V40.3339C7.28928 40.5299 7.9763 40.9233 8.52648 41.4735C9.07666 42.0237 9.47007 42.7107 9.66611 43.4637H51.3394C51.5355 42.7107 51.9289 42.0237 52.4791 41.4735C53.0293 40.9233 53.7163 40.5299 54.4693 40.3339V32.307C51.8112 28.5637 47.9445 25.1004 44.6648 24.3155V28.9443C44.6661 29.5909 44.4751 30.2233 44.1159 30.7609C43.7566 31.2986 43.2456 31.7172 42.6477 31.9635C42.0497 32.2064 41.3936 32.2688 40.7605 32.1429C40.1274 32.0171 39.545 31.7085 39.0854 31.2554L38.8283 30.9982C40.2983 35.9828 37.5278 42.2511 30.5028 42.3743C18.8819 42.169 18.8836 25.1479 30.5028 24.9441C31.4051 24.9573 32.3017 25.0899 33.1692 25.3384L31.6857 23.8548H9.66611ZM46.8436 30.3911C47.7103 30.3911 48.5416 30.7354 49.1545 31.3483C49.7674 31.9612 50.1117 32.7925 50.1117 33.6592C50.1117 34.526 49.7674 35.3573 49.1545 35.9702C48.5416 36.5831 47.7103 36.9274 46.8436 36.9274C45.9768 36.9274 45.1455 36.5831 44.5326 35.9702C43.9197 35.3573 43.5754 34.526 43.5754 33.6592C43.5754 32.7925 43.9197 31.9612 44.5326 31.3483C45.1455 30.7354 45.9768 30.3911 46.8436 30.3911ZM15.2514 36.9274C14.3846 36.9274 13.5534 36.5831 12.9405 35.9702C12.3276 35.3573 11.9832 34.526 11.9832 33.6592C11.9832 32.7925 12.3276 31.9612 12.9405 31.3483C13.5534 30.7354 14.3846 30.3911 15.2514 30.3911C16.1182 30.3911 16.9494 30.7354 17.5623 31.3483C18.1752 31.9612 18.5195 32.7925 18.5195 33.6592C18.5195 34.526 18.1752 35.3573 17.5623 35.9702C16.9494 36.5831 16.1182 36.9274 15.2514 36.9274ZM61.896 39.5073C61.8022 39.7314 61.6365 39.918 61.425 40.0376C61.2134 40.1571 60.9681 40.2029 60.7277 40.1677C60.4873 40.1324 60.2654 40.0182 60.0971 39.8429C59.9288 39.6677 59.8236 39.4414 59.7981 39.1997C58.9902 32.7703 50.9931 21.7087 42.486 22.0303V28.9443C42.4828 29.1583 42.4171 29.3667 42.2969 29.5437C42.1766 29.7208 42.0072 29.8588 41.8094 29.9407C41.6117 30.0226 41.3943 30.0448 41.1841 30.0046C40.9739 29.9644 40.78 29.8635 40.6264 29.7144L26.6942 15.7824C26.49 15.5781 26.3752 15.3011 26.3752 15.0122C26.3752 14.7234 26.49 14.4463 26.6942 14.242L40.6264 0.309548C40.78 0.160498 40.9739 0.0596661 41.1841 0.0194894C41.3943 -0.0206873 41.6117 0.0015493 41.8094 0.0834556C42.0072 0.165362 42.1766 0.303355 42.2968 0.480415C42.417 0.657475 42.4828 0.865854 42.486 1.07985V7.93209C52.0065 9.46725 58.5087 13.1343 61.8204 18.8429C65.8751 25.8293 64.0994 33.9369 61.896 39.5073ZM60.8843 42.3743C60.9254 42.3743 60.9647 42.3667 61.0056 42.3652V46.7318C61.0046 47.5983 60.66 48.429 60.0473 49.0417C59.4346 49.6544 58.6039 49.9991 57.7374 50H3.26816C2.40168 49.9991 1.57096 49.6544 0.958271 49.0417C0.34558 48.429 0.000951555 47.5983 0 46.7318V20.5866C0.000951555 19.7201 0.34558 18.8894 0.958271 18.2767C1.57096 17.664 2.40168 17.3194 3.26816 17.3184H25.1503L25.1537 17.3227L29.507 21.676H8.71508C8.42616 21.676 8.14907 21.7908 7.94477 21.9951C7.74047 22.1994 7.6257 22.4764 7.6257 22.7654C7.62492 23.343 7.39512 23.8967 6.98669 24.3051C6.57826 24.7136 6.02453 24.9434 5.44693 24.9441C5.158 24.9441 4.88091 25.0589 4.67661 25.2632C4.47231 25.4675 4.35754 25.7446 4.35754 26.0335V41.2849C4.35754 41.5738 4.47231 41.8509 4.67661 42.0552C4.88091 42.2595 5.158 42.3743 5.44693 42.3743C6.02453 42.3751 6.57826 42.6049 6.98669 43.0133C7.39512 43.4217 7.62492 43.9755 7.6257 44.5531C7.6257 44.842 7.74047 45.1191 7.94477 45.3234C8.14907 45.5277 8.42616 45.6425 8.71508 45.6425H52.2905C52.5794 45.6425 52.8565 45.5277 53.0608 45.3234C53.2651 45.1191 53.3799 44.842 53.3799 44.5531C53.3806 43.9755 53.6104 43.4217 54.0189 43.0133C54.4273 42.6049 54.981 42.3751 55.5586 42.3743C55.8476 42.3743 56.1246 42.2595 56.3289 42.0552C56.5332 41.8509 56.648 41.5738 56.648 41.2849V36.0341C57.1557 37.0902 57.4867 38.2224 57.6278 39.3856C57.6969 40.2014 58.07 40.9614 58.6732 41.515C59.2764 42.0686 60.0656 42.3753 60.8843 42.3743Z" fill="white"/>
</svg>
