<svg width="49" height="56" viewBox="0 0 49 56" fill="none" xmlns="http://www.w3.org/2000/svg">
<mask id="path-1-inside-1_248_6810" fill="white">
<path fill-rule="evenodd" clip-rule="evenodd" d="M46.0175 0.669937L47.0242 4.0296L46.9631 22.4772L48.2458 25.6231L48.277 25.8063L48.2159 40.2223C48.2159 40.3035 48.1958 40.375 48.1548 40.4361L45.7725 43.7652C45.6711 44.0297 45.5074 44.2539 45.2832 44.4372C44.9167 44.7224 44.4183 44.8953 43.7873 44.9564L27.0195 44.4982C26.9994 45.2514 27.0604 45.9539 27.2028 46.6057C27.3665 47.3588 27.6102 48.0821 27.9358 48.7742L36.3655 49.1712C36.5695 49.1712 36.7112 49.2628 36.7925 49.4461C36.8548 49.6495 36.8035 49.8126 36.6397 49.9348L30.899 54.9743C30.8172 55.0555 30.7151 55.0964 30.5936 55.0964L10.6793 53.722C10.4759 53.722 10.3434 53.6304 10.2829 53.4472C10.2011 53.223 10.2518 53.0501 10.4356 52.9279L15.5362 48.7742C15.5973 48.7131 15.6993 48.6825 15.8416 48.6825L18.8348 48.7131C19.1402 48.0412 19.3436 47.3491 19.4456 46.6362C19.6289 45.9233 19.7199 45.1494 19.7199 44.315L2.92158 43.8568C2.10732 43.8568 1.51664 43.6327 1.15074 43.1849C0.865472 42.8392 0.723145 42.4214 0.723145 41.9327V6.10648C0.723145 5.84137 0.865472 5.67889 1.15074 5.6178L45.4066 0.150716H45.4366C45.5593 0.0694738 45.6919 0.0792472 45.8336 0.181259C45.9552 0.28327 46.0175 0.415213 46.0175 0.57831V0.669937ZM45.1916 1.06699L1.6388 6.47299V39.4282H45.2228L45.3443 1.49458L45.1916 1.06699ZM41.5888 8.36661C41.6291 8.44786 41.6291 8.51933 41.5888 8.58041L38.87 13.1007C38.8089 13.1618 38.7374 13.1923 38.6562 13.1923C38.5548 13.1715 38.4937 13.1416 38.4723 13.1007L37.771 11.9095L31.0823 16.3076C31.0004 16.3486 30.9295 16.3583 30.8678 16.3382L26.256 14.3224L15.8105 19.8505L15.6883 19.8811L15.5661 19.8505C15.505 19.8096 15.4751 19.7485 15.4751 19.6673V17.8347C15.4751 17.7327 15.5057 17.6619 15.5661 17.621L25.9505 11.9095C26.0324 11.8686 26.1032 11.8686 26.1649 11.9095L30.7768 13.8948L36.8236 9.89373L35.9073 8.64149C35.8463 8.56025 35.8463 8.4784 35.9073 8.39716C35.9477 8.33607 36.0087 8.30553 36.0912 8.30553L41.3738 8.27499C41.4764 8.27499 41.5479 8.30553 41.5888 8.36661ZM33.3112 17.8042C33.3729 17.8451 33.4029 17.916 33.4029 18.018V32.8005C33.4029 32.9227 33.3216 32.9941 33.1585 33.0143L30.5013 33.0448L30.3486 32.9838C30.2875 32.9227 30.257 32.8714 30.257 32.8311V18.5983C30.257 18.4963 30.2973 18.4254 30.3792 18.3845C30.461 18.3436 30.5319 18.3436 30.5936 18.3845L31.4787 18.7816L33.037 17.8042C33.1176 17.7633 33.2098 17.7633 33.3112 17.8042ZM35.2043 16.0938L37.8614 14.3224C37.9439 14.3022 38.0252 14.3022 38.1058 14.3224C38.1669 14.3835 38.1974 14.4549 38.1974 14.5362V32.7089C38.1974 32.8311 38.1259 32.9025 37.9836 32.9227L35.3264 32.9838L35.1426 32.8921C35.1022 32.8512 35.0815 32.8005 35.0815 32.7394V16.3076C35.0827 16.2056 35.1236 16.1341 35.2043 16.0938ZM25.3702 17.285L26.4704 16.7047C26.5107 16.6638 26.5718 16.654 26.6536 16.6741L28.2717 17.3766C28.3536 17.4175 28.3939 17.489 28.3939 17.5904V32.8921C28.3939 32.9941 28.3231 33.065 28.1801 33.1059L25.5223 33.167L25.3391 33.0754C25.2988 33.0345 25.278 32.9838 25.278 32.9227V17.4682C25.2786 17.3662 25.3091 17.3051 25.3702 17.285ZM36.6397 42.1465C36.6397 42.0041 36.5695 41.9327 36.426 41.9327H34.685C34.5433 41.9327 34.4712 42.0041 34.4712 42.1465C34.4712 42.2888 34.5427 42.3603 34.685 42.3603H36.426C36.5695 42.3603 36.6397 42.2888 36.6397 42.1465ZM39.0831 41.0164C38.9414 41.0164 38.8693 41.0879 38.8693 41.2302V42.8489C38.8693 42.9913 38.9408 43.0627 39.0831 43.0627H41.6493C41.8118 43.0627 41.8936 42.9913 41.8936 42.8489V41.2302C41.8936 41.0879 41.8112 41.0164 41.6493 41.0164H39.0831ZM25.4619 45.048V46.7278C25.5431 48.845 25.9811 50.5456 26.7752 51.8284L28.3023 50.5456C28.0781 50.2402 27.8845 49.9348 27.722 49.6294H27.6304C27.488 49.6086 27.3866 49.5273 27.3249 49.385C26.8564 48.5708 26.5211 47.7156 26.3176 46.8195C26.1539 46.0864 26.0831 45.2923 26.1032 44.4372L20.5751 44.3455C20.5751 45.2209 20.5036 46.0357 20.3613 46.7889C20.1976 47.7455 19.9233 48.6111 19.536 49.385C19.4542 49.5481 19.3326 49.6294 19.1695 49.6294C18.8641 50.1382 18.508 50.6776 18.1005 51.2481L26.2553 51.859C25.5223 50.556 25.1045 48.845 25.0031 46.7278V45.048C25.0031 44.8849 25.0746 44.8037 25.2169 44.8037C25.3806 44.8037 25.4619 44.8849 25.4619 45.048ZM7.93053 24.6457C9.25424 24.5645 10.3739 24.9407 11.2902 25.7758C11.5956 26.061 11.8705 26.3866 12.1154 26.7531L7.9006 28.3719L6.58728 24.89C7.03503 24.7471 7.48278 24.6659 7.93053 24.6457ZM4.90684 26.4172C5.07054 26.2339 5.28373 26.0403 5.54884 25.8368L7.16697 29.7463C7.22867 29.8886 7.33007 29.9399 7.4724 29.899L12.0538 28.2497C12.1154 28.392 12.1454 28.6364 12.1454 28.9827C12.1454 30.1641 11.7178 31.1921 10.862 32.0675C10.0887 32.9428 9.10092 33.4315 7.89938 33.5335C6.69784 33.5946 5.68994 33.2385 4.87569 32.4645C4.06143 31.7114 3.65399 30.7438 3.65399 29.563C3.6546 28.4024 4.07242 27.3536 4.90684 26.4172ZM23.5688 18.6899V32.9227C23.5688 33.0448 23.4974 33.1365 23.3544 33.1976L20.6972 33.2586C20.6563 33.2586 20.6056 33.2385 20.5445 33.1976C20.5036 33.1365 20.4828 33.0852 20.4828 33.0448V20.156C20.4828 20.0747 20.514 20.0136 20.5745 19.9727L23.2622 18.4456C23.3233 18.4254 23.3947 18.4254 23.476 18.4456C23.5377 18.5067 23.5688 18.5879 23.5688 18.6899ZM15.841 22.6604L18.5287 21.1028C18.61 21.0417 18.6814 21.0417 18.7425 21.1028C18.8238 21.1229 18.8647 21.184 18.8647 21.286V33.0448C18.8647 33.167 18.7938 33.2483 18.6503 33.2892L15.9326 33.3503L15.8105 33.2586C15.7488 33.2183 15.7188 33.167 15.7188 33.1059V22.8437C15.7188 22.7417 15.7598 22.6806 15.841 22.6604Z"/>
</mask>
<path fill-rule="evenodd" clip-rule="evenodd" d="M46.0175 0.669937L47.0242 4.0296L46.9631 22.4772L48.2458 25.6231L48.277 25.8063L48.2159 40.2223C48.2159 40.3035 48.1958 40.375 48.1548 40.4361L45.7725 43.7652C45.6711 44.0297 45.5074 44.2539 45.2832 44.4372C44.9167 44.7224 44.4183 44.8953 43.7873 44.9564L27.0195 44.4982C26.9994 45.2514 27.0604 45.9539 27.2028 46.6057C27.3665 47.3588 27.6102 48.0821 27.9358 48.7742L36.3655 49.1712C36.5695 49.1712 36.7112 49.2628 36.7925 49.4461C36.8548 49.6495 36.8035 49.8126 36.6397 49.9348L30.899 54.9743C30.8172 55.0555 30.7151 55.0964 30.5936 55.0964L10.6793 53.722C10.4759 53.722 10.3434 53.6304 10.2829 53.4472C10.2011 53.223 10.2518 53.0501 10.4356 52.9279L15.5362 48.7742C15.5973 48.7131 15.6993 48.6825 15.8416 48.6825L18.8348 48.7131C19.1402 48.0412 19.3436 47.3491 19.4456 46.6362C19.6289 45.9233 19.7199 45.1494 19.7199 44.315L2.92158 43.8568C2.10732 43.8568 1.51664 43.6327 1.15074 43.1849C0.865472 42.8392 0.723145 42.4214 0.723145 41.9327V6.10648C0.723145 5.84137 0.865472 5.67889 1.15074 5.6178L45.4066 0.150716H45.4366C45.5593 0.0694738 45.6919 0.0792472 45.8336 0.181259C45.9552 0.28327 46.0175 0.415213 46.0175 0.57831V0.669937ZM45.1916 1.06699L1.6388 6.47299V39.4282H45.2228L45.3443 1.49458L45.1916 1.06699ZM41.5888 8.36661C41.6291 8.44786 41.6291 8.51933 41.5888 8.58041L38.87 13.1007C38.8089 13.1618 38.7374 13.1923 38.6562 13.1923C38.5548 13.1715 38.4937 13.1416 38.4723 13.1007L37.771 11.9095L31.0823 16.3076C31.0004 16.3486 30.9295 16.3583 30.8678 16.3382L26.256 14.3224L15.8105 19.8505L15.6883 19.8811L15.5661 19.8505C15.505 19.8096 15.4751 19.7485 15.4751 19.6673V17.8347C15.4751 17.7327 15.5057 17.6619 15.5661 17.621L25.9505 11.9095C26.0324 11.8686 26.1032 11.8686 26.1649 11.9095L30.7768 13.8948L36.8236 9.89373L35.9073 8.64149C35.8463 8.56025 35.8463 8.4784 35.9073 8.39716C35.9477 8.33607 36.0087 8.30553 36.0912 8.30553L41.3738 8.27499C41.4764 8.27499 41.5479 8.30553 41.5888 8.36661ZM33.3112 17.8042C33.3729 17.8451 33.4029 17.916 33.4029 18.018V32.8005C33.4029 32.9227 33.3216 32.9941 33.1585 33.0143L30.5013 33.0448L30.3486 32.9838C30.2875 32.9227 30.257 32.8714 30.257 32.8311V18.5983C30.257 18.4963 30.2973 18.4254 30.3792 18.3845C30.461 18.3436 30.5319 18.3436 30.5936 18.3845L31.4787 18.7816L33.037 17.8042C33.1176 17.7633 33.2098 17.7633 33.3112 17.8042ZM35.2043 16.0938L37.8614 14.3224C37.9439 14.3022 38.0252 14.3022 38.1058 14.3224C38.1669 14.3835 38.1974 14.4549 38.1974 14.5362V32.7089C38.1974 32.8311 38.1259 32.9025 37.9836 32.9227L35.3264 32.9838L35.1426 32.8921C35.1022 32.8512 35.0815 32.8005 35.0815 32.7394V16.3076C35.0827 16.2056 35.1236 16.1341 35.2043 16.0938ZM25.3702 17.285L26.4704 16.7047C26.5107 16.6638 26.5718 16.654 26.6536 16.6741L28.2717 17.3766C28.3536 17.4175 28.3939 17.489 28.3939 17.5904V32.8921C28.3939 32.9941 28.3231 33.065 28.1801 33.1059L25.5223 33.167L25.3391 33.0754C25.2988 33.0345 25.278 32.9838 25.278 32.9227V17.4682C25.2786 17.3662 25.3091 17.3051 25.3702 17.285ZM36.6397 42.1465C36.6397 42.0041 36.5695 41.9327 36.426 41.9327H34.685C34.5433 41.9327 34.4712 42.0041 34.4712 42.1465C34.4712 42.2888 34.5427 42.3603 34.685 42.3603H36.426C36.5695 42.3603 36.6397 42.2888 36.6397 42.1465ZM39.0831 41.0164C38.9414 41.0164 38.8693 41.0879 38.8693 41.2302V42.8489C38.8693 42.9913 38.9408 43.0627 39.0831 43.0627H41.6493C41.8118 43.0627 41.8936 42.9913 41.8936 42.8489V41.2302C41.8936 41.0879 41.8112 41.0164 41.6493 41.0164H39.0831ZM25.4619 45.048V46.7278C25.5431 48.845 25.9811 50.5456 26.7752 51.8284L28.3023 50.5456C28.0781 50.2402 27.8845 49.9348 27.722 49.6294H27.6304C27.488 49.6086 27.3866 49.5273 27.3249 49.385C26.8564 48.5708 26.5211 47.7156 26.3176 46.8195C26.1539 46.0864 26.0831 45.2923 26.1032 44.4372L20.5751 44.3455C20.5751 45.2209 20.5036 46.0357 20.3613 46.7889C20.1976 47.7455 19.9233 48.6111 19.536 49.385C19.4542 49.5481 19.3326 49.6294 19.1695 49.6294C18.8641 50.1382 18.508 50.6776 18.1005 51.2481L26.2553 51.859C25.5223 50.556 25.1045 48.845 25.0031 46.7278V45.048C25.0031 44.8849 25.0746 44.8037 25.2169 44.8037C25.3806 44.8037 25.4619 44.8849 25.4619 45.048ZM7.93053 24.6457C9.25424 24.5645 10.3739 24.9407 11.2902 25.7758C11.5956 26.061 11.8705 26.3866 12.1154 26.7531L7.9006 28.3719L6.58728 24.89C7.03503 24.7471 7.48278 24.6659 7.93053 24.6457ZM4.90684 26.4172C5.07054 26.2339 5.28373 26.0403 5.54884 25.8368L7.16697 29.7463C7.22867 29.8886 7.33007 29.9399 7.4724 29.899L12.0538 28.2497C12.1154 28.392 12.1454 28.6364 12.1454 28.9827C12.1454 30.1641 11.7178 31.1921 10.862 32.0675C10.0887 32.9428 9.10092 33.4315 7.89938 33.5335C6.69784 33.5946 5.68994 33.2385 4.87569 32.4645C4.06143 31.7114 3.65399 30.7438 3.65399 29.563C3.6546 28.4024 4.07242 27.3536 4.90684 26.4172ZM23.5688 18.6899V32.9227C23.5688 33.0448 23.4974 33.1365 23.3544 33.1976L20.6972 33.2586C20.6563 33.2586 20.6056 33.2385 20.5445 33.1976C20.5036 33.1365 20.4828 33.0852 20.4828 33.0448V20.156C20.4828 20.0747 20.514 20.0136 20.5745 19.9727L23.2622 18.4456C23.3233 18.4254 23.3947 18.4254 23.476 18.4456C23.5377 18.5067 23.5688 18.5879 23.5688 18.6899ZM15.841 22.6604L18.5287 21.1028C18.61 21.0417 18.6814 21.0417 18.7425 21.1028C18.8238 21.1229 18.8647 21.184 18.8647 21.286V33.0448C18.8647 33.167 18.7938 33.2483 18.6503 33.2892L15.9326 33.3503L15.8105 33.2586C15.7488 33.2183 15.7188 33.167 15.7188 33.1059V22.8437C15.7188 22.7417 15.7598 22.6806 15.841 22.6604Z" fill="black" stroke="#231F20" stroke-width="1.57143" mask="url(#path-1-inside-1_248_6810)"/>
</svg>
