<svg width="63" height="63" viewBox="0 0 63 63" fill="none" xmlns="http://www.w3.org/2000/svg">
<circle cx="31.5" cy="31.5" r="31.5" fill="#FCFBB3"/>
<path d="M35.66 18C35.66 18 34.2362 18.5 32 18.5C29.7638 18.5 28.34 18 28.34 18C28.115 18.0001 27.8917 18.0381 27.6794 18.1125L18 21.5L19.0394 27L22.0944 27.345C22.4685 27.3873 22.813 27.5688 23.0595 27.8534C23.306 28.138 23.4365 28.5049 23.425 28.8813L23 44H41L40.575 28.8813C40.5635 28.5049 40.694 28.138 40.9405 27.8534C41.187 27.5688 41.5315 27.3873 41.9056 27.345L44.9606 27L46 21.5L36.3206 18.1125C36.1083 18.0381 35.885 18.0001 35.66 18Z" stroke="black" stroke-width="2" stroke-linecap="round" stroke-linejoin="round"/>
<path d="M36.8319 18.291C36.5485 19.3561 35.9211 20.2977 35.0473 20.9694C34.1734 21.6412 33.1022 22.0053 32 22.0053C30.8978 22.0053 29.8266 21.6412 28.9527 20.9694C28.0789 20.2977 27.4515 19.3561 27.1681 18.291" stroke="black" stroke-width="2" stroke-linecap="round" stroke-linejoin="round"/>
</svg>
