<svg width="63" height="63" viewBox="0 0 63 63" fill="none" xmlns="http://www.w3.org/2000/svg">
<circle cx="31.5" cy="31.5" r="31.5" fill="#FCFBB3"/>
<path d="M37.6667 39.9993C38.3739 39.9993 39.0522 40.2803 39.5523 40.7804C40.0524 41.2805 40.3333 41.9588 40.3333 42.666C40.3333 43.3733 40.0524 44.0515 39.5523 44.5516C39.0522 45.0517 38.3739 45.3327 37.6667 45.3327C36.9594 45.3327 36.2812 45.0517 35.7811 44.5516C35.281 44.0515 35 43.3733 35 42.666C35 41.186 36.1867 39.9993 37.6667 39.9993ZM16.3333 18.666H20.6933L21.9467 21.3327H41.6667C42.0203 21.3327 42.3594 21.4732 42.6095 21.7232C42.8595 21.9733 43 22.3124 43 22.666C43 22.8927 42.9333 23.1193 42.84 23.3327L38.0667 31.9593C37.6133 32.7727 36.7333 33.3327 35.7333 33.3327H25.8L24.6 35.506L24.56 35.666C24.56 35.7544 24.5951 35.8392 24.6576 35.9017C24.7202 35.9642 24.8049 35.9993 24.8933 35.9993H40.3333V38.666H24.3333C23.6261 38.666 22.9478 38.3851 22.4477 37.885C21.9476 37.3849 21.6667 36.7066 21.6667 35.9993C21.6667 35.5327 21.7867 35.0927 21.9867 34.7193L23.8 31.4527L19 21.3327H16.3333V18.666ZM24.3333 39.9993C25.0406 39.9993 25.7189 40.2803 26.219 40.7804C26.7191 41.2805 27 41.9588 27 42.666C27 43.3733 26.7191 44.0515 26.219 44.5516C25.7189 45.0517 25.0406 45.3327 24.3333 45.3327C23.6261 45.3327 22.9478 45.0517 22.4477 44.5516C21.9476 44.0515 21.6667 43.3733 21.6667 42.666C21.6667 41.186 22.8533 39.9993 24.3333 39.9993ZM36.3333 30.666L40.04 23.9993H23.1867L26.3333 30.666H36.3333Z" fill="black"/>
</svg>
