<svg width="63" height="63" viewBox="0 0 63 63" fill="none" xmlns="http://www.w3.org/2000/svg">
<circle cx="31.5" cy="31.5" r="31.5" fill="#FCFBB3"/>
<path d="M45 25V45C45 45.5521 44.8958 46.0677 44.6875 46.5469C44.4792 47.026 44.1927 47.4479 43.8281 47.8125C43.4635 48.1771 43.0365 48.4635 42.5469 48.6719C42.0573 48.8802 41.5417 48.9896 41 49H23C22.4479 49 21.9323 48.8958 21.4531 48.6875C20.974 48.4792 20.5521 48.1927 20.1875 47.8281C19.8229 47.4635 19.5365 47.0417 19.3281 46.5625C19.1198 46.0833 19.0104 45.5625 19 45V25H23V23C23 22.1771 23.1562 21.401 23.4688 20.6719C23.7812 19.9427 24.2135 19.3073 24.7656 18.7656C25.3177 18.224 25.9531 17.7969 26.6719 17.4844C27.3906 17.1719 28.1667 17.0104 29 17C30.0833 17 31.0885 17.2708 32.0156 17.8125C32.9427 17.2708 33.9375 17 35 17C35.8229 17 36.599 17.1562 37.3281 17.4688C38.0573 17.7812 38.6927 18.2135 39.2344 18.7656C39.776 19.3177 40.2031 19.9531 40.5156 20.6719C40.8281 21.3906 40.9896 22.1667 41 23V25H45ZM39 23C39 22.4583 38.8958 21.9427 38.6875 21.4531C38.4792 20.9635 38.1927 20.5417 37.8281 20.1875C37.4635 19.8333 37.0365 19.5469 36.5469 19.3281C36.0573 19.1094 35.5417 19 35 19C34.5312 19 34.0885 19.0781 33.6719 19.2344C33.974 19.6094 34.2135 19.9792 34.3906 20.3438C34.5677 20.7083 34.6979 21.0729 34.7812 21.4375C34.8646 21.8021 34.9219 22.1719 34.9531 22.5469C34.9844 22.9219 35 23.3229 35 23.75V25H39V23ZM25 25H33V23C33 22.4583 32.8958 21.9427 32.6875 21.4531C32.4792 20.9635 32.1927 20.5417 31.8281 20.1875C31.4635 19.8333 31.0365 19.5469 30.5469 19.3281C30.0573 19.1094 29.5417 19 29 19C28.4479 19 27.9323 19.1042 27.4531 19.3125C26.974 19.5208 26.5521 19.8073 26.1875 20.1719C25.8229 20.5365 25.5365 20.9635 25.3281 21.4531C25.1198 21.9427 25.0104 22.4583 25 23V25ZM37.5312 47C37.1771 46.375 37 45.7083 37 45V27H21V45C21 45.2812 21.0521 45.5417 21.1562 45.7812C21.2604 46.0208 21.401 46.2292 21.5781 46.4062C21.7552 46.5833 21.9688 46.7292 22.2188 46.8438C22.4688 46.9583 22.7292 47.0104 23 47H37.5312ZM43 27H39V45C39 45.2812 39.0521 45.5417 39.1562 45.7812C39.2604 46.0208 39.401 46.2292 39.5781 46.4062C39.7552 46.5833 39.9688 46.7292 40.2188 46.8438C40.4688 46.9583 40.7292 47.0104 41 47C41.2812 47 41.5417 46.9479 41.7812 46.8438C42.0208 46.7396 42.2292 46.599 42.4062 46.4219C42.5833 46.2448 42.7292 46.0312 42.8438 45.7812C42.9583 45.5312 43.0104 45.2708 43 45V27Z" fill="black"/>
</svg>
