<svg width="64" height="65" viewBox="0 0 64 65" fill="none" xmlns="http://www.w3.org/2000/svg">
<rect x="0.24707" y="0.75" width="63.5" height="63.5" rx="11.75" fill="#F9FAFD" fill-opacity="0.1"/>
<rect x="0.24707" y="0.75" width="63.5" height="63.5" rx="11.75" stroke="white" stroke-width="0.5"/>
<path d="M51.4297 30.0177L45.8269 28.8121C45.4722 28.7411 45.1886 28.9539 45.0467 29.3085C44.9758 29.6631 45.1886 29.9468 45.5432 30.0177L50.5786 31.1525V33.7766L45.5432 34.9113C45.1886 34.9823 45.1176 35.266 45.1176 35.3369C44.763 36.8972 44.1956 38.3156 43.4155 39.5922C43.2737 39.805 43.2737 40.0177 43.4155 40.2305L46.1815 44.6277L44.1957 46.5425L39.7985 43.7766C39.5857 43.6347 39.373 43.6347 39.1602 43.7766C37.8836 44.6277 36.3942 45.266 34.8339 45.5496C34.5503 45.6206 34.4084 45.9043 34.4084 45.9752L33.2737 51.0106H30.5786L29.4439 45.9752C29.373 45.6915 29.0893 45.5496 29.0183 45.5496C27.4581 45.195 26.0396 44.6277 24.763 43.8475C24.5503 43.7057 24.3375 43.7057 24.1247 43.8475L19.8694 46.5425L17.9545 44.6277L20.7205 40.2305C20.8623 40.0177 20.8623 39.805 20.7205 39.5922C19.8694 38.3156 19.2311 36.8262 18.9474 35.266C18.8765 34.9823 18.5928 34.8404 18.5219 34.8404L13.4864 33.7766V31.0816L18.5219 29.9468C18.8765 29.8759 18.9474 29.5922 18.9474 29.5213C19.302 27.961 19.8694 26.5426 20.6496 25.266C20.7914 25.0532 20.7914 24.8404 20.6496 24.6277L17.8836 20.3014L19.7985 18.3865L24.1957 21.1525C24.4084 21.2943 24.6212 21.2943 24.8339 21.1525C26.2524 20.3014 27.6708 19.6631 29.0893 19.3085C29.373 19.2376 29.5148 19.0248 29.5148 18.883L30.6496 13.8475H33.3446L34.4793 18.883C34.5503 19.0248 34.6212 19.1667 34.763 19.2376C34.9049 19.3085 35.0467 19.3085 35.1886 19.3085C35.4013 19.2376 35.5432 19.1667 35.6141 19.0248C35.685 18.883 35.685 18.7411 35.685 18.5993L34.4793 13.0674C34.4084 12.7128 34.1957 12.5 33.841 12.5H30.1531C29.8694 12.5 29.5857 12.7128 29.5857 12.9965L28.38 18.1028L28.2382 18.1738C26.8198 18.5284 25.6141 19.0957 24.6212 19.734L24.4793 19.805L20.0113 16.9681C19.7985 16.7553 19.5148 16.8262 19.2311 17.039L16.607 19.6631C16.3942 19.8759 16.3233 20.2305 16.5361 20.4433L19.302 24.9113L19.2311 25.0532C18.5928 26.0461 18.0964 27.2518 17.6708 28.6702L17.5999 28.8121L12.4935 29.9468C12.2098 30.0887 11.9971 30.3014 11.9971 30.5851V34.273C11.9971 34.5567 12.2098 34.8404 12.4935 34.8404L17.5999 36.0461L17.6708 36.1879C18.0254 37.6064 18.5928 38.8121 19.2311 39.805L19.302 39.9468L16.4652 44.4149C16.3233 44.6277 16.3942 44.9823 16.607 45.266L19.2311 47.8901C19.4439 48.1028 19.7985 48.1738 20.0113 47.961L24.4793 45.195L24.6212 45.266C25.6141 45.9043 26.8198 46.4007 28.2382 46.8262L28.38 46.8972L29.5148 52.0035C29.5857 52.2872 29.7985 52.5 30.0822 52.5H33.7701C34.0538 52.5 34.3375 52.2872 34.3375 52.0035L35.5432 46.8972L35.685 46.8262C37.1035 46.4716 38.3091 45.9043 39.302 45.266L39.4439 45.195L43.912 47.961C44.1247 48.1028 44.4793 48.0319 44.763 47.8191L47.3871 45.195C47.5999 44.9823 47.6708 44.6277 47.4581 44.4149L44.6921 39.9468L44.763 39.805C45.4013 38.8121 45.8978 37.6064 46.3233 36.1879L46.3942 36.0461L51.5006 34.8404C51.7843 34.7695 51.9971 34.5567 51.9971 34.273V30.656C51.9261 30.4433 51.7843 30.0887 51.4297 30.0177Z" fill="white"/>
<path d="M32.7086 23.9184V21.6489C32.7086 21.2943 32.4249 21.0106 32.0703 21.0106C31.7157 21.0106 31.432 21.2943 31.432 21.6489V23.9184H31.2192C27.1058 24.344 23.8433 27.6064 23.4887 31.7908V32.0035H21.0065C20.6519 32.0035 20.3682 32.2872 20.3682 32.6418C20.3682 32.9965 20.6519 33.2801 21.0065 33.2801H23.4887V33.4929C23.9852 37.4645 27.1767 40.656 31.2192 41.0106H31.432V43.7057C31.432 44.0603 31.7157 44.344 32.0703 44.344C32.4249 44.344 32.7086 44.0603 32.7086 43.7057V41.0816H32.9214C36.893 40.656 40.1554 37.5355 40.6519 33.5638V33.3511H43.1341C43.4887 33.3511 43.7724 33.0674 43.7724 32.7128C43.7724 32.3582 43.4887 32.0745 43.1341 32.0745H40.6519V31.8617C40.51 30.1596 39.8717 28.5284 38.8079 27.1808L38.666 26.9681L42.4249 23.2092L46.2547 23.7057C46.5384 23.7766 46.7511 23.5638 46.8221 23.4929L51.5738 18.7411C51.7157 18.5993 51.8575 18.3865 51.7157 18.1028C51.6448 17.8901 51.5029 17.6773 51.2192 17.6773L47.4604 17.1808L46.9639 13.4929C46.893 13.2092 46.7511 13.0674 46.5384 12.9965C46.3256 12.9255 46.0419 12.9965 45.8292 13.1383L41.0774 17.8901C40.9355 18.0319 40.8646 18.2447 40.8646 18.4574L41.432 22.2163L37.744 25.9752L37.5313 25.8333C36.1128 24.6986 34.4816 24.0603 32.9214 23.9184H32.7086ZM47.0348 18.3156L49.6589 18.6702L46.0419 22.3582L43.4178 22.0035L47.0348 18.3156ZM45.8292 14.8404L46.1838 17.4645L42.4958 21.1525L42.1412 18.5284L45.8292 14.8404ZM36.8221 26.8972L35.1909 28.5284L34.9781 28.3865C34.198 27.8191 33.1341 27.4645 31.9994 27.4645C29.2334 27.4645 26.9639 29.805 26.9639 32.5C26.9639 35.195 29.3043 37.5355 31.9994 37.5355C34.7653 37.5355 37.0348 35.195 37.0348 32.5C37.0348 31.5071 36.7511 30.4433 36.1838 29.5922L36.0419 29.3794L37.6731 27.7482L37.8859 27.961C38.8079 29.2376 39.3753 30.7979 39.3753 32.3582C39.3753 36.4007 36.0419 39.734 31.9994 39.734C27.9568 39.734 24.6235 36.4007 24.6235 32.3582C24.6235 28.3156 27.9568 24.9823 31.9994 24.9823C33.7015 24.9823 35.2618 25.5496 36.5384 26.6135L36.8221 26.8972ZM31.9284 32.6418C32.2121 32.9255 32.5667 32.9255 32.8504 32.6418L35.2618 30.2305L35.4036 30.5851C35.6873 31.2234 35.8292 31.7908 35.8292 32.5C35.8292 34.6277 34.127 36.3298 31.9994 36.3298C29.8717 36.3298 28.1696 34.6277 28.1696 32.5C28.1696 30.3723 29.8717 28.6702 31.9994 28.6702C32.8504 28.6702 33.5597 28.9539 33.9852 29.1667L34.2689 29.3085L31.9284 31.6489C31.6448 31.9326 31.6448 32.3582 31.9284 32.6418Z" fill="white"/>
</svg>
