<svg width="63" height="63" viewBox="0 0 63 63" fill="none" xmlns="http://www.w3.org/2000/svg">
<circle cx="31.5" cy="31.5" r="31.5" fill="#FCFBB3"/>
<path d="M29.1333 34.3993L26.2667 31.5327C26.0222 31.2882 25.7111 31.166 25.3333 31.166C24.9555 31.166 24.6444 31.2882 24.4 31.5327C24.1555 31.7771 24.0333 32.0882 24.0333 32.466C24.0333 32.8438 24.1555 33.1549 24.4 33.3993L28.2 37.1993C28.4667 37.466 28.7778 37.5993 29.1333 37.5993C29.4889 37.5993 29.8 37.466 30.0667 37.1993L37.6 29.666C37.8444 29.4216 37.9667 29.1105 37.9667 28.7327C37.9667 28.3549 37.8444 28.0438 37.6 27.7993C37.3555 27.5549 37.0444 27.4327 36.6667 27.4327C36.2889 27.4327 35.9778 27.5549 35.7333 27.7993L29.1333 34.3993ZM31 45.3327C29.1555 45.3327 27.4222 44.9825 25.8 44.282C24.1778 43.5816 22.7667 42.6318 21.5667 41.4327C20.3667 40.2336 19.4169 38.8225 18.7173 37.1993C18.0178 35.5762 17.6675 33.8429 17.6667 31.9993C17.6658 30.1558 18.016 28.4225 18.7173 26.7993C19.4187 25.1762 20.3684 23.7651 21.5667 22.566C22.7649 21.3669 24.176 20.4171 25.8 19.7167C27.424 19.0162 29.1573 18.666 31 18.666C32.8427 18.666 34.576 19.0162 36.2 19.7167C37.824 20.4171 39.2351 21.3669 40.4333 22.566C41.6315 23.7651 42.5818 25.1762 43.284 26.7993C43.9862 28.4225 44.336 30.1558 44.3333 31.9993C44.3307 33.8429 43.9804 35.5762 43.2827 37.1993C42.5849 38.8225 41.6351 40.2336 40.4333 41.4327C39.2316 42.6318 37.8204 43.582 36.2 44.2833C34.5795 44.9847 32.8462 45.3345 31 45.3327ZM31 42.666C33.9778 42.666 36.5 41.6327 38.5667 39.566C40.6333 37.4993 41.6667 34.9771 41.6667 31.9993C41.6667 29.0216 40.6333 26.4993 38.5667 24.4327C36.5 22.366 33.9778 21.3327 31 21.3327C28.0222 21.3327 25.5 22.366 23.4333 24.4327C21.3667 26.4993 20.3333 29.0216 20.3333 31.9993C20.3333 34.9771 21.3667 37.4993 23.4333 39.566C25.5 41.6327 28.0222 42.666 31 42.666Z" fill="black"/>
</svg>
