<svg width="63" height="63" viewBox="0 0 63 63" fill="none" xmlns="http://www.w3.org/2000/svg">
<circle cx="31.5" cy="31.5" r="31.5" fill="#FCFBB3"/>
<path d="M18.6667 31.9993C18.6667 28.9936 19.8607 26.1109 21.9861 23.9855C24.1115 21.8601 26.9942 20.666 30 20.666C33.0058 20.666 35.8885 21.8601 38.0139 23.9855C40.1393 26.1109 41.3333 28.9936 41.3333 31.9993C41.3333 35.0051 40.1393 37.8878 38.0139 40.0132C35.8885 42.1386 33.0058 43.3327 30 43.3327C26.9942 43.3327 24.1115 42.1386 21.9861 40.0132C19.8607 37.8878 18.6667 35.0051 18.6667 31.9993ZM30 18.666C22.636 18.666 16.6667 24.6353 16.6667 31.9993C16.6667 39.3633 22.636 45.3327 30 45.3327C37.364 45.3327 43.3333 39.3633 43.3333 31.9993C43.3333 24.6353 37.364 18.666 30 18.666ZM33.124 24.2767C32.918 24.0982 32.6545 24 32.382 24C32.1094 24 31.846 24.0982 31.64 24.2767C31.5435 24.3598 31.4662 24.4627 31.4131 24.5785C31.3601 24.6942 31.3326 24.82 31.3326 24.9473C31.3326 25.0747 31.3601 25.2005 31.4131 25.3162C31.4662 25.432 31.5435 25.5349 31.64 25.618C35.5373 29.142 35.5373 34.8553 31.64 38.3793C31.5435 38.4625 31.4662 38.5654 31.4131 38.6811C31.3601 38.7969 31.3326 38.9227 31.3326 39.05C31.3326 39.1773 31.3601 39.3032 31.4131 39.4189C31.4662 39.5346 31.5435 39.6376 31.64 39.7207C31.846 39.8991 32.1094 39.9973 32.382 39.9973C32.6545 39.9973 32.918 39.8991 33.124 39.7207C37.8413 35.4567 37.8413 28.542 33.124 24.2767ZM27.6227 26.2953C27.7134 26.2014 27.8222 26.1267 27.9424 26.0756C28.0627 26.0246 28.192 25.9983 28.3227 25.9983C28.4533 25.9983 28.5826 26.0246 28.7029 26.0756C28.8231 26.1267 28.9319 26.2014 29.0227 26.2953C32.1067 29.446 32.1067 34.5553 29.0227 37.706C28.9319 37.8 28.8231 37.8747 28.7029 37.9257C28.5826 37.9768 28.4533 38.003 28.3227 38.003C28.192 38.003 28.0627 37.9768 27.9424 37.9257C27.8222 37.8747 27.7134 37.8 27.6227 37.706C27.4373 37.5145 27.3337 37.2585 27.3337 36.992C27.3337 36.7255 27.4373 36.4695 27.6227 36.278C29.9347 33.9153 29.9347 30.086 27.6227 27.7247C27.4369 27.5331 27.3331 27.2768 27.3331 27.01C27.3331 26.7432 27.4369 26.4869 27.6227 26.2953ZM25.0693 28.2873C24.8757 28.1019 24.618 27.9985 24.35 27.9985C24.0819 27.9985 23.8242 28.1019 23.6307 28.2873C23.5367 28.377 23.4619 28.4848 23.4107 28.6042C23.3596 28.7236 23.3333 28.8521 23.3333 28.982C23.3333 29.1119 23.3596 29.2404 23.4107 29.3598C23.4619 29.4792 23.5367 29.587 23.6307 29.6767C23.9453 29.9761 24.1958 30.3363 24.3669 30.7354C24.5381 31.1346 24.6264 31.5644 24.6264 31.9987C24.6264 32.433 24.5381 32.8628 24.3669 33.2619C24.1958 33.6611 23.9453 34.0213 23.6307 34.3207C23.5365 34.4103 23.4615 34.5182 23.4102 34.6377C23.359 34.7573 23.3326 34.886 23.3326 35.016C23.3326 35.1461 23.359 35.2748 23.4102 35.3943C23.4615 35.5138 23.5365 35.6217 23.6307 35.7113C23.8243 35.8971 24.0823 36.0009 24.3507 36.0009C24.619 36.0009 24.877 35.8971 25.0707 35.7113C25.5736 35.2327 25.9741 34.6569 26.2477 34.0188C26.5214 33.3807 26.6625 32.6936 26.6625 31.9993C26.6625 31.3051 26.5214 30.618 26.2477 29.9799C25.9741 29.3418 25.5736 28.766 25.0707 28.2873" fill="black"/>
</svg>
