<svg width="63" height="63" viewBox="0 0 63 63" fill="none" xmlns="http://www.w3.org/2000/svg">
<circle cx="31.5" cy="31.5" r="31.5" fill="#FCFBB3"/>
<path d="M23.3667 42.9993C22.7667 42.9993 22.2333 42.8158 21.7667 42.4487C21.3 42.0816 20.9778 41.6096 20.8 41.0327L17.4 28.6993C17.2889 28.2771 17.3613 27.8882 17.6173 27.5327C17.8733 27.1771 18.2231 26.9993 18.6667 26.9993H25L30.8667 18.266C30.9778 18.0882 31.1333 17.9438 31.3333 17.8327C31.5333 17.7216 31.7444 17.666 31.9667 17.666C32.1889 17.666 32.4 17.7216 32.6 17.8327C32.8 17.9438 32.9556 18.0882 33.0667 18.266L38.9333 26.9993H45.3333C45.7778 26.9993 46.128 27.1771 46.384 27.5327C46.64 27.8882 46.712 28.2771 46.6 28.6993L43.2 41.0327C43.0222 41.6105 42.7 42.0829 42.2333 42.45C41.7667 42.8171 41.2333 43.0002 40.6333 42.9993H23.3667ZM23.3333 40.3327H40.6667L43.6 29.666H20.4L23.3333 40.3327ZM32 37.666C32.7333 37.666 33.3613 37.4051 33.884 36.8834C34.4067 36.3616 34.6676 35.7336 34.6667 34.9993C34.6658 34.2651 34.4049 33.6376 33.884 33.1167C33.3631 32.5958 32.7351 32.3345 32 32.3327C31.2649 32.3309 30.6373 32.5922 30.1173 33.1167C29.5973 33.6411 29.336 34.2687 29.3333 34.9993C29.3307 35.73 29.592 36.358 30.1173 36.8834C30.6427 37.4087 31.2702 37.6696 32 37.666ZM28.2333 26.9993H35.7333L31.9667 21.3993L28.2333 26.9993Z" fill="black"/>
</svg>
