<svg width="64" height="64" viewBox="0 0 64 64" fill="none" xmlns="http://www.w3.org/2000/svg">
<rect x="0.25" y="0.25" width="63.5" height="63.5" rx="11.75" fill="#F9FAFD" fill-opacity="0.1"/>
<rect x="0.25" y="0.25" width="63.5" height="63.5" rx="11.75" stroke="white" stroke-width="0.5"/>
<path d="M39.3333 43.9582C39.1748 43.9582 38.9369 43.9582 38.7784 43.8815C38.4613 43.8049 38.1441 43.6516 37.9063 43.5749C37.827 43.4983 37.7477 43.4983 37.7477 43.4216L37.2721 44.3415C38.1441 44.878 39.7297 45.1847 40.5225 44.5714C40.6811 44.4948 40.8396 44.3415 40.9189 44.1115C40.9982 43.9582 41.0775 43.7282 41.0775 43.4216C41.0775 42.885 40.8396 42.4251 40.2054 42.1951C39.3333 41.8885 38.6198 41.8885 38.6198 41.4286C38.6198 41.3519 38.7784 41.1986 39.1748 41.1986C39.3333 41.1986 39.4919 41.1986 39.5712 41.2753C39.809 41.3519 40.1261 41.4286 40.2847 41.5819C40.364 41.6585 40.4432 41.6585 40.4432 41.6585L40.9189 40.7387C40.2054 40.3554 39.3333 40.0488 38.5405 40.3554C38.1441 40.5087 37.7477 40.7387 37.5892 41.1219C37.4306 41.5052 37.4306 41.9652 37.5099 42.1951C37.9063 43.1916 39.8883 42.9617 39.8883 43.6516C39.8883 43.8815 39.7297 43.9582 39.3333 43.9582Z" fill="white"/>
<path d="M45.6757 43.9582H43.3766V43.0383H45.2793V42.1185H43.3766V41.2753H45.5964V40.2787H42.2667V44.9547H45.6757V43.9582Z" fill="white"/>
<path d="M47.8162 44.7247C48.3712 45.0314 49.4811 44.8781 49.7189 44.7247C50.2739 44.4948 50.7495 44.0348 50.9874 43.4983C51.4631 42.3484 50.9874 41.0453 49.7982 40.5087C49.0054 40.1254 47.8955 40.2787 47.1027 41.0453C45.9135 42.1185 46.3099 44.0348 47.8162 44.7247ZM47.5784 42.1185C47.6577 41.8118 47.8955 41.5052 48.2126 41.3519C48.5297 41.1986 49.0054 41.1986 49.3225 41.3519C49.9568 41.6585 50.1946 42.5017 49.9568 43.115C49.8775 43.4216 49.6396 43.7282 49.3225 43.8815C49.0054 44.0348 48.5297 44.0348 48.2126 43.8815C47.8955 43.7282 47.6577 43.4216 47.5784 43.115C47.4991 42.8084 47.5784 42.2718 47.5784 42.1185Z" fill="white"/>
<path d="M34.973 28.9338H35.6072C35.845 28.9338 36.0829 28.7038 36.0829 28.4739C36.0829 28.2439 35.845 28.0139 35.6072 28.0139H33.6252C33.3874 28.0139 33.1495 28.2439 33.1495 28.4739C33.1495 28.7038 33.3874 28.9338 33.6252 28.9338H34.1009V32.7666C34.1009 35.3728 31.8811 37.6725 29.027 37.6725C26.2523 37.6725 23.9532 35.5261 23.9532 32.7666V28.9338H24.4288C24.6667 28.9338 24.9045 28.7038 24.9045 28.4739C24.9045 28.2439 24.6667 28.0139 24.4288 28.0139H22.4468C22.209 28.0139 21.9712 28.2439 21.9712 28.4739C21.9712 28.7038 22.209 28.9338 22.4468 28.9338H22.9225V32.7666C22.9225 35.9094 25.618 38.5923 28.9477 38.5923C32.1982 38.5923 34.973 35.9861 34.973 32.7666V28.9338Z" fill="white"/>
<path d="M53.5243 37.9791H40.0468V24.4878C40.0468 24.2578 39.809 24.0279 39.5712 24.0279H21.0198V10.4599C21.0198 10.23 20.782 10 20.5441 10C20.3063 10 19.9892 10.1533 19.9892 10.4599V24.0279C18.5622 24.0279 11.6649 24.0279 10.4757 24.0279C10.2378 24.0279 10 24.2578 10 24.4878C10 54.7665 10 53.6167 10.0793 53.77C10.0793 53.77 10.0793 53.77 10.1586 53.8467C10.1586 53.8467 10.1586 53.8467 10.2378 53.9233C10.3171 53.9233 10.3171 54 10.3964 54C10.4757 54 11.5856 54 18.4829 54H39.4919C39.7297 54 39.9676 53.77 39.9676 53.5401V47.2544H53.5243C53.7622 47.2544 54 47.0244 54 46.7944V38.439C54 38.2091 53.7622 37.9791 53.5243 37.9791ZM11.7441 53.0035L14.4396 50.3972L17.2144 53.0035H11.7441ZM18.0072 52.3136L14.9946 49.4773V37.0592C14.9946 36.8293 14.7568 36.5993 14.5189 36.5993C14.2018 36.5993 13.964 36.8293 13.964 37.0592V49.4773L10.9514 52.3136V24.9477H18.0072V52.3136ZM39.0162 53.0035H19.0378V50.2439H39.0162V53.0035ZM39.0162 49.2474H19.0378V48.1742H27.9964C28.2342 48.1742 28.4721 47.9442 28.4721 47.7143C28.4721 47.4843 28.2342 47.2544 27.9964 47.2544H19.0378V24.9477H39.0162V38.0557H35.0523C34.8144 38.0557 34.5766 38.2857 34.5766 38.5157V46.7178C34.5766 46.9477 34.8144 47.1777 35.0523 47.1777H39.0162V49.2474ZM53.0486 46.1812H35.5279V38.899H53.0486V46.1812Z" fill="white"/>
<path d="M18.0072 20.5784C18.245 20.5784 18.4829 20.3484 18.4829 20.1185V12.3763C18.4829 12.1463 18.245 11.9164 18.0072 11.9164C17.7694 11.9164 17.5315 12.1463 17.5315 12.3763V20.1185C17.5315 20.3484 17.7694 20.5784 18.0072 20.5784Z" fill="white"/>
<path d="M23.0811 21.5749C23.3189 21.5749 23.5568 21.3449 23.5568 21.115V15.3659C23.5568 15.1359 23.3189 14.9059 23.0811 14.9059C22.8432 14.9059 22.6054 15.1359 22.6054 15.3659V21.1916C22.4468 21.3449 22.6847 21.5749 23.0811 21.5749Z" fill="white"/>
<path d="M26.4901 21.5749C26.7279 21.5749 26.9658 21.3449 26.9658 21.115V13.3728C26.9658 13.1429 26.7279 12.9129 26.4901 12.9129C26.2523 12.9129 26.0144 13.1429 26.0144 13.3728V21.115C26.0144 21.3449 26.2523 21.5749 26.4901 21.5749Z" fill="white"/>
<path d="M34.0216 21.5749C34.2595 21.5749 34.4973 21.3449 34.4973 21.115V10.4599C34.4973 10.23 34.2595 10 34.0216 10C33.7838 10 33.5459 10.23 33.5459 10.4599V21.115C33.5459 21.3449 33.7838 21.5749 34.0216 21.5749Z" fill="white"/>
<path d="M31.009 16.2857C31.2468 16.2857 31.4847 16.0557 31.4847 15.8258V11.993C31.4847 11.7631 31.2468 11.5331 31.009 11.5331C30.7712 11.5331 30.5333 11.7631 30.5333 11.993V15.8258C30.4541 16.0557 30.6919 16.2857 31.009 16.2857Z" fill="white"/>
</svg>
