<svg width="33" height="32" viewBox="0 0 33 32" fill="none" xmlns="http://www.w3.org/2000/svg">
<mask id="path-1-inside-1_1_1346" fill="white">
<path d="M14.1664 14.1145C13.8918 13.8451 13.4526 13.8451 13.178 14.1145L11.8053 15.4613C11.5308 15.7306 11.5308 16.1616 11.8053 16.431L13.178 17.7778C13.4526 18.0471 13.8918 18.0471 14.1664 17.7778C14.4409 17.5084 14.4409 17.0774 14.1664 16.8081L13.2879 15.9461L14.1664 15.0842C14.4409 14.8148 14.4409 14.3838 14.1664 14.1145Z"/>
<path d="M18.7787 14.1145C18.5042 14.3838 18.5042 14.8148 18.7787 15.0842L19.6572 15.9461L18.7787 16.8081C18.5042 17.0774 18.5042 17.5084 18.7787 17.7778C19.0532 18.0471 19.4925 18.0471 19.7671 17.7778L21.1398 16.431C21.4143 16.1616 21.4143 15.7306 21.1398 15.4613L19.7671 14.1145C19.4925 13.8451 19.0532 13.8451 18.7787 14.1145Z"/>
<path d="M17.406 13.3064C17.0216 13.1987 16.6373 13.3603 16.5275 13.7374L15.0998 17.7778C14.99 18.1549 15.1547 18.532 15.5391 18.6397C15.9235 18.7475 16.3078 18.5859 16.4176 18.2088L17.7903 14.1683C17.9551 13.7912 17.7903 13.4141 17.406 13.3064Z"/>
<path d="M32.396 13.8451L28.2779 12.9832C28.0033 11.9596 27.5641 10.936 27.015 10.0202L29.2113 6.57239C29.376 6.30303 29.3211 5.9798 29.1015 5.71044L27.015 3.6633C26.7953 3.44781 26.411 3.39394 26.1364 3.55556L22.5674 5.71044C21.6339 5.17172 20.5907 4.74074 19.4925 4.47138L18.6689 0.538721C18.614 0.215488 18.3394 0 18.01 0H14.99C14.6606 0 14.386 0.215488 14.3311 0.538721L13.4526 4.52525C12.3544 4.79461 11.3661 5.22559 10.3777 5.76431L6.80865 3.60943C6.53411 3.44781 6.20466 3.50168 5.93012 3.71717L3.84359 5.76431C3.62396 5.9798 3.56905 6.3569 3.73378 6.62626L5.93012 10.0741C5.38103 10.9899 4.94176 12.0135 4.66722 13.037L0.549085 13.899C0.219634 13.9529 0 14.2222 0 14.5455V17.4545C0 17.7778 0.219634 18.0471 0.549085 18.101L4.66722 18.963C4.94176 19.9865 5.38103 21.0101 5.93012 21.9259L3.67887 25.3737C3.51414 25.6431 3.56905 25.9663 3.78869 26.2357L5.87521 28.2828C6.09484 28.4983 6.4792 28.5522 6.75374 28.3906L10.3228 26.2357C11.2562 26.7744 12.2995 27.2054 13.3977 27.4747L14.1115 30.5993H3.56905C3.18469 30.5993 2.85524 30.9226 2.85524 31.2997C2.85524 31.6768 3.18469 32 3.56905 32C4.61231 32 28.0582 32 29.2662 32C29.6506 32 29.98 31.6768 29.98 31.2997C29.98 30.9226 29.6506 30.5993 29.2662 30.5993H18.8336L19.5474 27.4747C20.5907 27.2054 21.6339 26.7744 22.6223 26.2357L26.1914 28.3906C26.4659 28.5522 26.7953 28.4983 27.0699 28.2828L29.1564 26.2357C29.376 26.0202 29.431 25.6431 29.2662 25.3737L27.0699 21.9259C27.619 21.0101 28.0582 19.9865 28.3328 18.963L32.4509 18.101C32.7804 18.0471 33 17.7778 33 17.4545V14.5455C32.9451 14.1684 32.7255 13.899 32.396 13.8451ZM27.5641 17.7239C27.2895 17.7778 27.1248 17.9933 27.0699 18.2088C26.7953 19.3939 26.3561 20.5253 25.6423 21.5488C25.4775 21.7643 25.4775 22.0337 25.6423 22.2492L27.7837 25.5892L26.4659 26.936L23.0067 24.835C22.787 24.6734 22.5125 24.6734 22.2928 24.835C21.2496 25.4815 20.0965 25.9663 18.8336 26.2357C18.5591 26.2896 18.3943 26.5051 18.3394 26.7205L17.4609 30.5455H15.594L14.7155 26.7205C14.6606 26.4512 14.4409 26.2896 14.2213 26.2357C13.0133 25.9663 11.8053 25.5354 10.7621 24.835C10.5424 24.6734 10.2679 24.6734 10.0483 24.835L6.53411 26.936L5.21631 25.6431L7.35774 22.303C7.52246 22.0875 7.52246 21.8182 7.35774 21.6027C6.69884 20.5791 6.20466 19.4478 5.93012 18.2626C5.87521 17.9933 5.65557 17.8316 5.43594 17.7778L1.48253 16.9158V15.0842L5.43594 14.2222C5.71048 14.1684 5.87521 13.9529 5.93012 13.7374C6.20466 12.5522 6.64393 11.4209 7.35774 10.3973C7.52246 10.1818 7.52246 9.91246 7.35774 9.69697L5.21631 6.3569L6.53411 5.06397L9.99335 7.16498C10.213 7.3266 10.4875 7.3266 10.7072 7.16498C11.7504 6.51852 12.9035 6.03367 14.1664 5.76431C14.4409 5.71044 14.6057 5.49495 14.6606 5.27946L15.5391 1.45455H17.406L18.2845 5.27946C18.3394 5.54882 18.5591 5.71044 18.7787 5.76431C19.9867 6.03367 21.1947 6.51852 22.2379 7.16498C22.4576 7.3266 22.7321 7.3266 22.9517 7.16498L26.411 5.06397L27.7288 6.3569L25.5874 9.69697C25.4226 9.91246 25.4226 10.1818 25.5874 10.3973C26.2463 11.4209 26.7404 12.5522 27.015 13.7374C27.0699 14.0067 27.2895 14.1684 27.5092 14.2222L31.4626 15.0842L31.5175 16.862L27.5641 17.7239Z"/>
<path d="M16.4725 6.94949C11.3661 6.94949 7.19301 10.9899 7.19301 15.9461C7.19301 20.9024 11.3661 24.9428 16.4725 24.9428C21.579 24.9428 25.7521 20.9024 25.7521 15.9461C25.7521 10.9899 21.6339 6.94949 16.4725 6.94949ZM16.4725 23.596C12.1348 23.596 8.56572 20.1481 8.56572 15.9461C8.56572 11.7441 12.1897 8.2963 16.4725 8.2963C20.8103 8.2963 24.3794 11.7441 24.3794 15.9461C24.3794 20.1481 20.8103 23.596 16.4725 23.596Z"/>
</mask>
<path d="M14.1664 14.1145C13.8918 13.8451 13.4526 13.8451 13.178 14.1145L11.8053 15.4613C11.5308 15.7306 11.5308 16.1616 11.8053 16.431L13.178 17.7778C13.4526 18.0471 13.8918 18.0471 14.1664 17.7778C14.4409 17.5084 14.4409 17.0774 14.1664 16.8081L13.2879 15.9461L14.1664 15.0842C14.4409 14.8148 14.4409 14.3838 14.1664 14.1145Z" fill="#33323C"/>
<path d="M18.7787 14.1145C18.5042 14.3838 18.5042 14.8148 18.7787 15.0842L19.6572 15.9461L18.7787 16.8081C18.5042 17.0774 18.5042 17.5084 18.7787 17.7778C19.0532 18.0471 19.4925 18.0471 19.7671 17.7778L21.1398 16.431C21.4143 16.1616 21.4143 15.7306 21.1398 15.4613L19.7671 14.1145C19.4925 13.8451 19.0532 13.8451 18.7787 14.1145Z" fill="#33323C"/>
<path d="M17.406 13.3064C17.0216 13.1987 16.6373 13.3603 16.5275 13.7374L15.0998 17.7778C14.99 18.1549 15.1547 18.532 15.5391 18.6397C15.9235 18.7475 16.3078 18.5859 16.4176 18.2088L17.7903 14.1683C17.9551 13.7912 17.7903 13.4141 17.406 13.3064Z" fill="#33323C"/>
<path d="M32.396 13.8451L28.2779 12.9832C28.0033 11.9596 27.5641 10.936 27.015 10.0202L29.2113 6.57239C29.376 6.30303 29.3211 5.9798 29.1015 5.71044L27.015 3.6633C26.7953 3.44781 26.411 3.39394 26.1364 3.55556L22.5674 5.71044C21.6339 5.17172 20.5907 4.74074 19.4925 4.47138L18.6689 0.538721C18.614 0.215488 18.3394 0 18.01 0H14.99C14.6606 0 14.386 0.215488 14.3311 0.538721L13.4526 4.52525C12.3544 4.79461 11.3661 5.22559 10.3777 5.76431L6.80865 3.60943C6.53411 3.44781 6.20466 3.50168 5.93012 3.71717L3.84359 5.76431C3.62396 5.9798 3.56905 6.3569 3.73378 6.62626L5.93012 10.0741C5.38103 10.9899 4.94176 12.0135 4.66722 13.037L0.549085 13.899C0.219634 13.9529 0 14.2222 0 14.5455V17.4545C0 17.7778 0.219634 18.0471 0.549085 18.101L4.66722 18.963C4.94176 19.9865 5.38103 21.0101 5.93012 21.9259L3.67887 25.3737C3.51414 25.6431 3.56905 25.9663 3.78869 26.2357L5.87521 28.2828C6.09484 28.4983 6.4792 28.5522 6.75374 28.3906L10.3228 26.2357C11.2562 26.7744 12.2995 27.2054 13.3977 27.4747L14.1115 30.5993H3.56905C3.18469 30.5993 2.85524 30.9226 2.85524 31.2997C2.85524 31.6768 3.18469 32 3.56905 32C4.61231 32 28.0582 32 29.2662 32C29.6506 32 29.98 31.6768 29.98 31.2997C29.98 30.9226 29.6506 30.5993 29.2662 30.5993H18.8336L19.5474 27.4747C20.5907 27.2054 21.6339 26.7744 22.6223 26.2357L26.1914 28.3906C26.4659 28.5522 26.7953 28.4983 27.0699 28.2828L29.1564 26.2357C29.376 26.0202 29.431 25.6431 29.2662 25.3737L27.0699 21.9259C27.619 21.0101 28.0582 19.9865 28.3328 18.963L32.4509 18.101C32.7804 18.0471 33 17.7778 33 17.4545V14.5455C32.9451 14.1684 32.7255 13.899 32.396 13.8451ZM27.5641 17.7239C27.2895 17.7778 27.1248 17.9933 27.0699 18.2088C26.7953 19.3939 26.3561 20.5253 25.6423 21.5488C25.4775 21.7643 25.4775 22.0337 25.6423 22.2492L27.7837 25.5892L26.4659 26.936L23.0067 24.835C22.787 24.6734 22.5125 24.6734 22.2928 24.835C21.2496 25.4815 20.0965 25.9663 18.8336 26.2357C18.5591 26.2896 18.3943 26.5051 18.3394 26.7205L17.4609 30.5455H15.594L14.7155 26.7205C14.6606 26.4512 14.4409 26.2896 14.2213 26.2357C13.0133 25.9663 11.8053 25.5354 10.7621 24.835C10.5424 24.6734 10.2679 24.6734 10.0483 24.835L6.53411 26.936L5.21631 25.6431L7.35774 22.303C7.52246 22.0875 7.52246 21.8182 7.35774 21.6027C6.69884 20.5791 6.20466 19.4478 5.93012 18.2626C5.87521 17.9933 5.65557 17.8316 5.43594 17.7778L1.48253 16.9158V15.0842L5.43594 14.2222C5.71048 14.1684 5.87521 13.9529 5.93012 13.7374C6.20466 12.5522 6.64393 11.4209 7.35774 10.3973C7.52246 10.1818 7.52246 9.91246 7.35774 9.69697L5.21631 6.3569L6.53411 5.06397L9.99335 7.16498C10.213 7.3266 10.4875 7.3266 10.7072 7.16498C11.7504 6.51852 12.9035 6.03367 14.1664 5.76431C14.4409 5.71044 14.6057 5.49495 14.6606 5.27946L15.5391 1.45455H17.406L18.2845 5.27946C18.3394 5.54882 18.5591 5.71044 18.7787 5.76431C19.9867 6.03367 21.1947 6.51852 22.2379 7.16498C22.4576 7.3266 22.7321 7.3266 22.9517 7.16498L26.411 5.06397L27.7288 6.3569L25.5874 9.69697C25.4226 9.91246 25.4226 10.1818 25.5874 10.3973C26.2463 11.4209 26.7404 12.5522 27.015 13.7374C27.0699 14.0067 27.2895 14.1684 27.5092 14.2222L31.4626 15.0842L31.5175 16.862L27.5641 17.7239Z" fill="#33323C"/>
<path d="M16.4725 6.94949C11.3661 6.94949 7.19301 10.9899 7.19301 15.9461C7.19301 20.9024 11.3661 24.9428 16.4725 24.9428C21.579 24.9428 25.7521 20.9024 25.7521 15.9461C25.7521 10.9899 21.6339 6.94949 16.4725 6.94949ZM16.4725 23.596C12.1348 23.596 8.56572 20.1481 8.56572 15.9461C8.56572 11.7441 12.1897 8.2963 16.4725 8.2963C20.8103 8.2963 24.3794 11.7441 24.3794 15.9461C24.3794 20.1481 20.8103 23.596 16.4725 23.596Z" fill="#33323C"/>
<path d="M13.178 14.1145L13.8784 14.8283L13.178 14.1145ZM11.8053 15.4613L11.105 14.7475L11.8053 15.4613ZM11.8053 16.431L12.5057 15.7172H12.5057L11.8053 16.431ZM13.178 17.7778L12.4777 18.4916H12.4777L13.178 17.7778ZM14.1664 16.8081L13.4661 17.5219H13.4661L14.1664 16.8081ZM13.2879 15.9461L12.5875 15.2323L11.86 15.9461L12.5875 16.6599L13.2879 15.9461ZM14.1664 15.0842L13.4661 14.3704L13.4661 14.3704L14.1664 15.0842ZM18.7787 15.0842L18.0784 15.798L18.7787 15.0842ZM19.6572 15.9461L20.3576 16.6599L21.0851 15.9461L20.3576 15.2323L19.6572 15.9461ZM18.7787 16.8081L19.479 17.5219L18.7787 16.8081ZM19.7671 17.7778L20.4674 18.4916L19.7671 17.7778ZM21.1398 16.431L20.4394 15.7172V15.7172L21.1398 16.431ZM21.1398 15.4613L20.4394 16.1751L21.1398 15.4613ZM19.7671 14.1145L20.4674 13.4007L19.7671 14.1145ZM16.5275 13.7374L17.4703 14.0705L17.4797 14.044L17.4876 14.017L16.5275 13.7374ZM15.0998 17.7778L14.157 17.4446L14.1476 17.4712L14.1397 17.4982L15.0998 17.7778ZM16.4176 18.2088L15.4708 17.8871L15.4637 17.908L15.4575 17.9292L16.4176 18.2088ZM17.7903 14.1683L16.874 13.7681L16.8571 13.8067L16.8435 13.8467L17.7903 14.1683ZM32.396 13.8451L32.1911 14.8239L32.2128 14.8284L32.2346 14.832L32.396 13.8451ZM28.2779 12.9832L27.312 13.2422L27.4713 13.836L28.073 13.962L28.2779 12.9832ZM27.015 10.0202L26.1716 9.48293L25.8395 10.0043L26.1573 10.5344L27.015 10.0202ZM29.2113 6.57239L30.0547 7.10966L30.0597 7.10193L30.0644 7.09411L29.2113 6.57239ZM29.1015 5.71044L29.8765 5.0785L29.8414 5.03549L29.8018 4.99663L29.1015 5.71044ZM27.015 3.6633L27.7153 2.94949V2.94949L27.015 3.6633ZM26.1364 3.55556L25.6291 2.69373L25.6196 2.69949L26.1364 3.55556ZM22.5674 5.71044L22.0675 6.57655L22.5789 6.87165L23.0843 6.5665L22.5674 5.71044ZM19.4925 4.47138L18.5137 4.67637L18.6428 5.29261L19.2543 5.44259L19.4925 4.47138ZM18.6689 0.538721L17.683 0.706194L17.6862 0.725018L17.6901 0.743706L18.6689 0.538721ZM14.3311 0.538721L15.3077 0.753932L15.3129 0.730177L15.317 0.706194L14.3311 0.538721ZM13.4526 4.52525L13.6908 5.49646L14.2952 5.34821L14.4291 4.74046L13.4526 4.52525ZM10.3777 5.76431L9.86084 6.62038L10.3523 6.91708L10.8563 6.64235L10.3777 5.76431ZM6.80865 3.60943L7.32555 2.75331L7.31595 2.74766L6.80865 3.60943ZM5.93012 3.71717L5.31269 2.93054L5.26922 2.96466L5.22978 3.00336L5.93012 3.71717ZM3.84359 5.76431L3.14326 5.0505L3.84359 5.76431ZM3.73378 6.62626L2.88066 7.14798L2.88544 7.1558L2.89037 7.16353L3.73378 6.62626ZM5.93012 10.0741L6.78778 10.5883L7.10563 10.0581L6.77353 9.5368L5.93012 10.0741ZM4.66722 13.037L4.87209 14.0158L5.47382 13.8899L5.63308 13.2961L4.66722 13.037ZM0.549085 13.899L0.710462 14.8859L0.732297 14.8823L0.753952 14.8778L0.549085 13.899ZM0.549085 18.101L0.753952 17.1222L0.732297 17.1177L0.710462 17.1141L0.549085 18.101ZM4.66722 18.963L5.63308 18.7039L5.47382 18.1101L4.87209 17.9842L4.66722 18.963ZM5.93012 21.9259L6.76743 22.4727L7.10964 21.9485L6.78778 21.4117L5.93012 21.9259ZM3.67887 25.3737L2.84156 24.827L2.83347 24.8394L2.82575 24.852L3.67887 25.3737ZM3.78869 26.2357L3.01367 26.8676L3.04874 26.9106L3.08835 26.9495L3.78869 26.2357ZM5.87521 28.2828L5.17487 28.9966L5.87521 28.2828ZM6.75374 28.3906L7.26108 29.2524L7.27061 29.2466L6.75374 28.3906ZM10.3228 26.2357L10.8227 25.3696L10.3113 25.0745L9.80593 25.3796L10.3228 26.2357ZM13.3977 27.4747L14.3726 27.252L14.2351 26.6505L13.6359 26.5035L13.3977 27.4747ZM14.1115 30.5993V31.5993H15.3657L15.0864 30.3766L14.1115 30.5993ZM18.8336 30.5993L17.8587 30.3766L17.5794 31.5993H18.8336V30.5993ZM19.5474 27.4747L19.2974 26.5065L18.7081 26.6587L18.5725 27.252L19.5474 27.4747ZM22.6223 26.2357L23.1392 25.3796L22.6477 25.0829L22.1437 25.3577L22.6223 26.2357ZM26.1914 28.3906L25.6745 29.2467L25.684 29.2523L26.1914 28.3906ZM27.0699 28.2828L27.6873 29.0695L27.7308 29.0353L27.7702 28.9966L27.0699 28.2828ZM29.1564 26.2357L29.8567 26.9495L29.1564 26.2357ZM29.2662 25.3737L30.1193 24.852L30.1146 24.8442L30.1096 24.8365L29.2662 25.3737ZM27.0699 21.9259L26.2122 21.4117L25.8944 21.9419L26.2265 22.4632L27.0699 21.9259ZM28.3328 18.963L28.1279 17.9842L27.5262 18.1101L27.3669 18.7039L28.3328 18.963ZM32.4509 18.101L32.2895 17.1141L32.2677 17.1177L32.246 17.1222L32.4509 18.101ZM33 14.5455H34V14.473L33.9896 14.4014L33 14.5455ZM27.5641 17.7239L27.7566 18.7052L27.7669 18.7032L27.7771 18.701L27.5641 17.7239ZM27.0699 18.2088L26.1008 17.9618L26.0981 17.9724L26.0957 17.9831L27.0699 18.2088ZM25.6423 21.5488L26.4367 22.1561L26.45 22.1388L26.4625 22.1208L25.6423 21.5488ZM25.6423 22.2492L26.4841 21.7094L26.4618 21.6747L26.4367 21.6418L25.6423 22.2492ZM27.7837 25.5892L28.4985 26.2886L29.0552 25.7196L28.6255 25.0495L27.7837 25.5892ZM26.4659 26.936L25.9468 27.7907L26.6254 28.2029L27.1807 27.6354L26.4659 26.936ZM23.0067 24.835L22.414 25.6405L22.4497 25.6667L22.4875 25.6897L23.0067 24.835ZM22.2928 24.835L22.8196 25.685L22.8534 25.6641L22.8855 25.6405L22.2928 24.835ZM18.8336 26.2357L19.0262 27.217L19.0342 27.2154L19.0422 27.2137L18.8336 26.2357ZM18.3394 26.7205L17.3704 26.4736L17.3675 26.4851L17.3648 26.4967L18.3394 26.7205ZM17.4609 30.5455V31.5455H18.2572L18.4355 30.7693L17.4609 30.5455ZM15.594 30.5455L14.6194 30.7693L14.7977 31.5455H15.594V30.5455ZM14.7155 26.7205L13.7356 26.9203L13.7381 26.9324L13.7409 26.9444L14.7155 26.7205ZM14.2213 26.2357L14.4595 25.2645L14.4493 25.262L14.4389 25.2597L14.2213 26.2357ZM10.7621 24.835L10.1694 25.6405L10.1868 25.6533L10.2047 25.6653L10.7621 24.835ZM10.0483 24.835L10.5614 25.6933L10.6024 25.6688L10.6409 25.6405L10.0483 24.835ZM6.53411 26.936L5.83377 27.6498L6.38475 28.1904L7.04726 27.7943L6.53411 26.936ZM5.21631 25.6431L4.37447 25.1034L3.93575 25.7876L4.51597 26.3569L5.21631 25.6431ZM7.35774 22.303L6.56327 21.6957L6.53819 21.7285L6.5159 21.7633L7.35774 22.303ZM7.35774 21.6027L6.51689 22.144L6.53875 22.1779L6.56327 22.21L7.35774 21.6027ZM5.93012 18.2626L4.95027 18.4624L4.95292 18.4754L4.95591 18.4883L5.93012 18.2626ZM5.43594 17.7778L5.67416 16.8066L5.6616 16.8035L5.64896 16.8007L5.43594 17.7778ZM1.48253 16.9158H0.482529V17.7213L1.26951 17.8929L1.48253 16.9158ZM1.48253 15.0842L1.26951 14.1071L0.482529 14.2787V15.0842H1.48253ZM5.43594 14.2222L5.24339 13.2409L5.23313 13.2429L5.22292 13.2452L5.43594 14.2222ZM5.93012 13.7374L6.89915 13.9843L6.90185 13.9737L6.90432 13.963L5.93012 13.7374ZM7.35774 10.3973L6.56327 9.79L6.55 9.80736L6.5375 9.82529L7.35774 10.3973ZM7.35774 9.69697L6.5159 10.2367L6.53819 10.2715L6.56327 10.3043L7.35774 9.69697ZM5.21631 6.3569L4.51597 5.64309L3.93575 6.21235L4.37447 6.89663L5.21631 6.3569ZM6.53411 5.06397L7.05323 4.20927L6.38873 3.80568L5.83377 4.35016L6.53411 5.06397ZM9.99335 7.16498L10.586 6.35954L10.5503 6.33328L10.5125 6.31028L9.99335 7.16498ZM10.7072 7.16498L10.1804 6.31495L10.1466 6.33593L10.1145 6.35954L10.7072 7.16498ZM14.1664 5.76431L13.9738 4.78302L13.9658 4.7846L13.9578 4.78631L14.1664 5.76431ZM14.6606 5.27946L15.6296 5.52638L15.6325 5.51488L15.6352 5.50332L14.6606 5.27946ZM15.5391 1.45455V0.454545H14.7428L14.5645 1.23069L15.5391 1.45455ZM17.406 1.45455L18.3806 1.23069L18.2023 0.454545H17.406V1.45455ZM18.2845 5.27946L19.2644 5.07972L19.2619 5.06763L19.2591 5.0556L18.2845 5.27946ZM18.7787 5.76431L18.5405 6.73552L18.5507 6.73804L18.5611 6.74034L18.7787 5.76431ZM22.2379 7.16498L22.8306 6.35954L22.7985 6.33593L22.7647 6.31495L22.2379 7.16498ZM22.9517 7.16498L22.4326 6.31028L22.3948 6.33328L22.3591 6.35954L22.9517 7.16498ZM26.411 5.06397L27.1113 4.35016L26.5564 3.80568L25.8919 4.20927L26.411 5.06397ZM27.7288 6.3569L28.5706 6.89663L29.0093 6.21235L28.4291 5.64309L27.7288 6.3569ZM25.5874 9.69697L26.3818 10.3043L26.4069 10.2715L26.4292 10.2367L25.5874 9.69697ZM25.5874 10.3973L26.4282 9.85603L26.4063 9.82208L26.3818 9.79L25.5874 10.3973ZM27.015 13.7374L27.9948 13.5376L27.9922 13.5246L27.9892 13.5117L27.015 13.7374ZM27.5092 14.2222L27.2709 15.1934L27.2835 15.1965L27.2961 15.1993L27.5092 14.2222ZM31.4626 15.0842L32.4621 15.0533L32.438 14.2734L31.6756 14.1071L31.4626 15.0842ZM31.5175 16.862L31.7305 17.839L32.5427 17.6619L32.517 16.8311L31.5175 16.862ZM14.8667 13.4007C14.2033 12.7497 13.1412 12.7497 12.4777 13.4007L13.8784 14.8283C13.764 14.9405 13.5804 14.9405 13.4661 14.8283L14.8667 13.4007ZM12.4777 13.4007L11.105 14.7475L12.5057 16.1751L13.8784 14.8283L12.4777 13.4007ZM11.105 14.7475C10.4309 15.4088 10.4309 16.4834 11.105 17.1448L12.5057 15.7172C12.6307 15.8398 12.6307 16.0524 12.5057 16.1751L11.105 14.7475ZM11.105 17.1448L12.4777 18.4916L13.8784 17.064L12.5057 15.7172L11.105 17.1448ZM12.4777 18.4916C13.1412 19.1425 14.2033 19.1425 14.8667 18.4916L13.4661 17.064C13.5804 16.9517 13.764 16.9517 13.8784 17.064L12.4777 18.4916ZM14.8667 18.4916C15.5408 17.8302 15.5408 16.7556 14.8667 16.0943L13.4661 17.5219C13.341 17.3992 13.341 17.1866 13.4661 17.064L14.8667 18.4916ZM14.8667 16.0943L13.9882 15.2323L12.5875 16.6599L13.4661 17.5219L14.8667 16.0943ZM13.9882 16.6599L14.8667 15.798L13.4661 14.3704L12.5875 15.2323L13.9882 16.6599ZM14.8667 15.798C15.5408 15.1366 15.5408 14.062 14.8667 13.4007L13.4661 14.8283C13.341 14.7056 13.341 14.493 13.4661 14.3704L14.8667 15.798ZM18.0784 13.4007C17.4043 14.062 17.4043 15.1366 18.0784 15.798L19.479 14.3704C19.604 14.493 19.604 14.7056 19.479 14.8283L18.0784 13.4007ZM18.0784 15.798L18.9569 16.6599L20.3576 15.2323L19.479 14.3704L18.0784 15.798ZM18.9569 15.2323L18.0784 16.0943L19.479 17.5219L20.3576 16.6599L18.9569 15.2323ZM18.0784 16.0943C17.4043 16.7556 17.4043 17.8302 18.0784 18.4916L19.479 17.064C19.604 17.1866 19.604 17.3992 19.479 17.5219L18.0784 16.0943ZM18.0784 18.4916C18.7418 19.1425 19.8039 19.1425 20.4674 18.4916L19.0667 17.064C19.1811 16.9517 19.3647 16.9517 19.479 17.064L18.0784 18.4916ZM20.4674 18.4916L21.8401 17.1448L20.4394 15.7172L19.0667 17.064L20.4674 18.4916ZM21.8401 17.1448C22.5142 16.4834 22.5142 15.4088 21.8401 14.7475L20.4394 16.1751C20.3144 16.0524 20.3144 15.8398 20.4394 15.7172L21.8401 17.1448ZM21.8401 14.7475L20.4674 13.4007L19.0667 14.8283L20.4394 16.1751L21.8401 14.7475ZM20.4674 13.4007C19.8039 12.7497 18.7418 12.7497 18.0784 13.4007L19.479 14.8283C19.3647 14.9405 19.1811 14.9405 19.0667 14.8283L20.4674 13.4007ZM17.6759 12.3435C16.8911 12.1235 15.8651 12.4354 15.5673 13.4578L17.4876 14.017C17.4759 14.057 17.4525 14.1047 17.4135 14.1497C17.3752 14.1941 17.3308 14.2256 17.2886 14.2454C17.2059 14.2842 17.1487 14.2728 17.1361 14.2693L17.6759 12.3435ZM15.5846 13.4042L14.157 17.4446L16.0427 18.1109L17.4703 14.0705L15.5846 13.4042ZM14.1397 17.4982C13.9035 18.3095 14.2543 19.3181 15.2692 19.6026L15.809 17.6768C15.89 17.6996 15.9826 17.7681 16.033 17.8716C16.0777 17.9633 16.0669 18.0334 16.06 18.0574L14.1397 17.4982ZM15.2692 19.6026C16.054 19.8226 17.08 19.5107 17.3778 18.4883L15.4575 17.9292C15.4692 17.8891 15.4926 17.8414 15.5316 17.7964C15.5699 17.752 15.6143 17.7206 15.6565 17.7008C15.7392 17.662 15.7964 17.6733 15.809 17.6768L15.2692 19.6026ZM17.3645 18.5304L18.7372 14.49L16.8435 13.8467L15.4708 17.8871L17.3645 18.5304ZM18.7067 14.5686C18.8884 14.1529 18.913 13.6706 18.7183 13.2312C18.5211 12.7861 18.1363 12.4726 17.6759 12.3435L17.1361 14.2693C17.06 14.248 16.9498 14.1769 16.8898 14.0415C16.8324 13.9119 16.8571 13.8067 16.874 13.7681L18.7067 14.5686ZM32.6009 12.8663L28.4827 12.0044L28.073 13.962L32.1911 14.8239L32.6009 12.8663ZM29.2437 12.7241C28.9443 11.6077 28.4677 10.4985 27.8726 9.50599L26.1573 10.5344C26.6604 11.3735 27.0624 12.3115 27.312 13.2422L29.2437 12.7241ZM27.8584 10.5575L30.0547 7.10966L28.3679 6.03512L26.1716 9.48293L27.8584 10.5575ZM30.0644 7.09411C30.5077 6.36927 30.288 5.58319 29.8765 5.0785L28.3265 6.34238C28.3405 6.35954 28.3187 6.34115 28.3101 6.27908C28.3056 6.24728 28.3055 6.20785 28.3142 6.16444C28.3231 6.12059 28.3392 6.08175 28.3582 6.05067L30.0644 7.09411ZM29.8018 4.99663L27.7153 2.94949L26.3146 4.37711L28.4012 6.42425L29.8018 4.99663ZM27.7153 2.94949C27.1794 2.42364 26.3011 2.29821 25.6291 2.69379L26.6437 4.41732C26.565 4.46366 26.5011 4.46398 26.4694 4.45992C26.439 4.45604 26.3796 4.44087 26.3146 4.37711L27.7153 2.94949ZM25.6196 2.69949L22.0505 4.85437L23.0843 6.5665L26.6533 4.41162L25.6196 2.69949ZM23.0672 4.84433C22.0559 4.26063 20.9249 3.79307 19.7307 3.50017L19.2543 5.44259C20.2565 5.68841 21.212 6.08281 22.0675 6.57655L23.0672 4.84433ZM20.4713 4.2664L19.6477 0.333735L17.6901 0.743706L18.5137 4.67637L20.4713 4.2664ZM19.6548 0.371247C19.5119 -0.469566 18.7888 -1 18.01 -1V1C17.9552 1 17.8822 0.981127 17.8139 0.925978C17.7431 0.868776 17.6968 0.78734 17.683 0.706194L19.6548 0.371247ZM18.01 -1H14.99V1H18.01V-1ZM14.99 -1C14.2112 -1 13.4881 -0.469566 13.3452 0.371247L15.317 0.706194C15.3032 0.78734 15.2569 0.868776 15.1861 0.925978C15.1178 0.981127 15.0448 1 14.99 1V-1ZM13.3545 0.323509L12.476 4.31004L14.4291 4.74046L15.3077 0.753932L13.3545 0.323509ZM13.2144 3.55404C12.0081 3.84992 10.9376 4.32024 9.89911 4.88627L10.8563 6.64235C11.7945 6.13094 12.7007 5.73931 13.6908 5.49646L13.2144 3.55404ZM10.8946 4.90824L7.32552 2.75336L6.29179 4.46549L9.86084 6.62038L10.8946 4.90824ZM7.31595 2.74766C6.59909 2.32566 5.82276 2.53019 5.31269 2.93054L6.54754 4.5038C6.5662 4.48916 6.55359 4.50615 6.50199 4.51305C6.47553 4.51659 6.44175 4.51685 6.40377 4.50949C6.36532 4.50203 6.33028 4.48823 6.30135 4.4712L7.31595 2.74766ZM5.22978 3.00336L3.14326 5.0505L4.54393 6.47812L6.63046 4.43098L5.22978 3.00336ZM3.14326 5.0505C2.60246 5.58108 2.46496 6.46822 2.88066 7.14798L4.5869 6.10454C4.6386 6.1891 4.64158 6.26364 4.63583 6.30687C4.63026 6.34879 4.60987 6.41343 4.54393 6.47812L3.14326 5.0505ZM2.89037 7.16353L5.08671 10.6113L6.77353 9.5368L4.57719 6.08899L2.89037 7.16353ZM5.07245 9.55986C4.47736 10.5524 4.00081 11.6616 3.70136 12.778L5.63308 13.2961C5.88272 12.3654 6.2847 11.4274 6.78778 10.5883L5.07245 9.55986ZM4.46235 12.0582L0.344218 12.9202L0.753952 14.8778L4.87209 14.0158L4.46235 12.0582ZM0.387708 12.9121C-0.435751 13.0467 -1 13.7429 -1 14.5455H1C1 14.6135 0.975509 14.6943 0.91694 14.7641C0.857135 14.8354 0.778795 14.8747 0.710462 14.8859L0.387708 12.9121ZM-1 14.5455V17.4545H1V14.5455H-1ZM-1 17.4545C-1 18.2571 -0.435748 18.9533 0.387708 19.0879L0.710462 17.1141C0.778793 17.1253 0.857133 17.1646 0.916939 17.2359C0.975509 17.3057 1 17.3865 1 17.4545H-1ZM0.344218 19.0798L4.46235 19.9418L4.87209 17.9842L0.753952 17.1222L0.344218 19.0798ZM3.70136 19.222C4.00081 20.3384 4.47736 21.4476 5.07245 22.4401L6.78778 21.4117C6.2847 20.5726 5.88272 19.6346 5.63308 18.7039L3.70136 19.222ZM5.0928 21.3792L2.84156 24.827L4.51618 25.9205L6.76743 22.4727L5.0928 21.3792ZM2.82575 24.852C2.38248 25.5769 2.60215 26.3629 3.01367 26.8676L4.5637 25.6038C4.54971 25.5866 4.57149 25.605 4.58012 25.6671C4.58454 25.6988 4.58469 25.7383 4.57595 25.7817C4.56711 25.8255 4.55099 25.8644 4.53199 25.8955L2.82575 24.852ZM3.08835 26.9495L5.17487 28.9966L6.57555 27.569L4.48902 25.5219L3.08835 26.9495ZM5.17487 28.9966C5.71083 29.5225 6.58906 29.6479 7.26105 29.2523L6.24644 27.5288C6.32515 27.4825 6.38911 27.4821 6.42082 27.4862C6.45116 27.4901 6.51056 27.5053 6.57555 27.569L5.17487 28.9966ZM7.27061 29.2466L10.8397 27.0918L9.80593 25.3796L6.23688 27.5345L7.27061 29.2466ZM9.82294 27.1018C10.8343 27.6855 11.9653 28.1531 13.1595 28.446L13.6359 26.5035C12.6337 26.2577 11.6782 25.8633 10.8227 25.3696L9.82294 27.1018ZM12.4228 27.6975L13.1366 30.822L15.0864 30.3766L14.3726 27.252L12.4228 27.6975ZM14.1115 29.5993H3.56905V31.5993H14.1115V29.5993ZM3.56905 29.5993C2.65046 29.5993 1.85524 30.3524 1.85524 31.2997H3.85524C3.85524 31.4069 3.80923 31.4818 3.76835 31.5219C3.7274 31.5621 3.65986 31.5993 3.56905 31.5993V29.5993ZM1.85524 31.2997C1.85524 32.2469 2.65046 33 3.56905 33V31C3.65986 31 3.7274 31.0373 3.76835 31.0774C3.80923 31.1175 3.85524 31.1924 3.85524 31.2997H1.85524ZM3.56905 33C3.57109 33 3.57321 33 3.57542 33C3.57763 33 3.57992 33 3.5823 33C3.58468 33 3.58714 33 3.58969 33C3.59224 33 3.59487 33 3.59758 33C3.6003 33 3.6031 33 3.60598 33C3.60887 33 3.61184 33 3.61489 33C3.61794 33 3.62107 33 3.62429 33C3.62751 33 3.63081 33 3.63419 33C3.63758 33 3.64104 33 3.64459 33C3.64814 33 3.65177 33 3.65549 33C3.6592 33 3.66299 33 3.66687 33C3.67075 33 3.67471 33 3.67875 33C3.68279 33 3.68691 33 3.69112 33C3.69532 33 3.6996 33 3.70397 33C3.70833 33 3.71278 33 3.71731 33C3.72183 33 3.72644 33 3.73113 33C3.73582 33 3.74058 33 3.74543 33C3.75028 33 3.7552 33 3.76021 33C3.76522 33 3.7703 33 3.77547 33C3.78063 33 3.78588 33 3.7912 33C3.79652 33 3.80192 33 3.8074 33C3.81288 33 3.81844 33 3.82408 33C3.82972 33 3.83543 33 3.84122 33C3.84702 33 3.85289 33 3.85884 33C3.86478 33 3.87081 33 3.87691 33C3.88302 33 3.8892 33 3.89545 33C3.90171 33 3.90804 33 3.91445 33C3.92086 33 3.92735 33 3.93391 33C3.94047 33 3.94711 33 3.95383 33C3.96054 33 3.96733 33 3.9742 33C3.98106 33 3.988 33 3.99502 33C4.00204 33 4.00913 33 4.0163 33C4.02346 33 4.0307 33 4.03802 33C4.04533 33 4.05273 33 4.06019 33C4.06765 33 4.07519 33 4.0828 33C4.09042 33 4.0981 33 4.10586 33C4.11362 33 4.12146 33 4.12936 33C4.13727 33 4.14525 33 4.1533 33C4.16135 33 4.16948 33 4.17767 33C4.18587 33 4.19414 33 4.20248 33C4.21083 33 4.21924 33 4.22773 33C4.23621 33 4.24477 33 4.2534 33C4.26203 33 4.27073 33 4.2795 33C4.28828 33 4.29712 33 4.30603 33C4.31495 33 4.32393 33 4.33299 33C4.34204 33 4.35117 33 4.36037 33C4.36956 33 4.37883 33 4.38816 33C4.3975 33 4.40691 33 4.41638 33C4.42586 33 4.4354 33 4.44502 33C4.45463 33 4.46431 33 4.47407 33C4.48382 33 4.49364 33 4.50353 33C4.51342 33 4.52338 33 4.5334 33C4.54343 33 4.55352 33 4.56368 33C4.57385 33 4.58407 33 4.59437 33C4.60467 33 4.61503 33 4.62547 33C4.6359 33 4.6464 33 4.65696 33C4.66753 33 4.67816 33 4.68886 33C4.69956 33 4.71033 33 4.72116 33C4.73199 33 4.74289 33 4.75385 33C4.76482 33 4.77585 33 4.78694 33C4.79804 33 4.8092 33 4.82043 33C4.83165 33 4.84294 33 4.8543 33C4.86565 33 4.87708 33 4.88856 33C4.90005 33 4.9116 33 4.92321 33C4.93482 33 4.9465 33 4.95825 33C4.96999 33 4.98179 33 4.99366 33C5.00553 33 5.01747 33 5.02946 33C5.04146 33 5.05352 33 5.06564 33C5.07776 33 5.08995 33 5.10219 33C5.11444 33 5.12675 33 5.13912 33C5.1515 33 5.16393 33 5.17643 33C5.18892 33 5.20148 33 5.2141 33C5.22672 33 5.2394 33 5.25214 33C5.26489 33 5.27769 33 5.29055 33C5.30342 33 5.31634 33 5.32933 33C5.34231 33 5.35536 33 5.36847 33C5.38157 33 5.39474 33 5.40797 33C5.42119 33 5.43448 33 5.44782 33C5.46117 33 5.47458 33 5.48804 33C5.5015 33 5.51503 33 5.52861 33C5.54219 33 5.55583 33 5.56953 33C5.58323 33 5.59699 33 5.61081 33C5.62463 33 5.6385 33 5.65243 33C5.66637 33 5.68036 33 5.6944 33C5.70845 33 5.72256 33 5.73672 33C5.75088 33 5.7651 33 5.77938 33C5.79366 33 5.80799 33 5.82238 33C5.83677 33 5.85122 33 5.86572 33C5.88022 33 5.89478 33 5.9094 33C5.92401 33 5.93868 33 5.95341 33C5.96813 33 5.98292 33 5.99775 33C6.01259 33 6.02748 33 6.04243 33C6.05738 33 6.07238 33 6.08743 33C6.10249 33 6.1176 33 6.13277 33C6.14793 33 6.16315 33 6.17842 33C6.1937 33 6.20902 33 6.22441 33C6.23979 33 6.25522 33 6.27071 33C6.28619 33 6.30174 33 6.31733 33C6.33292 33 6.34857 33 6.36427 33C6.37997 33 6.39572 33 6.41152 33C6.42732 33 6.44318 33 6.45909 33C6.475 33 6.49095 33 6.50697 33C6.52298 33 6.53904 33 6.55515 33C6.57127 33 6.58743 33 6.60365 33C6.61986 33 6.63613 33 6.65245 33C6.66876 33 6.68513 33 6.70155 33C6.71797 33 6.73444 33 6.75095 33C6.76747 33 6.78404 33 6.80066 33C6.81727 33 6.83394 33 6.85066 33C6.86737 33 6.88414 33 6.90095 33C6.91777 33 6.93463 33 6.95154 33C6.96845 33 6.98541 33 7.00242 33C7.01943 33 7.03649 33 7.05359 33C7.0707 33 7.08785 33 7.10505 33C7.12225 33 7.1395 33 7.15679 33C7.17409 33 7.19143 33 7.20882 33C7.2262 33 7.24364 33 7.26112 33C7.2786 33 7.29613 33 7.31371 33C7.33128 33 7.3489 33 7.36657 33C7.38424 33 7.40195 33 7.41971 33C7.43747 33 7.45527 33 7.47312 33C7.49097 33 7.50887 33 7.5268 33C7.54474 33 7.56273 33 7.58076 33C7.59879 33 7.61686 33 7.63498 33C7.65309 33 7.67126 33 7.68946 33C7.70767 33 7.72592 33 7.74421 33C7.7625 33 7.78084 33 7.79922 33C7.8176 33 7.83602 33 7.85449 33C7.87295 33 7.89146 33 7.91001 33C7.92857 33 7.94716 33 7.9658 33C7.98443 33 8.00311 33 8.02183 33C8.04055 33 8.05931 33 8.07812 33C8.09692 33 8.11576 33 8.13465 33C8.15354 33 8.17247 33 8.19143 33C8.2104 33 8.22941 33 8.24846 33C8.26751 33 8.2866 33 8.30573 33C8.32486 33 8.34404 33 8.36325 33C8.38246 33 8.40171 33 8.421 33C8.44029 33 8.45962 33 8.47899 33C8.49836 33 8.51777 33 8.53721 33C8.55666 33 8.57615 33 8.59567 33C8.6152 33 8.63476 33 8.65436 33C8.67396 33 8.6936 33 8.71328 33C8.73296 33 8.75267 33 8.77243 33C8.79218 33 8.81197 33 8.8318 33C8.85163 33 8.87149 33 8.89139 33C8.9113 33 8.93124 33 8.95121 33C8.97119 33 8.9912 33 9.01125 33C9.03129 33 9.05138 33 9.0715 33C9.09162 33 9.11178 33 9.13197 33C9.15216 33 9.17239 33 9.19265 33C9.21291 33 9.23321 33 9.25354 33C9.27388 33 9.29425 33 9.31465 33C9.33505 33 9.35549 33 9.37596 33C9.39643 33 9.41693 33 9.43747 33C9.45801 33 9.47859 33 9.49919 33C9.5198 33 9.54044 33 9.56112 33C9.58179 33 9.6025 33 9.62324 33C9.64398 33 9.66475 33 9.68555 33C9.70636 33 9.7272 33 9.74807 33C9.76894 33 9.78984 33 9.81077 33C9.83171 33 9.85267 33 9.87367 33C9.89467 33 9.9157 33 9.93676 33C9.95782 33 9.97891 33 10 33C10.0212 33 10.0423 33 10.0635 33C10.0847 33 10.1059 33 10.1271 33C10.1484 33 10.1697 33 10.191 33C10.2123 33 10.2336 33 10.255 33C10.2763 33 10.2977 33 10.3192 33C10.3406 33 10.362 33 10.3835 33C10.405 33 10.4265 33 10.448 33C10.4696 33 10.4911 33 10.5127 33C10.5343 33 10.556 33 10.5776 33C10.5993 33 10.6209 33 10.6427 33C10.6644 33 10.6861 33 10.7079 33C10.7296 33 10.7514 33 10.7732 33C10.795 33 10.8169 33 10.8388 33C10.8606 33 10.8825 33 10.9045 33C10.9264 33 10.9483 33 10.9703 33C10.9923 33 11.0143 33 11.0363 33C11.0583 33 11.0804 33 11.1025 33C11.1245 33 11.1466 33 11.1688 33C11.1909 33 11.213 33 11.2352 33C11.2574 33 11.2796 33 11.3018 33C11.3241 33 11.3463 33 11.3686 33C11.3909 33 11.4132 33 11.4355 33C11.4578 33 11.4801 33 11.5025 33C11.5249 33 11.5473 33 11.5697 33C11.5921 33 11.6145 33 11.637 33C11.6595 33 11.6819 33 11.7045 33C11.727 33 11.7495 33 11.772 33C11.7946 33 11.8172 33 11.8398 33C11.8623 33 11.885 33 11.9076 33C11.9302 33 11.9529 33 11.9756 33C11.9982 33 12.0209 33 12.0437 33C12.0664 33 12.0891 33 12.1119 33C12.1346 33 12.1574 33 12.1802 33C12.203 33 12.2258 33 12.2487 33C12.2715 33 12.2944 33 12.3173 33C12.3401 33 12.363 33 12.386 33C12.4089 33 12.4318 33 12.4548 33C12.4777 33 12.5007 33 12.5237 33C12.5467 33 12.5697 33 12.5927 33C12.6157 33 12.6388 33 12.6619 33C12.6849 33 12.708 33 12.7311 33C12.7542 33 12.7773 33 12.8004 33C12.8236 33 12.8467 33 12.8699 33C12.8931 33 12.9162 33 12.9394 33C12.9626 33 12.9859 33 13.0091 33C13.0323 33 13.0556 33 13.0788 33C13.1021 33 13.1254 33 13.1487 33C13.172 33 13.1953 33 13.2186 33C13.2419 33 13.2653 33 13.2886 33C13.312 33 13.3353 33 13.3587 33C13.3821 33 13.4055 33 13.4289 33C13.4523 33 13.4757 33 13.4992 33C13.5226 33 13.5461 33 13.5695 33C13.593 33 13.6165 33 13.64 33C13.6635 33 13.687 33 13.7105 33C13.734 33 13.7575 33 13.7811 33C13.8046 33 13.8282 33 13.8517 33C13.8753 33 13.8989 33 13.9225 33C13.9461 33 13.9697 33 13.9933 33C14.0169 33 14.0405 33 14.0641 33C14.0878 33 14.1114 33 14.1351 33C14.1587 33 14.1824 33 14.2061 33C14.2298 33 14.2535 33 14.2771 33C14.3008 33 14.3246 33 14.3483 33C14.372 33 14.3957 33 14.4195 33C14.4432 33 14.4669 33 14.4907 33C14.5144 33 14.5382 33 14.562 33C14.5857 33 14.6095 33 14.6333 33C14.6571 33 14.6809 33 14.7047 33C14.7285 33 14.7523 33 14.7762 33C14.8 33 14.8238 33 14.8476 33C14.8715 33 14.8953 33 14.9192 33C14.943 33 14.9669 33 14.9907 33C15.0146 33 15.0385 33 15.0623 33C15.0862 33 15.1101 33 15.134 33C15.1579 33 15.1818 33 15.2057 33C15.2296 33 15.2535 33 15.2774 33C15.3013 33 15.3252 33 15.3491 33C15.3731 33 15.397 33 15.4209 33C15.4449 33 15.4688 33 15.4927 33C15.5167 33 15.5406 33 15.5646 33C15.5885 33 15.6125 33 15.6364 33C15.6604 33 15.6843 33 15.7083 33C15.7323 33 15.7562 33 15.7802 33C15.8042 33 15.8281 33 15.8521 33C15.8761 33 15.9001 33 15.924 33C15.948 33 15.972 33 15.996 33C16.02 33 16.044 33 16.068 33C16.0919 33 16.1159 33 16.1399 33C16.1639 33 16.1879 33 16.2119 33C16.2359 33 16.2599 33 16.2839 33C16.3079 33 16.3319 33 16.3559 33C16.3799 33 16.4039 33 16.4279 33C16.4518 33 16.4758 33 16.4998 33C16.5238 33 16.5478 33 16.5718 33C16.5958 33 16.6198 33 16.6438 33C16.6678 33 16.6918 33 16.7158 33C16.7398 33 16.7638 33 16.7878 33C16.8117 33 16.8357 33 16.8597 33C16.8837 33 16.9077 33 16.9317 33C16.9556 33 16.9796 33 17.0036 33C17.0276 33 17.0515 33 17.0755 33C17.0995 33 17.1234 33 17.1474 33C17.1714 33 17.1953 33 17.2193 33C17.2432 33 17.2672 33 17.2911 33C17.3151 33 17.339 33 17.363 33C17.3869 33 17.4108 33 17.4348 33C17.4587 33 17.4826 33 17.5065 33C17.5305 33 17.5544 33 17.5783 33C17.6022 33 17.6261 33 17.65 33C17.6739 33 17.6978 33 17.7217 33C17.7456 33 17.7694 33 17.7933 33C17.8172 33 17.8411 33 17.8649 33C17.8888 33 17.9126 33 17.9365 33C17.9603 33 17.9842 33 18.008 33C18.0319 33 18.0557 33 18.0795 33C18.1033 33 18.1271 33 18.1509 33C18.1747 33 18.1985 33 18.2223 33C18.2461 33 18.2699 33 18.2937 33C18.3174 33 18.3412 33 18.3649 33C18.3887 33 18.4124 33 18.4362 33C18.4599 33 18.4836 33 18.5073 33C18.5311 33 18.5548 33 18.5785 33C18.6022 33 18.6258 33 18.6495 33C18.6732 33 18.6969 33 18.7205 33C18.7442 33 18.7678 33 18.7914 33C18.8151 33 18.8387 33 18.8623 33C18.8859 33 18.9095 33 18.9331 33C18.9567 33 18.9803 33 19.0038 33C19.0274 33 19.0509 33 19.0745 33C19.098 33 19.1215 33 19.1451 33C19.1686 33 19.1921 33 19.2156 33C19.2391 33 19.2625 33 19.286 33C19.3095 33 19.3329 33 19.3563 33C19.3798 33 19.4032 33 19.4266 33C19.45 33 19.4734 33 19.4968 33C19.5202 33 19.5435 33 19.5669 33C19.5902 33 19.6136 33 19.6369 33C19.6602 33 19.6835 33 19.7068 33C19.7301 33 19.7534 33 19.7766 33C19.7999 33 19.8231 33 19.8464 33C19.8696 33 19.8928 33 19.916 33C19.9392 33 19.9624 33 19.9855 33C20.0087 33 20.0318 33 20.055 33C20.0781 33 20.1012 33 20.1243 33C20.1474 33 20.1705 33 20.1935 33C20.2166 33 20.2396 33 20.2627 33C20.2857 33 20.3087 33 20.3317 33C20.3547 33 20.3776 33 20.4006 33C20.4235 33 20.4465 33 20.4694 33C20.4923 33 20.5152 33 20.5381 33C20.5609 33 20.5838 33 20.6066 33C20.6295 33 20.6523 33 20.6751 33C20.6979 33 20.7207 33 20.7434 33C20.7662 33 20.7889 33 20.8116 33C20.8343 33 20.857 33 20.8797 33C20.9024 33 20.925 33 20.9477 33C20.9703 33 20.9929 33 21.0155 33C21.0381 33 21.0606 33 21.0832 33C21.1057 33 21.1283 33 21.1508 33C21.1733 33 21.1957 33 21.2182 33C21.2406 33 21.2631 33 21.2855 33C21.3079 33 21.3303 33 21.3526 33C21.375 33 21.3974 33 21.4197 33C21.442 33 21.4643 33 21.4865 33C21.5088 33 21.5311 33 21.5533 33C21.5755 33 21.5977 33 21.6199 33C21.642 33 21.6642 33 21.6863 33C21.7084 33 21.7305 33 21.7526 33C21.7747 33 21.7967 33 21.8187 33C21.8408 33 21.8628 33 21.8847 33C21.9067 33 21.9286 33 21.9506 33C21.9725 33 21.9944 33 22.0162 33C22.0381 33 22.0599 33 22.0818 33C22.1036 33 22.1253 33 22.1471 33C22.1689 33 22.1906 33 22.2123 33C22.234 33 22.2557 33 22.2773 33C22.299 33 22.3206 33 22.3422 33C22.3638 33 22.3853 33 22.4068 33C22.4284 33 22.4499 33 22.4714 33C22.4928 33 22.5143 33 22.5357 33C22.5571 33 22.5785 33 22.5999 33C22.6212 33 22.6425 33 22.6638 33C22.6851 33 22.7064 33 22.7277 33C22.7489 33 22.7701 33 22.7913 33C22.8125 33 22.8336 33 22.8547 33C22.8758 33 22.8969 33 22.918 33C22.939 33 22.96 33 22.981 33C23.002 33 23.023 33 23.0439 33C23.0648 33 23.0857 33 23.1066 33C23.1275 33 23.1483 33 23.1691 33C23.1899 33 23.2107 33 23.2314 33C23.2521 33 23.2728 33 23.2935 33C23.3142 33 23.3348 33 23.3554 33C23.376 33 23.3966 33 23.4171 33C23.4376 33 23.4581 33 23.4786 33C23.499 33 23.5195 33 23.5399 33C23.5603 33 23.5806 33 23.6009 33C23.6213 33 23.6416 33 23.6618 33C23.6821 33 23.7023 33 23.7225 33C23.7427 33 23.7628 33 23.7829 33C23.803 33 23.8231 33 23.8431 33C23.8632 33 23.8832 33 23.9032 33C23.9231 33 23.9431 33 23.963 33C23.9828 33 24.0027 33 24.0225 33C24.0423 33 24.0621 33 24.0819 33C24.1016 33 24.1213 33 24.141 33C24.1607 33 24.1803 33 24.1999 33C24.2195 33 24.239 33 24.2585 33C24.2781 33 24.2975 33 24.317 33C24.3364 33 24.3558 33 24.3752 33C24.3945 33 24.4139 33 24.4331 33C24.4524 33 24.4717 33 24.4909 33C24.5101 33 24.5292 33 24.5484 33C24.5675 33 24.5866 33 24.6056 33C24.6246 33 24.6436 33 24.6626 33C24.6816 33 24.7005 33 24.7194 33C24.7382 33 24.7571 33 24.7759 33C24.7947 33 24.8134 33 24.8321 33C24.8508 33 24.8695 33 24.8881 33C24.9068 33 24.9253 33 24.9439 33C24.9624 33 24.9809 33 24.9994 33C25.0178 33 25.0363 33 25.0546 33C25.073 33 25.0913 33 25.1096 33C25.1279 33 25.1461 33 25.1643 33C25.1825 33 25.2007 33 25.2188 33C25.2369 33 25.2549 33 25.273 33C25.291 33 25.309 33 25.3269 33C25.3448 33 25.3627 33 25.3805 33C25.3984 33 25.4162 33 25.4339 33C25.4517 33 25.4694 33 25.487 33C25.5047 33 25.5223 33 25.5399 33C25.5574 33 25.5749 33 25.5924 33C25.6099 33 25.6273 33 25.6447 33C25.6621 33 25.6794 33 25.6967 33C25.714 33 25.7312 33 25.7484 33C25.7656 33 25.7827 33 25.7998 33C25.8169 33 25.834 33 25.851 33C25.868 33 25.8849 33 25.9018 33C25.9187 33 25.9356 33 25.9524 33C25.9692 33 25.9859 33 26.0026 33C26.0193 33 26.036 33 26.0526 33C26.0692 33 26.0858 33 26.1023 33C26.1188 33 26.1352 33 26.1516 33C26.168 33 26.1844 33 26.2007 33C26.217 33 26.2333 33 26.2495 33C26.2657 33 26.2818 33 26.2979 33C26.314 33 26.3301 33 26.3461 33C26.3621 33 26.378 33 26.3939 33C26.4098 33 26.4257 33 26.4415 33C26.4573 33 26.473 33 26.4887 33C26.5044 33 26.52 33 26.5356 33C26.5512 33 26.5667 33 26.5822 33C26.5976 33 26.6131 33 26.6284 33C26.6438 33 26.6591 33 26.6744 33C26.6896 33 26.7049 33 26.72 33C26.7352 33 26.7503 33 26.7653 33C26.7803 33 26.7953 33 26.8103 33C26.8252 33 26.8401 33 26.8549 33C26.8697 33 26.8845 33 26.8992 33C26.9139 33 26.9286 33 26.9432 33C26.9578 33 26.9723 33 26.9868 33C27.0013 33 27.0158 33 27.0301 33C27.0445 33 27.0588 33 27.0731 33C27.0874 33 27.1016 33 27.1157 33C27.1299 33 27.144 33 27.158 33C27.172 33 27.186 33 27.1999 33C27.2139 33 27.2277 33 27.2415 33C27.2553 33 27.2691 33 27.2828 33C27.2964 33 27.3101 33 27.3236 33C27.3372 33 27.3507 33 27.3642 33C27.3776 33 27.391 33 27.4043 33C27.4177 33 27.4309 33 27.4442 33C27.4574 33 27.4705 33 27.4836 33C27.4967 33 27.5097 33 27.5227 33C27.5357 33 27.5486 33 27.5615 33C27.5743 33 27.5871 33 27.5998 33C27.6126 33 27.6252 33 27.6378 33C27.6504 33 27.663 33 27.6755 33C27.6879 33 27.7004 33 27.7127 33C27.7251 33 27.7374 33 27.7496 33C27.7618 33 27.774 33 27.7861 33C27.7982 33 27.8103 33 27.8223 33C27.8342 33 27.8462 33 27.858 33C27.8699 33 27.8817 33 27.8934 33C27.9051 33 27.9168 33 27.9284 33C27.94 33 27.9515 33 27.963 33C27.9745 33 27.9859 33 27.9972 33C28.0085 33 28.0198 33 28.031 33C28.0422 33 28.0534 33 28.0645 33C28.0756 33 28.0866 33 28.0975 33C28.1085 33 28.1194 33 28.1302 33C28.141 33 28.1517 33 28.1624 33C28.1731 33 28.1837 33 28.1943 33C28.2048 33 28.2153 33 28.2257 33C28.2362 33 28.2465 33 28.2568 33C28.2671 33 28.2773 33 28.2874 33C28.2976 33 28.3077 33 28.3177 33C28.3277 33 28.3376 33 28.3475 33C28.3574 33 28.3672 33 28.3769 33C28.3866 33 28.3963 33 28.4059 33C28.4155 33 28.425 33 28.4345 33C28.444 33 28.4534 33 28.4627 33C28.472 33 28.4812 33 28.4904 33C28.4996 33 28.5087 33 28.5178 33C28.5268 33 28.5358 33 28.5447 33C28.5536 33 28.5624 33 28.5711 33C28.5799 33 28.5886 33 28.5972 33C28.6058 33 28.6144 33 28.6228 33C28.6313 33 28.6397 33 28.648 33C28.6563 33 28.6646 33 28.6728 33C28.681 33 28.6891 33 28.6971 33C28.7051 33 28.7131 33 28.721 33C28.7289 33 28.7367 33 28.7444 33C28.7522 33 28.7599 33 28.7675 33C28.7751 33 28.7826 33 28.79 33C28.7975 33 28.8048 33 28.8121 33C28.8194 33 28.8267 33 28.8338 33C28.841 33 28.848 33 28.855 33C28.862 33 28.869 33 28.8758 33C28.8827 33 28.8894 33 28.8961 33C28.9028 33 28.9095 33 28.916 33C28.9225 33 28.929 33 28.9354 33C28.9418 33 28.9481 33 28.9544 33C28.9606 33 28.9668 33 28.9728 33C28.9789 33 28.9849 33 28.9909 33C28.9968 33 29.0027 33 29.0084 33C29.0142 33 29.0199 33 29.0255 33C29.0311 33 29.0367 33 29.0422 33C29.0476 33 29.053 33 29.0583 33C29.0636 33 29.0688 33 29.074 33C29.0791 33 29.0842 33 29.0892 33C29.0942 33 29.0991 33 29.1039 33C29.1087 33 29.1135 33 29.1182 33C29.1228 33 29.1274 33 29.1319 33C29.1364 33 29.1409 33 29.1452 33C29.1496 33 29.1538 33 29.158 33C29.1622 33 29.1663 33 29.1703 33C29.1743 33 29.1783 33 29.1821 33C29.186 33 29.1898 33 29.1935 33C29.1972 33 29.2008 33 29.2043 33C29.2079 33 29.2113 33 29.2147 33C29.218 33 29.2213 33 29.2245 33C29.2277 33 29.2308 33 29.2339 33C29.2369 33 29.2398 33 29.2427 33C29.2456 33 29.2484 33 29.2511 33C29.2537 33 29.2564 33 29.2589 33C29.2614 33 29.2639 33 29.2662 33V31C29.2639 31 29.2614 31 29.2589 31C29.2564 31 29.2537 31 29.2511 31C29.2484 31 29.2456 31 29.2427 31C29.2398 31 29.2369 31 29.2339 31C29.2308 31 29.2277 31 29.2245 31C29.2213 31 29.218 31 29.2147 31C29.2113 31 29.2079 31 29.2043 31C29.2008 31 29.1972 31 29.1935 31C29.1898 31 29.186 31 29.1821 31C29.1783 31 29.1743 31 29.1703 31C29.1663 31 29.1622 31 29.158 31C29.1538 31 29.1496 31 29.1452 31C29.1409 31 29.1364 31 29.1319 31C29.1274 31 29.1228 31 29.1182 31C29.1135 31 29.1087 31 29.1039 31C29.0991 31 29.0942 31 29.0892 31C29.0842 31 29.0791 31 29.074 31C29.0688 31 29.0636 31 29.0583 31C29.053 31 29.0476 31 29.0422 31C29.0367 31 29.0311 31 29.0255 31C29.0199 31 29.0142 31 29.0084 31C29.0027 31 28.9968 31 28.9909 31C28.9849 31 28.9789 31 28.9728 31C28.9668 31 28.9606 31 28.9544 31C28.9481 31 28.9418 31 28.9354 31C28.929 31 28.9225 31 28.916 31C28.9095 31 28.9028 31 28.8961 31C28.8894 31 28.8827 31 28.8758 31C28.869 31 28.862 31 28.855 31C28.848 31 28.841 31 28.8338 31C28.8267 31 28.8194 31 28.8121 31C28.8048 31 28.7975 31 28.79 31C28.7826 31 28.7751 31 28.7675 31C28.7599 31 28.7522 31 28.7444 31C28.7367 31 28.7289 31 28.721 31C28.7131 31 28.7051 31 28.6971 31C28.6891 31 28.681 31 28.6728 31C28.6646 31 28.6563 31 28.648 31C28.6397 31 28.6313 31 28.6228 31C28.6144 31 28.6058 31 28.5972 31C28.5886 31 28.5799 31 28.5711 31C28.5624 31 28.5536 31 28.5447 31C28.5358 31 28.5268 31 28.5178 31C28.5087 31 28.4996 31 28.4904 31C28.4812 31 28.472 31 28.4627 31C28.4534 31 28.444 31 28.4345 31C28.425 31 28.4155 31 28.4059 31C28.3963 31 28.3866 31 28.3769 31C28.3672 31 28.3574 31 28.3475 31C28.3376 31 28.3277 31 28.3177 31C28.3077 31 28.2976 31 28.2874 31C28.2773 31 28.2671 31 28.2568 31C28.2465 31 28.2362 31 28.2257 31C28.2153 31 28.2048 31 28.1943 31C28.1837 31 28.1731 31 28.1624 31C28.1517 31 28.141 31 28.1302 31C28.1194 31 28.1085 31 28.0975 31C28.0866 31 28.0756 31 28.0645 31C28.0534 31 28.0422 31 28.031 31C28.0198 31 28.0085 31 27.9972 31C27.9859 31 27.9745 31 27.963 31C27.9515 31 27.94 31 27.9284 31C27.9168 31 27.9051 31 27.8934 31C27.8817 31 27.8699 31 27.858 31C27.8462 31 27.8342 31 27.8223 31C27.8103 31 27.7982 31 27.7861 31C27.774 31 27.7618 31 27.7496 31C27.7374 31 27.7251 31 27.7127 31C27.7004 31 27.6879 31 27.6755 31C27.663 31 27.6504 31 27.6378 31C27.6252 31 27.6126 31 27.5998 31C27.5871 31 27.5743 31 27.5615 31C27.5486 31 27.5357 31 27.5227 31C27.5097 31 27.4967 31 27.4836 31C27.4705 31 27.4574 31 27.4442 31C27.4309 31 27.4177 31 27.4043 31C27.391 31 27.3776 31 27.3642 31C27.3507 31 27.3372 31 27.3236 31C27.3101 31 27.2964 31 27.2828 31C27.2691 31 27.2553 31 27.2415 31C27.2277 31 27.2139 31 27.1999 31C27.186 31 27.172 31 27.158 31C27.144 31 27.1299 31 27.1157 31C27.1016 31 27.0874 31 27.0731 31C27.0588 31 27.0445 31 27.0301 31C27.0158 31 27.0013 31 26.9868 31C26.9723 31 26.9578 31 26.9432 31C26.9286 31 26.9139 31 26.8992 31C26.8845 31 26.8697 31 26.8549 31C26.8401 31 26.8252 31 26.8103 31C26.7953 31 26.7803 31 26.7653 31C26.7503 31 26.7352 31 26.72 31C26.7049 31 26.6896 31 26.6744 31C26.6591 31 26.6438 31 26.6284 31C26.6131 31 26.5976 31 26.5822 31C26.5667 31 26.5512 31 26.5356 31C26.52 31 26.5044 31 26.4887 31C26.473 31 26.4573 31 26.4415 31C26.4257 31 26.4098 31 26.3939 31C26.378 31 26.3621 31 26.3461 31C26.3301 31 26.314 31 26.2979 31C26.2818 31 26.2657 31 26.2495 31C26.2333 31 26.217 31 26.2007 31C26.1844 31 26.168 31 26.1516 31C26.1352 31 26.1188 31 26.1023 31C26.0858 31 26.0692 31 26.0526 31C26.036 31 26.0193 31 26.0026 31C25.9859 31 25.9692 31 25.9524 31C25.9356 31 25.9187 31 25.9018 31C25.8849 31 25.868 31 25.851 31C25.834 31 25.8169 31 25.7998 31C25.7827 31 25.7656 31 25.7484 31C25.7312 31 25.714 31 25.6967 31C25.6794 31 25.6621 31 25.6447 31C25.6273 31 25.6099 31 25.5924 31C25.5749 31 25.5574 31 25.5399 31C25.5223 31 25.5047 31 25.487 31C25.4694 31 25.4517 31 25.4339 31C25.4162 31 25.3984 31 25.3805 31C25.3627 31 25.3448 31 25.3269 31C25.309 31 25.291 31 25.273 31C25.2549 31 25.2369 31 25.2188 31C25.2007 31 25.1825 31 25.1643 31C25.1461 31 25.1279 31 25.1096 31C25.0913 31 25.073 31 25.0546 31C25.0363 31 25.0178 31 24.9994 31C24.9809 31 24.9624 31 24.9439 31C24.9253 31 24.9068 31 24.8881 31C24.8695 31 24.8508 31 24.8321 31C24.8134 31 24.7947 31 24.7759 31C24.7571 31 24.7382 31 24.7194 31C24.7005 31 24.6816 31 24.6626 31C24.6436 31 24.6246 31 24.6056 31C24.5866 31 24.5675 31 24.5484 31C24.5292 31 24.5101 31 24.4909 31C24.4717 31 24.4524 31 24.4331 31C24.4139 31 24.3945 31 24.3752 31C24.3558 31 24.3364 31 24.317 31C24.2975 31 24.2781 31 24.2585 31C24.239 31 24.2195 31 24.1999 31C24.1803 31 24.1607 31 24.141 31C24.1213 31 24.1016 31 24.0819 31C24.0621 31 24.0423 31 24.0225 31C24.0027 31 23.9828 31 23.963 31C23.9431 31 23.9231 31 23.9032 31C23.8832 31 23.8632 31 23.8431 31C23.8231 31 23.803 31 23.7829 31C23.7628 31 23.7427 31 23.7225 31C23.7023 31 23.6821 31 23.6618 31C23.6416 31 23.6213 31 23.6009 31C23.5806 31 23.5603 31 23.5399 31C23.5195 31 23.499 31 23.4786 31C23.4581 31 23.4376 31 23.4171 31C23.3966 31 23.376 31 23.3554 31C23.3348 31 23.3142 31 23.2935 31C23.2728 31 23.2521 31 23.2314 31C23.2107 31 23.1899 31 23.1691 31C23.1483 31 23.1275 31 23.1066 31C23.0857 31 23.0648 31 23.0439 31C23.023 31 23.002 31 22.981 31C22.96 31 22.939 31 22.918 31C22.8969 31 22.8758 31 22.8547 31C22.8336 31 22.8125 31 22.7913 31C22.7701 31 22.7489 31 22.7277 31C22.7064 31 22.6851 31 22.6638 31C22.6425 31 22.6212 31 22.5999 31C22.5785 31 22.5571 31 22.5357 31C22.5143 31 22.4928 31 22.4714 31C22.4499 31 22.4284 31 22.4068 31C22.3853 31 22.3638 31 22.3422 31C22.3206 31 22.299 31 22.2773 31C22.2557 31 22.234 31 22.2123 31C22.1906 31 22.1689 31 22.1471 31C22.1253 31 22.1036 31 22.0818 31C22.0599 31 22.0381 31 22.0162 31C21.9944 31 21.9725 31 21.9506 31C21.9286 31 21.9067 31 21.8847 31C21.8628 31 21.8408 31 21.8187 31C21.7967 31 21.7747 31 21.7526 31C21.7305 31 21.7084 31 21.6863 31C21.6642 31 21.642 31 21.6199 31C21.5977 31 21.5755 31 21.5533 31C21.5311 31 21.5088 31 21.4865 31C21.4643 31 21.442 31 21.4197 31C21.3974 31 21.375 31 21.3526 31C21.3303 31 21.3079 31 21.2855 31C21.2631 31 21.2406 31 21.2182 31C21.1957 31 21.1733 31 21.1508 31C21.1283 31 21.1057 31 21.0832 31C21.0606 31 21.0381 31 21.0155 31C20.9929 31 20.9703 31 20.9477 31C20.925 31 20.9024 31 20.8797 31C20.857 31 20.8343 31 20.8116 31C20.7889 31 20.7662 31 20.7434 31C20.7207 31 20.6979 31 20.6751 31C20.6523 31 20.6295 31 20.6066 31C20.5838 31 20.5609 31 20.5381 31C20.5152 31 20.4923 31 20.4694 31C20.4465 31 20.4235 31 20.4006 31C20.3776 31 20.3547 31 20.3317 31C20.3087 31 20.2857 31 20.2627 31C20.2396 31 20.2166 31 20.1935 31C20.1705 31 20.1474 31 20.1243 31C20.1012 31 20.0781 31 20.055 31C20.0318 31 20.0087 31 19.9855 31C19.9624 31 19.9392 31 19.916 31C19.8928 31 19.8696 31 19.8464 31C19.8231 31 19.7999 31 19.7766 31C19.7534 31 19.7301 31 19.7068 31C19.6835 31 19.6602 31 19.6369 31C19.6136 31 19.5902 31 19.5669 31C19.5435 31 19.5202 31 19.4968 31C19.4734 31 19.45 31 19.4266 31C19.4032 31 19.3798 31 19.3563 31C19.3329 31 19.3095 31 19.286 31C19.2625 31 19.2391 31 19.2156 31C19.1921 31 19.1686 31 19.1451 31C19.1215 31 19.098 31 19.0745 31C19.0509 31 19.0274 31 19.0038 31C18.9803 31 18.9567 31 18.9331 31C18.9095 31 18.8859 31 18.8623 31C18.8387 31 18.8151 31 18.7914 31C18.7678 31 18.7442 31 18.7205 31C18.6969 31 18.6732 31 18.6495 31C18.6258 31 18.6022 31 18.5785 31C18.5548 31 18.5311 31 18.5073 31C18.4836 31 18.4599 31 18.4362 31C18.4124 31 18.3887 31 18.3649 31C18.3412 31 18.3174 31 18.2937 31C18.2699 31 18.2461 31 18.2223 31C18.1985 31 18.1747 31 18.1509 31C18.1271 31 18.1033 31 18.0795 31C18.0557 31 18.0319 31 18.008 31C17.9842 31 17.9603 31 17.9365 31C17.9126 31 17.8888 31 17.8649 31C17.8411 31 17.8172 31 17.7933 31C17.7694 31 17.7456 31 17.7217 31C17.6978 31 17.6739 31 17.65 31C17.6261 31 17.6022 31 17.5783 31C17.5544 31 17.5305 31 17.5065 31C17.4826 31 17.4587 31 17.4348 31C17.4108 31 17.3869 31 17.363 31C17.339 31 17.3151 31 17.2911 31C17.2672 31 17.2432 31 17.2193 31C17.1953 31 17.1714 31 17.1474 31C17.1234 31 17.0995 31 17.0755 31C17.0515 31 17.0276 31 17.0036 31C16.9796 31 16.9556 31 16.9317 31C16.9077 31 16.8837 31 16.8597 31C16.8357 31 16.8117 31 16.7878 31C16.7638 31 16.7398 31 16.7158 31C16.6918 31 16.6678 31 16.6438 31C16.6198 31 16.5958 31 16.5718 31C16.5478 31 16.5238 31 16.4998 31C16.4758 31 16.4518 31 16.4279 31C16.4039 31 16.3799 31 16.3559 31C16.3319 31 16.3079 31 16.2839 31C16.2599 31 16.2359 31 16.2119 31C16.1879 31 16.1639 31 16.1399 31C16.1159 31 16.0919 31 16.068 31C16.044 31 16.02 31 15.996 31C15.972 31 15.948 31 15.924 31C15.9001 31 15.8761 31 15.8521 31C15.8281 31 15.8042 31 15.7802 31C15.7562 31 15.7323 31 15.7083 31C15.6843 31 15.6604 31 15.6364 31C15.6125 31 15.5885 31 15.5646 31C15.5406 31 15.5167 31 15.4927 31C15.4688 31 15.4449 31 15.4209 31C15.397 31 15.3731 31 15.3491 31C15.3252 31 15.3013 31 15.2774 31C15.2535 31 15.2296 31 15.2057 31C15.1818 31 15.1579 31 15.134 31C15.1101 31 15.0862 31 15.0623 31C15.0385 31 15.0146 31 14.9907 31C14.9669 31 14.943 31 14.9192 31C14.8953 31 14.8715 31 14.8476 31C14.8238 31 14.8 31 14.7762 31C14.7523 31 14.7285 31 14.7047 31C14.6809 31 14.6571 31 14.6333 31C14.6095 31 14.5857 31 14.562 31C14.5382 31 14.5144 31 14.4907 31C14.4669 31 14.4432 31 14.4195 31C14.3957 31 14.372 31 14.3483 31C14.3246 31 14.3008 31 14.2771 31C14.2535 31 14.2298 31 14.2061 31C14.1824 31 14.1587 31 14.1351 31C14.1114 31 14.0878 31 14.0641 31C14.0405 31 14.0169 31 13.9933 31C13.9697 31 13.9461 31 13.9225 31C13.8989 31 13.8753 31 13.8517 31C13.8282 31 13.8046 31 13.7811 31C13.7575 31 13.734 31 13.7105 31C13.687 31 13.6635 31 13.64 31C13.6165 31 13.593 31 13.5695 31C13.5461 31 13.5226 31 13.4992 31C13.4757 31 13.4523 31 13.4289 31C13.4055 31 13.3821 31 13.3587 31C13.3353 31 13.312 31 13.2886 31C13.2653 31 13.2419 31 13.2186 31C13.1953 31 13.172 31 13.1487 31C13.1254 31 13.1021 31 13.0788 31C13.0556 31 13.0323 31 13.0091 31C12.9859 31 12.9626 31 12.9394 31C12.9162 31 12.8931 31 12.8699 31C12.8467 31 12.8236 31 12.8004 31C12.7773 31 12.7542 31 12.7311 31C12.708 31 12.6849 31 12.6619 31C12.6388 31 12.6157 31 12.5927 31C12.5697 31 12.5467 31 12.5237 31C12.5007 31 12.4777 31 12.4548 31C12.4318 31 12.4089 31 12.386 31C12.363 31 12.3401 31 12.3173 31C12.2944 31 12.2715 31 12.2487 31C12.2258 31 12.203 31 12.1802 31C12.1574 31 12.1346 31 12.1119 31C12.0891 31 12.0664 31 12.0437 31C12.0209 31 11.9982 31 11.9756 31C11.9529 31 11.9302 31 11.9076 31C11.885 31 11.8623 31 11.8398 31C11.8172 31 11.7946 31 11.772 31C11.7495 31 11.727 31 11.7045 31C11.6819 31 11.6595 31 11.637 31C11.6145 31 11.5921 31 11.5697 31C11.5473 31 11.5249 31 11.5025 31C11.4801 31 11.4578 31 11.4355 31C11.4132 31 11.3909 31 11.3686 31C11.3463 31 11.3241 31 11.3018 31C11.2796 31 11.2574 31 11.2352 31C11.213 31 11.1909 31 11.1688 31C11.1466 31 11.1245 31 11.1025 31C11.0804 31 11.0583 31 11.0363 31C11.0143 31 10.9923 31 10.9703 31C10.9483 31 10.9264 31 10.9045 31C10.8825 31 10.8606 31 10.8388 31C10.8169 31 10.795 31 10.7732 31C10.7514 31 10.7296 31 10.7079 31C10.6861 31 10.6644 31 10.6427 31C10.6209 31 10.5993 31 10.5776 31C10.556 31 10.5343 31 10.5127 31C10.4911 31 10.4696 31 10.448 31C10.4265 31 10.405 31 10.3835 31C10.362 31 10.3406 31 10.3192 31C10.2977 31 10.2763 31 10.255 31C10.2336 31 10.2123 31 10.191 31C10.1697 31 10.1484 31 10.1271 31C10.1059 31 10.0847 31 10.0635 31C10.0423 31 10.0212 31 10 31C9.97891 31 9.95782 31 9.93676 31C9.9157 31 9.89467 31 9.87367 31C9.85267 31 9.83171 31 9.81077 31C9.78984 31 9.76894 31 9.74807 31C9.7272 31 9.70636 31 9.68555 31C9.66475 31 9.64398 31 9.62324 31C9.6025 31 9.58179 31 9.56112 31C9.54044 31 9.5198 31 9.49919 31C9.47859 31 9.45801 31 9.43747 31C9.41693 31 9.39643 31 9.37596 31C9.35549 31 9.33505 31 9.31465 31C9.29425 31 9.27388 31 9.25354 31C9.23321 31 9.21291 31 9.19265 31C9.17239 31 9.15216 31 9.13197 31C9.11178 31 9.09162 31 9.0715 31C9.05138 31 9.03129 31 9.01125 31C8.9912 31 8.97119 31 8.95121 31C8.93124 31 8.9113 31 8.89139 31C8.87149 31 8.85163 31 8.8318 31C8.81197 31 8.79218 31 8.77243 31C8.75267 31 8.73296 31 8.71328 31C8.6936 31 8.67396 31 8.65436 31C8.63476 31 8.6152 31 8.59567 31C8.57615 31 8.55666 31 8.53721 31C8.51777 31 8.49836 31 8.47899 31C8.45962 31 8.44029 31 8.421 31C8.40171 31 8.38246 31 8.36325 31C8.34404 31 8.32486 31 8.30573 31C8.2866 31 8.26751 31 8.24846 31C8.22941 31 8.2104 31 8.19143 31C8.17247 31 8.15354 31 8.13465 31C8.11576 31 8.09692 31 8.07812 31C8.05931 31 8.04055 31 8.02183 31C8.00311 31 7.98443 31 7.9658 31C7.94716 31 7.92857 31 7.91001 31C7.89146 31 7.87295 31 7.85449 31C7.83602 31 7.8176 31 7.79922 31C7.78084 31 7.7625 31 7.74421 31C7.72592 31 7.70767 31 7.68946 31C7.67126 31 7.65309 31 7.63498 31C7.61686 31 7.59879 31 7.58076 31C7.56273 31 7.54474 31 7.5268 31C7.50887 31 7.49097 31 7.47312 31C7.45527 31 7.43747 31 7.41971 31C7.40195 31 7.38424 31 7.36657 31C7.3489 31 7.33128 31 7.31371 31C7.29613 31 7.2786 31 7.26112 31C7.24364 31 7.2262 31 7.20882 31C7.19143 31 7.17409 31 7.15679 31C7.1395 31 7.12225 31 7.10505 31C7.08785 31 7.0707 31 7.05359 31C7.03649 31 7.01943 31 7.00242 31C6.98541 31 6.96845 31 6.95154 31C6.93463 31 6.91777 31 6.90095 31C6.88414 31 6.86737 31 6.85066 31C6.83394 31 6.81727 31 6.80066 31C6.78404 31 6.76747 31 6.75095 31C6.73444 31 6.71797 31 6.70155 31C6.68513 31 6.66876 31 6.65245 31C6.63613 31 6.61986 31 6.60365 31C6.58743 31 6.57127 31 6.55515 31C6.53904 31 6.52298 31 6.50697 31C6.49095 31 6.475 31 6.45909 31C6.44318 31 6.42732 31 6.41152 31C6.39572 31 6.37997 31 6.36427 31C6.34857 31 6.33292 31 6.31733 31C6.30174 31 6.28619 31 6.27071 31C6.25522 31 6.23979 31 6.22441 31C6.20902 31 6.1937 31 6.17842 31C6.16315 31 6.14793 31 6.13277 31C6.1176 31 6.10249 31 6.08743 31C6.07238 31 6.05738 31 6.04243 31C6.02748 31 6.01259 31 5.99775 31C5.98292 31 5.96813 31 5.95341 31C5.93868 31 5.92401 31 5.9094 31C5.89478 31 5.88022 31 5.86572 31C5.85122 31 5.83677 31 5.82238 31C5.80799 31 5.79366 31 5.77938 31C5.7651 31 5.75088 31 5.73672 31C5.72256 31 5.70845 31 5.6944 31C5.68036 31 5.66637 31 5.65243 31C5.6385 31 5.62463 31 5.61081 31C5.59699 31 5.58323 31 5.56953 31C5.55583 31 5.54219 31 5.52861 31C5.51503 31 5.5015 31 5.48804 31C5.47458 31 5.46117 31 5.44782 31C5.43448 31 5.42119 31 5.40797 31C5.39474 31 5.38157 31 5.36847 31C5.35536 31 5.34231 31 5.32933 31C5.31634 31 5.30342 31 5.29055 31C5.27769 31 5.26489 31 5.25214 31C5.2394 31 5.22672 31 5.2141 31C5.20148 31 5.18892 31 5.17643 31C5.16393 31 5.1515 31 5.13912 31C5.12675 31 5.11444 31 5.10219 31C5.08995 31 5.07776 31 5.06564 31C5.05352 31 5.04146 31 5.02946 31C5.01747 31 5.00553 31 4.99366 31C4.98179 31 4.96999 31 4.95825 31C4.9465 31 4.93482 31 4.92321 31C4.9116 31 4.90005 31 4.88856 31C4.87708 31 4.86565 31 4.8543 31C4.84294 31 4.83165 31 4.82043 31C4.8092 31 4.79804 31 4.78694 31C4.77585 31 4.76482 31 4.75385 31C4.74289 31 4.73199 31 4.72116 31C4.71033 31 4.69956 31 4.68886 31C4.67816 31 4.66753 31 4.65696 31C4.6464 31 4.6359 31 4.62547 31C4.61503 31 4.60467 31 4.59437 31C4.58407 31 4.57385 31 4.56368 31C4.55352 31 4.54343 31 4.5334 31C4.52338 31 4.51342 31 4.50353 31C4.49364 31 4.48382 31 4.47407 31C4.46431 31 4.45463 31 4.44502 31C4.4354 31 4.42586 31 4.41638 31C4.40691 31 4.3975 31 4.38816 31C4.37883 31 4.36956 31 4.36037 31C4.35117 31 4.34204 31 4.33299 31C4.32393 31 4.31495 31 4.30603 31C4.29712 31 4.28828 31 4.2795 31C4.27073 31 4.26203 31 4.2534 31C4.24477 31 4.23621 31 4.22773 31C4.21924 31 4.21083 31 4.20248 31C4.19414 31 4.18587 31 4.17767 31C4.16948 31 4.16135 31 4.1533 31C4.14525 31 4.13727 31 4.12936 31C4.12146 31 4.11362 31 4.10586 31C4.0981 31 4.09042 31 4.0828 31C4.07519 31 4.06765 31 4.06019 31C4.05273 31 4.04533 31 4.03802 31C4.0307 31 4.02346 31 4.0163 31C4.00913 31 4.00204 31 3.99502 31C3.988 31 3.98106 31 3.9742 31C3.96733 31 3.96054 31 3.95383 31C3.94711 31 3.94047 31 3.93391 31C3.92735 31 3.92086 31 3.91445 31C3.90804 31 3.90171 31 3.89545 31C3.8892 31 3.88302 31 3.87691 31C3.87081 31 3.86478 31 3.85884 31C3.85289 31 3.84702 31 3.84122 31C3.83543 31 3.82972 31 3.82408 31C3.81844 31 3.81288 31 3.8074 31C3.80192 31 3.79652 31 3.7912 31C3.78588 31 3.78063 31 3.77547 31C3.7703 31 3.76522 31 3.76021 31C3.7552 31 3.75028 31 3.74543 31C3.74058 31 3.73582 31 3.73113 31C3.72644 31 3.72183 31 3.71731 31C3.71278 31 3.70833 31 3.70397 31C3.6996 31 3.69532 31 3.69112 31C3.68691 31 3.68279 31 3.67875 31C3.67471 31 3.67075 31 3.66687 31C3.66299 31 3.6592 31 3.65549 31C3.65177 31 3.64814 31 3.64459 31C3.64104 31 3.63758 31 3.63419 31C3.63081 31 3.62751 31 3.62429 31C3.62107 31 3.61794 31 3.61489 31C3.61184 31 3.60887 31 3.60598 31C3.6031 31 3.6003 31 3.59758 31C3.59487 31 3.59224 31 3.58969 31C3.58714 31 3.58468 31 3.5823 31C3.57992 31 3.57763 31 3.57542 31C3.57321 31 3.57109 31 3.56905 31V33ZM29.2662 33C30.1848 33 30.98 32.2469 30.98 31.2997H28.98C28.98 31.1924 29.026 31.1175 29.0669 31.0774C29.1079 31.0373 29.1754 31 29.2662 31V33ZM30.98 31.2997C30.98 30.3524 30.1848 29.5993 29.2662 29.5993V31.5993C29.1754 31.5993 29.1079 31.5621 29.0669 31.5219C29.026 31.4818 28.98 31.4069 28.98 31.2997H30.98ZM29.2662 29.5993H18.8336V31.5993H29.2662V29.5993ZM19.8085 30.822L20.5223 27.6975L18.5725 27.252L17.8587 30.3766L19.8085 30.822ZM19.7974 28.443C20.9321 28.15 22.0519 27.6855 23.1009 27.1137L22.1437 25.3577C21.216 25.8633 20.2493 26.2607 19.2974 26.5065L19.7974 28.443ZM22.1054 27.0918L25.6745 29.2466L26.7082 27.5345L23.1392 25.3796L22.1054 27.0918ZM25.684 29.2523C26.4009 29.6743 27.1772 29.4698 27.6873 29.0695L26.4525 27.4962C26.4338 27.5108 26.4464 27.4938 26.498 27.4869C26.5245 27.4834 26.5583 27.4832 26.5962 27.4905C26.6347 27.498 26.6697 27.5118 26.6987 27.5288L25.684 29.2523ZM27.7702 28.9966L29.8567 26.9495L28.4561 25.5219L26.3695 27.569L27.7702 28.9966ZM29.8567 26.9495C30.3975 26.4189 30.535 25.5318 30.1193 24.852L28.4131 25.8955C28.3614 25.8109 28.3584 25.7364 28.3642 25.6931C28.3697 25.6512 28.3901 25.5866 28.4561 25.5219L29.8567 26.9495ZM30.1096 24.8365L27.9133 21.3887L26.2265 22.4632L28.4228 25.911L30.1096 24.8365ZM27.9275 22.4401C28.5226 21.4476 28.9992 20.3384 29.2986 19.222L27.3669 18.7039C27.1173 19.6346 26.7153 20.5726 26.2122 21.4117L27.9275 22.4401ZM28.5376 19.9418L32.6558 19.0798L32.246 17.1222L28.1279 17.9842L28.5376 19.9418ZM32.6123 19.0879C33.4358 18.9532 34 18.2571 34 17.4545H32C32 17.3865 32.0245 17.3057 32.0831 17.2359C32.1429 17.1646 32.2212 17.1253 32.2895 17.1141L32.6123 19.0879ZM34 17.4545V14.5455H32V17.4545H34ZM33.9896 14.4014C33.8899 13.7172 33.4294 13.0008 32.5574 12.8582L32.2346 14.832C32.2019 14.8267 32.1637 14.8143 32.1256 14.7925C32.0878 14.771 32.059 14.7452 32.0388 14.7214C31.9993 14.675 32.005 14.652 32.0104 14.6895L33.9896 14.4014ZM27.3715 16.7426C26.632 16.8877 26.2273 17.4654 26.1008 17.9618L28.0389 18.4557C28.0284 18.4968 28.007 18.5441 27.9629 18.591C27.9129 18.6441 27.8395 18.6889 27.7566 18.7052L27.3715 16.7426ZM26.0957 17.9831C25.8425 19.076 25.4463 20.0817 24.822 20.9768L26.4625 22.1208C27.2659 20.9688 27.7482 19.7119 28.0441 18.4344L26.0957 17.9831ZM24.8478 20.9415C24.409 21.5155 24.409 22.2825 24.8478 22.8565L26.4367 21.6418C26.4791 21.6973 26.5187 21.787 26.5187 21.899C26.5187 22.011 26.4791 22.1007 26.4367 22.1561L24.8478 20.9415ZM24.8004 22.7889L26.9419 26.129L28.6255 25.0495L26.4841 21.7094L24.8004 22.7889ZM27.0689 24.8899L25.7511 26.2367L27.1807 27.6354L28.4985 26.2886L27.0689 24.8899ZM26.985 26.0813L23.5258 23.9803L22.4875 25.6897L25.9468 27.7907L26.985 26.0813ZM23.5993 24.0296C23.0272 23.6085 22.2723 23.6085 21.7002 24.0296L22.8855 25.6405C22.8319 25.6799 22.7496 25.7138 22.6498 25.7138C22.5499 25.7138 22.4676 25.6799 22.414 25.6405L23.5993 24.0296ZM21.7661 23.985C20.8142 24.5749 19.768 25.0139 18.625 25.2577L19.0422 27.2137C20.4251 26.9187 21.685 26.3881 22.8196 25.685L21.7661 23.985ZM18.6411 25.2544C17.9015 25.3995 17.4969 25.9772 17.3704 26.4736L19.3085 26.9675C19.298 27.0086 19.2765 27.0559 19.2325 27.1027C19.1825 27.1559 19.1091 27.2007 19.0262 27.217L18.6411 25.2544ZM17.3648 26.4967L16.4863 30.3216L18.4355 30.7693L19.3141 26.9444L17.3648 26.4967ZM17.4609 29.5455H15.594V31.5455H17.4609V29.5455ZM16.5686 30.3216L15.6901 26.4967L13.7409 26.9444L14.6194 30.7693L16.5686 30.3216ZM15.6953 26.5208C15.5426 25.7714 14.943 25.3831 14.4595 25.2645L13.9831 27.2069C13.9494 27.1986 13.9055 27.1807 13.8589 27.1385C13.8056 27.0903 13.7547 27.0138 13.7356 26.9203L15.6953 26.5208ZM14.4389 25.2597C13.3074 25.0073 12.2272 24.6141 11.3194 24.0047L10.2047 25.6653C11.3835 26.4566 12.7193 26.9253 14.0037 27.2117L14.4389 25.2597ZM11.3547 24.0296C10.7826 23.6085 10.0277 23.6085 9.45558 24.0296L10.6409 25.6405C10.5873 25.6799 10.505 25.7138 10.4052 25.7138C10.3053 25.7138 10.223 25.6799 10.1694 25.6405L11.3547 24.0296ZM9.5351 23.9767L6.02096 26.0777L7.04726 27.7943L10.5614 25.6933L9.5351 23.9767ZM7.23445 26.2222L5.91665 24.9293L4.51597 26.3569L5.83377 27.6498L7.23445 26.2222ZM6.05814 26.1828L8.19958 22.8428L6.5159 21.7633L4.37447 25.1034L6.05814 26.1828ZM8.1522 22.9103C8.59097 22.3364 8.59097 21.5694 8.1522 20.9954L6.56327 22.21C6.52087 22.1545 6.48128 22.0648 6.48128 21.9529C6.48128 21.8409 6.52087 21.7512 6.56327 21.6957L8.1522 22.9103ZM8.19858 21.0614C7.59738 20.1275 7.15106 19.1021 6.90432 18.037L4.95591 18.4883C5.25826 19.7935 5.80029 21.0308 6.51689 22.144L8.19858 21.0614ZM6.90997 18.0629C6.75721 17.3135 6.15762 16.9251 5.67416 16.8066L5.19772 18.749C5.16401 18.7407 5.12014 18.7228 5.07353 18.6806C5.02025 18.6324 4.96934 18.5559 4.95027 18.4624L6.90997 18.0629ZM5.64896 16.8007L1.69555 15.9388L1.26951 17.8929L5.22292 18.7548L5.64896 16.8007ZM2.48253 16.9158V15.0842H0.482529V16.9158H2.48253ZM1.69555 16.0612L5.64896 15.1993L5.22292 13.2452L1.26951 14.1071L1.69555 16.0612ZM5.62849 15.2035C6.36803 15.0584 6.77266 14.4807 6.89915 13.9843L4.96108 13.4905C4.97156 13.4493 4.99303 13.402 5.03707 13.3552C5.08708 13.302 5.16046 13.2572 5.24339 13.2409L5.62849 15.2035ZM6.90432 13.963C7.15748 12.8702 7.55375 11.8644 8.17798 10.9693L6.5375 9.82529C5.73411 10.9773 5.25184 12.2342 4.95591 13.5117L6.90432 13.963ZM8.1522 11.0046C8.59097 10.4306 8.59097 9.66365 8.1522 9.08966L6.56327 10.3043C6.52087 10.2488 6.48128 10.1591 6.48128 10.0471C6.48128 9.93518 6.52087 9.84547 6.56327 9.79L8.1522 11.0046ZM8.19958 9.15724L6.05814 5.81717L4.37447 6.89663L6.5159 10.2367L8.19958 9.15724ZM5.91664 7.07071L7.23445 5.77778L5.83377 4.35016L4.51597 5.64309L5.91664 7.07071ZM6.01499 5.91868L9.47423 8.01969L10.5125 6.31028L7.05323 4.20927L6.01499 5.91868ZM9.40067 7.97042C9.97284 8.39145 10.7277 8.39145 11.2998 7.97042L10.1145 6.35954C10.1681 6.32011 10.2504 6.2862 10.3503 6.2862C10.4501 6.2862 10.5324 6.32011 10.586 6.35954L9.40067 7.97042ZM11.2339 8.01502C12.1858 7.42513 13.232 6.98609 14.375 6.74231L13.9578 4.78631C12.575 5.08125 11.315 5.61191 10.1804 6.31495L11.2339 8.01502ZM14.3589 6.7456C15.0985 6.60048 15.5031 6.02279 15.6296 5.52638L13.6915 5.03254C13.702 4.99143 13.7235 4.94407 13.7675 4.89726C13.8175 4.8441 13.8909 4.79929 13.9738 4.78302L14.3589 6.7456ZM15.6352 5.50332L16.5137 1.6784L14.5645 1.23069L13.6859 5.0556L15.6352 5.50332ZM15.5391 2.45455H17.406V0.454545H15.5391V2.45455ZM16.4314 1.6784L17.3099 5.50332L19.2591 5.0556L18.3806 1.23069L16.4314 1.6784ZM17.3047 5.4792C17.4574 6.22856 18.057 6.61694 18.5405 6.73552L19.0169 4.7931C19.0506 4.80137 19.0945 4.81927 19.1411 4.86149C19.1944 4.90973 19.2453 4.98616 19.2644 5.07972L17.3047 5.4792ZM18.5611 6.74034C19.6639 6.98624 20.7668 7.42978 21.7112 8.01502L22.7647 6.31495C21.6226 5.60726 20.3095 5.0811 18.9963 4.78828L18.5611 6.74034ZM21.6453 7.97042C22.2174 8.39145 22.9723 8.39145 23.5444 7.97042L22.3591 6.35954C22.4127 6.32011 22.495 6.2862 22.5948 6.2862C22.6947 6.2862 22.777 6.32011 22.8306 6.35954L21.6453 7.97042ZM23.4709 8.01969L26.9301 5.91868L25.8919 4.20927L22.4326 6.31028L23.4709 8.01969ZM25.7106 5.77778L27.0285 7.07071L28.4291 5.64309L27.1113 4.35016L25.7106 5.77778ZM26.887 5.81717L24.7455 9.15724L26.4292 10.2367L28.5706 6.89663L26.887 5.81717ZM24.7929 9.08966C24.3541 9.66365 24.3541 10.4306 24.7929 11.0046L26.3818 9.79C26.4242 9.84547 26.4638 9.93518 26.4638 10.0471C26.4638 10.1591 26.4242 10.2488 26.3818 10.3043L24.7929 9.08966ZM24.7465 10.9386C25.3477 11.8725 25.794 12.8979 26.0408 13.963L27.9892 13.5117C27.6868 12.2065 27.1448 10.9692 26.4282 9.85603L24.7465 10.9386ZM26.0351 13.9371C26.1879 14.6865 26.7875 15.0749 27.2709 15.1934L27.7474 13.251C27.7811 13.2593 27.825 13.2772 27.8716 13.3194C27.9248 13.3676 27.9758 13.4441 27.9948 13.5376L26.0351 13.9371ZM27.2961 15.1993L31.2495 16.0612L31.6756 14.1071L27.7222 13.2452L27.2961 15.1993ZM30.463 15.115L30.518 16.8928L32.517 16.8311L32.4621 15.0533L30.463 15.115ZM31.3045 15.8849L27.351 16.7469L27.7771 18.701L31.7305 17.839L31.3045 15.8849ZM16.4725 5.94949C10.8436 5.94949 6.19301 10.4083 6.19301 15.9461H8.19301C8.19301 11.5715 11.8885 7.94949 16.4725 7.94949V5.94949ZM6.19301 15.9461C6.19301 21.484 10.8436 25.9428 16.4725 25.9428V23.9428C11.8885 23.9428 8.19301 20.3207 8.19301 15.9461H6.19301ZM16.4725 25.9428C22.1015 25.9428 26.7521 21.484 26.7521 15.9461H24.7521C24.7521 20.3207 21.0566 23.9428 16.4725 23.9428V25.9428ZM26.7521 15.9461C26.7521 10.4121 22.1603 5.94949 16.4725 5.94949V7.94949C21.1076 7.94949 24.7521 11.5677 24.7521 15.9461H26.7521ZM16.4725 22.596C12.6552 22.596 9.56572 19.5645 9.56572 15.9461H7.56572C7.56572 20.7318 11.6143 24.596 16.4725 24.596V22.596ZM9.56572 15.9461C9.56572 12.3321 12.7055 9.2963 16.4725 9.2963V7.2963C11.6738 7.2963 7.56572 11.1561 7.56572 15.9461H9.56572ZM16.4725 9.2963C20.2899 9.2963 23.3794 12.3277 23.3794 15.9461H25.3794C25.3794 11.1605 21.3307 7.2963 16.4725 7.2963V9.2963ZM23.3794 15.9461C23.3794 19.5645 20.2899 22.596 16.4725 22.596V24.596C21.3307 24.596 25.3794 20.7318 25.3794 15.9461H23.3794Z" fill="#33323C" mask="url(#path-1-inside-1_1_1346)"/>
</svg>
