<svg width="113" height="36" viewBox="0 0 113 36" fill="none" xmlns="http://www.w3.org/2000/svg">
<path d="M13.6817 6.12824C11.1529 4.97692 9.64487 4.53021 8.14736 4.53021C6.57575 4.53021 5.56917 5.10741 5.56917 5.99929C5.56917 8.69107 14.4727 7.93351 14.4727 14.1598C14.4727 17.593 11.664 19.5879 7.76195 19.5879C4.70106 19.5879 3.19381 18.7758 1.45756 17.8563V14.0048C3.96165 15.7064 5.49435 16.3074 7.42592 16.3074C9.10081 16.3074 10.0041 15.7064 10.0041 14.6587C10.0041 11.7275 1.10059 12.8013 1.10059 6.38997C1.10059 3.29831 3.70571 1.25127 7.76195 1.25127C9.71973 1.25127 11.4859 1.67265 13.6817 2.64129V6.12824Z" fill="#009E4D"/>
<path d="M26.1477 18.7708C24.6637 19.3227 23.4086 19.5859 22.1566 19.5859C18.0098 19.5859 15.3291 17.1091 15.3291 13.3404C15.3291 9.64087 18.1138 7.02739 22.0024 7.02739C23.2036 7.02739 24.7393 7.34284 25.9674 7.81181V10.6441C24.9952 10.1144 23.8697 9.82431 22.9484 9.82431C20.7227 9.82431 19.2911 11.1959 19.2911 13.3128C19.2911 15.4596 20.6988 16.8727 22.8197 16.8727C23.7147 16.8727 24.5103 16.6624 26.1477 16.0337V18.7708Z" fill="#009E4D"/>
<path d="M58.4777 11.9527C58.6296 10.2718 59.5816 9.30008 61.0394 9.30008C62.4726 9.30008 63.444 10.2994 63.5974 11.9527H58.4777ZM60.7835 7.03122C57.1448 7.03122 54.5547 9.66697 54.5547 13.3757C54.5547 17.1121 57.2481 19.5859 61.3994 19.5859C62.3192 19.5859 64.5434 19.5859 66.662 17.9779V15.6131C64.9265 16.8811 63.7785 17.3178 62.2967 17.3178C59.958 17.3178 58.5278 16.0767 58.3984 13.9583H66.8708C67.0467 9.53648 64.2163 7.03122 60.7835 7.03122Z" fill="#009E4D"/>
<path d="M68.3047 19.3652H72.0093V7.25416H68.3047V19.3652Z" fill="#009E4D"/>
<path d="M82.3179 16.0541C81.5463 16.7664 80.905 17.0519 80.1139 17.0519C78.3694 17.0519 77.2656 15.5798 77.2656 13.3731C77.2656 10.9553 78.3694 9.56146 80.2367 9.56146C80.905 9.56146 81.7776 9.87693 82.3179 10.2722V16.0541ZM82.3179 1.47462V7.7846C81.3173 7.288 80.3198 7.02627 79.2413 7.02627C75.8624 7.02627 73.5244 9.58756 73.5244 13.294C73.5244 16.9207 75.8624 19.5879 79.0325 19.5879C80.2898 19.5879 81.2612 19.2502 82.3179 18.3859V19.3607H86.0217V1.47462H82.3179Z" fill="#009E4D"/>
<path d="M91.505 11.9527C91.6591 10.2718 92.6059 9.30008 94.0615 9.30008C95.4969 9.30008 96.478 10.2994 96.6314 11.9527H91.505ZM93.8085 7.03122C90.1706 7.03122 87.585 9.66697 87.585 13.3757C87.585 17.1121 90.2784 19.5859 94.4252 19.5859C95.3435 19.5859 97.5721 19.5859 99.696 17.9779V15.6131C97.9583 16.8811 96.808 17.3178 95.3195 17.3178C92.9935 17.3178 91.5574 16.0767 91.4279 13.9583H99.8966C100.072 9.53648 97.2398 7.03122 93.8085 7.03122Z" fill="#009E4D"/>
<mask id="mask0_1617_5401" style="mask-type:luminance" maskUnits="userSpaceOnUse" x="1" y="1" width="111" height="34">
<path d="M1.09961 1.2523V34.7402H111.708V1.2523" fill="white"/>
</mask>
<g mask="url(#mask0_1617_5401)">
<path d="M105.44 10.7224H105.495C106.594 8.2018 107.826 7.01979 109.254 7.01979C109.994 7.01979 110.633 7.30915 111.707 8.12428L110.688 11.4823C109.715 10.8529 109.076 10.5896 108.489 10.5896C107.13 10.5896 106.26 11.9037 105.44 14.1249V19.3496H101.731V7.24161H105.44V10.7224Z" fill="#009E4D"/>
<path d="M72.1807 2.16003C72.5287 3.10104 71.9024 4.41354 70.7865 5.08898C69.6662 5.76365 68.4822 5.54951 68.1372 4.6085C67.7855 3.66596 68.4089 2.35192 69.5277 1.68032C70.6451 1.00181 71.8298 1.21672 72.1807 2.16003Z" fill="#009E4D"/>
</g>
<path d="M39.4902 11.6569C39.4902 8.37492 37.3154 7.03095 35.169 7.03095C33.7097 7.03095 32.51 7.66264 31.4369 9.05574H31.386V1.47547H27.6777V19.3301H31.386V11.6569C32.2533 10.3698 32.9942 9.81944 33.8631 9.81944C35.0164 9.81944 35.7827 10.6607 35.7827 12.4698V16.7243C37.0265 16.0688 38.2906 15.6666 39.4902 15.5169V11.6569Z" fill="#009E4D"/>
<path d="M48.7916 7.02719C47.2814 7.02719 46.1282 7.60284 44.948 8.98749V7.25438H41.2412V15.4848C42.5254 15.616 44.1637 16.2201 44.948 17.2179V11.5618C45.9224 10.0621 46.6139 9.56238 47.5359 9.56238C48.5859 9.56238 49.3836 10.2731 49.3836 11.9809V19.334H53.0911V11.6662C53.0911 8.09945 50.6349 7.02719 48.7916 7.02719Z" fill="#009E4D"/>
<path d="M55.1388 22.8108H50.8311V25.95H54.9869V27.2971H50.8311V30.5354H55.2675V31.8809H49.3867V21.4668H55.1388V22.8108Z" fill="#009E4D"/>
<path d="M58.6562 31.8887H59.9757V21.4654H58.6562V31.8887Z" fill="#009E4D"/>
<path d="M66.5083 26.0495C67.4438 26.0495 68.0238 26.7104 68.0672 27.7488H64.7069C64.8888 26.6643 65.4972 26.0495 66.5083 26.0495ZM64.683 28.6522H69.3836C69.3836 26.1109 68.2513 24.8844 66.4783 24.8844C64.6388 24.8844 63.3613 26.279 63.3613 28.359C63.3613 30.2603 64.5153 32.0156 66.5928 32.0156C67.7251 32.0156 68.4571 31.7577 69.2676 31.2059V29.8888C68.4848 30.4145 67.7252 30.7177 66.9259 30.7177C65.6476 30.7177 64.8888 30.0146 64.683 28.6522Z" fill="#009E4D"/>
<path d="M78.0007 26.8186C77.2418 26.2859 76.7351 26.1293 76.1574 26.1293C74.9495 26.1293 74.1128 27.0795 74.1128 28.4711C74.1128 29.8888 75.0034 30.743 76.3782 30.743C76.9439 30.743 77.4828 30.5926 78.1481 30.2871V31.6219C77.7036 31.8368 76.8564 32.0156 76.1574 32.0156C74.1592 32.0156 72.7725 30.6064 72.7725 28.5924C72.7725 26.3197 74.0395 24.8844 76.0668 24.8844C76.8414 24.8844 77.3623 25.0694 78.0007 25.3572V26.8186Z" fill="#009E4D"/>
<path d="M84.0119 25.0156H86.1298V26.2352H84.0119V29.7598C84.0119 30.5665 84.5814 30.7998 84.966 30.7998C85.4435 30.7998 85.9359 30.6287 86.4703 30.2902V31.5597C86.007 31.8214 85.2961 32.0156 84.8605 32.0156C83.4236 32.0156 82.6969 31.1007 82.6969 29.8619V26.2352H81.5332V26.084L84.0119 23.5964V25.0156Z" fill="#009E4D"/>
<path d="M91.1753 25.0168V26.6064H91.2023C91.8751 25.3899 92.5149 24.8856 93.1376 24.8856C93.6749 24.8856 94.1779 25.1443 94.7309 25.6808L94.0319 26.8735C93.63 26.466 93.1106 26.1851 92.7971 26.1851C91.8885 26.1851 91.1753 27.1322 91.1753 28.3058V31.8887H89.8574V25.0168H91.1753Z" fill="#009E4D"/>
<path d="M108.252 26.8186C107.489 26.2859 106.983 26.1293 106.402 26.1293C105.197 26.1293 104.367 27.0795 104.367 28.4711C104.367 29.8888 105.258 30.743 106.625 30.743C107.191 30.743 107.727 30.5926 108.401 30.2871V31.6219C107.947 31.8368 107.099 32.0156 106.402 32.0156C104.406 32.0156 103.014 30.6064 103.014 28.5924C103.014 26.3197 104.287 24.8844 106.314 24.8844C107.09 24.8844 107.606 25.0694 108.252 25.3572V26.8186Z" fill="#009E4D"/>
<path d="M98.2295 31.8887H99.5488V25.0171H98.2295V31.8887Z" fill="#009E4D"/>
<mask id="mask1_1617_5401" style="mask-type:luminance" maskUnits="userSpaceOnUse" x="1" y="1" width="111" height="34">
<path d="M1.09961 1.2523V34.7402H111.708V1.2523" fill="white"/>
</mask>
<g mask="url(#mask1_1617_5401)">
<path d="M99.5923 22.5478C99.721 22.8794 99.4957 23.3484 99.0991 23.5871C98.6994 23.8265 98.2766 23.7498 98.1561 23.4174C98.0356 23.082 98.2541 22.6169 98.6553 22.3774C99.0512 22.1349 99.4718 22.2124 99.5923 22.5478Z" fill="#009E4D"/>
<path d="M40.532 23.1038C40.2993 23.1038 40.2012 23.143 40.1062 23.252C40.0688 23.2942 40.0538 23.3372 40.0403 23.4231L38.8571 28.0253C38.5795 29.6394 36.6464 31.2513 34.1266 31.2513H30.6234L31.2311 28.8865H33.4815C33.7112 28.8865 33.8908 28.799 34.0413 28.6271C34.0966 28.5603 34.1685 28.4559 34.1782 28.3484L35.1122 24.3273C35.3876 22.7124 37.0513 20.9286 39.5703 20.9286H43.1581L42.6993 23.1038H40.532ZM41.3402 25.9084L41.7406 24.4194H45.3853C45.835 22.2603 45.4811 20.2601 44.2036 18.9499C41.6179 16.298 36.2086 17.1991 32.1785 21.1535C31.5491 21.7675 31.0178 22.4314 30.5336 23.11H32.7278L32.2174 24.6021H29.5959C29.3452 25.0726 29.1102 25.5392 28.9305 26.0128H32.0393L31.5417 27.5049H28.4868C27.9644 29.7845 28.2974 31.9106 29.6116 33.2607C32.1651 35.8788 37.5579 34.9585 41.5857 31.0049C42.2907 30.3172 42.8729 29.575 43.3991 28.8128H40.5799L41.0095 27.3238H44.3053C44.5471 26.8502 44.7693 26.382 44.943 25.9084H41.3402Z" fill="#009E4D"/>
</g>
</svg>
