<svg width="155" height="44" viewBox="0 0 155 44" fill="none" xmlns="http://www.w3.org/2000/svg">
<path fill-rule="evenodd" clip-rule="evenodd" d="M97.6166 5.70413C99.1431 4.90981 100.015 3.22186 99.5792 2.03037C99.1431 0.838883 97.3986 0.541011 95.8721 1.43463C94.3456 2.32824 93.4734 3.9169 93.9095 5.10839C94.3456 6.29988 96.0902 6.59775 97.6166 5.70413ZM17.8043 6.89579C14.3153 5.50572 12.1346 5.00926 10.063 5.00926C7.88232 5.00926 6.46489 5.7043 6.46489 6.7965C6.46489 8.13899 8.43058 8.79059 10.7985 9.57555C14.3852 10.7645 18.8947 12.2593 18.8947 16.9242C18.8947 21.0944 14.9695 23.6759 9.51782 23.6759C5.15649 23.6759 3.08486 22.683 0.686133 21.4915V16.7256C4.17519 18.91 6.24682 19.605 8.97265 19.605C11.3714 19.605 12.5707 18.91 12.5707 17.5199C12.6147 16.0805 10.6253 15.4301 8.23316 14.6479C4.68477 13.4876 0.25 12.0376 0.25 7.29295C0.25 3.42061 3.95713 0.938339 9.62685 0.938339C12.3527 0.938339 14.8604 1.43479 17.9134 2.62628V6.89579H17.8043ZM116.697 30.4277H119.641V31.9171H116.697V36.2859C116.697 37.2788 117.461 37.5766 118.006 37.5766C118.66 37.5766 119.314 37.3781 120.077 36.9809V38.5695C119.423 38.8674 118.442 39.1653 117.788 39.1653C115.825 39.1653 114.735 37.9738 114.735 36.4844V32.0164H113.099V31.8178L116.588 28.7398V30.4277H116.697ZM126.401 32.4135V30.4277H124.548V38.9667H126.401V34.4986C126.401 33.1086 127.383 31.9171 128.691 31.9171C129.127 31.9171 129.89 32.2149 130.436 32.7114L131.417 31.222C130.545 30.527 129.89 30.2291 129.127 30.2291C128.255 30.2291 127.383 30.9242 126.401 32.4135ZM136.541 30.4277H138.395V39.066H136.541V30.4277ZM150.389 32.6426C150.425 32.665 150.461 32.6879 150.498 32.7114H150.389V32.6426ZM150.389 32.6426C149.363 32.0032 148.724 31.8178 147.881 31.8178C146.136 31.8178 145.046 33.0093 145.046 34.6972C145.046 36.4844 146.245 37.5766 148.208 37.5766C148.971 37.5766 149.734 37.3781 150.716 36.9809V38.6688C150.062 38.9667 148.862 39.1653 147.881 39.1653C145.046 39.1653 143.083 37.3781 143.083 34.8958C143.083 32.1156 144.828 30.3284 147.663 30.3284C148.753 30.3284 149.516 30.527 150.389 30.9242V32.6426ZM29.689 23.6759C31.4335 23.6759 33.178 23.2788 35.2496 22.683H35.1406V19.3071C32.9599 20.1015 31.8696 20.3993 30.5612 20.3993C27.6173 20.3993 25.6547 18.6121 25.6547 15.9312C25.6547 13.2504 27.6173 11.5625 30.7793 11.5625C32.0877 11.5625 33.6142 12.0589 35.0316 12.6547V9.17947C33.287 8.58373 31.1064 8.18657 29.4709 8.18657C24.0192 8.18657 20.094 11.3639 20.094 15.9312C20.094 20.5979 23.9102 23.6759 29.689 23.6759ZM48.6607 20.7965V14.839C48.6607 12.6547 47.6794 11.5625 46.0439 11.5625C44.8446 11.5625 43.8633 12.2575 42.5549 13.8461V23.3781H37.3213V1.23621H42.5549V10.5695H42.6639C44.1904 8.8816 45.8259 8.08728 47.8975 8.08728C50.9504 8.08728 53.8943 9.77522 53.8943 13.8461V19.9029C52.5318 19.9029 50.9696 20.2663 49.6756 20.5674C49.3128 20.6518 48.9711 20.7313 48.6607 20.7965ZM56.2931 8.38515V19.605C57.9286 19.7043 59.7821 19.9029 61.5266 20.3993V13.8461C62.9441 11.9596 63.8163 11.3639 65.1247 11.3639C66.6512 11.3639 67.7415 12.1582 67.7415 14.3426V23.4773H72.9751V13.9454C72.9751 9.57664 69.5951 8.18657 66.9783 8.18657C64.7976 8.18657 63.1621 8.8816 61.5266 10.5695V8.38515H56.2931ZM83.6604 8.08728C78.5358 8.08728 74.9377 11.3639 74.9377 15.9312C74.9377 20.5979 78.7539 23.6759 84.5326 23.6759C85.841 23.6759 88.894 23.6759 91.9469 21.6901V18.7114C89.5482 20.3 87.9127 20.8958 85.841 20.8958C82.57 20.8958 80.6074 19.3071 80.3894 16.7256H92.165C92.383 11.1653 88.4578 8.08728 83.6604 8.08728ZM80.3894 14.144C80.6074 12.0589 81.9158 10.8674 83.9875 10.8674C85.9501 10.8674 87.3675 12.1582 87.4765 14.144H80.3894ZM99.3612 8.38515H94.1276V23.3781H99.3612V8.38515ZM113.754 1.23621V9.08018C112.445 8.48444 111.028 8.18657 109.501 8.18657C104.813 8.18657 101.542 11.3639 101.542 15.9312C101.542 20.3993 104.813 23.6759 109.283 23.6759C111.028 23.6759 112.445 23.2788 113.863 22.1866V23.3781H119.096V1.23621H113.754ZM113.754 19.3071C112.772 20.2008 111.791 20.4986 110.701 20.4986C108.302 20.4986 106.666 18.6121 106.666 15.9312C106.666 12.9525 108.193 11.1653 110.81 11.1653C111.791 11.1653 112.99 11.5625 113.754 12.0589V19.3071ZM121.059 15.9312C121.059 11.3639 124.657 8.08728 129.781 8.08728C134.579 8.08728 138.504 11.1653 138.395 16.7256H126.51C126.728 19.3071 128.691 20.8958 131.962 20.8958C134.034 20.8958 135.669 20.3 138.068 18.7114V21.6901C135.015 23.6759 131.962 23.6759 130.654 23.6759C124.875 23.6759 121.059 20.5979 121.059 15.9312ZM130.109 10.8674C128.146 10.8674 126.838 12.0589 126.619 14.144H133.707C133.489 12.1582 132.18 10.8674 130.109 10.8674ZM151.37 8.08728C149.348 8.08728 147.637 9.41216 146.136 12.4315V8.38515H140.903V23.4773H146.027V16.9242C147.118 14.2433 148.426 12.5554 150.28 12.5554C151.152 12.5554 152.024 12.8532 153.333 13.6476L154.75 9.47735C153.224 8.48444 152.351 8.08728 151.37 8.08728ZM138.504 27.449C138.722 27.8461 138.286 28.4419 137.741 28.7398C137.196 29.0376 136.651 28.9383 136.432 28.5412C136.214 28.144 136.541 27.5483 137.087 27.2504C137.741 26.8532 138.286 26.9525 138.504 27.449ZM57.1653 33.605L56.5111 35.4915V35.5908H60.6544C60.0002 36.3852 59.346 37.1795 58.5828 37.8745C53.1311 43.0376 45.4988 44.6263 41.4645 41.449C38.3523 38.9979 38.3548 34.4195 40.9714 30.1298H44.7355L45.3897 28.2433H42.3104C42.8096 27.6309 43.3641 27.0325 43.9723 26.4561C49.424 21.2929 57.0563 19.7043 61.0905 22.8816C63.1621 24.5695 63.8163 27.1511 63.2712 30.0305H58.1466L57.4924 31.9171H62.726C62.5334 32.2093 62.3787 32.536 62.2172 32.8769C62.1044 33.115 61.9883 33.36 61.8537 33.605H57.1653ZM41.7676 28.9442C41.921 28.72 42.0744 28.4878 42.2278 28.2433H42.3104C42.1215 28.475 41.9405 28.7088 41.7676 28.9442ZM41.354 29.5325C41.4918 29.3408 41.6297 29.1457 41.7676 28.9442C41.6242 29.1393 41.4863 29.3355 41.354 29.5325ZM41.354 29.5325C41.2208 29.7308 41.0933 29.93 40.9714 30.1298H40.9194L40.9194 30.1298C41.0643 29.9319 41.2091 29.7341 41.354 29.5325ZM40.0471 32.0164C39.72 32.6121 39.5019 33.3071 39.3929 33.9029H43.7542L44.4084 32.0164H40.0471ZM54.0034 34.6972L55.7479 28.839C55.8569 28.4419 56.075 28.2433 56.6202 28.2433H59.455L60.2182 25.5625H54.7666C52.3679 25.5625 49.3149 27.3497 48.7698 29.5341L47.4614 34.8958C47.3523 35.293 46.6981 35.5908 46.262 35.5908H43.2091L42.3368 38.5695H47.7885C50.2962 38.5695 53.3492 36.8816 54.0034 34.6972Z" fill="white"/>
</svg>
