<svg width="35" height="36" viewBox="0 0 35 36" fill="none" xmlns="http://www.w3.org/2000/svg">
<g clip-path="url(#clip0_1_4368)">
<path fill-rule="evenodd" clip-rule="evenodd" d="M18.0621 0.499756C8.72589 0.499756 1.12141 8.21342 1.12141 17.6885C1.12141 20.9076 1.98189 24.0204 3.62756 26.7232L0.174881 33.4043C-0.050995 33.8447 -0.061751 34.4672 0.164125 34.9227C0.346977 35.2872 0.637389 35.4998 0.938556 35.4998C1.01385 35.4998 1.0999 35.4846 1.18594 35.439L9.2637 32.387C11.9097 34.0117 14.9429 34.8772 18.0621 34.8772C27.3983 34.8772 35.0028 27.1635 35.0028 17.6885C35.0028 8.21342 27.3983 0.499756 18.0621 0.499756ZM18.0513 32.2503C15.0827 32.2503 12.2001 31.4 9.7262 29.8056C9.60789 29.7297 9.46806 29.6841 9.33899 29.6841C9.25294 29.6841 9.17765 29.6993 9.0916 29.7297L3.2511 31.9466L5.58515 27.4217C5.85405 26.9054 5.82178 26.1765 5.4991 25.721C3.85343 23.3371 2.9822 20.5583 2.9822 17.7037C2.9822 9.68631 9.73696 3.15702 18.0513 3.15702C26.3657 3.15702 33.1205 9.68631 33.1205 17.7037C33.1205 25.721 26.3657 32.2503 18.0513 32.2503Z" fill="#33323C"/>
<path fill-rule="evenodd" clip-rule="evenodd" d="M16.8805 16.656H12.7717C12.2554 16.656 11.8359 17.2482 11.8359 17.977C11.8359 18.7059 12.2554 19.2981 12.7717 19.2981H16.8805C17.3968 19.2981 17.8163 18.7059 17.8163 17.977C17.8163 17.2482 17.3968 16.656 16.8805 16.656Z" fill="#33323C"/>
<path fill-rule="evenodd" clip-rule="evenodd" d="M25.2711 16.656H21.1623C20.646 16.656 20.2266 17.2482 20.2266 17.977C20.2266 18.7059 20.646 19.2981 21.1623 19.2981H25.2711C25.7874 19.2981 26.2069 18.7059 26.2069 17.977C26.2069 17.2482 25.7874 16.656 25.2711 16.656Z" fill="#33323C"/>
</g>
<defs>
<clipPath id="clip0_1_4368">
<rect width="35" height="35" fill="white" transform="translate(0 0.499756)"/>
</clipPath>
</defs>
</svg>
