<svg width="64" height="64" viewBox="0 0 64 64" fill="none" xmlns="http://www.w3.org/2000/svg">
<rect x="0.25" y="0.25" width="63.5" height="63.5" rx="11.75" fill="#F9FAFD" fill-opacity="0.1"/>
<rect x="0.25" y="0.25" width="63.5" height="63.5" rx="11.75" stroke="white" stroke-width="0.5"/>
<path fill-rule="evenodd" clip-rule="evenodd" d="M51.8337 40.8627C52.0622 40.4513 52.0165 39.583 51.9251 37.9605C51.9022 37.5492 51.8794 37.0693 51.8565 36.5437C51.4679 36.3609 50.965 36.2695 50.4622 36.1781C49.2735 35.9496 47.7649 35.6525 47.9477 34.0757C47.9934 33.6873 48.3135 33.2074 48.6563 32.7046C48.702 32.6361 48.7478 32.5675 48.7706 32.5218C48.8392 32.4076 48.9078 32.3162 48.9764 32.2248C49.6392 31.2421 49.7535 31.105 48.8849 30.2595C48.7706 30.1453 48.6106 30.0082 48.4506 29.8482C47.7877 29.2541 46.9648 28.5 46.7362 27.8373L46.6448 27.563L46.8734 27.4259C47.2391 27.1974 47.5591 27.0146 47.8563 26.8775C48.7249 26.3976 49.2507 26.1005 50.2107 24.958C51.9022 22.9242 52.268 19.4736 51.6508 18.1482C51.5594 17.9654 51.4451 17.7597 51.2393 17.714C50.6907 17.8968 49.7764 18.9023 48.9535 19.8164C48.062 20.799 47.2163 21.713 46.5534 21.9873L46.4848 22.0101H46.4162C45.7762 22.0101 42.0045 17.8283 41.9817 17.7826L41.9131 17.6455L41.9588 17.5084C42.1874 16.8914 43.0103 16.1373 43.9475 15.2689C44.9076 14.3777 46.0048 13.3951 46.2105 12.6867C46.0505 12.0468 44.3818 12.0697 43.5589 12.0925C43.4218 12.0925 43.2846 12.0925 43.1703 12.0925C41.2959 12.0925 39.6044 13.2808 38.9644 13.7836C37.73 14.7662 37.3414 15.4974 36.9985 16.1601C36.7928 16.5257 36.6099 16.8685 36.3128 17.1884L36.1071 17.4169L35.8556 17.2341C35.4213 16.8914 34.9641 16.4115 34.507 15.9316C33.8898 15.2689 33.1126 14.4462 32.724 14.4462C32.4269 14.4462 31.6268 14.9947 31.2611 15.2461C31.1239 15.3375 31.0096 15.406 30.9182 15.4746C29.9581 16.0916 29.8439 16.1601 29.1581 15.9087C28.9752 15.8402 28.7695 15.7716 28.4495 15.6802L28.2438 15.6345L28.2666 15.4289C28.0838 14.6519 27.9466 13.9435 27.8095 13.258C27.6723 12.5496 27.5809 12.2525 27.398 12.1382C27.1694 11.9783 26.6665 12.0011 25.8436 12.0011C25.5465 12.0011 25.1807 12.0011 24.7693 12.0011C24.655 12.0011 24.5407 12.0011 24.4264 12.0011C23.3978 12.0011 22.8949 12.0468 22.7349 12.5953C22.6435 12.9152 22.5977 13.2808 22.5292 13.6236C22.392 14.6291 22.2091 15.8859 20.7462 16.0459C20.2433 16.0916 19.9462 15.863 19.6719 15.6802C19.6033 15.6345 19.5119 15.566 19.4433 15.5203C19.3518 15.4517 19.2147 15.3603 19.0775 15.2689C18.7118 15.0175 17.866 14.4234 17.5232 14.4691C17.066 14.6976 14.6201 17.1199 14.4144 17.5312C14.323 17.8283 14.7116 18.3539 15.0773 18.8794C15.7174 19.7707 16.586 21.0046 15.4431 22.033C15.0545 22.3757 14.3001 22.49 13.5687 22.6043C13.2486 22.65 12.9286 22.6957 12.7229 22.7642C11.9914 22.9699 11.9686 23.267 12.0143 24.2953C12.0143 24.4781 12.0371 24.6609 12.0371 24.8894C12.0371 25.2322 12.0371 25.5293 12.0371 25.8035C12.0371 26.7632 12.0371 27.3345 12.1514 27.5402C12.22 27.6773 12.4257 27.723 12.9972 27.7916C13.4315 27.8601 14.0258 27.9515 14.803 28.1572C15.3973 28.3171 15.7631 28.6142 15.9231 29.0484C16.266 30.0082 15.3973 31.265 14.803 32.0877C14.6659 32.2933 14.483 32.5447 14.4601 32.6361C14.2773 33.2074 15.123 33.9386 15.8545 34.6013C16.4488 35.1269 16.9974 35.6296 17.2032 36.1324L17.2946 36.3609L17.1117 36.5209C16.9517 36.658 16.7231 36.7951 16.4031 36.9779C15.0773 37.7091 12.6086 39.1031 12.0829 43.1021C11.9229 44.3132 12.0371 45.8214 12.4715 46.2099C13.0429 46.5298 14.2544 45.1816 15.2373 44.1076C16.0145 43.2621 16.746 42.4623 17.4089 42.0738L17.6375 41.9367L22.232 46.4841L18.3918 50.4375C18.3232 50.506 18.2775 50.5517 18.2089 50.5974C17.8432 50.9402 17.706 51.0545 17.8203 51.6257C19.4433 52.4484 22.8949 51.8314 24.815 50.3461C26.1408 49.3177 26.4608 48.7236 26.8494 47.9466C27.0094 47.6267 27.2151 47.2839 27.4894 46.8726L27.6723 46.5984L27.9466 46.7584C28.4952 47.0783 29.0667 47.7181 29.6153 48.3123C30.0267 48.7693 30.4382 49.2263 30.7353 49.432C31.2382 49.7748 31.7868 49.3863 32.5869 48.7693C33.1355 48.358 33.6384 47.9695 34.187 47.9466C34.2098 47.9466 34.2327 47.9466 34.2555 47.9466C35.8328 47.9466 35.9928 49.3177 36.1071 50.3232C36.1528 50.8259 36.2214 51.3287 36.4271 51.6486C36.7471 52.1513 40.4502 52.0371 40.9988 51.7857C41.3874 51.5343 41.4788 50.7117 41.5702 50.049C41.6159 49.7748 41.6388 49.5234 41.6845 49.3177C41.8217 48.6779 42.1874 48.2209 42.7131 48.038C43.216 47.8324 43.8104 47.9466 44.3361 48.3123C45.4104 49.0664 46.0505 49.5005 46.4162 49.5234C46.7362 49.5463 47.0105 49.2492 47.7191 48.5408C47.8792 48.358 48.062 48.1752 48.2906 47.9695C48.382 47.8781 48.4735 47.7867 48.5878 47.6953C49.2049 47.1468 49.7078 46.6441 49.525 46.0957C49.4335 45.7986 49.1821 45.4558 48.9078 45.0902C48.2906 44.2675 47.4677 43.1707 48.4963 42.0509C48.8621 41.6625 49.2964 41.6168 49.7078 41.5482C49.8221 41.5254 49.9593 41.5254 50.0964 41.4796H50.1421C51.1936 41.2968 51.6508 41.2054 51.8337 40.8627ZM35.1241 19.2222L35.2842 18.9709L35.3985 19.0166C35.3985 19.0166 35.4213 19.0166 35.4213 18.9937L35.9013 18.6738L36.2214 22.2843L35.8328 22.2615C35.7185 22.2615 35.6042 22.2615 35.5356 22.2615C35.0556 22.2615 34.9641 22.1701 34.7356 21.7359L34.7127 21.6902C34.5984 21.4617 34.3698 20.9818 34.347 20.6619V20.5705L35.0327 19.3136C35.0784 19.2451 35.1013 19.2222 35.1241 19.2222ZM15.7174 32.8418L15.6488 32.7046L15.6945 32.5675C16.0602 31.6535 16.4717 31.1964 16.7688 30.8308C17.226 30.3052 17.3403 30.1453 16.7688 28.797C16.1288 27.3117 16.1288 27.3117 15.4431 27.2431C15.0087 27.1974 14.3458 27.1289 13.3172 26.8089L13.0886 26.7404V23.9068L13.2486 23.8154C13.7058 23.5412 14.3001 23.4269 14.8944 23.3355C15.2145 23.2898 15.5116 23.2212 15.7631 23.1527C16.3117 22.9927 16.3802 22.7642 16.586 22.2158C16.6545 22.0558 16.7231 21.873 16.7917 21.6673C17.386 20.3191 17.1117 19.9535 16.5631 19.2222C16.3117 18.8794 15.9917 18.4681 15.7174 17.8968L15.6488 17.7369L15.7631 17.5769C16.1288 17.0742 16.9746 16.1373 17.5232 15.8173L17.6603 15.7488L17.7975 15.7945C18.849 16.1144 19.2833 16.5486 19.6033 16.8685C20.0147 17.3027 20.1976 17.4627 22.4834 16.5257C23.2149 16.2287 23.2835 15.5203 23.3521 14.789C23.4206 14.0349 23.5121 13.1209 24.6093 13.0294C24.9293 13.0066 25.3407 13.0066 25.7293 13.0294C25.9122 13.0294 26.0951 13.0294 26.2551 13.0294H26.438L26.5294 13.1894C26.8494 13.6921 26.9866 14.3777 27.1237 15.0175C27.1694 15.2461 27.2151 15.4746 27.2609 15.6802C27.4209 16.3429 27.558 16.3886 28.1295 16.5943C28.3123 16.6628 28.5181 16.7314 28.7467 16.8228C28.9067 16.8914 29.0438 16.9599 29.181 17.0285C29.8439 17.3255 29.981 17.3941 30.6439 16.9371C30.7582 16.8457 30.8953 16.7543 31.0096 16.6628C31.5582 16.2744 32.1297 15.863 32.7469 15.7031L32.9755 15.6345L33.1126 15.8402C33.3183 16.1601 33.5469 16.3658 33.7984 16.5943C34.0955 16.8685 34.3927 17.1427 34.6441 17.5998L34.7127 17.7369L34.667 17.874C34.5298 18.331 34.187 18.8109 33.8669 19.2679C33.5241 19.7478 33.1355 20.2962 33.1583 20.639C33.1812 20.7761 33.3641 21.1875 33.5012 21.4617C33.6155 21.713 33.7298 21.9644 33.8212 22.1701C33.9812 22.6271 34.2327 23.0384 34.3698 23.1984C34.507 23.2212 34.5984 23.3355 34.6441 23.3812L34.8498 23.6097L34.6441 23.8382L31.3982 27.1517C31.3297 27.2203 31.2611 27.2888 31.1925 27.3802C30.9411 27.6773 30.5982 28.0886 30.0496 28.0429L29.5696 27.9972L29.7753 27.563C30.7811 25.3921 30.461 23.3584 28.8609 21.6902C27.7409 20.5248 26.7808 20.1363 24.9293 20.1363C22.5063 20.1363 20.8605 21.9873 20.3119 23.8154C19.7862 25.5521 20.0605 27.9744 22.4377 29.5511C23.855 30.488 25.9122 30.5794 27.6723 29.7568L28.4495 29.3912L28.1295 30.191C27.878 30.8308 24.1978 34.4185 23.6949 34.7156L23.4664 34.8527L23.2835 34.6699C23.2606 34.647 23.2149 34.6013 23.1921 34.5785C22.6892 34.0529 22.6892 34.0529 22.3692 33.9386C22.2777 33.9158 22.1406 33.8701 21.9806 33.8015C21.8206 33.733 21.6377 33.6416 21.432 33.5502C21.1348 33.413 20.7233 33.2074 20.5405 33.2074C20.0833 33.1617 19.649 33.5273 19.169 33.8701C18.7347 34.2128 18.2775 34.5556 17.7518 34.6699L17.6375 34.6927L17.546 34.647C16.9746 34.4185 15.9688 33.3902 15.7174 32.8418ZM28.1066 28.18C27.398 28.9113 26.3237 29.2998 25.2265 29.2998C24.655 29.2998 24.0835 29.1855 23.5349 28.9798C21.9806 28.34 21.0891 26.9003 21.0891 25.0037C21.0891 22.947 23.032 21.1646 25.2265 21.1646C26.918 21.1646 28.3123 22.0787 28.9524 23.5869C29.6153 25.1636 29.2724 27.0146 28.1066 28.18ZM22.3463 35.9724L22.0263 36.0638C21.7748 36.1324 21.4091 36.1781 20.9976 36.1781C20.5176 36.1781 19.9919 36.1324 19.4433 36.1095L18.8032 36.0638L18.8947 35.6753C19.009 35.2412 19.1233 35.1498 19.489 34.8984L19.649 34.7841C19.8547 34.647 20.0833 34.4642 20.5862 34.4642H20.6091C20.9291 34.4642 21.5463 34.6927 21.7748 34.8527C21.8663 34.8984 21.912 34.9441 21.9348 34.967C22.1177 35.0584 22.1634 35.1726 22.1863 35.3554C22.1863 35.424 22.2091 35.5154 22.2549 35.6753L22.3463 35.9724ZM27.6266 40.3142C27.4666 40.4742 27.3066 40.6341 27.1694 40.7712C26.7123 41.2054 26.5065 41.4111 26.5522 41.8453C26.598 42.188 26.6665 42.4623 26.7351 42.7593C26.8494 43.2621 26.9866 43.7877 26.8951 44.5875C26.4608 48.2437 23.8778 50.7345 20.2662 50.963L19.7862 50.9859L19.9004 50.5289C20.0376 50.0261 20.129 49.9119 20.4262 49.6377C20.5862 49.5005 20.7919 49.3406 21.1348 48.975C21.5691 48.5179 21.9806 48.1295 22.2777 47.8095C22.9178 47.1697 23.3521 46.7584 23.3521 46.4613C23.3521 46.2328 23.1235 45.9129 22.552 45.3644C22.4606 45.273 22.2549 45.0673 21.9577 44.7474C19.4433 42.1652 17.9575 40.7712 17.5232 40.5427C16.8603 40.817 16.1059 41.6396 15.4202 42.3937C14.7116 43.1707 14.1173 43.8562 13.5229 44.039L13.1572 44.1533L13.1344 43.7648C12.9058 42.7365 13.2486 41.4796 14.0258 40.3371C15.1916 38.6461 17.1574 37.4349 19.3061 37.115C20.4033 36.9322 21.0662 37.1607 21.5462 37.3207C22.1863 37.5263 22.4606 37.6177 23.5807 36.4523C24.6779 35.3097 25.6836 34.3043 26.6665 33.3673C27.8095 32.2705 28.9295 31.1279 30.0267 30.031C30.9411 29.117 31.8783 28.1572 32.8383 27.2203C33.2726 26.8089 33.6612 26.4205 34.0041 26.0777C37.5243 22.6728 37.5243 22.6728 37.3186 21.8273C37.2271 21.4388 37.0671 20.8904 37.0671 19.9535C37.0671 16.2744 39.993 13.258 43.6961 13.098L44.2218 13.0752L44.0389 13.555C43.7875 14.1949 42.896 15.0404 42.0045 15.8402C41.4102 16.3886 40.8159 16.9371 40.6559 17.2341C40.3816 17.7369 40.633 18.0339 41.2502 18.5595C41.3645 18.6509 41.4788 18.7652 41.5931 18.8566C41.9131 19.1765 42.256 19.5193 42.6217 19.8849C42.8732 20.1363 43.1246 20.3877 43.376 20.639C43.9246 21.1875 44.4047 21.6673 44.7704 22.0787C45.6162 22.9699 46.119 23.4955 46.4619 23.4955C46.8048 23.4955 47.3305 22.947 48.1992 22.033L48.5192 21.713C48.5878 21.6445 48.6563 21.5531 48.7478 21.4617C49.2507 20.9361 49.8678 20.2505 50.485 20.022L50.9193 19.8621L50.9422 20.3191C51.0565 21.7587 50.3936 23.3812 49.2049 24.6609C47.8106 26.1691 45.9133 26.9918 43.8789 26.9918C42.6903 26.9918 42.1188 26.8089 41.7988 26.6718C41.4788 26.5576 41.4788 26.5576 40.4044 27.6316L39.9701 28.0658C39.6501 28.3857 39.3072 28.7056 38.9644 29.0484C38.2558 29.7339 37.5243 30.4423 36.9071 31.105C35.6042 32.499 33.8898 34.1671 32.2211 35.7896C30.5296 37.3435 28.8609 38.966 27.6266 40.3142ZM45.4104 28.4314L43.4446 29.6654L43.1703 29.574C42.576 29.3912 41.5702 29.0941 41.776 28.1115L41.8217 27.9058L41.9588 27.8601C42.0731 27.7687 42.2331 27.7687 42.4617 27.7687H42.5303C42.576 27.7687 42.6674 27.7687 42.736 27.7916C42.8274 27.7916 42.9417 27.8144 43.0332 27.8373C43.1475 27.8601 43.2617 27.883 43.3989 27.9058C43.536 27.9287 43.6732 27.9287 43.7875 27.9287C44.1532 27.9515 44.4961 27.9515 44.8618 28.1343L45.4104 28.4314ZM38.6215 34.6927C40.1987 34.6699 41.4559 35.3097 42.1874 36.5209C42.9646 37.8234 42.9874 39.6058 42.2103 40.9541C41.5016 42.2109 40.2673 42.8964 38.7586 42.8964C36.5185 42.8964 34.6441 41.0683 34.5984 38.8517C34.5756 36.6351 36.4042 34.7384 38.6215 34.6927ZM28.5181 45.0673L28.0152 45.5015L27.718 41.6396L28.1295 41.7082C29.0438 41.8453 29.6381 42.5994 29.5467 43.4906C29.4781 44.0619 28.8838 44.7474 28.5181 45.0673ZM49.4107 40.6341C49.2049 40.657 48.9764 40.7027 48.7021 40.7712C48.1763 40.8855 47.8334 40.9541 47.6963 41.0455C47.6048 41.114 47.5591 41.2283 47.4448 41.5482C47.3991 41.7082 47.3305 41.8681 47.2391 42.0966C47.1477 42.3023 47.0562 42.508 46.9648 42.6679C46.6905 43.1935 46.5534 43.4906 46.8962 44.0162L47.2391 44.5189C48.062 45.7529 48.2677 46.0957 48.1992 46.4613C48.1535 46.7127 47.9477 46.8498 47.7649 46.964C47.4906 47.1468 47.102 47.3982 46.6448 48.1523L46.5076 48.3808L46.2562 48.2894C45.5933 48.0609 45.1133 47.7181 44.6561 47.3982C44.4961 47.2839 44.3361 47.1697 44.1761 47.0554C43.4903 46.6212 43.3532 46.6898 42.7817 46.964C42.6217 47.0554 42.416 47.124 42.1874 47.2382C41.9588 47.3297 41.7531 47.3982 41.5931 47.4439C40.953 47.6496 40.953 47.6724 40.7702 48.5636C40.7016 48.8836 40.6787 49.1578 40.6559 49.4091C40.5416 50.5289 40.2902 50.9402 38.8272 50.9402C38.4615 50.9402 38.05 50.9173 37.5243 50.8716L37.2728 50.8488L37.2271 50.5974C37.1586 50.2775 37.09 49.9576 37.0214 49.6377C36.93 49.1578 36.8157 48.6779 36.7014 48.2437C36.5185 47.6267 36.3585 47.5582 35.8556 47.4211C35.6499 47.3525 35.3985 47.2839 35.1241 47.1468C34.987 47.0783 34.8498 47.0097 34.7356 46.964C34.1184 46.6441 34.0269 46.5984 33.3412 47.0554C33.2269 47.124 33.1126 47.2154 32.9526 47.3297C32.4497 47.6953 31.8097 48.1523 31.3068 48.2894L31.1696 48.3123L31.0554 48.2437C30.5296 47.9238 29.5924 47.124 29.3181 46.3699L29.2724 46.2556L29.3181 46.1414C29.4553 45.6615 29.7753 45.2273 30.0724 44.7931C30.4153 44.2904 30.7582 43.8334 30.7582 43.3992L29.8667 41.1369C29.7981 41.0455 29.7753 40.9998 29.7524 40.9769C29.5696 40.9084 29.4781 40.817 29.2953 40.5656L29.181 40.3828L29.2953 40.2C29.6153 39.6515 33.1126 36.1324 33.8212 35.8125L34.5298 35.4925L34.2784 36.2238C34.2098 36.4523 34.1184 36.6808 34.0269 36.8865C33.7984 37.4578 33.5926 38.0062 33.5926 38.6918C33.5926 41.4568 35.6956 43.6962 38.4843 43.8562C39.833 43.9476 41.2273 43.3992 42.3017 42.3937C43.2846 41.4796 43.8332 40.2914 43.8332 39.1488C43.8332 36.8865 43.1017 35.4468 41.4559 34.4185C39.4901 33.2074 38.0957 33.6644 37.09 33.9843C36.77 34.0986 36.4728 34.19 36.1985 34.2128L35.6956 34.2586L35.8328 33.7558C35.9928 33.2302 36.6557 32.5904 37.4786 31.8591C37.6386 31.722 37.7757 31.5849 37.89 31.4707C38.1415 31.2193 38.3929 30.9679 38.6443 30.6937C39.1015 30.2138 39.5815 29.7111 40.1073 29.2998L40.2902 29.1627L40.4959 29.2769C40.7473 29.414 40.8616 29.5511 40.9302 29.6425C41.0445 29.7796 41.1359 29.8939 41.7531 30.1224C41.9588 30.191 42.2331 30.3281 42.4846 30.4423C42.7817 30.5795 43.1932 30.7623 43.3303 30.7851C43.6503 30.8308 44.5418 30.2367 45.0676 29.8939C45.4562 29.6425 45.7762 29.414 46.0505 29.2998L46.2105 29.2312L46.3476 29.2998C46.9648 29.6197 47.8791 30.488 48.222 31.1279L48.2906 31.265L48.2449 31.4021C48.0849 31.882 47.6506 32.499 47.3305 32.9789C47.2391 33.0931 47.1705 33.2074 47.102 33.3216C46.6677 33.9615 46.7134 34.0529 46.9648 34.6242C47.0334 34.7613 47.102 34.9212 47.1934 35.1041C47.3077 35.3783 47.3763 35.6296 47.4448 35.8125C47.6277 36.3837 47.6734 36.5209 48.2906 36.658C48.542 36.7265 48.8163 36.7722 49.0678 36.8179C49.6621 36.9322 50.3021 37.0464 50.805 37.2978L50.9879 37.3892V37.5949C51.0336 40.04 50.9879 40.3599 49.4107 40.6341Z" fill="white"/>
</svg>
