<svg width="44" height="54" viewBox="0 0 44 54" fill="none" xmlns="http://www.w3.org/2000/svg">
<path d="M1.24544 2.48103H42.747C43.0813 2.48103 43.3974 2.35426 43.6284 2.11882C43.8655 1.88338 43.9932 1.56946 43.9932 1.24347C43.9932 0.911442 43.8655 0.597524 43.6284 0.368122C43.3913 0.132683 43.0813 0.00590813 42.747 0.00590813H1.24544C0.552435 -0.000128766 -0.00683594 0.555265 -0.00683594 1.24347C-0.00683594 1.5755 0.120824 1.88942 0.357906 2.11882C0.594988 2.35426 0.911097 2.48103 1.24544 2.48103Z" fill="#33323C"/>
<path d="M12.6494 29.4598L11.7254 38.2555C11.7011 38.4668 11.7376 38.6781 11.8227 38.8773C11.9564 39.1791 12.1996 39.4146 12.5096 39.5414C12.8197 39.6621 13.1601 39.6621 13.464 39.5293L21.8896 35.9313L30.8865 39.8372C31.0446 39.9096 31.2148 39.9398 31.385 39.9398H31.3911C31.458 39.9398 31.5248 39.9338 31.5917 39.9217C32.2726 39.813 32.7346 39.1731 32.6191 38.503L31.2148 29.7314L37.9017 22.7045C38.0719 22.5234 38.1875 22.3 38.23 22.0525C38.2847 21.7265 38.2057 21.3945 38.0112 21.1288C37.8166 20.8632 37.5248 20.6821 37.1966 20.6278L27.9139 19.1246L23.0264 10.9205C22.8014 10.5401 22.3394 10.2805 21.9321 10.3107C21.4884 10.3168 21.0811 10.5582 20.8622 10.9446L16.4245 18.7865L6.7224 20.6338C6.47923 20.6821 6.25431 20.7968 6.07802 20.9658C5.58562 21.4428 5.57954 22.2276 6.05978 22.7165L12.6494 29.4598ZM17.458 21.1107C17.8227 21.0443 18.1327 20.821 18.3151 20.501L21.9747 14.0355L26.0598 20.8874C26.2482 21.2073 26.5643 21.4246 26.9352 21.479L34.4549 22.6984L28.9656 28.4697C28.6981 28.7474 28.5765 29.1398 28.6373 29.5201L29.7862 36.6437L22.3881 33.432C22.23 33.3656 22.0598 33.3294 21.8896 33.3294C21.7194 33.3294 21.5552 33.3596 21.3911 33.432L14.4306 36.4022L15.1966 29.1338C15.233 28.7655 15.1115 28.4033 14.8501 28.1377L9.46404 22.626L17.458 21.1107Z" fill="#33323C"/>
<path d="M42.7409 5.14925H1.24544C0.552435 5.14925 -0.00683594 5.71068 -0.00683594 6.39285V42.4512C-0.00683594 42.9221 0.260641 43.3507 0.686173 43.562L21.4339 53.867C21.6041 53.9515 21.7986 53.9998 21.9932 53.9998C22.1877 53.9998 22.3822 53.9575 22.5524 53.867L43.3002 43.562C43.7257 43.3507 43.9932 42.9221 43.9932 42.4512V6.39285C43.9932 5.71068 43.4339 5.14925 42.7409 5.14925ZM41.4947 41.6845L21.9932 51.3677L2.49164 41.6845V7.63645H41.4886V41.6845H41.4947Z" fill="#33323C"/>
</svg>
