<svg width="34" height="23" viewBox="0 0 34 23" fill="none" xmlns="http://www.w3.org/2000/svg">
<path d="M29.5066 13.4598C28.3084 13.4598 27.4097 14.3473 27.4097 15.5305C27.4097 16.7138 28.3084 17.6013 29.5066 17.6013C30.7048 17.6013 31.6035 16.7138 31.6035 15.5305C31.6035 14.3473 30.7048 13.4598 29.5066 13.4598ZM29.4317 14.717C29.8811 14.717 30.2555 15.0868 30.2555 15.5305C30.2555 15.9743 29.8811 16.2701 29.4317 16.2701C28.9824 16.2701 28.6079 15.9003 28.6079 15.4566C28.6079 15.0129 28.9824 14.717 29.4317 14.717Z" fill="#33323C"/>
<path d="M24.7885 13.4598C23.5903 13.4598 22.6916 14.3473 22.6916 15.5305C22.6916 16.7138 23.5903 17.6013 24.7885 17.6013C25.9868 17.6013 26.8855 16.7138 26.8855 15.5305C26.8855 14.3473 25.9119 13.4598 24.7885 13.4598ZM24.7885 16.2701C24.3392 16.2701 23.9648 15.9003 23.9648 15.4566C23.9648 15.0129 24.3392 14.6431 24.7885 14.6431C25.2379 14.6431 25.6123 15.0129 25.6123 15.4566C25.6123 15.9003 25.163 16.2701 24.7885 16.2701Z" fill="#33323C"/>
<path d="M17.7489 14.865H3.07048C2.77092 14.865 2.39648 15.1608 2.39648 15.5305C2.39648 15.9003 2.69603 16.1961 3.07048 16.1961H17.7489C18.0485 16.1961 18.4229 15.9003 18.4229 15.5305C18.4229 15.1608 18.0485 14.865 17.7489 14.865Z" fill="#33323C"/>
<path d="M29.5066 2.66238C28.3084 2.66238 27.4097 3.54984 27.4097 4.73312C27.4097 5.9164 28.3084 6.80386 29.5066 6.80386C30.7048 6.80386 31.6035 5.9164 31.6035 4.73312C31.6035 3.62379 30.7048 2.66238 29.5066 2.66238ZM29.4317 3.91961C29.8811 3.91961 30.2555 4.28939 30.2555 4.73312C30.2555 5.17685 29.8811 5.54662 29.4317 5.54662C28.9824 5.54662 28.6079 5.17685 28.6079 4.73312C28.6079 4.28939 28.9824 3.91961 29.4317 3.91961Z" fill="#33323C"/>
<path d="M24.7885 2.66238C23.5903 2.66238 22.6916 3.54984 22.6916 4.73312C22.6916 5.9164 23.5903 6.80386 24.7885 6.80386C25.9868 6.80386 26.8855 5.9164 26.8855 4.73312C26.8106 3.62379 25.9119 2.66238 24.7885 2.66238ZM24.7885 5.54662C24.3392 5.54662 23.9648 5.17685 23.9648 4.73312C23.9648 4.28939 24.3392 3.91961 24.7885 3.91961C25.2379 3.91961 25.6123 4.28939 25.6123 4.73312C25.6123 5.17685 25.163 5.54662 24.7885 5.54662Z" fill="#33323C"/>
<path d="M17.7489 4.14148H3.07048C2.69603 4.14148 2.39648 4.4373 2.39648 4.73312C2.39648 5.02894 2.69603 5.39871 3.07048 5.39871H17.7489C18.0485 5.39871 18.4229 5.10289 18.4229 4.73312C18.4229 4.36334 18.0485 4.14148 17.7489 4.14148Z" fill="#33323C"/>
<path d="M31.3789 9.76206C32.8018 9.76206 33.9251 8.65273 33.9251 7.24759V2.51447C33.9251 1.10932 32.8018 0 31.3789 0H2.54626C1.12335 0 0 1.10932 0 2.51447V7.32154C0 8.72669 1.12335 9.83601 2.54626 9.83601H3.37004V10.8714H2.54626C1.12335 10.7974 0 11.9807 0 13.3119V18.119C0 19.5241 1.12335 20.6334 2.54626 20.6334H3.37004V22.3344C3.37004 22.6302 3.6696 23 4.04405 23H29.9559C30.2555 23 30.63 22.7042 30.63 22.3344V20.6334H31.4537C32.8767 20.6334 34 19.5241 34 18.119V13.3119C34 11.9068 32.8767 10.7974 31.4537 10.7974H30.63V9.76206H31.3789ZM29.3568 20.2637V21.299H4.71806V20.2637H29.3568ZM31.4537 19.0064H2.54626C1.87225 19.0064 1.34802 18.4887 1.34802 17.8232V13.0161C1.34802 12.3505 1.87225 11.8328 2.54626 11.8328H31.4537C31.978 11.8328 32.652 12.3505 32.652 13.0161V17.8232C32.652 18.4887 32.1278 19.0064 31.4537 19.0064ZM29.3568 9.61415V10.6495H4.71806V9.61415H29.3568ZM31.4537 8.28296H2.54626C1.87225 8.28296 1.34802 7.76527 1.34802 7.09968V2.36656C1.34802 1.70096 1.87225 1.18328 2.54626 1.18328H31.4537C31.978 1.18328 32.652 1.70096 32.652 2.36656V7.17363C32.652 7.76527 32.1278 8.28296 31.4537 8.28296Z" fill="#33323C"/>
</svg>
