<svg width="55" height="55" viewBox="0 0 55 55" fill="none" xmlns="http://www.w3.org/2000/svg">
<g clip-path="url(#clip0_462_14124)">
<path d="M45.2614 -0.125H9.83137C4.36827 -0.125 -0.125 4.93691 -0.125 11.2548V43.7452C-0.125 49.9553 4.27411 55.125 9.83137 55.125H45.1686C50.6317 55.125 55.125 50.0631 55.125 43.7452V11.2548C55.125 5.04553 50.7266 -0.125 45.2614 -0.125ZM52.5563 43.7452C52.5563 48.3654 49.257 52.2206 45.1686 52.2206H9.83137C5.83387 52.2206 2.44372 48.4695 2.44372 43.7452V11.2548C2.44372 6.63458 5.74297 2.77944 9.83137 2.77944H45.1686C49.1661 2.77944 52.5563 6.53052 52.5563 11.2548V43.7452Z" fill="#33323C" stroke="#33323C" stroke-width="0.25" stroke-linejoin="round"/>
<path d="M10.4172 10.8376L10.4287 10.8442L10.4406 10.8502L19.702 15.5152C19.9142 15.6414 20.0897 15.8986 20.0897 16.2434C20.0897 16.6531 19.9593 16.8528 19.7323 16.9567L19.7236 16.9607L19.7152 16.965L11.0895 21.3183L10.8148 21.4569V21.7646V24.8438C10.8148 25.4326 10.4672 25.7241 10.2018 25.7241C9.89009 25.7241 9.49609 25.3765 9.49609 24.8438V24.8343V24.8247V24.8149V24.8049V24.7947V24.7843V24.7737V24.763V24.752V24.7409V24.7295V24.718V24.7063V24.6944V24.6824V24.6701V24.6577V24.645V24.6322V24.6193V24.6061V24.5928V24.5793V24.5656V24.5517V24.5377V24.5234V24.509V24.4945V24.4797V24.4648V24.4498V24.4345V24.4191V24.4035V24.3877V24.3718V24.3557V24.3395V24.3231V24.3065V24.2897V24.2728V24.2558V24.2385V24.2211V24.2036V24.1859V24.168V24.15V24.1318V24.1135V24.095V24.0763V24.0575V24.0386V24.0195V24.0002V23.9808V23.9612V23.9415V23.9217V23.9017V23.8815V23.8612V23.8408V23.8202V23.7995V23.7786V23.7576V23.7365V23.7152V23.6938V23.6722V23.6505V23.6286V23.6066V23.5845V23.5623V23.5399V23.5174V23.4947V23.4719V23.449V23.426V23.4028V23.3795V23.356V23.3325V23.3088V23.285V23.261V23.237V23.2128V23.1884V23.164V23.1395V23.1148V23.09V23.0651V23.04V23.0149V22.9896V22.9642V22.9387V22.9131V22.8874V22.8615V22.8356V22.8095V22.7833V22.757V22.7306V22.7041V22.6775V22.6508V22.624V22.597V22.57V22.5428V22.5156V22.4883V22.4608V22.4333V22.4056V22.3779V22.35V22.3221V22.294V22.2659V22.2376V22.2093V22.1809V22.1524V22.1237V22.095V22.0662V22.0374V22.0084V21.9793V21.9502V21.9209V21.8916V21.8622V21.8327V21.8031V21.7735V21.7437V21.7139V21.684V21.654V21.6239V21.5938V21.5635V21.5332V21.5028V21.4724V21.4418V21.4112V21.3806V21.3498V21.319V21.2881V21.2571V21.2261V21.195V21.1638V21.1325V21.1012V21.0699V21.0384V21.0069V20.9753V20.9437V20.912V20.8803V20.8484V20.8166V20.7846V20.7526V20.7206V20.6885V20.6563V20.6241V20.5918V20.5595V20.5271V20.4947V20.4622V20.4296V20.397V20.3644V20.3317V20.299V20.2662V20.2334V20.2005V20.1676V20.1346V20.1016V20.0686V20.0355V20.0024V19.9692V19.936V19.9027V19.8694V19.8361V19.8027V19.7694V19.7359V19.7025V19.669V19.6354V19.6019V19.5683V19.5346V19.501V19.4673V19.4336V19.3999V19.3661V19.3323V19.2985V19.2646V19.2308V19.1969V19.163V19.1291V19.0951V19.0611V19.0271V18.9931V18.9591V18.9251V18.891V18.8569V18.8228V18.7887V18.7546V18.7205V18.6864V18.6522V18.6181V18.5839V18.5497V18.5155V18.4813V18.4472V18.413V18.3787V18.3445V18.3103V18.2761V18.2419V18.2077V18.1735V18.1392V18.105V18.0708V18.0366V18.0024V17.9682V17.934V17.8998V17.8656V17.8315V17.7973V17.7631V17.729V17.6948V17.6607V17.6266V17.5925V17.5584V17.5243V17.4903V17.4562V17.4222V17.3882V17.3542V17.3202V17.2863V17.2524V17.2185V17.1846V17.1507V17.1169V17.083V17.0493V17.0155V16.9818V16.948V16.9144V16.8807V16.8471V16.8135V16.7799V16.7464V16.7129V16.6794V16.646V16.6126V16.5792V16.5459V16.5126V16.4794V16.4462V16.413V16.3799V16.3468V16.3137V16.2807V16.2478V16.2148V16.182V16.1491V16.1164V16.0836V16.0509V16.0183V15.9857V15.9532V15.9207V15.8883V15.8559V15.8235V15.7913V15.759V15.7269V15.6948V15.6627V15.6307V15.5988V15.5669V15.5351V15.5033V15.4716V15.44V15.4084V15.3769V15.3455V15.3141V15.2828V15.2516V15.2204V15.1893V15.1582V15.1273V15.0964V15.0655V15.0348V15.0041V14.9735V14.943V14.9125V14.8821V14.8518V14.8216V14.7914V14.7614V14.7314V14.7015V14.6716V14.6419V14.6122V14.5826V14.5532V14.5237V14.4944V14.4652V14.436V14.407V14.378V14.3491V14.3203V14.2916V14.263V14.2345V14.206V14.1777V14.1495V14.1213V14.0933V14.0653V14.0375V14.0097V13.9821V13.9545V13.9271V13.8997V13.8725V13.8454V13.8183V13.7914V13.7646V13.7378V13.7112V13.6847V13.6583V13.632V13.6058V13.5798V13.5538V13.528V13.5023V13.4766V13.4511V13.4257V13.4005V13.3753V13.3503V13.3254V13.3006V13.2759V13.2513V13.2269V13.2026V13.1784V13.1543V13.1304V13.1066V13.0829V13.0593V13.0359V13.0126V12.9894V12.9663V12.9434V12.9206V12.898V12.8755V12.8531V12.8308V12.8087V12.7867V12.7649V12.7432V12.7216V12.7002V12.6789V12.6577V12.6367V12.6158V12.5951V12.5745V12.5541V12.5338V12.5137V12.4937V12.4738V12.4541V12.4345V12.4151V12.3959V12.3768V12.3578V12.339V12.3204V12.3019V12.2836V12.2654V12.2473V12.2295V12.2118V12.1942V12.1768V12.1596V12.1425V12.1256V12.1089V12.0923V12.0759V12.0596V12.0435V12.0276V12.0118V11.9963V11.9808V11.9656V11.9505V11.9356V11.9209V11.9063V11.8919V11.8777V11.8637V11.8498V11.8361V11.8226V11.8092V11.7961V11.7831V11.7703V11.7577V11.7453V11.733V11.7209V11.709V11.6973V11.6858V11.6745V11.6633V11.6524V11.6416V11.631V11.6206V11.6104V11.6004V11.5906V11.581V11.5716C9.49609 11.2592 9.64639 11.0137 9.83795 10.8805C10.0268 10.7493 10.2364 10.7341 10.4172 10.8376ZM10.8148 18.7917V19.5939L11.535 19.2405L16.729 16.6923L17.6253 16.2525L16.7363 15.7982L11.5424 13.1437L10.8148 12.7719V13.5889V18.7917Z" fill="#33323C" stroke="#33323C"/>
<path d="M14.3295 24.2729L14.3329 24.2674L14.3385 24.2589L14.3451 24.2475C14.5141 23.9573 14.9267 23.8989 15.2059 24.2186C15.4 24.4408 15.4535 24.6406 15.4535 24.8453C15.4535 25.0486 15.3771 25.26 15.2571 25.4146C15.135 25.5719 15.0123 25.6194 14.9332 25.6194H14.8926L14.8526 25.626C14.578 25.6709 14.2149 25.4587 14.1352 24.9211C14.1402 24.7509 14.1862 24.5892 14.2376 24.4616C14.2642 24.3956 14.2905 24.3431 14.3091 24.3089C14.3183 24.2918 14.3255 24.2796 14.3295 24.2729Z" fill="#33323C" stroke="#33323C"/>
<path d="M25.5615 24.9766C25.549 25.4947 25.1628 25.8309 24.8561 25.8309C24.5444 25.8309 24.1504 25.4834 24.1504 24.9506C24.1504 24.4179 24.5444 24.0703 24.8561 24.0703C25.0313 24.0703 25.174 24.1368 25.2911 24.2709C25.4126 24.41 25.5205 24.6409 25.5615 24.9766Z" fill="#33323C" stroke="#33323C"/>
<path d="M32.2396 24.8452C32.2396 25.3779 31.8456 25.7255 31.5339 25.7255C31.3882 25.7255 31.2422 25.6579 31.1075 25.4952C30.974 25.3339 30.8687 25.0945 30.8285 24.815C30.843 24.2993 31.228 23.9648 31.5339 23.9648C31.8456 23.9648 32.2396 24.3124 32.2396 24.8452Z" fill="#33323C" stroke="#33323C"/>
<path d="M28.9017 24.8452C28.9017 25.3779 28.5077 25.7255 28.196 25.7255C27.8842 25.7255 27.4902 25.3779 27.4902 24.8452C27.4902 24.3124 27.8842 23.9648 28.196 23.9648C28.5077 23.9648 28.9017 24.3124 28.9017 24.8452Z" fill="#33323C" stroke="#33323C"/>
<path d="M17.4727 24.9506C17.4727 24.4179 17.8667 24.0703 18.1784 24.0703C18.3536 24.0703 18.4962 24.1368 18.6134 24.2709C18.7349 24.41 18.8428 24.6409 18.8838 24.9766C18.8712 25.4947 18.485 25.8309 18.1784 25.8309C17.8667 25.8309 17.4727 25.4834 17.4727 24.9506Z" fill="#33323C" stroke="#33323C"/>
<path d="M20.8125 24.9506C20.8125 24.4179 21.2065 24.0703 21.5182 24.0703C21.6934 24.0703 21.8361 24.1368 21.9532 24.2709C22.0748 24.41 22.1826 24.6409 22.2237 24.9766C22.2111 25.4947 21.8249 25.8309 21.5182 25.8309C21.2065 25.8309 20.8125 25.4834 20.8125 24.9506Z" fill="#33323C" stroke="#33323C"/>
<path d="M40.8457 24.9506C40.8457 24.4179 41.2397 24.0703 41.5514 24.0703C41.8871 24.0703 42.2572 24.3384 42.2572 24.9506C42.2572 25.4834 41.8632 25.8309 41.5514 25.8309C41.2397 25.8309 40.8457 25.4834 40.8457 24.9506Z" fill="#33323C" stroke="#33323C"/>
<path d="M35.5794 24.8452C35.5794 25.3779 35.1854 25.7255 34.8737 25.7255C34.7281 25.7255 34.582 25.6579 34.4474 25.4952C34.3138 25.3339 34.2086 25.0945 34.1684 24.815C34.1829 24.2993 34.5679 23.9648 34.8737 23.9648C35.1854 23.9648 35.5794 24.3124 35.5794 24.8452Z" fill="#33323C" stroke="#33323C"/>
<path d="M37.5059 24.9506C37.5059 24.4179 37.8999 24.0703 38.2116 24.0703C38.5473 24.0703 38.9173 24.3384 38.9173 24.9506C38.9173 25.4834 38.5233 25.8309 38.2116 25.8309C37.8999 25.8309 37.5059 25.4834 37.5059 24.9506Z" fill="#33323C" stroke="#33323C"/>
<path d="M44.8684 25.7298L44.8332 25.7248H44.7976C44.6965 25.7248 44.5981 25.6822 44.5004 25.5629C44.4014 25.442 44.3169 25.2539 44.2776 25.0199C44.2824 24.7124 44.3488 24.5256 44.5249 24.324L44.5564 24.288L44.5804 24.2466C44.6097 24.1964 44.6577 24.1537 44.7324 24.1208C44.8104 24.0865 44.9025 24.0703 44.9831 24.0703C45.2253 24.0703 45.5194 24.2392 45.5957 24.7691C45.5892 25.078 45.4846 25.347 45.3407 25.5201C45.1983 25.6913 45.0366 25.7539 44.8684 25.7298Z" fill="#33323C" stroke="#33323C"/>
<path d="M44.2773 28.8803C44.2773 28.3476 44.6713 28 44.9831 28C45.0701 28 45.222 28.0557 45.3833 28.2404C45.5328 28.4115 45.6495 28.6515 45.6884 28.911C45.6736 29.4264 45.2888 29.7606 44.9831 29.7606C44.6713 29.7606 44.2773 29.4131 44.2773 28.8803Z" fill="#33323C" stroke="#33323C"/>
<path d="M44.9705 33.6962L44.9304 33.6896H44.8898C44.7887 33.6896 44.6902 33.647 44.5926 33.5277C44.4899 33.4024 44.4029 33.2048 44.3656 32.9586C44.3027 32.3447 44.695 32.0352 44.9825 32.0352C45.2004 32.0352 45.6048 32.2781 45.6878 32.9409C45.6806 33.159 45.5816 33.3676 45.4323 33.5142C45.2756 33.6679 45.1041 33.718 44.9705 33.6962Z" fill="#33323C" stroke="#33323C"/>
<path d="M35.2083 32.81C35.2083 33.3427 34.8143 33.6903 34.5026 33.6903C34.357 33.6903 34.2109 33.6228 34.0763 33.4601C33.9427 33.2987 33.8375 33.0593 33.7973 32.7799C33.8118 32.2642 34.1968 31.9297 34.5026 31.9297C34.8143 31.9297 35.2083 32.2773 35.2083 32.81Z" fill="#33323C" stroke="#33323C"/>
<path d="M30.3652 32.9155C30.3652 32.3827 30.7592 32.0352 31.071 32.0352C31.2889 32.0352 31.6936 32.2783 31.7764 32.9417C31.7637 33.4596 31.3776 33.7958 31.071 33.7958C30.7592 33.7958 30.3652 33.4482 30.3652 32.9155Z" fill="#33323C" stroke="#33323C"/>
<path d="M40.7539 32.9155C40.7539 32.3827 41.1479 32.0352 41.4596 32.0352C41.7953 32.0352 42.1654 32.3032 42.1654 32.9155C42.1654 33.4482 41.7714 33.7958 41.4596 33.7958C41.1479 33.7958 40.7539 33.4482 40.7539 32.9155Z" fill="#33323C" stroke="#33323C"/>
<path d="M19.8848 32.9155C19.8848 32.3827 20.2788 32.0352 20.5905 32.0352C20.9262 32.0352 21.2962 32.3032 21.2962 32.9155C21.2962 33.4482 20.9022 33.7958 20.5905 33.7958C20.2788 33.7958 19.8848 33.4482 19.8848 32.9155Z" fill="#33323C" stroke="#33323C"/>
<path d="M37.3203 32.9155C37.3203 32.3827 37.7143 32.0352 38.026 32.0352C38.244 32.0352 38.6487 32.2783 38.7315 32.9417C38.7188 33.4596 38.3326 33.7958 38.026 33.7958C37.7143 33.7958 37.3203 33.4482 37.3203 32.9155Z" fill="#33323C" stroke="#33323C"/>
<path d="M23.4082 32.9155C23.4082 32.3827 23.8022 32.0352 24.1139 32.0352C24.3319 32.0352 24.7365 32.2783 24.8193 32.9417C24.8067 33.4596 24.4205 33.7958 24.1139 33.7958C23.8022 33.7958 23.4082 33.4482 23.4082 32.9155Z" fill="#33323C" stroke="#33323C"/>
<path d="M26.8398 32.9155C26.8398 32.3827 27.2338 32.0352 27.5456 32.0352C27.8812 32.0352 28.2513 32.3032 28.2513 32.9155C28.2513 33.4482 27.8573 33.7958 27.5456 33.7958C27.2338 33.7958 26.8398 33.4482 26.8398 32.9155Z" fill="#33323C" stroke="#33323C"/>
<path d="M17.7748 32.8636C17.8425 33.4832 17.4477 33.7958 17.1589 33.7958C16.8471 33.7958 16.4531 33.4482 16.4531 32.9155C16.4531 32.3827 16.8471 32.0352 17.1589 32.0352C17.3012 32.0352 17.4225 32.0857 17.5228 32.1938C17.6289 32.3081 17.7369 32.5162 17.7748 32.8636Z" fill="#33323C" stroke="#33323C"/>
<path d="M16.4531 36.8452C16.4531 36.3124 16.8471 35.9648 17.1589 35.9648C17.2458 35.9648 17.3977 36.0205 17.5591 36.2052C17.7086 36.3764 17.8253 36.6163 17.8642 36.8758C17.8494 37.3912 17.4646 37.7255 17.1589 37.7255C16.8471 37.7255 16.4531 37.3779 16.4531 36.8452Z" fill="#33323C" stroke="#33323C"/>
<path d="M16.543 40.7222L16.546 40.6952V40.668C16.546 40.3074 16.8711 40.014 17.1398 40.0005C17.1517 40.0065 17.1817 40.0239 17.2309 40.069C17.3198 40.1506 17.4185 40.2752 17.5192 40.4269C17.6175 40.5751 17.7052 40.7297 17.7773 40.8608C17.7901 40.8841 17.8032 40.9081 17.816 40.9316C17.8298 40.9567 17.8431 40.9812 17.8553 41.0032C17.8053 41.3267 17.5632 41.5808 17.2957 41.653C16.8604 41.6263 16.4859 41.2453 16.543 40.7222Z" fill="#33323C" stroke="#33323C"/>
<path d="M22.9453 40.8803C22.9453 40.3476 23.3393 40 23.651 40C23.869 40 24.2737 40.2431 24.3565 40.9066C24.3438 41.4244 23.9576 41.7606 23.651 41.7606C23.3393 41.7606 22.9453 41.4131 22.9453 40.8803Z" fill="#33323C" stroke="#33323C"/>
<path d="M29.4375 40.8803C29.4375 40.3476 29.8315 40 30.1432 40C30.3612 40 30.7658 40.2431 30.8486 40.9066C30.836 41.4244 30.4498 41.7606 30.1432 41.7606C29.8315 41.7606 29.4375 41.4131 29.4375 40.8803Z" fill="#33323C" stroke="#33323C"/>
<path d="M19.6992 40.8803C19.6992 40.3476 20.0932 40 20.405 40C20.6493 40 21.0179 40.2696 21.0179 40.7741C21.0179 41.0488 20.9304 41.3183 20.7967 41.5074C20.6633 41.696 20.5215 41.7606 20.405 41.7606C20.0932 41.7606 19.6992 41.4131 19.6992 40.8803Z" fill="#33323C" stroke="#33323C"/>
<path d="M26.1914 40.8803C26.1914 40.3476 26.5854 40 26.8971 40C27.1415 40 27.5101 40.2696 27.5101 40.7741C27.5101 41.0488 27.4226 41.3183 27.2889 41.5074C27.1555 41.696 27.0137 41.7606 26.8971 41.7606C26.5854 41.7606 26.1914 41.4131 26.1914 40.8803Z" fill="#33323C" stroke="#33323C"/>
<path d="M32.6836 40.8785C32.6836 38.8593 34.0978 37.3438 35.708 37.3438C37.2337 37.3438 38.6397 38.7624 38.6397 40.7723C38.6397 42.8281 37.2875 44.4132 35.708 44.4132C34.0978 44.4132 32.6836 42.8977 32.6836 40.8785ZM34.0023 40.7723C34.0023 41.7261 34.7213 42.6526 35.708 42.6526C36.1669 42.6526 36.5928 42.4003 36.8877 42.0796C37.1899 41.7509 37.4138 41.2892 37.4138 40.7723C37.4138 39.8186 36.6948 38.892 35.708 38.892C34.7213 38.892 34.0023 39.8186 34.0023 40.7723Z" fill="#33323C" stroke="#33323C"/>
</g>
<defs>
<clipPath id="clip0_462_14124">
<rect width="55" height="55" fill="white"/>
</clipPath>
</defs>
</svg>
