<svg width="44" height="50" viewBox="0 0 44 50" fill="none" xmlns="http://www.w3.org/2000/svg">
<path d="M0 29.6875C0 33.7049 1.19131 37.6321 3.42327 40.9725C5.65524 44.3129 8.82762 46.9164 12.5392 48.4538C16.2509 49.9912 20.335 50.3935 24.2753 49.6097C28.2155 48.8259 31.8348 46.8913 34.6756 44.0506C37.5163 41.2098 39.4509 37.5905 40.2347 33.6503C41.0185 29.71 40.6162 25.6259 39.0788 21.9142C37.5414 18.2026 34.9379 15.0302 31.5975 12.7983C28.2571 10.5663 24.3299 9.375 20.3125 9.375C14.9253 9.375 9.75872 11.5151 5.94939 15.3244C2.14006 19.1337 0 24.3003 0 29.6875ZM20.3125 15.625V29.6875L30.25 39.625C28.6151 41.2619 26.6017 42.4702 24.3881 43.1427C22.1745 43.8152 19.8292 43.9312 17.5601 43.4805C15.2909 43.0297 13.168 42.026 11.3796 40.5585C9.59118 39.0909 8.19244 37.2048 7.30738 35.0673C6.42232 32.9298 6.07829 30.607 6.30578 28.3047C6.53327 26.0024 7.32526 23.7918 8.61153 21.8689C9.8978 19.9459 11.6386 18.37 13.6797 17.2809C15.7208 16.1917 17.999 15.623 20.3125 15.625ZM15.625 6.25C15.2106 6.25 14.8132 6.08538 14.5201 5.79235C14.2271 5.49933 14.0625 5.1019 14.0625 4.6875V1.5625C14.0625 1.1481 14.2271 0.750671 14.5201 0.457646C14.8132 0.16462 15.2106 0 15.625 0H25C25.4144 0 25.8118 0.16462 26.1048 0.457646C26.3979 0.750671 26.5625 1.1481 26.5625 1.5625V4.6875C26.5625 5.1019 26.3979 5.49933 26.1048 5.79235C25.8118 6.08538 25.4144 6.25 25 6.25H15.625ZM43.2891 10.75C43.4343 10.8951 43.5496 11.0674 43.6282 11.2571C43.7068 11.4468 43.7473 11.6501 43.7473 11.8555C43.7473 12.0608 43.7068 12.2641 43.6282 12.4538C43.5496 12.6435 43.4343 12.8158 43.2891 12.9609L41.0781 15.1719C40.933 15.3171 40.7607 15.4324 40.571 15.511C40.3813 15.5897 40.178 15.6301 39.9726 15.6301C39.7673 15.6301 39.564 15.5897 39.3743 15.511C39.1846 15.4324 39.0123 15.3171 38.8672 15.1719L34.8281 11.1328C34.6828 10.9877 34.5676 10.8154 34.489 10.6257C34.4103 10.436 34.3699 10.2327 34.3699 10.0273C34.3699 9.822 34.4103 9.61868 34.489 9.429C34.5676 9.23931 34.6828 9.06699 34.8281 8.92187L37.0391 6.71094C37.1842 6.56566 37.3565 6.45041 37.5462 6.37178C37.7359 6.29315 37.9392 6.25268 38.1445 6.25268C38.3499 6.25268 38.5532 6.29315 38.7429 6.37178C38.9326 6.45041 39.1049 6.56566 39.25 6.71094L43.2891 10.75Z" fill="white"/>
</svg>
