<svg width="24" height="24" viewBox="0 0 24 24" fill="none" xmlns="http://www.w3.org/2000/svg">
<path d="M21.7692 5H2.23078C1.2749 5 0.5 5.7749 0.5 6.73078C0.5 7.68667 1.2749 8.46156 2.23078 8.46156H21.7692C22.7251 8.46156 23.5 7.68667 23.5 6.73078C23.5 5.7749 22.7251 5 21.7692 5Z" fill="white"/>
<path d="M11.547 10.4609H2.23078C1.2749 10.4609 0.5 11.2358 0.5 12.1917C0.5 13.1476 1.2749 13.9225 2.23078 13.9225H11.547C12.5029 13.9225 13.2778 13.1476 13.2778 12.1917C13.2778 11.2358 12.5029 10.4609 11.547 10.4609Z" fill="white"/>
<path d="M17.9359 15.9219H2.23078C1.2749 15.9219 0.5 16.6968 0.5 17.6527C0.5 18.6085 1.2749 19.3834 2.23078 19.3834H17.9359C18.8918 19.3834 19.6667 18.6085 19.6667 17.6527C19.6667 16.6968 18.8918 15.9219 17.9359 15.9219Z" fill="white"/>
</svg>
